<svg xmlns="http://www.w3.org/2000/svg" width="103" height="103" viewBox="0 0 103 103">
  <g id="Group_1204180" data-name="Group 1204180" transform="translate(-253.972 -11116.922)">
    <g id="Group_1203593" data-name="Group 1203593" transform="translate(256.094 11138.794)">
      <rect id="Rectangle_410589" data-name="Rectangle 410589" width="99.185" height="33.062" rx="8" transform="translate(0 12.94)" fill="#3e5b2c"/>
      <g id="Group_1204223" data-name="Group 1204223" transform="translate(9.878 -9.872)">
        <g id="Group_1204236" data-name="Group 1204236" transform="translate(1.284 1.284)">
          <g id="Group_1204223-2" data-name="Group 1204223" transform="translate(46.229 43.661)">
            <path id="Path_1258197" data-name="Path 1258197" d="M47.273,47.841a5.135,5.135,0,0,0-5.137,5.137H40.852a3.843,3.843,0,0,0-2.722,1.13,11.556,11.556,0,0,1,10.427-16.54h4.353a15.246,15.246,0,0,0,8.026-2.286c.154-.09.308-.18.462-.283l2.337,2.337A13.952,13.952,0,0,1,66.214,53.7a3.873,3.873,0,0,0-2.247-.719H62.683a2.576,2.576,0,0,0-2.568-2.568H49.841A2.576,2.576,0,0,1,47.273,47.841Z" transform="translate(-37 -35)" fill="#b27946"/>
          </g>
          <g id="Group_1204224" data-name="Group 1204224" transform="translate(0 0)">
            <path id="Path_1258198" data-name="Path 1258198" d="M15.036,13.315l-4.071.231a5.146,5.146,0,0,0-4.828,5.137v.3H4.852a3.844,3.844,0,0,0-2.145.655A12.363,12.363,0,0,1,13.354,1H17.09A9.3,9.3,0,0,1,25.4,6.137l.154.026a7.8,7.8,0,0,1,6.267,7.654A12.932,12.932,0,0,1,30.343,19.8a3.832,3.832,0,0,0-2.376-.822H26.683V16.41a5.751,5.751,0,0,1-3.185-.976,5.627,5.627,0,0,1-1.939-2.26h-.013v.36a4.64,4.64,0,0,1-2.568,4.161l-.424-1.284a4.665,4.665,0,0,0-3.519-3.095Z" transform="translate(-1 -1)" fill="#b27946"/>
          </g>
          <g id="Group_1204225" data-name="Group 1204225" transform="translate(46.229)">
            <path id="Path_1258199" data-name="Path 1258199" d="M51.1,13.79l-.064.051H47.273a5.135,5.135,0,0,0-5.137,5.137V25.4a8.789,8.789,0,0,0,.873,3.852l-1.952-.411A5.154,5.154,0,0,1,37,23.806v-7.4a15.41,15.41,0,1,1,30.82,0v7.4a5.154,5.154,0,0,1-4.058,5.034l-1.952.411a8.789,8.789,0,0,0,.873-3.852V20.262a3.847,3.847,0,0,0-3.852-3.852H56.262A6.365,6.365,0,0,1,51.1,13.79Z" transform="translate(-37 -1)" fill="#656d78"/>
          </g>
          <g id="Group_1204226" data-name="Group 1204226" transform="translate(0 43.661)">
            <path id="Path_1258200" data-name="Path 1258200" d="M8.718,38.9A15.417,15.417,0,0,1,34.388,50.41v1.657a20.2,20.2,0,0,0,2.132,9.028,4.279,4.279,0,0,1,.437,1.849A4.16,4.16,0,0,1,32.8,67.1H24.9a8.964,8.964,0,0,0,4.353-7.7V52.978a2.576,2.576,0,0,0-2.568-2.568H20.262l-2.568-3.852L15.126,50.41H11.273A2.576,2.576,0,0,0,8.7,52.978V59.4a8.964,8.964,0,0,0,4.353,7.7h-7.9A4.165,4.165,0,0,1,1,62.943a4.208,4.208,0,0,1,.437-1.849,20.2,20.2,0,0,0,2.132-9.028V50.41a15.361,15.361,0,0,1,4.507-10.9C8.281,39.3,8.5,39.1,8.718,38.9Z" transform="translate(-1 -35)" fill="#fcd770"/>
          </g>
          <g id="Group_1204227" data-name="Group 1204227" transform="translate(7.705 55.218)">
            <path id="Path_1258201" data-name="Path 1258201" d="M27.546,50.421v6.421a8.981,8.981,0,0,1-8.989,8.989H15.989A8.981,8.981,0,0,1,7,56.841V50.421a2.576,2.576,0,0,1,2.568-2.568h3.852L15.989,44l2.568,3.852h6.421A2.576,2.576,0,0,1,27.546,50.421Z" transform="translate(-7 -44)" fill="#f0d0b4"/>
          </g>
          <g id="Group_1204228" data-name="Group 1204228" transform="translate(71.81 61.639)">
            <path id="Path_1258202" data-name="Path 1258202" d="M61.029,55.575a3.843,3.843,0,0,1-2.722,1.13H57.023l-.1-.013a6.889,6.889,0,0,0,.1-1.271V49h1.284a3.85,3.85,0,0,1,2.722,6.575Z" transform="translate(-56.92 -49)" fill="#f0d0b4"/>
          </g>
          <g id="Group_1204229" data-name="Group 1204229" transform="translate(46.229 61.639)">
            <path id="Path_1258203" data-name="Path 1258203" d="M42.137,55.421a6.889,6.889,0,0,0,.1,1.271l-.1.013H40.852a3.787,3.787,0,0,1-1.528-.321,3.641,3.641,0,0,1-1.194-.809A3.852,3.852,0,0,1,40.852,49h1.284Z" transform="translate(-37 -49)" fill="#f0d0b4"/>
          </g>
          <g id="Group_1204230" data-name="Group 1204230" transform="translate(51.366 56.503)">
            <path id="Path_1258204" data-name="Path 1258204" d="M61.546,50.137v6.421a6.889,6.889,0,0,1-.1,1.271,8.963,8.963,0,0,1-8.886,7.718H49.989A8.963,8.963,0,0,1,41.1,57.829a6.889,6.889,0,0,1-.1-1.271V50.137A5.135,5.135,0,0,1,46.137,45,2.576,2.576,0,0,0,48.7,47.568H58.978a2.576,2.576,0,0,1,2.568,2.568Z" transform="translate(-41 -45)" fill="#f0d0b4"/>
          </g>
          <g id="Group_1204231" data-name="Group 1204231" transform="translate(51.366 12.79)">
            <path id="Path_1258205" data-name="Path 1258205" d="M61.546,17.432v5.137a8.789,8.789,0,0,1-.873,3.852,8.063,8.063,0,0,1-1.451,2.157,8.846,8.846,0,0,1-6.665,2.979H49.989a8.951,8.951,0,0,1-8.116-5.137A8.789,8.789,0,0,1,41,22.569V16.148a5.135,5.135,0,0,1,5.137-5.137H49.9l.064-.051a6.365,6.365,0,0,0,5.162,2.62h2.568A3.847,3.847,0,0,1,61.546,17.432Z" transform="translate(-41 -10.96)" fill="#f0d0b4"/>
          </g>
          <g id="Group_1204232" data-name="Group 1204232" transform="translate(25.58 17.978)">
            <path id="Path_1258206" data-name="Path 1258206" d="M25.029,21.575a3.843,3.843,0,0,1-2.722,1.13H21.023l-.1-.013a6.889,6.889,0,0,0,.1-1.271V15h1.284a3.85,3.85,0,0,1,2.722,6.575Z" transform="translate(-20.92 -15)" fill="#f0d0b4"/>
          </g>
          <g id="Group_1204233" data-name="Group 1204233" transform="translate(5.137 12.174)">
            <path id="Path_1258207" data-name="Path 1258207" d="M22.362,12.74a5.751,5.751,0,0,0,3.185.976v8.989a6.889,6.889,0,0,1-.1,1.271,8.963,8.963,0,0,1-8.886,7.718H13.989a8.846,8.846,0,0,1-6.665-2.979A8.667,8.667,0,0,1,5.1,23.976,6.889,6.889,0,0,1,5,22.705V15.989a5.146,5.146,0,0,1,4.828-5.137l4.071-.231a4.665,4.665,0,0,1,3.519,3.095L17.841,15A4.64,4.64,0,0,0,20.41,10.84v-.36h.013A5.627,5.627,0,0,0,22.362,12.74Z" transform="translate(-5 -10.48)" fill="#f0d0b4"/>
          </g>
          <g id="Group_1204234" data-name="Group 1204234" transform="translate(0 17.978)">
            <path id="Path_1258208" data-name="Path 1258208" d="M6.137,21.421a6.889,6.889,0,0,0,.1,1.271l-.1.013H4.852a3.852,3.852,0,0,1,0-7.7H6.137Z" transform="translate(-1 -15)" fill="#f0d0b4"/>
          </g>
          <g id="Group_1204235" data-name="Group 1204235" transform="translate(25.683 33.388)">
            <path id="Path_1258209" data-name="Path 1258209" d="M21.719,34.461,21.064,31.2A4.221,4.221,0,0,1,21,30.506,3.5,3.5,0,0,1,24.506,27H43.177a3.5,3.5,0,0,1,3.506,3.506,3.945,3.945,0,0,1-.064.681l-.655,3.275a3.517,3.517,0,0,1-3.442,2.825H37.54L34.355,41.7a1.7,1.7,0,0,1-3.082-.989V37.273H25.161a3.519,3.519,0,0,1-3.442-2.812Z" transform="translate(-21 -27)" fill="#e6e9ed"/>
          </g>
        </g>
        <g id="Group_1204237" data-name="Group 1204237" transform="translate(0 0)">
          <path id="Path_1258210" data-name="Path 1258210" d="M19.791,21.784,17.569,20.5a3.857,3.857,0,0,1-6.678,0L8.67,21.784a6.42,6.42,0,0,0,11.121,0Z" transform="translate(2.464 5.825)"/>
          <path id="Path_1258211" data-name="Path 1258211" d="M50.23,56.427A3.873,3.873,0,0,1,46.892,54.5L44.67,55.786a6.422,6.422,0,0,0,11.121,0L53.569,54.5a3.873,3.873,0,0,1-3.339,1.928Z" transform="translate(12.693 15.486)"/>
          <path id="Path_1258212" data-name="Path 1258212" d="M50.23,22.426A3.871,3.871,0,0,1,46.892,20.5L44.67,21.784a6.42,6.42,0,0,0,11.121,0L53.569,20.5a3.871,3.871,0,0,1-3.339,1.926Z" transform="translate(12.693 5.825)"/>
          <path id="Path_1258213" data-name="Path 1258213" d="M16.23,56.427A3.873,3.873,0,0,1,12.892,54.5L10.67,55.786a6.422,6.422,0,0,0,11.121,0L19.569,54.5A3.873,3.873,0,0,1,16.23,56.427Z" transform="translate(3.032 15.486)"/>
          <path id="Path_1258214" data-name="Path 1258214" d="M47.505,35l.654-3.273A4.792,4.792,0,0,0,43.463,26H24.789a4.792,4.792,0,0,0-4.7,5.729l.654,3.263a4.8,4.8,0,0,0,4.7,3.85h4.831V41a2.984,2.984,0,0,0,5.4,1.745l2.8-3.886h4.331A4.8,4.8,0,0,0,47.505,35ZM37.163,36.286l-3.569,4.95a.43.43,0,0,1-.753-.241V36.273h-7.4a2.227,2.227,0,0,1-2.178-1.786l-.654-3.262a2.247,2.247,0,0,1-.042-.437,2.223,2.223,0,0,1,2.22-2.22H43.461a2.223,2.223,0,0,1,2.222,2.222,2.254,2.254,0,0,1-.042.435L44.987,34.5a2.227,2.227,0,0,1-2.178,1.788Z" transform="translate(5.683 7.388)"/>
          <path id="Path_1258215" data-name="Path 1258215" d="M32,30h2.568v2.568H32Z" transform="translate(9.093 8.524)"/>
          <path id="Path_1258216" data-name="Path 1258216" d="M36,30h2.568v2.568H36Z" transform="translate(10.229 8.524)"/>
          <path id="Path_1258217" data-name="Path 1258217" d="M24,30h2.568v2.568H24Z" transform="translate(6.82 8.524)"/>
          <path id="Path_1258218" data-name="Path 1258218" d="M28,30h2.568v2.568H28Z" transform="translate(7.956 8.524)"/>
          <path id="Path_1258219" data-name="Path 1258219" d="M74.538,30.375A6.453,6.453,0,0,0,79.617,24.1v-7.4a16.679,16.679,0,0,0-30.734-9,33.7,33.7,0,0,0-18.173,0,9.045,9.045,0,0,0-4.175-2.406A10.515,10.515,0,0,0,17.372,0H13.643A13.589,13.589,0,0,0,1.4,19.606a5.121,5.121,0,0,0,3.732,8.645h.338a10.247,10.247,0,0,0,1.874,3.779,32.947,32.947,0,0,0,.231,16.42,16.634,16.634,0,0,0-5.011,11.9v1.659A18.969,18.969,0,0,1,.574,70.46,5.441,5.441,0,0,0,5.44,78.333h7.575a10.2,10.2,0,0,0,4.962,1.284h2.568a10.2,10.2,0,0,0,4.962-1.284h7.575a5.433,5.433,0,0,0,5.413-5.167c.451.019.887.031,1.314.031a33.309,33.309,0,0,0,10.006-1.55,5.054,5.054,0,0,0,1.551.266H51.7a10.282,10.282,0,0,0,9.935,7.7h2.568a10.283,10.283,0,0,0,9.935-7.7h.338a5.115,5.115,0,0,0,3.79-8.574,15.123,15.123,0,0,0-3.115-16.966l-2.27-2.27a31.774,31.774,0,0,0-.616-12.071,10.349,10.349,0,0,0,.916-1.366ZM64.207,33.388H61.639a7.713,7.713,0,0,1-7.7-7.7V19.262a3.857,3.857,0,0,1,3.852-3.852h3.25a7.688,7.688,0,0,0,5.739,2.568h2.568a2.571,2.571,0,0,1,2.568,2.568v5.137A7.713,7.713,0,0,1,64.207,33.388ZM62.923,2.568A14.142,14.142,0,0,1,77.049,16.694v7.4a3.864,3.864,0,0,1-2.785,3.687,10.3,10.3,0,0,0,.217-2.1V20.546a5.142,5.142,0,0,0-5.137-5.137H66.776a5.142,5.142,0,0,1-5.137-5.137H59.071a7.669,7.669,0,0,0,.44,2.568H57.787a6.428,6.428,0,0,0-6.421,6.421v6.421a10.3,10.3,0,0,0,.217,2.1A3.866,3.866,0,0,1,48.8,24.1v-7.4A14.142,14.142,0,0,1,62.923,2.568ZM28.251,20.546a2.568,2.568,0,0,1,0,5.137ZM2.568,23.115a2.571,2.571,0,0,1,2.568-2.568v5.137A2.571,2.571,0,0,1,2.568,23.115Zm2.665-5.137h-.1a5.075,5.075,0,0,0-1.549.265A11.04,11.04,0,0,1,13.643,2.568h3.729a7.962,7.962,0,0,1,7.162,4.426l.281.562.768.152A6.535,6.535,0,0,1,30.82,14.1a11.59,11.59,0,0,1-.8,4.212,5.073,5.073,0,0,0-1.764-.333V15.41H26.967a4.386,4.386,0,0,1-4.091-2.77L21.738,9.8l-2.385.954,1.138,2.843c.017.04.039.076.055.116v.113a3.354,3.354,0,0,1-.666,2.014,5.979,5.979,0,0,0-4.311-3.5,3.4,3.4,0,0,1-2.728-3.326V6.421H10.273V9.008a5.923,5.923,0,0,0,1.185,3.53l-.285.017a6.415,6.415,0,0,0-5.94,5.423Zm2.472,7.7V18.964a3.858,3.858,0,0,1,3.621-3.846l3.843-.23a3.4,3.4,0,0,1,2.449,2.218l.894,2.683,1.324-.663a5.9,5.9,0,0,0,2.69-2.739,6.914,6.914,0,0,0,3.156,1.473v7.823a7.713,7.713,0,0,1-7.7,7.7H15.41A7.713,7.713,0,0,1,7.7,25.683ZM17.978,77.049a7.713,7.713,0,0,1-7.7-7.7V62.923a1.285,1.285,0,0,1,1.284-1.284H15.41a1.286,1.286,0,0,0,1.068-.571l1.5-2.25,1.5,2.25a1.286,1.286,0,0,0,1.068.571h6.421a1.285,1.285,0,0,1,1.284,1.284v6.421a7.713,7.713,0,0,1-7.7,7.7Zm15.107-1.284H28.553a10.217,10.217,0,0,0,2.267-6.421V62.923a3.857,3.857,0,0,0-3.852-3.852H21.233L19.046,55.79a1.332,1.332,0,0,0-2.137,0l-2.187,3.281H11.557A3.857,3.857,0,0,0,7.7,62.923v6.421a10.217,10.217,0,0,0,2.267,6.421H5.44a2.872,2.872,0,0,1-2.568-4.156,21.558,21.558,0,0,0,2.265-9.6V60.355a14.126,14.126,0,0,1,28.251,0v1.659a21.558,21.558,0,0,0,2.265,9.6,2.872,2.872,0,0,1-2.568,4.156Zm4.909-5.2c-.015-.033-.027-.069-.044-.1a18.969,18.969,0,0,1-1.994-8.446V60.355A16.674,16.674,0,0,0,9.766,46.643,30.607,30.607,0,0,1,9.525,34.09a10.2,10.2,0,0,0,5.885,1.866h2.568a10.283,10.283,0,0,0,9.935-7.7h.338a5.142,5.142,0,0,0,5.137-5.137,5.086,5.086,0,0,0-1.237-3.3A14.139,14.139,0,0,0,33.388,14.1a9.019,9.019,0,0,0-1.04-4.18,31.138,31.138,0,0,1,15.285.1,16.579,16.579,0,0,0-1.4,6.678v7.4a6.454,6.454,0,0,0,5.079,6.279l1.353.289a10.279,10.279,0,0,0,8.977,5.291h2.568a10.2,10.2,0,0,0,5.885-1.866,29.946,29.946,0,0,1,.161,10.363,13.962,13.962,0,0,1-6.823,1.776h-4.36a12.8,12.8,0,0,0-11.9,17.6,5.083,5.083,0,0,0,.01,5.9,30.708,30.708,0,0,1-7.368.9c-.575,0-1.183-.027-1.815-.065Zm10.8-3.787a2.571,2.571,0,0,1,2.568-2.568v5.137A2.571,2.571,0,0,1,48.8,66.776Zm23.115,2.568a7.713,7.713,0,0,1-7.7,7.7H61.639a7.713,7.713,0,0,1-7.7-7.7V62.923a3.859,3.859,0,0,1,2.839-3.718,3.859,3.859,0,0,0,3.581,2.433H70.628a1.285,1.285,0,0,1,1.284,1.284Zm2.568,0V64.207a2.568,2.568,0,0,1,0,5.137Zm2.568-12.2a12.718,12.718,0,0,1-.953,4.78,5.072,5.072,0,0,0-1.615-.285h-.236a3.847,3.847,0,0,0-3.616-2.568H60.355a1.284,1.284,0,1,1,0-2.568h1.284V53.934H60.355A3.861,3.861,0,0,0,56.69,56.6,6.435,6.435,0,0,0,51.5,61.639h-.139a5.091,5.091,0,0,0-2.1.458,10.23,10.23,0,0,1,9.8-13.3h4.36a16.524,16.524,0,0,0,8.294-2.224l1.615,1.615A12.585,12.585,0,0,1,77.049,57.145Z" transform="translate(0 0)"/>
        </g>
      </g>
    </g>
    <rect id="Rectangle_411643" data-name="Rectangle 411643" width="103" height="103" transform="translate(253.972 11116.922)" fill="none"/>
  </g>
</svg>
