<svg xmlns="http://www.w3.org/2000/svg" width="91" height="91" viewBox="0 0 91 91">
  <g id="Group_1204261" data-name="Group 1204261" transform="translate(-205.051 -3176)">
    <circle id="Ellipse_12686" data-name="Ellipse 12686" cx="45.5" cy="45.5" r="45.5" transform="translate(205.051 3176)" fill="#5a8441"/>
    <g id="Group_1204260" data-name="Group 1204260" transform="translate(217.918 3189)">
      <g id="Group_1204257" data-name="Group 1204257" transform="translate(5.349 4.673)">
        <path id="Path_1258283" data-name="Path 1258283" d="M383.385,396.528l-3.632,2.544v1.394h10.635a2.016,2.016,0,0,0,1.908-2.03V385.267h-8.908Z" transform="translate(-336.686 -340.939)" fill="#fde31d"/>
        <path id="Path_1258284" data-name="Path 1258284" d="M56.859,340.58s-3.352-3.9-6.667-3.818c-2.421.014-4.966,1.025-4.966,4.757,8.343-3.083,7.954,3.97,11.633,3.97h.068c3.679,0,3.29-7.053,11.633-3.97,0-3.732-2.545-4.743-4.966-4.757-3.315-.078-6.667,3.818-6.667,3.818Z" transform="translate(-44.707 -298.602)" fill="#8ae897"/>
        <path id="Path_1258285" data-name="Path 1258285" d="M137.226,55.49c3.679,0,3.29-7.053,11.633-3.97,0-3.732-2.545-4.743-4.966-4.757-3.315-.078-6.667,3.818-6.667,3.818Z" transform="translate(-125.006 -45.487)" fill="#8ae897"/>
        <path id="Path_1258286" data-name="Path 1258286" d="M57,179.186c-3.465,0-3.347-7.053-11.69-3.97,0-3.732,2.492-4.79,4.913-4.8,3.315-.078,6.777,3.864,6.777,3.864Z" transform="translate(-44.782 -153.41)" fill="#8ae897"/>
        <path id="Path_1258287" data-name="Path 1258287" d="M137.226,233.307c1.9,0,2.592-5.169,8.708-2.91a4.153,4.153,0,0,0-3.924-4.3c-2.43-.057-4.783,2.724-4.783,2.724v4.489Z" transform="translate(-125.006 -202.01)" fill="#8ae897"/>
        <path id="Path_1258288" data-name="Path 1258288" d="M48.567,240.63c-2.235-2.235-5.942-4.7-7.118-3.52-.741.741-.038,2.485,1.142,4.234l6.05-.637Z" transform="translate(-41.146 -211.36)" fill="#fde31d"/>
        <path id="Path_1258289" data-name="Path 1258289" d="M52.514,268.115A20.221,20.221,0,0,0,54.892,271c2.235,2.235,3.85,1.7,4.574.976s1.244-2.3-.9-4.5Z" transform="translate(-51.068 -238.131)" fill="#8ae897"/>
        <path id="Path_1258290" data-name="Path 1258290" d="M179.2,115.84c-1.176-1.176-4.883,1.285-7.118,3.52q-.207.207-.383.407l6.3.393C179.21,118.383,179.949,116.593,179.2,115.84Z" transform="translate(-155.091 -105.514)" fill="#fde31d"/>
        <path id="Path_1258291" data-name="Path 1258291" d="M163.318,148.806c-1.785,2.024-1.272,3.488-.593,4.167.724.724,2.339,1.259,4.574-.976a20.266,20.266,0,0,0,2.319-2.8Z" transform="translate(-146.714 -134.552)" fill="#8ae897"/>
        <path id="Path_1258292" data-name="Path 1258292" d="M189.128,280.021c-1-1.33-5.015.583-7.543,2.48-.106.08-.206.159-.3.238l5.948,1.5C188.738,282.617,189.781,280.892,189.128,280.021Z" transform="translate(-163.458 -248.692)" fill="#fde31d"/>
        <path id="Path_1258293" data-name="Path 1258293" d="M169.368,304.431c-2.2,1.8-1.9,3.368-1.31,4.152.614.818,2.138,1.576,4.666-.321a20.312,20.312,0,0,0,2.593-2.334Z" transform="translate(-151.544 -270.384)" fill="#8ae897"/>
        <path id="Path_1258294" data-name="Path 1258294" d="M76.934,102.307c-1.9,0-2.592-5.169-8.707-2.91a4.153,4.153,0,0,1,3.924-4.3c2.43-.057,4.783,2.724,4.783,2.724v4.489Z" transform="translate(-64.782 -87.672)" fill="#8ae897"/>
        <path id="Path_1258295" data-name="Path 1258295" d="M312.886,81.389l-.619.339a3.2,3.2,0,0,1-4.343-1.271l-1.691-3.091,5.623-3.056,3.2,5.853Z" transform="translate(-272.516 -69.531)" fill="#ffceb7"/>
        <path id="Path_1258296" data-name="Path 1258296" d="M297.229,41.211l-6.748,3.668-1.65-5.683,4.492-2.458Z" transform="translate(-257.329 -36.738)" fill="#e6cc9f"/>
        <path id="Path_1258297" data-name="Path 1258297" d="M360.833,117.621a4.452,4.452,0,1,0-7.822,4.252l2.028,3.889,8.13-4.419C361.864,119.143,360.833,117.621,360.833,117.621Z" transform="translate(-312.873 -105.303)" fill="#fff"/>
        <path id="Path_1258298" data-name="Path 1258298" d="M380.8,162.849l-8.13,4.419,4.537,8.7,0,15.17h8.908v-15.17C386.115,172.451,383.052,166.641,380.8,162.849Z" transform="translate(-330.506 -146.809)" fill="#ff6a47"/>
        <g id="Group_1204256" data-name="Group 1204256" transform="translate(0.519 2.401)">
          <path id="Path_1258299" data-name="Path 1258299" d="M73.822,95.452a4.046,4.046,0,0,0-1.671-.358,4.153,4.153,0,0,0-3.924,4.3,7.609,7.609,0,0,1,3.211-.555,4.2,4.2,0,0,1,2.383-3.389Z" transform="translate(-65.302 -90.073)" fill="#54e072"/>
          <path id="Path_1258300" data-name="Path 1258300" d="M51.706,170.622a4.942,4.942,0,0,0-1.481-.208c-2.421.014-4.913,1.071-4.913,4.8a11.773,11.773,0,0,1,3.218-.759,4.052,4.052,0,0,1,3.176-3.835Z" transform="translate(-45.301 -155.812)" fill="#54e072"/>
          <path id="Path_1258301" data-name="Path 1258301" d="M51.659,336.966a4.931,4.931,0,0,0-1.467-.2c-2.421.014-4.966,1.025-4.966,4.757a11.727,11.727,0,0,1,3.219-.761A4.027,4.027,0,0,1,51.659,336.966Z" transform="translate(-45.226 -301.003)" fill="#54e072"/>
          <path id="Path_1258302" data-name="Path 1258302" d="M140.406,55.619a15.336,15.336,0,0,0-3.18,2.692v4.909c1.421,0,2.235-1.052,3.18-2.166Z" transform="translate(-125.525 -55.619)" fill="#54e072"/>
          <path id="Path_1258303" data-name="Path 1258303" d="M140.406,228.691a9.718,9.718,0,0,0-3.18,2.394v4.489c1.052,0,1.735-1.592,3.18-2.623Z" transform="translate(-125.525 -206.678)" fill="#54e072"/>
        </g>
        <path id="Path_1258304" data-name="Path 1258304" d="M383.385,396.528l-3.632,2.544v1.394h10.635a2.016,2.016,0,0,0,1.908-2.03V385.267h-8.908Z" transform="translate(-336.686 -340.939)" fill="#fde31d"/>
        <path id="Path_1258305" data-name="Path 1258305" d="M380.388,212.222l0-15.17-5.24-10.046-2.477,1.347,4.537,8.7,0,15.17Z" transform="translate(-330.507 -167.894)" fill="#fd3501"/>
        <path id="Path_1258306" data-name="Path 1258306" d="M355.554,120.9a4.451,4.451,0,0,1,.753-5.263,4.452,4.452,0,0,0-3.3,6.535l2.028,3.889,2.5-1.358Z" transform="translate(-312.873 -105.599)" fill="#e3e9ee"/>
        <path id="Path_1258307" data-name="Path 1258307" d="M310.473,91.5l-1.848-3.378-2.391,1.3,1.691,3.091a3.2,3.2,0,0,0,4.343,1.271l.582-.318a4.153,4.153,0,0,1-2.377-1.965Z" transform="translate(-272.517 -81.584)" fill="#ffaa81"/>
        <path id="Path_1258308" data-name="Path 1258308" d="M291.037,46.573l-2.206,1.207,1.65,5.683,3.055-1.66Z" transform="translate(-257.329 -45.322)" fill="#dfba7f"/>
        <path id="Path_1258309" data-name="Path 1258309" d="M233.06,208.734c-.01,2.121,2.946,3.185,4.74,2.369.476-.217,1.17-.518,1.96-.855l-2.15-3.432Z" transform="translate(-208.651 -185.184)" fill="#ffceb7"/>
        <path id="Path_1258310" data-name="Path 1258310" d="M284.094,139.054a1.92,1.92,0,0,0-2.714-.093l-5.641,5.267-6.908,2.913,2.15,3.432c2.774-1.184,6.744-2.815,6.744-2.815l6.275-5.99A1.92,1.92,0,0,0,284.094,139.054Z" transform="translate(-239.872 -125.508)" fill="#fff"/>
        <path id="Path_1258311" data-name="Path 1258311" d="M47.984,448.683s3.209-8.172,11.351-8.172c8.831,0,11.11,8.172,11.11,8.172Z" transform="translate(-47.114 -389.156)" fill="#e6cc9f"/>
        <path id="Path_1258312" data-name="Path 1258312" d="M60.982,440.611a13.267,13.267,0,0,0-1.647-.1c-8.141,0-11.351,8.172-11.351,8.172h3.18S53.968,441.544,60.982,440.611Z" transform="translate(-47.114 -389.155)" fill="#dfba7f"/>
        <path id="Path_1258313" data-name="Path 1258313" d="M140.407,345.619a15.334,15.334,0,0,0-3.18,2.692v4.909c1.421,0,2.235-1.052,3.18-2.166Z" transform="translate(-125.007 -306.333)" fill="#54e072"/>
      </g>
      <g id="Group_1204258" data-name="Group 1204258" transform="translate(14.588 59.668)">
        <path id="Path_1258314" data-name="Path 1258314" d="M113.782,469.138h1.908v1.908h-1.908Z" transform="translate(-113.782 -469.138)" fill="#fff"/>
        <path id="Path_1258315" data-name="Path 1258315" d="M143.782,469.138h1.908v1.908h-1.908Z" transform="translate(-139.966 -469.138)" fill="#fff"/>
      </g>
      <g id="Group_1204259" data-name="Group 1204259" transform="translate(0.133 0)">
        <path id="Path_1258316" data-name="Path 1258316" d="M258.207,87.045a3,3,0,0,0,.2-1.076V57.63a19.178,19.178,0,0,0-2.111-7.325l-1.735.793A17.756,17.756,0,0,1,256.5,57.63V71.846h-1.914V59.417h-1.908V71.846H249.5l0-14.45-4.212-8.076,6.494-3.53c.642,1.108,1.324,2.344,1.964,3.616l1.7-.857a83.568,83.568,0,0,0-4.833-8.257,5.429,5.429,0,0,0-5.944-2.644l-2.2-4.016,5.085-2.764-.911-1.676-4.691,2.55-3.908-4.475-5.836,3.193,1.65,5.681-4.688,2.548.911,1.676,5.09-2.766c1.259,2.366,2.2,4.681,5.389,4.387a5.435,5.435,0,0,0-.066,1.294l-3.318,3.1L225.3,51.387c-.485,3.149,3.45,5.1,6.086,3.871C233.5,54.3,240,51.63,240.061,51.6l.166-.068,2.715-2.591,4.652,8.92,0,25.7-3.633,2.544v.937H231.51v1.908h30.239V87.045h-3.542ZM246.886,39.561a3.526,3.526,0,0,1,2.13,1.763c.014.021.77,1.14,1.795,2.825l-6.4,3.48-.03-.057,2.247-2.144a2.873,2.873,0,0,0-3.67-4.41,3.51,3.51,0,0,1,3.93-1.457Zm-9.261-9.885,2.619,3-.333.181-4.327,2.352L234.478,31.4Zm1.8,10.341a2.23,2.23,0,0,1-1.339-1.078l-1.232-2.252,3.946-2.145,2.112,3.863a5.372,5.372,0,0,0-1.246,1.135,2.666,2.666,0,0,1-2.241.477ZM230.6,53.522a2.786,2.786,0,0,1-3.252-.927l3.079-1.3,1.129,1.8c-.368.16-.694.3-.956.423Zm8.57-3.616c-.718.3-3.506,1.444-5.84,2.432l-1.123-1.792L238.239,48,244,42.621a.966.966,0,0,1,1.311,1.42Zm6.776,37.138,3.552-2.487,0-10.8h3.178V85.969a1.075,1.075,0,0,1-.954,1.076Zm8.438,0a3,3,0,0,0,.2-1.076V73.754H256.5V85.969a1.075,1.075,0,0,1-.954,1.076Z" transform="translate(-196.629 -23.799)"/>
        <path id="Path_1258317" data-name="Path 1258317" d="M27.174,59.509a11.894,11.894,0,0,0-8.651-4.4V52.386c4.521-1.859,3.024-6.93,11.633-3.426.138-2.55-.288-4.971-2.368-6.188,1.971-1.629,5.562-5.2,3.993-7.343-2.075-2.766-8.811,2.239-8.879,2.29-2.481,1.861-2.743,3.806-2.15,5.134a13.787,13.787,0,0,0-2.229,1.55V36.685A5.472,5.472,0,0,0,19.979,35.4c1.876-2.224,3.372-2.559,7.252-.968V33.059c-.2-5.221-5.423-6.617-8.707-3.755V27.313l2.948-2.976c1.8.839,3.517.046,5.138-1.546,1.868-1.92,5.516-6.351,3.52-8.467-2.445-2.444-8.407,3.461-8.467,3.52-1.594,1.6-2.387,3.388-1.542,5.145l-1.6,1.612V15.5c4.521-1.858,3.024-6.93,11.633-3.427V10.706c.066-6.727-7.767-7.045-11.633-3.186-.007-.615-.184-4.082,4.929-4.169V1.444A7.211,7.211,0,0,0,18.523,3V0H16.615V7.582a7.211,7.211,0,0,0-4.929-1.56V7.93c5.26.174,4.922,3.407,4.929,4.766C13.3,9.783,8.073,11.109,7.839,16.4c0,0,0,1.369,0,1.369,3.885-1.594,5.379-1.252,7.252.968a5.223,5.223,0,0,0,1.524,1.324V23.31c-1.439-1.2-3.625-2.639-5.837-2.589-4.369-.007-6.215,2.984-5.853,7.126,8.567-3.489,7.317,1.491,11.69,3.417v8.774L14.989,38.41c.841-1.758.05-3.54-1.544-5.142-.06-.06-6.022-5.965-8.467-3.52-2,2.116,1.652,6.546,3.52,8.467,1.62,1.593,3.341,2.387,5.141,1.544l2.976,2.98v1.723c-3.891-3.9-11.723-3.678-11.7,3.128v1.369c8.679-3.535,7.11,1.666,11.7,3.445V55.11c-4.838.237-9.105,4.047-11.013,8.136H.133v1.908H33.106V63.246H29.358a13.992,13.992,0,0,0-2.184-3.737Zm1.438-43.864c.6-.192-.241,1.836-.914,2.786l-3.451-.363C25.3,17.14,27.629,15.606,28.613,15.645Zm-6.922,5.8a3.069,3.069,0,0,1,.776-1.642l3.915.412c-.948,1.162-2.326,2.526-3.369,2.552a1.193,1.193,0,0,1-1.322-1.322ZM6.326,31.1c.991-.21,3.218,1.316,4.295,2.2l-3.343.352c-.078-.125-.153-.249-.223-.371-.833-1.453-.784-2.089-.729-2.177ZM12.1,38.187c-1.114-.027-2.59-1.572-3.537-2.756l3.913-.412c.946,1.114,1.266,2.094.6,2.824a1.22,1.22,0,0,1-.978.344ZM29.9,36.51a.665.665,0,0,1,.351.062c.045.1,0,.735-1.026,2.055-.134.172-.28.347-.433.524L25.431,38.3A11.184,11.184,0,0,1,29.9,36.51Zm-6.478,3.257,3.816.96c-1.274,1.189-3.594,2.92-4.615,1.572C22.121,41.627,22.425,40.708,23.425,39.767ZM22.1,44.3a4.028,4.028,0,0,0,3.873-.27,2.959,2.959,0,0,1,2.118,2.2c-6.042-1.5-6.934,1.814-9.57,4.074V47.021A13.143,13.143,0,0,1,22.1,44.3Zm.228-14.594a3.107,3.107,0,0,1,2.754,2.006c-3.71-.78-5.431,1.187-6.561,2.445V31.848C19.266,31.069,20.9,29.679,22.33,29.711ZM24.139,6.9c2.681-.04,3.719,1.305,3.973,2.454-6.058-1.508-6.949,1.806-9.588,4.069V10.133C19.554,9.034,22,6.9,24.139,6.9ZM16.514,17.463c-1.1-1.228-2.853-3.19-6.527-2.408,1.689-3.514,4.936-1.684,6.629.2v2.317ZM15.385,27.891c-1.5-1.742-3.5-4.074-8.4-2.767.412-1.673,1.787-2.515,3.9-2.5,2.149,0,4.663,2.168,5.726,3.283v3.239a8.356,8.356,0,0,1-1.23-1.26ZM15.19,48.944c-1.446-1.712-3.382-4-8.231-2.7.253-1.148,1.292-2.494,3.973-2.454,2.19,0,4.7,2.232,5.684,3.305v3.262A6.636,6.636,0,0,1,15.19,48.944ZM9.594,60.7a10.524,10.524,0,0,1,17.688,2.543H7.763A15,15,0,0,1,9.594,60.7Z" transform="translate(-0.133 0)"/>
      </g>
    </g>
  </g>
</svg>
