<svg xmlns="http://www.w3.org/2000/svg" width="103" height="103" viewBox="0 0 103 103">
  <g id="Group_1204181" data-name="Group 1204181" transform="translate(-253.972 -11116.922)">
    <g id="Group_1203593" data-name="Group 1203593" transform="translate(256.094 11138.794)">
      <rect id="Rectangle_410589" data-name="Rectangle 410589" width="99.185" height="33.062" rx="8" transform="translate(0 12.94)" fill="#3e5b2c"/>
      <g id="Group_1204238" data-name="Group 1204238" transform="translate(8.878 -10.873)">
        <g id="Group_1204239" data-name="Group 1204239" transform="translate(1.572 1.572)">
          <path id="Path_1258220" data-name="Path 1258220" d="M237.038,17.074a3.537,3.537,0,1,0-3.537-3.537A3.537,3.537,0,0,0,237.038,17.074Z" transform="translate(-198.365 -10)" fill="#ff5d7d" fill-rule="evenodd"/>
          <path id="Path_1258221" data-name="Path 1258221" d="M223.123,82.592a.936.936,0,0,1-1.668,0,2.559,2.559,0,0,0-4.5,0c-3.365,4.866,3.113,12.113,5.338,12.976,2.225-.862,8.7-8.109,5.338-12.976A2.559,2.559,0,0,0,223.123,82.592Z" transform="translate(-183.615 -70.048)" fill="#ff5d7d" fill-rule="evenodd"/>
          <circle id="Ellipse_12783" data-name="Ellipse 12783" cx="3.537" cy="3.537" r="3.537" transform="translate(10.291 10.291)" fill="#cbe558"/>
          <path id="Path_1258222" data-name="Path 1258222" d="M118.487,117.307a.936.936,0,0,1-1.18,1.18,2.559,2.559,0,0,0-3.185,3.185c1.062,5.82,10.767,6.364,12.949,5.4.964-2.183.42-11.888-5.4-12.949A2.559,2.559,0,0,0,118.487,117.307Z" transform="translate(-97.699 -97.699)" fill="#cbe558" fill-rule="evenodd"/>
          <circle id="Ellipse_12784" data-name="Ellipse 12784" cx="3.537" cy="3.537" r="3.537" transform="translate(0 35.136)" fill="#60a4ff"/>
          <path id="Path_1258223" data-name="Path 1258223" d="M82.592,221.456a.936.936,0,0,1,0,1.668,2.559,2.559,0,0,0,0,4.5c4.866,3.365,12.113-3.113,12.976-5.338-.862-2.225-8.109-8.7-12.976-5.338A2.559,2.559,0,0,0,82.592,221.456Z" transform="translate(-70.048 -183.616)" fill="#60a4ff" fill-rule="evenodd"/>
          <path id="Path_1258224" data-name="Path 1258224" d="M127.071,313.12c-2.183-.964-11.888-.42-12.949,5.4a2.559,2.559,0,0,0,3.185,3.185.936.936,0,0,1,1.18,1.18,2.559,2.559,0,0,0,3.185,3.185C127.491,325.007,128.035,315.3,127.071,313.12Z" transform="translate(-97.699 -265.145)" fill="#8690af" fill-rule="evenodd"/>
          <circle id="Ellipse_12785" data-name="Ellipse 12785" cx="3.537" cy="3.537" r="3.537" transform="translate(10.291 59.982)" fill="#8690af"/>
          <path id="Path_1258225" data-name="Path 1258225" d="M222.29,339.67c-2.225.862-8.7,8.109-5.338,12.976a2.559,2.559,0,0,0,4.5,0,.936.936,0,0,1,1.668,0,2.559,2.559,0,0,0,4.5,0c3.365-4.866-3.113-12.113-5.338-12.976Z" transform="translate(-183.616 -287.843)" fill="#ffc144" fill-rule="evenodd"/>
          <circle id="Ellipse_12786" data-name="Ellipse 12786" cx="3.537" cy="3.537" r="3.537" transform="translate(35.136 70.273)" fill="#ffc144"/>
          <path id="Path_1258226" data-name="Path 1258226" d="M313.12,313.12c-.964,2.183-.42,11.888,5.4,12.949a2.559,2.559,0,0,0,3.185-3.185.936.936,0,0,1,1.18-1.18,2.559,2.559,0,0,0,3.185-3.185C325.007,312.7,315.3,312.156,313.12,313.12Z" transform="translate(-265.145 -265.145)" fill="#c68a65" fill-rule="evenodd"/>
          <circle id="Ellipse_12787" data-name="Ellipse 12787" cx="3.537" cy="3.537" r="3.537" transform="translate(59.982 59.982)" fill="#c68a65"/>
          <path id="Path_1258227" data-name="Path 1258227" d="M339.67,222.289c.862,2.225,8.109,8.7,12.976,5.338a2.559,2.559,0,0,0,0-4.5.936.936,0,0,1,0-1.668,2.559,2.559,0,0,0,0-4.5c-4.866-3.365-12.113,3.113-12.976,5.338Z" transform="translate(-287.843 -183.616)" fill="#fff" fill-rule="evenodd"/>
          <circle id="Ellipse_12788" data-name="Ellipse 12788" cx="3.537" cy="3.537" r="3.537" transform="translate(70.273 35.136)" fill="#fff"/>
          <g id="Group_1204238-2" data-name="Group 1204238" transform="translate(47.593 10.291)">
            <circle id="Ellipse_12789" data-name="Ellipse 12789" cx="3.537" cy="3.537" r="3.537" transform="translate(12.388)" fill="#66e0f7"/>
            <path id="Path_1258228" data-name="Path 1258228" d="M326.069,121.671a2.559,2.559,0,0,0-3.185-3.185.936.936,0,0,1-1.18-1.18,2.559,2.559,0,0,0-3.185-3.185c-5.82,1.062-6.364,10.767-5.4,12.949C315.3,128.035,325.008,127.492,326.069,121.671Z" transform="translate(-312.739 -107.991)" fill="#66e0f7" fill-rule="evenodd"/>
          </g>
        </g>
        <g id="Group_1204240" data-name="Group 1204240">
          <path id="Path_1258229" data-name="Path 1258229" d="M213.3,88.607a1.572,1.572,0,0,0,1.136,0c1.955-.757,5.6-4.47,6.854-8.562a7.606,7.606,0,0,0-.791-6.773,4.354,4.354,0,0,0-3.545-2.021,4.19,4.19,0,0,0-3.086,1.445,4.19,4.19,0,0,0-3.086-1.445h0a4.354,4.354,0,0,0-3.545,2.021,7.606,7.606,0,0,0-.791,6.773C207.705,84.137,211.347,87.849,213.3,88.607Zm-3.477-13.547a1.024,1.024,0,0,1,1.918,0,2.6,2.6,0,0,0,2.132,1.189h0A2.591,2.591,0,0,0,216,75.059a1.023,1.023,0,0,1,1.918,0,4.53,4.53,0,0,1,.371,4.061,13.92,13.92,0,0,1-4.416,6.217,13.92,13.92,0,0,1-4.416-6.217,4.529,4.529,0,0,1,.371-4.061Z" transform="translate(-173.624 -60.049)"/>
          <path id="Path_1258230" data-name="Path 1258230" d="M228.609,10.219A5.109,5.109,0,1,0,223.5,5.109,5.115,5.115,0,0,0,228.609,10.219Zm0-7.074a1.965,1.965,0,1,1-1.965,1.965A1.967,1.967,0,0,1,228.609,3.144Z" transform="translate(-188.364)"/>
          <path id="Path_1258231" data-name="Path 1258231" d="M105.232,109.6a4.353,4.353,0,0,0-1.077,3.936,7.605,7.605,0,0,0,4.23,5.348,16.691,16.691,0,0,0,7.5,1.727,9.129,9.129,0,0,0,3.4-.519,1.572,1.572,0,0,0,.8-.8c.847-1.918.8-7.118-1.208-10.9a7.606,7.606,0,0,0-5.348-4.23,4.353,4.353,0,0,0-3.936,1.077,4.189,4.189,0,0,0-1.16,3.2A4.191,4.191,0,0,0,105.232,109.6Zm5.72,1.349a2.591,2.591,0,0,0,.66-2.341,1.023,1.023,0,0,1,1.356-1.356,4.529,4.529,0,0,1,3.135,2.609,13.922,13.922,0,0,1,1.273,7.519,13.92,13.92,0,0,1-7.519-1.273,4.529,4.529,0,0,1-2.609-3.135,1.3,1.3,0,0,1,.207-1.148,1.04,1.04,0,0,1,.747-.246,2.244,2.244,0,0,1,.4.039,2.6,2.6,0,0,0,2.349-.667Z" transform="translate(-87.706 -87.706)"/>
          <path id="Path_1258232" data-name="Path 1258232" d="M70.57,75.681a5.11,5.11,0,1,0-3.613-1.5A5.075,5.075,0,0,0,70.57,75.681Zm-1.39-6.5a1.965,1.965,0,1,1-.576,1.39A1.952,1.952,0,0,1,69.181,69.182Z" transform="translate(-55.17 -55.171)"/>
          <path id="Path_1258233" data-name="Path 1258233" d="M71.249,216.956A4.354,4.354,0,0,0,73.27,220.5a6.954,6.954,0,0,0,4.023,1.228,9.37,9.37,0,0,0,2.75-.437c4.093-1.257,7.805-4.9,8.563-6.854a1.572,1.572,0,0,0,0-1.136c-.757-1.955-4.47-5.6-8.563-6.854a7.606,7.606,0,0,0-6.773.791,4.353,4.353,0,0,0-2.021,3.545,4.19,4.19,0,0,0,1.445,3.086A4.19,4.19,0,0,0,71.249,216.956ZM75.058,216a2.5,2.5,0,0,0,0-4.254,1.024,1.024,0,0,1,0-1.918,4.53,4.53,0,0,1,4.061-.371,13.92,13.92,0,0,1,6.217,4.416,13.921,13.921,0,0,1-6.217,4.416,4.529,4.529,0,0,1-4.061-.371,1.024,1.024,0,0,1,0-1.918Z" transform="translate(-60.048 -173.625)"/>
          <path id="Path_1258234" data-name="Path 1258234" d="M5.109,223.5a5.109,5.109,0,1,0,5.109,5.109A5.115,5.115,0,0,0,5.109,223.5Zm0,7.074a1.965,1.965,0,1,1,1.965-1.965A1.967,1.967,0,0,1,5.109,230.575Z" transform="translate(0 -188.365)"/>
          <path id="Path_1258235" data-name="Path 1258235" d="M120.089,304.038a1.572,1.572,0,0,0-.8-.8c-1.917-.846-7.117-.8-10.9,1.208a7.606,7.606,0,0,0-4.23,5.349,4.354,4.354,0,0,0,1.078,3.936,4.19,4.19,0,0,0,3.2,1.16,4.189,4.189,0,0,0,1.161,3.2,4.143,4.143,0,0,0,2.978,1.166,5.349,5.349,0,0,0,.958-.089,7.606,7.606,0,0,0,5.348-4.23c2-3.783,2.055-8.983,1.208-10.9Zm-3.987,9.429a4.53,4.53,0,0,1-3.135,2.609,1.023,1.023,0,0,1-1.356-1.356h0a2.6,2.6,0,0,0-.667-2.348,2.493,2.493,0,0,0-1.79-.711,3.07,3.07,0,0,0-.552.051,1.023,1.023,0,0,1-1.356-1.356,4.529,4.529,0,0,1,2.609-3.134,13.922,13.922,0,0,1,7.519-1.273A13.92,13.92,0,0,1,116.1,313.467Z" transform="translate(-87.706 -255.126)"/>
          <path id="Path_1258236" data-name="Path 1258236" d="M70.57,381.54a5.11,5.11,0,1,0,3.613,1.5A5.075,5.075,0,0,0,70.57,381.54Zm1.389,6.5a1.965,1.965,0,1,1,.576-1.39A1.952,1.952,0,0,1,71.96,388.039Z" transform="translate(-55.17 -321.558)"/>
          <path id="Path_1258237" data-name="Path 1258237" d="M214.438,329.777a1.573,1.573,0,0,0-1.136,0c-1.955.757-5.6,4.47-6.854,8.562a7.607,7.607,0,0,0,.791,6.773,4.354,4.354,0,0,0,3.545,2.021,4.19,4.19,0,0,0,3.086-1.445,4.19,4.19,0,0,0,3.086,1.445h0a4.354,4.354,0,0,0,3.545-2.021,7.606,7.606,0,0,0,.791-6.773C220.034,334.246,216.393,330.534,214.438,329.777Zm3.477,13.547a1.024,1.024,0,0,1-1.918,0,2.5,2.5,0,0,0-4.254,0,1.024,1.024,0,0,1-1.918,0,4.53,4.53,0,0,1-.371-4.061,13.92,13.92,0,0,1,4.416-6.217,13.92,13.92,0,0,1,4.416,6.217A4.53,4.53,0,0,1,217.915,343.324Z" transform="translate(-173.624 -277.843)"/>
          <path id="Path_1258238" data-name="Path 1258238" d="M228.609,447a5.109,5.109,0,1,0,5.109,5.109A5.115,5.115,0,0,0,228.609,447Zm0,7.074a1.965,1.965,0,1,1,1.965-1.965A1.967,1.967,0,0,1,228.609,454.075Z" transform="translate(-188.364 -376.728)"/>
          <path id="Path_1258239" data-name="Path 1258239" d="M318.093,313.728a4.354,4.354,0,0,0,1.078-3.936,7.606,7.606,0,0,0-4.23-5.349c-3.783-2-8.983-2.055-10.9-1.208a1.571,1.571,0,0,0-.8.8c-.847,1.918-.8,7.118,1.208,10.9a7.606,7.606,0,0,0,5.348,4.23,5.347,5.347,0,0,0,.958.088,4.143,4.143,0,0,0,2.978-1.166,4.189,4.189,0,0,0,1.16-3.2A4.19,4.19,0,0,0,318.093,313.728Zm-3.372-2.016a2.5,2.5,0,0,0-3.008,3.008,1.023,1.023,0,0,1-1.356,1.356,4.529,4.529,0,0,1-3.135-2.609,13.919,13.919,0,0,1-1.273-7.519,13.921,13.921,0,0,1,7.519,1.273,4.53,4.53,0,0,1,2.609,3.134,1.023,1.023,0,0,1-1.356,1.356Z" transform="translate(-255.128 -255.126)"/>
          <path id="Path_1258240" data-name="Path 1258240" d="M386.648,381.54a5.11,5.11,0,1,0,3.613,1.5A5.075,5.075,0,0,0,386.648,381.54Zm1.39,6.5a1.965,1.965,0,1,1,.576-1.39A1.952,1.952,0,0,1,388.038,388.039Z" transform="translate(-321.558 -321.558)"/>
          <path id="Path_1258241" data-name="Path 1258241" d="M347.133,210.784a4.354,4.354,0,0,0-2.021-3.545,7.6,7.6,0,0,0-6.773-.791c-4.093,1.257-7.805,4.9-8.563,6.854a1.572,1.572,0,0,0,0,1.136c.757,1.955,4.47,5.6,8.563,6.854a9.37,9.37,0,0,0,2.75.437,6.955,6.955,0,0,0,4.023-1.228,4.353,4.353,0,0,0,2.021-3.545,4.189,4.189,0,0,0-1.445-3.086,4.19,4.19,0,0,0,1.445-3.086Zm-3.809.959a2.5,2.5,0,0,0,0,4.254,1.024,1.024,0,0,1,0,1.918,4.53,4.53,0,0,1-4.061.372,13.921,13.921,0,0,1-6.217-4.416,13.921,13.921,0,0,1,6.217-4.416,4.531,4.531,0,0,1,4.061.371,1.024,1.024,0,0,1,0,1.918Z" transform="translate(-277.843 -173.624)"/>
          <path id="Path_1258242" data-name="Path 1258242" d="M452.11,223.5a5.109,5.109,0,1,0,5.109,5.109A5.115,5.115,0,0,0,452.11,223.5Zm0,7.074a1.965,1.965,0,1,1,1.965-1.965A1.967,1.967,0,0,1,452.11,230.575Z" transform="translate(-376.728 -188.365)"/>
          <path id="Path_1258243" data-name="Path 1258243" d="M303.235,119.286a1.573,1.573,0,0,0,.8.8,9.128,9.128,0,0,0,3.4.519,16.7,16.7,0,0,0,7.5-1.727,7.606,7.606,0,0,0,4.23-5.349,4.354,4.354,0,0,0-1.077-3.936,4.19,4.19,0,0,0-3.2-1.16,4.19,4.19,0,0,0-1.161-3.2,4.353,4.353,0,0,0-3.936-1.077,7.606,7.606,0,0,0-5.348,4.23C302.438,112.168,302.388,117.368,303.235,119.286Zm3.986-9.429a4.53,4.53,0,0,1,3.135-2.609,1.023,1.023,0,0,1,1.356,1.356h0a2.5,2.5,0,0,0,3.008,3.008,1.023,1.023,0,0,1,1.356,1.356,4.529,4.529,0,0,1-2.609,3.134,13.922,13.922,0,0,1-7.519,1.273,13.923,13.923,0,0,1,1.273-7.519Z" transform="translate(-255.126 -87.706)"/>
          <path id="Path_1258244" data-name="Path 1258244" d="M386.648,65.462a5.11,5.11,0,1,0,3.613,1.5A5.075,5.075,0,0,0,386.648,65.462Zm1.39,6.5a1.965,1.965,0,1,1,.576-1.389A1.952,1.952,0,0,1,388.038,71.961Z" transform="translate(-321.558 -55.171)"/>
          <path id="Path_1258245" data-name="Path 1258245" d="M247.577,202.333h0a1.572,1.572,0,1,0,1.573,1.572A1.572,1.572,0,0,0,247.575,202.333Z" transform="translate(-207.33 -170.524)"/>
          <path id="Path_1258246" data-name="Path 1258246" d="M202.332,247.565h0a1.572,1.572,0,1,0,1.572-1.573,1.572,1.572,0,0,0-1.572,1.573Z" transform="translate(-170.524 -207.321)"/>
          <path id="Path_1258247" data-name="Path 1258247" d="M247.565,289.669a1.572,1.572,0,0,0,0,3.144h0a1.572,1.572,0,1,0,0-3.144Z" transform="translate(-207.321 -244.13)"/>
          <path id="Path_1258248" data-name="Path 1258248" d="M291.241,246a1.572,1.572,0,1,0,1.572,1.573h0A1.572,1.572,0,0,0,291.241,246Z" transform="translate(-244.13 -207.33)"/>
        </g>
      </g>
    </g>
    <rect id="Rectangle_411643" data-name="Rectangle 411643" width="103" height="103" transform="translate(253.972 11116.922)" fill="none"/>
  </g>
</svg>
