<svg xmlns="http://www.w3.org/2000/svg" width="103" height="103" viewBox="0 0 103 103">
  <g id="Group_1204095" data-name="Group 1204095" transform="translate(-253.972 -11116.921)">
    <g id="Group_1203593" data-name="Group 1203593" transform="translate(256.094 11138.794)">
      <rect id="Rectangle_410589" data-name="Rectangle 410589" width="99.185" height="33.062" rx="8" transform="translate(-0.122 13.127)" fill="#3e5b2c"/>
    </g>
    <rect id="Rectangle_411643" data-name="Rectangle 411643" width="103" height="103" transform="translate(253.972 11116.921)" fill="none"/>
    <g id="Group_1204161" data-name="Group 1204161" transform="translate(265.972 11128.921)">
      <path id="Path_1258083" data-name="Path 1258083" d="M57.332,19.029,48.716,9.124a4.713,4.713,0,0,0-7.119,0l-8.615,9.905a4.768,4.768,0,0,0,.451,6.693c3.206,2.849,7-.833,7-.833V61.916h9.451V24.889s3.8,3.721,7,.833A4.782,4.782,0,0,0,57.332,19.029Zm0,0" transform="translate(-26.911 -6.343)" fill="#b0f0ef"/>
      <path id="Path_1258084" data-name="Path 1258084" d="M97.065,233.478a38.971,38.971,0,0,0-9.451-.333v19.478h9.451Zm0,0" transform="translate(-74.095 -197.049)" fill="#76e7e7"/>
      <path id="Path_1258085" data-name="Path 1258085" d="M41.674,299.324a17.087,17.087,0,1,0-17.087,17.152A17.12,17.12,0,0,0,41.674,299.324Zm0,0" transform="translate(-6.343 -238.634)" fill="#60daa8"/>
      <path id="Path_1258086" data-name="Path 1258086" d="M16.325,299.321A17.151,17.151,0,0,1,29,282.746a17.152,17.152,0,1,0,0,33.149A17.15,17.15,0,0,1,16.325,299.321Zm0,0" transform="translate(-6.343 -238.631)" fill="#00ce8e"/>
      <path id="Path_1258087" data-name="Path 1258087" d="M71.793,336.965H68.009v-3.8a2.961,2.961,0,1,0-5.922,0v3.8H58.3a2.972,2.972,0,0,0,0,5.945h3.783v3.8a2.961,2.961,0,1,0,5.922,0v-3.8h3.783a2.972,2.972,0,0,0,0-5.945Zm0,0" transform="translate(-46.804 -279.248)" fill="#fffcdc"/>
      <path id="Path_1258088" data-name="Path 1258088" d="M332.851,194.715l-8.615,9.905a4.714,4.714,0,0,1-7.119,0l-8.615-9.905a4.768,4.768,0,0,1,.451-6.693c3.205-2.849,7,.833,7,.833V151.828H325.4v37.027s3.8-3.721,7-.833A4.782,4.782,0,0,1,332.851,194.715Zm0,0" transform="translate(-259.919 -128.402)" fill="#b0f0ef"/>
      <path id="Path_1258089" data-name="Path 1258089" d="M372.584,170.973a38.971,38.971,0,0,1-9.451.333V151.828h9.451Zm0,0" transform="translate(-307.103 -128.402)" fill="#76e7e7"/>
      <path id="Path_1258090" data-name="Path 1258090" d="M317.193,24.652A17.087,17.087,0,1,0,300.107,41.8,17.119,17.119,0,0,0,317.193,24.652Zm0,0" transform="translate(-239.351 -6.343)" fill="#ff8a98"/>
      <path id="Path_1258091" data-name="Path 1258091" d="M291.845,24.652A17.151,17.151,0,0,1,304.522,8.078a17.153,17.153,0,1,0,0,33.149A17.151,17.151,0,0,1,291.845,24.652Zm0,0" transform="translate(-239.351 -6.343)" fill="#fd5c6f"/>
      <path id="Path_1258092" data-name="Path 1258092" d="M330.863,102.369v.011a2.966,2.966,0,0,0,2.967,2.967h13.476a2.966,2.966,0,0,0,2.967-2.967v-.011a2.966,2.966,0,0,0-2.967-2.967H333.83A2.966,2.966,0,0,0,330.863,102.369Zm0,0" transform="translate(-279.812 -84.065)" fill="#fffcdc"/>
      <path id="Path_1258093" data-name="Path 1258093" d="M306.265,58.762a5.523,5.523,0,0,0-6.617-.554V35.641a18.134,18.134,0,1,0-2.314.625V60.453a1.157,1.157,0,0,0,1.967.827,7.115,7.115,0,0,1,1.94-1.26,3.015,3.015,0,0,1,3.472.459,3.607,3.607,0,0,1,.354,5.075l-8.615,9.905a3.557,3.557,0,0,1-5.373,0l-8.615-9.905a3.623,3.623,0,0,1,.347-5.068c2.354-2.093,5.3.681,5.423.8a1.157,1.157,0,0,0,1.963-.831V39.792a1.157,1.157,0,0,0-2.314,0V58.219a5.57,5.57,0,0,0-6.609.537,5.946,5.946,0,0,0-.556,8.317l8.615,9.905a5.871,5.871,0,0,0,8.865,0l8.615-9.905A5.905,5.905,0,0,0,306.265,58.762ZM277.834,18.309a15.93,15.93,0,1,1,15.93,16A15.98,15.98,0,0,1,277.834,18.309Zm0,0" transform="translate(-233.008)"/>
      <path id="Path_1258094" data-name="Path 1258094" d="M24.129,43.358V20.791a5.524,5.524,0,0,0,6.616-.554,5.905,5.905,0,0,0,.549-8.311L22.679,2.022a5.871,5.871,0,0,0-8.865,0L5.2,11.927a5.946,5.946,0,0,0,.556,8.317,5.571,5.571,0,0,0,6.609.537V43.357A18.343,18.343,0,0,0,3.9,72a1.157,1.157,0,0,0,1.821-1.428A15.9,15.9,0,1,1,9.12,73.8,1.157,1.157,0,1,0,7.79,75.7,18.086,18.086,0,0,0,18.244,79a18.319,18.319,0,0,0,5.886-35.641Zm-9.451-.626V18.546a1.157,1.157,0,0,0-1.963-.831,7.117,7.117,0,0,1-1.938,1.248,3.053,3.053,0,0,1-3.485-.45,3.624,3.624,0,0,1-.348-5.068L15.56,3.54a3.557,3.557,0,0,1,5.373,0l8.615,9.905a3.607,3.607,0,0,1-.354,5.075c-2.343,2.116-5.291-.683-5.412-.8a1.157,1.157,0,0,0-1.967.827V42.733a18.233,18.233,0,0,0-7.137,0Zm0,0" transform="translate(0 0)"/>
      <path id="Path_1258095" data-name="Path 1258095" d="M58.705,322.7a4.128,4.128,0,0,0-4.118,4.129v2.641H51.962a4.13,4.13,0,0,0,0,8.259h2.626v2.641a4.118,4.118,0,1,0,8.236,0v-2.641H65.45a4.13,4.13,0,0,0,0-8.259H62.824v-2.641A4.128,4.128,0,0,0,58.705,322.7Zm6.744,9.084a1.815,1.815,0,0,1,0,3.63H61.666a1.157,1.157,0,0,0-1.157,1.157v3.8a1.8,1.8,0,1,1-3.607,0v-3.8a1.157,1.157,0,0,0-1.157-1.157H51.962a1.815,1.815,0,0,1,0-3.63h3.783a1.157,1.157,0,0,0,1.157-1.157v-3.8a1.8,1.8,0,1,1,3.607,0v3.8a1.157,1.157,0,0,0,1.157,1.157Zm0,0" transform="translate(-40.462 -272.905)"/>
      <path id="Path_1258096" data-name="Path 1258096" d="M340.963,91.9H327.487a4.13,4.13,0,0,0,0,8.259h8.662a1.157,1.157,0,1,0,0-2.314h-8.662a1.815,1.815,0,0,1,0-3.63h13.476a1.815,1.815,0,0,1,0,3.63,1.157,1.157,0,1,0,0,2.314,4.13,4.13,0,0,0,0-8.259Zm0,0" transform="translate(-273.47 -77.722)"/>
    </g>
  </g>
</svg>
