<svg xmlns="http://www.w3.org/2000/svg" width="104" height="104" viewBox="0 0 104 104">
  <g id="Group_1203829" data-name="Group 1203829" transform="translate(-788.051 -2601.164)">
    <g id="Group_1201005" data-name="Group 1201005" transform="translate(788.051 2609.567)">
      <g id="Rectangle_410589" data-name="Rectangle 410589" transform="translate(0 22.3)" fill="#ffc94a" stroke="#dfab32" stroke-width="1">
        <rect width="103.576" height="34.525" rx="8" stroke="none"/>
        <rect x="0.5" y="0.5" width="102.576" height="33.525" rx="7.5" fill="none"/>
      </g>
      <g id="Group_1203860" data-name="Group 1203860" transform="translate(18.129 9.598)">
        <g id="Group_1203858" data-name="Group 1203858" transform="translate(2.07 2.062)">
          <g id="Group_1203834" data-name="Group 1203834" transform="translate(57.329 50.959)">
            <path id="Path_1257200" data-name="Path 1257200" d="M62.37,50.4V62.74H56V50h6.37Z" transform="translate(-56 -50)" fill="#dfb28b"/>
          </g>
          <g id="Group_1203835" data-name="Group 1203835" transform="translate(46.713 50.959)">
            <path id="Path_1257201" data-name="Path 1257201" d="M52.37,50V62.74H46V50h6.37Z" transform="translate(-46 -50)" fill="#dfb28b"/>
          </g>
          <g id="Group_1203836" data-name="Group 1203836" transform="translate(36.096 50.959)">
            <path id="Path_1257202" data-name="Path 1257202" d="M36,50h6.37V62.74H36Z" transform="translate(-36 -50)" fill="#dfb28b"/>
          </g>
          <g id="Group_1203837" data-name="Group 1203837" transform="translate(25.48 50.959)">
            <path id="Path_1257203" data-name="Path 1257203" d="M26,50h6.37V62.74H26Z" transform="translate(-26 -50)" fill="#dfb28b"/>
          </g>
          <g id="Group_1203838" data-name="Group 1203838" transform="translate(14.863 50.959)">
            <path id="Path_1257204" data-name="Path 1257204" d="M16,50h6.37V62.74H16Z" transform="translate(-16 -50)" fill="#dfb28b"/>
          </g>
          <g id="Group_1203839" data-name="Group 1203839" transform="translate(4.247 50.959)">
            <path id="Path_1257205" data-name="Path 1257205" d="M8.123,50H12.37V62.74H6V50Z" transform="translate(-6 -50)" fill="#dfb28b"/>
          </g>
          <g id="Group_1203840" data-name="Group 1203840" transform="translate(53.082 50.959)">
            <path id="Path_1257206" data-name="Path 1257206" d="M56.247,56.37v6.37H52V50h4.247Z" transform="translate(-52 -50)" fill="#d3a06c"/>
          </g>
          <g id="Group_1203841" data-name="Group 1203841" transform="translate(42.466 50.959)">
            <path id="Path_1257207" data-name="Path 1257207" d="M46.247,56.37v6.37H42V50h4.247Z" transform="translate(-42 -50)" fill="#d3a06c"/>
          </g>
          <g id="Group_1203842" data-name="Group 1203842" transform="translate(31.849 50.959)">
            <path id="Path_1257208" data-name="Path 1257208" d="M36.247,56.37v6.37H32V50h4.247Z" transform="translate(-32 -50)" fill="#d3a06c"/>
          </g>
          <g id="Group_1203843" data-name="Group 1203843" transform="translate(21.233 50.959)">
            <path id="Path_1257209" data-name="Path 1257209" d="M26.247,56.37v6.37H22V50h4.247Z" transform="translate(-22 -50)" fill="#d3a06c"/>
          </g>
          <g id="Group_1203844" data-name="Group 1203844" transform="translate(10.616 50.959)">
            <path id="Path_1257210" data-name="Path 1257210" d="M16.247,56.37v6.37H12V50h4.247Z" transform="translate(-12 -50)" fill="#d3a06c"/>
          </g>
          <g id="Group_1203845" data-name="Group 1203845" transform="translate(0 50.959)">
            <path id="Path_1257211" data-name="Path 1257211" d="M6.247,56.37v6.37H2V50H6.247Z" transform="translate(-2 -50)" fill="#d3a06c"/>
          </g>
          <g id="Group_1203846" data-name="Group 1203846" transform="translate(0)">
            <path id="Path_1257212" data-name="Path 1257212" d="M21.4,44.678a6.666,6.666,0,0,1-1.348-2.336l-.86-2.569a5.415,5.415,0,0,0-1.1-1.922,3.184,3.184,0,0,0-1.221-6.126h-.117L15.8,23.233H14.283a2.225,2.225,0,0,0-1.125.318l-7.973,4.99L2,23.233l4.1-8.886A10.76,10.76,0,0,1,8.221,11.3a10.482,10.482,0,0,1,.955-.849,10.754,10.754,0,0,1,4.5-2.081L15.8,2l.934.934A7.682,7.682,0,0,1,18.986,8.37a12.317,12.317,0,0,1,5.956,6.55l3.6,9.364a5.241,5.241,0,0,1-1.8,2.421l-1.592,1.2a2.137,2.137,0,0,0-.849,1.7v2.123a4.247,4.247,0,0,0,7.644,2.548l1.115-1.486a4.265,4.265,0,0,1,2.06-1.486l1.125-.372a6.372,6.372,0,0,1,1.858,4.5v.021A6.35,6.35,0,0,0,39.54,39.5l-1.444.722v.807a10.882,10.882,0,0,0,3.185,7.686L49.838,47.4a6.146,6.146,0,0,0,2.463-.945,9.988,9.988,0,0,1,.658,3.578v2.93H38.1a7.688,7.688,0,0,1-4.247-6.869v-.563a5.309,5.309,0,0,0-10.51-1.062h-.807a3.13,3.13,0,0,0-1.136.212Z" transform="translate(-2 -2)" fill="#cf9e76"/>
          </g>
          <g id="Group_1203847" data-name="Group 1203847" transform="translate(13.801)">
            <path id="Path_1257213" data-name="Path 1257213" d="M27.74,24.284l-3.6-9.364a12.317,12.317,0,0,0-5.956-6.55,7.682,7.682,0,0,0-2.251-5.436L15,2a15.151,15.151,0,0,1,8.058,2.357,14.972,14.972,0,0,1,5.552,6.327l3.036,6.508a5.308,5.308,0,0,0-3.429,4.321l-.2,1.6a5.351,5.351,0,0,1-.276,1.168Z" transform="translate(-15 -2)" fill="#b27946"/>
          </g>
          <g id="Group_1203848" data-name="Group 1203848" transform="translate(3.185)">
            <path id="Path_1257214" data-name="Path 1257214" d="M15.616,2,13.493,8.37a10.754,10.754,0,0,0-4.5,2.081,10.482,10.482,0,0,0-.955.849L5,6.247,6.189,5.3a15.032,15.032,0,0,1,9.4-3.3Z" transform="translate(-5 -2)" fill="#b27946"/>
          </g>
          <g id="Group_1203849" data-name="Group 1203849" transform="translate(22.295 6.37)">
            <path id="Path_1257215" data-name="Path 1257215" d="M41.759,20.867a8.494,8.494,0,0,0,7.283,4.119H65.466v12.74H61.092a4.233,4.233,0,0,1-4.024-2.909l-.149-.435a4.427,4.427,0,0,0-3.28-2.93h-.011a3.12,3.12,0,0,0-.775-1.285,3.174,3.174,0,0,0-5.245,1.189h-1.9A4.243,4.243,0,0,0,41.515,34.9l-.287,1.762a2.154,2.154,0,0,1-1.147,1.55l-1.837.913A6.35,6.35,0,0,1,36.8,35.083v-.021a6.372,6.372,0,0,0-1.858-4.5l-1.125.372a4.265,4.265,0,0,0-2.06,1.486L30.644,33.9A4.245,4.245,0,0,1,23,31.356V29.233a2.137,2.137,0,0,1,.849-1.7l1.592-1.2a5.241,5.241,0,0,0,1.8-2.421,5.351,5.351,0,0,0,.276-1.168l.2-1.6a5.311,5.311,0,0,1,5.266-4.65h.626l1.465-1.953A8.611,8.611,0,0,0,36.8,9.38,1.377,1.377,0,0,1,38.182,8a1.392,1.392,0,0,1,1.157.616,10.213,10.213,0,0,1,1.709,5.659v2.219h-.807a3.836,3.836,0,0,0-3.44,2.123,2.139,2.139,0,0,0,2.123,2.123h.191a3.713,3.713,0,0,0,2.155-.679l.011.011Z" transform="translate(-23 -8)" fill="#ccd1d9"/>
          </g>
          <g id="Group_1203850" data-name="Group 1203850" transform="translate(36.096 14.863)">
            <path id="Path_1257216" data-name="Path 1257216" d="M42.37,16l-.329,1.338a3.827,3.827,0,0,1-1.571,2.229,3.713,3.713,0,0,1-2.155.679h-.191A2.139,2.139,0,0,1,36,18.123,3.836,3.836,0,0,1,39.44,16h2.93Z" transform="translate(-36 -16)" fill="#aab2bd"/>
          </g>
          <g id="Group_1203851" data-name="Group 1203851" transform="translate(21.233 38.219)">
            <path id="Path_1257217" data-name="Path 1257217" d="M32.616,43.871a7.688,7.688,0,0,0,4.247,6.869H26.247a3.408,3.408,0,0,0-1.9-3.068L22,46.493V43.308a5,5,0,0,1,.106-1.062,5.308,5.308,0,0,1,10.51,1.062Z" transform="translate(-22 -38)" fill="#e6e9ed"/>
          </g>
          <g id="Group_1203852" data-name="Group 1203852" transform="translate(6.37 33.973)">
            <path id="Path_1257218" data-name="Path 1257218" d="M12.247,50.986H8V39.552a5.364,5.364,0,0,1,.159-1.306,5.553,5.553,0,0,1,1.89-3A5.466,5.466,0,0,1,13.552,34,5.522,5.522,0,0,1,16.8,35.051a5.645,5.645,0,0,1,.913.828,5.415,5.415,0,0,1,1.1,1.922l.86,2.569a6.666,6.666,0,0,0,1.348,2.336,3.248,3.248,0,0,0-1.953,2.2l-.457,1.837h4.247l2.346,1.178a3.408,3.408,0,0,1,1.9,3.068H12.247Z" transform="translate(-8 -34)" fill="#ffeaa7"/>
          </g>
          <g id="Group_1203853" data-name="Group 1203853" transform="translate(16.986 42.466)">
            <path id="Path_1257219" data-name="Path 1257219" d="M18.457,44.41a3.248,3.248,0,0,1,1.953-2.2A3.129,3.129,0,0,1,21.546,42h.807a5,5,0,0,0-.106,1.062v3.185H18Z" transform="translate(-18 -42)" fill="#ff826e"/>
          </g>
          <g id="Group_1203854" data-name="Group 1203854" transform="translate(7.432 29.726)">
            <path id="Path_1257220" data-name="Path 1257220" d="M16.432,30a3.184,3.184,0,0,1,1.221,6.126,5.645,5.645,0,0,0-.913-.828,5.522,5.522,0,0,0-3.249-1.051,5.466,5.466,0,0,0-3.5,1.242,3.178,3.178,0,0,1,4.321-4.661A3.145,3.145,0,0,1,16.315,30Z" transform="translate(-9 -30)" fill="#ff826e"/>
          </g>
          <g id="Group_1203855" data-name="Group 1203855" transform="translate(2.123 38.219)">
            <path id="Path_1257221" data-name="Path 1257221" d="M8.406,38a5.364,5.364,0,0,0-.159,1.306v2.941H4l.287-1.157A4.087,4.087,0,0,1,8.247,38Z" transform="translate(-4 -38)" fill="#ff826e"/>
          </g>
          <g id="Group_1203856" data-name="Group 1203856" transform="translate(36.096 29.726)">
            <path id="Path_1257222" data-name="Path 1257222" d="M40.714,33.546A4.243,4.243,0,0,1,44.907,30h1.9a2.943,2.943,0,0,0-.191,1.062v1.476a3.177,3.177,0,0,0,1.423,2.654L49.8,36.37l1.762-1.178a3.177,3.177,0,0,0,1.423-2.654V31.062a2.882,2.882,0,0,0-.159-.966h.011a4.427,4.427,0,0,1,3.28,2.93l.149.435a4.233,4.233,0,0,0,4.024,2.909h4.374V51.233h-13.8V48.3a9.988,9.988,0,0,0-.658-3.578,6.146,6.146,0,0,1-2.463.945l-8.557,1.316A10.882,10.882,0,0,1,36,39.3v-.807l1.444-.722,1.837-.913a2.154,2.154,0,0,0,1.147-1.55Z" transform="translate(-36 -30)" fill="#ecc19c"/>
          </g>
          <g id="Group_1203857" data-name="Group 1203857" transform="translate(46.713 27.603)">
            <path id="Path_1257223" data-name="Path 1257223" d="M52.37,31.185v1.476a3.177,3.177,0,0,1-1.423,2.654l-1.762,1.178-1.762-1.178A3.177,3.177,0,0,1,46,32.661V31.185a2.943,2.943,0,0,1,.191-1.062,3.171,3.171,0,0,1,6.02.1A2.882,2.882,0,0,1,52.37,31.185Z" transform="translate(-46 -28)" fill="#dfb28b"/>
          </g>
        </g>
        <g id="Group_1203859" data-name="Group 1203859" transform="translate(0.871 1)">
          <circle id="Ellipse_12711" data-name="Ellipse 12711" cx="1.062" cy="1.062" r="1.062" transform="translate(44.726 36.096)"/>
          <circle id="Ellipse_12712" data-name="Ellipse 12712" cx="1.062" cy="1.062" r="1.062" transform="translate(31.986 21.233)"/>
          <circle id="Ellipse_12713" data-name="Ellipse 12713" cx="1.062" cy="1.062" r="1.062" transform="translate(10.753 12.74)"/>
          <circle id="Ellipse_12714" data-name="Ellipse 12714" cx="1.062" cy="1.062" r="1.062" transform="translate(25.617 42.466)"/>
          <circle id="Ellipse_12715" data-name="Ellipse 12715" cx="1.062" cy="1.062" r="1.062" transform="translate(10.753 38.219)"/>
          <path id="Path_1257224" data-name="Path 1257224" d="M11,43h2.123v4.247H11Z" transform="translate(-0.247 1.589)"/>
          <path id="Path_1257225" data-name="Path 1257225" d="M40.475,20.11h-.186v2.123h.186a4.878,4.878,0,0,0,1.773-.342,9.6,9.6,0,0,0,8.158,4.588H66.83V24.356H50.405a7.468,7.468,0,0,1-6.372-3.607l-.019-.032a4.877,4.877,0,0,0,1.217-2.2l.665-2.656H43.474V14.7a11.231,11.231,0,0,0-1.891-6.246A2.445,2.445,0,0,0,37.1,9.815,7.573,7.573,0,0,1,35.6,14.332L34.45,15.863h-.091A6.314,6.314,0,0,0,33.1,16l-2.659-5.7A16.109,16.109,0,0,0,5.778,4.531L3.867,6.059,6.98,11.246a11.588,11.588,0,0,0-1.772,2.718l-4.337,9.4L4.9,30.076l8.893-5.558a1.054,1.054,0,0,1,.563-.161h.564l.731,6.58a4.246,4.246,0,0,0-.843.368,4.193,4.193,0,0,0-2.123-.58A4.251,4.251,0,0,0,8.44,34.973a4.2,4.2,0,0,0,.636,2.206A6.6,6.6,0,0,0,7.8,39.274a5.123,5.123,0,0,0-4.352,3.84l-.62,2.476H7.378v6.37H1.008V66.822H66.83V51.959H54.09V50.086a11.061,11.061,0,0,0-.47-3.175,7.213,7.213,0,0,0,2.594-5.568H54.09a5.1,5.1,0,0,1-4.346,5.066L41.737,47.64a9.744,9.744,0,0,1-2.51-6.556v-.148l2.692-1.346a3.2,3.2,0,0,0,1.718-2.325l.292-1.755a3.175,3.175,0,0,1,3.142-2.662h.649V34.33a4.24,4.24,0,0,0,1.891,3.533l2.356,1.57,2.356-1.57a4.241,4.241,0,0,0,1.891-3.533v-.7a3.351,3.351,0,0,1,1.062,1.518l.149.445a5.3,5.3,0,0,0,5.035,3.629H66.83V37.1H62.459a3.181,3.181,0,0,1-3.021-2.177l-.149-.445A5.5,5.5,0,0,0,55.77,31a4.213,4.213,0,0,0-7.459-.273h-1.24a5.291,5.291,0,0,0-5.236,4.436l-.292,1.754a1.063,1.063,0,0,1-.573.775l-1.01.505a5.366,5.366,0,0,1-.733-2.708,7.381,7.381,0,0,0-1.172-4,5.459,5.459,0,0,0,3.3-5.007H39.227a3.353,3.353,0,0,1-2.3,3.185l-2.089.7a5.275,5.275,0,0,0-2.567,1.85L31.16,33.7a3.2,3.2,0,0,1-2.549,1.275,3.133,3.133,0,0,1-1.364-.32l3.176-3.176-1.5-1.5-3.176,3.176a3.133,3.133,0,0,1-.32-1.364V29.665a1.065,1.065,0,0,1,.425-.849l1.595-1.2a6.4,6.4,0,0,0,2.5-4.306l.2-1.607a4.252,4.252,0,0,1,4.214-3.72h1.153l1.786-2.38a9.615,9.615,0,0,0,.863-1.389l3.19,1.218v.446a4.868,4.868,0,0,0-4.135,2.692l1.9.95A2.766,2.766,0,0,1,41.6,17.986h1.574l0,.018a2.775,2.775,0,0,1-2.7,2.105Zm9.369,12.74a2.123,2.123,0,0,1,4.247,0V34.33a2.119,2.119,0,0,1-.946,1.767l-1.177.785L50.79,36.1a2.117,2.117,0,0,1-.946-1.766ZM26,14.605a13.314,13.314,0,0,0-.964-1.987l2.943-2.452c.192.335.375.677.54,1.031l1.134,2.43-3.38,1.69Zm.776-6.2L23.8,10.878a13.26,13.26,0,0,0-2.078-2L23.71,5.567A14.071,14.071,0,0,1,26.774,8.4ZM12.929,7.53l-.033.011L11.1,3.958a14,14,0,0,1,3.264-.746Zm7.134-.01a8.655,8.655,0,0,0-1.543-4.128,14.021,14.021,0,0,1,3.352,1.115ZM7.1,6.188A13.99,13.99,0,0,1,9.166,4.826l1.726,3.452A11.735,11.735,0,0,0,8.546,9.73l-1.9-3.172Zm5.582,26.661A2.1,2.1,0,0,1,14.1,33.4l.71.64.71-.639a2.1,2.1,0,0,1,1.413-.554,2.122,2.122,0,0,1,1.37,3.743,6.554,6.554,0,0,0-7.558-.761,2.123,2.123,0,0,1,1.942-2.982ZM5.558,43.466a3.005,3.005,0,0,1,1.823-1.925c0,.015,0,.031,0,.046v1.879ZM9.5,41.587a4.491,4.491,0,0,1,8.751-1.419l.858,2.573a7.77,7.77,0,0,0,.809,1.688,4.234,4.234,0,0,0-1.435,2.254L17.7,49.836h5.355L25.174,50.9a2.345,2.345,0,0,1,1.043,1.062H9.5Zm10.915,6.126.13-.515a2.118,2.118,0,0,1,1.7-1.577v2.091Zm14.664,4.247h-6.6A4.463,4.463,0,0,0,26.126,49l-1.761-.88V45.589a4.247,4.247,0,0,1,8.493,0v.561A8.686,8.686,0,0,0,35.079,51.959ZM58.337,64.7H56.214V54.082h2.123Zm-8.493-4.247H54.09V64.7H49.844Zm4.247-2.123H49.844V54.082H54.09Zm-6.37,6.37H45.6V54.082h2.123Zm-36.1-6.37H7.378V54.082h4.247ZM7.378,60.452h4.247V64.7H7.378Zm6.37-6.37h2.123V64.7H13.748Zm8.493,4.247H17.994V54.082h4.247Zm-4.247,2.123h4.247V64.7H17.994Zm6.37-6.37h2.123V64.7H24.364Zm8.493,4.247H28.611V54.082h4.247Zm-4.247,2.123h4.247V64.7H28.611Zm6.37-6.37H37.1V64.7H34.981Zm4.247,6.37h4.247V64.7H39.227Zm4.247-2.123H39.227V54.082h4.247ZM3.131,54.082H5.255V64.7H3.131ZM60.46,64.7V60.452h4.247V64.7Zm4.247-6.37H60.46V54.082h4.247ZM26.171,25.921l-1.6,1.2A3.2,3.2,0,0,0,23.3,29.665v2.123a5.308,5.308,0,0,0,9.555,3.185l1.116-1.487a3.159,3.159,0,0,1,1.54-1.109l.442-.148A5.284,5.284,0,0,1,37.1,35.52a7.456,7.456,0,0,0,.95,3.631l-.95.475v1.46a11.857,11.857,0,0,0,3.5,8.44l.38.38,9.087-1.4a7.294,7.294,0,0,0,1.656-.464,8.966,8.966,0,0,1,.244,2.043v1.874H38.45a6.574,6.574,0,0,1-3.469-5.809v-.561a6.366,6.366,0,0,0-12.368-2.123H22.6a4.375,4.375,0,0,0-.711.059,5.6,5.6,0,0,1-.769-1.458l-.858-2.573a6.566,6.566,0,0,0-.6-1.273,4.245,4.245,0,0,0-1.891-7.41l-.72-6.478a5.7,5.7,0,0,0,5.132-3.888l-2.014-.672a3.594,3.594,0,0,1-3.412,2.46h-2.4a3.183,3.183,0,0,0-1.688.484l-7.06,4.412-2.34-3.9,3.867-8.376a9.614,9.614,0,0,1,6.821-5.38l.6-.121,1.768-5.3a6.581,6.581,0,0,1,1.666,4.384v.656l.587.293a11.157,11.157,0,0,1,5.436,5.986L27.454,24.3a4.256,4.256,0,0,1-1.282,1.618Zm2.082-5.454-1.216-3.162,3.512-1.756.565,1.21A6.374,6.374,0,0,0,28.253,20.467ZM39.227,9.815a.334.334,0,0,1,.589-.178A9.1,9.1,0,0,1,41.195,13.1l-2.281-.871a9.662,9.662,0,0,0,.314-2.417Z" transform="translate(-0.871 -1)"/>
        </g>
      </g>
    </g>
    <rect id="Rectangle_411620" data-name="Rectangle 411620" width="104" height="104" transform="translate(788.051 2601.164)" fill="none"/>
  </g>
</svg>
