<svg xmlns="http://www.w3.org/2000/svg" width="104" height="104" viewBox="0 0 104 104">
  <g id="Group_1204168" data-name="Group 1204168" transform="translate(-788.051 -2601.164)">
    <g id="Group_1201005" data-name="Group 1201005" transform="translate(788.051 2610.842)">
      <rect id="Rectangle_410589" data-name="Rectangle 410589" width="103.576" height="34.525" rx="8" transform="translate(0 26.598)" fill="#ffc94a"/>
      <g id="Group_1204171" data-name="Group 1204171" transform="translate(5.051 4.688)">
        <g id="Group_1204172" data-name="Group 1204172" transform="translate(8.152 -3.366)">
          <path id="Path_1258148" data-name="Path 1258148" d="M199.91,322.7c5.388,5.287,12.131.909,12.886-6.306a1.277,1.277,0,0,0-.736-1.292c-5.011-2.31-14.262-1.2-12.167,7.569a.064.064,0,0,0,.017.03Z" transform="translate(-169.899 -263.157)" fill="#68ca44"/>
          <path id="Path_1258149" data-name="Path 1258149" d="M33.075,234.221a.161.161,0,0,1-.043.077c-7.762,7.6-17.464,1.305-18.57-9.076a1.869,1.869,0,0,1,1.059-1.9,17.326,17.326,0,0,1,11.775-.836.431.431,0,0,1,.27.572l-.75,1.85a.4.4,0,0,0,.426.544l3.84-.549a.427.427,0,0,1,.376.132C33.26,227.023,34.077,230.009,33.075,234.221Z" transform="translate(-14.452 -185.707)" fill="#68ca44"/>
          <path id="Path_1258150" data-name="Path 1258150" d="M114.6,444.049a10.536,10.536,0,0,0-10.413,8.941.653.653,0,0,0,.643.753h19.539a.653.653,0,0,0,.643-.753A10.536,10.536,0,0,0,114.6,444.049Z" transform="translate(-89.792 -372.298)" fill="#e8ad8c"/>
          <path id="Path_1258151" data-name="Path 1258151" d="M168.238,452.991a10.531,10.531,0,0,0-12.578-8.715,10.542,10.542,0,0,1,8.248,8.715.653.653,0,0,1-.643.753h4.33A.653.653,0,0,0,168.238,452.991Z" transform="translate(-133.015 -372.299)" fill="#e19974"/>
          <path id="Path_1258152" data-name="Path 1258152" d="M191.728,7.506a23.863,23.863,0,0,0-22.645,29.559,1.416,1.416,0,0,1-.382,1.355L162.58,44.4a.761.761,0,0,0,.607,1.3l8.529-.848a1.411,1.411,0,0,1,1.278.572A23.852,23.852,0,1,0,191.728,7.506Z" transform="translate(-138.63 -5.758)" fill="#fd8087"/>
          <path id="Path_1258153" data-name="Path 1258153" d="M337.381,7.506c-.525.011-1.045.041-1.561.086a23.855,23.855,0,0,1,0,47.527,23.855,23.855,0,1,0,1.559-47.613Z" transform="translate(-284.283 -5.758)" fill="#fe646f"/>
          <circle id="Ellipse_12772" data-name="Ellipse 12772" cx="18.106" cy="18.106" r="18.106" transform="translate(28.008 25.601) rotate(-45)" fill="#f2fbff"/>
          <g id="Group_1204171-2" data-name="Group 1204171" transform="translate(44.315 15.408)">
            <circle id="Ellipse_12773" data-name="Ellipse 12773" cx="3.61" cy="3.61" r="3.61" transform="translate(9.279 5.105) rotate(-45)" fill="#678d98"/>
            <ellipse id="Ellipse_12774" data-name="Ellipse 12774" cx="5.99" cy="5.874" rx="5.99" ry="5.874" transform="translate(0 11.182) rotate(-45)" fill="#ae6c6c"/>
          </g>
        </g>
        <g id="Group_1204173" data-name="Group 1204173" transform="translate(6.949 -2.827)">
          <path id="Path_1258154" data-name="Path 1258154" d="M206.069,10.148a1.2,1.2,0,0,0-1.931,1.434A22.667,22.667,0,0,1,186.649,47.7a22.69,22.69,0,0,1-18.993-9.285,2.625,2.625,0,0,0-2.368-1.058l-7.276.724,5.221-5.1a2.63,2.63,0,0,0,.71-2.5A22.644,22.644,0,0,1,200.509,7.725a1.2,1.2,0,1,0,1.549-1.84,25.056,25.056,0,0,0-40.452,25.169.213.213,0,0,1-.055.206l-6.121,5.978A1.964,1.964,0,0,0,157,40.6l8.529-.848a.21.21,0,0,1,.189.086,25.065,25.065,0,0,0,45.276-14.208,24.806,24.806,0,0,0-4.923-15.48Z" transform="translate(-131.118 0.001)"/>
          <path id="Path_1258155" data-name="Path 1258155" d="M247.7,35.856a19.308,19.308,0,1,0,19.308,19.308A19.333,19.333,0,0,0,247.7,35.856ZM230.8,55.164A16.831,16.831,0,0,1,234.936,44.1l6.914,6.914-.058.055a7.332,7.332,0,0,0-1.183,1.55l-1.208-.325a2.234,2.234,0,0,0-2.162.577l-2.8,2.8a1.2,1.2,0,1,0,1.7,1.7l2.733-2.733.911.245a7.011,7.011,0,0,0,8.2,8.2l.245.912-2.733,2.733a1.2,1.2,0,0,0,1.7,1.7l2.8-2.8a2.237,2.237,0,0,0,.578-2.16l-.325-1.211a7.331,7.331,0,0,0,1.548-1.182c.019-.019.036-.039.055-.058l6.914,6.914A16.894,16.894,0,0,1,230.8,55.164Zm23.695-6.792a2.405,2.405,0,0,1-1.481,4.1,6.941,6.941,0,0,0-2.619-2.618,2.383,2.383,0,0,1,.7-1.481A2.412,2.412,0,0,1,254.494,48.372ZM248.4,60.48a4.658,4.658,0,0,1-4.991-1.024,4.731,4.731,0,0,1,.082-6.688l.058-.055,6.6,6.6-.055.058A4.874,4.874,0,0,1,248.4,60.48Zm1.779-7.795a4.651,4.651,0,0,1,1.194,4.45l-5.644-5.644A4.647,4.647,0,0,1,250.181,52.685ZM260.469,66.23l-6.415-6.415.138.037a2.235,2.235,0,0,0,2.16-.579l2.8-2.8a1.2,1.2,0,0,0-1.7-1.7L254.721,57.5l-.914-.246a7.193,7.193,0,0,0,.021-2.485,4.791,4.791,0,0,0,3.523-3.158,2.8,2.8,0,0,0,2.546-.5l1.073-1.073a1.2,1.2,0,1,0-1.7-1.7l-.957.957-.787-.083a4.8,4.8,0,0,0-3.87-3.87l-.084-.787.957-.957a1.2,1.2,0,0,0-1.7-1.7l-1.073,1.073a2.045,2.045,0,0,0-.592,1.678l.092.867A4.794,4.794,0,0,0,248.1,49.04a7.191,7.191,0,0,0-2.486.02l-.246-.916,2.733-2.731a1.2,1.2,0,1,0-1.7-1.7l-2.806,2.8a2.242,2.242,0,0,0-.575,2.157l.038.141L236.637,42.4A16.894,16.894,0,0,1,260.469,66.23Z" transform="translate(-192.881 -30.106)"/>
          <path id="Path_1258156" data-name="Path 1258156" d="M50.817,230.262c-3.339-1.54-8.584-1.785-11.728.792-1.448,1.187-2.962,3.4-2.284,7.313l-1.132.713a8.453,8.453,0,0,0-1.507,1.214v-3.483a10.07,10.07,0,0,0-4.674-8.527l-1.376-.878c.552-2.88.531-6.618-2.066-9.479a1.625,1.625,0,0,0-1.437-.515l-2.455.351.224-.554a1.634,1.634,0,0,0-1.019-2.17,18.469,18.469,0,0,0-12.644.89,3.065,3.065,0,0,0-1.752,3.117c.632,5.933,4.013,10.947,8.615,12.774a1.2,1.2,0,1,0,.888-2.236c-3.781-1.5-6.572-5.738-7.11-10.793a.669.669,0,0,1,.367-.678,16.4,16.4,0,0,1,10.1-1.006l-.425,1.048a1.6,1.6,0,0,0,1.71,2.186l3.419-.488A7.893,7.893,0,0,1,25.907,226l-7.971-5.085a1.2,1.2,0,0,0-1.294,2.028l8.124,5.182a9.575,9.575,0,0,1-3.525,1.786,1.2,1.2,0,1,0,.59,2.332,12.3,12.3,0,0,0,5.066-2.758l1.3.83a7.675,7.675,0,0,1,3.562,6.5v13.206a11.733,11.733,0,0,0-10.4,9.9,1.856,1.856,0,0,0,1.832,2.137H42.732a1.856,1.856,0,0,0,1.832-2.137,11.733,11.733,0,0,0-10.4-9.9v-3.851a5.942,5.942,0,0,1,2.789-5.052l1.067-.672a7.816,7.816,0,0,0,7.779,1.6c3.455-1.243,5.985-4.884,6.445-9.275a2.479,2.479,0,0,0-1.429-2.51Zm-8.748,29.386H23.857a9.332,9.332,0,0,1,18.211,0Zm2.919-19.865a5.208,5.208,0,0,1-4.786-.713l5.252-3.308a1.2,1.2,0,0,0-1.282-2.035l-5.112,3.221a4.566,4.566,0,0,1,1.556-4.033c2.27-1.861,6.541-1.692,9.2-.468a.074.074,0,0,1,.044.075c-.364,3.479-2.274,6.33-4.866,7.262Z" transform="translate(-6.949 -179.945)"/>
        </g>
      </g>
    </g>
    <rect id="Rectangle_411620" data-name="Rectangle 411620" width="104" height="104" transform="translate(788.051 2601.164)" fill="none"/>
  </g>
</svg>
