<svg xmlns="http://www.w3.org/2000/svg" width="104" height="104" viewBox="0 0 104 104">
  <g id="Group_1204265" data-name="Group 1204265" transform="translate(-788.05 -2601.164)">
    <g id="Group_1201005" data-name="Group 1201005" transform="translate(788.051 2610.842)">
      <rect id="Rectangle_410589" data-name="Rectangle 410589" width="103.576" height="34.525" rx="8" transform="translate(0 26.598)" fill="#ffc94a"/>
      <g id="Group_1204271" data-name="Group 1204271" transform="translate(7.948 -1.678)">
        <g id="Group_1204271-2" data-name="Group 1204271" transform="translate(1.208 1.191)">
          <path id="Path_1258338" data-name="Path 1258338" d="M105.636,61.983a1.19,1.19,0,0,1-.843-.349l-3.4-3.4a1.191,1.191,0,1,1,1.684-1.685l3.4,3.4a1.191,1.191,0,0,1-.842,2.033Z" transform="translate(-33.449 -19.133)" fill="#4cb8eb"/>
          <circle id="Ellipse_12790" data-name="Ellipse 12790" cx="13.878" cy="13.878" r="13.878" transform="translate(45.096 14.568)" fill="#fff5f5"/>
          <rect id="Rectangle_411666" data-name="Rectangle 411666" width="6.914" height="4.43" transform="translate(69.743 44.103) rotate(-45)" fill="#76625f"/>
          <path id="Path_1258339" data-name="Path 1258339" d="M108.8,68.844l5.978,5.979a3.457,3.457,0,1,0,4.889-4.889l-5.979-5.978Z" transform="translate(-35.925 -21.608)" fill="#ff9000"/>
          <path id="Path_1258340" data-name="Path 1258340" d="M68.5,44.7a13.857,13.857,0,0,1,6.455-23.265c-.222-2.21-.913-3.831-2.189-4.558-3.263-1.856-9.564,2.5-15.657,9.09a81.828,81.828,0,0,1,1.317,14.176,38.083,38.083,0,0,1-1.577,11.927h8.809c.068-.118.136-.226.2-.346,1.157-2.034,2.255-4.217,3.263-6.463C68.913,45.079,68.7,44.9,68.5,44.7Z" transform="translate(-19.34 -6.443)" fill="#00a400"/>
          <path id="Path_1258341" data-name="Path 1258341" d="M48.626,35.453c0-14.851-5.029-33.7-11.233-33.7S26.161,20.6,26.161,35.453A38.062,38.062,0,0,0,27.738,47.38H47.049A38.082,38.082,0,0,0,48.626,35.453Z" transform="translate(-9.543 -1.75)" fill="#a9db1f"/>
          <path id="Path_1258342" data-name="Path 1258342" d="M44.867,35.466A1.191,1.191,0,1,0,43.4,33.585L41.5,35.068V28.743l3.369-2.62A1.191,1.191,0,1,0,43.4,24.242L41.5,25.725V15.941a1.191,1.191,0,1,0-2.383,0V20.4l-1.906-1.483A1.191,1.191,0,1,0,35.746,20.8l3.37,2.62v6.325L37.21,28.258a1.191,1.191,0,1,0-1.463,1.88l3.37,2.621v6.325L37.211,37.6a1.191,1.191,0,0,0-1.463,1.881l3.37,2.62V51.53a1.191,1.191,0,0,0,2.383,0v-4.1l3.369-2.62a1.191,1.191,0,0,0-1.463-1.881L41.5,44.411V38.086Z" transform="translate(-12.456 -5.9)" fill="#00a400"/>
          <rect id="Rectangle_411667" data-name="Rectangle 411667" width="48.337" height="6.442" transform="translate(3.681 45.63)" fill="#ff9000"/>
          <path id="Path_1258343" data-name="Path 1258343" d="M46.362,110.922H21.383l-.413-1.079a88.436,88.436,0,0,1-5.839-31.6H52.614a88.433,88.433,0,0,1-5.839,31.6Z" transform="translate(-6.022 -26.169)" fill="#76625f"/>
          <path id="Path_1258344" data-name="Path 1258344" d="M52.3,92.5a15.947,15.947,0,0,0-2.713,1.982c-1.313,1.126-2.036,1.747-3.795,1.747s-2.481-.62-3.794-1.747a11.129,11.129,0,0,0-15.722,0c-1.313,1.127-2.036,1.747-3.793,1.747s-2.481-.62-3.793-1.747A15.95,15.95,0,0,0,15.983,92.5a88.445,88.445,0,0,0,1.464,8.763,10.356,10.356,0,0,0,5.042,1.212,11.07,11.07,0,0,0,7.86-3.251c1.313-1.126,2.036-1.746,3.794-1.746s2.481.62,3.795,1.746A11.077,11.077,0,0,0,45.8,102.48a10.358,10.358,0,0,0,5.044-1.213A88.422,88.422,0,0,0,52.3,92.5Z" transform="translate(-6.294 -30.317)" fill="#40322f"/>
          <path id="Path_1258345" data-name="Path 1258345" d="M18.368,40.146a38.062,38.062,0,0,0,1.577,11.927H11.136c-.068-.118-.136-.226-.2-.346C3.587,38.819-1.366,19.947,4.025,16.879c3.262-1.856,9.564,2.5,15.657,9.09a81.827,81.827,0,0,0-1.315,14.176Z" transform="translate(-1.75 -6.443)" fill="#00a400"/>
        </g>
        <g id="Group_1204272" data-name="Group 1204272" transform="translate(0.052)">
          <path id="Path_1258346" data-name="Path 1258346" d="M32.064,76.493H30.727a1.191,1.191,0,0,0,0,2.383h1.337a1.191,1.191,0,0,0,0-2.383Z" transform="translate(-9.465 -24.42)"/>
          <path id="Path_1258347" data-name="Path 1258347" d="M85.793,48.674,79.813,42.7l-3.131-3.131a1.191,1.191,0,0,0-1.684,0l-1.6,1.6-1.752-1.75A15.045,15.045,0,0,0,75.2,28.407a1.191,1.191,0,1,0-2.375.194,12.687,12.687,0,1,1-3.676-7.933,1.191,1.191,0,1,0,1.684-1.684,14.968,14.968,0,0,0-10.653-4.416,15.194,15.194,0,0,0-2.375.2,5.826,5.826,0,0,0-2.587-4.179c-4.376-2.487-11.479,3.574-15.536,7.661C37.629,8.446,33.906,0,29.059,0S20.488,8.446,18.43,18.254C14.373,14.169,7.272,8.1,2.894,10.593-3.449,14.2,1.883,33.186,8.565,45.631H4.889A1.191,1.191,0,0,0,3.7,46.823v6.442a1.191,1.191,0,0,0,1.191,1.191h4.25a89.26,89.26,0,0,0,5.9,30.838l.413,1.08a1.191,1.191,0,0,0,1.114.763H41.548a1.192,1.192,0,0,0,1.113-.766l.413-1.08a89.27,89.27,0,0,0,5.9-30.835h4.249a1.191,1.191,0,0,0,1.191-1.191V46.823a1.192,1.192,0,0,0-1.191-1.191H49.554c.645-1.2,1.272-2.451,1.88-3.738a15.013,15.013,0,0,0,18.521-.8l1.756,1.756-1.6,1.6a1.191,1.191,0,0,0,0,1.684l3.132,3.131,5.979,5.978a4.648,4.648,0,1,0,6.574-6.573ZM40.25,21.1c5.991-6.362,11.5-9.742,13.794-8.433a3.815,3.815,0,0,1,1.451,2.655,15.068,15.068,0,0,0-5.948,25c-.863,1.868-1.77,3.652-2.709,5.317H40.31A47.93,47.93,0,0,0,41.421,32.06,84.6,84.6,0,0,0,40.25,21.1ZM29.059,2.383c3.327,0,6.876,8.226,8.737,18.449a.986.986,0,0,0,.006.1,82.8,82.8,0,0,1,1.213,10.557,45.009,45.009,0,0,1-1.184,14.143H30.25v-2.91L33.619,40.1a1.191,1.191,0,0,0-1.463-1.881L30.25,39.7V33.378l3.369-2.62a1.192,1.192,0,0,0-1.463-1.882L30.25,30.359V24.036l3.369-2.62a1.192,1.192,0,0,0-1.463-1.882L30.25,21.017V11.233a1.191,1.191,0,1,0-2.383,0v4.457l-1.906-1.483A1.192,1.192,0,0,0,24.5,16.088l3.37,2.62v6.324L25.962,23.55A1.191,1.191,0,0,0,24.5,25.43l3.37,2.621v6.327L25.963,32.9A1.192,1.192,0,0,0,24.5,34.777l3.37,2.62v8.237H20.286A45.015,45.015,0,0,1,19.1,31.493a82.69,82.69,0,0,1,1.214-10.559c.006-.034,0-.068.006-.1C22.18,10.608,25.731,2.383,29.059,2.383ZM4.072,12.662c2.3-1.308,7.806,2.072,13.795,8.433A84.331,84.331,0,0,0,16.7,32.056a47.94,47.94,0,0,0,1.111,13.574H11.28C3.713,32.2-.061,15.017,4.072,12.662ZM40.847,84.44l-.12.314H17.389l-.12-.314a87.411,87.411,0,0,1-3.237-10.348,12.42,12.42,0,0,0,12.007-3.087c1.238-1.062,1.7-1.46,3.018-1.46s1.781.4,3.02,1.461a12.419,12.419,0,0,0,12.009,3.087A87.425,87.425,0,0,1,40.847,84.44Zm3.865-13.111a9.351,9.351,0,0,1-4,.832A9.922,9.922,0,0,1,33.627,69.2c-1.376-1.181-2.37-2.034-4.571-2.034s-3.193.853-4.569,2.034A9.919,9.919,0,0,1,17.4,72.161a9.35,9.35,0,0,1-4-.831c-.382-1.8-.707-3.608-.972-5.409.136.117.272.232.4.34C14.21,67.442,15.2,68.3,17.4,68.3s3.193-.853,4.569-2.033a9.947,9.947,0,0,1,14.17,0c1.376,1.18,2.37,2.033,4.57,2.033s3.193-.852,4.57-2.033c.128-.11.261-.224.4-.34C45.418,67.72,45.093,69.529,44.712,71.329Zm7.324-19.255H29.059a1.191,1.191,0,1,0,0,2.383H46.6q-.057,4.129-.5,8.209a19.323,19.323,0,0,0-2.37,1.79c-1.238,1.061-1.7,1.458-3.018,1.458s-1.78-.4-3.018-1.46a12.305,12.305,0,0,0-17.273,0c-1.238,1.061-1.7,1.459-3.018,1.459s-1.78-.4-3.018-1.459a18.946,18.946,0,0,0-2.368-1.79q-.44-4.077-.495-8.208h3.386a1.191,1.191,0,0,0,0-2.383H6.082V48.014H52.033Zm23.8-9.982,1.447,1.447-3.2,3.2L72.636,45.3Zm8.269,11.473a2.32,2.32,0,0,1-3.2,0l-5.136-5.136,3.2-3.2,5.136,5.137a2.265,2.265,0,0,1,0,3.2Z" transform="translate(-0.052)"/>
        </g>
      </g>
    </g>
    <rect id="Rectangle_411620" data-name="Rectangle 411620" width="104" height="104" transform="translate(788.051 2601.164)" fill="none"/>
  </g>
</svg>
