<svg xmlns="http://www.w3.org/2000/svg" width="104" height="104" viewBox="0 0 104 104">
  <g id="Group_1203832" data-name="Group 1203832" transform="translate(-788.051 -2601.164)">
    <g id="Group_1201005" data-name="Group 1201005" transform="translate(788.051 2618.656)">
      <g id="Rectangle_410589" data-name="Rectangle 410589" transform="translate(0 17.508)" fill="#ffc94a" stroke="#dfab32" stroke-width="1">
        <rect width="103.576" height="34.525" rx="8" stroke="none"/>
        <rect x="0.5" y="0.5" width="102.576" height="33.525" rx="7.5" fill="none"/>
      </g>
      <g id="Layer_31" data-name="Layer 31" transform="translate(12.996 -3.492)">
        <path id="Path_1257268" data-name="Path 1257268" d="M54.688,10.676A3.676,3.676,0,0,0,51.012,7a39.357,39.357,0,0,0-4.876.3A60.415,60.415,0,0,0,15.525,20.366l-.826.67a55.874,55.874,0,0,0-9.48,9.858,16.085,16.085,0,0,0,4.89,23.621l.468.272a20.92,20.92,0,0,0,14.791,6.127,16.99,16.99,0,0,0,15.474-9.96A220.065,220.065,0,0,0,53.313,15.9Z" transform="translate(0.225 0.225)" fill="#c9c9c9"/>
        <path id="Path_1257269" data-name="Path 1257269" d="M53.561,10.676A3.676,3.676,0,0,0,49.886,7a39.357,39.357,0,0,0-4.876.3,60.432,60.432,0,0,0-11.888,2.73,60.408,60.408,0,0,0-12.6,7.881l-.826.67a55.874,55.874,0,0,0-9.475,9.858,16.093,16.093,0,0,0,4.89,23.629l.468.265a20.92,20.92,0,0,0,14.791,6.127,16.9,16.9,0,0,0,3.142-.3,16.957,16.957,0,0,0,6.2-7.206A220.063,220.063,0,0,0,52.187,15.9Z" transform="translate(1.351 0.225)" fill="#ddd"/>
        <path id="Path_1257270" data-name="Path 1257270" d="M22.087,30.219a54.272,54.272,0,0,0-12.6,24.736A52.863,52.863,0,0,0,35.146,38.827a66.31,66.31,0,0,0,9.4-14.011L52.6,8.728a3.647,3.647,0,0,0-.2-.368l-6.827,3.575a83.49,83.49,0,0,0-23.48,18.284Z" transform="translate(1.911 0.532)" fill="#5a5b5d"/>
        <path id="Path_1257271" data-name="Path 1257271" d="M17,52.241A11.515,11.515,0,0,0,28.524,63.759a27.746,27.746,0,0,0,14.9-4.339L53.7,52.88A81.421,81.421,0,0,0,71.258,37.808,3.562,3.562,0,0,0,68.575,31.9a10.8,10.8,0,0,1-6.748-2.367A11.562,11.562,0,0,0,54.6,27a48.479,48.479,0,0,0-20.315,4.461l-2.026.936a40.655,40.655,0,0,0-7.911,4.818A19.026,19.026,0,0,0,17,52.241Z" transform="translate(3.604 4.731)" fill="#f9cb6e"/>
        <path id="Path_1257272" data-name="Path 1257272" d="M55.7,47.978A81.391,81.391,0,0,0,71.61,34.726,3.564,3.564,0,0,0,68.125,31.9a10.8,10.8,0,0,1-6.748-2.367A11.562,11.562,0,0,0,54.153,27a48.479,48.479,0,0,0-20.315,4.461l-2.026.936A40.655,40.655,0,0,0,23.9,37.215,18.96,18.96,0,0,0,19.98,41.4,18.992,18.992,0,0,0,19,47.34,11.515,11.515,0,0,0,30.524,58.858a27.746,27.746,0,0,0,14.9-4.339Z" transform="translate(4.055 4.731)" fill="#ffd997"/>
        <path id="Path_1257273" data-name="Path 1257273" d="M29.326,53.625l-.551-2.389,2.317-.534A62.526,62.526,0,0,0,55.255,39.211l1.5,1.934A64.973,64.973,0,0,1,31.641,53.09Z" transform="translate(6.257 7.482)" fill="#ffecd2"/>
        <path id="Path_1257274" data-name="Path 1257274" d="M31.725,37.19,30.5,35.063A38.485,38.485,0,0,1,49.568,30h2.375v2.451H49.568A36.043,36.043,0,0,0,31.725,37.19Z" transform="translate(6.646 5.407)" fill="#ffecd2"/>
        <path id="Path_1257275" data-name="Path 1257275" d="M31.092,50.7l-2.317.534.551,2.389,2.316-.535A64.973,64.973,0,0,0,56.761,41.145l-1.5-1.934A62.526,62.526,0,0,1,31.092,50.7Z" transform="translate(6.257 7.482)"/>
        <path id="Path_1257276" data-name="Path 1257276" d="M49.568,32.451h2.375V30H49.568A38.486,38.486,0,0,0,30.5,35.063l1.215,2.127a36.044,36.044,0,0,1,17.853-4.739Z" transform="translate(6.646 5.407)"/>
        <path id="Path_1257277" data-name="Path 1257277" d="M72.181,35.407a9.616,9.616,0,0,1-5.983-2.1,12.829,12.829,0,0,0-7.99-2.8,49.525,49.525,0,0,0-7.919.645c1.642-4.845,3.137-9.78,4.434-14.711L56.1,11.214a1.225,1.225,0,0,0,.04-.312,4.909,4.909,0,0,0-4.9-4.9,40.621,40.621,0,0,0-5.021.312,61.59,61.59,0,0,0-31.24,13.326l-.826.671a57.234,57.234,0,0,0-9.68,10.071A17.317,17.317,0,0,0,9.725,55.807l.328.189A22.071,22.071,0,0,0,20.308,61.71a12.676,12.676,0,0,0,11.82,8.006,28.929,28.929,0,0,0,15.561-4.534L57.968,58.64A82.489,82.489,0,0,0,75.783,43.347a4.787,4.787,0,0,0-3.6-7.94ZM43.619,32.72A67.4,67.4,0,0,0,47.561,25.9l4.493-8.99c-1.333,4.96-2.853,9.918-4.534,14.77C46.205,31.968,44.907,32.327,43.619,32.72Zm-23.239,18A51.491,51.491,0,0,1,13.1,53.689,53.13,53.13,0,0,1,24.912,31.566,82,82,0,0,1,48.051,13.547l3.994-2.092L45.367,24.8A65.139,65.139,0,0,1,39.7,34.086q-1.175.468-2.322.994l-2.027.935A42.028,42.028,0,0,0,27.2,40.98a20.122,20.122,0,0,0-6.818,9.736Zm-9.369-1.463a27.051,27.051,0,0,1,7.719-22.492A50.323,50.323,0,0,1,42.1,13.528l1.666-.418A84.4,84.4,0,0,0,23.088,29.93,55.592,55.592,0,0,0,11.25,51.174ZM3.45,40.772a14.963,14.963,0,0,1,2.974-8.918A54.771,54.771,0,0,1,15.7,22.214l.826-.67a59.122,59.122,0,0,1,29.987-12.8,38.389,38.389,0,0,1,4.728-.294,2.426,2.426,0,0,1,.664.1l-10.391,2.6A52.768,52.768,0,0,0,17,25.03,29.492,29.492,0,0,0,8.58,49.559l.336,2.7A14.887,14.887,0,0,1,3.45,40.772ZM13.844,56.024a54.035,54.035,0,0,0,5.813-2.237,20.463,20.463,0,0,0-.278,3.186,12.594,12.594,0,0,0,.164,1.983,19.628,19.628,0,0,1-5.7-2.931ZM73.938,41.735a80.054,80.054,0,0,1-17.29,14.841l-10.28,6.542a26.466,26.466,0,0,1-14.239,4.148,10.293,10.293,0,0,1-10.3-10.293A17.692,17.692,0,0,1,28.7,42.92a39.546,39.546,0,0,1,7.678-4.673l2.027-.934a47.581,47.581,0,0,1,19.8-4.356,10.364,10.364,0,0,1,6.46,2.267,12.079,12.079,0,0,0,7.514,2.634,2.337,2.337,0,0,1,1.757,3.877Z" transform="translate(0 0)"/>
      </g>
    </g>
    <rect id="Rectangle_411620" data-name="Rectangle 411620" width="104" height="104" transform="translate(788.051 2601.164)" fill="none"/>
  </g>
</svg>
