<svg xmlns="http://www.w3.org/2000/svg" width="104.164" height="104" viewBox="0 0 104.164 104">
  <g id="Group_1203828" data-name="Group 1203828" transform="translate(-788.051 -2601.164)">
    <g id="Group_1201005" data-name="Group 1201005" transform="translate(788.051 2618.656)">
      <g id="Rectangle_410589" data-name="Rectangle 410589" transform="translate(0 22.3)" fill="#ffc94a" stroke="#dfab32" stroke-width="1">
        <rect width="103.576" height="34.525" rx="8" stroke="none"/>
        <rect x="0.5" y="0.5" width="102.576" height="33.525" rx="7.5" fill="none"/>
      </g>
      <g id="Group_1203826" data-name="Group 1203826" transform="translate(17.346 0)">
        <g id="Group_1203826-2" data-name="Group 1203826" transform="translate(1.046 1.039)">
          <path id="Path_1257179" data-name="Path 1257179" d="M11.4,347.326c.563,3.711,2.964,11.417,13.2,11.417,0,0,.75-12.12-11.432-13.28A1.627,1.627,0,0,0,11.4,347.326Z" transform="translate(-11.377 -298.626)" fill="#ccf49f"/>
          <path id="Path_1257180" data-name="Path 1257180" d="M18.289,345.464a1.616,1.616,0,0,0-.959.206c9.891,1.823,9.994,11.554,9.96,12.914a17.978,17.978,0,0,0,2.431.159S30.471,346.624,18.289,345.464Z" transform="translate(-16.505 -298.627)" fill="#b3e59f"/>
          <path id="Path_1257181" data-name="Path 1257181" d="M120.024,347.326c-.563,3.711-2.964,11.417-13.2,11.417,0,0-.75-12.12,11.432-13.28A1.627,1.627,0,0,1,120.024,347.326Z" transform="translate(-93.593 -298.626)" fill="#ccf49f"/>
          <path id="Path_1257182" data-name="Path 1257182" d="M118.278,345.463c-.516.049-1.007.12-1.478.206a1.622,1.622,0,0,1,.806,1.657c-.515,3.4-2.572,10.14-10.766,11.257,0,.1.006.16.006.16,10.233,0,12.634-7.706,13.2-11.417A1.627,1.627,0,0,0,118.278,345.463Z" transform="translate(-93.612 -298.626)" fill="#b3e59f"/>
          <path id="Path_1257183" data-name="Path 1257183" d="M299.338,347.326c.563,3.711,2.964,11.417,13.2,11.417,0,0,.75-12.12-11.432-13.28A1.627,1.627,0,0,0,299.338,347.326Z" transform="translate(-259.42 -298.626)" fill="#ccf49f"/>
          <path id="Path_1257184" data-name="Path 1257184" d="M306.23,345.464a1.616,1.616,0,0,0-.959.206c9.891,1.823,9.994,11.554,9.96,12.914a17.978,17.978,0,0,0,2.431.159S318.412,346.624,306.23,345.464Z" transform="translate(-264.547 -298.627)" fill="#b3e59f"/>
          <path id="Path_1257185" data-name="Path 1257185" d="M407.965,347.326c-.563,3.711-2.964,11.417-13.2,11.417,0,0-.75-12.12,11.432-13.28A1.627,1.627,0,0,1,407.965,347.326Z" transform="translate(-341.635 -298.626)" fill="#ccf49f"/>
          <path id="Path_1257186" data-name="Path 1257186" d="M406.22,345.463c-.516.049-1.007.12-1.478.206a1.622,1.622,0,0,1,.806,1.657c-.515,3.4-2.572,10.14-10.766,11.257,0,.1.006.16.006.16,10.233,0,12.634-7.706,13.2-11.417A1.627,1.627,0,0,0,406.22,345.463Z" transform="translate(-341.655 -298.626)" fill="#b3e59f"/>
          <path id="Path_1257187" data-name="Path 1257187" d="M204.1,7.945c-3.316,3.878-13.577,18.186.933,32.7,0,0,17.255-15.244.945-32.741a1.26,1.26,0,0,0-1.878.045Z" transform="translate(-171.69 -7.502)" fill="#e1ffaa"/>
          <path id="Path_1257188" data-name="Path 1257188" d="M245.529,7.9a1.26,1.26,0,0,0-1.878.045q-.124.145-.26.309a1.184,1.184,0,0,1,1,.4c12.86,14.877,2.652,27.556-.718,31.04q.439.474.912.948S261.839,25.4,245.529,7.9Z" transform="translate(-211.242 -7.502)" fill="#ccf49f"/>
          <path id="Path_1257189" data-name="Path 1257189" d="M71.284,213.495c.522,5.749,3.846,23.252,24.961,23.252,0,0,1.48-23.918-23.265-25.018A1.625,1.625,0,0,0,71.284,213.495Z" transform="translate(-62.977 -183.428)" fill="#e1ffaa"/>
          <path id="Path_1257190" data-name="Path 1257190" d="M79.265,211.729a1.626,1.626,0,0,0-.691.119c22.119,2.048,21.588,23.316,21.523,24.815.785.053,1.593.084,2.433.084C102.53,236.747,104.01,212.829,79.265,211.729Z" transform="translate(-69.263 -183.428)" fill="#ccf49f"/>
          <path id="Path_1257191" data-name="Path 1257191" d="M276.56,213.495c-.522,5.749-3.846,23.252-24.961,23.252,0,0-1.48-23.918,23.265-25.018A1.625,1.625,0,0,1,276.56,213.495Z" transform="translate(-218.298 -183.428)" fill="#e1ffaa"/>
          <path id="Path_1257192" data-name="Path 1257192" d="M274.943,211.729q-.9.04-1.746.119a1.621,1.621,0,0,1,1,1.647c-.5,5.52-3.589,21.875-22.528,23.168,0,.055,0,.084,0,.084,21.115,0,24.438-17.5,24.961-23.252A1.625,1.625,0,0,0,274.943,211.729Z" transform="translate(-218.377 -183.428)" fill="#ccf49f"/>
        </g>
        <g id="Group_1203827" data-name="Group 1203827" transform="translate(0 0)">
          <path id="Path_1257193" data-name="Path 1257193" d="M71.661,47.86a2.655,2.655,0,0,0-2.32-.968c-7.11.758-9.922,4.625-11.337,8.2a12.547,12.547,0,0,0-3.181-4.817,22.821,22.821,0,0,0,5.645-6.734,31.979,31.979,0,0,0,3.7-12.286,2.684,2.684,0,0,0-2.777-2.9c-7.728.344-13.778,2.89-17.983,7.567A23.085,23.085,0,0,0,39.2,42.767V34.737c1.441-1.374,7.563-7.709,7.992-16.563C47.484,12.12,45.038,6.267,39.923.779a2.315,2.315,0,0,0-3.429.078c-1.882,2.009-5.61,7.8-6.447,12.834a20.915,20.915,0,0,0,.441,10.149,26.4,26.4,0,0,0,6.632,10.751v8.176a23.085,23.085,0,0,0-4.214-6.849c-4.2-4.677-10.255-7.223-17.983-7.567a2.684,2.684,0,0,0-2.777,2.9,33.535,33.535,0,0,0,1.808,8.121,24.428,24.428,0,0,0,7.423,10.8,12.509,12.509,0,0,0-3.283,4.909c-.061-.162-.125-.324-.193-.487-1.328-3.158-4.339-7.059-11.144-7.707a2.682,2.682,0,0,0-2.891,3.054C4.409,53.527,6.78,61.708,17.06,62.22v6.286a1.039,1.039,0,1,0,2.078,0V62.217c6.831-.343,10.162-4.074,11.781-7.53a31.89,31.89,0,0,0,6.2.747V67.467H34.462a1.039,1.039,0,1,0,0,2.078h7.169a1.039,1.039,0,1,0,0-2.078H39.2V55.435a29.157,29.157,0,0,0,9.672-1.788l6.369,6.3a10.775,10.775,0,0,1-5.908-2.879,1.039,1.039,0,1,0-1.457,1.483,13.474,13.474,0,0,0,9.085,3.666v6.289a1.039,1.039,0,0,0,2.078,0V62.221c10.281-.513,12.651-8.693,13.194-12.275a2.646,2.646,0,0,0-.571-2.086Zm-2.837,1.186-9.594,9.49a13.842,13.842,0,0,1,.884-3.131C61.641,51.771,64.571,49.635,68.824,49.045Zm-16.217.289a20.183,20.183,0,0,1-3.938,2.153,25.683,25.683,0,0,1-7.89,1.785l9.3-9.315h7.707A20.057,20.057,0,0,1,52.607,49.335ZM47.739,34.779A23.969,23.969,0,0,1,60.6,30.48L47.739,43.36Zm11.273,7.1H52.155L62,32.021A29.4,29.4,0,0,1,59.013,41.879ZM44.971,37.294q.336-.373.69-.725v8.873l-6.386,6.4C39.529,48.409,40.614,42.131,44.971,37.294Zm-5.773-5.6v-6.75l5.57-4.127A24.84,24.84,0,0,1,39.2,31.694Zm5.919-13.722L39.2,22.358V3.081C43.346,7.848,45.337,12.852,45.117,17.972Zm-8-14.578V15.927L32.7,11.736a28.3,28.3,0,0,1,4.423-8.342ZM32.085,14.1c0-.021.009-.042.013-.064l5.021,4.758V31.5c-4.564-5.392-6.259-11.237-5.034-17.408Zm-.737,23.2c4.357,4.837,5.442,11.115,5.7,14.543L25.751,40.528V33.042A18.96,18.96,0,0,1,31.348,37.295ZM15.718,30.48a27.821,27.821,0,0,1,7.955,1.649v6.317Zm-1.4,1.541,5.82,5.829H15.615a31.108,31.108,0,0,1-1.294-5.829Zm4.474,12.325a24.055,24.055,0,0,1-2.4-4.417h5.826L35.54,53.273C28.88,52.845,22.584,49.955,18.794,44.346Zm4.308,7.09a21.9,21.9,0,0,0,2.15,1.242l-5.913,5.85A11.535,11.535,0,0,1,23.1,51.435Zm-7.144,3.9a13.779,13.779,0,0,1,.908,3.193L7.275,49.045C11.5,49.632,14.422,51.746,15.958,55.34Zm-9.8-4.48,9.186,9.087C9.163,58.9,6.942,54.326,6.153,50.86Zm14.7,9.091,6.435-6.366q.767.3,1.586.555a10.4,10.4,0,0,1-8.021,5.811Zm32.236-8.435a11.583,11.583,0,0,1,3.668,7.012l-5.839-5.776a21.883,21.883,0,0,0,2.171-1.236Zm7.668,8.431,9.186-9.087C69.156,54.326,66.935,58.9,60.76,59.946Z" transform="translate(-3.829 -0.05)"/>
          <path id="Path_1257194" data-name="Path 1257194" d="M49.108,96.3l3.192.828a1.039,1.039,0,1,0,.522-2.012l-3.192-.828a1.039,1.039,0,0,0-.522,2.012Z" transform="translate(-42.163 -81.192)"/>
          <path id="Path_1257195" data-name="Path 1257195" d="M76.482,40.721l2.691,1.907a1.039,1.039,0,1,0,1.2-1.7l-2.691-1.907a1.039,1.039,0,0,0-1.2,1.7Z" transform="translate(-66.037 -33.453)"/>
          <path id="Path_1257196" data-name="Path 1257196" d="M126.337,4.482a1.039,1.039,0,0,0,1.91-.819l-1.3-3.031a1.039,1.039,0,1,0-1.91.819Z" transform="translate(-108.17 -0.002)"/>
          <path id="Path_1257197" data-name="Path 1257197" d="M415.24,96.379a1.041,1.041,0,0,0,1.267.745L419.7,96.3a1.039,1.039,0,0,0-.522-2.012l-3.192.828A1.039,1.039,0,0,0,415.24,96.379Z" transform="translate(-358.203 -81.191)"/>
          <path id="Path_1257198" data-name="Path 1257198" d="M392.156,42.821a1.035,1.035,0,0,0,.6-.191l2.691-1.907a1.039,1.039,0,1,0-1.2-1.7l-2.691,1.907a1.039,1.039,0,0,0,.6,1.887Z" transform="translate(-337.451 -33.454)"/>
          <path id="Path_1257199" data-name="Path 1257199" d="M352.874,5.027a1.041,1.041,0,0,0,1.365-.546l1.3-3.031a1.039,1.039,0,1,0-1.91-.819l-1.3,3.031A1.039,1.039,0,0,0,352.874,5.027Z" transform="translate(-303.965 -0.001)"/>
        </g>
      </g>
    </g>
    <rect id="Rectangle_411620" data-name="Rectangle 411620" width="104" height="104" transform="translate(788.215 2601.164)" fill="none"/>
  </g>
</svg>
