<svg xmlns="http://www.w3.org/2000/svg" width="104" height="104" viewBox="0 0 104 104">
  <g id="Group_1203830" data-name="Group 1203830" transform="translate(-788.051 -2601.164)">
    <g id="Group_1201005" data-name="Group 1201005" transform="translate(788.051 2612.777)">
      <g id="Rectangle_410589" data-name="Rectangle 410589" transform="translate(0 22.3)" fill="#ffc94a" stroke="#dfab32" stroke-width="1">
        <rect width="103.576" height="34.525" rx="8" stroke="none"/>
        <rect x="0.5" y="0.5" width="102.576" height="33.525" rx="7.5" fill="none"/>
      </g>
      <g id="FILLED_OUTLINE" data-name="FILLED OUTLINE" transform="translate(-1 -12.613)">
        <rect id="Rectangle_411621" data-name="Rectangle 411621" width="3" height="6" transform="translate(53 46.122)" fill="#575757"/>
        <rect id="Rectangle_411622" data-name="Rectangle 411622" width="2" height="6" transform="translate(60 46.122)" fill="#575757"/>
        <path id="Path_1257226" data-name="Path 1257226" d="M114.289,58.968V80.905a2.437,2.437,0,1,1-4.875,0,2.437,2.437,0,0,1-4.875,0V72.374h-2.646a2.439,2.439,0,0,0-1.724.714l-.8.8A7.313,7.313,0,0,1,94.2,76.03h-.037a7.313,7.313,0,0,1-5.17-2.141l-.8-.8a2.439,2.439,0,0,0-1.724-.714h-2.3a7.273,7.273,0,0,0-.341,2.2v6.334a2.437,2.437,0,0,1-4.875,0,2.437,2.437,0,0,1-4.875,0V67.777a5.152,5.152,0,0,0-5.152-5.152H62.359a3.715,3.715,0,0,1-1.676-.4,3.644,3.644,0,0,1-.62-.393,3.729,3.729,0,0,1-.343-5.577l6.829-6.829A4.875,4.875,0,0,1,70,48h4.074l.635,3.656h32.27a7.312,7.312,0,0,1,7.312,7.312Z" transform="translate(-36.134 -27.125)" fill="#dfdfdf"/>
        <rect id="Rectangle_411623" data-name="Rectangle 411623" width="2" height="11" transform="translate(76 78.122)" fill="#dfdfdf"/>
        <rect id="Rectangle_411624" data-name="Rectangle 411624" width="2" height="11" transform="translate(81 78.122)" fill="#dfdfdf"/>
        <rect id="Rectangle_411625" data-name="Rectangle 411625" width="4" height="2" transform="translate(68 64.122)" fill="#e2662b"/>
        <path id="Path_1257227" data-name="Path 1257227" d="M70.311,284.187v18.281a2.437,2.437,0,0,1-4.875,0,2.437,2.437,0,0,1-4.875,0v-7.344h-.033l-.459.286a15.992,15.992,0,0,1-16.092.023l-.5-.261a4.165,4.165,0,0,0-1.2,2.925v4.371a2.437,2.437,0,0,1-4.875,0,2.437,2.437,0,0,1-4.875,0v-9.75L25.478,289.7A2.438,2.438,0,0,1,24,287.455v-.146a2.438,2.438,0,0,1,1.846-2.364l1.819-.455a2.435,2.435,0,0,0,1.673-1.459l1.974-4.936-.209-.209a7.607,7.607,0,0,1-2.229-5.379V272a7.607,7.607,0,0,1,5.94,2.855l1.86,2.325a2.437,2.437,0,0,0,1.9.914h25.64a6.093,6.093,0,0,1,6.094,6.095Z" transform="translate(-6.781 -217.001)" fill="#e8bdac"/>
        <path id="Path_1257228" data-name="Path 1257228" d="M386.969,321.75h-2.437a2.437,2.437,0,0,1-2.437-2.437v-4.265A3.047,3.047,0,0,0,379.047,312h0A3.047,3.047,0,0,0,376,315.047a7.745,7.745,0,0,0,.818,3.463l.4.8v5.946a6.242,6.242,0,0,0,1.828,4.413h0a6.241,6.241,0,0,0,4.413,1.828h2.29a7.312,7.312,0,0,0,7.312-7.312v-8.531A6.094,6.094,0,0,1,386.969,321.75Z" transform="translate(-305.159 -250.908)" fill="#f4c44d"/>
        <path id="Path_1257229" data-name="Path 1257229" d="M149.777,24a8.827,8.827,0,0,0-6.241,2.585l-3.865,3.865a1.219,1.219,0,0,0,0,1.723h0a1.219,1.219,0,0,0,.862.357H144.4a1.219,1.219,0,0,0,.862-.357l1.933-1.933A8.827,8.827,0,0,0,149.777,24Z" transform="translate(-104.528 -6.781)" fill="#bebebe"/>
        <path id="Path_1257230" data-name="Path 1257230" d="M111.312,20.875h-2.437a2.44,2.44,0,0,0-2.437-2.437H104V16h2.437A4.88,4.88,0,0,1,111.312,20.875Z" transform="translate(-74.594 0)" fill="#575757"/>
        <path id="Path_1257231" data-name="Path 1257231" d="M389.406,91.5h-2.437V78.094a3.66,3.66,0,0,0-3.656-3.656H376V72h7.312a6.1,6.1,0,0,1,6.094,6.094Z" transform="translate(-305.158 -47.469)" fill="#bebebe"/>
        <rect id="Rectangle_411626" data-name="Rectangle 411626" width="2" height="3" transform="translate(31 25.122)" fill="#575757"/>
        <path id="Path_1257232" data-name="Path 1257232" d="M247.843,72l-4.118,4.118a2.586,2.586,0,0,0-.757,1.828,2.586,2.586,0,0,1-2.585,2.585h-3.657a2.586,2.586,0,0,1-1.828-.757l-2.142-2.142A2.586,2.586,0,0,1,232,75.8V72Z" transform="translate(-183.095 -47.469)" fill="#575757"/>
        <path id="Path_1257233" data-name="Path 1257233" d="M376.531,79.312v3.656h-2.29a2.585,2.585,0,0,1-2.585-2.585,2.587,2.587,0,0,0-.757-1.828l-2.142-2.142A2.587,2.587,0,0,1,368,74.585V72h1.219a7.312,7.312,0,0,1,7.312,7.312Z" transform="translate(-298.377 -47.469)" fill="#575757"/>
        <path id="Path_1257234" data-name="Path 1257234" d="M76.773,116.913l-1.986,2.98H73.8a3.715,3.715,0,0,1-1.676-.4l2.623-3.935Z" transform="translate(-47.571 -84.393)" fill="#bebebe"/>
        <rect id="Rectangle_411627" data-name="Rectangle 411627" width="2" height="2" transform="translate(27 65.122)" fill="#575757"/>
        <path id="Path_1257235" data-name="Path 1257235" d="M293.506,324l-1.983,1.322a2.433,2.433,0,0,0-1.085,2.028v1.7H288v-1.7a4.866,4.866,0,0,1,2.171-4.055l1.866-1.245A6.071,6.071,0,0,1,293.506,324Z" transform="translate(-230.564 -259.427)" fill="#c49178"/>
        <path id="Path_1257236" data-name="Path 1257236" d="M249.437,390.625h-.04a1.2,1.2,0,0,1-1.2-1.2v-3.035a4.535,4.535,0,0,0-2.019-3.773l-2.722-1.815a5.761,5.761,0,0,1-2.369-3.288A1.2,1.2,0,0,1,242.245,376h.041a1.216,1.216,0,0,1,1.162.906,3.329,3.329,0,0,0,1.361,1.87l2.722,1.815a6.972,6.972,0,0,1,3.1,5.8v3.035A1.2,1.2,0,0,1,249.437,390.625Z" transform="translate(-190.762 -305.158)" fill="#c5a192"/>
        <rect id="Rectangle_411628" data-name="Rectangle 411628" width="3" height="11" rx="1.5" transform="translate(29 74.122)" fill="#c5a192"/>
        <path id="Path_1257237" data-name="Path 1257237" d="M152.5,382.022l-.014-.006a1.232,1.232,0,0,1-.7-1.286,2.961,2.961,0,0,0,.022-.359v-3.159A1.212,1.212,0,0,1,153.024,376h.014a1.212,1.212,0,0,1,1.212,1.212v3.159a5.413,5.413,0,0,1-.049.729,1.208,1.208,0,0,1-1.7.923Z" transform="translate(-115.094 -305.158)" fill="#c5a192"/>
        <path id="Path_1257238" data-name="Path 1257238" d="M344.531,169.062h0a1.219,1.219,0,0,1-1.219-1.219v-3.305a5.322,5.322,0,0,0-2.983-4.745A7.79,7.79,0,0,1,336,152.787h0a.787.787,0,0,1,.787-.787h.863a.787.787,0,0,1,.787.787v.081a5.322,5.322,0,0,0,2.983,4.745,7.79,7.79,0,0,1,4.329,7.005v3.225A1.219,1.219,0,0,1,344.531,169.062Z" transform="translate(-271.251 -115.282)" fill="#bebebe"/>
        <rect id="Rectangle_411629" data-name="Rectangle 411629" width="1" height="2" rx="0.5" transform="translate(68 43.122)" fill="#bebebe"/>
        <rect id="Rectangle_411630" data-name="Rectangle 411630" width="3" height="16" rx="1.5" transform="translate(41 37.122)" fill="#bebebe"/>
        <path id="Path_1257239" data-name="Path 1257239" d="M222.142,160.562h0a1.214,1.214,0,0,1-.724-1.7,8.473,8.473,0,0,1,.473-.809,6.118,6.118,0,0,0,1.031-3.374v-1.459A1.219,1.219,0,0,1,224.14,152h0a1.219,1.219,0,0,1,1.219,1.219v1.49a8.638,8.638,0,0,1-1.455,4.717,6.033,6.033,0,0,0-.313.539,1.215,1.215,0,0,1-1.449.6Z" transform="translate(-174.016 -115.282)" fill="#bebebe"/>
        <path id="Path_1257240" data-name="Path 1257240" d="M371.5,308.874a4.88,4.88,0,0,1-4.875,4.875h-2.437a1.22,1.22,0,0,1-1.219-1.219v-4.266a4.265,4.265,0,0,0-8.487-.609H352v2.437h2.631a8.982,8.982,0,0,0,.753,2.18l.273.545v5.658a7.47,7.47,0,0,0,4.875,7v7.772h2.437v-7.316c.049,0,.1,0,.148,0h2.29v7.312h2.437v-7.669a8.545,8.545,0,0,0,6.094-8.174v-8.531Zm0,8.531a6.1,6.1,0,0,1-6.094,6.094h-2.29a5.023,5.023,0,0,1-5.023-5.023v-6.233l-.53-1.06a6.556,6.556,0,0,1-.689-2.918,1.828,1.828,0,0,1,3.656,0v4.266a3.66,3.66,0,0,0,3.656,3.656h2.437a7.283,7.283,0,0,0,4.875-1.866Z" transform="translate(-284.814 -244.125)"/>
        <path id="Path_1257241" data-name="Path 1257241" d="M57.436,270.093H31.8a1.213,1.213,0,0,1-.952-.457l-1.859-2.324A8.783,8.783,0,0,0,22.094,264H20.875v1.724a8.76,8.76,0,0,0,2.232,5.867L21.425,275.8a1.222,1.222,0,0,1-.836.73l-1.819.455A3.651,3.651,0,0,0,16,280.527v.146a3.652,3.652,0,0,0,2.216,3.36l6.315,2.707v8.946a3.654,3.654,0,0,0,6.094,2.722,3.654,3.654,0,0,0,6.094-2.722v-4.37a2.927,2.927,0,0,1,.329-1.353,17.24,17.24,0,0,0,15.514.421v5.3a3.654,3.654,0,0,0,6.094,2.722,3.654,3.654,0,0,0,6.094-2.722V277.406A7.32,7.32,0,0,0,57.436,270.093Zm0,25.593a1.219,1.219,0,1,1-2.437,0V287.4l.952.635a3.328,3.328,0,0,1,1.485,2.775Zm4.875,0a1.219,1.219,0,1,1-2.437,0v-4.875a5.761,5.761,0,0,0-2.571-4.8l-3.256-2.171a3.329,3.329,0,0,1-1.485-2.775H50.124a5.759,5.759,0,0,0,2.437,4.708v1.87a14.805,14.805,0,0,1-14.045.341,5.352,5.352,0,0,0,.64-2.549v-4.37H36.718v4.37a2.923,2.923,0,0,1-.862,2.08,5.345,5.345,0,0,0-1.576,3.8v4.37a1.219,1.219,0,1,1-2.437,0V284.718H29.406v10.968a1.219,1.219,0,1,1-2.437,0V285.133l-7.792-3.34a1.217,1.217,0,0,1-.739-1.12v-.146a1.217,1.217,0,0,1,.923-1.182l1.819-.455a3.666,3.666,0,0,0,2.508-2.189l2.273-5.682-.777-.778a6.34,6.34,0,0,1-1.817-3.677,6.353,6.353,0,0,1,3.715,2.271l1.859,2.324a3.638,3.638,0,0,0,2.855,1.372h25.64a4.849,4.849,0,0,1,2.977,1.019l-.807.538a4.865,4.865,0,0,0-2.171,4.056v1.7h2.437v-1.7a2.433,2.433,0,0,1,1.085-2.028l.954-.636a4.847,4.847,0,0,1,.4,1.926Z" transform="translate(0 -210.22)"/>
        <rect id="Rectangle_411631" data-name="Rectangle 411631" width="2" height="2" transform="translate(27 65.122)"/>
        <rect id="Rectangle_411632" data-name="Rectangle 411632" width="2" height="3" transform="translate(31 25.122)"/>
        <path id="Path_1257242" data-name="Path 1257242" d="M107.509,24.531h-2.923a8.478,8.478,0,0,0-4.389-1.219H73.763a9.968,9.968,0,0,0,2.06-6.094V16H74.6a9.98,9.98,0,0,0-7.1,2.942l-.714.714h-.868A4.884,4.884,0,0,0,61.2,16H58.761v2.437H61.2a2.437,2.437,0,0,1,2.108,1.219h-.088a6.054,6.054,0,0,0-4.309,1.785l-6.828,6.828a4.949,4.949,0,0,0,3.5,8.449h6.56a3.938,3.938,0,0,1,3.933,3.933V53.78A3.654,3.654,0,0,0,72.167,56.5,3.654,3.654,0,0,0,78.26,53.78V47.446a6.056,6.056,0,0,1,.082-.978h1.346a1.211,1.211,0,0,1,.862.357l.8.8a8.573,8.573,0,0,0,1.785,1.368v2.35h2.437V49.93a8.6,8.6,0,0,0,1.81.194h.036a8.6,8.6,0,0,0,1.81-.194v1.412h2.437v-2.35a8.573,8.573,0,0,0,1.785-1.368l.8-.8a1.21,1.21,0,0,1,.862-.357h1.428V53.78a3.654,3.654,0,0,0,6.094,2.722,3.654,3.654,0,0,0,6.094-2.722V31.843a8.481,8.481,0,0,0-1.536-4.875h.317a3.66,3.66,0,0,1,3.656,3.656V44.03H113.6V30.624a6.1,6.1,0,0,0-6.094-6.094Zm-1.219,7.312V34.28H105.22a1.368,1.368,0,0,1-1.367-1.367,3.779,3.779,0,0,0-1.114-2.69L100.6,28.082a1.358,1.358,0,0,1-.4-.966V25.749a6.1,6.1,0,0,1,6.094,6.094ZM79.479,25.749H91.161l-2.037,2.037a3.779,3.779,0,0,0-1.114,2.69,1.368,1.368,0,0,1-1.367,1.367H82.987a1.376,1.376,0,0,1-.966-.4L79.879,29.3a1.358,1.358,0,0,1-.4-.966Zm21.937,28.03a1.219,1.219,0,0,1-2.437,0V44.827a5.359,5.359,0,0,1,2.437,4.51ZM105.072,55a1.22,1.22,0,0,1-1.219-1.219V48.9h-.013a7.785,7.785,0,0,0-4.317-6.574,5.366,5.366,0,0,1-2.982-4.826v-.787H94.1V37.5a7.783,7.783,0,0,0,2.437,5.68v.845H95.113A3.631,3.631,0,0,0,92.528,45.1l-.8.8a6.053,6.053,0,0,1-4.309,1.785h-.036A6.054,6.054,0,0,1,83.074,45.9l-.8-.8a3.632,3.632,0,0,0-2.585-1.071h-.371A8.447,8.447,0,0,0,80.7,39.4V36.718H78.26V39.4a6.019,6.019,0,0,1-1.014,3.349,8.448,8.448,0,0,0-1.423,4.7V53.78a1.219,1.219,0,1,1-2.437,0V36.718H70.948V53.78a1.219,1.219,0,1,1-2.437,0V40.651A6.378,6.378,0,0,0,62.14,34.28H57.382l1.174-1.761-2.028-1.352-1.939,2.909a2.511,2.511,0,0,1-.785-4.084l6.828-6.828a3.632,3.632,0,0,1,2.585-1.071H64.35l-1.576,1.576L64.5,25.393l4.727-4.727a7.552,7.552,0,0,1,4.045-2.112A7.553,7.553,0,0,1,71.157,22.6l-2.29,2.29,1.724,1.723.862-.862h5.589v2.585a3.779,3.779,0,0,0,1.114,2.69L80.3,33.166a3.779,3.779,0,0,0,2.69,1.114h3.656a3.808,3.808,0,0,0,3.8-3.8,1.358,1.358,0,0,1,.4-.966l3.761-3.761H97.76v1.367a3.779,3.779,0,0,0,1.114,2.69l2.142,2.142a1.358,1.358,0,0,1,.4.966,3.808,3.808,0,0,0,3.8,3.8h1.071V53.78A1.22,1.22,0,0,1,105.072,55Z" transform="translate(-29.355)"/>
      </g>
    </g>
    <rect id="Rectangle_411620" data-name="Rectangle 411620" width="104" height="104" transform="translate(788.051 2601.164)" fill="none"/>
  </g>
</svg>
