<svg xmlns="http://www.w3.org/2000/svg" width="103" height="103" viewBox="0 0 103 103">
  <g id="Group_1204086" data-name="Group 1204086" transform="translate(-253.972 -11116.922)">
    <g id="Group_1203593" data-name="Group 1203593" transform="translate(255.972 11138.794)">
      <rect id="Rectangle_410589" data-name="Rectangle 410589" width="99.185" height="33.062" rx="8" transform="translate(0 12.94)" fill="#3e5b2c"/>
      <g id="Group_1204182" data-name="Group 1204182" transform="translate(13.878 31.159)">
        <g id="Group_1204185" data-name="Group 1204185" transform="translate(1.406 -1.229)">
          <g id="Group_1204182-2" data-name="Group 1204182" transform="translate(11.531 0)">
            <ellipse id="Ellipse_12775" data-name="Ellipse 12775" cx="5.478" cy="5.87" rx="5.478" ry="5.87" transform="translate(5.845)" fill="#ffd1c8"/>
            <path id="Path_1258157" data-name="Path 1258157" d="M115.063,337.5H92v-7.874a11.531,11.531,0,0,1,23.063,0Z" transform="translate(-92 -306.537)" fill="#fff"/>
          </g>
          <g id="Group_1204183" data-name="Group 1204183" transform="translate(34.594 0)">
            <ellipse id="Ellipse_12776" data-name="Ellipse 12776" cx="5.478" cy="5.87" rx="5.478" ry="5.87" transform="translate(6.261)" fill="#ffd1c8"/>
            <path id="Path_1258158" data-name="Path 1258158" d="M256,337.5h23.063v-7.874a11.531,11.531,0,0,0-23.062,0Z" transform="translate(-256 -306.537)" fill="#99ebfb"/>
          </g>
          <circle id="Ellipse_12777" data-name="Ellipse 12777" cx="5.625" cy="5.625" r="5.625" transform="translate(28.969 13.635)" fill="#ffd1c8"/>
          <circle id="Ellipse_12778" data-name="Ellipse 12778" cx="5.625" cy="5.625" r="5.625" transform="translate(52.031 13.635)" fill="#ffddd6"/>
          <path id="Path_1258159" data-name="Path 1258159" d="M197.063,425.514H174v-.984a11.531,11.531,0,0,1,23.063,0Z" transform="translate(-150.938 -388.094)" fill="#ffcf5c"/>
          <path id="Path_1258160" data-name="Path 1258160" d="M361.063,425.514H338v-.984a11.531,11.531,0,1,1,23.063,0Z" transform="translate(-291.875 -388.094)" fill="#ff9eb2"/>
          <g id="Group_1204184" data-name="Group 1204184" transform="translate(0 13.635)">
            <circle id="Ellipse_12779" data-name="Ellipse 12779" cx="5.625" cy="5.625" r="5.625" transform="translate(5.906)" fill="#ffddd6"/>
            <path id="Path_1258161" data-name="Path 1258161" d="M33.063,425.514H10v-.984a11.531,11.531,0,0,1,23.063,0Z" transform="translate(-10 -401.729)" fill="#6ae6a3"/>
          </g>
        </g>
        <g id="Group_1204188" data-name="Group 1204188" transform="translate(6.826 -40.032)">
          <g id="Group_1204186" data-name="Group 1204186" transform="translate(22.826 7.035)">
            <path id="Path_1258162" data-name="Path 1258162" d="M238.585,10.745a22.017,22.017,0,0,1-5.7,21.279,22.369,22.369,0,0,1-21.279,5.7,22.033,22.033,0,0,1,26.982-26.982Z" transform="translate(-210.855 -9.998)" fill="#6ae6a3"/>
          </g>
          <g id="Group_1204187" data-name="Group 1204187" transform="translate(0 0)">
            <ellipse id="Ellipse_12780" data-name="Ellipse 12780" cx="11.013" cy="19.079" rx="11.013" ry="19.079" transform="translate(0 15.573) rotate(-45)" fill="#daf092"/>
          </g>
        </g>
        <g id="Group_1204189" data-name="Group 1204189" transform="translate(0 -34.402)">
          <path id="Path_1258163" data-name="Path 1258163" d="M63.84,253.49a7.028,7.028,0,0,0-8.122-11.336,12.888,12.888,0,0,0-3.406-2.012,7.031,7.031,0,1,0-9.562,0,12.867,12.867,0,0,0-3.407,2.012,7.022,7.022,0,0,0-6.686,0,12.871,12.871,0,0,0-3.407-2.012,7.031,7.031,0,1,0-9.562,0,12.868,12.868,0,0,0-3.407,2.012A7.028,7.028,0,0,0,8.16,253.49,12.958,12.958,0,0,0,0,265.513v.984A1.406,1.406,0,0,0,1.406,267.9H70.594A1.406,1.406,0,0,0,72,266.5v-.984a12.958,12.958,0,0,0-8.16-12.023Zm-23.062,0a7.013,7.013,0,0,0,.757-9.481,10.12,10.12,0,0,1,11.992,0,7.013,7.013,0,0,0,.758,9.48,13.016,13.016,0,0,0-6.753,6.161A13.016,13.016,0,0,0,40.778,253.49Zm-23.062,0a7.013,7.013,0,0,0,.757-9.481,10.122,10.122,0,0,1,11.993,0,7.013,7.013,0,0,0,.757,9.48,13.015,13.015,0,0,0-6.753,6.161,13.015,13.015,0,0,0-6.753-6.161Zm45.566-5.152a4.219,4.219,0,1,1-4.219-4.219A4.224,4.224,0,0,1,63.281,248.338Zm-15.75-17.564a4.219,4.219,0,1,1-4.219,4.219A4.224,4.224,0,0,1,47.531,230.773Zm-7.312,17.564A4.219,4.219,0,1,1,36,244.119,4.224,4.224,0,0,1,40.219,248.338Zm-15.75-17.564a4.219,4.219,0,1,1-4.219,4.219A4.224,4.224,0,0,1,24.469,230.773ZM12.938,244.119a4.219,4.219,0,1,1-4.219,4.219A4.224,4.224,0,0,1,12.938,244.119ZM2.821,265.091a10.125,10.125,0,0,1,20.233,0Zm23.062,0a10.125,10.125,0,0,1,20.233,0Zm23.062,0a10.125,10.125,0,0,1,20.233,0Z" transform="translate(0 -195.904)"/>
          <path id="Path_1258164" data-name="Path 1258164" d="M91.184,15.09a1.406,1.406,0,0,0,.982-1.729,20.724,20.724,0,0,1-.24-10.042,20.62,20.62,0,0,1,24.96,22.971l-5.039-5.039V14.337a1.406,1.406,0,0,0-2.812,0v4.1l-3.912-3.912V9.417a1.406,1.406,0,1,0-2.812,0v2.3L99.521,8.924a1.406,1.406,0,1,0-1.989,1.989l2.789,2.789h-2.3a1.406,1.406,0,0,0,0,2.813h5.109l3.912,3.912h-4.1a1.406,1.406,0,1,0,0,2.812h6.913l5.042,5.042A20.551,20.551,0,0,1,98.379,23.3a1.406,1.406,0,0,0-1.866,2.1A23.345,23.345,0,0,0,112.02,31.3a23.659,23.659,0,0,0,6.083-.8A23.364,23.364,0,0,0,134.889,1.793a1.406,1.406,0,0,0-1-1,23.408,23.408,0,0,0-21.746,5.227A23.408,23.408,0,0,0,90.4.8a1.406,1.406,0,0,0-1,1,23.535,23.535,0,0,0,.049,12.315,1.406,1.406,0,0,0,1.729.982ZM132.368,3.318a20.7,20.7,0,0,1-5.536,19.122,20.382,20.382,0,0,1-7.218,4.631,23.639,23.639,0,0,0,.28-3.832h1.663a1.406,1.406,0,1,0,0-2.812h-1.852q-.124-.965-.329-1.92l1.993-1.993h5.109a1.406,1.406,0,1,0,0-2.812h-2.3l2.789-2.789a1.406,1.406,0,1,0-1.989-1.989l-2.789,2.789v-2.3a1.406,1.406,0,0,0-2.812,0v5.109l-.892.892a23.43,23.43,0,0,0-4.365-7.389,20.712,20.712,0,0,1,18.244-4.71Z" transform="translate(-76.149 -0.003)"/>
          <circle id="Ellipse_12781" data-name="Ellipse 12781" cx="1.406" cy="1.406" r="1.406" transform="translate(15.801 18.119)"/>
        </g>
      </g>
    </g>
    <rect id="Rectangle_411643" data-name="Rectangle 411643" width="103" height="103" transform="translate(253.972 11116.922)" fill="none"/>
  </g>
</svg>
