<svg xmlns="http://www.w3.org/2000/svg" width="104" height="104" viewBox="0 0 104 104">
  <g id="Group_1204264" data-name="Group 1204264" transform="translate(-788.051 -2601.164)">
    <g id="Group_1201005" data-name="Group 1201005" transform="translate(788.051 2610.842)">
      <rect id="Rectangle_410589" data-name="Rectangle 410589" width="103.576" height="34.525" rx="8" transform="translate(0 25.322)" fill="#ffc94a"/>
      <g id="Group_1204270" data-name="Group 1204270" transform="translate(11 1.322)">
        <path id="Path_1258327" data-name="Path 1258327" d="M48.393,79.571A14.487,14.487,0,0,1,39.219,76.3,27.861,27.861,0,0,1,29,54.731,75.983,75.983,0,0,1,39.226,16.657l1.193-2.062A54.845,54.845,0,0,0,44.989,4.453a3.588,3.588,0,0,1,6.807,0,54.893,54.893,0,0,0,4.569,10.142l1.193,2.062A75.983,75.983,0,0,1,67.784,54.731,27.861,27.861,0,0,1,57.565,76.3,14.481,14.481,0,0,1,48.393,79.571Z" transform="translate(8.2 0.293)" fill="#893b1b"/>
        <path id="Path_1258328" data-name="Path 1258328" d="M15.93,75.471A13.423,13.423,0,0,1,5.739,70.783,15.536,15.536,0,0,1,2,60.675a35.563,35.563,0,0,1,2.787-13.8A47.254,47.254,0,0,1,30.346,21.515,33.859,33.859,0,0,0,37.76,17.3l.957-.718a2.909,2.909,0,0,1,4.654,2.327,7.876,7.876,0,0,1-.235,1.911,35.44,35.44,0,0,0-1.058,8.591V46.278A30.8,30.8,0,0,1,30.307,70.5,23.266,23.266,0,0,1,15.93,75.471Z" transform="translate(0.293 4.393)" fill="#a44b2f"/>
        <path id="Path_1258329" data-name="Path 1258329" d="M21.806,59.012A15.1,15.1,0,0,1,29.3,45.968a39.655,39.655,0,0,1,10.194-4.16V26.825a35.458,35.458,0,0,1,1.058-8.592,7.857,7.857,0,0,0,.235-1.91,2.75,2.75,0,0,0-.03-.293,2.751,2.751,0,0,0-.293-.03,2.908,2.908,0,0,0-1.745.582l-.957.718a33.821,33.821,0,0,1-7.413,4.216A47.252,47.252,0,0,0,4.787,46.873,35.563,35.563,0,0,0,2,60.675a15.516,15.516,0,0,0,3.272,9.51,13.421,13.421,0,0,0,8.073,2.7,23.252,23.252,0,0,0,12.471-3.639,15.094,15.094,0,0,1-4.009-10.234Z" transform="translate(0.293 4.393)" fill="#c7644a"/>
        <path id="Path_1258330" data-name="Path 1258330" d="M8.437,53.247,6.094,52.154l.977-2.094a59.255,59.255,0,0,1,25.439-26.94L33.735,25.4A56.659,56.659,0,0,0,9.414,51.153Z" transform="translate(1.492 6.477)" fill="#dc7662"/>
        <path id="Path_1258331" data-name="Path 1258331" d="M20,54.081a13.983,13.983,0,0,0,6.226,11.634,21.48,21.48,0,0,0,11.911,3.606A49.142,49.142,0,0,0,60.11,64.134a22,22,0,0,0,10.759-11.95l.473-1.261a2.7,2.7,0,0,1,1.324-1.47,2.96,2.96,0,0,0-.287-5.417L61.264,39.869A45.066,45.066,0,0,0,45.444,37a36.724,36.724,0,0,0-18.507,5A13.981,13.981,0,0,0,20,54.081Z" transform="translate(5.564 10.542)" fill="#c7644a"/>
        <path id="Path_1258332" data-name="Path 1258332" d="M72.087,44.037,60.971,39.869A45.066,45.066,0,0,0,45.152,37a36.724,36.724,0,0,0-18.507,5,13.94,13.94,0,0,0-5.407,5.78A13.807,13.807,0,0,0,21,50.2a13.983,13.983,0,0,0,6.226,11.634,21.48,21.48,0,0,0,11.911,3.606A49.142,49.142,0,0,0,61.11,60.256,22,22,0,0,0,71.869,48.3l.473-1.261a2.7,2.7,0,0,1,1.324-1.47c.01-.005.018-.014.028-.019A2.94,2.94,0,0,0,72.087,44.037Z" transform="translate(5.857 10.542)" fill="#dc7662"/>
        <path id="Path_1258333" data-name="Path 1258333" d="M36.333,62.087,35.79,59.56,44.016,57.8a28.077,28.077,0,0,0,15.615-9.436l1.987,1.654a30.664,30.664,0,0,1-17.059,10.31Z" transform="translate(10.188 13.869)" fill="#f59789"/>
        <path id="Path_1258334" data-name="Path 1258334" d="M35.058,24.92A35.44,35.44,0,0,0,34,33.51V46.7a36.722,36.722,0,0,1,7.345-.745,45.068,45.068,0,0,1,15.821,2.869l9.116,3.418A76.006,76.006,0,0,0,56.1,16.657L54.9,14.595A54.845,54.845,0,0,1,50.334,4.453a3.589,3.589,0,0,0-6.808,0,54.892,54.892,0,0,1-4.569,10.142l-1.193,2.062c-.979,1.691-1.881,3.418-2.724,5.171a2.9,2.9,0,0,1,.253,1.18,7.876,7.876,0,0,1-.235,1.911Z" transform="translate(9.664 0.293)" fill="#a44b2f"/>
        <path id="Path_1258335" data-name="Path 1258335" d="M78.4,53.369l-1.158-.434A77.483,77.483,0,0,0,66.877,16.3L65.683,14.24a53.8,53.8,0,0,1-4.462-9.9,4.88,4.88,0,0,0-9.259,0,53.8,53.8,0,0,1-4.462,9.9L46.308,16.3c-.821,1.42-1.588,2.877-2.319,4.349a4.167,4.167,0,0,0-5.753-.711l-.957.718a32.525,32.525,0,0,1-7.131,4.054A48.247,48.247,0,0,0,3.888,50.764,36.677,36.677,0,0,0,1,65.068,16.837,16.837,0,0,0,5.049,76.017a14.7,14.7,0,0,0,11.174,5.139,24.69,24.69,0,0,0,14.043-4.437c.268.206.524.424.808.614A22.683,22.683,0,0,0,43.7,81.156a50.708,50.708,0,0,0,22.551-5.323A23.231,23.231,0,0,0,77.642,63.181l.474-1.263a1.4,1.4,0,0,1,.689-.765,4.225,4.225,0,0,0,2.35-3.8A4.273,4.273,0,0,0,78.4,53.369ZM48.544,17.6l1.193-2.062a56.1,56.1,0,0,0,4.676-10.38,2.3,2.3,0,0,1,4.357,0,56.183,56.183,0,0,0,4.676,10.38L64.64,17.6a74.894,74.894,0,0,1,9.983,34.356L67.281,49.2a46.19,46.19,0,0,0-16.273-2.952,37.959,37.959,0,0,0-7.345.723V33.8a34.164,34.164,0,0,1,1.02-8.279c.039-.155.057-.313.087-.469A75.2,75.2,0,0,1,48.544,17.6ZM16.223,78.571a12.115,12.115,0,0,1-9.21-4.235,14.249,14.249,0,0,1-3.427-9.267,34.088,34.088,0,0,1,2.687-13.3A45.673,45.673,0,0,1,31.132,27.1a35.08,35.08,0,0,0,7.7-4.378l.958-.718A1.615,1.615,0,0,1,42.371,23.3a6.653,6.653,0,0,1-.2,1.6,36.663,36.663,0,0,0-1.1,8.906V47.571a38.087,38.087,0,0,0-9.23,3.858,15.27,15.27,0,0,0-3.555,23.518,22.117,22.117,0,0,1-12.07,3.624ZM77.65,58.839a3.983,3.983,0,0,0-1.956,2.172l-.473,1.262A20.642,20.642,0,0,1,65.1,73.521a48.1,48.1,0,0,1-21.4,5.05,20.108,20.108,0,0,1-11.192-3.389,12.69,12.69,0,0,1,.644-21.519,35.482,35.482,0,0,1,17.857-4.827,43.632,43.632,0,0,1,15.365,2.786l11.117,4.169a1.674,1.674,0,0,1,1.081,1.559,1.657,1.657,0,0,1-.922,1.489Z" transform="translate(0 0)"/>
        <path id="Path_1258336" data-name="Path 1258336" d="M32.51,23.119A59.262,59.262,0,0,0,7.07,50.059l-.977,2.094,2.343,1.094.977-2.094A56.652,56.652,0,0,1,33.734,25.4Z" transform="translate(1.491 6.477)"/>
        <path id="Path_1258337" data-name="Path 1258337" d="M44.016,57.8,35.79,59.559l.543,2.528,8.226-1.762a30.66,30.66,0,0,0,17.059-10.31L59.631,48.36A28.069,28.069,0,0,1,44.016,57.8Z" transform="translate(10.188 13.869)"/>
      </g>
    </g>
    <rect id="Rectangle_411620" data-name="Rectangle 411620" width="104" height="104" transform="translate(788.051 2601.164)" fill="none"/>
  </g>
</svg>
