<svg xmlns="http://www.w3.org/2000/svg" xmlns:xlink="http://www.w3.org/1999/xlink" width="295" height="157" viewBox="0 0 295 157">
  <defs>
    <clipPath id="clip-path">
      <rect id="Rectangle_411636" data-name="Rectangle 411636" width="295" height="157" rx="10" transform="translate(180.051 5310)" fill="#5a8441"/>
    </clipPath>
  </defs>
  <g id="Group_1204325" data-name="Group 1204325" transform="translate(-180.051 -5310)">
    <rect id="Rectangle_411409" data-name="Rectangle 411409" width="295" height="157" rx="10" transform="translate(180.051 5310)" fill="#5a8441"/>
    <g id="Mask_Group_1099554" data-name="Mask Group 1099554" clip-path="url(#clip-path)">
      <g id="Group_1203927" data-name="Group 1203927" transform="translate(237.643 5316.084)">
        <path id="Path_1257407" data-name="Path 1257407" d="M4.222,103.4H-61.127v55.247H241.742V103.4" fill="#89a25b"/>
        <path id="Path_1257406" data-name="Path 1257406" d="M1.5,103.4H-57.767l4.179-5.548h9.4l7.249-5.406,4.329-4.288h14.6l2.4-10.347H-5.295l6.794-22s5.751,8.12,4.7,11.434,4.336,30.606,4.336,30.606Z" fill="#fec05a" stroke="#000" stroke-linecap="round" stroke-linejoin="round" stroke-width="3"/>
        <path id="Path_1257408" data-name="Path 1257408" d="M-48.729,103.4H10.536L6.357,97.852h-9.4l-7.249-5.406-4.329-4.288h-14.6l-2.4-10.347H-41.936l-6.794-22s-5.751,8.12-4.7,11.434-4.336,30.606-4.336,30.606Z" transform="translate(236.531 0)" fill="#fec05a" stroke="#000" stroke-linecap="round" stroke-linejoin="round" stroke-width="3"/>
        <g id="Group_1203872" data-name="Group 1203872" transform="translate(52.645 12.048)">
          <path id="Path_1257350" data-name="Path 1257350" d="M37.423,24.629h4.361a2.309,2.309,0,0,0,2.308-2.308v-9.98a4.311,4.311,0,0,0-4.3-4.3h-.375a4.3,4.3,0,0,0-4.286,4.3v9.98A2.3,2.3,0,0,0,37.423,24.629Z" transform="translate(-35.13 -8.04)" fill="#89a25b"/>
        </g>
        <g id="Group_1203873" data-name="Group 1203873" transform="translate(127.212 12.048)">
          <path id="Path_1257351" data-name="Path 1257351" d="M87.2,24.629h4.361a2.3,2.3,0,0,0,2.293-2.308v-9.98a4.3,4.3,0,0,0-4.286-4.3h-.375a4.311,4.311,0,0,0-4.3,4.3v9.98A2.309,2.309,0,0,0,87.2,24.629Z" transform="translate(-84.89 -8.04)" fill="#89a25b"/>
        </g>
        <g id="Group_1203874" data-name="Group 1203874" transform="translate(1.499 1.499)">
          <path id="Path_1257352" data-name="Path 1257352" d="M183.823,59.443a16.916,16.916,0,0,0-1.5,7.493,16.966,16.966,0,0,0-10.49-4.5,39.515,39.515,0,0,1,7.493,11.988,15.447,15.447,0,0,0-13.487-3,40.451,40.451,0,0,1,7.493,7.493,38.988,38.988,0,0,1,3,4.5,40.349,40.349,0,0,0-10.49-4.5,29.942,29.942,0,0,1,4.5,5.994,27.907,27.907,0,0,1,1.5,3,12.2,12.2,0,0,0-10.49-3c1.484,1.843,3,3.851,4.5,5.994,1.064,1.529,2.068,3.027,3,4.5a22.309,22.309,0,0,0-3-1.5,21.648,21.648,0,0,0-5.994-1.5,44.975,44.975,0,0,1,3,4.5,49.544,49.544,0,0,1,3,5.994H150.855V62.44h-3.686a9.552,9.552,0,0,0,.674-4.151h-6.878a2.16,2.16,0,0,0,1.693-.929,3.753,3.753,0,0,0,.7-2.248c0-1.738-1.064-3.162-2.4-3.162h-2.1V36.62a2.632,2.632,0,0,0-2.622-2.652H114.68V7.024a3.261,3.261,0,0,0,2.263-.884,2.827,2.827,0,0,0,.929-1.918.922.922,0,0,0,.015-.21A3.116,3.116,0,0,0,114.68,1H73.14a3.261,3.261,0,0,0-2.263.884,2.9,2.9,0,0,0-.944,2.128.922.922,0,0,0,.015.21,3.113,3.113,0,0,0,3.192,2.8V33.968H51.576a2.632,2.632,0,0,0-2.622,2.652v15.33h-2.1c-1.334,0-2.4,1.424-2.4,3.162a3.753,3.753,0,0,0,.7,2.248,2.16,2.16,0,0,0,1.693.929H39.977a9.552,9.552,0,0,0,.674,4.151H36.965V102.9H21.98a49.542,49.542,0,0,1,3-5.994,44.975,44.975,0,0,1,3-4.5,21.648,21.648,0,0,0-5.994,1.5,22.309,22.309,0,0,0-3,1.5c.929-1.469,1.933-2.967,3-4.5,1.5-2.143,3.012-4.151,4.5-5.994a12.2,12.2,0,0,0-10.49,3,27.91,27.91,0,0,1,1.5-3,29.942,29.942,0,0,1,4.5-5.994,40.349,40.349,0,0,0-10.49,4.5,38.988,38.988,0,0,1,3-4.5,40.451,40.451,0,0,1,7.493-7.493,15.447,15.447,0,0,0-13.487,3A39.515,39.515,0,0,1,15.985,62.44a16.966,16.966,0,0,0-10.49,4.5A16.916,16.916,0,0,0,4,59.443a16.944,16.944,0,0,0-3-4.5V174.831H186.82V54.948A16.944,16.944,0,0,0,183.823,59.443ZM59.443,51.951H53.449V41.416A2.948,2.948,0,0,1,56.4,38.464h3.042Zm13.7-4.211-3.207,1.5v2.712H63.939V38.688h9.2Zm50.741,4.211h-5.994V49.238l-3.207-1.5V38.688h9.2Zm10.49,0h-5.994V38.464h3.042a2.948,2.948,0,0,1,2.952,2.952Z" transform="translate(-1 -1)" fill="#89a25b"/>
        </g>
        <g id="Group_1203876" data-name="Group 1203876" transform="translate(52.645 12.048)">
          <path id="Path_1257353" data-name="Path 1257353" d="M39.746,8.04h.045a4.311,4.311,0,0,1,4.3,4.3v9.98a2.309,2.309,0,0,1-2.308,2.308H37.423a2.3,2.3,0,0,1-2.293-2.308v-9.98a4.3,4.3,0,0,1,4.286-4.3Z" transform="translate(-35.13 -8.04)" fill="#f69552"/>
        </g>
        <g id="Group_1203877" data-name="Group 1203877" transform="translate(127.212 12.048)">
          <path id="Path_1257354" data-name="Path 1257354" d="M89.236,8.04h.33a4.3,4.3,0,0,1,4.286,4.3v9.98a2.3,2.3,0,0,1-2.293,2.308H87.2a2.309,2.309,0,0,1-2.308-2.308v-9.98a4.311,4.311,0,0,1,4.3-4.3Z" transform="translate(-84.89 -8.04)" fill="#f69552"/>
        </g>
        <g id="Group_1203878" data-name="Group 1203878" transform="translate(118.386 52.449)">
          <path id="Path_1257355" data-name="Path 1257355" d="M102.078,35c1.334,0,2.4,1.424,2.4,3.162a3.754,3.754,0,0,1-.7,2.248,2.16,2.16,0,0,1-1.693.929H79V35h23.078Z" transform="translate(-79 -35)" fill="#ad6a6a"/>
        </g>
        <g id="Group_1203879" data-name="Group 1203879" transform="translate(44.957 52.449)">
          <path id="Path_1257356" data-name="Path 1257356" d="M55.475,35v6.339H32.4A2.16,2.16,0,0,1,30.7,40.41a3.753,3.753,0,0,1-.7-2.248C30,36.424,31.064,35,32.4,35H55.475Z" transform="translate(-30 -35)" fill="#ad6a6a"/>
        </g>
        <g id="Group_1203880" data-name="Group 1203880" transform="translate(115.179 34.467)">
          <path id="Path_1257357" data-name="Path 1257357" d="M101.047,25.652v15.33h-4.5V30.448A2.948,2.948,0,0,0,93.6,27.5H90.557V40.983h-4.5V27.72h-9.2V23H98.424A2.632,2.632,0,0,1,101.047,25.652Z" transform="translate(-76.86 -23)" fill="#945931"/>
        </g>
        <g id="Group_1203881" data-name="Group 1203881" transform="translate(49.452 34.467)">
          <path id="Path_1257358" data-name="Path 1257358" d="M57.187,23v4.72h-9.2V40.983h-4.5V27.5H40.448A2.948,2.948,0,0,0,37.5,30.448V40.983H33V25.652A2.632,2.632,0,0,1,35.622,23Z" transform="translate(-33 -23)" fill="#945931"/>
        </g>
        <g id="Group_1203882" data-name="Group 1203882" transform="translate(40.46 58.788)">
          <path id="Path_1257359" data-name="Path 1257359" d="M134.881,39.23a9.552,9.552,0,0,1-.674,4.151,9.179,9.179,0,0,1-.809,1.5,9,9,0,0,1-1.723,1.888H30.222A9,9,0,0,1,28.5,44.88a9.18,9.18,0,0,1-.809-1.5,9.552,9.552,0,0,1-.674-4.151H56.971a109.627,109.627,0,0,0,23.977,2.652,109.909,109.909,0,0,0,23.977-2.652h29.956Z" transform="translate(-26.999 -39.23)" fill="#945931"/>
        </g>
        <g id="Group_1203883" data-name="Group 1203883" transform="translate(133.431 94.558)">
          <path id="Path_1257360" data-name="Path 1257360" d="M100.744,63.1v.015c-2.428.779-4.271,4.436-4.271,8.826H89.04V63.1Z" transform="translate(-89.04 -63.1)" fill="#945931"/>
        </g>
        <g id="Group_1203884" data-name="Group 1203884" transform="translate(117.801 94.558)">
          <path id="Path_1257361" data-name="Path 1257361" d="M78.61,63.1h7.807v8.841H78.61Z" transform="translate(-78.61 -63.1)" fill="#945931"/>
        </g>
        <g id="Group_1203885" data-name="Group 1203885" transform="translate(102.187 94.558)">
          <path id="Path_1257362" data-name="Path 1257362" d="M76,63.1v8.841H68.19V63.1H76Z" transform="translate(-68.19 -63.1)" fill="#945931"/>
        </g>
        <g id="Group_1203886" data-name="Group 1203886" transform="translate(86.632 94.558)">
          <path id="Path_1257363" data-name="Path 1257363" d="M57.81,63.1h7.777v8.841H57.81Z" transform="translate(-57.81 -63.1)" fill="#945931"/>
        </g>
        <g id="Group_1203887" data-name="Group 1203887" transform="translate(71.017 94.558)">
          <path id="Path_1257364" data-name="Path 1257364" d="M55.2,63.1v8.841H47.39V63.1H55.2Z" transform="translate(-47.39 -63.1)" fill="#945931"/>
        </g>
        <g id="Group_1203888" data-name="Group 1203888" transform="translate(55.387 94.558)">
          <path id="Path_1257365" data-name="Path 1257365" d="M36.96,63.1h7.822v8.841H36.96Z" transform="translate(-36.96 -63.1)" fill="#945931"/>
        </g>
        <g id="Group_1203889" data-name="Group 1203889" transform="translate(125.609 94.558)">
          <path id="Path_1257366" data-name="Path 1257366" d="M83.82,63.1h7.822v8.841H83.82Z" transform="translate(-83.82 -63.1)" fill="#c57742"/>
        </g>
        <g id="Group_1203890" data-name="Group 1203890" transform="translate(109.994 94.558)">
          <path id="Path_1257367" data-name="Path 1257367" d="M81.207,63.1v8.841H73.4V63.1h7.807Z" transform="translate(-73.4 -63.1)" fill="#c57742"/>
        </g>
        <g id="Group_1203891" data-name="Group 1203891" transform="translate(94.409 94.558)">
          <path id="Path_1257368" data-name="Path 1257368" d="M63,63.1h7.777v8.841H63Z" transform="translate(-63 -63.1)" fill="#c57742"/>
        </g>
        <g id="Group_1203892" data-name="Group 1203892" transform="translate(78.824 94.558)">
          <path id="Path_1257369" data-name="Path 1257369" d="M60.407,63.1v8.841H52.6V63.1h7.807Z" transform="translate(-52.6 -63.1)" fill="#c57742"/>
        </g>
        <g id="Group_1203893" data-name="Group 1203893" transform="translate(63.209 94.558)">
          <path id="Path_1257370" data-name="Path 1257370" d="M42.18,63.1h7.807v8.841H42.18Z" transform="translate(-42.18 -63.1)" fill="#c57742"/>
        </g>
        <g id="Group_1203894" data-name="Group 1203894" transform="translate(43.684 94.558)">
          <path id="Path_1257371" data-name="Path 1257371" d="M40.854,63.1v8.841H33.421c0-4.391-1.843-8.047-4.271-8.826V63.1Z" transform="translate(-29.15 -63.1)" fill="#c57742"/>
        </g>
        <g id="Group_1203895" data-name="Group 1203895" transform="translate(108.21 117.486)">
          <path id="Path_1257372" data-name="Path 1257372" d="M151.318,130.025v6.219H91.751a12.378,12.378,0,0,1,1.424-4.331,12.156,12.156,0,0,1,1.948-2.652,9.739,9.739,0,0,0-3.372-.24,10.142,10.142,0,0,0-4.3,1.439,9.839,9.839,0,0,1,1.424-5.784,9.42,9.42,0,0,1,2.877-2.892,13.823,13.823,0,0,0-12-1.094c-.12-.12-.255-.225-.375-.345a75.437,75.437,0,0,0-7.163-5.784,10.681,10.681,0,0,1,2.862,0,11.527,11.527,0,0,1,4.3,1.439,28.914,28.914,0,0,0-2.862-4.331,28.1,28.1,0,0,0-4.3-4.346c2.862.48,5.724.974,8.6,1.454-.4-.495-.854-1.034-1.364-1.588A27.216,27.216,0,0,0,84,104.744a28.185,28.185,0,0,0,3.956-3.207,46.724,46.724,0,0,1-5.724-2.892,47.507,47.507,0,0,1-4.3-2.892c1.8-.36,3.716-.839,5.739-1.439,1.514-.465,2.952-.944,4.286-1.454-.495-1.319-.989-2.757-1.424-4.331A50.03,50.03,0,0,1,85.1,81.292a37.992,37.992,0,0,0,5.739,4.346,38.752,38.752,0,0,0,5.724,2.892,14.179,14.179,0,0,1-1.439-4.346,14.73,14.73,0,0,1,0-4.331,17.146,17.146,0,0,0,2.862,2.892,16.468,16.468,0,0,0,5.739,2.892,15.035,15.035,0,0,1,1.424-2.892,14.665,14.665,0,0,1,4.3-4.346v7.238a13.233,13.233,0,0,1,5.724-2.892,13.073,13.073,0,0,1,5.739,0,22.792,22.792,0,0,0-2.877,2.892,24.011,24.011,0,0,0-2.862,4.331A29.61,29.61,0,0,1,129.5,88.53a29.318,29.318,0,0,0-4.3,4.331,30.2,30.2,0,0,0-2.862,4.346,26.382,26.382,0,0,1,5.724-1.454,26.966,26.966,0,0,1,7.163,0,11.781,11.781,0,0,0-2.862,2.892,11.54,11.54,0,0,0-1.424,2.892,13.6,13.6,0,0,1,8.587,1.454,18.189,18.189,0,0,0-5.724,4.331,18.194,18.194,0,0,1,2.862,0,17.8,17.8,0,0,1,5.724,1.454A13.224,13.224,0,0,0,135.224,116a20.821,20.821,0,0,1,5.739-1.439,19.388,19.388,0,0,1,4.286,0c-.48.48-.944.959-1.424,1.439l-4.3,4.346h7.163a8.1,8.1,0,0,0-1.439,1.439,8.3,8.3,0,0,0-1.424,2.892C145.249,125.634,149.88,129.066,151.318,130.025Z" transform="translate(-72.21 -78.4)" fill="#53b79a"/>
        </g>
        <g id="Group_1203928" data-name="Group 1203928" transform="translate(173.362 114.486)">
          <path id="Path_1257372-2" data-name="Path 1257372" d="M151.318,130.025v6.219H91.751a12.378,12.378,0,0,1,1.424-4.331,12.156,12.156,0,0,1,1.948-2.652,9.739,9.739,0,0,0-3.372-.24,10.142,10.142,0,0,0-4.3,1.439,9.839,9.839,0,0,1,1.424-5.784,9.42,9.42,0,0,1,2.877-2.892,13.823,13.823,0,0,0-12-1.094c-.12-.12-.255-.225-.375-.345a75.437,75.437,0,0,0-7.163-5.784,10.681,10.681,0,0,1,2.862,0,11.527,11.527,0,0,1,4.3,1.439,28.914,28.914,0,0,0-2.862-4.331,28.1,28.1,0,0,0-4.3-4.346c2.862.48,5.724.974,8.6,1.454-.4-.495-.854-1.034-1.364-1.588A27.216,27.216,0,0,0,84,104.744a28.185,28.185,0,0,0,3.956-3.207,46.724,46.724,0,0,1-5.724-2.892,47.507,47.507,0,0,1-4.3-2.892c1.8-.36,3.716-.839,5.739-1.439,1.514-.465,2.952-.944,4.286-1.454-.495-1.319-.989-2.757-1.424-4.331A50.03,50.03,0,0,1,85.1,81.292a37.992,37.992,0,0,0,5.739,4.346,38.752,38.752,0,0,0,5.724,2.892,14.179,14.179,0,0,1-1.439-4.346,14.73,14.73,0,0,1,0-4.331,17.146,17.146,0,0,0,2.862,2.892,16.468,16.468,0,0,0,5.739,2.892,15.035,15.035,0,0,1,1.424-2.892,14.665,14.665,0,0,1,4.3-4.346v7.238a13.233,13.233,0,0,1,5.724-2.892,13.073,13.073,0,0,1,5.739,0,22.792,22.792,0,0,0-2.877,2.892,24.011,24.011,0,0,0-2.862,4.331A29.61,29.61,0,0,1,129.5,88.53a29.318,29.318,0,0,0-4.3,4.331,30.2,30.2,0,0,0-2.862,4.346,26.382,26.382,0,0,1,5.724-1.454,26.966,26.966,0,0,1,7.163,0,11.781,11.781,0,0,0-2.862,2.892,11.54,11.54,0,0,0-1.424,2.892,13.6,13.6,0,0,1,8.587,1.454,18.189,18.189,0,0,0-5.724,4.331,18.194,18.194,0,0,1,2.862,0,17.8,17.8,0,0,1,5.724,1.454A13.224,13.224,0,0,0,135.224,116a20.821,20.821,0,0,1,5.739-1.439,19.388,19.388,0,0,1,4.286,0c-.48.48-.944.959-1.424,1.439l-4.3,4.346h7.163a8.1,8.1,0,0,0-1.439,1.439,8.3,8.3,0,0,0-1.424,2.892C145.249,125.634,149.88,129.066,151.318,130.025Z" transform="translate(-72.21 -78.4)" fill="#53b79a" stroke="#000" stroke-linecap="round" stroke-linejoin="round" stroke-width="3"/>
        </g>
        <g id="Group_1203929" data-name="Group 1203929" transform="translate(-74.639 114.486)">
          <path id="Path_1257372-3" data-name="Path 1257372" d="M72.21,130.025v6.219h59.567a12.378,12.378,0,0,0-1.424-4.331,12.156,12.156,0,0,0-1.948-2.652,9.739,9.739,0,0,1,3.372-.24,10.142,10.142,0,0,1,4.3,1.439,9.838,9.838,0,0,0-1.424-5.784,9.42,9.42,0,0,0-2.877-2.892,13.823,13.823,0,0,1,12-1.094c.12-.12.255-.225.375-.345a75.434,75.434,0,0,1,7.163-5.784,10.682,10.682,0,0,0-2.862,0,11.527,11.527,0,0,0-4.3,1.439,28.914,28.914,0,0,1,2.862-4.331,28.1,28.1,0,0,1,4.3-4.346c-2.862.48-5.724.974-8.6,1.454.4-.495.854-1.034,1.364-1.588a27.216,27.216,0,0,1-4.556-2.443,28.185,28.185,0,0,1-3.956-3.207,46.723,46.723,0,0,0,5.724-2.892,47.5,47.5,0,0,0,4.3-2.892c-1.8-.36-3.716-.839-5.739-1.439-1.514-.465-2.952-.944-4.286-1.454.495-1.319.989-2.757,1.424-4.331a50.029,50.029,0,0,0,1.439-7.238,37.993,37.993,0,0,1-5.739,4.346,38.752,38.752,0,0,1-5.724,2.892,14.179,14.179,0,0,0,1.439-4.346,14.73,14.73,0,0,0,0-4.331,17.146,17.146,0,0,1-2.862,2.892,16.468,16.468,0,0,1-5.739,2.892,15.035,15.035,0,0,0-1.424-2.892,14.665,14.665,0,0,0-4.3-4.346v7.238a13.233,13.233,0,0,0-5.724-2.892,13.073,13.073,0,0,0-5.739,0,22.793,22.793,0,0,1,2.877,2.892,24.011,24.011,0,0,1,2.862,4.331A29.61,29.61,0,0,0,94.029,88.53a29.318,29.318,0,0,1,4.3,4.331,30.2,30.2,0,0,1,2.862,4.346,26.383,26.383,0,0,0-5.724-1.454,26.967,26.967,0,0,0-7.163,0,11.781,11.781,0,0,1,2.862,2.892,11.54,11.54,0,0,1,1.424,2.892A13.6,13.6,0,0,0,84,102.991a18.189,18.189,0,0,1,5.724,4.331,18.194,18.194,0,0,0-2.862,0,17.8,17.8,0,0,0-5.724,1.454A13.224,13.224,0,0,1,88.3,116a20.821,20.821,0,0,0-5.739-1.439,19.388,19.388,0,0,0-4.286,0c.48.48.944.959,1.424,1.439l4.3,4.346H76.841a8.1,8.1,0,0,1,1.439,1.439,8.3,8.3,0,0,1,1.424,2.892C78.279,125.634,73.649,129.066,72.21,130.025Z" transform="translate(-72.21 -78.4)" fill="#53b79a" stroke="#000" stroke-linecap="round" stroke-linejoin="round" stroke-width="3"/>
        </g>
        <g id="Group_1203896" data-name="Group 1203896" transform="translate(160.345 55.446)">
          <path id="Path_1257373" data-name="Path 1257373" d="M133.974,37l6.181,35.965-6.181,11.988h-20.98a49.544,49.544,0,0,0-3-5.994,44.975,44.975,0,0,0-3-4.5,21.648,21.648,0,0,1,5.994,1.5,22.309,22.309,0,0,1,3,1.5c-.929-1.469-1.933-2.967-3-4.5-1.5-2.143-3.012-4.151-4.5-5.994a12.2,12.2,0,0,1,10.49,3,27.907,27.907,0,0,0-1.5-3,29.942,29.942,0,0,0-4.5-5.994,40.349,40.349,0,0,1,10.49,4.5,38.988,38.988,0,0,0-3-4.5,40.451,40.451,0,0,0-7.493-7.493,15.447,15.447,0,0,1,13.487,3,39.515,39.515,0,0,0-7.493-11.988,16.966,16.966,0,0,1,10.49,4.5A16.814,16.814,0,0,1,133.974,37Z" transform="translate(-107 -37)" fill="#ffc05a"/>
        </g>
        <g id="Group_1203897" data-name="Group 1203897" transform="translate(145.135 62.939)">
          <path id="Path_1257374" data-name="Path 1257374" d="M103.069,42V82.461c0-4.96-2.353-8.991-5.245-8.991a3.091,3.091,0,0,0-.974.165V45.387A9,9,0,0,0,98.573,43.5a9.179,9.179,0,0,0,.809-1.5Z" transform="translate(-96.85 -42)" fill="#5d5560"/>
        </g>
        <g id="Group_1203898" data-name="Group 1203898" transform="translate(140.864 94.409)">
          <path id="Path_1257375" data-name="Path 1257375" d="M99.245,63c2.892,0,5.245,4.031,5.245,8.991s-2.353,8.991-5.245,8.991S94,76.951,94,71.991c0-4.391,1.843-8.047,4.271-8.826A3.091,3.091,0,0,1,99.245,63Z" transform="translate(-94 -63)" fill="#655f68"/>
        </g>
        <g id="Group_1203899" data-name="Group 1203899" transform="translate(112.182 66.326)">
          <path id="Path_1257376" data-name="Path 1257376" d="M107.813,66.873v5.62H74.86l2.008-12.138H90.7c1.3,0,2.353-1.349,2.353-3a3.464,3.464,0,0,0-.689-2.113A2.1,2.1,0,0,0,90.7,54.36H77.857l1.663-10.1h28.293L99.047,53.3v7.538h3.507v6.039Z" transform="translate(-74.86 -44.26)" fill="#f69552"/>
        </g>
        <g id="Group_1203900" data-name="Group 1203900" transform="translate(136.368 66.326)">
          <path id="Path_1257377" data-name="Path 1257377" d="M99.766,44.26V66.873h-5.26V60.834H91V53.3Z" transform="translate(-91 -44.26)" fill="#ad6a6a"/>
        </g>
        <g id="Group_1203901" data-name="Group 1203901" transform="translate(58.443 76.426)">
          <path id="Path_1257378" data-name="Path 1257378" d="M110.241,51.884A3.464,3.464,0,0,1,110.93,54c0,1.648-1.049,3-2.353,3H41.353a2.1,2.1,0,0,1-1.663-.884A3.464,3.464,0,0,1,39,54c0-1.648,1.049-3,2.353-3h67.225A2.1,2.1,0,0,1,110.241,51.884Z" transform="translate(-39 -51)" fill="#655f68"/>
        </g>
        <g id="Group_1203902" data-name="Group 1203902" transform="translate(62.385 118.939)">
          <path id="Path_1257379" data-name="Path 1257379" d="M100.343,125.645q-5.013-.742-10.025-1.454a23.721,23.721,0,0,1,4.3,2.892,24.518,24.518,0,0,1,2.862,2.892c-1.424.48-2.862.959-4.3,1.454.959,1.439,1.918,2.892,2.877,4.331h-53a11.274,11.274,0,0,0,4.3-5.784H41.63a16.32,16.32,0,0,1,8.587-5.784c-1.9-.48-3.821-.959-5.724-1.439a22.009,22.009,0,0,1,1.738-2.892h.015c.33-.48.7-.959,1.109-1.454a23.8,23.8,0,0,1,2.862-2.892c-1.424-.48-2.862-.959-4.286-1.439a10.869,10.869,0,0,1,2.862-2.892,11.421,11.421,0,0,1,2.862-1.454,8.641,8.641,0,0,0-1.439-1.439,8,8,0,0,0-2.862-1.454,21.178,21.178,0,0,1,2.862-1.439,20.736,20.736,0,0,1,5.739-1.454c-.959-.959-1.918-1.918-2.877-2.892a9.639,9.639,0,0,1,2.877-2.892,9.258,9.258,0,0,1,4.286-1.439,21.478,21.478,0,0,0-2.862-2.892,22.247,22.247,0,0,0-4.3-2.892,8.664,8.664,0,0,1,1.439-1.454,8.3,8.3,0,0,1,2.862-1.439,8.447,8.447,0,0,0-1.424-2.892A8.247,8.247,0,0,0,54.517,83.7a16.006,16.006,0,0,1,5.724,0,15.714,15.714,0,0,1,4.3,1.454c-.959-1.933-1.9-3.866-2.862-5.784a11.437,11.437,0,0,1,4.3,1.439,11.8,11.8,0,0,1,4.286,4.346,16.768,16.768,0,0,1,5.739-4.346,16.223,16.223,0,0,1,5.724-1.439,7.217,7.217,0,0,0-1.439,1.439,7.646,7.646,0,0,0-1.424,4.346A29.166,29.166,0,0,1,86.032,83.7a31.38,31.38,0,0,1,4.286,0,7.74,7.74,0,0,0-1.424,1.454,8.26,8.26,0,0,0-1.439,2.892,10.68,10.68,0,0,1,2.862,0,11.527,11.527,0,0,1,4.3,1.439,14.73,14.73,0,0,0-2.862,1.454,15,15,0,0,0-4.3,4.331,9.348,9.348,0,0,1,7.163,4.346,10.681,10.681,0,0,0-2.862,0,11.527,11.527,0,0,0-4.3,1.439,29.2,29.2,0,0,1,4.3,2.892,29.59,29.59,0,0,1,2.937,2.757c.509.554.959,1.094,1.364,1.588-2.877-.48-5.739-.974-8.6-1.454a28.1,28.1,0,0,1,4.3,4.346,28.915,28.915,0,0,1,2.862,4.331,11.527,11.527,0,0,0-4.3-1.439,10.681,10.681,0,0,0-2.862,0,75.435,75.435,0,0,1,7.163,5.784c.12.12.255.225.375.345a75.238,75.238,0,0,1,5.35,5.44Z" transform="translate(-41.63 -79.37)" fill="#6fceae"/>
        </g>
        <g id="Group_1203903" data-name="Group 1203903" transform="translate(70.433 7.522)">
          <path id="Path_1257380" data-name="Path 1257380" d="M94.953,49.946v6.339a109.909,109.909,0,0,1-23.977,2.652A109.627,109.627,0,0,1,47,56.285V47.234l3.207-1.5V5.02h5.874v39.2a63.622,63.622,0,0,1,29.791,0V5.02h5.874V45.736l3.207,1.5Z" transform="translate(-47 -5.02)" fill="#655f68"/>
        </g>
        <g id="Group_1203904" data-name="Group 1203904" transform="translate(109.215 66.326)">
          <path id="Path_1257381" data-name="Path 1257381" d="M80.508,44.26l-1.663,10.1H72.88l1.663-10.1Z" transform="translate(-72.88 -44.26)" fill="#ad6a6a"/>
        </g>
        <g id="Group_1203905" data-name="Group 1203905" transform="translate(106.217 82.42)">
          <path id="Path_1257382" data-name="Path 1257382" d="M78.852,55,76.844,67.138H70.88L72.873,55.03V55Z" transform="translate(-70.88 -55)" fill="#ad6a6a"/>
        </g>
        <g id="Group_1203906" data-name="Group 1203906" transform="translate(77.939 66.326)">
          <path id="Path_1257383" data-name="Path 1257383" d="M84.948,44.26l-1.663,10.1H53.673L52.01,44.26h4.571a15.432,15.432,0,0,0,23.8,0Z" transform="translate(-52.01 -44.26)" fill="#dd864a"/>
        </g>
        <g id="Group_1203907" data-name="Group 1203907" transform="translate(79.514 7.522)">
          <path id="Path_1257384" data-name="Path 1257384" d="M69.484,5.02H82.851v39.2a63.622,63.622,0,0,0-29.791,0V5.02H69.484Z" transform="translate(-53.06 -5.02)" fill="#e7f2f1"/>
        </g>
        <g id="Group_1203908" data-name="Group 1203908" transform="translate(80.607 82.42)">
          <path id="Path_1257385" data-name="Path 1257385" d="M81.393,55v.03L79.4,67.138H55.783L53.79,55.03V55h27.6Z" transform="translate(-53.79 -55)" fill="#dd864a"/>
        </g>
        <g id="Group_1203909" data-name="Group 1203909" transform="translate(82.511 66.326)">
          <path id="Path_1257386" data-name="Path 1257386" d="M66.958,44.26h11.9a15.432,15.432,0,0,1-23.8,0Z" transform="translate(-55.06 -44.26)" fill="#ad6a6a"/>
        </g>
        <g id="Group_1203910" data-name="Group 1203910" transform="translate(74.628 82.42)">
          <path id="Path_1257387" data-name="Path 1257387" d="M55.779,55.03l1.993,12.108H51.808L49.8,55h5.979Z" transform="translate(-49.8 -55)" fill="#ad6a6a"/>
        </g>
        <g id="Group_1203911" data-name="Group 1203911" transform="translate(71.976 66.326)">
          <path id="Path_1257388" data-name="Path 1257388" d="M53.994,44.26l1.663,10.1H49.693L48.03,44.26Z" transform="translate(-48.03 -44.26)" fill="#ad6a6a"/>
        </g>
        <g id="Group_1203912" data-name="Group 1203912" transform="translate(43.684 66.326)">
          <path id="Path_1257389" data-name="Path 1257389" d="M60.095,60.354,62.1,72.493H29.15v-5.62h5.26V60.834h3.507V53.3L29.15,44.26H57.443l1.663,10.1H46.263c-1.3,0-2.353,1.349-2.353,3A3.464,3.464,0,0,0,44.6,59.47a2.1,2.1,0,0,0,1.663.884Z" transform="translate(-29.15 -44.26)" fill="#f69552"/>
        </g>
        <g id="Group_1203913" data-name="Group 1203913" transform="translate(1.499 117.486)">
          <path id="Path_1257390" data-name="Path 1257390" d="M70.473,108.776a8.641,8.641,0,0,1,1.439,1.439,11.42,11.42,0,0,0-2.862,1.454,10.869,10.869,0,0,0-2.862,2.892c1.424.48,2.862.959,4.286,1.439a23.8,23.8,0,0,0-2.862,2.892c-.4.495-.779.974-1.109,1.454h-.015a13.7,13.7,0,0,0-4.6,0,13.871,13.871,0,0,0-4.3,1.439,9.246,9.246,0,0,1,2.862,2.892,9.767,9.767,0,0,1,1.439,5.784,10.142,10.142,0,0,0-4.3-1.439,9.866,9.866,0,0,0-3.387.24,12.353,12.353,0,0,1,3.387,6.983H1v-6.983c1.439-.959,5.035-3.626,6.459-4.586a8.577,8.577,0,0,0-1.424-2.892A8.1,8.1,0,0,0,4.6,120.344H11.76L7.459,116c-.48-.48-.959-.959-1.424-1.439a19.388,19.388,0,0,1,4.286,0A20.822,20.822,0,0,1,16.06,116a13.361,13.361,0,0,0-2.877-4.331A12.967,12.967,0,0,0,8.9,108.776a17.8,17.8,0,0,1,5.724-1.454,18.2,18.2,0,0,1,2.862,0c-.42-.465-.9-.959-1.424-1.439a18.3,18.3,0,0,0-4.3-2.892,13.6,13.6,0,0,1,8.587-1.454,11.54,11.54,0,0,0-1.424-2.892,11.782,11.782,0,0,0-2.862-2.892,26.862,26.862,0,0,1,7.148,0,26.539,26.539,0,0,1,5.739,1.454,30.2,30.2,0,0,0-2.862-4.346,29.319,29.319,0,0,0-4.3-4.331,29.61,29.61,0,0,1,14.326,1.439,24.182,24.182,0,0,0-2.877-4.331,22.765,22.765,0,0,0-2.862-2.892,13.073,13.073,0,0,1,5.739,0,13.233,13.233,0,0,1,5.724,2.892V78.4a14.843,14.843,0,0,1,4.3,4.346,15.036,15.036,0,0,1,1.424,2.892,16.423,16.423,0,0,0,5.724-2.892,16.744,16.744,0,0,0,2.877-2.892,14.73,14.73,0,0,1,0,4.331,14.179,14.179,0,0,1-1.439,4.346,38.753,38.753,0,0,0,5.724-2.892,37.992,37.992,0,0,0,5.739-4.346,50.029,50.029,0,0,1-1.439,7.238c-.435,1.573-.929,3.012-1.439,4.331,1.349.509,2.772.989,4.3,1.454,2.023.6,3.941,1.079,5.724,1.439a45.743,45.743,0,0,1-10.025,5.784,34.483,34.483,0,0,0,4.3,2.892c1,.569,1.963,1.049,2.862,1.454a21.18,21.18,0,0,0-2.862,1.439,8,8,0,0,1,2.862,1.454Z" transform="translate(-1 -78.4)" fill="#53b79a"/>
        </g>
        <g id="Group_1203914" data-name="Group 1203914" transform="translate(43.684 66.326)">
          <path id="Path_1257391" data-name="Path 1257391" d="M37.916,53.3v7.538H34.41v6.039H29.15V44.26Z" transform="translate(-29.15 -44.26)" fill="#ad6a6a"/>
        </g>
        <g id="Group_1203915" data-name="Group 1203915" transform="translate(37.464 94.409)">
          <path id="Path_1257392" data-name="Path 1257392" d="M31.219,63.165c2.428.779,4.271,4.436,4.271,8.826,0,4.96-2.353,8.991-5.245,8.991S25,76.951,25,71.991,27.353,63,30.245,63A3.091,3.091,0,0,1,31.219,63.165Z" transform="translate(-25 -63)" fill="#655f68"/>
        </g>
        <g id="Group_1203916" data-name="Group 1203916" transform="translate(37.464 62.939)">
          <path id="Path_1257393" data-name="Path 1257393" d="M31.219,73.619v.015a3.091,3.091,0,0,0-.974-.165C27.353,73.469,25,77.5,25,82.461V42h3.686a9.179,9.179,0,0,0,.809,1.5,9,9,0,0,0,1.723,1.888V73.619Z" transform="translate(-25 -42)" fill="#5d5560"/>
        </g>
        <g id="Group_1203917" data-name="Group 1203917" transform="translate(1.499 55.446)">
          <path id="Path_1257394" data-name="Path 1257394" d="M27.974,74.464a44.975,44.975,0,0,0-3,4.5,49.542,49.542,0,0,0-3,5.994H1L-2.549,72.965,1,37a16.944,16.944,0,0,1,3,4.5,16.916,16.916,0,0,1,1.5,7.493,16.966,16.966,0,0,1,10.49-4.5A39.515,39.515,0,0,0,8.493,56.481a15.447,15.447,0,0,1,13.487-3,40.451,40.451,0,0,0-7.493,7.493,38.988,38.988,0,0,0-3,4.5,40.349,40.349,0,0,1,10.49-4.5,29.942,29.942,0,0,0-4.5,5.994,27.91,27.91,0,0,0-1.5,3,12.2,12.2,0,0,1,10.49-3c-1.484,1.843-3,3.851-4.5,5.994-1.064,1.529-2.068,3.027-3,4.5a22.309,22.309,0,0,1,3-1.5A21.648,21.648,0,0,1,27.974,74.464Z" transform="translate(-1 -37)" fill="#ffc05a"/>
        </g>
        <g id="Group_1203918" data-name="Group 1203918" transform="translate(79.514 7.522)">
          <path id="Path_1257395" data-name="Path 1257395" d="M82.851,5.02v39.2a63.622,63.622,0,0,0-29.791,0V38.183A32.553,32.553,0,0,1,69.394,35.8a31.84,31.84,0,0,1,3.716.659c7.238,1.753,9.741-31.44,9.741-31.44Z" transform="translate(-53.06 -5.02)" fill="#d6eae8"/>
        </g>
        <g id="Group_1203919" data-name="Group 1203919" transform="translate(70.433 1.499)">
          <path id="Path_1257396" data-name="Path 1257396" d="M94.953,4.012a.922.922,0,0,1-.015.21,2.827,2.827,0,0,1-.929,1.918,3.261,3.261,0,0,1-2.263.884H50.207a3.113,3.113,0,0,1-3.192-2.8A.922.922,0,0,1,47,4.012a2.9,2.9,0,0,1,.944-2.128A3.261,3.261,0,0,1,50.207,1h41.54a3.116,3.116,0,0,1,3.207,3.012Z" transform="translate(-47 -1)" fill="#f69552"/>
        </g>
        <g id="XMLID_55_" transform="translate(1.499 153.527)">
          <g id="Group_1203924" data-name="Group 1203924">
            <g id="Group_1203921" data-name="Group 1203921" transform="translate(121.93)">
              <path id="Path_1257397" data-name="Path 1257397" d="M83.616,113.044c13.772-1.978,29.222-4.9,46.545-9.036a20.821,20.821,0,0,1,5.739-1.439,19.388,19.388,0,0,1,4.286,0c-.48.48-.944.959-1.424,1.439l-4.3,4.346h7.163a8.1,8.1,0,0,0-1.439,1.439,8.3,8.3,0,0,0-1.424,2.892c1.424.959,6.054,4.391,7.493,5.35v6.219H86.688a12.378,12.378,0,0,1,1.424-4.331,12.156,12.156,0,0,1,1.948-2.652,9.739,9.739,0,0,0-3.372-.24,10.142,10.142,0,0,0-4.3,1.439A9.725,9.725,0,0,1,83.616,113.044Z" transform="translate(-82.365 -102.451)" fill="#4aaf8f"/>
            </g>
            <g id="Group_1203922" data-name="Group 1203922" transform="translate(60.886 11.987)">
              <path id="Path_1257398" data-name="Path 1257398" d="M97.481,114.481c-1.424.48-2.862.959-4.3,1.454.959,1.439,1.918,2.892,2.877,4.331h-53a11.274,11.274,0,0,0,4.3-5.784H41.63a16.7,16.7,0,0,1,2.353-2.473c12.9.944,29.042.764,49.182-1.558.48.345.959.719,1.454,1.139A24.518,24.518,0,0,1,97.481,114.481Z" transform="translate(-41.63 -110.45)" fill="#53b79a"/>
            </g>
            <g id="Group_1203923" data-name="Group 1203923">
              <path id="Path_1257399" data-name="Path 1257399" d="M11.76,108.354l-4.3-4.346c-.48-.48-.959-.959-1.424-1.439a19.388,19.388,0,0,1,4.286,0,20.822,20.822,0,0,1,5.739,1.439c3.3-.09,14.626,9.1,45.631,11.794a9.817,9.817,0,0,1,.195,2.667,10.142,10.142,0,0,0-4.3-1.439,9.866,9.866,0,0,0-3.387.24,12.353,12.353,0,0,1,3.387,6.983H1V117.27c1.439-.959,5.035-3.626,6.459-4.586a8.577,8.577,0,0,0-1.424-2.892A8.1,8.1,0,0,0,4.6,108.354Z" transform="translate(-1 -102.451)" fill="#4aaf8f"/>
            </g>
          </g>
        </g>
        <g id="Group_1203926" data-name="Group 1203926" transform="translate(-0.002 0)">
          <path id="Path_1257400" data-name="Path 1257400" d="M184.457,126.641c-1.029-.745-2.059-1.49-2.844-2.046a6.735,6.735,0,0,1,2-2.582,1.5,1.5,0,0,0-.926-2.676h-3.568l3.2-3.229a1.5,1.5,0,0,0-.91-2.546,22.187,22.187,0,0,0-6.9.361c.205-.244.421-.48.647-.709a11.563,11.563,0,0,1,3.806-2.563,1.5,1.5,0,0,0,.022-2.757,19.583,19.583,0,0,0-5.426-1.487,17.146,17.146,0,0,1,2.619-1.575,1.5,1.5,0,0,0,.052-2.669,15.2,15.2,0,0,0-6.878-1.791q.119-.191.247-.378a9.888,9.888,0,0,1,2.489-2.512,1.5,1.5,0,0,0-.659-2.712,27.922,27.922,0,0,0-7.565,0q-1.077.146-2.143.378.317-.432.652-.85a27.3,27.3,0,0,1,4.073-4.112,1.5,1.5,0,0,0-.73-2.645,31.056,31.056,0,0,0-9.029,0c-.725.106-1.449.241-2.167.4.217-.289.441-.572.673-.851a22.118,22.118,0,0,1,2.682-2.708,1.5,1.5,0,0,0-.641-2.606,14.7,14.7,0,0,0-6.384,0,14.549,14.549,0,0,0-3.9,1.491V78.9a1.5,1.5,0,0,0-2.326-1.25,16.123,16.123,0,0,0-5.753,6.627,14.8,14.8,0,0,1-6.556-4.846,1.5,1.5,0,0,0-2.669.683,15.538,15.538,0,0,0,0,4.8c.064.414.145.824.243,1.229q-1.16-.6-2.273-1.29a36.484,36.484,0,0,1-5.5-4.166,1.5,1.5,0,0,0-2.5,1.283,50.312,50.312,0,0,0,1.476,7.452c.283,1.019.6,2.037.952,3.038-.928.324-1.866.628-2.8.908-1.84.551-3.725,1.028-5.6,1.413a1.5,1.5,0,0,0-1.16,1.137c0,.016,0,.033,0,.049a10.9,10.9,0,0,0-1.614-.7,12.952,12.952,0,0,1,2.47-2.1,12.8,12.8,0,0,1,2.566-1.295,1.5,1.5,0,0,0,.222-2.7,13.029,13.029,0,0,0-4.854-1.633c-.243-.031-.487-.054-.731-.07.094-.144.193-.283.3-.42A6.664,6.664,0,0,1,112,85.864a1.5,1.5,0,0,0-.815-2.673,30.652,30.652,0,0,0-9.657.823,5.65,5.65,0,0,1,.727-1.332,5.528,5.528,0,0,1,1.128-1.139,1.5,1.5,0,0,0-1-2.69A17.824,17.824,0,0,0,96.13,80.43a18.116,18.116,0,0,0-4.909,3.321A13.1,13.1,0,0,0,87.477,80.5a12.911,12.911,0,0,0-4.857-1.635,1.5,1.5,0,0,0-1.533,2.152l1.2,2.417c-.337-.084-.676-.156-1.016-.219a17.34,17.34,0,0,0-6.267,0,1.5,1.5,0,0,0-.658,2.654,6.709,6.709,0,0,1,1.86,2.281A9.666,9.666,0,0,0,72.65,91a1.5,1.5,0,0,0,.493,2.243,21.848,21.848,0,0,1,4.021,2.706q.483.409.943.848a10.7,10.7,0,0,0-2.216,1.086,10.988,10.988,0,0,0-3.321,3.352,1.5,1.5,0,0,0,.2,1.855l.845.853a22.378,22.378,0,0,0-2.552.8c-.751-.352-1.5-.713-2.219-1.121s-1.4-.829-2.078-1.284c1.206-.587,2.39-1.226,3.538-1.908a47.775,47.775,0,0,0,4.434-2.985,1.5,1.5,0,0,0-.6-2.663c-1.876-.387-3.761-.863-5.6-1.413-.937-.28-1.875-.584-2.8-.908.349-1,.668-2.019.952-3.039a50.274,50.274,0,0,0,1.476-7.452,1.5,1.5,0,0,0-2.5-1.283,36.56,36.56,0,0,1-5.5,4.166q-1.11.686-2.273,1.29.146-.609.243-1.229a15.447,15.447,0,0,0,0-4.8,1.5,1.5,0,0,0-2.669-.683A14.8,14.8,0,0,1,48.9,84.28a16.134,16.134,0,0,0-5.753-6.628,1.5,1.5,0,0,0-2.326,1.25v4.367A14.559,14.559,0,0,0,30.54,81.778a1.5,1.5,0,0,0-.641,2.606,22.013,22.013,0,0,1,2.682,2.708c.231.277.456.562.673.851-.718-.159-1.442-.294-2.167-.4a31,31,0,0,0-9.029,0,1.5,1.5,0,0,0-.73,2.645A27.166,27.166,0,0,1,25.4,94.3q.333.418.652.85-1.065-.232-2.143-.378a27.922,27.922,0,0,0-7.565,0,1.5,1.5,0,0,0-.659,2.712A9.937,9.937,0,0,1,18.175,100q.128.187.247.378a15.192,15.192,0,0,0-6.878,1.792,1.5,1.5,0,0,0,.052,2.669,17.147,17.147,0,0,1,2.619,1.575,19.486,19.486,0,0,0-5.423,1.485,1.5,1.5,0,0,0,.022,2.757,11.608,11.608,0,0,1,3.808,2.563q.339.342.647.709a21.875,21.875,0,0,0-2.291-.361,22.235,22.235,0,0,0-4.608,0,1.5,1.5,0,0,0-.91,2.546l3.2,3.229H5.094a1.5,1.5,0,0,0-.926,2.676,6.672,6.672,0,0,1,1.17,1.182,6.8,6.8,0,0,1,.829,1.4c-.676.477-1.5,1.07-2.321,1.662-1.239.893-2.477,1.785-3.183,2.26A1.5,1.5,0,0,0,2.337,131c.724-.487,1.993-1.4,3.262-2.314,1.244-.9,2.489-1.794,3.2-2.27a1.5,1.5,0,0,0,.608-1.639,9.916,9.916,0,0,0-1.034-2.444h3.886a1.5,1.5,0,0,0,1.065-2.554l-3.261-3.292c.2.015.406.033.608.054a19.225,19.225,0,0,1,5.317,1.343,1.5,1.5,0,0,0,1.956-1.953,14.74,14.74,0,0,0-3.186-4.825,14.956,14.956,0,0,0-1.686-1.464,16.181,16.181,0,0,1,4.8-.327,1.515,1.515,0,0,0,1.461-.823,1.5,1.5,0,0,0-.219-1.663,19.816,19.816,0,0,0-1.549-1.564,19.638,19.638,0,0,0-1.9-1.511q.557-.144,1.128-.235a12.124,12.124,0,0,1,3.824,0,1.5,1.5,0,0,0,1.659-1.951,12.967,12.967,0,0,0-1.62-3.268q-.279-.407-.586-.788a20.4,20.4,0,0,1,3.444.228,25,25,0,0,1,5.405,1.365,1.5,1.5,0,0,0,1.845-2.113,30.46,30.46,0,0,0-3.014-4.563q-.917-1.149-1.947-2.207a27.788,27.788,0,0,1,10.291,1.66,1.5,1.5,0,0,0,1.845-2.092,25.275,25.275,0,0,0-3.047-4.614c-.208-.25-.421-.5-.64-.739a11.635,11.635,0,0,1,2.025.268,11.771,11.771,0,0,1,5.077,2.564,1.5,1.5,0,0,0,2.477-1.134V82.1a13.064,13.064,0,0,1,1.538,1.957,13.206,13.206,0,0,1,1.286,2.6,1.5,1.5,0,0,0,1.81.929,17.842,17.842,0,0,0,6.25-3.156c.177-.138.351-.282.523-.426-.018.154-.039.307-.063.462a12.5,12.5,0,0,1-1.28,3.874,1.5,1.5,0,0,0,1.887,2.086,39.262,39.262,0,0,0,5.957-3.006q1.45-.892,2.823-1.917c-.217,1.053-.469,2.1-.757,3.13-.4,1.419-.862,2.834-1.388,4.2a1.5,1.5,0,0,0,.874,1.941c1.44.539,2.918,1.035,4.392,1.478q1.266.378,2.551.71-.719.468-1.454.9a45.1,45.1,0,0,1-5.545,2.8,1.5,1.5,0,0,0-.348,2.557,35.343,35.343,0,0,0,4.488,3.02c.087.049.181.087.27.136-.1.058-.207.109-.307.171a1.5,1.5,0,0,0,.372,2.724,6.726,6.726,0,0,1,2.072.98,12.509,12.509,0,0,0-1.094.686,12.861,12.861,0,0,0-3.241,3.271,1.5,1.5,0,0,0,.755,2.269l1.929.649q-.609.634-1.17,1.31c-.216.261-.4.547-.605.815a15.524,15.524,0,0,0-8.966,1.71,1.5,1.5,0,0,0-.114,2.585,7.944,7.944,0,0,1,2.408,2.431,7.857,7.857,0,0,1,1.035,2.576,11.479,11.479,0,0,0-6.372-.246,1.5,1.5,0,0,0-.719,2.5,10.953,10.953,0,0,1,2.976,6.147,1.5,1.5,0,0,0,1.482,1.293,1.636,1.636,0,0,0,.208-.013,1.5,1.5,0,0,0,1.28-1.69,14.033,14.033,0,0,0-1.6-4.854c-.132-.24-.271-.477-.417-.707.129.006.259.016.39.028a8.681,8.681,0,0,1,3.662,1.235,1.489,1.489,0,0,0,.361.159c.015,0,.03,0,.045.007a1.466,1.466,0,0,0,.351.049c.007,0,.015,0,.022,0h3.409c-.111.186-.226.369-.349.547a9.864,9.864,0,0,1-2.489,2.512,1.5,1.5,0,0,0,1.72,2.455,12.884,12.884,0,0,0,3.241-3.271,13.051,13.051,0,0,0,1.62-3.27,1.5,1.5,0,0,0-1.424-1.969H65.906c.088-.072.177-.144.267-.214a14.855,14.855,0,0,1,5.207-2.627,1.5,1.5,0,0,0-.036-2.9l-3.821-.965a22.019,22.019,0,0,1,4.425-5.116,1.5,1.5,0,0,0-.492-2.564l-2.209-.743a10.183,10.183,0,0,1,1.157-.947,9.754,9.754,0,0,1,2.485-1.254,1.5,1.5,0,0,0,.706-2.336,9.729,9.729,0,0,0-1.693-1.71c-.135-.1-.271-.207-.409-.3l.055-.022a19.34,19.34,0,0,1,5.317-1.341,1.5,1.5,0,0,0,.907-2.546l-1.963-1.981a7.957,7.957,0,0,1,1.708-1.488,7.852,7.852,0,0,1,3.605-1.212,1.5,1.5,0,0,0,1.033-2.453,24.893,24.893,0,0,0-5.877-5.152,6.7,6.7,0,0,1,2.266-1.122,1.5,1.5,0,0,0,1.041-1.839,9.872,9.872,0,0,0-1.193-2.7,14.372,14.372,0,0,1,6.235,1.545,1.5,1.5,0,0,0,2.017-2l-1.358-2.742q.355.169.7.367a10.27,10.27,0,0,1,3.746,3.784,1.5,1.5,0,0,0,2.441.228,15.182,15.182,0,0,1,5.212-3.947,14.859,14.859,0,0,1,1.509-.593,9.414,9.414,0,0,0-.766,3.532,1.5,1.5,0,0,0,1.975,1.458,27.912,27.912,0,0,1,6.8-1.373q.472-.034.946-.054a9.873,9.873,0,0,0-1.068,2.5,1.5,1.5,0,0,0,1.63,1.882,9.884,9.884,0,0,1,2.489,0c.276.034.55.081.82.139l-.019.012a16.194,16.194,0,0,0-4.732,4.776,1.5,1.5,0,0,0,1.137,2.311,7.846,7.846,0,0,1,3.606,1.212c.1.061.19.126.283.192a13.036,13.036,0,0,0-4.515,1.585,1.5,1.5,0,0,0,.025,2.615,27.092,27.092,0,0,1,4.07,2.739q.571.465,1.118.962l-4.218-.71a1.5,1.5,0,0,0-1.2,2.64,27.166,27.166,0,0,1,4.073,4.112c.142.18.283.36.421.542-.163-.027-.33-.051-.495-.072a13.022,13.022,0,0,0-3.24,0,1.5,1.5,0,0,0-.685,2.706,77.087,77.087,0,0,1,7.025,5.673q1.373,1.252,2.7,2.579l-5.774-.833a1.5,1.5,0,0,0-.908,2.811,22.035,22.035,0,0,1,4.022,2.706q.6.51,1.167,1.065l-2.108.71a1.5,1.5,0,0,0-.773,2.246l2.865,4.338a1.5,1.5,0,1,0,2.5-1.653L116.27,133.2l2.452-.826a1.5,1.5,0,0,0,.673-2.378,25.031,25.031,0,0,0-2.335-2.449l3.835.553a1.488,1.488,0,0,0,1.4-.6,11.709,11.709,0,0,0-.334,3.547,1.5,1.5,0,0,0,2.276,1.184A8.715,8.715,0,0,1,127.9,131c.13-.012.259-.022.39-.028-.147.232-.285.468-.417.709a14.011,14.011,0,0,0-1.6,4.854,1.5,1.5,0,0,0,1.28,1.689,1.6,1.6,0,0,0,.207.013,1.5,1.5,0,0,0,1.482-1.293,11.054,11.054,0,0,1,1.26-3.821,10.932,10.932,0,0,1,1.716-2.327,1.5,1.5,0,0,0-.721-2.5,11.483,11.483,0,0,0-6.373.246,7.829,7.829,0,0,1,3.444-5.007,1.5,1.5,0,0,0-.039-2.543,15.113,15.113,0,0,0-12.391-1.493c-.85-.766-1.713-1.521-2.6-2.254a10.31,10.31,0,0,1,1.1.547,1.5,1.5,0,0,0,2.063-2.011,30.459,30.459,0,0,0-3.014-4.563q-.456-.571-.941-1.122l3.82.643a1.5,1.5,0,0,0,1.418-2.413c-.039-.048-.084-.09-.121-.136a27.762,27.762,0,0,0,7.157-5.082,1.5,1.5,0,0,0-.463-2.456,44.991,44.991,0,0,1-5.545-2.8c-.489-.291-.974-.593-1.454-.9.856-.22,1.708-.459,2.551-.71,1.473-.442,2.951-.938,4.392-1.478a1.5,1.5,0,0,0,.874-1.941c-.526-1.37-.994-2.784-1.388-4.2-.286-1.031-.539-2.077-.757-3.13q1.371,1.021,2.823,1.917a39.26,39.26,0,0,0,5.957,3.006,1.5,1.5,0,0,0,1.887-2.086,12.5,12.5,0,0,1-1.28-3.874c-.024-.154-.045-.307-.063-.462q.256.218.523.426a17.842,17.842,0,0,0,6.25,3.156,1.5,1.5,0,0,0,1.81-.929,13.266,13.266,0,0,1,1.287-2.6,13.11,13.11,0,0,1,1.536-1.957v4.039a1.5,1.5,0,0,0,2.477,1.134,11.752,11.752,0,0,1,5.079-2.564,11.6,11.6,0,0,1,2.023-.268q-.328.364-.64.739a25.14,25.14,0,0,0-3.045,4.614,1.5,1.5,0,0,0,1.845,2.092,28.18,28.18,0,0,1,5.437-1.374,27.841,27.841,0,0,1,4.854-.286q-1.027,1.056-1.947,2.207a30.343,30.343,0,0,0-3.014,4.563,1.5,1.5,0,0,0,1.845,2.113,25.127,25.127,0,0,1,5.405-1.365,20.141,20.141,0,0,1,3.444-.228c-.2.253-.4.517-.586.788a13.018,13.018,0,0,0-1.62,3.268,1.5,1.5,0,0,0,1.659,1.951,12.125,12.125,0,0,1,3.824,0q.571.09,1.128.234a19.863,19.863,0,0,0-1.9,1.511,20.078,20.078,0,0,0-1.549,1.564,1.5,1.5,0,0,0,1.242,2.486,16.18,16.18,0,0,1,4.8.327,14.812,14.812,0,0,0-4.873,6.289,1.5,1.5,0,0,0,1.956,1.953,19.279,19.279,0,0,1,5.317-1.343c.2-.021.406-.039.608-.054l-3.261,3.292a1.5,1.5,0,0,0,1.065,2.554h3.886a9.836,9.836,0,0,0-1.034,2.444,1.5,1.5,0,0,0,.608,1.639c.71.478,2.213,1.566,3.715,2.652,1.53,1.106,3.059,2.212,3.781,2.7a1.5,1.5,0,0,0,1.674-2.488c-.713-.468-2.207-1.549-3.7-2.631Zm-120.136.246c-.268.21-.508.456-.764.68a10.774,10.774,0,0,0-1.338-3.192,10.893,10.893,0,0,0-1.287-1.66,11.8,11.8,0,0,1,3.495-.55c-.166.3-.358.577-.513.878a1.5,1.5,0,0,0,.968,2.137l1.419.358a17.452,17.452,0,0,0-1.98,1.349Zm57.72-5.008a12.421,12.421,0,0,1,2.963.73,10.783,10.783,0,0,0-1.391,1.768,10.669,10.669,0,0,0-1.024,2.134,1.483,1.483,0,0,0-.369-.889c-1.125-1.26-2.311-2.479-3.519-3.67a12.261,12.261,0,0,1,3.339-.073Zm-.794-19.421c-.665.545-1.359,1.058-2.072,1.533a26.1,26.1,0,0,1-3.4,1.882,30.166,30.166,0,0,0-2.318-2.1q-.946-.771-1.954-1.463a9.779,9.779,0,0,1,1.2-.226,10.036,10.036,0,0,1,2.491,0,1.484,1.484,0,0,0,1.527-2.125c.255.157.5.328.758.48C118.695,101.161,119.958,101.839,121.247,102.458Z" transform="translate(0.003 38.589)"/>
          <path id="Path_1257405" data-name="Path 1257405" d="M21.518,101.9H1.5a1.5,1.5,0,1,0,0,3H36.038c.456,5.146,3.217,8.991,6.67,8.991s6.214-3.845,6.67-8.991h90.06c.456,5.146,3.217,8.991,6.67,8.991s6.214-3.845,6.67-8.991h34.542a1.5,1.5,0,1,0,0-3H167.3a50.428,50.428,0,0,0-2.667-5.257c-.312-.529-.634-1.055-.968-1.573a20.2,20.2,0,0,1,4.9,2.122,1.5,1.5,0,0,0,2.037-2.087c-.977-1.541-2-3.074-3.036-4.554-.9-1.289-1.839-2.567-2.8-3.823a10.749,10.749,0,0,1,1.292.162,10.949,10.949,0,0,1,5.269,2.637,1.5,1.5,0,0,0,2.378-1.708,32.09,32.09,0,0,0-1.573-3.147q-.629-1.1-1.349-2.153A39.058,39.058,0,0,1,176.05,85.2a1.5,1.5,0,0,0,2.078-2.028,42.023,42.023,0,0,0-8.211-10.2,13.9,13.9,0,0,1,3.552.412,14.068,14.068,0,0,1,5.414,2.708,1.5,1.5,0,0,0,2.336-1.717,41.289,41.289,0,0,0-3.111-6.222q-.935-1.529-2-2.976a15.676,15.676,0,0,1,1.6.625,15.485,15.485,0,0,1,4.1,2.733,1.5,1.5,0,0,0,2.516-1.14,15.567,15.567,0,0,1,1.365-6.832,15.316,15.316,0,0,1,2.73-4.1,1.5,1.5,0,0,0-2.2-2.038,18.226,18.226,0,0,0-4.737,10.054,18.473,18.473,0,0,0-9.057-3.036,1.5,1.5,0,0,0-1.2,2.5,38.039,38.039,0,0,1,4.325,5.768q.447.731.862,1.484a16.854,16.854,0,0,0-2.216-.722,17.042,17.042,0,0,0-8.218,0,1.5,1.5,0,0,0-.553,2.642,39.479,39.479,0,0,1,6.889,6.794q-.461-.2-.923-.382a42.291,42.291,0,0,0-4.662-1.554,1.5,1.5,0,0,0-1.47,2.486,29.1,29.1,0,0,1,3.2,3.965,13.581,13.581,0,0,0-6.887-.484,1.5,1.5,0,0,0-.9,2.411c1.532,1.911,3.026,3.9,4.437,5.916l.093.133a23.7,23.7,0,0,0-4.7-.986,1.5,1.5,0,0,0-1.356,2.39,47.134,47.134,0,0,1,2.9,4.358c.712,1.208,1.35,2.464,1.954,3.734H152.853V62.939a1.5,1.5,0,0,0-1.5-1.5h-1.7a11.638,11.638,0,0,0,.189-2.732,1.5,1.5,0,0,0-1.5-1.422H145.1a5.571,5.571,0,0,0,.259-1.669c0-2.616-1.708-4.666-3.889-4.666h-.607V37.123a4.145,4.145,0,0,0-4.124-4.155H116.682V8.771A4.643,4.643,0,0,0,119.44,6.4c2,.3,4.009.655,6.029,1.1a6.018,6.018,0,0,1,4.137,3.4,5.787,5.787,0,0,0-3.884,5.446v9.986a3.8,3.8,0,0,0,3.8,3.8h4.358a3.8,3.8,0,0,0,3.8-3.8V16.348a5.787,5.787,0,0,0-4.957-5.711,9.12,9.12,0,0,0-6.675-6.08c-2.084-.454-4.2-.827-6.316-1.142A4.667,4.667,0,0,0,115.184,0H73.635a4.664,4.664,0,0,0-4.544,3.415c-2.116.315-4.242.689-6.381,1.155A9.076,9.076,0,0,0,56.1,10.637a5.787,5.787,0,0,0-4.957,5.711v9.986a3.8,3.8,0,0,0,3.8,3.8H59.3a3.8,3.8,0,0,0,3.8-3.8V16.348A5.787,5.787,0,0,0,59.214,10.9a6.071,6.071,0,0,1,4.2-3.417c1.969-.43,3.97-.781,5.967-1.082a4.643,4.643,0,0,0,2.757,2.368v24.2H52.08a4.145,4.145,0,0,0-4.125,4.155V50.951h-.607c-2.18,0-3.889,2.05-3.889,4.666a5.619,5.619,0,0,0,.259,1.669H40.469a1.5,1.5,0,0,0-1.5,1.422,11.647,11.647,0,0,0,.19,2.732h-1.7a1.5,1.5,0,0,0-1.5,1.5V101.9H24.812c.6-1.272,1.244-2.527,1.954-3.734a47.851,47.851,0,0,1,2.9-4.358,1.5,1.5,0,0,0-1.356-2.39,23.489,23.489,0,0,0-4.7.986l.093-.133c1.413-2.016,2.906-4.007,4.437-5.918a1.5,1.5,0,0,0-.9-2.411,13.729,13.729,0,0,0-5.046,0,13.318,13.318,0,0,0-1.842.484,29.127,29.127,0,0,1,3.2-3.965,1.5,1.5,0,0,0-1.47-2.486,41.91,41.91,0,0,0-4.663,1.555q-.463.184-.922.381a39.48,39.48,0,0,1,6.889-6.794,1.5,1.5,0,0,0-.553-2.642,17.117,17.117,0,0,0-8.218,0A16.635,16.635,0,0,0,12.4,71.2q.414-.753.862-1.484a38.114,38.114,0,0,1,4.325-5.768,1.5,1.5,0,0,0-1.2-2.5,18.473,18.473,0,0,0-9.057,3.036,18.415,18.415,0,0,0-1.473-5.158,18.326,18.326,0,0,0-3.264-4.9A1.5,1.5,0,1,0,.4,56.464a15.316,15.316,0,0,1,2.73,4.1,15.545,15.545,0,0,1,1.365,6.832,1.5,1.5,0,0,0,2.516,1.14,15.546,15.546,0,0,1,4.1-2.733,15.335,15.335,0,0,1,1.6-.625q-1.068,1.445-2,2.976A41.358,41.358,0,0,0,7.6,74.371a1.5,1.5,0,0,0,2.336,1.717,14.11,14.11,0,0,1,5.414-2.708,13.9,13.9,0,0,1,3.552-.412,41.987,41.987,0,0,0-8.212,10.2A1.5,1.5,0,0,0,12.764,85.2a39.142,39.142,0,0,1,5.264-2.679q-.719,1.05-1.349,2.153a31.926,31.926,0,0,0-1.573,3.147,1.5,1.5,0,0,0,2.378,1.708,10.929,10.929,0,0,1,5.269-2.637,10.455,10.455,0,0,1,1.292-.162q-1.436,1.884-2.8,3.824c-1.037,1.481-2.059,3.012-3.036,4.554a1.5,1.5,0,0,0,2.037,2.087,20.4,20.4,0,0,1,2.792-1.4,20,20,0,0,1,2.108-.725q-.5.78-.968,1.573a51.284,51.284,0,0,0-2.663,5.257ZM134.68,16.348v9.986a.8.8,0,0,1-.8.8H129.52a.8.8,0,0,1-.8-.8V16.348a2.792,2.792,0,0,1,1.482-2.455v5.7a1.5,1.5,0,0,0,3,0v-5.7a2.792,2.792,0,0,1,1.482,2.455Zm-74.578,0v9.986a.8.8,0,0,1-.8.8H54.942a.8.8,0,0,1-.8-.8V16.348a2.792,2.792,0,0,1,1.482-2.455v5.7a1.5,1.5,0,0,0,3,0v-5.7A2.789,2.789,0,0,1,60.1,16.348ZM42.709,110.892c-1.773,0-3.746-3.077-3.746-7.493s1.974-7.493,3.746-7.493,3.746,3.077,3.746,7.493S44.482,110.892,42.709,110.892Zm51.7-43.071h8.043a13.695,13.695,0,0,1-16.085,0Zm-12.58,0a16.915,16.915,0,0,0,25.161,0h2.122l-1.173,7.106H80.88l-1.173-7.106Zm57.61,34.08h-4.514v-5.84h6.328A13.326,13.326,0,0,0,139.439,101.9ZM45.181,70.023l5.771,5.954v5.432H48.943a1.5,1.5,0,0,0-1.5,1.5v4.532H45.181Zm2.384,26.039h6.328v5.84H49.379a13.307,13.307,0,0,0-1.815-5.84Zm9.325,0h4.815v5.84H56.89Zm7.812,0h4.815v5.84H64.7Zm7.812,0h4.815v5.84H72.514Zm55.512-18.137c.346,0,.85.584.85,1.5s-.5,1.5-.85,1.5H60.792c-.346,0-.85-.584-.85-1.5s.5-1.5.85-1.5Zm-20.045,15.14,1.511-9.146h2.934l-1.509,9.146Zm-24.107,0-1.509-9.146h24.088l-1.509,9.146Zm-4.547-9.146,1.509,9.146H77.9l-1.511-9.146Zm1,12.143h4.815v5.84H80.326Zm7.812,0h4.773v5.84H88.136v-5.84Zm7.77,0h4.774v5.84H95.908Zm7.771,0h4.815v5.84h-4.815Zm7.812,0h4.815v5.84h-4.815Zm7.812,0h4.815v5.84H119.3Zm7.81,0h4.815v5.84h-4.815Zm12.763-14.654h-2.01V75.976l5.771-5.954V87.439h-2.264V82.907a1.5,1.5,0,0,0-1.5-1.5Zm-4.584-7.081a1.5,1.5,0,0,0-.423,1.041v7.538a1.5,1.5,0,0,0,1.5,1.5h2.008v4.532a1.5,1.5,0,0,0,1.5,1.5h3.763v2.63H113.955l1.511-9.146h12.562c2.12,0,3.845-2.017,3.845-4.5s-1.725-4.5-3.847-4.5H116.949l1.173-7.106H141.6Zm-21.381.6h-2.934l1.173-7.106h2.934ZM76.669,67.821l1.173,7.106H74.909l-1.173-7.106Zm-5.973,0,1.173,7.106H60.792c-2.12,0-3.847,2.017-3.847,4.5s1.725,4.5,3.847,4.5H73.355l1.509,9.146H45.181v-2.63h3.763a1.5,1.5,0,0,0,1.5-1.5V84.4H52.45a1.5,1.5,0,0,0,1.5-1.5V75.368a1.5,1.5,0,0,0-.423-1.043l-6.3-6.5Zm75.413,43.071c-1.773,0-3.746-3.077-3.746-7.493s1.974-7.493,3.746-7.493,3.746,3.077,3.746,7.493S147.882,110.892,146.109,110.892Zm3.746-46.455V94.632a5.372,5.372,0,0,0-3.22-1.683V66.963a10.186,10.186,0,0,0,1.467-1.69c.186-.277.351-.556.5-.836h1.253Zm-7.493-8.82c0,1-.536,1.669-.892,1.669H119.885V53.948h21.587c.355,0,.892.665.892,1.669ZM68.934,50.951h-3V40.686h6.2v6.6l-2.342,1.1a1.5,1.5,0,0,0-.86,1.356Zm3-.259,2.342-1.1a1.5,1.5,0,0,0,.86-1.356V9.027H78.02v37.7a1.5,1.5,0,0,0,1.849,1.458,62.368,62.368,0,0,1,29.079,0,1.476,1.476,0,0,0,.351.042,1.5,1.5,0,0,0,1.5-1.5V9.027h2.886v39.2a1.5,1.5,0,0,0,.86,1.356l2.344,1.1V57.58a108.548,108.548,0,0,1-44.956,0ZM93.718,9.027,88.325,22.3l-3.047-5a1.5,1.5,0,0,0-2.56,1.561l11.946,19.6a1.5,1.5,0,1,0,2.56-1.561L90.266,25.484,96.954,9.029H107.8V44.852a65.355,65.355,0,0,0-26.785,0V9.027Zm29.163,41.923h-3V49.74a1.5,1.5,0,0,0-.86-1.356l-2.342-1.1v-6.6h6.2Zm10.49,0h-3V40.461h1.542a1.457,1.457,0,0,1,1.455,1.455Zm3.369-14.985a1.144,1.144,0,0,1,1.127,1.158V50.951h-1.5V41.916a4.457,4.457,0,0,0-4.452-4.452h-3.041a1.5,1.5,0,0,0-1.5,1.5V50.951h-1.5V39.187a1.5,1.5,0,0,0-1.5-1.5h-7.7V35.965ZM73.635,3h41.549a1.62,1.62,0,0,1,1.7,1.517,1.62,1.62,0,0,1-1.7,1.517H73.635a1.62,1.62,0,0,1-1.7-1.517A1.62,1.62,0,0,1,73.635,3ZM50.951,37.124a1.145,1.145,0,0,1,1.128-1.158H72.138v1.723h-7.7a1.5,1.5,0,0,0-1.5,1.5V50.951h-1.5V38.962a1.5,1.5,0,0,0-1.5-1.5H56.9a4.458,4.458,0,0,0-4.452,4.452v9.035h-1.5Zm4.5,13.827V41.916A1.458,1.458,0,0,1,56.9,40.461h1.542v10.49Zm-8.991,4.666c0-1,.538-1.669.892-1.669H68.934v3.34H47.347c-.354,0-.892-.667-.892-1.671Zm.892,4.668H70.292a111.3,111.3,0,0,0,24.118,2.654,111.309,111.309,0,0,0,24.118-2.654H146.81a7.423,7.423,0,0,1-1.2,3.318,7.113,7.113,0,0,1-1.04,1.221H44.245a7.124,7.124,0,0,1-1.04-1.223,7.423,7.423,0,0,1-1.2-3.318h5.338Zm-7.132,4.152c.151.279.315.557.5.835a10.257,10.257,0,0,0,1.467,1.69V92.949a5.372,5.372,0,0,0-3.22,1.683V64.438Z" transform="translate(0.002 0)"/>
        </g>
      </g>
    </g>
  </g>
</svg>
