<svg xmlns="http://www.w3.org/2000/svg" width="98" height="98" viewBox="0 0 98 98">
  <g id="Group_1203869" data-name="Group 1203869" transform="translate(-210.051 -3407)">
    <circle id="Ellipse_12678" data-name="Ellipse 12678" cx="49" cy="49" r="49" transform="translate(210.051 3407)" fill="#f5f8fd"/>
    <g id="Group_1203868" data-name="Group 1203868" transform="translate(228.051 3413.707)">
      <g id="Group_1203866" data-name="Group 1203866" transform="translate(0.907 14.208)">
        <path id="Path_1257293" data-name="Path 1257293" d="M67.582,387.657H7.5V376.118l30.041-2.732,30.041,2.732Z" transform="translate(-7.5 -330.769)" fill="#d98f61"/>
        <path id="Path_1257294" data-name="Path 1257294" d="M39.354,373.551l-1.813-.165L7.5,376.118v11.538h3.627V376.118Z" transform="translate(-7.5 -330.769)" fill="#d37f50"/>
        <path id="Path_1257295" data-name="Path 1257295" d="M67.582,200.1l-30.041,2.782L7.5,200.1v-3.755H67.582Z" transform="translate(-7.5 -175.13)" fill="#b2e59f"/>
        <path id="Path_1257296" data-name="Path 1257296" d="M11.127,200.1v-3.755H7.5V200.1l30.041,2.782,1.813-.168Z" transform="translate(-7.5 -175.13)" fill="#95d6a4"/>
        <path id="Path_1257297" data-name="Path 1257297" d="M7.5,268.013V252.986l3.063-1.878,26.977-.693,27.074.693,2.966,1.878v15.028Z" transform="translate(-7.5 -222.664)" fill="#bd6629"/>
        <path id="Path_1257298" data-name="Path 1257298" d="M14.19,255.377l-3.627.093L7.5,257.348v15.027h3.627V257.348Z" transform="translate(-7.5 -227.026)" fill="#a45924"/>
        <path id="Path_1257299" data-name="Path 1257299" d="M7.5,232.759c2.917.028,2.946,1.45,5.92,1.45,3,0,3-1.451,6.008-1.451s3,1.451,6.008,1.451,3-1.451,6.008-1.451,3,1.451,6.008,1.451,3-1.451,6.008-1.451,3,1.451,6.008,1.451,3-1.451,6.008-1.451,3,1.451,6.009,1.451,3-1.451,6.009-1.451h.088v-5.352H7.5Z" transform="translate(-7.5 -202.437)" fill="#d98f61"/>
        <circle id="Ellipse_12724" data-name="Ellipse 12724" cx="1.878" cy="1.878" r="1.878" transform="translate(9.388 49.377)" fill="#f3cbb1"/>
        <circle id="Ellipse_12725" data-name="Ellipse 12725" cx="1.878" cy="1.878" r="1.878" transform="translate(37.551 49.377)" fill="#f3cbb1"/>
        <g id="Group_1203865" data-name="Group 1203865" transform="translate(6.006 0)">
          <g id="Group_1203863" data-name="Group 1203863" transform="translate(25.912)">
            <path id="Path_1257300" data-name="Path 1257300" d="M280.248,35.093c-3.8,1.021-7.415-.14-8.467-3.906-1.07-3.834,1.393-7.558,5.15-8.874,9.4-3.293,15.933.036,15.933.036C287.677,23.745,287.111,33.248,280.248,35.093Z" transform="translate(-271.53 -20.86)" fill="#95d6a4"/>
          </g>
          <path id="Path_1257301" data-name="Path 1257301" d="M275.408,31.189c-1.07-3.834,1.393-7.558,5.15-8.874a25.51,25.51,0,0,1,6.433-1.382,24.347,24.347,0,0,0-10.06,1.382c-3.757,1.316-6.221,5.039-5.15,8.874.99,3.546,4.255,4.782,7.8,4.062A5.493,5.493,0,0,1,275.408,31.189Z" transform="translate(-245.617 -20.861)" fill="#85c691"/>
          <g id="Group_1203864" data-name="Group 1203864" transform="translate(0 2.561)">
            <path id="Path_1257302" data-name="Path 1257302" d="M69.747,56.3c3.793,1.037,7.416-.109,8.483-3.871,1.086-3.83-1.362-7.563-5.114-8.894C63.724,40.2,57.183,43.5,57.183,43.5,62.365,44.918,62.892,54.423,69.747,56.3Z" transform="translate(-57.183 -42.042)" fill="#95d6a4"/>
          </g>
          <path id="Path_1257303" data-name="Path 1257303" d="M73.374,56.3c-5.612-1.533-6.983-8.181-10.138-11.319A1.478,1.478,0,0,1,63.99,42.5a20.763,20.763,0,0,1,2.6-.377,19.119,19.119,0,0,0-9.412,1.386c5.182,1.416,5.709,10.921,12.564,12.795a8.784,8.784,0,0,0,4.323.166Q73.724,56.4,73.374,56.3Z" transform="translate(-57.183 -39.485)" fill="#85c691"/>
        </g>
      </g>
      <g id="Group_1203867" data-name="Group 1203867" transform="translate(0 13.293)">
        <path id="Path_1257304" data-name="Path 1257304" d="M60.988,34.515H32.045a19.437,19.437,0,0,1,1.927-6.692A7.062,7.062,0,0,0,39,29.7h0c9.87,0,10.255-11.746,15.4-13.129a.9.9,0,0,0,.67-.88c0-1.383-5.193-2.4-8.559-2.4-4.575,0-14.591,1.446-14.591,9.459a7.39,7.39,0,0,0,.865,3.479,17.4,17.4,0,0,0-1.553,3.479,20.251,20.251,0,0,0-2.407-2.275,7.683,7.683,0,0,0,.3-2.135c0-7.1-8.492-8.839-9.346-8.839a.907.907,0,0,0-.2,1.791c.758.171,7.727,1.3,7.727,7.066a5.773,5.773,0,0,1-.081.963c-2.341-1.528-3.842-1.907-7.406-3.479a.907.907,0,1,0-.705,1.671l4.223,1.783a18.4,18.4,0,0,1,3.282,1.8,4.9,4.9,0,0,1-4.561,2.422c-7.719,0-8.5-8.812-12.866-12.108a21.281,21.281,0,0,1,6.637-.656.907.907,0,0,0,.05-1.812q-.717-.042-1.389-.04c-3.31,0-8.485.967-8.485,2.363a.9.9,0,0,0,.666.878c5.176,1.414,5.436,13.192,15.383,13.192a6.751,6.751,0,0,0,6.011-3.132,18.4,18.4,0,0,1,2.584,2.68,26.508,26.508,0,0,0-.432,2.672H.907A.907.907,0,0,0,0,35.422C0,53.6,0,71.1,0,71.1A.907.907,0,0,0,.907,72H60.988c1.187,0,.906-1.021.906-5.593V35.422A.907.907,0,0,0,60.988,34.515Zm-27.255-11.8c0-7.742,12.629-7.6,12.8-7.6a19.624,19.624,0,0,1,5.342.714c-4.367,3.275-5.188,12.053-12.884,12.053a5.137,5.137,0,0,1-4.048-1.653c3.515-4.913,7.038-3.622,7.038-5.4,0-.1-.015-.173-.019-.153a.909.909,0,0,0-.882-.7A13.134,13.134,0,0,0,34,24.47,5.886,5.886,0,0,1,33.734,22.715ZM60.082,36.328V38.27H51.788a.907.907,0,1,0,0,1.813h8.293V43.66c-2.517.236-2.713,1.413-5.19,1.413-2.684,0-2.794-1.451-6.009-1.451-3.231,0-3.3,1.451-6.008,1.451-2.684,0-2.794-1.451-6.008-1.451-2.777,0-3.321,1.114-5.034,1.382v-4.92h16a.907.907,0,1,0,0-1.813h-16c.005-.352,0-.889.055-1.942ZM1.813,40.084H30.019v4.94c-1.844-.237-2.314-1.4-5.168-1.4-3.231,0-3.3,1.451-6.008,1.451-2.684,0-2.794-1.451-6.008-1.451-3.231,0-3.3,1.451-6.008,1.451-2.441,0-2.622-1.113-5.014-1.395Zm0-3.755H30.072c-.056,1.052-.05,1.748-.052,1.942H1.813Zm58.268,33.86H1.813V60.737H13.951a.907.907,0,1,0,0-1.813H1.813V45.508c1.694.272,2.246,1.378,5.014,1.378,3.231,0,3.3-1.451,6.008-1.451,2.684,0,2.794,1.451,6.008,1.451,3.231,0,3.3-1.451,6.008-1.451,2.472,0,2.668,1.17,5.168,1.412v2.465l-5.536,1.746c-3.619-1.936-3.524-2.025-3.934-2.025a.908.908,0,0,0-.436,1.7l3.075,1.682-1.576,3.19a.907.907,0,1,0,1.626.8l1.79-3.623,4.991-1.574v2.7a.907.907,0,0,0,1.813,0v-2.68l4.917,1.551,1.79,3.623a.907.907,0,1,0,1.626-.8l-1.576-3.19,3.075-1.682a.907.907,0,1,0-.87-1.591l-3.5,1.914-5.463-1.723v-2.5c2.41-.276,2.585-1.4,5.034-1.4,2.684,0,2.794,1.451,6.008,1.451,3.231,0,3.3-1.451,6.008-1.451,2.684,0,2.794,1.451,6.009,1.451,2.881,0,3.307-1.169,5.19-1.4v13.44H17.9a.907.907,0,0,0,0,1.813H60.082Z" transform="translate(0 -13.293)"/>
        <path id="Path_1257305" data-name="Path 1257305" d="M31.962,452.875a.907.907,0,1,0,.911.907A.909.909,0,0,0,31.962,452.875Z" transform="translate(-27.303 -399.734)"/>
        <path id="Path_1257306" data-name="Path 1257306" d="M80.44,421.811a2.784,2.784,0,1,0,2.784,2.784A2.787,2.787,0,0,0,80.44,421.811Zm0,3.755a.971.971,0,1,1,.971-.971A.972.972,0,0,1,80.44,425.566Z" transform="translate(-68.268 -372.426)"/>
        <path id="Path_1257307" data-name="Path 1257307" d="M313.407,427.379a2.784,2.784,0,1,0-2.784-2.784A2.787,2.787,0,0,0,313.407,427.379Zm0-3.755a.971.971,0,1,1-.971.971A.972.972,0,0,1,313.407,423.624Z" transform="translate(-273.072 -372.426)"/>
        <path id="Path_1257308" data-name="Path 1257308" d="M171.745,423.62a.907.907,0,1,0-.907-.907A.907.907,0,0,0,171.745,423.62Z" transform="translate(-150.186 -372.422)"/>
        <path id="Path_1257309" data-name="Path 1257309" d="M249.225,445.013a.906.906,0,1,0-.711-.711A.907.907,0,0,0,249.225,445.013Z" transform="translate(-218.456 -391.245)"/>
        <path id="Path_1257310" data-name="Path 1257310" d="M404.892,454.67a.907.907,0,1,0-1.084-.889A.906.906,0,0,0,404.892,454.67Z" transform="translate(-354.992 -399.733)"/>
        <path id="Path_1257311" data-name="Path 1257311" d="M466.667,432.341a.906.906,0,1,0-.729-.888A.907.907,0,0,0,466.667,432.341Z" transform="translate(-409.611 -380.104)"/>
      </g>
    </g>
  </g>
</svg>
