<svg xmlns="http://www.w3.org/2000/svg" xmlns:xlink="http://www.w3.org/1999/xlink" width="295" height="103" viewBox="0 0 295 103">
  <defs>
    <clipPath id="clip-path">
      <rect id="Rectangle_411637" data-name="Rectangle 411637" width="295" height="103" rx="10" transform="translate(180.051 7608)" fill="#5a8441"/>
    </clipPath>
  </defs>
  <g id="Group_1203942" data-name="Group 1203942" transform="translate(-180.051 -7608)">
    <g id="Mask_Group_1099555" data-name="Mask Group 1099555" clip-path="url(#clip-path)">
      <rect id="Rectangle_411426" data-name="Rectangle 411426" width="295" height="103" rx="10" transform="translate(180.051 7608)" fill="#5a8441"/>
      <g id="Group_1203941" data-name="Group 1203941" transform="translate(0 12)">
        <g id="Ellipse_12727" data-name="Ellipse 12727" transform="translate(312.051 7647)" fill="#1ca56f" stroke="#000" stroke-width="5">
          <circle cx="95" cy="95" r="95" stroke="none"/>
          <circle cx="95" cy="95" r="92.5" fill="none"/>
        </g>
        <g id="Ellipse_12728" data-name="Ellipse 12728" transform="translate(312.051 7662)" fill="#0f7a4f" stroke="#000" stroke-width="5">
          <circle cx="95" cy="95" r="95" stroke="none"/>
          <circle cx="95" cy="95" r="92.5" fill="none"/>
        </g>
        <g id="Ellipse_12729" data-name="Ellipse 12729" transform="translate(312.051 7676)" fill="#1ca56f" stroke="#000" stroke-width="5">
          <circle cx="95" cy="95" r="95" stroke="none"/>
          <circle cx="95" cy="95" r="92.5" fill="none"/>
        </g>
        <g id="Ellipse_12730" data-name="Ellipse 12730" transform="translate(312.051 7691)" fill="#0f7a4f" stroke="#000" stroke-width="5">
          <circle cx="95" cy="95" r="95" stroke="none"/>
          <circle cx="95" cy="95" r="92.5" fill="none"/>
        </g>
        <g id="Ellipse_12731" data-name="Ellipse 12731" transform="translate(312.051 7706)" fill="#1ca56f" stroke="#000" stroke-width="5">
          <circle cx="95" cy="95" r="95" stroke="none"/>
          <circle cx="95" cy="95" r="92.5" fill="none"/>
        </g>
        <g id="Ellipse_12732" data-name="Ellipse 12732" transform="translate(312.051 7720)" fill="#0f7a4f" stroke="#000" stroke-width="5">
          <circle cx="95" cy="95" r="95" stroke="none"/>
          <circle cx="95" cy="95" r="92.5" fill="none"/>
        </g>
      </g>
      <g id="Ellipse_12727-2" data-name="Ellipse 12727" transform="translate(151.051 7659)" fill="#bcea73" stroke="#000" stroke-width="5">
        <circle cx="95" cy="95" r="95" stroke="none"/>
        <circle cx="95" cy="95" r="92.5" fill="none"/>
      </g>
      <g id="Ellipse_12728-2" data-name="Ellipse 12728" transform="translate(151.051 7674)" fill="#8dc637" stroke="#000" stroke-width="5">
        <circle cx="95" cy="95" r="95" stroke="none"/>
        <circle cx="95" cy="95" r="92.5" fill="none"/>
      </g>
      <g id="Ellipse_12729-2" data-name="Ellipse 12729" transform="translate(151.051 7688)" fill="#bcea73" stroke="#000" stroke-width="5">
        <circle cx="95" cy="95" r="95" stroke="none"/>
        <circle cx="95" cy="95" r="92.5" fill="none"/>
      </g>
      <g id="Ellipse_12730-2" data-name="Ellipse 12730" transform="translate(151.051 7703)" fill="#8dc637" stroke="#000" stroke-width="5">
        <circle cx="95" cy="95" r="95" stroke="none"/>
        <circle cx="95" cy="95" r="92.5" fill="none"/>
      </g>
      <g id="Ellipse_12731-2" data-name="Ellipse 12731" transform="translate(151.051 7718)" fill="#bcea73" stroke="#000" stroke-width="5">
        <circle cx="95" cy="95" r="95" stroke="none"/>
        <circle cx="95" cy="95" r="92.5" fill="none"/>
      </g>
      <g id="Ellipse_12732-2" data-name="Ellipse 12732" transform="translate(151.051 7732)" fill="#8dc637" stroke="#000" stroke-width="5">
        <circle cx="95" cy="95" r="95" stroke="none"/>
        <circle cx="95" cy="95" r="92.5" fill="none"/>
      </g>
      <g id="Group_1203940" data-name="Group 1203940" transform="translate(241.536 7571.995)">
        <g id="Group_1203938" data-name="Group 1203938" transform="translate(2.52 62.015)">
          <g id="Group_1203931" data-name="Group 1203931" transform="translate(46.434)">
            <g id="Group_1203930" data-name="Group 1203930">
              <circle id="Ellipse_12726" data-name="Ellipse 12726" cx="37.573" cy="37.573" r="37.573" transform="translate(0 0.001)" fill="#fcb44d"/>
              <path id="Path_1257409" data-name="Path 1257409" d="M276.832,140.327a37.605,37.605,0,0,1-46.817,36.428,36.46,36.46,0,0,0,0-72.856,37.605,37.605,0,0,1,46.817,36.428Z" transform="translate(-201.686 -102.753)" fill="#fb9927"/>
            </g>
          </g>
          <g id="Group_1203937" data-name="Group 1203937" transform="translate(0 27.601)">
            <g id="Group_1203936" data-name="Group 1203936">
              <g id="Group_1203933" data-name="Group 1203933" transform="translate(27.873)">
                <g id="Group_1203932" data-name="Group 1203932">
                  <path id="Path_1257410" data-name="Path 1257410" d="M229.571,184.9A152.231,152.231,0,0,0,90.456,278.373H229.571Z" transform="translate(-90.456 -184.901)" fill="#1ca56f"/>
                  <path id="Path_1257411" data-name="Path 1257411" d="M155.307,307.306a128.388,128.388,0,0,1,117.326-78.831v78.831Z" transform="translate(-133.518 -213.835)" fill="#0f7a4f"/>
                  <path id="Path_1257412" data-name="Path 1257412" d="M220.158,336.239a104.545,104.545,0,0,1,95.537-64.191v64.191Z" transform="translate(-176.579 -242.767)" fill="#1ca56f"/>
                  <path id="Path_1257413" data-name="Path 1257413" d="M285.009,365.173a80.7,80.7,0,0,1,73.747-49.551v49.551Z" transform="translate(-219.641 -271.701)" fill="#0f7a4f"/>
                  <path id="Path_1257414" data-name="Path 1257414" d="M349.86,394.106A56.857,56.857,0,0,1,401.818,359.2v34.911Z" transform="translate(-262.702 -300.634)" fill="#1ca56f"/>
                  <path id="Path_1257415" data-name="Path 1257415" d="M414.711,423.039a33.012,33.012,0,0,1,30.168-20.27v20.27Z" transform="translate(-305.764 -329.567)" fill="#0f7a4f"/>
                </g>
              </g>
              <g id="Group_1203935" data-name="Group 1203935">
                <g id="Group_1203934" data-name="Group 1203934">
                  <path id="Path_1257416" data-name="Path 1257416" d="M7.5,184.9a152.231,152.231,0,0,1,139.115,93.472H7.5Z" transform="translate(-7.5 -184.901)" fill="#bcea73"/>
                  <path id="Path_1257417" data-name="Path 1257417" d="M124.826,307.306A128.388,128.388,0,0,0,7.5,228.475v78.831Z" transform="translate(-7.5 -213.835)" fill="#8dc637"/>
                  <path id="Path_1257418" data-name="Path 1257418" d="M103.037,336.239A104.545,104.545,0,0,0,7.5,272.048v64.191Z" transform="translate(-7.5 -242.767)" fill="#bcea73"/>
                  <path id="Path_1257419" data-name="Path 1257419" d="M81.247,365.173A80.7,80.7,0,0,0,7.5,315.622v49.551Z" transform="translate(-7.5 -271.701)" fill="#8dc637"/>
                  <path id="Path_1257420" data-name="Path 1257420" d="M59.458,394.106A56.856,56.856,0,0,0,7.5,359.2v34.911Z" transform="translate(-7.5 -300.634)" fill="#bcea73"/>
                  <path id="Path_1257421" data-name="Path 1257421" d="M37.668,423.039A33.012,33.012,0,0,0,7.5,402.769v20.27Z" transform="translate(-7.5 -329.567)" fill="#8dc637"/>
                </g>
              </g>
            </g>
          </g>
        </g>
        <g id="Group_1203939" data-name="Group 1203939" transform="translate(0 41.401)">
          <path id="Path_1257422" data-name="Path 1257422" d="M252.549,50.825a2.52,2.52,0,0,0,2.52-2.52V43.921a2.52,2.52,0,0,0-5.04,0V48.3A2.52,2.52,0,0,0,252.549,50.825Z" transform="translate(-166.021 -41.401)"/>
          <path id="Path_1257423" data-name="Path 1257423" d="M360.478,98.068a2.514,2.514,0,0,0,1.782-.738l3.1-3.1a2.52,2.52,0,0,0-3.564-3.564l-3.1,3.1a2.52,2.52,0,0,0,1.782,4.3Z" transform="translate(-237.687 -73.624)"/>
          <path id="Path_1257424" data-name="Path 1257424" d="M136.711,97.33a2.52,2.52,0,1,0,3.564-3.564l-3.1-3.1a2.52,2.52,0,1,0-3.564,3.564Z" transform="translate(-88.229 -73.623)"/>
          <path id="Path_1257425" data-name="Path 1257425" d="M268.089,101.4a34.871,34.871,0,0,1,29.79,30.3q-5.945,2.012-11.749,4.515a2.52,2.52,0,1,0,2,4.627,148.658,148.658,0,0,1,57.978-12.2,2.52,2.52,0,0,0-.021-5.04h-.022a154.144,154.144,0,0,0-43.314,6.539A40.092,40.092,0,0,0,268.8,96.408a2.52,2.52,0,0,0-.711,4.989Z" transform="translate(-176.576 -77.909)"/>
          <path id="Path_1257426" data-name="Path 1257426" d="M188.493,61.545a2.52,2.52,0,0,0,4.656-1.929l-1.678-4.05a2.52,2.52,0,0,0-4.656,1.929Z" transform="translate(-123.919 -49.773)"/>
          <path id="Path_1257427" data-name="Path 1257427" d="M309.994,62.907a2.518,2.518,0,0,0,3.292-1.364l1.678-4.05a2.52,2.52,0,1,0-4.656-1.929l-1.678,4.05A2.519,2.519,0,0,0,309.994,62.907Z" transform="translate(-204.805 -49.772)"/>
          <path id="Path_1257428" data-name="Path 1257428" d="M393.565,150.4a2.517,2.517,0,0,0,.963-.193l4.05-1.678a2.52,2.52,0,0,0-1.929-4.656l-4.05,1.678a2.52,2.52,0,0,0,.965,4.849Z" transform="translate(-259.656 -109.313)"/>
          <path id="Path_1257429" data-name="Path 1257429" d="M98.511,148.525l4.05,1.678a2.52,2.52,0,1,0,1.929-4.656l-4.05-1.678a2.52,2.52,0,0,0-1.929,4.656Z" transform="translate(-64.379 -109.313)"/>
          <path id="Path_1257430" data-name="Path 1257430" d="M172.028,140.825a2.52,2.52,0,0,0-2.52-2.5h-.022A130.412,130.412,0,0,0,99.775,159.15q-4.474-3.7-9.244-7.076c3.658-2.329,7.442-4.518,11.286-6.519a2.52,2.52,0,0,0-2.328-4.47,155.387,155.387,0,0,0-13.473,7.907,153.9,153.9,0,0,0-34.3-16.867,34.948,34.948,0,0,1,29.555-30.605,2.52,2.52,0,1,0-.749-4.984,39.986,39.986,0,0,0-33.69,33.993,154.754,154.754,0,0,0-44.288-6.841H2.52a2.52,2.52,0,0,0-.021,5.04,149.547,149.547,0,0,1,136.812,91.925,2.52,2.52,0,0,0,4.649-1.946c-.2-.483-.412-.962-.619-1.443a30.585,30.585,0,0,1,26.189-15.334,2.52,2.52,0,0,0-.021-5.04h-.022A35.647,35.647,0,0,0,140.867,211.8q-2.816-5.9-6.107-11.527a54.254,54.254,0,0,1,34.771-12.986,2.52,2.52,0,0,0-.021-5.04h-.022a59.289,59.289,0,0,0-37.373,13.669q-3.029-4.806-6.4-9.372a77.576,77.576,0,0,1,43.817-13.9,2.52,2.52,0,0,0-.021-5.04h-.022a82.588,82.588,0,0,0-46.835,14.925q-3.443-4.359-7.2-8.464a101.561,101.561,0,0,1,54.074-16.061,2.52,2.52,0,0,0-.021-5.04h-.022a106.585,106.585,0,0,0-57.546,17.377q-3.932-4.026-8.164-7.77a125.388,125.388,0,0,1,65.753-19.207,2.521,2.521,0,0,0,2.5-2.542Z" transform="translate(0 -77.991)"/>
          <path id="Path_1257431" data-name="Path 1257431" d="M75.211,243.759A130.208,130.208,0,0,0,2.542,220.975H2.52a2.52,2.52,0,0,0-.021,5.04A125.73,125.73,0,0,1,117.522,303.3a2.52,2.52,0,0,0,4.649-1.946A130.9,130.9,0,0,0,75.211,243.759Z" transform="translate(0 -160.64)"/>
          <path id="Path_1257432" data-name="Path 1257432" d="M142.746,298.941a2.52,2.52,0,1,0-2.3,4.484,102.335,102.335,0,0,1,47.634,51.459,2.52,2.52,0,0,0,4.649-1.946A107.382,107.382,0,0,0,142.746,298.941Z" transform="translate(-92.347 -212.225)"/>
          <path id="Path_1257433" data-name="Path 1257433" d="M38.3,276.387a2.52,2.52,0,0,0,1.814-4.7,106.578,106.578,0,0,0-37.573-7.137H2.519a2.52,2.52,0,0,0-.021,5.04A101.558,101.558,0,0,1,38.3,276.387Z" transform="translate(0 -189.572)"/>
          <path id="Path_1257434" data-name="Path 1257434" d="M2.542,308.122H2.52a2.52,2.52,0,0,0-.021,5.04,78.094,78.094,0,0,1,71.444,48,2.52,2.52,0,0,0,4.649-1.946,83.131,83.131,0,0,0-76.051-51.1Z" transform="translate(0 -218.506)"/>
          <path id="Path_1257435" data-name="Path 1257435" d="M2.542,351.7H2.52a2.52,2.52,0,0,0-.021,5.04A54.276,54.276,0,0,1,52.154,390.1a2.52,2.52,0,0,0,4.649-1.946A59.312,59.312,0,0,0,2.542,351.7Z" transform="translate(0 -247.439)"/>
          <path id="Path_1257436" data-name="Path 1257436" d="M2.542,395.269H2.52a2.52,2.52,0,0,0-.021,5.04,30.46,30.46,0,0,1,27.865,18.723,2.52,2.52,0,0,0,4.649-1.946A35.495,35.495,0,0,0,2.542,395.269Z" transform="translate(0 -276.372)"/>
        </g>
      </g>
    </g>
  </g>
</svg>
