<svg xmlns="http://www.w3.org/2000/svg" width="85" height="85" viewBox="0 0 85 85">
  <g id="Group_1203819" data-name="Group 1203819" transform="translate(-705.051 -721)">
    <circle id="Ellipse_12677" data-name="Ellipse 12677" cx="42.5" cy="42.5" r="42.5" transform="translate(705.051 721)" fill="#a1c6f1"/>
    <g id="Group_1203818" data-name="Group 1203818" transform="translate(718.051 734)">
      <g id="Group_1203816" data-name="Group 1203816" transform="translate(17.852 8.652)">
        <path id="Path_1257169" data-name="Path 1257169" d="M258.628,264.279a8.67,8.67,0,0,0-2.185,8.742,8.757,8.757,0,0,0,10.928-10.928A8.671,8.671,0,0,0,258.628,264.279Z" transform="translate(-244.331 -240.13)" fill="#ffc66c"/>
        <path id="Path_1257170" data-name="Path 1257170" d="M154.958,262.093a8.757,8.757,0,0,0,10.928,10.928,8.757,8.757,0,0,0-10.928-10.928Z" transform="translate(-154.566 -240.13)" fill="#ffc66c"/>
        <path id="Path_1257171" data-name="Path 1257171" d="M258.628,171.207a8.67,8.67,0,0,0-2.185,8.742,8.757,8.757,0,0,0,10.928-10.928A8.671,8.671,0,0,0,258.628,171.207Z" transform="translate(-244.331 -157.808)" fill="#ffc66c"/>
        <path id="Path_1257172" data-name="Path 1257172" d="M215.912,82.641a8.67,8.67,0,0,0,4.636,7.727,8.757,8.757,0,0,0,0-15.454A8.671,8.671,0,0,0,215.912,82.641Z" transform="translate(-208.827 -74.914)" fill="#ffc66c"/>
        <path id="Path_1257173" data-name="Path 1257173" d="M154.958,169.021a8.757,8.757,0,0,0,10.928,10.928,8.757,8.757,0,0,0-10.928-10.928Z" transform="translate(-154.566 -157.807)" fill="#ffc66c"/>
      </g>
      <g id="Group_1203817" data-name="Group 1203817" transform="translate(6.705 5.781)">
        <circle id="Ellipse_12709" data-name="Ellipse 12709" cx="3.234" cy="3.234" r="3.234" transform="translate(39.258)" fill="#ff5d5d"/>
        <circle id="Ellipse_12710" data-name="Ellipse 12710" cx="3.234" cy="3.234" r="3.234" transform="translate(0 41.106)" fill="#ff5d5d"/>
      </g>
      <path id="Path_1257174" data-name="Path 1257174" d="M145.039,87.707a9.811,9.811,0,0,0,2.477,9.884,9.584,9.584,0,0,0,6.932,2.919,10.33,10.33,0,0,0,1.859-.169V107.9a1.155,1.155,0,1,0,2.31,0v-7.56a10.347,10.347,0,0,0,1.875.172,9.585,9.585,0,0,0,6.932-2.919,9.811,9.811,0,0,0,2.477-9.884,1.155,1.155,0,0,0-.712-.76,8.213,8.213,0,0,0-1.524-.356,9.814,9.814,0,0,0,2.236-9.633,1.155,1.155,0,0,0-.712-.76,9.94,9.94,0,0,0-6.211.065,10.376,10.376,0,0,0,.288-2.467,9.81,9.81,0,0,0-5.237-8.74,1.154,1.154,0,0,0-1.041-.034,9.775,9.775,0,0,0-5.3,8.775,10.375,10.375,0,0,0,.289,2.472,9.939,9.939,0,0,0-6.225-.07,1.155,1.155,0,0,0-.712.76,9.814,9.814,0,0,0,2.236,9.633,8.212,8.212,0,0,0-1.524.356A1.156,1.156,0,0,0,145.039,87.707Zm20.753,8.25a7.455,7.455,0,0,1-6.986,2.066,7.491,7.491,0,0,1,2.063-6.989,7.626,7.626,0,0,1,2.6-1.735q.247-.079.5-.175a7.677,7.677,0,0,1,3.881-.157A7.448,7.448,0,0,1,165.793,95.957Zm2.059-17.74a7.447,7.447,0,0,1-2.059,6.99,7.627,7.627,0,0,1-2.6,1.732q-.251.081-.506.179a7.672,7.672,0,0,1-3.884.154,7.754,7.754,0,0,1-.179-1.627c0-.01,0-.02,0-.029a7.312,7.312,0,0,1,1.785-4.835c.17-.169.341-.351.511-.547A7.454,7.454,0,0,1,167.851,78.217ZM157.472,67.4a7.447,7.447,0,0,1,3.487,6.4,7.367,7.367,0,0,1-1.728,4.861c-.187.187-.362.377-.527.567a7.755,7.755,0,0,1-1.224.973,7.853,7.853,0,0,1-1.413-1.168c-.054-.059-.109-.118-.165-.178A7.368,7.368,0,0,1,154,73.795,7.456,7.456,0,0,1,157.472,67.4ZM147.091,78.219a7.491,7.491,0,0,1,6.982,2.065l.049.051q.152.17.3.327a7.314,7.314,0,0,1,1.882,4.558v.771a7.7,7.7,0,0,1-.17,1.282,7.675,7.675,0,0,1-3.888-.155q-.25-.1-.5-.176a7.627,7.627,0,0,1-2.6-1.734A7.447,7.447,0,0,1,147.091,78.219Zm0,10.75a7.745,7.745,0,0,1,3.968.187q.166.062.33.117a7.572,7.572,0,0,1,2.684,1.76,7.363,7.363,0,0,1,2.235,4.936v.771a7.7,7.7,0,0,1-.17,1.282,7.62,7.62,0,0,1-9.048-9.053Z" transform="translate(-127.904 -57.415)"/>
      <path id="Path_1257175" data-name="Path 1257175" d="M9.939,45.731a4.369,4.369,0,0,0-1.968.465A27.27,27.27,0,0,1,35.251,2.9,1.155,1.155,0,0,0,35.73.643,29.767,29.767,0,0,0,29.568,0,29.567,29.567,0,0,0,6.248,47.745a4.389,4.389,0,1,0,3.691-2.013Zm1.47,5.859h0a2.079,2.079,0,1,1,.609-1.47A2.081,2.081,0,0,1,11.409,51.59Z" transform="translate(0)"/>
      <path id="Path_1257176" data-name="Path 1257176" d="M232.048,46.816a4.383,4.383,0,1,0-1.723,1.548,27.27,27.27,0,0,1-26.412,43.463,1.155,1.155,0,0,0-.405,2.274,29.844,29.844,0,0,0,5.22.46,29.567,29.567,0,0,0,23.32-47.745Zm-5.161-.906a2.079,2.079,0,1,1,2.94,0h0a2.079,2.079,0,0,1-2.94,0Z" transform="translate(-179.161 -35.425)"/>
      <path id="Path_1257177" data-name="Path 1257177" d="M155.947,474.446l-.436,1.07.433-1.071a1.155,1.155,0,0,0-.866,2.142l.036.014a1.155,1.155,0,0,0,.833-2.155Z" transform="translate(-136.528 -419.572)"/>
      <path id="Path_1257178" data-name="Path 1257178" d="M338.655,19.981l.013.005a1.155,1.155,0,1,0,.865-2.142l-.021-.008a1.155,1.155,0,1,0-.858,2.145Z" transform="translate(-298.898 -15.703)"/>
    </g>
  </g>
</svg>
