<svg xmlns="http://www.w3.org/2000/svg" width="103" height="103" viewBox="0 0 103 103">
  <g id="Group_1204038" data-name="Group 1204038" transform="translate(-253.972 -11116.921)">
    <g id="Group_1203593" data-name="Group 1203593" transform="translate(256.094 11138.794)">
      <rect id="Rectangle_410589" data-name="Rectangle 410589" width="99.185" height="33.062" rx="8" transform="translate(0 12.94)" fill="#3e5b2c"/>
      <g id="Group_1204022" data-name="Group 1204022" transform="translate(20.432 0)">
        <g id="Group_1204036" data-name="Group 1204036" transform="translate(0.947 0.947)">
          <g id="Group_1204022-2" data-name="Group 1204022" transform="translate(0 1.895)">
            <path id="Path_1257692" data-name="Path 1257692" d="M36.107,5.895v7.579L2,16.317V4Z" transform="translate(-2 -4)" fill="#ff826e"/>
          </g>
          <g id="Group_1204023" data-name="Group 1204023" transform="translate(37.897 13.264)">
            <path id="Path_1257693" data-name="Path 1257693" d="M60,16H42.947a.95.95,0,0,0-.947.947v3.79a.95.95,0,0,0,.947.947H60a.95.95,0,0,0,.947-.947v-3.79A.95.95,0,0,0,60,16Z" transform="translate(-42 -16)" fill="#ff826e"/>
          </g>
          <g id="Group_1204026" data-name="Group 1204026" transform="translate(39.186 0)">
            <g id="Group_1204024" data-name="Group 1204024" transform="translate(4.396)">
              <path id="Path_1257694" data-name="Path 1257694" d="M55.267,4.3a3.93,3.93,0,0,0-.8-1.194A3.813,3.813,0,0,0,51.79,2a3.762,3.762,0,0,0-3.553,2.492A3.71,3.71,0,0,0,48,5.79v3.79h5.524a2.054,2.054,0,0,1,2.056,2.056V5.79A3.7,3.7,0,0,0,55.267,4.3Z" transform="translate(-48 -2)" fill="#ccd1d9"/>
            </g>
            <g id="Group_1204025" data-name="Group 1204025" transform="translate(0 9.635)">
              <path id="Path_1257695" data-name="Path 1257695" d="M53.621,14.188l-9.057,1.506a7.371,7.371,0,0,1-1.2.1H55.336V12.17a2.046,2.046,0,0,1-1.715,2.018Z" transform="translate(-43.36 -12.17)" fill="#ccd1d9"/>
            </g>
          </g>
          <g id="Group_1204027" data-name="Group 1204027" transform="translate(50.849 2.293)">
            <path id="Path_1257696" data-name="Path 1257696" d="M57.716,5.756l2.814,2.8a3.879,3.879,0,0,1,1.137,2.748v.038A3.973,3.973,0,0,1,61,13.553c-.55.815-1.232,1.838-1.232,1.838h-3.79V5.917a3.7,3.7,0,0,0-.313-1.487l.009-.009a5.9,5.9,0,0,1,2.037,1.336Z" transform="translate(-55.67 -4.42)" fill="#f0d0b4"/>
          </g>
          <g id="Group_1204028" data-name="Group 1204028" transform="translate(34.107 2.492)">
            <path id="Path_1257697" data-name="Path 1257697" d="M47.474,9.718H53a2.051,2.051,0,0,1,.341,4.074L44.281,15.3a7.287,7.287,0,0,1-5.3-1.137L38,13.507V5.928l9.7-1.3h.009a3.71,3.71,0,0,0-.237,1.3Z" transform="translate(-38 -4.63)" fill="#f0d0b4"/>
          </g>
          <g id="Group_1204029" data-name="Group 1204029" transform="translate(43.582 18.949)">
            <path id="Path_1257698" data-name="Path 1257698" d="M53.685,22h1.895V39.054l-1.895,3.79v2.842a.95.95,0,0,1-.947.947H50.842a.95.95,0,0,1-.947-.947V42.843L48,39.054V22h5.685Z" transform="translate(-48 -22)" fill="#e6e9ed"/>
          </g>
          <g id="Group_1204030" data-name="Group 1204030" transform="translate(42.634 43.582)">
            <path id="Path_1257699" data-name="Path 1257699" d="M56.474,56.527a4.737,4.737,0,1,1-9.474,0C47,52.737,51.737,48,51.737,48S56.474,52.737,56.474,56.527Z" transform="translate(-47 -48)" fill="#b4dd7f"/>
          </g>
          <g id="Group_1204031" data-name="Group 1204031" transform="translate(11.369 17.054)">
            <path id="Path_1257700" data-name="Path 1257700" d="M29.159,20.947v1.895a.95.95,0,0,1-.947.947H14.947A.95.95,0,0,1,14,22.842V20.947A.95.95,0,0,1,14.947,20H28.211A.95.95,0,0,1,29.159,20.947Z" transform="translate(-14 -20)" fill="#ccd1d9"/>
          </g>
          <g id="Group_1204032" data-name="Group 1204032" transform="translate(7.807 20.843)">
            <path id="Path_1257701" data-name="Path 1257701" d="M12.059,31.769A10.123,10.123,0,0,0,15.7,24H27.066A10.123,10.123,0,0,0,30.7,31.769l1.364,1.137a1.749,1.749,0,0,1,.455.568H10.24a1.749,1.749,0,0,1,.455-.568Z" transform="translate(-10.24 -24)" fill="#fcd770"/>
          </g>
          <g id="Group_1204033" data-name="Group 1204033" transform="translate(7.579 53.056)">
            <path id="Path_1257702" data-name="Path 1257702" d="M32.738,58v1.895a1.9,1.9,0,0,1-1.895,1.895H11.895A1.9,1.9,0,0,1,10,59.895V58Z" transform="translate(-10 -58)" fill="#fcd770"/>
          </g>
          <g id="Group_1204034" data-name="Group 1204034" transform="translate(7.579 30.318)">
            <path id="Path_1257703" data-name="Path 1257703" d="M32.738,56.738H10V34.891A1.877,1.877,0,0,1,10.218,34h22.3a1.877,1.877,0,0,1,.218.891Z" transform="translate(-10 -34)" fill="#ffeaa7"/>
          </g>
          <g id="Group_1204035" data-name="Group 1204035" transform="translate(13.264 34.107)">
            <path id="Path_1257704" data-name="Path 1257704" d="M21.685,51.264H19.941a4.1,4.1,0,0,1-2.425-.786A4.158,4.158,0,0,1,16,48.422l1.895-.947-.625-.928A7.642,7.642,0,0,1,16,42.339v-.55l1.573.521a5.748,5.748,0,0,1,2.217,1.374V42.576A6.476,6.476,0,0,1,21.685,38a6.476,6.476,0,0,1,1.895,4.576v1.108A5.748,5.748,0,0,1,25.8,42.311l1.573-.521v.55a7.642,7.642,0,0,1-1.27,4.207l-.625.928,1.895.947a4.157,4.157,0,0,1-3.941,2.842Z" transform="translate(-16 -38)" fill="#b4dd7f"/>
          </g>
        </g>
        <g id="Group_1204037" data-name="Group 1204037" transform="translate(0)">
          <path id="Path_1257705" data-name="Path 1257705" d="M58.573,14.41l.342-.514a4.948,4.948,0,0,0,.826-2.77,4.794,4.794,0,0,0-1.415-3.414L55.511,4.9a6.826,6.826,0,0,0-2.039-1.4,4.7,4.7,0,0,0-8.342.063L36.018,4.786,1,2.841V17.189l34.8-2.9.71.474a8.277,8.277,0,0,0,2.415,1.089,1.845,1.845,0,0,0-.031.309v3.79a1.9,1.9,0,0,0,1.895,1.895h3.79v16.33l1.895,3.79v2.619a1.889,1.889,0,0,0,.949,1.632c-1.487,1.772-3.792,4.979-3.792,7.842a5.685,5.685,0,1,0,11.369,0c0-2.863-2.305-6.07-3.792-7.842a1.889,1.889,0,0,0,.949-1.632V41.963l1.895-3.79V21.843h3.79a1.9,1.9,0,0,0,1.895-1.895v-3.79A1.9,1.9,0,0,0,58.573,14.41ZM56.987,9.054a2.931,2.931,0,0,1,.859,2.108,3.029,3.029,0,0,1-.508,1.684l-.946,1.418H54.056V6.15c.036.034.081.059.116.094Zm-10.51,7.1v3.79H44.582v-3.79Zm1.895,0h1.895v3.79H48.372Zm3.79,0h1.895v3.79H52.161ZM49.319,2.895a2.846,2.846,0,0,1,2.842,2.842V8.8a2.977,2.977,0,0,0-1.1-.217h-4.58V5.737A2.846,2.846,0,0,1,49.319,2.895ZM2.895,4.844l32.213,1.79v5.812L2.895,15.129ZM37,12.81V6.567l7.6-1.014c0,.063-.019.121-.019.184V8.579H42.687v1.895h8.37a1.1,1.1,0,0,1,.181,2.194l-9.054,1.507a6.466,6.466,0,0,1-4.62-.992Zm3.79,3.349h1.895v3.79H40.792Zm8.527,41.687a3.794,3.794,0,0,1-3.79-3.79c0-2.365,2.331-5.493,3.79-7.14,1.459,1.647,3.79,4.775,3.79,7.14A3.794,3.794,0,0,1,49.319,57.846ZM52.161,37h-3.79V38.9h3.2l-1.309,2.619v3.066H48.372V41.516l-1.895-3.79V21.843h5.685Zm3.79-17.054v-3.79h1.895v3.79Z" transform="translate(-1 -1)"/>
          <path id="Path_1257706" data-name="Path 1257706" d="M16.447,47.032l-1.67.835.26.78a5.1,5.1,0,0,0,4.842,3.49h.794v1.895h1.895V52.137h.794a5.1,5.1,0,0,0,4.841-3.49l.26-.78-1.67-.835.027-.04a8.488,8.488,0,0,0,1.433-4.73V40.4l-2.818.939a6.565,6.565,0,0,0-1.007.432,7.369,7.369,0,0,0-2.137-4.516l-.67-.671-.67.671a7.359,7.359,0,0,0-2.137,4.516,6.7,6.7,0,0,0-1.007-.432L14.988,40.4v1.862a8.5,8.5,0,0,0,1.433,4.731Zm.761-3.895a4.751,4.751,0,0,1,1.847,1.143L20.673,45.9V42.5a5.485,5.485,0,0,1,.947-3.1,5.486,5.486,0,0,1,.947,3.1v3.4l1.617-1.618a4.758,4.758,0,0,1,1.848-1.143l.278-.093a6.616,6.616,0,0,1-1.068,2.9l-1.217,1.826,2.027,1.014a3.207,3.207,0,0,1-2.692,1.46h-.794V48.347H20.673v1.895h-.794a3.2,3.2,0,0,1-2.692-1.461l2.027-1.014L18,45.942a6.617,6.617,0,0,1-1.068-2.9Z" transform="translate(-1.724 -2.871)"/>
          <path id="Path_1257707" data-name="Path 1257707" d="M31.247,30.779A9.137,9.137,0,0,1,28,24.68a1.9,1.9,0,0,0,1.844-1.89V20.895A1.9,1.9,0,0,0,27.949,19H14.685a1.9,1.9,0,0,0-1.895,1.895V22.79a1.894,1.894,0,0,0,1.843,1.889,9.137,9.137,0,0,1-3.247,6.1l-1.362,1.136A2.838,2.838,0,0,0,9,34.1V57.845a2.846,2.846,0,0,0,2.842,2.842H30.791a2.846,2.846,0,0,0,2.842-2.842V34.1a2.835,2.835,0,0,0-1.022-2.183Zm.492,3.379V55H10.895V34.159ZM14.685,20.895H27.949V22.79H14.685Zm1.843,3.79h9.579a11.017,11.017,0,0,0,3.927,7.55l.036.029h-17.5l.035-.029A11.014,11.014,0,0,0,16.527,24.685ZM30.791,58.792H11.842a.948.948,0,0,1-.947-.947V56.9H31.738v.947A.948.948,0,0,1,30.791,58.792Z" transform="translate(-1.421 -1.946)"/>
        </g>
      </g>
    </g>
    <rect id="Rectangle_411643" data-name="Rectangle 411643" width="103" height="103" transform="translate(253.972 11116.921)" fill="none"/>
  </g>
</svg>
