<svg xmlns="http://www.w3.org/2000/svg" width="103" height="103" viewBox="0 0 103 103">
  <g id="Group_1204086" data-name="Group 1204086" transform="translate(-253.972 -11116.921)">
    <g id="Group_1203593" data-name="Group 1203593" transform="translate(256.094 11138.794)">
      <rect id="Rectangle_410589" data-name="Rectangle 410589" width="99.185" height="33.062" rx="8" transform="translate(0 12.94)" fill="#3e5b2c"/>
      <g id="Group_1204096" data-name="Group 1204096" transform="translate(13.133 -47.807)">
        <path id="Path_1257892" data-name="Path 1257892" d="M273.945,55.27c-9.884,8.833-16.1,22.208-19.6,33.843a128.68,128.68,0,0,1,4.79,23.727h6.5c0-28.657,6.615-47.6,10.388-56.066A1.309,1.309,0,0,0,273.945,55.27Z" transform="translate(-217.718 -6.447)" fill="#8dce55"/>
        <path id="Path_1257893" data-name="Path 1257893" d="M255.864,260.023c-.555,1.571-1.062,3.127-1.521,4.653a128.679,128.679,0,0,1,4.79,23.726h3.028A129.4,129.4,0,0,0,255.864,260.023Z" transform="translate(-217.718 -182.01)" fill="#6dc82a"/>
        <path id="Path_1257894" data-name="Path 1257894" d="M330.142,201.244s2.4-28.921,17.915-42.786a.973.973,0,0,1,1.54,1.117c-2.8,6.295-7.72,20.37-7.72,41.669Z" transform="translate(-282.602 -94.852)" fill="#8dce55"/>
        <path id="Path_1257895" data-name="Path 1257895" d="M349.6,159.575a.973.973,0,0,0-1.54-1.117c-15.515,13.865-17.915,42.786-17.915,42.786h3.384s2.151-25.918,15.543-40.445Q349.342,160.145,349.6,159.575Z" transform="translate(-282.602 -94.851)" fill="#6dc82a"/>
        <path id="Path_1257896" data-name="Path 1257896" d="M414.722,287.2s1.593-19.2,11.9-28.411a.646.646,0,0,1,1.023.742c-1.862,4.18-5.126,13.526-5.126,27.669h-7.793Z" transform="translate(-355.002 -180.812)" fill="#8dce55"/>
        <path id="Path_1257897" data-name="Path 1257897" d="M427.64,259.536a.646.646,0,0,0-1.023-.742c-10.3,9.207-11.9,28.411-11.9,28.411h2.88s1.3-15.652,9.133-25.47C427.057,260.891,427.364,260.155,427.64,259.536Z" transform="translate(-355.002 -180.813)" fill="#6dc82a"/>
        <path id="Path_1257898" data-name="Path 1257898" d="M133.278,112.839s-3.229-38.913-24.1-57.569a1.309,1.309,0,0,0-2.072,1.5c3.772,8.47,10.388,27.408,10.388,56.066h15.789Z" transform="translate(-91.574 -6.446)" fill="#8dce55"/>
        <path id="Path_1257899" data-name="Path 1257899" d="M110.049,56.074q-.433-.408-.876-.8a1.309,1.309,0,0,0-2.072,1.5c3.772,8.47,10.388,27.408,10.388,56.066h3.06c0-28.657-6.615-47.6-10.388-56.066A1.31,1.31,0,0,1,110.049,56.074Z" transform="translate(-91.574 -6.446)" fill="#6dc82a"/>
        <path id="Path_1257900" data-name="Path 1257900" d="M66.359,201.244s-2.4-28.921-17.915-42.786a.973.973,0,0,0-1.54,1.117c2.8,6.295,7.72,20.37,7.72,41.669Z" transform="translate(-40.073 -94.852)" fill="#8dce55"/>
        <path id="Path_1257901" data-name="Path 1257901" d="M48.445,158.458a.973.973,0,0,0-1.54,1.117c2.8,6.295,7.72,20.37,7.72,41.669h3.024c0-20.72-4.653-34.6-7.487-41.137Q49.331,159.252,48.445,158.458Z" transform="translate(-40.073 -94.852)" fill="#6dc82a"/>
        <path id="Path_1257902" data-name="Path 1257902" d="M20.814,287.2S19.22,268,8.918,258.793a.646.646,0,0,0-1.023.742c1.862,4.18,5.126,13.526,5.126,27.669h7.792Z" transform="translate(-6.707 -180.812)" fill="#8dce55"/>
        <path id="Path_1257903" data-name="Path 1257903" d="M8.919,258.793a.646.646,0,0,0-1.023.742c1.862,4.18,5.126,13.526,5.126,27.669h2.916c0-11.973-2.34-20.507-4.187-25.38A24.14,24.14,0,0,0,8.919,258.793Z" transform="translate(-6.707 -180.812)" fill="#6dc82a"/>
        <path id="Path_1257904" data-name="Path 1257904" d="M73.017,77.068a1.716,1.716,0,0,0-2.17.108c-4.382,3.916-7.765,9.946-10.059,17.921,1.283-14.726,4.844-24.766,7.145-29.933A2.053,2.053,0,0,0,64.685,62.8,44.334,44.334,0,0,0,55.1,75.646a76.209,76.209,0,0,0-5.334,13.649A145.565,145.565,0,0,1,53.632,67.17a1.08,1.08,0,0,0-2.091-.541c-4.8,18.557-4.384,32.9-5.027,38.683H42.631a134.448,134.448,0,0,0-4.639-22.645C42.46,67.962,48.82,56.847,56.9,49.628a.206.206,0,0,1,.294-.015.2.2,0,0,1,.072.274,101.276,101.276,0,0,0-4.3,11.657,1.08,1.08,0,0,0,2.067.629,99.116,99.116,0,0,1,4.2-11.407,2.389,2.389,0,0,0-3.779-2.748A58.424,58.424,0,0,0,43.175,64.185a95.952,95.952,0,0,0-6.31,14.906,97.293,97.293,0,0,0-5.782-13.9A59.278,59.278,0,0,0,18.269,48.018a2.389,2.389,0,0,0-3.779,2.748C17.5,57.521,22.1,70.444,23.962,89.3a76.192,76.192,0,0,0-5.335-13.654A44.336,44.336,0,0,0,9.042,62.8a2.053,2.053,0,0,0-3.247,2.362C8.1,70.33,11.657,80.37,12.94,95.1c-2.293-7.975-5.676-14-10.058-17.921a1.716,1.716,0,0,0-2.17-.108,1.712,1.712,0,0,0-.559,2.095c1.83,4.109,4.867,12.895,5.025,26.15H3.17a1.08,1.08,0,0,0,0,2.16H70.677a1.08,1.08,0,0,0,0-2.16H68.55c.025-2.064.122-4.116.29-6.114a1.08,1.08,0,1,0-2.153-.181c-.173,2.057-.273,4.17-.3,6.294H60.877c.506-3.982,2.679-17.186,9.894-25.03A63.707,63.707,0,0,0,67.28,93.908a1.08,1.08,0,0,0,2.137.319,58.372,58.372,0,0,1,4.159-15.065A1.712,1.712,0,0,0,73.017,77.068ZM16.536,49.613a.206.206,0,0,1,.294.015c14.04,12.548,21.529,36.954,23.628,55.684H27.214c-.063-.569-.16-1.367-.3-2.353-.495-26.779-6.693-44.639-10.449-53.072A.2.2,0,0,1,16.536,49.613Zm-9.2,55.7a71.72,71.72,0,0,0-4.383-25.03c7.208,7.838,9.385,21.047,9.894,25.03Zm.634-40.564c7.579,7,11.833,17.806,14.074,25.7a99.951,99.951,0,0,1,2.708,12.72q.019,1.061.025,2.14h-9.2C15.421,85.029,10.859,71.378,7.973,64.748Zm40.974,40.564q.006-1.073.025-2.14c1.908-13.178,7-29.39,16.782-38.424-2.885,6.627-7.447,20.28-7.605,40.564h-9.2Z" transform="translate(0 0)"/>
      </g>
    </g>
    <rect id="Rectangle_411643" data-name="Rectangle 411643" width="103" height="103" transform="translate(253.972 11116.921)" fill="none"/>
  </g>
</svg>
