<svg xmlns="http://www.w3.org/2000/svg" width="109" height="109" viewBox="0 0 109 109">
  <g id="Group_1204067" data-name="Group 1204067" transform="translate(-254.599 -3226.075)">
    <g id="Group_1203710" data-name="Group 1203710" transform="translate(255.999 3249.448)">
      <rect id="Rectangle_410589" data-name="Rectangle 410589" width="106.662" height="35.554" rx="8" transform="translate(0 13.446)" fill="#ffc94a"/>
      <g id="Group_1204079" data-name="Group 1204079" transform="translate(13.146 -56.997)">
        <g id="Group_1204079-2" data-name="Group 1204079" transform="translate(9.93 65.435)">
          <circle id="Ellipse_12757" data-name="Ellipse 12757" cx="5.004" cy="5.004" r="5.004" transform="translate(15.012 0)" fill="#f072ae"/>
          <path id="Path_1257864" data-name="Path 1257864" d="M184.751,110.4a5.014,5.014,0,0,0-1.251.158,5.006,5.006,0,0,1,0,9.693,5,5,0,1,0,1.251-9.85Z" transform="translate(-164.735 -110.402)" fill="#ff3f62"/>
          <circle id="Ellipse_12758" data-name="Ellipse 12758" cx="5.004" cy="5.004" r="5.004" transform="translate(25.02 0)" fill="#f072ae"/>
          <path id="Path_1257865" data-name="Path 1257865" d="M248.751,110.4a5.015,5.015,0,0,0-1.251.158,5.006,5.006,0,0,1,0,9.693,5,5,0,1,0,1.251-9.85Z" transform="translate(-218.727 -110.402)" fill="#ff3f62"/>
          <path id="Path_1257866" data-name="Path 1257866" d="M73.508,155.406H63.5a5,5,0,0,1,10.008,0Z" transform="translate(-63.5 -144.147)" fill="#f072ae"/>
          <path id="Path_1257867" data-name="Path 1257867" d="M93.755,155.406h-2.5A5.006,5.006,0,0,0,87.5,150.56a5.007,5.007,0,0,1,6.255,4.846Z" transform="translate(-83.747 -144.147)" fill="#ff3f62"/>
          <path id="Path_1257868" data-name="Path 1257868" d="M137.508,155.406H127.5a5,5,0,0,1,10.008,0Z" transform="translate(-117.492 -144.147)" fill="#f072ae"/>
          <path id="Path_1257869" data-name="Path 1257869" d="M157.755,155.406h-2.5a5.006,5.006,0,0,0-3.753-4.846,5.007,5.007,0,0,1,6.255,4.846Z" transform="translate(-137.739 -144.147)" fill="#ff3f62"/>
          <path id="Path_1257870" data-name="Path 1257870" d="M201.508,155.406H191.5a5,5,0,0,1,10.008,0Z" transform="translate(-171.484 -144.147)" fill="#f072ae"/>
          <path id="Path_1257871" data-name="Path 1257871" d="M221.755,155.406h-2.5a5.006,5.006,0,0,0-3.753-4.846,5.007,5.007,0,0,1,6.255,4.846Z" transform="translate(-191.731 -144.147)" fill="#ff3f62"/>
          <circle id="Ellipse_12759" data-name="Ellipse 12759" cx="5.004" cy="5.004" r="5.004" transform="translate(45.036 0)" fill="#f072ae"/>
          <path id="Path_1257872" data-name="Path 1257872" d="M376.751,110.4a5.014,5.014,0,0,0-1.251.158,5.006,5.006,0,0,1,0,9.693,5,5,0,1,0,1.251-9.85Z" transform="translate(-326.711 -110.402)" fill="#ff3f62"/>
          <path id="Path_1257873" data-name="Path 1257873" d="M265.508,155.406H255.5a5,5,0,1,1,10.008,0Z" transform="translate(-225.476 -144.147)" fill="#f072ae"/>
          <path id="Path_1257874" data-name="Path 1257874" d="M285.755,155.406h-2.5a5.006,5.006,0,0,0-3.753-4.846,5.007,5.007,0,0,1,6.255,4.846Z" transform="translate(-245.723 -144.147)" fill="#ff3f62"/>
          <path id="Path_1257875" data-name="Path 1257875" d="M329.508,155.406H319.5a5,5,0,1,1,10.008,0Z" transform="translate(-279.468 -144.147)" fill="#f072ae"/>
          <path id="Path_1257876" data-name="Path 1257876" d="M349.755,155.406h-2.5a5.006,5.006,0,0,0-3.753-4.846,5.007,5.007,0,0,1,6.255,4.846Z" transform="translate(-299.715 -144.147)" fill="#ff3f62"/>
          <path id="Path_1257877" data-name="Path 1257877" d="M393.508,155.406H383.5a5,5,0,1,1,10.008,0Z" transform="translate(-333.46 -144.147)" fill="#f072ae"/>
          <path id="Path_1257878" data-name="Path 1257878" d="M413.755,155.406h-2.5a5.006,5.006,0,0,0-3.753-4.846,5.007,5.007,0,0,1,6.255,4.846Z" transform="translate(-353.707 -144.147)" fill="#ff3f62"/>
        </g>
        <path id="Path_1257879" data-name="Path 1257879" d="M101.556,222.4,91.548,257.43H41.508L31.5,222.4" transform="translate(-26.574 -139.453)" fill="#ffb655"/>
        <path id="Path_1257880" data-name="Path 1257880" d="M31.5,222.4,41.508,257.43h50.04L101.556,222.4Z" transform="translate(-26.574 -139.453)" fill="#ffb655"/>
        <g id="Group_1204080" data-name="Group 1204080" transform="translate(4.926 82.949)">
          <path id="Path_1257881" data-name="Path 1257881" d="M72.643,366.4l.715,2.5h55.759l.715-2.5Z" transform="translate(-66.209 -343.884)" fill="#ff7956"/>
          <path id="Path_1257882" data-name="Path 1257882" d="M101.556,222.4l-.715,2.5H32.215l-.715-2.5Z" transform="translate(-31.5 -222.402)" fill="#ff7956"/>
          <path id="Path_1257883" data-name="Path 1257883" d="M409.508,222.4,399.5,257.43H402L412.01,222.4Z" transform="translate(-341.954 -222.402)" fill="#ff7956"/>
          <path id="Path_1257884" data-name="Path 1257884" d="M114.4,312.41l2.859-10.008H54.357l2.859,10.008Z" transform="translate(-50.783 -289.892)" fill="#ff7956"/>
        </g>
        <path id="Path_1257885" data-name="Path 1257885" d="M425.216,302.4l-2.859,10.008h2.5l2.859-10.008Z" transform="translate(-356.311 -206.943)" fill="#ff3f62"/>
        <path id="Path_1257886" data-name="Path 1257886" d="M7.5,182.4H85.062v6.255H7.5Z" transform="translate(-6.327 -105.708)" fill="#ff7956"/>
        <path id="Path_1257887" data-name="Path 1257887" d="M487.5,182.4H490v6.255h-2.5Z" transform="translate(-411.267 -105.708)" fill="#ff3f62"/>
        <path id="Path_1257888" data-name="Path 1257888" d="M79.908,75.521h-8.87a6.164,6.164,0,0,0-1.5-2.984l.768-.768a3.674,3.674,0,1,0,4.755-4.755l2-2L75.4,63.355l-7.767,7.767a6.128,6.128,0,0,0-1.5-.492c0-.063.006-.127.006-.19a6.177,6.177,0,1,0-12.354,0c0,.063,0,.127.006.19a6.186,6.186,0,0,0-3.837,2.45,6.187,6.187,0,0,0-3.837-2.45c0-.063.006-.127.006-.19A6.174,6.174,0,0,0,34.95,66.824a6.166,6.166,0,0,0-8.461-1.5L18.265,57.1l-1.659,1.659,2,2a3.674,3.674,0,1,0,4.755,4.755l1.467,1.467a6.141,6.141,0,0,0-1.061,3.457c0,.063,0,.127.006.19a6.186,6.186,0,0,0-3.837,2.45A6.173,6.173,0,0,0,8.87,75.521H0v8.6H4.041L14.049,119.15H65.858L75.866,84.122h4.041Zm-6.177-3.753a1.329,1.329,0,1,1,1.329-1.329A1.331,1.331,0,0,1,73.731,71.768ZM19.938,65.513a1.329,1.329,0,1,1,1.329-1.329A1.331,1.331,0,0,1,19.938,65.513Zm45.036,7.35a3.837,3.837,0,0,1,3.647,2.658H61.327A3.838,3.838,0,0,1,64.974,72.863Zm-5-6.255A3.835,3.835,0,0,1,63.8,70.439c0,.064,0,.128-.006.192a6.186,6.186,0,0,0-3.825,2.448,6.187,6.187,0,0,0-3.825-2.448c0-.064-.006-.128-.006-.192A3.835,3.835,0,0,1,59.97,66.608Zm-5,6.255a3.837,3.837,0,0,1,3.647,2.658H51.319A3.838,3.838,0,0,1,54.966,72.863ZM48.6,75.521H41.311a3.831,3.831,0,0,1,7.294,0ZM34.95,72.863A3.837,3.837,0,0,1,38.6,75.521H31.3A3.838,3.838,0,0,1,34.95,72.863Zm5-6.255a3.835,3.835,0,0,1,3.831,3.831c0,.064,0,.128-.006.192a6.186,6.186,0,0,0-3.825,2.448,6.187,6.187,0,0,0-3.825-2.448c0-.064-.006-.128-.006-.192a3.835,3.835,0,0,1,3.831-3.831Zm-10.008,0a3.835,3.835,0,0,1,3.831,3.831c0,.064,0,.128-.006.192a6.186,6.186,0,0,0-3.825,2.448,6.187,6.187,0,0,0-3.825-2.448c0-.064-.006-.128-.006-.192A3.835,3.835,0,0,1,29.946,66.608Zm-5,6.255a3.837,3.837,0,0,1,3.647,2.658H21.295A3.838,3.838,0,0,1,24.942,72.863Zm-10.008,0a3.837,3.837,0,0,1,3.647,2.658H11.287A3.837,3.837,0,0,1,14.934,72.863ZM34.771,94.286,34.19,84.122H45.718l-.581,10.164Zm-2.93-10.164.581,10.164H28.695v2.346H69.853l-2.189,7.662H12.244l-2.189-7.662H26.193V94.286H22.07L20.328,84.122Zm1.287,22.518.581,10.164H25.931L24.188,106.64Zm2.35,0h8.954L43.85,116.8H36.058Zm11.3,0h8.939L53.977,116.8H46.2ZM17.948,84.122l1.742,10.164H9.385l-2.9-10.164ZM12.914,106.64h8.894L23.551,116.8H15.819ZM64.089,116.8H56.357L58.1,106.64h8.894Zm6.434-22.518H60.217l1.742-10.164H73.427Zm7.039-12.51H53.715v2.346H59.58L57.837,94.286H47.486l.581-10.164h3.146V81.776H2.346V77.867H77.562Z"/>
        <g id="Group_1204084" data-name="Group 1204084" transform="translate(33.699 99.29)">
          <g id="Group_1204081" data-name="Group 1204081">
            <path id="Path_1257889" data-name="Path 1257889" d="M215.5,326.9H218v2.346h-2.5Z" transform="translate(-215.5 -326.902)" fill="#fff"/>
          </g>
          <g id="Group_1204082" data-name="Group 1204082" transform="translate(5.004)">
            <path id="Path_1257890" data-name="Path 1257890" d="M247.5,326.9H250v2.346h-2.5Z" transform="translate(-247.5 -326.902)" fill="#fff"/>
          </g>
          <g id="Group_1204083" data-name="Group 1204083" transform="translate(10.008)">
            <path id="Path_1257891" data-name="Path 1257891" d="M279.5,326.9H282v2.346h-2.5Z" transform="translate(-279.5 -326.902)" fill="#fff"/>
          </g>
        </g>
      </g>
    </g>
    <rect id="Rectangle_411644" data-name="Rectangle 411644" width="109" height="109" transform="translate(254.599 3226.075)" fill="none"/>
  </g>
</svg>
