<svg xmlns="http://www.w3.org/2000/svg" width="109" height="109" viewBox="0 0 109 109">
  <g id="Group_1204066" data-name="Group 1204066" transform="translate(-254.599 -3226.075)">
    <g id="Group_1203710" data-name="Group 1203710" transform="translate(255.999 3249.448)">
      <rect id="Rectangle_410589" data-name="Rectangle 410589" width="106.662" height="35.554" rx="8" transform="translate(0 13.446)" fill="#ffc94a"/>
      <g id="Group_1204074" data-name="Group 1204074" transform="translate(5.041 -6.372)">
        <g id="Group_1204077" data-name="Group 1204077" transform="translate(12.67 1.112)">
          <path id="Path_1257849" data-name="Path 1257849" d="M103.944,92.714H56.418c0-.165.005-.33.016-.493C56.89,84.986,67.348,79.2,80.181,79.2,93.305,79.2,103.944,85.25,103.944,92.714Z" transform="translate(-50.879 -68.57)" fill="#ffe177"/>
          <path id="Path_1257850" data-name="Path 1257850" d="M66.973,88.756c.6,2.593-5.947,3.289-10.447,3.465C56.982,84.986,67.44,79.2,80.273,79.2c-8.12,0-14.2,5.636-13.3,9.556Z" transform="translate(-50.971 -68.57)" fill="#ffd15b"/>
          <path id="Path_1257851" data-name="Path 1257851" d="M81.929,194.756a4.2,4.2,0,0,1-4.2,4.2H29.32a4.2,4.2,0,0,1-2.134-7.815,2.546,2.546,0,0,0,1.24-2.588,108.8,108.8,0,0,1,1.159-40.337q3.54-.722,7.081-1.231a118.329,118.329,0,0,1,40.8,1.231,108.806,108.806,0,0,1,1.161,40.337,2.544,2.544,0,0,0,1.239,2.588,4.194,4.194,0,0,1,2.066,3.616Z" transform="translate(-24.223 -125.272)" fill="#fea95c"/>
          <path id="Path_1257852" data-name="Path 1257852" d="M42.1,205.915H29.32a4.2,4.2,0,0,1-2.134-7.815,2.546,2.546,0,0,0,1.24-2.588,108.8,108.8,0,0,1,1.159-40.337q3.54-.722,7.081-1.231l.985,2.947S31.125,184.737,42.1,205.915Z" transform="translate(-24.223 -132.233)" fill="#fe9738"/>
          <path id="Path_1257853" data-name="Path 1257853" d="M77.614,140.973a2.923,2.923,0,0,1-3.409,2.344,141.2,141.2,0,0,0-44.375-1.159q-3.663.483-7.313,1.159a2.925,2.925,0,0,1-1.066-5.753q3.809-.706,7.634-1.21h0a147.107,147.107,0,0,1,46.184,1.211A2.926,2.926,0,0,1,77.614,140.973Z" transform="translate(-19.058 -116.168)" fill="#ffe5c2"/>
          <path id="Path_1257854" data-name="Path 1257854" d="M29.83,149.461q-3.663.483-7.313,1.159a2.925,2.925,0,0,1-1.066-5.753q3.809-.706,7.634-1.21c-.089.071-3.542,2.829.745,5.8a0,0,0,0,1,0,0Z" transform="translate(-19.058 -123.472)" fill="#fed2a4"/>
          <g id="Group_1204075" data-name="Group 1204075" transform="translate(51.735)">
            <g id="Group_1204074-2" data-name="Group 1204074">
              <path id="Path_1257855" data-name="Path 1257855" d="M388.57,24.472a2.026,2.026,0,0,0,3.458-1.432A15.557,15.557,0,0,0,376.489,7.5a2.026,2.026,0,1,0,0,4.051,11.5,11.5,0,0,1,11.488,11.488A2.02,2.02,0,0,0,388.57,24.472Z" transform="translate(-373.508 -7.5)" fill="#9be69d"/>
              <path id="Path_1257856" data-name="Path 1257856" d="M368.615,62.944a2.019,2.019,0,0,0,1.432.593,4.736,4.736,0,0,1,4.736,4.736,2.026,2.026,0,1,0,4.051,0,8.787,8.787,0,0,0-8.787-8.787,2.026,2.026,0,0,0-1.432,3.458Z" transform="translate(-368.022 -51.779)" fill="#9be69d"/>
            </g>
          </g>
          <path id="Path_1257857" data-name="Path 1257857" d="M136.471,267.051H114.329a4.822,4.822,0,0,1-4.822-4.822V246.255a4.822,4.822,0,0,1,4.822-4.822h22.143a4.822,4.822,0,0,1,4.822,4.822V262.23A4.822,4.822,0,0,1,136.471,267.051Z" transform="translate(-96.098 -206.751)" fill="#e8edf2"/>
          <g id="Group_1204076" data-name="Group 1204076" transform="translate(22.605 38.462)">
            <path id="Path_1257858" data-name="Path 1257858" d="M223.409,279.182a4.53,4.53,0,0,1-4.531,4.531h-1.205a.96.96,0,0,1-.961-.961V271.459a4.53,4.53,0,0,1,4.529-4.529h1.207a.96.96,0,0,1,.961.961Z" transform="translate(-210.014 -266.93)" fill="#ffe177"/>
            <path id="Path_1257859" data-name="Path 1257859" d="M171.532,279.182a4.53,4.53,0,0,0,4.531,4.531h1.205a.96.96,0,0,0,.961-.961V271.459a4.53,4.53,0,0,0-4.529-4.529h-1.207a.96.96,0,0,0-.961.961Z" transform="translate(-171.532 -266.93)" fill="#ffd15b"/>
          </g>
        </g>
        <g id="Group_1204078" data-name="Group 1204078" transform="translate(11.559)">
          <path id="Path_1257860" data-name="Path 1257860" d="M69.085,82.485q-1.687-.312-3.377-.586c-1.523-2.865-4.564-5.417-8.64-7.233a37.415,37.415,0,0,0-15.1-2.966,41.572,41.572,0,0,0-7.564.68,1.112,1.112,0,1,0,.406,2.186,39.344,39.344,0,0,1,7.158-.643A35.181,35.181,0,0,1,56.163,76.7a17.463,17.463,0,0,1,6.6,4.756,148.047,148.047,0,0,0-41.574,0,19.313,19.313,0,0,1,8.782-5.618,1.112,1.112,0,1,0-.729-2.1c-5.306,1.843-9.183,4.727-11,8.164q-1.69.274-3.377.586a4.037,4.037,0,0,0,.726,8.007c.1,0,.2,0,.3-.012a110.038,110.038,0,0,0-.109,35.154,1.435,1.435,0,0,1-.707,1.458,5.332,5.332,0,0,0-2.612,4.574,5.311,5.311,0,0,0,5.311,5.31h48.41a5.31,5.31,0,0,0,2.7-9.883,1.434,1.434,0,0,1-.707-1.457,110.868,110.868,0,0,0,1.288-13.148,1.112,1.112,0,0,0-2.222-.083,108.6,108.6,0,0,1-1.262,12.883,3.646,3.646,0,0,0,1.773,3.72,3.086,3.086,0,0,1-1.568,5.745H17.768a3.087,3.087,0,0,1-3.087-3.087,3.1,3.1,0,0,1,1.519-2.659,3.648,3.648,0,0,0,1.774-3.72,107.837,107.837,0,0,1,.233-35.2,140.152,140.152,0,0,1,47.533,0,108.5,108.5,0,0,1,1.567,17.243,1.112,1.112,0,0,0,1.112,1.1h.011a1.112,1.112,0,0,0,1.1-1.123,110.629,110.629,0,0,0-1.47-16.832c.1.007.2.012.293.012a4.037,4.037,0,0,0,.732-8.006Zm1.047,4.3a1.811,1.811,0,0,1-1.779,1.483,1.837,1.837,0,0,1-.334-.031,142.449,142.449,0,0,0-52.093,0,1.813,1.813,0,0,1-.66-3.565,146.056,146.056,0,0,1,53.414,0,1.815,1.815,0,0,1,1.452,2.113Z" transform="translate(-11.559 -61.07)"/>
          <path id="Path_1257861" data-name="Path 1257861" d="M370.1,0h0a3.138,3.138,0,0,0-2.218,5.356,3.117,3.117,0,0,0,2.219.919,10.388,10.388,0,0,1,10.376,10.376,3.117,3.117,0,0,0,.919,2.218h0a3.117,3.117,0,0,0,2.218.919h0a3.138,3.138,0,0,0,3.137-3.138A16.67,16.67,0,0,0,370.1,0Zm14.16,17.3a.914.914,0,0,1-1.56-.646,12.614,12.614,0,0,0-12.6-12.6.914.914,0,0,1,0-1.828,14.444,14.444,0,0,1,14.427,14.427A.907.907,0,0,1,384.261,17.3Z" transform="translate(-314.274)"/>
          <path id="Path_1257862" data-name="Path 1257862" d="M363.66,51.986a3.138,3.138,0,0,0-2.219,5.356h0a3.117,3.117,0,0,0,2.219.919,3.623,3.623,0,0,1,3.623,3.623,3.138,3.138,0,1,0,6.275,0,9.9,9.9,0,0,0-9.9-9.9ZM370.421,62.8a.914.914,0,0,1-.914-.914,5.848,5.848,0,0,0-5.847-5.847.914.914,0,1,1,0-1.828,7.675,7.675,0,0,1,7.675,7.675A.915.915,0,0,1,370.421,62.8Z" transform="translate(-308.787 -44.279)"/>
          <path id="Path_1257863" data-name="Path 1257863" d="M110.537,259.548a1.112,1.112,0,0,0,0,2.224h19.549a5.94,5.94,0,0,0,5.933-5.933V239.865a5.941,5.941,0,0,0-5.933-5.935H107.942a5.941,5.941,0,0,0-5.933,5.935v15.974a5.886,5.886,0,0,0,2.859,5.074,1.112,1.112,0,1,0,1.152-1.9,3.679,3.679,0,0,1-1.787-3.172V239.865a3.714,3.714,0,0,1,3.709-3.711h22.143a3.714,3.714,0,0,1,3.709,3.711v15.974a3.714,3.714,0,0,1-3.709,3.709h-9.96v-2.832h1.055a5.649,5.649,0,0,0,5.642-5.642V239.783s0,0,0,0a2.075,2.075,0,0,0-2.072-2.068h-1.207a5.636,5.636,0,0,0-4.529,2.283,5.638,5.638,0,0,0-4.531-2.283h-1.207a2.075,2.075,0,0,0-2.072,2.07v11.293a5.649,5.649,0,0,0,5.642,5.642H117.9v2.832Zm2.891-13.344v-2.126h1.056a3.431,3.431,0,0,1,3.342,2.693l.005.025a3.368,3.368,0,0,1,.069.564,5.612,5.612,0,0,0-3.416-1.155h-1.055Zm11.171-2.126V246.2h-1.055a5.612,5.612,0,0,0-3.414,1.154,3.36,3.36,0,0,1,.069-.562l.005-.025a3.43,3.43,0,0,1,3.34-2.693H124.6Zm-3.418,10.415h-1.055v-2.646a3.422,3.422,0,0,1,3.418-3.418H124.6v2.646A3.422,3.422,0,0,1,121.181,254.493Zm2.363-14.558H124.6v1.92h-1.056a5.629,5.629,0,0,0-3.4,1.148A3.422,3.422,0,0,1,123.543,239.934Zm-9.06,0a3.423,3.423,0,0,1,3.4,3.068,5.633,5.633,0,0,0-3.4-1.149h-1.056v-1.92h1.056Zm-1.056,11.14v-2.646h1.055a3.422,3.422,0,0,1,3.418,3.418v2.646h-1.055A3.422,3.422,0,0,1,113.428,251.074Z" transform="translate(-88.599 -199.249)"/>
        </g>
      </g>
    </g>
    <rect id="Rectangle_411644" data-name="Rectangle 411644" width="109" height="109" transform="translate(254.599 3226.075)" fill="none"/>
  </g>
</svg>
