<svg xmlns="http://www.w3.org/2000/svg" width="103" height="103" viewBox="0 0 103 103">
  <g id="Group_1204089" data-name="Group 1204089" transform="translate(-253.972 -11116.921)">
    <g id="Group_1203593" data-name="Group 1203593" transform="translate(256.094 11138.794)">
      <rect id="Rectangle_410589" data-name="Rectangle 410589" width="99.185" height="33.062" rx="8" transform="translate(0 12.94)" fill="#3e5b2c"/>
      <g id="Group_1204100" data-name="Group 1204100" transform="translate(5.339 -21.953)">
        <g id="Group_1204101" data-name="Group 1204101" transform="translate(12.62 4.146)">
          <path id="Path_1257936" data-name="Path 1257936" d="M104.847,41.708C92.127,60.312,92.752,92.8,92.752,92.8h9.111C100.718,72.223,104.847,41.708,104.847,41.708Z" transform="translate(-43.008 -17.513)" fill="#9adb07"/>
          <path id="Path_1257937" data-name="Path 1257937" d="M83.443,24C72.04,50.678,72.586,86.684,72.586,86.684H81.7C80.551,61.152,83.443,24,83.443,24Z" transform="translate(-36.044 -11.398)" fill="#9adb07"/>
          <g id="Group_1204100-2" data-name="Group 1204100" transform="translate(0)">
            <path id="Path_1257938" data-name="Path 1257938" d="M58.5,80.037c0-24.877,3.165-56.629,13.2-75.287-4.365,35.483-2.291,75.287-2.291,75.287Z" transform="translate(-31.181 -4.75)" fill="#8ec100"/>
            <path id="Path_1257939" data-name="Path 1257939" d="M93.609,35.25c-11.4,23.543-10.856,55.319-10.856,55.319h9.111C90.718,68.037,93.609,35.25,93.609,35.25Z" transform="translate(-39.555 -15.283)" fill="#8ec100"/>
            <path id="Path_1257940" data-name="Path 1257940" d="M16.771,41.708C29.491,60.312,28.865,92.8,28.865,92.8H19.754c1.146-20.577-2.983-51.092-2.983-51.092Z" transform="translate(-16.771 -17.513)" fill="#8ec100"/>
            <path id="Path_1257941" data-name="Path 1257941" d="M38.828,24c11.4,26.678,10.857,62.684,10.857,62.684H40.577C41.72,61.152,38.828,24,38.828,24Z" transform="translate(-24.388 -11.398)" fill="#8ec100"/>
          </g>
          <path id="Path_1257942" data-name="Path 1257942" d="M49.82,14.75c12.5,29.255,11.906,68.74,11.906,68.74H51.735c1.256-28-1.915-68.74-1.915-68.74Z" transform="translate(-28.184 -8.203)" fill="#9adb07"/>
          <path id="Path_1257943" data-name="Path 1257943" d="M28.662,35.25c11.4,23.543,10.856,55.319,10.856,55.319H30.407c1.146-22.532-1.745-55.319-1.745-55.319Z" transform="translate(-20.877 -15.283)" fill="#9adb07"/>
        </g>
        <g id="Group_1204102" data-name="Group 1204102" transform="translate(4.75 3.002)">
          <path id="Path_1257944" data-name="Path 1257944" d="M106.191,88.684a1.143,1.143,0,0,0-1.2,1.089q-.081,1.69-.143,3.389a1.146,1.146,0,0,0,1.1,1.186h.042a1.146,1.146,0,0,0,1.144-1.105c.04-1.12.088-2.242.142-3.359a1.146,1.146,0,0,0-1.089-1.2Z" transform="translate(-39.317 -32.59)" fill="#220401"/>
          <path id="Path_1257945" data-name="Path 1257945" d="M81.182,78.287H72.563c-.131-2.868-.174-6.067-.124-9.532a1.146,1.146,0,0,0-1.129-1.162h-.017a1.146,1.146,0,0,0-1.145,1.129c-.05,3.47-.009,6.678.121,9.565H66.021c-.344-7.745-.232-16.644.061-24.958A75.831,75.831,0,0,1,72.661,33.6c-.6,5.172-1.459,13.478-2.005,22.36a1.146,1.146,0,0,0,1.074,1.214H71.8A1.146,1.146,0,0,0,72.943,56.1c.892-14.51,2.634-27.472,2.652-27.6a1.146,1.146,0,0,0-2.081-.8,57.579,57.579,0,0,0-6.939,14.668c.561-10.354,1.226-17.993,1.24-18.151a1.146,1.146,0,0,0-2.172-.6A92.242,92.242,0,0,0,59.815,39.54c.581-12.815,1.331-22.578,1.341-22.705a1.146,1.146,0,0,0-2.2-.538,124.92,124.92,0,0,0-7.241,24.55c.318-11.51,1.051-24.324,2.557-36.559A1.146,1.146,0,0,0,52.131,3.6,79,79,0,0,0,46.417,17.68a1.146,1.146,0,1,0,2.191.675q1.223-3.963,2.63-7.421c-1.65,16.61-2.039,33.618-2.012,46.541l0,.037a1.116,1.116,0,0,0,0,.262c.026,10.122.306,17.692.427,20.515H47.309a236.362,236.362,0,0,0-3.493-38.03c.851-5.7,1.9-11.032,3.114-15.863a1.148,1.148,0,1,0-2.226-.559c-.786,3.142-1.506,6.492-2.15,10.011a130.453,130.453,0,0,0-7.245-23.6,1.146,1.146,0,0,0-2.2.539c.016.215.9,11.755,1.547,26.665A118.174,118.174,0,0,0,28.114,16.3a1.146,1.146,0,0,0-2.2.538c.01.127.76,9.889,1.341,22.7a92.284,92.284,0,0,0-5.827-15.927,1.146,1.146,0,0,0-2.173.6c.014.158.68,7.8,1.244,18.167-.437-1.342-.9-2.644-1.381-3.892a1.146,1.146,0,1,0-2.136.83A86.753,86.753,0,0,1,21,53.331c.293,8.314.405,17.211.061,24.956H16.809c.682-15.14-1.3-35.2-2.393-44.691q.1.2.208.4a1.146,1.146,0,1,0,2.043-1.038,47.341,47.341,0,0,0-3.1-5.265,1.145,1.145,0,0,0-2.081.8c.041.3,3.96,29.581,3.031,49.791H5.9a1.146,1.146,0,0,0,0,2.291H81.182a1.146,1.146,0,1,0,0-2.291Zm-52.451-53.9a154.263,154.263,0,0,1,6.481,30.224c.159,8.1.158,16.314-.139,23.679H32.41a170.186,170.186,0,0,0-2.4-26.2c0-.024.006-.048.005-.073C29.714,41.218,29.151,31.026,28.732,24.384Zm.071,53.9H23.351c.341-7.779.228-16.694-.065-25.019a1.119,1.119,0,0,0,0-.14c-.31-8.72-.814-16.785-1.2-22.2,7.386,19.461,8,42.108,8.037,47.363Zm11.136,0H37.366c.3-7.387.294-15.616.135-23.723v-.022a.378.378,0,0,0,0-.065c-.281-14.195-1.047-28-1.571-36.221,8.488,24.772,9.068,53.977,9.093,60.031Zm11.578-20.68a163.236,163.236,0,0,1,6.828-33.192c-.418,6.643-.982,16.819-1.279,27.6,0,.025,0,.048.005.073a170.187,170.187,0,0,0-2.4,26.2H51.946c-.118-2.729-.406-10.392-.429-20.68Zm10.851,20.68H56.96C57,73.034,57.6,50.392,65,30.924c-.386,5.419-.89,13.486-1.2,22.2a1.139,1.139,0,0,0,0,.141c-.293,8.326-.407,17.239-.065,25.018Z" transform="translate(-4.75 -3.002)" fill="#220401"/>
        </g>
      </g>
    </g>
    <rect id="Rectangle_411643" data-name="Rectangle 411643" width="103" height="103" transform="translate(253.972 11116.921)" fill="none"/>
  </g>
</svg>
