<svg xmlns="http://www.w3.org/2000/svg" width="103" height="103" viewBox="0 0 103 103">
  <g id="Group_1204087" data-name="Group 1204087" transform="translate(-253.972 -11116.922)">
    <g id="Group_1203593" data-name="Group 1203593" transform="translate(256.094 11138.794)">
      <rect id="Rectangle_410589" data-name="Rectangle 410589" width="99.185" height="33.062" rx="8" transform="translate(-0.122 13.128)" fill="#3e5b2c"/>
      <g id="Group_1204097" data-name="Group 1204097" transform="translate(12.878 -91.097)">
        <g id="Group_1204097-2" data-name="Group 1204097" transform="translate(1.059 106.418)">
          <path id="Path_1257905" data-name="Path 1257905" d="M7.5,157.685v32.462a1.411,1.411,0,0,0,1.411,1.411H76.235a1.411,1.411,0,0,0,1.411-1.411V157.685a1.411,1.411,0,0,0-1.411-1.411H8.911A1.411,1.411,0,0,0,7.5,157.685Z" transform="translate(-7.5 -156.274)" fill="#918291"/>
          <path id="Path_1257906" data-name="Path 1257906" d="M469.593,156.274H465.5a1.411,1.411,0,0,1,1.411,1.411v32.462a1.411,1.411,0,0,1-1.411,1.411h4.093A1.411,1.411,0,0,0,471,190.148V157.685A1.411,1.411,0,0,0,469.593,156.274Z" transform="translate(-400.858 -156.274)" fill="#7a6d79"/>
          <path id="Path_1257907" data-name="Path 1257907" d="M77.647,177.6H7.5V189.7c4.952,3.192,12.3-.713,18.5-.713,7.31,0,14.182,3.706,20.185,3.706s12.039-3.767,19.573-3.767a23.459,23.459,0,0,1,11.89,2.961V177.6Z" transform="translate(-7.5 -174.594)" fill="#e8ad8c"/>
          <path id="Path_1257908" data-name="Path 1257908" d="M479.593,191.883V177.605H475.5v12.482A23.794,23.794,0,0,1,479.593,191.883Z" transform="translate(-409.446 -174.594)" fill="#e19974"/>
          <path id="Path_1257909" data-name="Path 1257909" d="M7.5,157.685v4.61H77.647v-4.61a1.411,1.411,0,0,0-1.411-1.411H8.911A1.411,1.411,0,0,0,7.5,157.685Z" transform="translate(-7.5 -156.274)" fill="#97da7b"/>
          <path id="Path_1257910" data-name="Path 1257910" d="M466.911,157.685v4.61H471v-4.61a1.411,1.411,0,0,0-1.411-1.411H465.5A1.411,1.411,0,0,1,466.911,157.685Z" transform="translate(-400.858 -156.274)" fill="#68ca44"/>
        </g>
        <g id="Group_1204098" data-name="Group 1204098" transform="translate(0 98.225)">
          <path id="Path_1257911" data-name="Path 1257911" d="M72.264,107.829a2.473,2.473,0,0,0-2.47-2.47H60.272a4.287,4.287,0,0,1,2.483-2.8,1.059,1.059,0,1,0-.68-2,6.284,6.284,0,0,0-3.8,4.081V99.284a1.059,1.059,0,1,0-2.117,0v5.357a6.283,6.283,0,0,0-3.8-4.082,1.059,1.059,0,0,0-.68,2,4.287,4.287,0,0,1,2.483,2.8H39.186a4.287,4.287,0,0,1,2.483-2.8,1.059,1.059,0,0,0-.68-2,6.284,6.284,0,0,0-3.8,4.081V99.284a1.059,1.059,0,1,0-2.117,0v5.357a6.284,6.284,0,0,0-3.8-4.082,1.059,1.059,0,0,0-.68,2,4.287,4.287,0,0,1,2.483,2.8H27.817a1.059,1.059,0,0,0,0,2.117H69.794a.353.353,0,0,1,.353.353v3.551H2.117v-3.551a.353.353,0,0,1,.353-.353H22.877a1.059,1.059,0,0,0,0-2.117H18.1a4.287,4.287,0,0,1,2.483-2.8,1.059,1.059,0,0,0-.68-2,6.284,6.284,0,0,0-3.8,4.082V99.284a1.059,1.059,0,1,0-2.117,0v5.357a6.284,6.284,0,0,0-3.8-4.081,1.059,1.059,0,0,0-.68,2,4.287,4.287,0,0,1,2.483,2.8H2.47A2.473,2.473,0,0,0,0,107.829v32.462a2.473,2.473,0,0,0,2.47,2.47H55.051a1.059,1.059,0,0,0,0-2.117H2.47a.353.353,0,0,1-.353-.353V123.221c3.241,1.2,7.044.395,10.74-.385a34.051,34.051,0,0,1,6.7-.97,41.179,41.179,0,0,1,10.8,1.952,36.551,36.551,0,0,0,9.385,1.754,32.045,32.045,0,0,0,8.969-1.767,36.856,36.856,0,0,1,10.6-2,22.416,22.416,0,0,1,10.832,2.538v15.949a.353.353,0,0,1-.353.353h-9.8a1.059,1.059,0,1,0,0,2.117h9.8a2.473,2.473,0,0,0,2.47-2.47ZM59.315,119.687a38.514,38.514,0,0,0-11.2,2.087,30.541,30.541,0,0,1-8.37,1.68,35.11,35.11,0,0,1-8.824-1.679,42.782,42.782,0,0,0-11.361-2.027,35.556,35.556,0,0,0-7.137,1.016c-3.869.816-7.535,1.589-10.3.146V113.5h68.03v8.483A24.516,24.516,0,0,0,59.315,119.687Z" transform="translate(0 -98.225)"/>
          <path id="Path_1257912" data-name="Path 1257912" d="M399.149,292.928l-.321.321a1.059,1.059,0,0,0,1.5,1.5l.321-.321a1.059,1.059,0,0,0-1.5-1.5Z" transform="translate(-342.271 -265.181)"/>
          <path id="Path_1257913" data-name="Path 1257913" d="M168.692,340.769l-.321.321a1.059,1.059,0,1,0,1.5,1.5l.321-.321a1.058,1.058,0,0,0-1.5-1.5Z" transform="translate(-144.341 -306.27)"/>
          <path id="Path_1257914" data-name="Path 1257914" d="M214.7,311.974l-.321.321a1.059,1.059,0,1,0,1.5,1.5l.321-.321a1.058,1.058,0,0,0-1.5-1.5Z" transform="translate(-183.855 -281.539)"/>
          <path id="Path_1257915" data-name="Path 1257915" d="M430.257,342.587l.321-.321a1.058,1.058,0,0,0-1.5-1.5l-.32.321a1.058,1.058,0,0,0,1.5,1.5Z" transform="translate(-367.978 -306.27)"/>
          <path id="Path_1257916" data-name="Path 1257916" d="M95.7,313.024l-.321.321a1.059,1.059,0,0,0,1.5,1.5l.321-.32a1.059,1.059,0,0,0-1.5-1.5Z" transform="translate(-81.655 -282.441)"/>
          <path id="Path_1257917" data-name="Path 1257917" d="M319.65,340.769l-.321.321a1.059,1.059,0,0,0,1.5,1.5l.321-.321a1.059,1.059,0,0,0-1.5-1.5Z" transform="translate(-273.993 -306.27)"/>
        </g>
      </g>
    </g>
    <rect id="Rectangle_411643" data-name="Rectangle 411643" width="103" height="103" transform="translate(253.972 11116.922)" fill="none"/>
  </g>
</svg>
