<svg xmlns="http://www.w3.org/2000/svg" width="103" height="103" viewBox="0 0 103 103">
  <g id="Group_1204088" data-name="Group 1204088" transform="translate(-253.972 -11116.922)">
    <g id="Group_1203593" data-name="Group 1203593" transform="translate(256.094 11138.794)">
      <rect id="Rectangle_410589" data-name="Rectangle 410589" width="99.185" height="33.062" rx="8" transform="translate(-0.122 13.128)" fill="#3e5b2c"/>
      <g id="Group_1204099" data-name="Group 1204099" transform="translate(3.378 -12.372)">
        <path id="Path_1257918" data-name="Path 1257918" d="M51.847,26,50.373,64.338h-5.9l-.221-5.913-.236-5.839L43,26Z" transform="translate(18.744 9.253)" fill="#f0e8e4"/>
        <path id="Path_1257919" data-name="Path 1257919" d="M44,52h5.9v2.949H44Z" transform="translate(19.218 21.591)" fill="#373737"/>
        <path id="Path_1257920" data-name="Path 1257920" d="M26.847,26,25.373,64.338h-5.9l-.221-5.913-.236-5.839L18,26Z" transform="translate(6.881 9.253)" fill="#f0e8e4"/>
        <path id="Path_1257921" data-name="Path 1257921" d="M19,52h5.9v2.949H19Z" transform="translate(7.355 21.591)" fill="#373737"/>
        <path id="Path_1257922" data-name="Path 1257922" d="M62.9,34.424c0,2.443-2.949,4.424-2.949,4.424S57,36.867,57,34.424,58.32,30,59.949,30,62.9,31.98,62.9,34.424Z" transform="translate(25.387 11.152)" fill="#373737"/>
        <path id="Path_1257923" data-name="Path 1257923" d="M50,52h5.9v2.949H50Z" transform="translate(22.066 21.591)" fill="#373737"/>
        <path id="Path_1257924" data-name="Path 1257924" d="M25,52h5.9v2.949H25Z" transform="translate(10.202 21.591)" fill="#373737"/>
        <path id="Path_1257925" data-name="Path 1257925" d="M57.593,38.8a11.8,11.8,0,1,0-19.906,8.551V50.6a1.475,1.475,0,0,0,2.949,0V49.4a11.7,11.7,0,0,0,3.686,1.1v1.576a1.475,1.475,0,1,0,2.949,0V50.5a11.7,11.7,0,0,0,3.686-1.1v1.2a1.475,1.475,0,0,0,2.949,0V47.353A11.752,11.752,0,0,0,57.593,38.8Z" transform="translate(14.473 9.723)" fill="#ff9c9f"/>
        <path id="Path_1257926" data-name="Path 1257926" d="M77.505,28.373a11.794,11.794,0,0,0-10.336-9.466,11.608,11.608,0,0,0-1.239-.059H32.016v-.118a8.729,8.729,0,0,0-14.189-6.811l-9.8,7.858a.054.054,0,0,1-.044.015A7.328,7.328,0,0,0,4,26.294v.015a7.257,7.257,0,0,0,6.621,7.24,5.015,5.015,0,0,0,.664.044h10.41A17.7,17.7,0,0,0,34.142,50.5l.366,9.638.118,2.949.339,8.847h5.9l.794-20.643H70.472l-.1,1.239,1.46,19.4h5.9V30.643a11.515,11.515,0,0,0-.221-2.271Z" transform="translate(0.237 1.661)" fill="#f7f5f5"/>
        <path id="Path_1257927" data-name="Path 1257927" d="M17.341,12.947S21.577,10.4,20.73,7a5.824,5.824,0,0,1,1.694,6.8C20.73,18.044,15.647,14.646,17.341,12.947Z" transform="translate(6.406 0.237)" fill="#c37f37"/>
        <path id="Path_1257928" data-name="Path 1257928" d="M28.373,15.949c0,1.629-2.7,2.949-4.74,2.949S21,17.578,21,15.949,21.6,13,23.633,13,28.373,14.32,28.373,15.949Z" transform="translate(8.304 3.085)" fill="#f0e8e4"/>
        <g id="Group_1204099-2" data-name="Group 1204099" transform="translate(25.898 20.508)">
          <path id="Path_1257929" data-name="Path 1257929" d="M47.745,20.424a7.373,7.373,0,1,1-14.745,0A7.286,7.286,0,0,1,34.475,16h11.8a7.286,7.286,0,0,1,1.475,4.424Z" transform="translate(-11.9 -16)" fill="#373737"/>
          <circle id="Ellipse_12760" data-name="Ellipse 12760" cx="2.949" cy="2.949" r="2.949" transform="translate(32.897 22.118)" fill="#373737"/>
          <circle id="Ellipse_12761" data-name="Ellipse 12761" cx="5.898" cy="5.898" r="5.898" transform="translate(9.304 17.694)" fill="#373737"/>
          <path id="Path_1257930" data-name="Path 1257930" d="M22.1,46.949A2.958,2.958,0,0,1,19.147,49.9a1.116,1.116,0,0,1-.221-.015l-.236-5.839A2.29,2.29,0,0,1,19.147,44,2.958,2.958,0,0,1,22.1,46.949Z" transform="translate(-18.69 -2.713)" fill="#373737"/>
          <path id="Path_1257931" data-name="Path 1257931" d="M56.854,24.949V33a5.9,5.9,0,1,1-.221-10.322A11.514,11.514,0,0,1,56.854,24.949Z" transform="translate(-4.788 -13.153)" fill="#373737"/>
        </g>
        <path id="Path_1257932" data-name="Path 1257932" d="M12.847,24.543A8.738,8.738,0,0,1,10.621,30.4,7.257,7.257,0,0,1,4,23.157v-.015a7.328,7.328,0,0,1,3.981-6.5A8.849,8.849,0,0,1,12.847,24.543Z" transform="translate(0.237 4.812)" fill="#f0e8e4"/>
        <path id="Path_1257933" data-name="Path 1257933" d="M86.029,40.509c-.385-6.756-2.037-11.311-4.937-13.5a6.255,6.255,0,0,0-4.32-1.316,12.594,12.594,0,0,0-9.286-5.857,12.2,12.2,0,0,0-1.318-.063H37.283a2.311,2.311,0,0,0,.132-.737c0-2.251-3.243-3.686-5.476-3.686-.135,0-.283.009-.434.023a9.4,9.4,0,0,0-1.689-2,6.526,6.526,0,0,0-2.236-6.72.737.737,0,0,0-1.159.767,4.065,4.065,0,0,1-1.3,3.673,9.092,9.092,0,0,0-1.6-.165A9.5,9.5,0,0,0,17.6,13L7.895,20.788,7.88,20.8A8.038,8.038,0,0,0,3.5,27.969a7.943,7.943,0,0,0,7.257,7.97,5.652,5.652,0,0,0,.764.051h9.688a18.378,18.378,0,0,0,3.34,9.889l1.068,27.739V76.54a.737.737,0,0,0,.737.737h5.9a.737.737,0,0,0,.737-.737v-2.92l.737-19.144.737,19.144v2.92a.737.737,0,0,0,.737.737h5.9a.737.737,0,0,0,.737-.737v-2.92L42.6,53.685h6.276a12.455,12.455,0,0,0,2.542,3.7V60.32a2.212,2.212,0,0,0,4.424,0v-.079a12.354,12.354,0,0,0,2.212.611v.943a2.208,2.208,0,0,0,4.014,1.274l.41,10.55V76.54a.737.737,0,0,0,.737.737h5.9a.737.737,0,0,0,.737-.737v-2.92l.5-12.964.976,12.97V76.54a.737.737,0,0,0,.737.737h5.9a.737.737,0,0,0,.737-.737V32.3a12.161,12.161,0,0,0-.235-2.411c0-.023-.014-.043-.018-.066l-.006-.02a12.163,12.163,0,0,0-.891-2.651,4.915,4.915,0,0,1,2.65,1.027c1.755,1.325,3.9,4.554,4.359,12.344-1.683.486-2.911,2.527-2.911,5.048,0,2.8,3.142,4.946,3.276,5.036a.734.734,0,0,0,.821,0c.134-.089,3.276-2.231,3.276-5.036,0-2.561-1.269-4.624-2.993-5.066Zm-8.952-9.946a10.709,10.709,0,0,1,.149,1.741v7.59a5.173,5.173,0,1,1-.15-9.332ZM59.891,21.245a6.53,6.53,0,0,1,1.116,3.686,6.635,6.635,0,0,1-13.271,0,6.53,6.53,0,0,1,1.116-3.686ZM35.94,19.034a1.414,1.414,0,0,1-.564.949l-.008.008a5.6,5.6,0,0,1-3.429,1.255c-.985,0-1.9-.268-1.9-2.212s.912-2.212,1.9-2.212C33.771,16.822,35.94,18.021,35.94,19.034ZM27.864,9.2a4.961,4.961,0,0,1,.281,4.562,2.127,2.127,0,0,1-1.925,1.587H26.2A2.342,2.342,0,0,1,24.2,14.194a.387.387,0,0,1,.026-.436A8.562,8.562,0,0,0,27.864,9.2ZM4.975,27.954a6.546,6.546,0,0,1,3.247-5.645A8.034,8.034,0,0,1,10.54,34.4a6.473,6.473,0,0,1-5.566-6.45Zm26.569,44.9H27.065l-.173-4.478a3.669,3.669,0,0,0-.28-7.292L26.1,47.792a18.332,18.332,0,0,0,6.239,4.4ZM26.75,64.668l-.081-2.113a2.2,2.2,0,0,1,.171,4.335ZM31.516,75.8H27.093V74.328h4.424Zm8.847,0H35.94V74.328h4.424Zm21.29-16.316a.737.737,0,0,0-.647.732v1.577a.737.737,0,1,1-1.475,0V60.218a.737.737,0,0,0-.646-.731,10.922,10.922,0,0,1-3.453-1.03.737.737,0,0,0-1.062.662v1.2a.737.737,0,0,1-1.475,0V57.076a.735.735,0,0,0-.23-.534A11.006,11.006,0,0,1,50.5,53.685h19.4l-.023.28a11.116,11.116,0,0,1-2.013,2.577.739.739,0,0,0-.229.534V60.32a.737.737,0,1,1-1.475,0v-1.2a.737.737,0,0,0-1.062-.662A10.922,10.922,0,0,1,61.653,59.487Zm1.8,1.145a12.341,12.341,0,0,0,1.239-.39v.079a2.2,2.2,0,0,0,4.156,1.032l-.442,11.5H63.928ZM68.379,75.8H63.956V74.328h4.424Zm2.33-23.592H41.894a.737.737,0,0,0-.737.708L40.39,72.854H35.912l-.8-20.727a.738.738,0,0,0-.518-.675,16.872,16.872,0,0,1-11.927-16.2.737.737,0,0,0-.737-.737H12.286A9.519,9.519,0,0,0,9.523,21.371l9-7.216a8.023,8.023,0,0,1,5-1.757c.022,0,.047,0,.07,0-.134.092-.223.147-.228.151a.784.784,0,0,0-.141.109,1.844,1.844,0,0,0-.389,2.1A3.757,3.757,0,0,0,26.2,16.822h.032a3.431,3.431,0,0,0,3.018-1.951,7.917,7.917,0,0,1,.789.963,3.375,3.375,0,0,0-1.475,3.2c0,3.207,2.112,3.686,3.371,3.686a7.266,7.266,0,0,0,4.252-1.475H47.148a8.027,8.027,0,0,0-.887,3.686,8.11,8.11,0,1,0,16.22,0,8.025,8.025,0,0,0-.887-3.686h4.573a10.821,10.821,0,0,1,1.161.055,11.113,11.113,0,0,1,9.312,7.527,6.555,6.555,0,0,0-1.626-.209,6.633,6.633,0,1,0,2.212,12.873V72.854H72.75L71.34,54.248l.1-1.239a.736.736,0,0,0-.734-.8ZM77.226,75.8H72.8V74.328h4.424Zm8.107-26.724a5.337,5.337,0,0,1-2.209-3.5c0-2,1.012-3.686,2.212-3.686s2.212,1.688,2.212,3.686A5.316,5.316,0,0,1,85.333,49.079Z" transform="translate(0 0)"/>
        <path id="Path_1257934" data-name="Path 1257934" d="M44.186,30.5a3.686,3.686,0,1,0,3.686,3.686A3.686,3.686,0,0,0,44.186,30.5Zm0,5.9A2.212,2.212,0,1,1,46.4,34.186,2.212,2.212,0,0,1,44.186,36.4Z" transform="translate(17.558 11.389)"/>
        <circle id="Ellipse_12762" data-name="Ellipse 12762" cx="1.475" cy="1.475" r="1.475" transform="translate(17.508 19.034)"/>
        <path id="Path_1257935" data-name="Path 1257935" d="M31.135,27.5a6.635,6.635,0,1,0,6.635,6.635A6.635,6.635,0,0,0,31.135,27.5Zm0,11.8A5.161,5.161,0,1,1,36.3,34.135,5.161,5.161,0,0,1,31.135,39.3Z" transform="translate(9.965 9.965)"/>
        <circle id="Ellipse_12763" data-name="Ellipse 12763" cx="0.737" cy="0.737" r="0.737" transform="translate(7.186 26.406)"/>
      </g>
    </g>
    <rect id="Rectangle_411643" data-name="Rectangle 411643" width="103" height="103" transform="translate(253.972 11116.922)" fill="none"/>
  </g>
</svg>
