<svg xmlns="http://www.w3.org/2000/svg" width="103" height="103" viewBox="0 0 103 103">
  <g id="Group_1204091" data-name="Group 1204091" transform="translate(-253.972 -11116.922)">
    <g id="Group_1203593" data-name="Group 1203593" transform="translate(256.094 11138.794)">
      <rect id="Rectangle_410589" data-name="Rectangle 410589" width="99.185" height="33.062" rx="8" transform="translate(-0.122 13.128)" fill="#ffc94a"/>
      <g id="Group_1204105" data-name="Group 1204105" transform="translate(-28.798 -7.872)">
        <g id="Group_1204118" data-name="Group 1204118" transform="translate(47.677 1.477)">
          <g id="Group_1204111" data-name="Group 1204111">
            <g id="Group_1204105-2" data-name="Group 1204105" transform="translate(1.476 8.219)">
              <path id="Path_1257977" data-name="Path 1257977" d="M57.676,90.96V70.314a4.659,4.659,0,0,1,4.659-4.659h45.674a4.659,4.659,0,0,1,4.659,4.659v55.123a4.659,4.659,0,0,1-4.659,4.659H62.335a4.659,4.659,0,0,1-4.659-4.659v-20.7" transform="translate(-57.676 -65.655)" fill="#627eff"/>
            </g>
            <g id="Group_1204106" data-name="Group 1204106" transform="translate(8.866 15.609)">
              <rect id="Rectangle_411648" data-name="Rectangle 411648" width="40.212" height="49.661" fill="#fff"/>
            </g>
            <g id="Group_1204107" data-name="Group 1204107" transform="translate(8.866)">
              <path id="Path_1257978" data-name="Path 1257978" d="M134.224,18.219a6.6,6.6,0,1,0-12.807,0h-13.7v7.39h40.212v-7.39Z" transform="translate(-107.715 -10)" fill="#8ed6f7"/>
            </g>
            <g id="Group_1204110" data-name="Group 1204110" transform="translate(0 38.962)">
              <g id="Group_1204108" data-name="Group 1204108" transform="translate(1.476 1.477)">
                <line id="Line_565" data-name="Line 565" fill="#627eff"/>
              </g>
              <g id="Group_1204109" data-name="Group 1204109">
                <path id="Path_1257979" data-name="Path 1257979" d="M49.157,276.779a1.47,1.47,0,0,1-.289-.03,1.479,1.479,0,0,1-.53-.22,1.407,1.407,0,0,1-.224-.183,1.424,1.424,0,0,1-.185-.224,1.513,1.513,0,0,1-.136-.256,1.493,1.493,0,0,1-.084-.276,1.456,1.456,0,0,1-.028-.288,1.478,1.478,0,0,1,.028-.289,1.518,1.518,0,0,1,.084-.276,1.486,1.486,0,0,1,.136-.254,1.417,1.417,0,0,1,.185-.225,1.472,1.472,0,0,1,.478-.32,1.491,1.491,0,0,1,.276-.084,1.461,1.461,0,0,1,.577,0,1.491,1.491,0,0,1,.276.084,1.457,1.457,0,0,1,.48.32,1.485,1.485,0,0,1,.433,1.044,1.458,1.458,0,0,1-.03.288,1.487,1.487,0,0,1-.084.276,1.5,1.5,0,0,1-.136.255,1.413,1.413,0,0,1-.183.224A1.487,1.487,0,0,1,49.157,276.779Z" transform="translate(-47.68 -273.825)"/>
              </g>
            </g>
          </g>
          <g id="Group_1204112" data-name="Group 1204112" transform="translate(27.495 3.889)">
            <path id="Path_1257980" data-name="Path 1257980" d="M235.337,40.862a1.477,1.477,0,0,1-1.477-1.477V37.81a1.477,1.477,0,0,1,2.954,0v1.575A1.477,1.477,0,0,1,235.337,40.862Z" transform="translate(-233.86 -36.333)"/>
          </g>
          <g id="Group_1204117" data-name="Group 1204117" transform="translate(14.13 21.916)">
            <g id="Group_1204113" data-name="Group 1204113">
              <path id="Path_1257981" data-name="Path 1257981" d="M158.838,173.878H151.1a7.74,7.74,0,0,1-7.74-7.74h0a7.74,7.74,0,0,1,7.74-7.74h0a7.74,7.74,0,0,1,7.74,7.74h0" transform="translate(-143.359 -158.399)" fill="#f4858a"/>
            </g>
            <g id="Group_1204114" data-name="Group 1204114" transform="translate(0 20.836)">
              <path id="Path_1257982" data-name="Path 1257982" d="M158.838,314.968H151.1a7.74,7.74,0,0,1-7.74-7.74h0a7.74,7.74,0,0,1,7.74-7.74h0a7.74,7.74,0,0,1,7.74,7.74h0" transform="translate(-143.359 -299.489)" fill="#33cdab"/>
            </g>
            <g id="Group_1204116" data-name="Group 1204116" transform="translate(3.784 25.156)">
              <g id="Group_1204115" data-name="Group 1204115">
                <path id="Path_1257983" data-name="Path 1257983" d="M172.858,335.579a1.472,1.472,0,0,1-.966-.36l-2.4-2.077a1.477,1.477,0,0,1,1.933-2.233l1.314,1.137,2.589-2.828a1.477,1.477,0,0,1,2.178,1.995l-3.559,3.887A1.473,1.473,0,0,1,172.858,335.579Z" transform="translate(-168.982 -328.739)"/>
              </g>
            </g>
          </g>
        </g>
        <g id="Group_1204132" data-name="Group 1204132" transform="translate(47.676)">
          <g id="Group_1204131" data-name="Group 1204131">
            <g id="Group_1204130" data-name="Group 1204130">
              <g id="Group_1204124" data-name="Group 1204124" transform="translate(49.079 12.747)">
                <g id="Group_1204122" data-name="Group 1204122">
                  <g id="Group_1204119" data-name="Group 1204119" transform="translate(5.488)">
                    <path id="Path_1257984" data-name="Path 1257984" d="M417.164,138.9h5.488V86.311h-5.488v21.448" transform="translate(-417.164 -86.311)" fill="#fff"/>
                  </g>
                  <g id="Group_1204120" data-name="Group 1204120">
                    <path id="Path_1257985" data-name="Path 1257985" d="M385.492,86.311H380V138.9h5.488" transform="translate(-380.004 -86.311)" fill="#f9d99a"/>
                  </g>
                  <g id="Group_1204121" data-name="Group 1204121" transform="translate(9.498 42.559)">
                    <path id="Path_1257986" data-name="Path 1257986" d="M445.8,377.449a1.453,1.453,0,0,1-.288-.03,1.488,1.488,0,0,1-.276-.084,1.515,1.515,0,0,1-.255-.136,1.4,1.4,0,0,1-.224-.183,1.415,1.415,0,0,1-.183-.224,1.459,1.459,0,0,1-.136-.255,1.493,1.493,0,0,1-.084-.276,1.462,1.462,0,0,1-.03-.288,1.486,1.486,0,0,1,.03-.289,1.562,1.562,0,0,1,.084-.276,1.493,1.493,0,0,1,.136-.254,1.409,1.409,0,0,1,.183-.225,1.457,1.457,0,0,1,.48-.32,1.489,1.489,0,0,1,.276-.084,1.462,1.462,0,0,1,.577,0,1.488,1.488,0,0,1,.276.084,1.572,1.572,0,0,1,.255.136,1.676,1.676,0,0,1,.224.185,1.507,1.507,0,0,1,.319.479,1.557,1.557,0,0,1,.084.276,1.479,1.479,0,0,1,.028.289,1.455,1.455,0,0,1-.028.288,1.484,1.484,0,0,1-.084.276,1.448,1.448,0,0,1-.136.255,1.5,1.5,0,0,1-.183.224,1.544,1.544,0,0,1-.224.183,1.572,1.572,0,0,1-.255.136,1.489,1.489,0,0,1-.276.084A1.467,1.467,0,0,1,445.8,377.449Z" transform="translate(-444.32 -374.495)"/>
                  </g>
                </g>
                <g id="Group_1204123" data-name="Group 1204123" transform="translate(0 52.593)">
                  <path id="Path_1257987" data-name="Path 1257987" d="M382.62,451.233h5.743a2.616,2.616,0,0,0,2.616-2.616v-6.18H380v6.18A2.616,2.616,0,0,0,382.62,451.233Z" transform="translate(-380.004 -442.437)" fill="#f4858a"/>
                </g>
              </g>
              <g id="Group_1204129" data-name="Group 1204129">
                <g id="Group_1204125" data-name="Group 1204125" transform="translate(51.433 1.624)">
                  <path id="Path_1257988" data-name="Path 1257988" d="M399.079,10.994l-3.134,6.351h6.267Z" transform="translate(-395.945 -10.994)" fill="#627eff"/>
                </g>
                <g id="Group_1204128" data-name="Group 1204128">
                  <g id="Group_1204126" data-name="Group 1204126" transform="translate(49.079 7.975)">
                    <path id="Path_1257989" data-name="Path 1257989" d="M382.358,54,380,58.772H390.98L388.625,54Z" transform="translate(-380.004 -54)" fill="#fccfc4"/>
                  </g>
                  <g id="Group_1204127" data-name="Group 1204127">
                    <path id="Path_1257990" data-name="Path 1257990" d="M142.575,166.833h15.767a1.477,1.477,0,0,0,0-2.954H142.575a6.263,6.263,0,1,1,6.263-6.263,1.477,1.477,0,0,0,2.954,0,9.216,9.216,0,1,0-9.216,9.216Z" transform="translate(-120.705 -126.484)"/>
                    <path id="Path_1257991" data-name="Path 1257991" d="M178.217,186.947a1.477,1.477,0,0,0-2.089,0l-1.067,1.067L174,186.947a1.477,1.477,0,1,0-2.088,2.089l1.066,1.066-1.066,1.066A1.477,1.477,0,1,0,174,193.258l1.067-1.067,1.067,1.067a1.477,1.477,0,1,0,2.088-2.089L177.15,190.1l1.066-1.066A1.477,1.477,0,0,0,178.217,186.947Z" transform="translate(-153.192 -158.97)"/>
                    <path id="Path_1257992" data-name="Path 1257992" d="M158.342,304.969H142.575a6.263,6.263,0,1,1,6.263-6.263,1.477,1.477,0,0,0,2.954,0,9.216,9.216,0,1,0-9.216,9.216h15.767a1.477,1.477,0,1,0,0-2.954Z" transform="translate(-120.705 -246.738)"/>
                    <path id="Path_1257993" data-name="Path 1257993" d="M109.207,12.744c0-.011,0-.021,0-.032s0,0,0-.006,0-.021,0-.031v-.032c0-.008,0-.016,0-.024s0-.007,0-.011a1.468,1.468,0,0,0-.158-.538L103.567.97a1.477,1.477,0,0,0-2.649,0L97.292,8.32a1.474,1.474,0,0,0-.537-.1H84.727c0-.047,0-.093,0-.14a8.08,8.08,0,0,0-16.159,0c0,.047,0,.093,0,.14H53.812a6.142,6.142,0,0,0-6.136,6.135V35a1.477,1.477,0,0,0,2.954,0V14.354a3.186,3.186,0,0,1,3.182-3.182h1.254V66.746a1.477,1.477,0,0,0,1.477,1.477H95.278v3.3a4.083,4.083,0,0,0,.161,1.14H53.812a3.186,3.186,0,0,1-3.182-3.182v-20.7a1.477,1.477,0,0,0-2.954,0v20.7a6.142,6.142,0,0,0,6.136,6.135h51.3a4.1,4.1,0,0,0,4.093-4.093V65.34a1.477,1.477,0,0,0-1.477-1.477h-9.5V14.223h2.534V34.194a1.477,1.477,0,1,0,2.954,0V14.223h2.534V49.4a1.477,1.477,0,0,0,2.954,0V12.747A.013.013,0,0,0,109.207,12.744Zm-6.964-7.783L103,6.5h-1.516Zm-32,6.211a1.477,1.477,0,0,0,1.432-1.837,5.126,5.126,0,1,1,9.942,0,1.477,1.477,0,0,0,1.432,1.837H95.278v1.55c0,.007,0,.013,0,.02v2.866H58.019V11.173Zm-12.226,7.39H95.278V65.27H58.019Zm48.234,48.254v4.7a1.141,1.141,0,0,1-1.14,1.14H99.371a1.141,1.141,0,0,1-1.14-1.14v-4.7ZM99.13,11.27l.9-1.818h4.431l.9,1.818Z" transform="translate(-47.676)"/>
                  </g>
                </g>
              </g>
            </g>
          </g>
        </g>
      </g>
    </g>
    <rect id="Rectangle_411643" data-name="Rectangle 411643" width="103" height="103" transform="translate(253.972 11116.922)" fill="none"/>
  </g>
</svg>
