<svg xmlns="http://www.w3.org/2000/svg" width="81" height="81" viewBox="0 0 81 81">
  <g id="Group_1204154" data-name="Group 1204154" transform="translate(-624.523 -6562)">
    <circle id="Ellipse_12701" data-name="Ellipse 12701" cx="40.5" cy="40.5" r="40.5" transform="translate(624.523 6562)" fill="#f9f9f6"/>
    <g id="Group_1204153" data-name="Group 1204153" transform="translate(622.524 6560)">
      <path id="Path_1258018" data-name="Path 1258018" d="M16,312H68.682v20.195H16Z" transform="translate(0 -263.513)" fill="#99ceb3"/>
      <path id="Path_1258019" data-name="Path 1258019" d="M288,289.444h12.292v4.232H288Z" transform="translate(-242.147 -243.433)" fill="#f6e597"/>
      <path id="Path_1258020" data-name="Path 1258020" d="M344,289.444h6.146v4.232H344Z" transform="translate(-292.001 -243.433)" fill="#efd66a"/>
      <path id="Path_1258021" data-name="Path 1258021" d="M318.832,115.007h-7.078L312.659,96h5.268Z" transform="translate(-263.294 -71.22)" fill="#f6e597"/>
      <path id="Path_1258022" data-name="Path 1258022" d="M336.637,115.007h-4.883L332.22,96h3.512Z" transform="translate(-281.099 -71.22)" fill="#efd66a"/>
      <path id="Path_1258023" data-name="Path 1258023" d="M294.048,267.512H280L281.756,264h10.536Z" transform="translate(-235.025 -220.781)" fill="#dd1c4b"/>
      <path id="Path_1258024" data-name="Path 1258024" d="M322.536,267.512H312L313.756,264h7.024Z" transform="translate(-263.513 -220.781)" fill="#af1e4b"/>
      <path id="Path_1258025" data-name="Path 1258025" d="M320,55V52.575a2.634,2.634,0,0,1,5.268,0V55" transform="translate(-270.635 -30.216)" fill="#af1e4b"/>
      <path id="Path_1258026" data-name="Path 1258026" d="M322.528,50.725a2.618,2.618,0,0,1,.985-.618A2.631,2.631,0,0,0,320,52.588v2.421h1.756V52.588a2.634,2.634,0,0,1,.771-1.863Z" transform="translate(-270.635 -30.229)" fill="#dd1c4b"/>
      <rect id="Rectangle_411649" data-name="Rectangle 411649" width="6" height="9" rx="3" transform="translate(17.999 33.681)" fill="#66af8d"/>
      <path id="Path_1258027" data-name="Path 1258027" d="M56,240h1.756v8.78H56Z" transform="translate(-35.61 -199.416)" fill="#d68029"/>
      <rect id="Rectangle_411650" data-name="Rectangle 411650" width="5" height="9" rx="2.5" transform="translate(23.999 33.681)" fill="#66af8d"/>
      <path id="Path_1258028" data-name="Path 1258028" d="M104,240h1.756v8.78H104Z" transform="translate(-78.342 -199.416)" fill="#d68029"/>
      <path id="Path_1258029" data-name="Path 1258029" d="M352.232,363.21h-1.756v-2.889a.623.623,0,0,0-.184-.443l-.251-.251a.628.628,0,0,0-.886,0l-1.57,1.569-1.242-1.242,1.57-1.57a2.386,2.386,0,0,1,3.369,0l.251.251a2.367,2.367,0,0,1,.7,1.685Z" transform="translate(-294.087 -304.187)" fill="#d68029"/>
      <path id="Path_1258030" data-name="Path 1258030" d="M225.561,344.707v-7.9l-1.756-1.756H216.78l-3.4-3.4a2.275,2.275,0,0,0-2.328-.55l-1.3.433L208,335.927l1.227.818a2.063,2.063,0,0,0,2.6-.258l.56-.56.878,2.634.878,6.146H215.9V341.2l7.024-.878v4.39Z" transform="translate(-170.927 -280.416)" fill="#feac4f"/>
      <path id="Path_1258031" data-name="Path 1258031" d="M287.039,102.331l9.514,9.514,2.518-2.448L289.6,99.921Z" transform="translate(-241.292 -74.711)" fill="#bc9a0c"/>
      <path id="Path_1258032" data-name="Path 1258032" d="M289.157,110.89l9.615-9.615-2.54-2.427L286.58,108.5Z" transform="translate(-240.883 -73.755)" fill="#bc9a0c"/>
      <path id="Path_1258033" data-name="Path 1258033" d="M264,424h24.585v3.512H264Z" transform="translate(-220.781 -363.221)" fill="#2993ce"/>
      <path id="Path_1258034" data-name="Path 1258034" d="M223.581,32.071,219.856,35.8l-8.071-6.829L216.752,24Z" transform="translate(-174.297 -7.122)" fill="#2d7a54"/>
      <path id="Path_1258035" data-name="Path 1258035" d="M376.316,183.564l-4.967,4.967-6.829-8.071,3.725-3.725Z" transform="translate(-310.269 -143.094)" fill="#2d7a54"/>
      <path id="Path_1258036" data-name="Path 1258036" d="M299.512,402.536H296v-9.658l1.756-.878,1.756.878Z" transform="translate(-249.269 -334.733)" fill="#c3e0ed"/>
      <path id="Path_1258037" data-name="Path 1258037" d="M219.856,176.735l3.725,3.725-6.829,8.071-4.967-4.967Z" transform="translate(-174.297 -143.094)" fill="#2d7a54"/>
      <path id="Path_1258038" data-name="Path 1258038" d="M371.349,24l4.967,4.967L368.245,35.8l-3.725-3.725Z" transform="translate(-310.269 -7.122)" fill="#2d7a54"/>
      <path id="Path_1258039" data-name="Path 1258039" d="M363.512,402.536H360v-9.658l1.756-.878,1.756.878Z" transform="translate(-306.245 -334.733)" fill="#c3e0ed"/>
      <path id="Path_1258040" data-name="Path 1258040" d="M427.512,402.536H424v-9.658l1.756-.878,1.756.878Z" transform="translate(-363.221 -334.733)" fill="#c3e0ed"/>
      <path id="Path_1258041" data-name="Path 1258041" d="M17.756,307.213H16v-2.889a2.367,2.367,0,0,1,.7-1.685l.251-.251a2.386,2.386,0,0,1,3.369,0l1.57,1.57L20.647,305.2l-1.569-1.569a.627.627,0,0,0-.887,0l-.251.251a.623.623,0,0,0-.184.443Z" transform="translate(0 -254.336)" fill="#d68029"/>
      <path id="Path_1258042" data-name="Path 1258042" d="M40,289.048v-3.769a1.5,1.5,0,0,1,.439-1.06,1.5,1.5,0,0,0,.439-1.06v-1.392a1.5,1.5,0,0,1,.439-1.06l1.317-1.317h7.024l3.269-3.269a2.566,2.566,0,0,1,2.626-.62l1.129.376,1.347,3.366a1.359,1.359,0,0,1-.508,1.635l-.79.527a1.359,1.359,0,0,1-1.715-.17l-.968-.969L53.17,282.9l-.878,6.146H49.658v-3.512l-3.406-.681a1.874,1.874,0,0,0-1.693.513l-.82.82a.774.774,0,0,1-.547.227.774.774,0,0,0-.734.529l-.7,2.105Z" transform="translate(-21.366 -230.903)" fill="#feac4f"/>
      <path id="Path_1258043" data-name="Path 1258043" d="M328,296h3.512v3.512H328Z" transform="translate(-277.757 -249.269)" fill="#0a4566"/>
      <g id="Group_1204152" data-name="Group 1204152" transform="translate(16.878 60.779)">
        <path id="Path_1258044" data-name="Path 1258044" d="M24,440h1.756v1.756H24Z" transform="translate(-24 -438.244)" fill="#66af8d"/>
        <path id="Path_1258045" data-name="Path 1258045" d="M56,440h4.39v1.756H56Z" transform="translate(-52.488 -438.244)" fill="#66af8d"/>
        <path id="Path_1258046" data-name="Path 1258046" d="M152,456h1.756v1.756H152Z" transform="translate(-137.952 -452.488)" fill="#66af8d"/>
        <path id="Path_1258047" data-name="Path 1258047" d="M200,448h1.756v1.756H200Z" transform="translate(-180.683 -445.366)" fill="#66af8d"/>
        <path id="Path_1258048" data-name="Path 1258048" d="M152,424h1.756v1.756H152Z" transform="translate(-137.952 -424)" fill="#66af8d"/>
      </g>
      <path id="Path_1258049" data-name="Path 1258049" d="M231.606,333.174h-2.634v-1.756a.878.878,0,0,0-.485-.785l-1.756-.878a.878.878,0,0,0-.785,0l-1.756.878a.878.878,0,0,0-.485.785v1.756h-1.756v-3.767a2.367,2.367,0,0,0-.7-1.685l-.251-.251a2.386,2.386,0,0,0-3.369,0l-.071.071-.257-.257a.878.878,0,0,0-.621-.257h-6.66l-3.139-3.139a3.136,3.136,0,0,0-3.227-.762l-1.3.433a.878.878,0,0,0-.538.507l-1.756,4.39a.878.878,0,0,0,.328,1.057l1.227.818a2.951,2.951,0,0,0,3.245.012l.426,1.277.867,6.068h0a.878.878,0,0,0,.868.754h2.634v2.634a.878.878,0,0,0,.878.878h3.512a.878.878,0,0,0,.878-.878v-2.634h1.756v2.634a.878.878,0,0,0,.878.878h3.512a.878.878,0,0,0,.878-.878v-2.634H223.7v2.634a.878.878,0,0,0,.878.878h3.512a.878.878,0,0,0,.878-.878v-2.634h2.634a.878.878,0,0,0,.878-.878v-3.512A.878.878,0,0,0,231.606,333.174Zm-21.951,3.512H207.9V334.93h1.756Zm3.512,3.512h-1.756V331.96l.878-.439.878.439Zm3.512-3.512h-1.756V334.93h1.756Zm.878-6.25-.393.2a.878.878,0,0,0-.485.785v1.756h-1.756v-1.756a.878.878,0,0,0-.485-.785l-1.756-.878a.878.878,0,0,0-.785,0l-1.756.878a.878.878,0,0,0-.485.785v1.756h-2.374l-.269-1.88a.87.87,0,0,0-.036-.154l-.878-2.634a.878.878,0,0,0-1.454-.343l-.56.56a1.188,1.188,0,0,1-1.5.148l-.634-.423,1.34-3.351.914-.3a1.389,1.389,0,0,1,1.429.337l3.4,3.4a.878.878,0,0,0,.621.258h6.661l1.242,1.242Zm2.634,1.86v7.9h-1.756V331.96l.878-.439.878.439Zm0-2.3-.485-.243a.595.595,0,0,1-.65-.714l-.257-.257.071-.071a.628.628,0,0,1,.886,0l.251.251a.623.623,0,0,1,.184.443Zm3.512,6.689h-1.756V334.93H223.7Zm3.512,3.512H225.46V331.96l.878-.439.878.439Zm3.512-3.512h-1.756V334.93h1.756Z" transform="translate(-163.803 -273.273)"/>
      <path id="Path_1258050" data-name="Path 1258050" d="M59.77,47.192a.878.878,0,0,0,.038-.854l-1.277-2.554L60.41,46a.878.878,0,0,0,.634.31h.037a.878.878,0,0,0,.621-.257l4.967-4.967a.878.878,0,0,0-.054-1.291l-8.071-6.83a.878.878,0,0,0-1.188.049l-1.863-1.863,1.863-1.863a.878.878,0,0,0,1.188.049l8.071-6.83a.878.878,0,0,0,.054-1.291L61.7,16.257a.878.878,0,0,0-1.291.054l-4.908,5.8a3.512,3.512,0,0,0-7.015.247v.288l-5.362-6.337a.878.878,0,0,0-1.291-.054l-4.967,4.967a.878.878,0,0,0,.054,1.291l8.071,6.83A.878.878,0,0,0,46.18,29.3l1.863,1.863L46.18,33.02a.878.878,0,0,0-1.188-.049L36.921,39.8a.878.878,0,0,0-.054,1.291l4.967,4.967a.878.878,0,0,0,.621.257h.037a.878.878,0,0,0,.634-.31l4.61-5.448L47.65,42.34h-.919a.878.878,0,0,0-.785.485L44.19,46.338a.878.878,0,0,0,.785,1.271H37.316l-1.184-2.96a.878.878,0,0,0-.538-.507l-1.129-.376a3.426,3.426,0,0,0-3.525.832l-3.011,3.011h-.514V43.985a3.518,3.518,0,0,0,2.634-3.4V37.072A3.51,3.51,0,0,0,23.9,34.753a3.51,3.51,0,0,0-6.146,2.319v3.512a3.518,3.518,0,0,0,2.634,3.4v4.138l-.071-.071a2.386,2.386,0,0,0-3.369,0L16.7,48.3a2.367,2.367,0,0,0-.7,1.685v2.889h1.756V49.988a.623.623,0,0,1,.184-.443l.251-.251a.627.627,0,0,1,.887,0l.081.081a2.359,2.359,0,0,0-.525,1.489v1.392a.617.617,0,0,1-.182.439,2.361,2.361,0,0,0-.7,1.681v3.769a.878.878,0,0,0,.878.878H20.39a.878.878,0,0,0,.833-.6l.679-2.036a1.64,1.64,0,0,0,1.092-.482l.82-.82a.994.994,0,0,1,.9-.273l2.7.54v2.792a.878.878,0,0,0,.878.878h2.634a.878.878,0,0,0,.869-.754l.867-6.068.4-1.212a2.243,2.243,0,0,0,2.786.244l.79-.527a2.236,2.236,0,0,0,.93-1.342h7.4v.878a.878.878,0,0,0,.878.878H58.145a.878.878,0,0,0,.878-.878v-.878h9.658V47.609H59.023a.878.878,0,0,0,.747-.416ZM24.78,37.072a1.756,1.756,0,1,1,3.512,0v3.512a1.756,1.756,0,0,1-.878,1.518V40.584H25.658V42.1a1.756,1.756,0,0,1-.878-1.518ZM23.9,42.9a3.516,3.516,0,0,0,1.756,1.082v3.623H22.146V43.985A3.516,3.516,0,0,0,23.9,42.9Zm-4.39-2.319V37.072a1.756,1.756,0,1,1,3.512,0v3.512a1.756,1.756,0,0,1-.878,1.518V40.584H20.39V42.1A1.756,1.756,0,0,1,19.512,40.584Zm16.156,8.661-.79.527a.482.482,0,0,1-.607-.06l-.968-.968a.878.878,0,0,0-1.454.343l-.878,2.634a.871.871,0,0,0-.036.154l-.769,5.392H29.17V54.633a.878.878,0,0,0-.706-.861l-3.406-.681a2.748,2.748,0,0,0-2.486.753l-.79.79a1.65,1.65,0,0,0-1.523,1.128l-.5,1.5h-.245V54.376a.617.617,0,0,1,.182-.439,2.361,2.361,0,0,0,.7-1.681V50.864a.617.617,0,0,1,.182-.439l1.06-1.06h6.661a.878.878,0,0,0,.621-.257l3.269-3.269a1.679,1.679,0,0,1,1.728-.408l.743.248,1.2,2.988a.483.483,0,0,1-.18.579ZM56.114,34.262,54.872,35.5l-1.863-1.863L54.251,32.4Zm-6.209,2.483,1.863-1.863,1.863,1.863a.878.878,0,0,0-.049,1.188l.847,1,.162,3.406H49.408l.19-3.985.357-.422a.878.878,0,0,0-.049-1.188Zm.621-5.588,1.242-1.242,1.242,1.242L51.768,32.4ZM61.134,18.174l3.618,3.617-6.726,5.691-2.5-2.5-.008-.162Zm-6.262,8.638,1.242,1.242-1.863,1.863-1.242-1.242Zm-4.629-4.453a1.756,1.756,0,1,1,3.512,0V23.9H50.243Zm-.041,3.3h3.34l-1.774,1.774-1.575-1.575ZM45.51,27.482l-6.726-5.691L42.4,18.173,48.092,24.9Zm1.912.571,1.242-1.242,1.863,1.863-1.242,1.242ZM49.284,32.4l1.242,1.242L48.663,35.5l-1.242-1.242ZM42.4,44.142l-3.617-3.617,6.726-5.691,2.583,2.582Zm6.964,5.223H46.731V47.609h2.634Zm3.512,0H51.121V47.609h1.756Zm4.39,0H54.633V47.609h2.634ZM46.4,45.853l.878-1.756h9.451l.878,1.756Zm9.9-4.717,1.022,1.207c-.015,0-.03,0-.046,0h-.919Zm-.848-3.721,2.583-2.582,6.726,5.691-3.618,3.617Z" transform="translate(0 0)"/>
      <path id="Path_1258051" data-name="Path 1258051" d="M24,440h1.756v1.756H24Z" transform="translate(-7.122 -377.465)"/>
      <path id="Path_1258052" data-name="Path 1258052" d="M56,440h4.39v1.756H56Z" transform="translate(-35.61 -377.465)"/>
      <path id="Path_1258053" data-name="Path 1258053" d="M152,456h1.756v1.756H152Z" transform="translate(-121.074 -391.709)"/>
      <path id="Path_1258054" data-name="Path 1258054" d="M200,448h1.756v1.756H200Z" transform="translate(-163.805 -384.587)"/>
      <path id="Path_1258055" data-name="Path 1258055" d="M152,424h1.756v1.756H152Z" transform="translate(-121.074 -363.221)"/>
    </g>
  </g>
</svg>
