<svg xmlns="http://www.w3.org/2000/svg" width="103" height="103" viewBox="0 0 103 103">
  <g id="Group_1204085" data-name="Group 1204085" transform="translate(-253.972 -11116.921)">
    <g id="Group_1203593" data-name="Group 1203593" transform="translate(256.094 11138.794)">
      <rect id="Rectangle_410589" data-name="Rectangle 410589" width="99.185" height="33.062" rx="8" transform="translate(0 12.94)" fill="#3e5b2c"/>
      <g id="Group_1204157" data-name="Group 1204157" transform="translate(9.878 -9.873)">
        <path id="Path_1258068" data-name="Path 1258068" d="M46.928,110.035A18.988,18.988,0,0,0,10,116.248c0,12.422,4.166,43.47,24.07,43.47,7.67,0,6.217-5.863,13.887-5.863s6.217,5.863,13.887,5.863c19.9,0,24.07-31.047,24.07-43.47a18.988,18.988,0,0,0-36.928-6.213Z" transform="translate(-8.457 -82.262)" fill="#ff7b79"/>
        <path id="Path_1258069" data-name="Path 1258069" d="M139.64,17.651c5.134,7.328,1.709,18.579,1.709,18.579s-11.749-.631-16.883-7.96S122.782,10,122.782,10,134.506,10.322,139.64,17.651Z" transform="translate(-102.878 -8.457)" fill="#a0e5a5"/>
        <path id="Path_1258070" data-name="Path 1258070" d="M248.679,36.23s-1.594-17.9,6.892-26.23h9.1s-12.086,12.138-13.938,26.23Z" transform="translate(-210.208 -8.457)" fill="#ffd0c7"/>
        <g id="Group_1204157-2" data-name="Group 1204157" transform="translate(0 0)">
          <path id="Path_1258071" data-name="Path 1258071" d="M77.387,26a20.522,20.522,0,0,0-32.643-7.275A59.914,59.914,0,0,1,55.56,2.632,1.543,1.543,0,0,0,54.466,0h-9.1a1.543,1.543,0,0,0-1.081.442,22.717,22.717,0,0,0-5.4,9.249,14.93,14.93,0,0,0-.858-1.383C32.51.435,20.457.015,19.947,0a1.542,1.542,0,0,0-1.514,1.078,29.88,29.88,0,0,0-.881,12.6A20.5,20.5,0,0,0,0,33.987,85.029,85.029,0,0,0,.978,46.25,72.124,72.124,0,0,0,4.671,60.927a43.656,43.656,0,0,0,3.254,6.841,28.174,28.174,0,0,0,4.455,5.749A19.408,19.408,0,0,0,18.235,77.5,18.5,18.5,0,0,0,25.608,79a10.915,10.915,0,0,0,5.042-1.089,10.976,10.976,0,0,0,2.358-1.7,24.986,24.986,0,0,1,2.569-2.165,7.2,7.2,0,0,1,3.924-.913,7.655,7.655,0,0,1,3.618.744A16.49,16.49,0,0,1,45.4,75.66a14.027,14.027,0,0,0,2.484,1.992A10.444,10.444,0,0,0,53.334,79H53.4a18.274,18.274,0,0,0,8.121-1.841,20.57,20.57,0,0,0,6.274-4.868,1.543,1.543,0,0,0-2.3-2.054,17.517,17.517,0,0,1-5.328,4.15,15.1,15.1,0,0,1-6.775,1.526,7.667,7.667,0,0,1-3.618-.744,7.815,7.815,0,0,1-1.7-1.241c-.19-.17-.38-.35-.582-.54A14.041,14.041,0,0,0,45,71.4a10.605,10.605,0,0,0-5.493-1.347,9.893,9.893,0,0,0-7.4,2.785A25.163,25.163,0,0,1,29.537,75a7.2,7.2,0,0,1-3.924.913A15.365,15.365,0,0,1,14.532,71.3c-5-4.843-7.723-12.719-9.122-18.472A83.786,83.786,0,0,1,3.086,33.987,17.442,17.442,0,0,1,18.31,16.69,15.909,15.909,0,0,0,20.324,20.7c5.5,7.853,17.608,8.589,18.119,8.616h2.086a1.543,1.543,0,0,0,1.456-1.036l0,0,.005-.014,0-.01a17.428,17.428,0,0,1,16.479-11.7h0A17.437,17.437,0,0,1,75.914,33.987a80.962,80.962,0,0,1-4.047,24.684,1.546,1.546,0,0,0,.944,1.967,1.528,1.528,0,0,0,.512.088A1.547,1.547,0,0,0,74.778,59.7a74.681,74.681,0,0,0,3.331-14.049A85.408,85.408,0,0,0,79,33.987,20.406,20.406,0,0,0,77.387,26Zm-40.557.038c-3.292-.483-10.459-2.085-13.978-7.108C19.154,13.65,20.4,6.064,21.071,3.18,24.058,3.491,31.8,4.8,35.5,10.079a13.621,13.621,0,0,1,2.078,4.908A55.01,55.01,0,0,0,36.83,26.037Zm3.082-2.955c.125-5.5,1.135-14.675,6.1-20H51c-3.184,3.777-8.7,11.232-11.089,20Z" transform="translate(0 0)"/>
          <path id="Path_1258072" data-name="Path 1258072" d="M318.516,205.543a1.543,1.543,0,1,0-3.086,0v2.314h-5.246a1.543,1.543,0,1,0,0,3.086h5.246v3.086h-2.16a1.543,1.543,0,1,0,0,3.086h.858a10.69,10.69,0,0,1-4.869,3.041,10.687,10.687,0,0,1-4.869-3.041H307.1a1.543,1.543,0,1,0,0-3.086h-4.012v-3.086h.926a1.543,1.543,0,1,0,0-3.086h-.926v-2.314a1.543,1.543,0,1,0-3.086,0v8.486a7.29,7.29,0,0,0,.292,1.985,9.44,9.44,0,0,0,3.123,4.444,14.076,14.076,0,0,0,1.833,1.286,14.073,14.073,0,0,0-1.833,1.286,9.439,9.439,0,0,0-3.123,4.444,7.289,7.289,0,0,0-.292,1.985v8.486a1.543,1.543,0,1,0,3.086,0v-2.314h.926a1.543,1.543,0,1,0,0-3.086h-.926v-3.086H307.1a1.543,1.543,0,1,0,0-3.086h-2.709a10.69,10.69,0,0,1,4.869-3.041,10.687,10.687,0,0,1,4.869,3.041h-.858a1.543,1.543,0,1,0,0,3.086h2.16v3.086h-5.246a1.543,1.543,0,1,0,0,3.086h5.246v2.314a1.543,1.543,0,1,0,3.086,0v-8.486a7.289,7.289,0,0,0-.292-1.985,9.44,9.44,0,0,0-3.123-4.444,14.069,14.069,0,0,0-1.833-1.286,14.072,14.072,0,0,0,1.833-1.286,9.439,9.439,0,0,0,3.123-4.444,7.29,7.29,0,0,0,.292-1.985Z" transform="translate(-253.711 -172.524)"/>
          <path id="Path_1258073" data-name="Path 1258073" d="M110.224,216.014a7.29,7.29,0,0,0,.292-1.985v-8.486a1.543,1.543,0,0,0-3.086,0v2.314h-5.246a1.543,1.543,0,1,0,0,3.086h5.246v3.086h-2.16a1.543,1.543,0,1,0,0,3.086h.858a10.69,10.69,0,0,1-4.869,3.041,10.687,10.687,0,0,1-4.869-3.041H99.1a1.543,1.543,0,1,0,0-3.086H95.086v-3.086h.926a1.543,1.543,0,1,0,0-3.086h-.926v-2.314a1.543,1.543,0,0,0-3.086,0v8.486a7.291,7.291,0,0,0,.292,1.985,9.44,9.44,0,0,0,3.123,4.444,14.075,14.075,0,0,0,1.833,1.286,14.072,14.072,0,0,0-1.833,1.286,9.439,9.439,0,0,0-3.123,4.444A7.29,7.29,0,0,0,92,229.459v8.486a1.543,1.543,0,1,0,3.086,0v-2.314h.926a1.543,1.543,0,1,0,0-3.086h-.926v-3.086H99.1a1.543,1.543,0,1,0,0-3.086H96.388a10.69,10.69,0,0,1,4.869-3.041,10.688,10.688,0,0,1,4.869,3.041h-.858a1.543,1.543,0,1,0,0,3.086h2.16v3.086h-5.246a1.543,1.543,0,1,0,0,3.086h5.246v2.314a1.543,1.543,0,1,0,3.086,0v-8.486a7.29,7.29,0,0,0-.292-1.985,9.44,9.44,0,0,0-3.123-4.444,14.072,14.072,0,0,0-1.834-1.286,14.075,14.075,0,0,0,1.834-1.286A9.44,9.44,0,0,0,110.224,216.014Z" transform="translate(-77.805 -172.524)"/>
          <path id="Path_1258074" data-name="Path 1258074" d="M222.172,291.344a1.543,1.543,0,0,0,1.543-1.543v-3.086H226.8a1.543,1.543,0,1,0,0-3.086h-3.086v-3.086a1.543,1.543,0,1,0-3.086,0v3.086h-3.086a1.543,1.543,0,1,0,0,3.086h3.086V289.8A1.543,1.543,0,0,0,222.172,291.344Z" transform="translate(-182.672 -235.951)"/>
          <circle id="Ellipse_12765" data-name="Ellipse 12765" cx="1.543" cy="1.543" r="1.543" transform="translate(69.013 64.007)"/>
        </g>
      </g>
    </g>
    <rect id="Rectangle_411643" data-name="Rectangle 411643" width="103" height="103" transform="translate(253.972 11116.921)" fill="none"/>
  </g>
</svg>
