<svg xmlns="http://www.w3.org/2000/svg" width="103" height="103" viewBox="0 0 103 103">
  <g id="Group_1204092" data-name="Group 1204092" transform="translate(-253.972 -11116.922)">
    <g id="Group_1203593" data-name="Group 1203593" transform="translate(256.094 11138.794)">
      <rect id="Rectangle_410589" data-name="Rectangle 410589" width="99.185" height="33.062" rx="8" transform="translate(-0.122 13.128)" fill="#ffc94a"/>
      <g id="Group_1204104" data-name="Group 1204104" transform="translate(8.878 -17.896)">
        <path id="Path_1257961" data-name="Path 1257961" d="M84.359,190.049H82.193a18.313,18.313,0,0,0-12.519-30.794.676.676,0,0,1-.617-.517,11.848,11.848,0,0,0-4.651-6.952c-4.644-3.206-9.911-1.56-11.394-.989a.682.682,0,0,1-.716-.148,21.833,21.833,0,0,0-23.67-4.445,21.953,21.953,0,0,0-12.5,23.656.677.677,0,0,1-.421.735c-8.272,3.286-9.889,13.092-4.655,19.454h-.285a2.725,2.725,0,0,0-2.726,2.726v3.407a2.725,2.725,0,0,0,2.726,2.726h73.6a2.725,2.725,0,0,0,2.726-2.726v-3.407A2.725,2.725,0,0,0,84.359,190.049Z" transform="translate(-6.668 -113.199)" fill="#c79a83"/>
        <path id="Path_1257962" data-name="Path 1257962" d="M87.084,414.751v3.407a2.725,2.725,0,0,1-2.726,2.726h-73.6a2.725,2.725,0,0,1-2.726-2.726v-3.407a2.725,2.725,0,0,1,2.726-2.726h73.6A2.725,2.725,0,0,1,87.084,414.751Z" transform="translate(-6.668 -335.175)" fill="#ffd9ad"/>
        <ellipse id="Ellipse_12764" data-name="Ellipse 12764" cx="7.347" cy="4.61" rx="7.347" ry="4.61" transform="translate(51.678 62.09) rotate(-45)" fill="#befa91"/>
        <path id="Path_1257963" data-name="Path 1257963" d="M346.1,279.9a1.092,1.092,0,0,1-1.578,1.39,3.439,3.439,0,0,0-1.931-.588,8.773,8.773,0,0,0-3.33.652,1.093,1.093,0,0,1-.995-1.934,8.76,8.76,0,0,1,4.764-1.4A3.266,3.266,0,0,1,346.1,279.9Z" transform="translate(-280.22 -224.003)" fill="#daffbf"/>
        <path id="Path_1257964" data-name="Path 1257964" d="M59.653,157.892c-3.329-2.669-11.9-8.07-22.5-3.433a21.937,21.937,0,0,0-12.676,22.289,2.7,2.7,0,0,1-1.457,2.651,11.7,11.7,0,0,0-6.257,8.394,2.732,2.732,0,0,1-2.683,2.253H11.055c-5.234-6.363-3.613-16.16,4.655-19.456a.678.678,0,0,0,.421-.735,21.954,21.954,0,0,1,12.5-23.654,21.806,21.806,0,0,1,23.67,4.445.679.679,0,0,0,.713.148c1.481-.57,6.75-2.218,11.4.989C68.951,154.914,63.495,160.973,59.653,157.892Z" transform="translate(-6.675 -113.194)" fill="#e0b7a3"/>
        <path id="Path_1257965" data-name="Path 1257965" d="M84.395,414.92H15.533a2.726,2.726,0,0,0-2.726,2.726v1.228a2.055,2.055,0,0,1-2.013,2.065,2.726,2.726,0,0,1-2.757-2.726V414.75a2.726,2.726,0,0,1,2.726-2.726h73.6A1.448,1.448,0,1,1,84.395,414.92Z" transform="translate(-6.668 -335.174)" fill="#ffebd2"/>
        <g id="Group_1204104-2" data-name="Group 1204104" transform="translate(0 8.024)">
          <path id="Path_1257966" data-name="Path 1257966" d="M81.857,145.56c7.874-8.659,21.065-8.2,29.079-.274a1.363,1.363,0,0,0,1.529.269c.056-.026,5.7-2.563,10.444.711a10.506,10.506,0,0,1,4.193,6.582,1.363,1.363,0,0,0,1.3,1.1,17.671,17.671,0,0,1,4.684.782,1.353,1.353,0,0,0,.633.211,16.825,16.825,0,0,1,10.148,22,1.363,1.363,0,1,0,2.548.969,19.549,19.549,0,0,0-10.99-25.241,11.457,11.457,0,0,1,5.286-6.8,1.363,1.363,0,0,0-1.371-2.356,14.319,14.319,0,0,0-2.515,1.861,13.989,13.989,0,0,0-3.359-2.692,1.363,1.363,0,1,0-1.36,2.362A11.39,11.39,0,0,1,135,147.418a14.079,14.079,0,0,0-2.168,4.415,20.394,20.394,0,0,0-3.3-.546c-2.019-7.178-9.128-11.39-17.321-8.553-9.281-8.536-23.73-8.506-32.368.992a1.363,1.363,0,0,0,2.017,1.834Z" transform="translate(-65.945 -114.581)"/>
          <path id="Path_1257967" data-name="Path 1257967" d="M77.691,239.582H11.618a1.363,1.363,0,1,0,0,2.726H77.691a1.364,1.364,0,0,1,1.363,1.363v3.407a1.364,1.364,0,0,1-1.363,1.363H4.095a1.364,1.364,0,0,1-1.363-1.363v-3.407a1.364,1.364,0,0,1,1.363-1.363h.284a1.36,1.36,0,0,0,1.052-2.229c-4.623-5.866-3.252-14.736,4.572-17.5a1.363,1.363,0,0,0,.886-1.535A21.089,21.089,0,0,1,11.776,210a10.2,10.2,0,0,1,3.48,3.144,1.363,1.363,0,1,0,2.237-1.557c-2.87-4.124-7.6-5.983-12.557-5.753a1.363,1.363,0,1,0,.125,2.723,13.973,13.973,0,0,1,4.18.435,23.767,23.767,0,0,0-1.213,11.443C.143,223.918-2.148,233.1,2.111,240.1a4.091,4.091,0,0,0-2.1,3.573v3.407A4.093,4.093,0,0,0,4.1,251.167h73.6a4.093,4.093,0,0,0,4.089-4.089v-3.407A4.093,4.093,0,0,0,77.691,239.582Z" transform="translate(0 -172.119)"/>
          <path id="Path_1257968" data-name="Path 1257968" d="M136.171,218.465a1.363,1.363,0,0,0,.911-1.18,8.047,8.047,0,0,1,7.641-7.436,1.363,1.363,0,1,0-.212-2.717,11.39,11.39,0,0,0-8.012,4.258,10.7,10.7,0,0,0-2.037,4.849,7.24,7.24,0,0,0-3.26,9.835,1.363,1.363,0,1,0,2.424-1.246,4.529,4.529,0,0,1,2.545-6.362Z" transform="translate(-108.18 -173.209)"/>
          <path id="Path_1257969" data-name="Path 1257969" d="M238.573,301.827a4.291,4.291,0,0,1,2.2-.932,1.363,1.363,0,1,0-.359-2.7,6.973,6.973,0,0,0-3.594,1.55c-3.241,2.732-2.358,7.322-2.319,7.516a1.363,1.363,0,0,0,2.672-.538c-.006-.032-.6-3.2,1.4-4.895Z" transform="translate(-194.433 -248.75)"/>
          <path id="Path_1257970" data-name="Path 1257970" d="M313.394,281.318a1.363,1.363,0,0,0,1.351,2.367,10.194,10.194,0,0,0,5.133-8.834,4.833,4.833,0,0,0-4.827-4.827,10.176,10.176,0,0,0-10.164,10.164,4.844,4.844,0,0,0,.535,2.2,16.805,16.805,0,0,0-1.349,3.671,1.363,1.363,0,1,0,2.65.637,14.075,14.075,0,0,1,5.592-8.233,1.363,1.363,0,0,0-1.569-2.229,16.79,16.79,0,0,0-3.035,2.748,7.45,7.45,0,0,1,7.34-6.233,2.1,2.1,0,0,1,2.1,2.1,7.463,7.463,0,0,1-3.758,6.466Z" transform="translate(-252.239 -225.39)"/>
          <path id="Path_1257971" data-name="Path 1257971" d="M209.091,14.839a1.363,1.363,0,0,0,1.344-1.6,2.528,2.528,0,0,1,.986-2.762,1.363,1.363,0,0,0-1.629-2.186,5.221,5.221,0,0,0-2.042,5.416A1.364,1.364,0,0,0,209.091,14.839Z" transform="translate(-172.269 -8.024)"/>
          <path id="Path_1257972" data-name="Path 1257972" d="M220.052,63.157a1.363,1.363,0,0,0-.694,1.8c.811,1.829,1.24,3.251.7,4.242a2.162,2.162,0,0,1-.525.626,1.363,1.363,0,0,0,1.738,2.1,4.875,4.875,0,0,0,1.178-1.418c1.142-2.089.388-4.433-.6-6.655A1.363,1.363,0,0,0,220.052,63.157Z" transform="translate(-181.722 -53.667)"/>
          <path id="Path_1257973" data-name="Path 1257973" d="M299.47,35.015a2.2,2.2,0,0,0,1.079-.4,1.363,1.363,0,1,0-1.163-2.465c-.217.1-.426.214-.62.331a1.363,1.363,0,0,0,.7,2.531Z" transform="translate(-247.32 -27.935)"/>
          <path id="Path_1257974" data-name="Path 1257974" d="M295.513,76.791a1.363,1.363,0,0,0,2.111,1.725,6.186,6.186,0,0,0,1.09-1.966c.829-2.494-.208-4.744-1.289-7.024a1.363,1.363,0,0,0-2.463,1.168c1.036,2.181,2.084,4.222.552,6.1Z" transform="translate(-244.602 -58.402)"/>
          <path id="Path_1257975" data-name="Path 1257975" d="M128.022,41.065a1.364,1.364,0,0,0,1.23-1.948c-.722-1.521-1.205-2.66-.838-3.457a2.383,2.383,0,0,1,1.218-1.042,1.363,1.363,0,1,0-1.164-2.464,4.983,4.983,0,0,0-2.53,2.366c-.929,2.017.058,4.1.852,5.767A1.364,1.364,0,0,0,128.022,41.065Z" transform="translate(-104.171 -27.935)"/>
          <path id="Path_1257976" data-name="Path 1257976" d="M141.55,93.286A1.363,1.363,0,0,0,140.3,94.75c0,.032,0,.064.006.1a1.363,1.363,0,1,0,2.722-.138q0-.085-.011-.169A1.364,1.364,0,0,0,141.55,93.286Z" transform="translate(-116.392 -78.757)"/>
        </g>
      </g>
    </g>
    <rect id="Rectangle_411643" data-name="Rectangle 411643" width="103" height="103" transform="translate(253.972 11116.922)" fill="none"/>
  </g>
</svg>
