<svg xmlns="http://www.w3.org/2000/svg" width="103" height="103" viewBox="0 0 103 103">
  <g id="Group_1204093" data-name="Group 1204093" transform="translate(-253.972 -11116.922)">
    <g id="Group_1203593" data-name="Group 1203593" transform="translate(256.094 11138.794)">
      <rect id="Rectangle_410589" data-name="Rectangle 410589" width="99.185" height="33.062" rx="8" transform="translate(-0.122 13.128)" fill="#ffc94a"/>
      <g id="Group_1204103" data-name="Group 1204103" transform="translate(-37.574 -14.872)">
        <path id="Path_1257946" data-name="Path 1257946" d="M304.821,51.7c.378,1.032,4.572,13.314-4.03,27.8-5.224,8.8-13.157,9.379-13.934,9.415-.455-.631-4.934-7.2-1.3-16.767C291.552,56.4,303.778,52.048,304.821,51.7Z" transform="translate(-191.873 -42.816)" fill="#80c56e"/>
        <path id="Path_1257947" data-name="Path 1257947" d="M317.873,51.7,299.909,88.916h0c.777-.036,8.709-.618,13.934-9.415C322.445,65.016,318.251,52.734,317.873,51.7Z" transform="translate(-204.925 -42.816)" fill="#66ad66"/>
        <path id="Path_1257948" data-name="Path 1257948" d="M101.057,51.7c-.378,1.032-4.572,13.314,4.03,27.8,5.224,8.8,13.157,9.379,13.934,9.415.455-.631,4.933-7.2,1.3-16.767C114.325,56.4,102.1,52.048,101.057,51.7Z" transform="translate(-39.13 -42.816)" fill="#80c56e"/>
        <path id="Path_1257949" data-name="Path 1257949" d="M126.832,72.149c-5.99-15.744-18.216-20.1-19.259-20.447,10.623,20.289,16.352,33.285,18.008,37.152C126.218,87.943,130.377,81.465,126.832,72.149Z" transform="translate(-45.647 -42.816)" fill="#66ad66"/>
        <path id="Path_1257950" data-name="Path 1257950" d="M188.624,7.5c-1.281,1.243-16.085,16.244-13.73,43.5,1.43,16.553,12.62,23,13.73,23.606,1.111-.6,12.3-7.052,13.73-23.606C204.709,23.744,189.9,8.743,188.624,7.5Z" transform="translate(-101.187 -6.211)" fill="#80c56e"/>
        <path id="Path_1257951" data-name="Path 1257951" d="M256,7.5V74.6c1.111-.6,12.3-7.052,13.73-23.606C272.084,23.744,257.28,8.743,256,7.5Z" transform="translate(-168.562 -6.211)" fill="#66ad66"/>
        <path id="Path_1257952" data-name="Path 1257952" d="M287.695,161.222a53.637,53.637,0,0,0,1.843-18.471s-5.364,2.39-18.844,11.1c-10.479,6.771-13.72,18.643-14.692,21.843h12.315A20.16,20.16,0,0,0,287.695,161.222Z" transform="translate(-168.564 -118.216)" fill="#80c56e"/>
        <path id="Path_1257953" data-name="Path 1257953" d="M289.537,142.751S275.682,170.12,256,175.695h12.315a20.16,20.16,0,0,0,19.379-14.473A53.637,53.637,0,0,0,289.537,142.751Z" transform="translate(-168.563 -118.216)" fill="#66ad66"/>
        <path id="Path_1257954" data-name="Path 1257954" d="M61.98,161.222a53.639,53.639,0,0,1-1.843-18.471s5.364,2.39,18.844,11.1c10.479,6.771,13.72,18.643,14.692,21.843H81.359A20.16,20.16,0,0,1,61.98,161.222Z" transform="translate(-6.237 -118.216)" fill="#80c56e"/>
        <path id="Path_1257955" data-name="Path 1257955" d="M94.414,175.695c-.972-3.2-4.214-15.072-14.692-21.843-13.48-8.711-18.844-11.1-18.844-11.1S74.732,170.12,94.414,175.695Z" transform="translate(-6.978 -118.216)" fill="#66ad66"/>
        <path id="Path_1257956" data-name="Path 1257956" d="M157.151,366.96h-17.81a9.806,9.806,0,0,1-9.64-8.013l-3.819-20.533H170.61l-3.818,20.533A9.806,9.806,0,0,1,157.151,366.96Z" transform="translate(-60.809 -280.249)" fill="#fec37d"/>
        <path id="Path_1257957" data-name="Path 1257957" d="M270.936,338.414l-3.819,20.533a9.805,9.805,0,0,1-9.64,8.013h8.651a9.806,9.806,0,0,0,9.64-8.013l3.819-20.533Z" transform="translate(-169.786 -280.249)" fill="#f9ae5d"/>
        <path id="Path_1257958" data-name="Path 1257958" d="M151.27,332.533H104.982a3.4,3.4,0,0,1-3.4-3.4h0a3.4,3.4,0,0,1,3.4-3.4H151.27a3.4,3.4,0,0,1,3.4,3.4h0A3.4,3.4,0,0,1,151.27,332.533Z" transform="translate(-40.689 -269.754)" fill="#f2a559"/>
        <path id="Path_1257959" data-name="Path 1257959" d="M364.437,325.741H359v6.793h5.441a3.4,3.4,0,0,0,3.4-3.4h0A3.4,3.4,0,0,0,364.437,325.741Z" transform="translate(-253.857 -269.754)" fill="#ea8f3d"/>
        <path id="Path_1257960" data-name="Path 1257960" d="M120.369,43.366A54.455,54.455,0,0,0,122.256,24.4v-.008a1.263,1.263,0,0,0-.024-.142l0-.011a1.264,1.264,0,0,0-.036-.123c0-.014-.01-.028-.016-.041-.012-.03-.024-.06-.038-.089l-.021-.042c-.015-.03-.032-.058-.049-.087l-.021-.034a1.262,1.262,0,0,0-.075-.1l-.008-.01a1.27,1.27,0,0,0-.1-.107l-.013-.011c-.03-.028-.061-.054-.094-.08l-.037-.026c-.026-.019-.053-.036-.081-.053l-.021-.014-.026-.013-.035-.02-.046-.02-.05-.022c-.031-.013-.063-.024-.1-.034l-.037-.012a1.275,1.275,0,0,0-.282-.048h-.027q-.056,0-.112,0l-.043,0q-.049,0-.1.012l-.047.008c-.033.007-.065.015-.1.024l-.039.011a1.27,1.27,0,0,0-.131.049h0c-.127.057-1.928.869-5.927,3.156a32.616,32.616,0,0,0-.364-18.07c0-.01-.008-.019-.012-.029s-.016-.039-.025-.059-.018-.039-.028-.057-.019-.035-.029-.053-.022-.038-.034-.057L114,8.14l-.04-.053-.038-.045-.044-.048-.042-.042-.049-.044-.046-.037-.055-.04-.047-.031-.063-.037-.03-.017-.018-.008-.066-.031-.051-.022-.062-.021-.058-.018-.06-.014-.061-.013-.063-.008-.059-.007c-.024,0-.048,0-.072,0h-.051c-.025,0-.051,0-.076,0l-.047,0-.07.011-.055.009-.058.015-.065.018-.011,0a32.312,32.312,0,0,0-13.6,9.981C95,7.113,89.254,1.255,88.335.364L88.3.336C88.284.319,88.266.3,88.247.286L88.2.251,88.146.213C88.129.2,88.111.191,88.093.18L88.039.149,87.983.122,87.925.1,87.869.075,87.807.054,87.749.039,87.686.024,87.62.014,87.563.006C87.525,0,87.487,0,87.449,0h-.024c-.038,0-.076,0-.114.006l-.057.008-.066.01c-.021,0-.042.01-.063.015l-.058.015-.061.021L86.949.1l-.057.026-.056.027c-.018.01-.036.02-.054.031s-.036.021-.054.033-.036.025-.053.038l-.047.035c-.019.016-.038.032-.056.049l-.032.028c-.919.892-6.667,6.75-10.61,17.28a32.312,32.312,0,0,0-13.6-9.981l-.011,0-.061-.017L62.2,7.626l-.048-.008c-.026,0-.051-.009-.077-.012l-.036,0c-.029,0-.058,0-.087-.005H61.91c-.028,0-.056,0-.084,0l-.05.006-.072.009-.057.012-.064.015-.057.018-.063.022-.052.022-.064.03-.019.009-.031.019-.06.035-.049.033-.052.038-.048.039-.046.042L61,7.995l-.042.046c-.014.015-.027.031-.039.047l-.038.051c-.012.017-.023.033-.034.05s-.023.036-.033.055-.02.036-.03.054-.018.037-.027.057-.017.039-.025.059-.009.019-.012.029a32.616,32.616,0,0,0-.364,18.07c-4-2.287-5.8-3.1-5.927-3.156l0,0a1.28,1.28,0,0,0-.13-.049l-.043-.012c-.031-.009-.062-.017-.094-.023l-.049-.009c-.031,0-.062-.009-.093-.012l-.046,0c-.036,0-.072,0-.108,0h-.032a1.277,1.277,0,0,0-.279.047l-.042.014c-.03.01-.06.02-.09.032l-.054.024-.043.019-.033.019-.029.014-.024.015c-.026.016-.051.032-.076.05l-.041.03c-.03.023-.059.048-.087.073l-.02.018a1.248,1.248,0,0,0-.1.1l-.013.017c-.025.031-.048.062-.07.1l-.024.038c-.017.027-.032.054-.047.082l-.023.046c-.013.028-.025.056-.036.085s-.012.03-.017.045c-.013.038-.024.076-.034.115l-.005.018a1.323,1.323,0,0,0-.023.14s0,.006,0,.009a54.454,54.454,0,0,0,1.887,18.967,21.2,21.2,0,0,0,8.721,11.828,4.684,4.684,0,0,0,1.628,8.851l2.769,14.889A11.1,11.1,0,0,0,78.532,88H96.342a11.1,11.1,0,0,0,10.908-9.066l2.765-14.865h1.6a4.685,4.685,0,0,0,.685-9.32A21.194,21.194,0,0,0,120.369,43.366ZM111.3,28.4c-2.113,1.261-4.631,2.808-7.59,4.693l-.08.051-1.068.683-.056.036c-.008-.1-.017-.2-.026-.3q-.033-.394-.07-.784c2.994-6.3,6.394-13.117,10.13-20.322A32.506,32.506,0,0,1,111.3,28.4Zm-1.221-16.792c-2.993,5.779-5.77,11.311-8.295,16.523a59.014,59.014,0,0,0-1.841-7.587A32.305,32.305,0,0,1,110.078,11.606ZM88.726,4.661a47.3,47.3,0,0,1,4.608,6.926,53.609,53.609,0,0,1,3.92,9.006c.009.04.019.081.032.121a57.533,57.533,0,0,1,2.659,13.452l.008.107q.03.4.055.8c0,.077.01.153.014.23s.007.14.011.209a34.166,34.166,0,0,0-10.215,12.28l-.019.037q-.15.294-.3.593l-.048.1q-.14.286-.277.576l-.048.1q-.2.437-.4.883V4.661ZM77.588,20.713c.013-.04.023-.08.032-.121a53.609,53.609,0,0,1,3.92-9.006,47.275,47.275,0,0,1,4.608-6.926V50.083q-.2-.447-.4-.884l-.047-.1q-.137-.291-.278-.577l-.048-.1q-.147-.3-.3-.593l-.019-.037a34.167,34.167,0,0,0-10.215-12.28c0-.07.007-.14.011-.209s.009-.153.014-.23q.025-.4.055-.8l.008-.107A57.515,57.515,0,0,1,77.588,20.713Zm-2.657-.172a59.043,59.043,0,0,0-1.841,7.587c-2.524-5.211-5.3-10.743-8.295-16.523A32.3,32.3,0,0,1,74.931,20.541Zm-12.6-8.084c3.736,7.207,7.137,14.028,10.13,20.322q-.038.39-.07.784c-.008.1-.018.2-.026.3l-.055-.035-1.084-.693-.053-.034c-2.963-1.887-5.484-3.436-7.6-4.7A32.5,32.5,0,0,1,62.333,12.458Zm3.508,20.337.37.229.849.527.642.4.5.316.919.581.33.209,1.107.706.266.17q.6.388,1.219.784c.147.095.292.192.437.29l.3.2,0,0h0c5.178,3.591,9.166,8.972,11.882,16.023l.05.133q.116.3.23.613c.034.094.068.189.1.283.052.144.1.287.154.432H83.636c-8.662-3.96-15.925-12.014-20.509-18.1a101.385,101.385,0,0,1-5.985-8.922C59.151,28.78,62.013,30.43,65.841,32.794Zm-8.86,9.852A52.092,52.092,0,0,1,55.048,29.2a103.78,103.78,0,0,0,5.99,8.9C66.591,45.491,72.351,51.05,78.214,54.7H67.751A18.691,18.691,0,0,1,56.981,42.646Zm56.736,16.737a2.11,2.11,0,0,1-2.107,2.107H81.249a1.289,1.289,0,0,0,0,2.578h26.142l-2.677,14.394a8.518,8.518,0,0,1-8.372,6.959H78.532a8.518,8.518,0,0,1-8.373-6.959L67.482,64.068h4.543a1.289,1.289,0,0,0,0-2.578h-6.7a2.107,2.107,0,1,1,0-4.214H111.61A2.11,2.11,0,0,1,113.717,59.383ZM107.123,54.7H96.657c5.487-3.417,10.9-8.517,16.13-15.224a1.289,1.289,0,1,0-2.032-1.586c-6.34,8.124-12.892,13.773-19.473,16.793l-.033.017H89.674c.051-.145.1-.289.154-.432.034-.094.067-.189.1-.283q.113-.309.23-.613l.05-.133c2.716-7.051,6.7-12.432,11.882-16.023h0l0,0,.295-.2c.145-.1.29-.195.437-.29q.613-.4,1.215-.782l.272-.174,1.1-.7.345-.219.889-.562.536-.336.615-.385.914-.568.3-.189c3.837-2.37,6.7-4.023,8.716-5.133-.5.833-1.076,1.776-1.734,2.8a1.289,1.289,0,1,0,2.17,1.393c.623-.97,1.176-1.867,1.657-2.668a52.043,52.043,0,0,1-1.935,13.451A18.691,18.691,0,0,1,107.123,54.7Z"/>
      </g>
    </g>
    <rect id="Rectangle_411643" data-name="Rectangle 411643" width="103" height="103" transform="translate(253.972 11116.922)" fill="none"/>
  </g>
</svg>
