<svg xmlns="http://www.w3.org/2000/svg" width="81" height="81" viewBox="0 0 81 81">
  <g id="Group_1204156" data-name="Group 1204156" transform="translate(-624.051 -6688)">
    <circle id="Ellipse_12702" data-name="Ellipse 12702" cx="40.5" cy="40.5" r="40.5" transform="translate(624.051 6688)" fill="#f9f9f6"/>
    <g id="Group_1204155" data-name="Group 1204155" transform="translate(622.438 6627.993)">
      <path id="Path_1258056" data-name="Path 1258056" d="M332.665,189.063A4.665,4.665,0,0,1,328,184.4h0a4.665,4.665,0,0,1,4.665-4.665h1.562a6.532,6.532,0,0,1,5.9-3.732h0a6.532,6.532,0,0,1,6.532,6.532h0a6.532,6.532,0,0,1-6.532,6.532Z" transform="translate(-277.374 -84.823)" fill="#08d175"/>
      <path id="Path_1258057" data-name="Path 1258057" d="M71.986,310.532H71.57a16.173,16.173,0,0,1-9.4-3.012h0a8.874,8.874,0,0,0-5.158-1.653h0a8.874,8.874,0,0,0-3.5.718l-4.857,2.082h-8.4l-1.922-.48a5.256,5.256,0,0,1-2.93-1.946h0A5.6,5.6,0,0,0,30.93,304H24.511a4.779,4.779,0,0,0-3.379,1.4h0a4.779,4.779,0,0,1-3.379,1.4H16V318H71.986Z" transform="translate(-1.765 -197.894)" fill="#02c26a"/>
      <path id="Path_1258058" data-name="Path 1258058" d="M33.8,107.595A9.8,9.8,0,0,1,24,97.8h0A9.8,9.8,0,0,1,33.8,88h.467a8.4,8.4,0,0,1,7.526,4.667l3.671,0a7.465,7.465,0,0,1,7.465,7.465h0a7.465,7.465,0,0,1-7.465,7.465Z" transform="translate(-8.832 -7.087)" fill="#08d175"/>
      <path id="Path_1258059" data-name="Path 1258059" d="M168,346.264v-4.432a3.033,3.033,0,0,1,3.033-3.033H173.6l1.866-2.8H179.2v.933l-1.866,1.866v1.646a3.376,3.376,0,0,1-1.866,3.02h0v2.8h-.933l-1.866-2.8H170.8l-.933,2.8Z" transform="translate(-136.036 -226.161)" fill="#ffc431"/>
      <path id="Path_1258060" data-name="Path 1258060" d="M279.465,306.264,277.6,310.93h-1.866v-5.6h0a3.376,3.376,0,0,1-1.866-3.02V298.8L272,296.933V296h3.732l1.866,3.732h3.732a3.732,3.732,0,0,1,3.732,3.732v7.465H283.2l-1.866-4.665Z" transform="translate(-227.906 -190.827)" fill="#ffc431"/>
      <path id="Path_1258061" data-name="Path 1258061" d="M103.465,197.859l-1.866-2.8V176.4l6.532-3.732-.933-2.8-5.6,2.8V168H97.866v27.06L96,197.859Z" transform="translate(-72.434 -77.756)" fill="#db8638"/>
      <path id="Path_1258062" data-name="Path 1258062" d="M383.465,240.26l-.933-1.866V216h-2.8v3.732l-2.8-.933L376,221.6l3.732.933v15.863l-.933,1.866Z" transform="translate(-319.775 -120.158)" fill="#db8638"/>
      <path id="Path_1258063" data-name="Path 1258063" d="M136.443,173.459a.933.933,0,0,0,.908.041l5.6-2.8-.835-1.669-4.248,2.124V168H136v4.665a.933.933,0,0,0,.443.794Z" transform="translate(-107.768 -77.756)"/>
      <rect id="Rectangle_411651" data-name="Rectangle 411651" width="1.866" height="1.866" transform="translate(14.235 119.17)"/>
      <path id="Path_1258064" data-name="Path 1258064" d="M383.632,218.438l-1.571-.524-.59,1.77,2.8.933a.933.933,0,0,0,1.228-.885V216h-1.866Z" transform="translate(-324.608 -120.158)"/>
      <rect id="Rectangle_411652" data-name="Rectangle 411652" width="1.866" height="2.639" transform="translate(15.442 115.164) rotate(-45.002)"/>
      <rect id="Rectangle_411653" data-name="Rectangle 411653" width="1.866" height="2.639" transform="translate(17.308 113.298) rotate(-45)"/>
      <rect id="Rectangle_411654" data-name="Rectangle 411654" width="2.086" height="1.866" transform="matrix(0.447, -0.894, 0.894, 0.447, 20.865, 111.287)"/>
      <rect id="Rectangle_411655" data-name="Rectangle 411655" width="1.866" height="1.866" transform="translate(68.355 119.17)"/>
      <path id="Path_1258065" data-name="Path 1258065" d="M278.164,107.794a1.648,1.648,0,0,1,1.268-.089l.007,0a1.654,1.654,0,0,1,1.132,1.571.933.933,0,1,0,1.866,0,1.653,1.653,0,0,1,1.128-1.57l.015-.005a1.646,1.646,0,0,1,1.264.09l.907.453.835-1.669-.907-.453a3.5,3.5,0,0,0-2.685-.192l-.015.005a3.518,3.518,0,0,0-1.476.952,3.528,3.528,0,0,0-1.479-.954l-.007,0a3.5,3.5,0,0,0-2.689.191l-.907.453.835,1.669Z" transform="translate(-231.812 -22.768)"/>
      <path id="Path_1258066" data-name="Path 1258066" d="M348.422,130.578l.835,1.669.907-.453a1.648,1.648,0,0,1,1.268-.089l.007,0a1.654,1.654,0,0,1,1.132,1.571.933.933,0,0,0,1.866,0,1.653,1.653,0,0,1,1.128-1.57l.016-.005a1.645,1.645,0,0,1,1.264.09l.907.453.835-1.669-.907-.453a3.5,3.5,0,0,0-2.685-.192l-.015.005a3.518,3.518,0,0,0-1.476.952,3.527,3.527,0,0,0-1.479-.954l-.007,0a3.5,3.5,0,0,0-2.689.191Z" transform="translate(-295.414 -43.969)"/>
      <rect id="Rectangle_411656" data-name="Rectangle 411656" width="1.866" height="2.086" transform="matrix(0.447, -0.894, 0.894, 0.447, 42.744, 118.138)"/>
      <rect id="Rectangle_411657" data-name="Rectangle 411657" width="1.866" height="2.086" transform="matrix(0.447, -0.894, 0.894, 0.447, 42.744, 115.338)"/>
      <rect id="Rectangle_411658" data-name="Rectangle 411658" width="2.086" height="1.866" transform="matrix(0.447, -0.894, 0.894, 0.447, 64.721, 116.886)"/>
      <rect id="Rectangle_411659" data-name="Rectangle 411659" width="2.086" height="1.866" transform="translate(67.52 116.886) rotate(-63.432)"/>
      <path id="Path_1258067" data-name="Path 1258067" d="M63.689,110.422v-5.309A7.464,7.464,0,1,0,56.3,93.976h-1a5.6,5.6,0,0,0,0,11.2h3.732V107.8a9.8,9.8,0,0,0-7.64.035l-.327.14H50.27l-1.608-3.217a.933.933,0,0,0-.835-.516H46.781a3.926,3.926,0,0,0-2.073-2.6l-.2-.1-.835,1.669.2.1a2.078,2.078,0,0,1,.934.933h-.714a.933.933,0,0,0-.933.933v.933a.933.933,0,0,0,.273.66l1.593,1.593v1.48h-.933a.933.933,0,0,0-.933-.933H41.748a2.078,2.078,0,0,1,.934-.933l.2-.1-.835-1.669-.2.1a3.926,3.926,0,0,0-2.073,2.6h-.345a.933.933,0,0,0-.776.416l-.3.453-1.551-.388a4.337,4.337,0,0,1-2.41-1.6,6.566,6.566,0,0,0-4.292-2.542v-3.8H36.63a8.4,8.4,0,0,0,0-16.8H33.508a9.334,9.334,0,0,0-8.076-4.665h-.467a10.729,10.729,0,1,0-.467,21.453v3.741H22.746a5.674,5.674,0,0,0-4.039,1.673,3.821,3.821,0,0,1-2.719,1.126H14.235v1.866h1.753a5.674,5.674,0,0,0,4.039-1.673,3.821,3.821,0,0,1,2.719-1.126H24.5v9.982l-1.432,2.149h-5.1v1.866H33.83a.933.933,0,0,0,.885-.638l.72-2.161h.694l1.589,2.384a.933.933,0,0,0,.776.416h.933a.933.933,0,0,0,.933-.933v-2.268a4.282,4.282,0,0,0,1.866-3.551v-1.259l1.32-1.32h1.486a4.278,4.278,0,0,0,1.859,3.33V120.1a.933.933,0,0,0,.933.933h1.866a.933.933,0,0,0,.866-.587l1.632-4.079h.6l1.632,4.079a.933.933,0,0,0,.866.587h11.2V119.17H64.266l-.577-1.153v-5.577a17.219,17.219,0,0,0,6.116,1.132h.416V111.7h-.416a15.338,15.338,0,0,1-6.116-1.283Zm-37.481,7.4a.933.933,0,0,0,.157-.518V90.244H24.5v9.319a8.864,8.864,0,0,1,.467-17.716h.467A7.473,7.473,0,0,1,32.9,89.311h1.866a9.3,9.3,0,0,0-.43-2.8h2.3a6.532,6.532,0,0,1,0,13.063H30.1v-.392l6.062-3.464-.926-1.62L28.7,97.831a.933.933,0,0,0-.47.81V117.3a.933.933,0,0,0,.157.518l.9,1.349H25.31Zm4.822-2.15v2.75l-.933-1.4v-9.884a4.689,4.689,0,0,1,2.8,1.769,6.207,6.207,0,0,0,3.45,2.291l.9.226-.188.282H35a3.97,3.97,0,0,0-3.966,3.966Zm9.6-3.692a.933.933,0,0,0-.273.66v1.646a2.43,2.43,0,0,1-1.35,2.185.933.933,0,0,0-.516.835v1.117l-1.09-1.635a.933.933,0,0,0-.776-.415H34.763a.933.933,0,0,0-.885.638l-.72,2.161H32.9v-3.5a2.1,2.1,0,0,1,2.1-2.1h2.566a.933.933,0,0,0,.776-.416l1.589-2.384h1.913Zm15.589,7.191h-.3l-1.632-4.079a.933.933,0,0,0-.866-.587H51.559a.933.933,0,0,0-.866.587l-1.632,4.079h-.3V114.5a.933.933,0,0,0-.516-.835,2.43,2.43,0,0,1-1.35-2.185v-3.512a.933.933,0,0,0-.273-.66l-1.206-1.206H47.25l1.608,3.217a.933.933,0,0,0,.835.516h3.732a2.8,2.8,0,0,1,2.8,2.8Zm.089-10.192a7.927,7.927,0,0,1,2.71.884v8.154l-.577,1.153h-.356v-6.532a4.658,4.658,0,0,0-1.777-3.66Zm4.22,10.192.258-.516a.933.933,0,0,0,.1-.417V102.374a.933.933,0,0,0-.707-.905l-3.732-.933L56,102.346l3.026.756v.2H55.291a3.732,3.732,0,0,1,0-7.465h.236a7.452,7.452,0,0,0-.236,1.866h1.866a5.6,5.6,0,1,1,6.532,5.519V95.842H61.823v22.394a.933.933,0,0,0,.1.417l.258.516Z" transform="translate(0)"/>
    </g>
  </g>
</svg>
