<svg xmlns="http://www.w3.org/2000/svg" width="104" height="104" viewBox="0 0 104 104">
  <g id="Group_1204268" data-name="Group 1204268" transform="translate(-788.05 -2601.164)">
    <g id="Group_1201005" data-name="Group 1201005" transform="translate(788.051 2610.842)">
      <rect id="Rectangle_410589" data-name="Rectangle 410589" width="103.576" height="34.525" rx="8" transform="translate(0 26.598)" fill="#ffc94a"/>
      <g id="Group_1204291" data-name="Group 1204291" transform="translate(16 6.773)">
        <g id="Group_1204291-2" data-name="Group 1204291" transform="translate(14.518 1.937)">
          <path id="Path_1258396" data-name="Path 1258396" d="M110.043,31.939a23.718,23.718,0,0,0-.621,4.9,23.524,23.524,0,0,0,24,23.945,29.133,29.133,0,0,1,.739-5.163,17.308,17.308,0,0,0,.358-2.162,16.144,16.144,0,0,1-9.724-2.107,16.564,16.564,0,0,1-5.918-5.9,16,16,0,0,1-2.112-9.7,16.431,16.431,0,0,1,.358-2.162,29.541,29.541,0,0,0,.739-5.167c.326-6.536-1.762-12.861-7.385-17.126a3.63,3.63,0,1,0-4.4,5.775,11.02,11.02,0,0,1,2.45,2.55,14.135,14.135,0,0,1,1.954,9.86A23.648,23.648,0,0,1,110.043,31.939Z" transform="translate(-104.649 -10.553)" fill="#33d6f5" fill-rule="evenodd"/>
        </g>
        <g id="Group_1204292" data-name="Group 1204292" transform="translate(50.674 43.715)">
          <path id="Path_1258397" data-name="Path 1258397" d="M365.287,319.118a14.225,14.225,0,0,1,9.882,1.946,11.2,11.2,0,0,1,2.556,2.444,3.632,3.632,0,0,0,5.788-4.39c-4.274-5.611-10.617-7.69-17.168-7.364a24.061,24.061,0,0,1-.617,4.9A21.79,21.79,0,0,0,365.287,319.118Z" transform="translate(-365.287 -311.721)" fill="#33d6f5" fill-rule="evenodd"/>
        </g>
        <g id="Group_1204293" data-name="Group 1204293" transform="translate(26.637 19.794)">
          <path id="Path_1258398" data-name="Path 1258398" d="M207.654,154.626a16.05,16.05,0,0,1,2.112,9.7,17.33,17.33,0,0,1-.358,2.162,29.137,29.137,0,0,0-.739,5.163c-.326,6.536,1.758,12.865,7.381,17.13a3.63,3.63,0,1,0,4.4-5.775,11.187,11.187,0,0,1-2.45-2.55,14.141,14.141,0,0,1-1.95-9.86,21.861,21.861,0,0,1,.44-2.464,24.056,24.056,0,0,0,.617-4.9,23.524,23.524,0,0,0-24-23.949,29.541,29.541,0,0,1-.739,5.167,16.405,16.405,0,0,0-.358,2.162,16.1,16.1,0,0,1,9.724,2.107,16.561,16.561,0,0,1,5.918,5.9Z" transform="translate(-192.012 -139.28)" fill="#ff7b79" fill-rule="evenodd"/>
        </g>
        <g id="Group_1204294" data-name="Group 1204294" transform="translate(1.388 15.037)">
          <path id="Path_1258399" data-name="Path 1258399" d="M10.743,110.806c4.274,5.611,10.613,7.694,17.164,7.368a23.716,23.716,0,0,1,.621-4.9,23.762,23.762,0,0,0,.44-2.464,14.218,14.218,0,0,1-9.882-1.95,11.027,11.027,0,0,1-2.556-2.444,3.632,3.632,0,0,0-5.788,4.39Z" transform="translate(-10.005 -104.988)" fill="#ff7b79" fill-rule="evenodd"/>
        </g>
        <g id="Group_1204295" data-name="Group 1204295" transform="translate(47.678 7.358)">
          <path id="Path_1258400" data-name="Path 1258400" d="M345.256,57.769l1.569,2.711h3.134l3.138,0,1.569-2.707,1.569-2.711-1.569-2.711L353.1,49.636h-6.272l-1.569,2.711-1.569,2.711Z" transform="translate(-343.687 -49.636)" fill="#99ebfa" fill-rule="evenodd"/>
        </g>
        <g id="Group_1204296" data-name="Group 1204296" transform="translate(57.088 1.936)">
          <path id="Path_1258401" data-name="Path 1258401" d="M413.088,18.682l1.569,2.711h6.276l1.569-2.711,1.569-2.711L422.5,13.26l-1.569-2.711h-6.276l-1.569,2.711-1.569,2.711Z" transform="translate(-411.519 -10.549)" fill="#99ebfa" fill-rule="evenodd"/>
        </g>
        <g id="Group_1204297" data-name="Group 1204297" transform="translate(57.088 12.78)">
          <path id="Path_1258402" data-name="Path 1258402" d="M413.088,96.851l1.569,2.711h6.276l1.569-2.711,1.569-2.711L422.5,91.433l-1.569-2.711h-6.276l-1.569,2.711-1.569,2.707Z" transform="translate(-411.519 -88.722)" fill="#99ebfa" fill-rule="evenodd"/>
        </g>
        <g id="Group_1204298" data-name="Group 1204298" transform="translate(5.607 36.902)">
          <path id="Path_1258403" data-name="Path 1258403" d="M40.416,266.335a3.742,3.742,0,1,0,3.74-3.731A3.737,3.737,0,0,0,40.416,266.335Z" transform="translate(-40.416 -262.604)" fill="#ffbdbc" fill-rule="evenodd"/>
        </g>
        <g id="Group_1204299" data-name="Group 1204299" transform="translate(57.685 31.174)">
          <path id="Path_1258404" data-name="Path 1258404" d="M415.827,225.043a3.742,3.742,0,1,0,3.744-3.731,3.738,3.738,0,0,0-3.744,3.731Z" transform="translate(-415.827 -221.312)" fill="#ffbdbc" fill-rule="evenodd"/>
        </g>
        <g id="Group_1204300" data-name="Group 1204300" transform="translate(0 0.549)">
          <path id="Path_1258405" data-name="Path 1258405" d="M53.66,390.116a1.387,1.387,0,0,0,1.387,1.387H60.69a1.387,1.387,0,0,0,0-2.775H55.047A1.387,1.387,0,0,0,53.66,390.116Z" transform="translate(-46.216 -334.879)"/>
          <path id="Path_1258406" data-name="Path 1258406" d="M3.732,388.729H1.388a1.387,1.387,0,0,0,0,2.775H3.732a1.387,1.387,0,0,0,0-2.775Z" transform="translate(-0.001 -334.879)"/>
          <path id="Path_1258407" data-name="Path 1258407" d="M74.141,384a1.387,1.387,0,0,0-1.95.214l-5.859,7.3H55.047a1.387,1.387,0,1,0,0,2.774H67a1.387,1.387,0,0,0,1.082-.519l6.276-7.823A1.387,1.387,0,0,0,74.141,384Z" transform="translate(-46.216 -330.544)"/>
          <path id="Path_1258408" data-name="Path 1258408" d="M3.732,440.09H1.388a1.387,1.387,0,1,0,0,2.774H3.732a1.387,1.387,0,0,0,0-2.774Z" transform="translate(-0.001 -379.116)"/>
          <path id="Path_1258409" data-name="Path 1258409" d="M3.732,491.452H1.388a1.387,1.387,0,1,0,0,2.774H3.732a1.387,1.387,0,0,0,0-2.774Z" transform="translate(-0.001 -423.352)"/>
          <path id="Path_1258410" data-name="Path 1258410" d="M67,491.452H55.047a1.387,1.387,0,1,0,0,2.774H67a1.387,1.387,0,1,0,0-2.774Z" transform="translate(-46.216 -423.352)"/>
          <path id="Path_1258411" data-name="Path 1258411" d="M416.084,216.429a5.129,5.129,0,1,0-5.127,5.122A5.128,5.128,0,0,0,416.084,216.429Zm-7.483,0a2.354,2.354,0,1,1,2.356,2.348A2.353,2.353,0,0,1,408.6,216.429Z" transform="translate(-349.53 -182.073)"/>
          <path id="Path_1258412" data-name="Path 1258412" d="M40.673,257.722a5.129,5.129,0,1,0-5.131,5.122A5.13,5.13,0,0,0,40.673,257.722Zm-7.483,0a2.354,2.354,0,1,1,2.352,2.348A2.351,2.351,0,0,1,33.19,257.722Z" transform="translate(-26.197 -217.638)"/>
          <path id="Path_1258413" data-name="Path 1258413" d="M319.272,17.5l-2.735-4.723,2.736-4.727a1.387,1.387,0,0,0,0-1.39l-3.138-5.422a1.387,1.387,0,0,0-1.2-.692h-6.276a1.387,1.387,0,0,0-1.2.692l-2.737,4.73h-5.472a1.387,1.387,0,0,0-1.2.692l-2.737,4.73h-5.476a1.387,1.387,0,1,0,0,2.774h5.476l2.737,4.73a1.387,1.387,0,0,0,1.2.692l5.472,0,2.737,4.729a1.387,1.387,0,0,0,1.2.692h5.476l2.737,4.73a1.387,1.387,0,1,0,2.4-1.39l-2.736-4.727,2.736-4.727a1.387,1.387,0,0,0,0-1.39Zm-14.552-.691-4.671,0-2.335-4.035,2.335-4.035h4.672l2.335,4.035Zm9.414,5.421h-4.676L307.123,18.2l2.335-4.032h4.676l2.335,4.032Zm0-10.841h-4.676l-2.335-4.035,2.335-4.035h4.676l2.335,4.035Z" transform="translate(-248.433 -0.549)"/>
          <path id="Path_1258414" data-name="Path 1258414" d="M53.109,42.329a24.922,24.922,0,0,0-23.948-23.9C29.149,11.463,26.4,5.519,21.188,1.569a5.016,5.016,0,0,0-8.011,4.669,4.977,4.977,0,0,0,1.934,3.317,9.767,9.767,0,0,1,1.437,1.332L10.36,17.061a9.8,9.8,0,0,1-1.341-1.437,5.039,5.039,0,0,0-7.038-.955A5.016,5.016,0,0,0,1.024,21.7c3.912,5.135,9.871,7.925,16.893,7.946a24.605,24.605,0,0,0,3.271,11.405,1.387,1.387,0,1,0,2.4-1.385,21.979,21.979,0,0,1-2.328-16.025c1.245-5.344.639-9.954-1.689-13.372a1.381,1.381,0,0,0-.088-.125,12.476,12.476,0,0,0-2.7-2.8,2.245,2.245,0,0,1-.427-3.139,2.254,2.254,0,0,1,3.151-.426c5.939,4.505,8.175,12.113,6.133,20.872A17.637,17.637,0,0,0,42.764,46.308c-.026.127-.053.255-.083.382A31.645,31.645,0,0,0,42,50.77a21.96,21.96,0,0,1-10.261-2.944,1.387,1.387,0,1,0-1.393,2.4,24.736,24.736,0,0,0,11.516,3.318c.008,6.962,2.761,12.908,7.971,16.86a5.017,5.017,0,1,0,6.078-7.985,9.8,9.8,0,0,1-1.437-1.334l6.191-6.177a9.8,9.8,0,0,1,1.34,1.436,5.02,5.02,0,0,0,8-6.071C66.094,45.14,60.134,42.351,53.109,42.329ZM18.082,13.275a13.362,13.362,0,0,1,.991,6.31,13.392,13.392,0,0,1-6.322-.991ZM3.23,20.014a2.241,2.241,0,0,1,.426-3.134,2.259,2.259,0,0,1,3.156.425c2.7,3.54,6.783,5.276,11.886,5.077-.044.217-.09.426-.136.625a25.307,25.307,0,0,0-.591,3.861C13.363,26.867,7.459,25.564,3.23,20.014ZM27.952,28.44a14.764,14.764,0,0,1,6.064,1.174l-4.889,4.878A14.712,14.712,0,0,1,27.952,28.44Zm2.565,8.585L36.555,31a15.029,15.029,0,0,1,3.954,3.945l-6.037,6.023a15.026,15.026,0,0,1-3.955-3.944Zm6.494,5.33L41.9,37.48a14.731,14.731,0,0,1,1.175,6.051A14.793,14.793,0,0,1,37.012,42.356ZM55.1,66.108a2.214,2.214,0,0,1-.433,1.654,2.258,2.258,0,0,1-3.155.431c-5.941-4.507-8.175-12.114-6.129-20.873A17.637,17.637,0,0,0,28.262,25.664c.026-.128.053-.255.083-.383a31.63,31.63,0,0,0,.678-4.087,22.127,22.127,0,0,1,20.74,27.138c-1.651,7.063-.063,12.849,4.473,16.3a2.221,2.221,0,0,1,.864,1.48ZM52.942,58.7a13.349,13.349,0,0,1-.991-6.309,13.367,13.367,0,0,1,6.324.988ZM68.23,53.607a2.246,2.246,0,0,1-4.015,1.055c-2.7-3.543-6.785-5.277-11.886-5.075.044-.217.09-.425.136-.624a25.331,25.331,0,0,0,.591-3.86c4.61,0,10.515,1.3,14.74,6.85A2.216,2.216,0,0,1,68.23,53.607Z" transform="translate(0 -0.549)"/>
          <path id="Path_1258415" data-name="Path 1258415" d="M180.11,315.822a1.39,1.39,0,1,0-.982-.409l0,0A1.378,1.378,0,0,0,180.11,315.822Z" transform="translate(-153.929 -269.694)"/>
        </g>
      </g>
    </g>
    <rect id="Rectangle_411620" data-name="Rectangle 411620" width="104" height="104" transform="translate(788.051 2601.164)" fill="none"/>
  </g>
</svg>
