<svg xmlns="http://www.w3.org/2000/svg" width="103" height="103" viewBox="0 0 103 103">
  <g id="Group_1204179" data-name="Group 1204179" transform="translate(-253.972 -11116.922)">
    <g id="Group_1203593" data-name="Group 1203593" transform="translate(256.094 11138.794)">
      <rect id="Rectangle_410589" data-name="Rectangle 410589" width="99.185" height="33.062" rx="8" transform="translate(0 12.94)" fill="#3e5b2c"/>
      <g id="Group_1204190" data-name="Group 1204190" transform="translate(10.499 -9.251)">
        <g id="Group_1204222" data-name="Group 1204222" transform="translate(1.251 1.251)">
          <g id="Group_1204190-2" data-name="Group 1204190" transform="translate(0 10.007)">
            <path id="Path_1258165" data-name="Path 1258165" d="M16.011,24.786v1.726s-6.254,1.251-6.254,7.505H3.5a2.509,2.509,0,0,1-2.5-2.5V11.5A2.509,2.509,0,0,1,3.5,9H6.016A.609.609,0,0,0,6,9.15v.3a6.537,6.537,0,0,0,1.138,3.7,3.368,3.368,0,0,0-.4.338A2.446,2.446,0,0,0,6,15.254a2.509,2.509,0,0,0,2.5,2.5h2.5a6.248,6.248,0,0,0,3.452,5.479l.863.425A1.254,1.254,0,0,1,16.011,24.786Z" transform="translate(-1 -9)" fill="#e6e9ed"/>
          </g>
          <g id="Group_1204191" data-name="Group 1204191" transform="translate(20.014 10.007)">
            <path id="Path_1258166" data-name="Path 1258166" d="M32.011,11.5v10.22a14.1,14.1,0,0,0-2.614.688,15.009,15.009,0,0,0-7.931,6.68A9.149,9.149,0,0,0,17,26.512V24.786a1.254,1.254,0,0,1,.688-1.126l.863-.425A6.248,6.248,0,0,0,22,17.756h2.5a2.52,2.52,0,0,0,2.5-2.5,2.5,2.5,0,0,0-1.388-2.239A9.074,9.074,0,0,0,26.97,9h2.539A2.509,2.509,0,0,1,32.011,11.5Z" transform="translate(-17 -9)" fill="#e6e9ed"/>
          </g>
          <g id="Group_1204192" data-name="Group 1204192" transform="translate(40.028 10.007)">
            <path id="Path_1258167" data-name="Path 1258167" d="M35.5,9h2.752A12.569,12.569,0,0,0,38,11.5V23.51a14.854,14.854,0,0,0-5-1.789V11.5A2.509,2.509,0,0,1,35.5,9Z" transform="translate(-33 -9)" fill="#e6e9ed"/>
          </g>
          <g id="Group_1204193" data-name="Group 1204193" transform="translate(69.799 10.007)">
            <path id="Path_1258168" data-name="Path 1258168" d="M62.054,11.5V31.516a2.509,2.509,0,0,1-2.5,2.5h-2.5V11.5A12.569,12.569,0,0,0,56.8,9h2.752A2.509,2.509,0,0,1,62.054,11.5Z" transform="translate(-56.8 -9)" fill="#e6e9ed"/>
          </g>
          <g id="Group_1204194" data-name="Group 1204194" transform="translate(64.245 50.035)">
            <path id="Path_1258169" data-name="Path 1258169" d="M63.168,43.5V63.516a2.509,2.509,0,0,1-2.5,2.5H54.411a7.062,7.062,0,0,0-2.051-5.191,7.513,7.513,0,0,0,5.8-7.318V43.5a12.569,12.569,0,0,0-.25-2.5h2.752A2.509,2.509,0,0,1,63.168,43.5Z" transform="translate(-52.36 -41)" fill="#e6e9ed"/>
          </g>
          <g id="Group_1204195" data-name="Group 1204195" transform="translate(40.028 50.436)">
            <path id="Path_1258170" data-name="Path 1258170" d="M43.808,60.746a7.062,7.062,0,0,0-2.051,5.191H35.5a2.509,2.509,0,0,1-2.5-2.5V43.209a14.8,14.8,0,0,0,5.179-1.889,12.876,12.876,0,0,0-.175,2.1V53.429a7.513,7.513,0,0,0,5.8,7.318Z" transform="translate(-33 -41.32)" fill="#e6e9ed"/>
          </g>
          <g id="Group_1204196" data-name="Group 1204196" transform="translate(20.014 50.486)">
            <path id="Path_1258171" data-name="Path 1258171" d="M32.011,43.2V63.426a2.509,2.509,0,0,1-2.5,2.5H23.254c0-6.254-6.254-7.505-6.254-7.505V56.7a1.254,1.254,0,0,1,.688-1.126l.863-.425A6.248,6.248,0,0,0,22,49.666h2.5a2.509,2.509,0,0,0,2.5-2.5,2.446,2.446,0,0,0-.738-1.764,2.418,2.418,0,0,0-.65-.475,9.013,9.013,0,0,0,1.3-3.565,14.77,14.77,0,0,0,2.789,1.263,14.079,14.079,0,0,0,2.3.575Z" transform="translate(-17 -41.36)" fill="#e6e9ed"/>
          </g>
          <g id="Group_1204197" data-name="Group 1204197" transform="translate(0 50.035)">
            <path id="Path_1258172" data-name="Path 1258172" d="M16.011,58.512s-6.254,1.251-6.254,7.505H3.5a2.509,2.509,0,0,1-2.5-2.5V43.5A2.509,2.509,0,0,1,3.5,41H6.041a9.074,9.074,0,0,0,1.351,4.015A2.5,2.5,0,0,0,6,47.254a2.52,2.52,0,0,0,2.5,2.5h2.5a6.248,6.248,0,0,0,3.452,5.479l.863.425a1.254,1.254,0,0,1,.688,1.126Z" transform="translate(-1 -41)" fill="#e6e9ed"/>
          </g>
          <g id="Group_1204198" data-name="Group 1204198" transform="translate(8.756 67.548)">
            <path id="Path_1258173" data-name="Path 1258173" d="M16.756,58.753,19.258,55s6.254,1.251,6.254,7.505H8C8,56.251,14.254,55,14.254,55Z" transform="translate(-8 -55)" fill="#b4dd7f"/>
          </g>
          <g id="Group_1204199" data-name="Group 1204199" transform="translate(5.004 40.028)">
            <path id="Path_1258174" data-name="Path 1258174" d="M10.016,46.76H7.5a2.558,2.558,0,0,0-1.113.263,9.074,9.074,0,0,1-1.351-4.015C5.013,42.732,5,42.444,5,42.169A9.166,9.166,0,0,1,14.169,33h6.68a8.681,8.681,0,0,1,1.9.2h.013a14.391,14.391,0,0,0,1.076,3.477,15.1,15.1,0,0,0,6.092,6.78,9.013,9.013,0,0,1-1.3,3.565,2.394,2.394,0,0,0-1.113-.263h-2.5v-2.5a6.041,6.041,0,0,1-4.266-1.764l-.738-.738-1.476,1.476A12.022,12.022,0,0,1,10.016,46.76Z" transform="translate(-5 -33)" fill="#656d78"/>
          </g>
          <g id="Group_1204200" data-name="Group 1204200" transform="translate(45.032 40.028)">
            <path id="Path_1258175" data-name="Path 1258175" d="M46.169,60.757c-.2.075-.413.15-.663.263a8.738,8.738,0,0,0-2.7,1.814A7.513,7.513,0,0,1,37,55.516V45.509a12.876,12.876,0,0,1,.175-2.1,15.039,15.039,0,0,0,5.316-5.391,14.541,14.541,0,0,0,1.539-3.753A12.376,12.376,0,0,1,49.509,33,12.495,12.495,0,0,1,62.018,45.509V55.516a7.513,7.513,0,0,1-5.8,7.318,8.738,8.738,0,0,0-2.7-1.814c-.25-.113-.463-.188-.663-.263a1.24,1.24,0,0,1-.838-1.176v-.788a1.254,1.254,0,0,1,.688-1.126l.863-.425a6.25,6.25,0,0,0,3.452-5.591V46.76h-.488a8.439,8.439,0,0,1-7.017-3.753l-1.1,1.1A9.051,9.051,0,0,1,42,46.76v4.891a6.25,6.25,0,0,0,3.452,5.591l.863.425a1.254,1.254,0,0,1,.688,1.126v.788A1.24,1.24,0,0,1,46.169,60.757Z" transform="translate(-37 -33)" fill="#656d78"/>
          </g>
          <g id="Group_1204201" data-name="Group 1204201" transform="translate(48.784 68.048)">
            <path id="Path_1258176" data-name="Path 1258176" d="M57.512,62.4H40a7.062,7.062,0,0,1,2.051-5.191,8.738,8.738,0,0,1,2.7-1.814,5,5,0,0,0,8.006,0,8.738,8.738,0,0,1,2.7,1.814A7.062,7.062,0,0,1,57.512,62.4Z" transform="translate(-40 -55.4)" fill="#fcd770"/>
          </g>
          <g id="Group_1204202" data-name="Group 1204202" transform="translate(8.756 27.519)">
            <path id="Path_1258177" data-name="Path 1258177" d="M23.724,25.577a10.223,10.223,0,0,0-.6,1.163,14.93,14.93,0,0,0-1.151,3.765H8C8,24.251,14.254,23,14.254,23a2.509,2.509,0,0,0,2.5,2.5,2.52,2.52,0,0,0,2.5-2.5A9.149,9.149,0,0,1,23.724,25.577Z" transform="translate(-8 -23)" fill="#fcd770"/>
          </g>
          <g id="Group_1204203" data-name="Group 1204203" transform="translate(5.004 0)">
            <path id="Path_1258178" data-name="Path 1258178" d="M30.018,10.169c0,.275-.013.563-.038.838a9.074,9.074,0,0,1-1.351,4.015,2.394,2.394,0,0,0-1.113-.263h-2.5a10.018,10.018,0,0,1-8.006-4l-.075-.1a2.251,2.251,0,0,0-1.789-.9,2.222,2.222,0,0,0-2,1.238l-.638,1.263h-.263A2.237,2.237,0,0,0,10,14.5v.263H7.5a2.559,2.559,0,0,0-1.363.4A6.537,6.537,0,0,1,5,11.457v-.3a.609.609,0,0,1,.013-.15A6.594,6.594,0,0,1,10,4.753a5.49,5.49,0,0,1,2-2.714A5.413,5.413,0,0,1,15.207,1h5.641A9.166,9.166,0,0,1,30.018,10.169Z" transform="translate(-5 -1)" fill="#b27946"/>
          </g>
          <g id="Group_1204204" data-name="Group 1204204" transform="translate(60.042 16.261)">
            <path id="Path_1258179" data-name="Path 1258179" d="M59.007,14V32.763H55.254c0-6.254-6.254-7.505-6.254-7.505V23.532a1.255,1.255,0,0,1,.688-1.126l.863-.425A6.248,6.248,0,0,0,54,16.5h2.5a2.52,2.52,0,0,0,2.5-2.5Z" transform="translate(-49 -14)" fill="#fcd770"/>
          </g>
          <g id="Group_1204205" data-name="Group 1204205" transform="translate(45.032)">
            <path id="Path_1258180" data-name="Path 1258180" d="M62.018,13.509v3.753a2.509,2.509,0,0,0-2.5-2.5h-2.5a10.018,10.018,0,0,1-8.006-4l-.075-.1a2.251,2.251,0,0,0-1.789-.9,2.222,2.222,0,0,0-2,1.238l-.638,1.263h-.263A2.237,2.237,0,0,0,42,14.5v.263H39.5a2.52,2.52,0,0,0-2.5,2.5V13.509a12.509,12.509,0,1,1,25.018,0Z" transform="translate(-37 -1)" fill="#fcd770"/>
          </g>
          <g id="Group_1204206" data-name="Group 1204206" transform="translate(45.032 16.261)">
            <path id="Path_1258181" data-name="Path 1258181" d="M47.007,23.532v1.726a9.085,9.085,0,0,0-4.453,2.577A15.16,15.16,0,0,0,37,22.256V14a2.509,2.509,0,0,0,2.5,2.5H42a6.248,6.248,0,0,0,3.452,5.479l.863.425a1.254,1.254,0,0,1,.688,1.126Z" transform="translate(-37 -14)" fill="#fcd770"/>
          </g>
          <g id="Group_1204207" data-name="Group 1204207" transform="translate(50.586 27.519)">
            <path id="Path_1258182" data-name="Path 1258182" d="M57.151,30.505H43.179a14.841,14.841,0,0,0-1.739-4.928A9.085,9.085,0,0,1,45.893,23a2.509,2.509,0,0,0,2.5,2.5A2.52,2.52,0,0,0,50.9,23s6.254,1.251,6.254,7.505Z" transform="translate(-41.44 -23)" fill="#ef7385"/>
          </g>
          <g id="Group_1204208" data-name="Group 1204208" transform="translate(5.004 53.788)">
            <path id="Path_1258183" data-name="Path 1258183" d="M10.016,44a.609.609,0,0,0-.013.15V49H7.5A2.52,2.52,0,0,1,5,46.5a2.5,2.5,0,0,1,1.388-2.239A2.558,2.558,0,0,1,7.5,44H10Z" transform="translate(-5 -44)" fill="#f0d0b4"/>
          </g>
          <g id="Group_1204209" data-name="Group 1204209" transform="translate(10.007 48.784)">
            <path id="Path_1258184" data-name="Path 1258184" d="M24.011,45v5a6.248,6.248,0,0,1-3.452,5.479l-.863.425a1.254,1.254,0,0,0-.688,1.126v1.726l-2.5,3.753L14,58.763V57.037a1.255,1.255,0,0,0-.688-1.126l-.863-.425A6.248,6.248,0,0,1,9,50.007V45.154A.609.609,0,0,1,9.013,45a12.022,12.022,0,0,0,8.519-3.527L19.007,40l.738.738A6.041,6.041,0,0,0,24.011,42.5Z" transform="translate(-9 -40)" fill="#f0d0b4"/>
          </g>
          <g id="Group_1204210" data-name="Group 1204210" transform="translate(25.018 53.788)">
            <path id="Path_1258185" data-name="Path 1258185" d="M25.266,44.738A2.446,2.446,0,0,1,26,46.5,2.509,2.509,0,0,1,23.5,49H21V44h2.5a2.459,2.459,0,0,1,1.764.738Z" transform="translate(-21 -44)" fill="#f0d0b4"/>
          </g>
          <g id="Group_1204211" data-name="Group 1204211" transform="translate(50.035 50.035)">
            <path id="Path_1258186" data-name="Path 1258186" d="M51.007,56.786v.788a1.24,1.24,0,0,0,.838,1.176c.2.075.413.15.663.263a5,5,0,0,1-8.006,0c.25-.113.463-.188.663-.263A1.24,1.24,0,0,0,46,57.574v-.788a1.254,1.254,0,0,0-.688-1.126l-.863-.425A6.25,6.25,0,0,1,41,49.644V44.753A9.051,9.051,0,0,0,47.4,42.1l1.1-1.1a8.439,8.439,0,0,0,7.017,3.753h.488v4.891a6.25,6.25,0,0,1-3.452,5.591l-.863.425A1.254,1.254,0,0,0,51.007,56.786Z" transform="translate(-41 -41)" fill="#f0d0b4"/>
          </g>
          <g id="Group_1204212" data-name="Group 1204212" transform="translate(65.046 13.76)">
            <path id="Path_1258187" data-name="Path 1258187" d="M55.5,12A2.509,2.509,0,0,1,58,14.5,2.52,2.52,0,0,1,55.5,17H53V12Z" transform="translate(-53 -12)" fill="#f0d0b4"/>
          </g>
          <g id="Group_1204213" data-name="Group 1204213" transform="translate(50.035 8.756)">
            <path id="Path_1258188" data-name="Path 1258188" d="M56.011,13v5a6.248,6.248,0,0,1-3.452,5.479l-.863.425a1.255,1.255,0,0,0-.688,1.126v1.726a2.52,2.52,0,0,1-2.5,2.5,2.509,2.509,0,0,1-2.5-2.5V25.037a1.255,1.255,0,0,0-.688-1.126l-.863-.425A6.248,6.248,0,0,1,41,18.007V12.741A2.237,2.237,0,0,1,43.239,10.5H43.5l.638-1.263a2.222,2.222,0,0,1,2-1.238,2.251,2.251,0,0,1,1.789.9L48,9a10.018,10.018,0,0,0,8.006,4Z" transform="translate(-41 -8)" fill="#f0d0b4"/>
          </g>
          <g id="Group_1204214" data-name="Group 1204214" transform="translate(45.032 13.76)">
            <path id="Path_1258189" data-name="Path 1258189" d="M42,16.891V17H39.5A2.509,2.509,0,0,1,37,14.5,2.52,2.52,0,0,1,39.5,12H42Z" transform="translate(-37 -12)" fill="#f0d0b4"/>
          </g>
          <g id="Group_1204215" data-name="Group 1204215" transform="translate(25.018 13.76)">
            <path id="Path_1258190" data-name="Path 1258190" d="M24.615,12.263A2.5,2.5,0,0,1,26,14.5,2.52,2.52,0,0,1,23.5,17H21V12h2.5A2.394,2.394,0,0,1,24.615,12.263Z" transform="translate(-21 -12)" fill="#f0d0b4"/>
          </g>
          <g id="Group_1204216" data-name="Group 1204216" transform="translate(10.007 8.756)">
            <path id="Path_1258191" data-name="Path 1258191" d="M24.011,13v5a6.248,6.248,0,0,1-3.452,5.479l-.863.425a1.255,1.255,0,0,0-.688,1.126v1.726a2.52,2.52,0,0,1-2.5,2.5,2.509,2.509,0,0,1-2.5-2.5V25.037a1.255,1.255,0,0,0-.688-1.126l-.863-.425A6.248,6.248,0,0,1,9,18.007V12.741A2.237,2.237,0,0,1,11.239,10.5H11.5l.638-1.263a2.222,2.222,0,0,1,2-1.238,2.251,2.251,0,0,1,1.789.9L16,9A10.018,10.018,0,0,0,24.011,13Z" transform="translate(-9 -8)" fill="#f0d0b4"/>
          </g>
          <g id="Group_1204217" data-name="Group 1204217" transform="translate(5.004 13.76)">
            <path id="Path_1258192" data-name="Path 1258192" d="M10,16.891V17H7.5A2.509,2.509,0,0,1,5,14.5a2.446,2.446,0,0,1,.738-1.764,3.368,3.368,0,0,1,.4-.338A2.559,2.559,0,0,1,7.5,12H10Z" transform="translate(-5 -12)" fill="#f0d0b4"/>
          </g>
          <g id="Group_1204218" data-name="Group 1204218" transform="translate(22.19 22.19)">
            <circle id="Ellipse_12782" data-name="Ellipse 12782" cx="15.336" cy="15.336" r="15.336" transform="translate(0 0)" fill="#69d6f4"/>
          </g>
          <g id="Group_1204219" data-name="Group 1204219" transform="translate(44.079 27.244)">
            <path id="Path_1258193" data-name="Path 1258193" d="M42.745,25.632a14.841,14.841,0,0,1,1.739,4.928,15.018,15.018,0,0,1-.263,6.267,14.541,14.541,0,0,1-1.539,3.753l-.013-.013H39.355a2.769,2.769,0,0,1-2.689-2.1l-.35-1.376a2.813,2.813,0,0,1,.738-2.639l.575-.575a2.763,2.763,0,0,0,.813-1.964V29.76a2.914,2.914,0,0,1,.138-.876l2.039-6.092.013-.013a15.321,15.321,0,0,1,2.114,2.852Z" transform="translate(-36.238 -22.78)" fill="#b4dd7f"/>
          </g>
          <g id="Group_1204220" data-name="Group 1204220" transform="translate(23.842 40.315)">
            <path id="Path_1258194" data-name="Path 1258194" d="M29.617,41.924l-.675,2.727v.013A14.769,14.769,0,0,1,26.152,43.4a15.1,15.1,0,0,1-6.092-6.78l.013-.013,2.552-2.552a2.813,2.813,0,0,1,2.639-.738l2.689.675a2.728,2.728,0,0,0,1.551-.05l1.7-.575a2.8,2.8,0,0,1,2.414.325l.313.213a2.781,2.781,0,0,1,.776,3.853l-.438.65A2.754,2.754,0,0,1,32.844,39.5l-1.4.463A2.825,2.825,0,0,0,29.617,41.924Z" transform="translate(-20.06 -33.229)" fill="#b4dd7f"/>
          </g>
          <g id="Group_1204221" data-name="Group 1204221" transform="translate(23.879 23.417)">
            <path id="Path_1258195" data-name="Path 1258195" d="M20.69,26.4a15.009,15.009,0,0,1,7.931-6.68v.013l4.353,3.477a2.756,2.756,0,0,0,1.739.613A2.771,2.771,0,0,1,37.49,26.6v.063a2.769,2.769,0,0,1-2.1,2.689l-2.152.538a2.813,2.813,0,0,0-1.288.726L30.8,31.766a2.763,2.763,0,0,1-1.964.813H28.4a2.769,2.769,0,0,1-2.689-2.1l-.2-.8a2.769,2.769,0,0,0-2.689-2.1H20.1l-.013-.013a10.223,10.223,0,0,1,.6-1.163Z" transform="translate(-20.09 -19.72)" fill="#b4dd7f"/>
          </g>
        </g>
        <path id="Path_1258196" data-name="Path 1258196" d="M77.555,33.774V13.76A3.757,3.757,0,0,0,73.8,10.007H72.018a13.745,13.745,0,0,0-26.454,0H43.781a3.757,3.757,0,0,0-3.753,3.753v8.82c-.414-.033-.828-.064-1.251-.064s-.837.031-1.251.064V13.76a3.757,3.757,0,0,0-3.753-3.753H32.5A10.428,10.428,0,0,0,22.1,0H16.464a6.73,6.73,0,0,0-6.148,3.979A7.836,7.836,0,0,0,5.14,10.007H3.753A3.757,3.757,0,0,0,0,13.76V33.774a3.757,3.757,0,0,0,3.753,3.753H22.58c-.033.414-.064.828-.064,1.251s.031.853.065,1.276c-.161-.008-.32-.025-.482-.025H15.427a10.428,10.428,0,0,0-10.4,10.007H3.753A3.757,3.757,0,0,0,0,53.788V73.8a3.757,3.757,0,0,0,3.753,3.753H33.774A3.757,3.757,0,0,0,37.526,73.8V54.975c.414.033.828.064,1.251.064s.837-.031,1.251-.064V73.8a3.757,3.757,0,0,0,3.753,3.753H73.8A3.757,3.757,0,0,0,77.555,73.8V53.788A3.757,3.757,0,0,0,73.8,50.035H72.018A13.681,13.681,0,0,0,54.93,40.6a16.2,16.2,0,0,0,.109-1.821c0-.423-.031-.837-.064-1.251H73.8a3.757,3.757,0,0,0,3.753-3.753ZM73.8,12.509a1.251,1.251,0,0,1,1.251,1.251V33.774A1.251,1.251,0,0,1,73.8,35.025H72.551V13.76c0-.423-.026-.838-.064-1.251ZM62.28,24.376l-.854.428a2.485,2.485,0,0,0-1.383,2.238V28.77a1.251,1.251,0,1,1-2.5,0V27.042A2.486,2.486,0,0,0,56.158,24.8l-.856-.428A4.973,4.973,0,0,1,52.537,19.9V14.747a.988.988,0,0,1,.987-.987h1.037l.978-1.956a1.027,1.027,0,0,1,1.67-.154l.081.108a11.314,11.314,0,0,0,7.755,4.433V19.9a4.973,4.973,0,0,1-2.766,4.474ZM51.018,45.032H48.453a1.527,1.527,0,0,1-1.484-1.157L46.628,42.5a1.537,1.537,0,0,1,.4-1.452l.575-.575a4.055,4.055,0,0,0,1.18-2.848V35.475a1.508,1.508,0,0,1,.079-.483l1.307-3.923a13.693,13.693,0,0,1,.848,13.962ZM47.534,25.1V21.035a3.71,3.71,0,0,0,1.251.23h1.388a7.444,7.444,0,0,0,4.01,5.349l.856.428v.792a10.753,10.753,0,0,0-2.97,1.606A16.392,16.392,0,0,0,47.534,25.1Zm2.5-6.333H48.784a1.251,1.251,0,0,1,0-2.5h1.251Zm12.509,8.278.856-.428a7.446,7.446,0,0,0,4.01-5.349H68.8a3.71,3.71,0,0,0,1.251-.23v13.99H68.71a8.9,8.9,0,0,0-6.166-7.208Zm5-10.78H68.8a1.251,1.251,0,1,1,0,2.5H67.548ZM58.791,2.5A11.27,11.27,0,0,1,70.049,13.76v.23a3.71,3.71,0,0,0-1.251-.23H66.3a8.8,8.8,0,0,1-7-3.5l-.079-.109a3.507,3.507,0,0,0-2.793-1.4,3.467,3.467,0,0,0-3.12,1.929l-.306.613a3.489,3.489,0,0,0-2.8,2.462H48.784a3.71,3.71,0,0,0-1.251.23v-.23A11.27,11.27,0,0,1,58.791,2.5ZM42.53,13.76a1.251,1.251,0,0,1,1.251-1.251H45.1c-.038.413-.064.828-.064,1.251V23.771a16.243,16.243,0,0,0-2.5-.8Zm-9.09,36.2L33.106,51.3a13.838,13.838,0,0,1-6.488-6.1l1.924-1.924a1.542,1.542,0,0,1,1.451-.4l2.692.673a4.023,4.023,0,0,0,2.252-.085l1.7-.565a1.536,1.536,0,0,1,1.331.181l.309.2a1.528,1.528,0,0,1,.422,2.119l-.43.648a1.526,1.526,0,0,1-.787.6l-1.4.468A4.017,4.017,0,0,0,33.44,49.96Zm-5.92,6.329H28.77a1.251,1.251,0,0,1,0,2.5H27.519ZM33.434,26.1l3.8,3.041a4.048,4.048,0,0,0,2.517.882A1.543,1.543,0,0,1,41.279,31.6a1.527,1.527,0,0,1-1.157,1.484l-2.153.538A4.016,4.016,0,0,0,36.1,34.686L34.953,35.83a1.542,1.542,0,0,1-1.08.445h-.433a1.524,1.524,0,0,1-1.482-1.157l-.2-.794a4.022,4.022,0,0,0-3.908-3.052H27.26A13.827,13.827,0,0,1,33.434,26.1ZM35.025,13.76v9.21a16.285,16.285,0,0,0-9.539,6.47,10.753,10.753,0,0,0-2.97-1.606v-.792l.856-.428a7.446,7.446,0,0,0,4.01-5.349H28.77a3.743,3.743,0,0,0,2.709-6.336,10.354,10.354,0,0,0,.808-2.42h1.486A1.251,1.251,0,0,1,35.025,13.76ZM22.252,24.376,21.4,24.8a2.485,2.485,0,0,0-1.383,2.238l0,1.729h0a1.251,1.251,0,0,1-2.5,0V27.042A2.486,2.486,0,0,0,16.13,24.8l-.856-.428A4.973,4.973,0,0,1,12.509,19.9V14.747a.988.988,0,0,1,.987-.987h1.037l.978-1.956a1.027,1.027,0,0,1,1.67-.154l.081.108a11.314,11.314,0,0,0,7.755,4.433V19.9A4.973,4.973,0,0,1,22.252,24.376Zm5.267-8.114H28.77a1.251,1.251,0,0,1,0,2.5H27.519ZM7.505,11.412a5.346,5.346,0,0,1,4.055-5.195l.667-.166.216-.652a4.235,4.235,0,0,1,4.02-2.9H22.1a7.9,7.9,0,0,1,7.15,11.307,3.551,3.551,0,0,0-.479-.049h-2.5a8.8,8.8,0,0,1-7-3.5l-.079-.109a3.507,3.507,0,0,0-2.793-1.4,3.467,3.467,0,0,0-3.12,1.929l-.306.613a3.489,3.489,0,0,0-2.8,2.462H8.756a3.7,3.7,0,0,0-.794.089,5.338,5.338,0,0,1-.457-2.142Zm2.5,7.351H8.756a1.251,1.251,0,1,1,0-2.5h1.251ZM2.5,33.774V13.76a1.251,1.251,0,0,1,1.251-1.251H5.064A7.768,7.768,0,0,0,5.828,15.2,3.715,3.715,0,0,0,5,17.512a3.757,3.757,0,0,0,3.753,3.753h1.388a7.444,7.444,0,0,0,4.01,5.349l.856.428v.776a8.9,8.9,0,0,0-6.166,7.208H3.753A1.251,1.251,0,0,1,2.5,33.774Zm8.878,1.251a6.288,6.288,0,0,1,4-4.66,3.732,3.732,0,0,0,6.764.008,7.74,7.74,0,0,1,2.06,1.238,16.14,16.14,0,0,0-1.232,3.414Zm4.048,7.505H22.1a8.009,8.009,0,0,1,.884.051A16.3,16.3,0,0,0,29.8,52.321a7.781,7.781,0,0,1-.538,1.516,3.683,3.683,0,0,0-.488-.049H27.519v-2.5H26.269a4.82,4.82,0,0,1-3.386-1.4l-1.617-1.617-2.36,2.36a10.7,10.7,0,0,1-6.162,3.05A5.335,5.335,0,0,1,16.564,50l-.605-2.425a7.84,7.84,0,0,0-5.82,6.217H8.756a3.572,3.572,0,0,0-.479.049,7.9,7.9,0,0,1,7.15-11.308Zm.3,27.727,3.032,4.549L21.8,70.252a6.343,6.343,0,0,1,4.349,4.8H11.379a6.406,6.406,0,0,1,4.352-4.8ZM22.252,64.4l-.854.428a2.485,2.485,0,0,0-1.383,2.238v1.35L18.763,70.3,17.512,68.42V67.07a2.486,2.486,0,0,0-1.382-2.238l-.856-.428a4.973,4.973,0,0,1-2.766-4.474v-3.7A13.186,13.186,0,0,0,20.673,52.4l.594-.594a7.354,7.354,0,0,0,3.75,1.876V59.93A4.973,4.973,0,0,1,22.252,64.4ZM10.007,58.791H8.756a1.251,1.251,0,0,1,0-2.5h1.251ZM2.5,73.8V53.788a1.251,1.251,0,0,1,1.251-1.251H5.239a10.409,10.409,0,0,0,.807,2.42,3.744,3.744,0,0,0,2.711,6.336h1.388a7.444,7.444,0,0,0,4.01,5.349l.856.428v.776a8.9,8.9,0,0,0-6.166,7.208H3.753A1.251,1.251,0,0,1,2.5,73.8Zm32.523,0a1.251,1.251,0,0,1-1.251,1.251H28.681a8.9,8.9,0,0,0-6.166-7.208V67.07l.856-.428a7.446,7.446,0,0,0,4.01-5.349H28.77a3.742,3.742,0,0,0,2.721-6.322,10.3,10.3,0,0,0,.545-1.413,16.11,16.11,0,0,0,2.988,1.027Zm.455-21.682.388-1.554a1.524,1.524,0,0,1,1-1.078l1.4-.468a4.05,4.05,0,0,0,2.079-1.589l.43-.648a4.031,4.031,0,0,0-1.118-5.59l-.309-.2a4.053,4.053,0,0,0-3.509-.469l-1.694.564a1.521,1.521,0,0,1-.856.033L30.6,40.444a4.057,4.057,0,0,0-3.825,1.062l-1.181,1.181a13.571,13.571,0,0,1,.38-8.913h1.879a1.524,1.524,0,0,1,1.482,1.157l.2.794a4.022,4.022,0,0,0,3.909,3.052h.433a4.056,4.056,0,0,0,2.848-1.18l1.145-1.145a1.527,1.527,0,0,1,.708-.4l2.153-.538a4.061,4.061,0,0,0-.977-7.994,1.53,1.53,0,0,1-.954-.335l-2.428-1.943a13.578,13.578,0,0,1,11.906,3.6L46.49,34.2a4.01,4.01,0,0,0-.208,1.276v2.152a1.538,1.538,0,0,1-.447,1.08l-.575.575A4.053,4.053,0,0,0,44.2,43.108l.343,1.373a4.022,4.022,0,0,0,3.909,3.052h.931a13.639,13.639,0,0,1-13.9,4.587ZM42.53,73.8V54.585a15.975,15.975,0,0,0,2.5-.8V63.795a8.7,8.7,0,0,0,5,7.893,8.193,8.193,0,0,0-1.167,3.365H43.781A1.251,1.251,0,0,1,42.53,73.8Zm18.9-8.97a2.485,2.485,0,0,0-1.383,2.238v.793a2.478,2.478,0,0,0,.65,1.642,3.594,3.594,0,0,1-3.8,0,2.478,2.478,0,0,0,.65-1.642V67.07a2.486,2.486,0,0,0-1.382-2.238L55.3,64.4a4.973,4.973,0,0,1-2.766-4.474V56.215a10.232,10.232,0,0,0,6.039-2.945l.105-.1a9.654,9.654,0,0,0,6.364,3.095v3.67a4.974,4.974,0,0,1-2.766,4.474Zm-6.92,6a6.212,6.212,0,0,0,8.571,0,5.946,5.946,0,0,1,3.1,4.217H51.4a5.95,5.95,0,0,1,3.1-4.217Zm19.3-18.3a1.251,1.251,0,0,1,1.251,1.251V73.8A1.251,1.251,0,0,1,73.8,75.053H68.713a8.211,8.211,0,0,0-1.167-3.365,8.694,8.694,0,0,0,5-7.893V53.788c0-.423-.026-.838-.064-1.251ZM58.791,42.53A11.27,11.27,0,0,1,70.049,53.788V63.795a6.205,6.205,0,0,1-4.24,5.9,10.609,10.609,0,0,0-3.265-1.833V67.07l.856-.428a7.464,7.464,0,0,0,4.148-6.712V53.788H65.8a7.159,7.159,0,0,1-5.97-3.2l-.847-1.27L56.808,51.5a7.754,7.754,0,0,1-5.521,2.288H50.035V59.93a7.464,7.464,0,0,0,4.148,6.712l.856.428,0,.791A10.635,10.635,0,0,0,51.774,69.7a6.2,6.2,0,0,1-4.24-5.9V53.788a11.417,11.417,0,0,1,.1-1.387,16.319,16.319,0,0,0,6.716-8.94A11.142,11.142,0,0,1,58.791,42.53ZM53.353,31.611a7.76,7.76,0,0,1,2.06-1.238,3.731,3.731,0,0,0,6.766-.015,6.231,6.231,0,0,1,4,4.667H54.585A16.14,16.14,0,0,0,53.353,31.611Z"/>
      </g>
    </g>
    <rect id="Rectangle_411643" data-name="Rectangle 411643" width="103" height="103" transform="translate(253.972 11116.922)" fill="none"/>
  </g>
</svg>
