<svg xmlns="http://www.w3.org/2000/svg" width="103" height="103" viewBox="0 0 103 103">
  <g id="Group_1204094" data-name="Group 1204094" transform="translate(-253.972 -11116.921)">
    <g id="Group_1203593" data-name="Group 1203593" transform="translate(256.094 11138.794)">
      <rect id="Rectangle_410589" data-name="Rectangle 410589" width="99.185" height="33.062" rx="8" transform="translate(0 12.94)" fill="#3e5b2c"/>
      <g id="Group_1204158" data-name="Group 1204158" transform="translate(-35.453 -18.873)">
        <g id="Group_1204159" data-name="Group 1204159" transform="translate(47.331 6.467)">
          <g id="Group_1204158-2" data-name="Group 1204158" transform="translate(0 0)">
            <path id="Path_1258075" data-name="Path 1258075" d="M168.276,190.506a15.224,15.224,0,0,1-12.116,4.407,15.224,15.224,0,0,1,4.407-12.116l12.116-4.407A15.224,15.224,0,0,1,168.276,190.506Z" transform="translate(-135.708 -151.408)" fill="#ffd05b"/>
            <ellipse id="Ellipse_12766" data-name="Ellipse 12766" cx="11.684" cy="5.451" rx="11.684" ry="5.451" transform="translate(16.589 61.735) rotate(-45)" fill="#ffd05b"/>
            <ellipse id="Ellipse_12767" data-name="Ellipse 12767" cx="5.451" cy="11.684" rx="5.451" ry="11.684" transform="translate(0 52.92) rotate(-45)" fill="#ffd05b"/>
            <ellipse id="Ellipse_12768" data-name="Ellipse 12768" cx="5.451" cy="11.684" rx="5.451" ry="11.684" transform="translate(0.002 30.835) rotate(-45)" fill="#ffd05b"/>
            <ellipse id="Ellipse_12769" data-name="Ellipse 12769" cx="5.451" cy="11.684" rx="5.451" ry="11.684" transform="translate(14.991)" fill="#ffd05b"/>
          </g>
          <circle id="Ellipse_12770" data-name="Ellipse 12770" cx="24.049" cy="24.049" r="24.049" transform="translate(26.35 40.031)" fill="#eceaec"/>
          <circle id="Ellipse_12771" data-name="Ellipse 12771" cx="19.54" cy="19.54" r="19.54" transform="translate(30.859 44.54)" fill="#fff"/>
          <path id="Path_1258076" data-name="Path 1258076" d="M135.633,54.4a10.734,10.734,0,0,1,0-16.462c.026-.022.045-.05.071-.073a15.366,15.366,0,0,0-2.973-3.38,15.247,15.247,0,0,0,0,23.367,15.367,15.367,0,0,0,2.973-3.38C135.678,54.454,135.66,54.426,135.633,54.4Z" transform="translate(-112.289 -34.489)" fill="#ffc244"/>
          <path id="Path_1258077" data-name="Path 1258077" d="M75.273,187.082a10.736,10.736,0,0,1-3.1-8.538c0-.034,0-.067,0-.1a15.363,15.363,0,0,0-4.491-.287A15.247,15.247,0,0,0,84.2,194.677a15.371,15.371,0,0,0-.287-4.491c-.034,0-.066,0-.1,0A10.738,10.738,0,0,1,75.273,187.082Z" transform="translate(-63.816 -151.173)" fill="#ffc244"/>
          <path id="Path_1258078" data-name="Path 1258078" d="M75.273,305.062a10.736,10.736,0,0,1-3.1-8.538c0-.035,0-.067,0-.1a15.362,15.362,0,0,0-4.491-.287A15.247,15.247,0,0,0,84.2,312.658a15.37,15.37,0,0,0-.287-4.491c-.034,0-.066,0-.1,0A10.738,10.738,0,0,1,75.273,305.062Z" transform="translate(-63.816 -247.031)" fill="#ffc244"/>
          <path id="Path_1258079" data-name="Path 1258079" d="M172.684,178.141a15.247,15.247,0,0,0-16.523,16.523h0l3.74-.324a11.49,11.49,0,0,1,12.456-12.456Z" transform="translate(-135.708 -151.16)" fill="#ffc244"/>
        </g>
        <g id="Group_1204160" data-name="Group 1204160" transform="translate(49.73 0)">
          <path id="Path_1258080" data-name="Path 1258080" d="M205.817,240.484a25.455,25.455,0,1,0,25.455,25.455A25.484,25.484,0,0,0,205.817,240.484Zm0,48.1a22.642,22.642,0,1,1,22.642-22.642A22.668,22.668,0,0,1,205.817,288.582Z" transform="translate(-157.817 -195.393)"/>
          <path id="Path_1258081" data-name="Path 1258081" d="M284.976,296.6A1.406,1.406,0,0,0,283.569,298v.1H271.352V298a1.406,1.406,0,1,0-2.813,0v3.522a7.37,7.37,0,0,0,2.173,5.246l4.76,4.76-4.76,4.76a7.37,7.37,0,0,0-2.173,5.246v3.522a1.406,1.406,0,1,0,2.813,0v-.1h12.218v.1a1.406,1.406,0,1,0,2.813,0v-3.522a7.37,7.37,0,0,0-2.173-5.246l-4.76-4.76,4.76-4.76a7.37,7.37,0,0,0,2.173-5.246V298A1.406,1.406,0,0,0,284.976,296.6Zm-1.406,4.316v.613a4.572,4.572,0,0,1-.795,2.587H272.146a4.573,4.573,0,0,1-.795-2.587v-.613Zm-12.218,21.236v-.613a4.571,4.571,0,0,1,.795-2.587h10.629a4.573,4.573,0,0,1,.795,2.587v.613Zm8.726-6.012h-5.234l2.617-2.617Zm-5.234-9.212h5.234l-2.617,2.617Z" transform="translate(-229.46 -240.984)"/>
          <path id="Path_1258082" data-name="Path 1258082" d="M79.516,51.434A16.648,16.648,0,0,0,96.039,33.4V29.777a1.406,1.406,0,0,0-2.813,0v2.21a16.764,16.764,0,0,0-2.912.267,1.406,1.406,0,0,0,.5,2.768,13.932,13.932,0,0,1,2.468-.224A13.835,13.835,0,0,1,79.516,48.622V47.406a13.812,13.812,0,0,1,4-8.556,13.955,13.955,0,0,1,2.072-1.707,1.406,1.406,0,0,0-1.57-2.334,16.694,16.694,0,0,0-4.5,4.482v-8.77a16.647,16.647,0,0,0,0-24.742V1.406a1.406,1.406,0,0,0-2.813,0V5.883a16.646,16.646,0,0,0,0,24.535v8.871a16.648,16.648,0,0,0-13.711-7.3V29.777a1.406,1.406,0,0,0-2.813,0V33.4A16.648,16.648,0,0,0,76.7,51.434v9.942a16.653,16.653,0,0,0-13.711-7.3V51.865a1.406,1.406,0,1,0-2.813,0v3.622A16.648,16.648,0,0,0,76.7,73.522v9.049a1.406,1.406,0,0,0,2.813,0V51.434ZM74.122,18.151a13.82,13.82,0,0,1,4.045-9.776,13.837,13.837,0,0,1,0,19.552,13.82,13.82,0,0,1-4.045-9.776ZM66.988,44.57A13.82,13.82,0,0,1,62.935,34.8,13.832,13.832,0,0,1,76.7,47.406v1.215A13.82,13.82,0,0,1,66.988,44.57Zm0,22.088a13.82,13.82,0,0,1-4.053-9.773A13.832,13.832,0,0,1,76.7,69.494V70.71A13.82,13.82,0,0,1,66.988,66.658Z" transform="translate(-60.124 0)"/>
        </g>
      </g>
    </g>
    <rect id="Rectangle_411643" data-name="Rectangle 411643" width="103" height="103" transform="translate(253.972 11116.921)" fill="none"/>
  </g>
</svg>
