<svg xmlns="http://www.w3.org/2000/svg" width="104" height="104" viewBox="0 0 104 104">
  <g id="Group_1204263" data-name="Group 1204263" transform="translate(-788.051 -2601.164)">
    <g id="Group_1201005" data-name="Group 1201005" transform="translate(788.051 2610.842)">
      <rect id="Rectangle_410589" data-name="Rectangle 410589" width="103.576" height="34.525" rx="8" transform="translate(0 26.598)" fill="#ffc94a"/>
      <g id="Group_1204269" data-name="Group 1204269" transform="translate(10 8.652)">
        <path id="Path_1258318" data-name="Path 1258318" d="M8.472,184.3a8.981,8.981,0,0,0,.408-2.746h0a9.438,9.438,0,0,1,9.438-9.438h0a8.986,8.986,0,0,0,2.746-.408,21.987,21.987,0,0,1,22.113,5.707c8.528,8.528,8.949,21.932.942,29.94s-21.412,7.586-29.94-.941A21.988,21.988,0,0,1,8.472,184.3Z" transform="translate(-6.295 -143.328)" fill="#bb7256"/>
        <path id="Path_1258319" data-name="Path 1258319" d="M229.86,31.589c0,12.06-9.18,21.837-20.505,21.837S188.85,43.649,188.85,31.589a21.988,21.988,0,0,1,11.6-19.672,8.983,8.983,0,0,0,2.23-1.653h0a9.438,9.438,0,0,1,13.347,0h0a8.985,8.985,0,0,0,2.23,1.653A21.987,21.987,0,0,1,229.86,31.589Z" transform="translate(-158.533 -6.296)" fill="#e39b78"/>
        <path id="Path_1258320" data-name="Path 1258320" d="M318.345,31.592c0,12.06-9.18,21.837-20.505,21.837a19.408,19.408,0,0,1-3.584-.333c9.616-1.805,16.921-10.746,16.921-21.5a21.988,21.988,0,0,0-11.6-19.672,8.978,8.978,0,0,1-2.23-1.653h0a9.407,9.407,0,0,0-3.09-2.059,9.44,9.44,0,0,1,10.258,2.059h0a8.984,8.984,0,0,0,2.23,1.653A21.987,21.987,0,0,1,318.345,31.592Z" transform="translate(-247.018 -6.299)" fill="#d8926f"/>
        <path id="Path_1258321" data-name="Path 1258321" d="M272.909,253.476a8.72,8.72,0,0,0-2.165,1.6h0a9.162,9.162,0,0,1-12.957,0h0a8.72,8.72,0,0,0-2.165-1.6,21.346,21.346,0,0,1-11.263-19.1c0-11.708,8.912-21.2,19.906-21.2s19.906,9.491,19.906,21.2A21.346,21.346,0,0,1,272.909,253.476Z" transform="translate(-205.131 -178.958)" fill="#9e5640"/>
        <path id="Path_1258322" data-name="Path 1258322" d="M275.934,222.865c0-12.854-9.785-23.273-21.854-23.273s-21.854,10.42-21.854,23.273a23.434,23.434,0,0,0,12.365,20.966,9.574,9.574,0,0,1,2.377,1.762h0a10.059,10.059,0,0,0,14.225,0h0a9.574,9.574,0,0,1,2.377-1.762A23.434,23.434,0,0,0,275.934,222.865ZM260.8,238.446a15.613,15.613,0,0,0-3.89,2.865,4,4,0,0,1-5.66,0,15.621,15.621,0,0,0-3.89-2.865,17.483,17.483,0,0,1-9.078-15.58c0-9.493,7.087-17.217,15.8-17.217s15.8,7.724,15.8,17.217A17.484,17.484,0,0,1,260.8,238.446Z" transform="translate(-194.945 -167.551)" fill="#d08261"/>
        <path id="Path_1258323" data-name="Path 1258323" d="M376.363,222.865A23.434,23.434,0,0,1,364,243.831a9.575,9.575,0,0,0-2.377,1.762h0a10.052,10.052,0,0,1-9.762,2.59,10.009,10.009,0,0,0,4.464-2.59,9.574,9.574,0,0,1,2.377-1.762,23.434,23.434,0,0,0,12.365-20.966c0-11.9-8.385-21.71-19.205-23.1a20.75,20.75,0,0,1,2.649-.171C366.579,199.592,376.363,210.012,376.363,222.865Z" transform="translate(-295.375 -167.551)" fill="#bb7256"/>
        <path id="Path_1258324" data-name="Path 1258324" d="M311.016,290.911a4.622,4.622,0,0,1,.708,2.474,4.184,4.184,0,1,1-8.351,0,4.627,4.627,0,0,1,.592-2.27,3.936,3.936,0,0,1-.592.05,4.45,4.45,0,0,1,0-8.883,3.956,3.956,0,0,1,.592.05,4.627,4.627,0,0,1-.592-2.27,4.184,4.184,0,1,1,8.351,0,4.622,4.622,0,0,1-.708,2.474,4.535,4.535,0,0,1,0,8.376Z" transform="translate(-251.166 -231.374)" fill="#ff8436"/>
        <path id="Path_1258325" data-name="Path 1258325" d="M349.285,282.537a4.622,4.622,0,0,1-.708-2.474,4.184,4.184,0,1,1,8.351,0,4.627,4.627,0,0,1-.592,2.27,3.928,3.928,0,0,1,.592-.05,4.45,4.45,0,0,1,0,8.883,3.956,3.956,0,0,1-.592-.05,4.627,4.627,0,0,1,.592,2.27,4.184,4.184,0,1,1-8.351,0,4.622,4.622,0,0,1,.708-2.474,4.535,4.535,0,0,1,0-8.376Z" transform="translate(-290.866 -231.375)" fill="#ff9c41"/>
        <path id="Path_1258326" data-name="Path 1258326" d="M70.836,34.231a24.314,24.314,0,0,0-1.7-21.319,22.248,22.248,0,0,0-8.855-8.361,7.78,7.78,0,0,1-1.93-1.434,10.642,10.642,0,0,0-15.05,0,7.788,7.788,0,0,1-1.93,1.434,22.249,22.249,0,0,0-8.856,8.361,24,24,0,0,0-3.4,12.381c0,.816.042,1.624.12,2.423A22.358,22.358,0,0,0,14.4,27.234a7.781,7.781,0,0,1-2.378.351A10.654,10.654,0,0,0,1.383,38.227a7.78,7.78,0,0,1-.351,2.378A22.249,22.249,0,0,0,.682,52.78,24,24,0,0,0,7.034,63.938,23.656,23.656,0,0,0,23.72,70.961a21.022,21.022,0,0,0,14.4-5.553,24.877,24.877,0,0,0,1.564,3.06,23.635,23.635,0,0,0,9.407,8.882,8.37,8.37,0,0,1,2.076,1.542,11.262,11.262,0,0,0,15.928,0,8.367,8.367,0,0,1,2.076-1.542,23.635,23.635,0,0,0,9.407-8.882,25.5,25.5,0,0,0,3.611-13.155A24.809,24.809,0,0,0,70.836,34.231ZM33.8,15.624l3.961,3.961a1.2,1.2,0,1,0,1.7-1.7l-4.421-4.421a19.709,19.709,0,0,1,7.431-6.769A10.186,10.186,0,0,0,45,4.82a8.233,8.233,0,0,1,11.644,0,10.706,10.706,0,0,0,1.5,1.255c0,.018,0,.035,0,.053v4.249a2.584,2.584,0,0,1-1.554,2.37l-4.157,1.808a4.988,4.988,0,0,0-2.35,2.113l-3.521-3.521a1.2,1.2,0,0,0-1.7,1.7l4.572,4.572V30a1.2,1.2,0,1,0,2.408,0V19.133a2.584,2.584,0,0,1,1.554-2.37l4.157-1.808a4.99,4.99,0,0,0,3-4.578v-2.9a20.3,20.3,0,0,1,7.583,8.739L60.7,23.649a1.2,1.2,0,0,0,1.7,1.7l6.68-6.68a21.857,21.857,0,0,1-.375,14.379,21.832,21.832,0,0,0-19.962.413l-3.883-1.688a2.584,2.584,0,0,1-1.554-2.37V24.313a1.2,1.2,0,1,0-2.408,0v5.093a4.991,4.991,0,0,0,3,4.578l2.362,1.027A24.065,24.065,0,0,0,39.7,42.155a20.972,20.972,0,0,1-8.178-16.862A21.7,21.7,0,0,1,33.8,15.624ZM8.736,62.235A21.723,21.723,0,0,1,4.788,56.82h9.447a1.2,1.2,0,1,0,0-2.408H3.725A20.3,20.3,0,0,1,2.908,42.87l2.05,2.05a4.99,4.99,0,0,0,5.36,1.115l4.218-1.662a2.583,2.583,0,0,1,2.775.577l7.68,7.681a1.2,1.2,0,0,0,1.7-1.7l-7.477-7.477V36.985a1.2,1.2,0,0,0-2.408,0v4.98a4.988,4.988,0,0,0-3.155.167L9.435,43.794a2.583,2.583,0,0,1-2.774-.577l-3-3c-.013-.013-.026-.024-.04-.036a10.706,10.706,0,0,0,.175-1.95,8.243,8.243,0,0,1,8.234-8.234,10.184,10.184,0,0,0,3.113-.466,19.677,19.677,0,0,1,10.041-.5v6.282a1.2,1.2,0,1,0,2.408,0V29.683a21.482,21.482,0,0,1,2.083.824A22.983,22.983,0,0,0,38.548,44.3a25.552,25.552,0,0,0-2.471,11.016,25.969,25.969,0,0,0,.689,5.952l-4.431-4.431a2.584,2.584,0,0,1-.577-2.775l1.661-4.218a4.99,4.99,0,0,0-1.115-5.36l-3.6-3.6a1.2,1.2,0,0,0-1.7,1.7l3.6,3.6a2.583,2.583,0,0,1,.577,2.775l-1.661,4.218a4.988,4.988,0,0,0-.167,3.155H24.37a1.2,1.2,0,0,0,0,2.408h6.465L36.093,64C28.491,70.657,16.475,69.974,8.736,62.235ZM68.073,75.209A10.771,10.771,0,0,0,65.4,77.19a8.854,8.854,0,0,1-12.522,0A10.78,10.78,0,0,0,50.2,75.209a22.376,22.376,0,0,1-11.711-19.9c0-12.169,9.264-22.069,20.65-22.069s20.65,9.9,20.65,22.07A22.376,22.376,0,0,1,68.073,75.209Zm8.063-19.9A18.7,18.7,0,0,1,66.4,71.965a14.408,14.408,0,0,0-3.589,2.646,5.206,5.206,0,0,1-7.363,0,14.413,14.413,0,0,0-3.589-2.646,18.7,18.7,0,0,1-9.731-16.65,1.2,1.2,0,0,1,2.408,0,16.269,16.269,0,0,0,8.424,14.509,16.821,16.821,0,0,1,4.191,3.085,2.8,2.8,0,0,0,3.957,0A16.814,16.814,0,0,1,65.3,69.824a16.27,16.27,0,0,0,8.424-14.509c0-8.83-6.547-16.013-14.594-16.013-6.28,0-11.843,4.4-13.842,10.937a1.2,1.2,0,0,1-2.3-.7c2.311-7.561,8.8-12.641,16.145-12.641C68.509,36.893,76.136,45.157,76.136,55.314Zm-29.309.035a5.6,5.6,0,0,0,4.286,5.528A5.862,5.862,0,0,0,51,62.011a5.524,5.524,0,0,0,5.38,5.645,5.141,5.141,0,0,0,2.755-.8,5.156,5.156,0,0,0,2.749.8,5.523,5.523,0,0,0,5.38-5.645,5.864,5.864,0,0,0-.111-1.134,5.708,5.708,0,0,0,0-11.057,5.864,5.864,0,0,0,.111-1.134,5.524,5.524,0,0,0-5.38-5.645,5.156,5.156,0,0,0-2.751.8,5.2,5.2,0,0,0-2.753-.8A5.523,5.523,0,0,0,51,48.687a5.864,5.864,0,0,0,.111,1.134A5.6,5.6,0,0,0,46.827,55.349Zm18.031-6.662a3.441,3.441,0,0,1-.438,1.681,1.2,1.2,0,0,0,1.23,1.78,2.767,2.767,0,0,1,.412-.036,3.249,3.249,0,0,1,0,6.475,2.754,2.754,0,0,1-.411-.036,1.2,1.2,0,0,0-1.23,1.78,3.442,3.442,0,0,1,.438,1.681,2.982,2.982,0,1,1-5.943,0,3.419,3.419,0,0,1,.522-1.831,1.2,1.2,0,0,0-.6-1.771,3.332,3.332,0,0,1,0-6.12,1.2,1.2,0,0,0,.6-1.771,3.419,3.419,0,0,1-.522-1.831,2.982,2.982,0,1,1,5.943,0ZM52.207,52.112a2.765,2.765,0,0,1,.412.036,1.2,1.2,0,0,0,1.23-1.78,3.44,3.44,0,0,1-.438-1.681,3.117,3.117,0,0,1,2.972-3.237,2.742,2.742,0,0,1,.985.181,5.812,5.812,0,0,0-.86,3.056,5.889,5.889,0,0,0,.331,1.953,5.793,5.793,0,0,0,0,9.418,5.888,5.888,0,0,0-.331,1.953,5.813,5.813,0,0,0,.859,3.054,2.742,2.742,0,0,1-.983.183,3.117,3.117,0,0,1-2.972-3.237,3.439,3.439,0,0,1,.438-1.681,1.2,1.2,0,0,0-1.23-1.78,2.758,2.758,0,0,1-.411.036,3.249,3.249,0,0,1,0-6.475Z" transform="translate(0 0)"/>
      </g>
    </g>
    <rect id="Rectangle_411620" data-name="Rectangle 411620" width="104" height="104" transform="translate(788.051 2601.164)" fill="none"/>
  </g>
</svg>
