<svg xmlns="http://www.w3.org/2000/svg" width="104" height="104" viewBox="0 0 104 104">
  <g id="Group_1204164" data-name="Group 1204164" transform="translate(-788.051 -2601.164)">
    <g id="Group_1201005" data-name="Group 1201005" transform="translate(788.051 2610.842)">
      <rect id="Rectangle_410589" data-name="Rectangle 410589" width="103.576" height="34.525" rx="8" transform="translate(0 26.598)" fill="#ffc94a"/>
      <g id="Group_1204165" data-name="Group 1204165" transform="translate(12 5.323)">
        <g id="Group_1204162" data-name="Group 1204162" transform="translate(3.311 1.158)">
          <path id="Path_1258097" data-name="Path 1258097" d="M117.423,143.818c.052-12.283-3.576-29.56-18.507-23.619L93.2,123.227c-11.017,7.262-3.383,18.069,8.242,26.281.4.013.805.044,1.2.1a14.627,14.627,0,0,1,7.336-5.362,14.635,14.635,0,0,1,7.441-.425Zm0,0" transform="translate(-77.6 -101.776)" fill="#e6e6e6" fill-rule="evenodd"/>
          <path id="Path_1258098" data-name="Path 1258098" d="M90.295,162.27c-6.417,7.1.774,16.5,11.158,23.834.4.013.805.044,1.2.1a14.665,14.665,0,0,1,1.834-2.1C95.591,177.616,88.627,169.26,90.295,162.27Zm0,0" transform="translate(-77.61 -138.372)" fill="#b3adad" fill-rule="evenodd"/>
          <path id="Path_1258099" data-name="Path 1258099" d="M119.945,110.283l-1.44-2.652-1.9-3.5h-4.338l-1.243,3.278,1.769,3.252,1.475,2.709a1.38,1.38,0,0,0,1.869.556l3.261-1.773A1.382,1.382,0,0,0,119.945,110.283Zm0,0" transform="translate(-97.188 -89.209)" fill="#b3adad" fill-rule="evenodd"/>
          <path id="Path_1258100" data-name="Path 1258100" d="M68.723,18.566,64.2,10.236a5.224,5.224,0,0,0-9.179,4.99l4.526,8.326a5.223,5.223,0,0,0,9.179-4.986Zm0,0" transform="translate(-49.302 -7.512)" fill="#f5df87" fill-rule="evenodd"/>
          <path id="Path_1258101" data-name="Path 1258101" d="M114.227,128.72a5.293,5.293,0,0,1-1.392-.013l1.488,2.735,1.475,2.709a1.38,1.38,0,0,0,1.869.556l1.064-.582a1.385,1.385,0,0,1-1.865-.552l-1.466-2.705-.008-.008Zm0,0" transform="translate(-98.724 -109.992)" fill="#757a85" fill-rule="evenodd"/>
          <path id="Path_1258102" data-name="Path 1258102" d="M57.89,14.587a5.244,5.244,0,0,1,2.061-7.069,5.222,5.222,0,0,0-4.933,7.7l4.526,8.326a5.213,5.213,0,0,0,3.869,2.674,5.267,5.267,0,0,0,1.392.013,5.21,5.21,0,0,0,1.826-.591.239.239,0,0,1,.035-.017c-.127-.009-.254-.022-.381-.04A5.277,5.277,0,0,1,63.629,24.4a5.175,5.175,0,0,1-1.213-1.489Zm0,0" transform="translate(-49.302 -7.506)" fill="#d9a13f" fill-rule="evenodd"/>
          <path id="Path_1258103" data-name="Path 1258103" d="M21.445,307.948H93.878a11.3,11.3,0,0,0-10.615-11.281v-.022a12.8,12.8,0,0,0-12.8-12.8l-.319,0a14.595,14.595,0,0,0-11.792-5.98,14.449,14.449,0,0,0-4.526.718,14.62,14.62,0,0,0-7.336,5.362,12.512,12.512,0,0,0-1.629-.1,12.8,12.8,0,0,0-12.8,12.8v.022A11.3,11.3,0,0,0,21.445,307.948Zm0,0" transform="translate(-21.445 -236.12)" fill="#a66d30" fill-rule="evenodd"/>
          <path id="Path_1258104" data-name="Path 1258104" d="M46.369,307.948H21.445A11.3,11.3,0,0,1,32.06,296.668v-.022a12.8,12.8,0,0,1,12.8-12.8,12.51,12.51,0,0,1,1.628.1,14.614,14.614,0,0,1,20.14-3.511c-11.88,3.485-20.437,13.237-20.437,24.723A22.571,22.571,0,0,0,46.369,307.948Zm0,0" transform="translate(-21.445 -236.12)" fill="#6e3e0b" fill-rule="evenodd"/>
          <path id="Path_1258105" data-name="Path 1258105" d="M152.715,380.722c.9,3.046,5.156,3.187,8.076-1.454a1.1,1.1,0,0,0-.364-1.7c-3.725-2.1-8.724-.337-7.717,3.134Zm0,0" transform="translate(-132.33 -319.661)" fill="#f5df87" fill-rule="evenodd"/>
          <path id="Path_1258106" data-name="Path 1258106" d="M160.427,377.57c-3.725-2.1-8.724-.337-7.717,3.134l0,.017a2.9,2.9,0,0,0,2.171,2.1,3.3,3.3,0,0,1-.49-1.011l0-.018c-.906-3.126,3.06-4.868,6.579-3.646A1.325,1.325,0,0,0,160.427,377.57Zm0,0" transform="translate(-132.33 -319.661)" fill="#d9a13f" fill-rule="evenodd"/>
          <path id="Path_1258107" data-name="Path 1258107" d="M240.073,347.033c1.992,2.473,5.984.977,6.912-4.425.1-.841-.2-1.291-.985-1.432-4.246-.516-8.189,3.021-5.935,5.844Zm0,0" transform="translate(-205.752 -289.61)" fill="#f5df87" fill-rule="evenodd"/>
          <path id="Path_1258108" data-name="Path 1258108" d="M246,341.176c-4.246-.516-8.19,3.021-5.935,5.844l.008.013a2.884,2.884,0,0,0,2.81,1.112,3.181,3.181,0,0,1-.84-.744l-.009-.013c-2.031-2.543.968-5.669,4.688-5.883A1.341,1.341,0,0,0,246,341.176Zm0,0" transform="translate(-205.751 -289.61)" fill="#d9a13f" fill-rule="evenodd"/>
          <path id="Path_1258109" data-name="Path 1258109" d="M294.3,401.712c2,2.473,5.988.972,6.912-4.43.1-.836-.2-1.291-.981-1.427-4.246-.521-8.194,3.02-5.94,5.844Zm0,0" transform="translate(-251.608 -335.845)" fill="#f5df87" fill-rule="evenodd"/>
          <path id="Path_1258110" data-name="Path 1258110" d="M300.233,395.855c-4.246-.521-8.194,3.02-5.94,5.844l.008.013a2.9,2.9,0,0,0,2.81,1.112,3.188,3.188,0,0,1-.836-.749l-.013-.013c-2.031-2.543.972-5.664,4.687-5.879A1.265,1.265,0,0,0,300.233,395.855Zm0,0" transform="translate(-251.608 -335.845)" fill="#d9a13f" fill-rule="evenodd"/>
        </g>
        <path id="Path_1258111" data-name="Path 1258111" d="M77.9,71.829H76.849a12.476,12.476,0,0,0-10.6-11.17,13.848,13.848,0,0,0-2.508-7.017,1.158,1.158,0,0,0-1.892,1.335,11.568,11.568,0,0,1,2.121,6.708v.022a1.158,1.158,0,0,0,1.089,1.156,10.151,10.151,0,0,1,9.46,8.966H4.535A10.151,10.151,0,0,1,14,62.863a1.158,1.158,0,0,0,1.089-1.156v-.022A11.659,11.659,0,0,1,26.729,50.039c.136,0,.272,0,.408.008h.019c.355.013.706.042,1.051.087a1.159,1.159,0,0,0,1.09-.471,13.456,13.456,0,0,1,21.781-.092,1.16,1.16,0,0,0,.934.473l.18,0,.139,0a11.667,11.667,0,0,1,5.861,1.58,1.158,1.158,0,0,0,1.165-2,13.985,13.985,0,0,0-6.774-1.892,15.874,15.874,0,0,0-8.294-5.437,55.307,55.307,0,0,0-1-10.147,1.158,1.158,0,1,0-2.27.457,52.576,52.576,0,0,1,.948,9.249,15.6,15.6,0,0,0-1.747-.1,15.822,15.822,0,0,0-12.392,6.019c-.092-.007-.184-.011-.276-.016-8.232-5.876-12.9-12-12.827-16.84.04-2.466,1.316-4.681,3.8-6.6l.846,1.555a2.506,2.506,0,0,0,1.51,1.227,2.537,2.537,0,0,0,1.926-.2l.007,0,3.263-1.774a2.538,2.538,0,0,0,1.014-3.438l-.8-1.467a10.221,10.221,0,0,1,7.358,0c2.531,1.116,4.545,3.617,5.986,7.433a1.158,1.158,0,1,0,2.166-.819c-1.669-4.418-4.1-7.356-7.218-8.733-2.7-1.192-5.867-1.172-9.414.051l-.9-1.657a6.326,6.326,0,0,0-.514-4.831L19.223,3.33A6.381,6.381,0,0,0,8.01,9.426l4.526,8.326a6.346,6.346,0,0,0,3.8,3.068c.109.033.22.059.33.085l.733,1.349c-3.259,2.411-4.938,5.306-4.991,8.619C12.3,37.514,18.8,43.928,24,47.992a13.991,13.991,0,0,0-11.2,12.667,12.476,12.476,0,0,0-10.6,11.17H1.158a1.158,1.158,0,0,0,0,2.316H77.9a1.158,1.158,0,0,0,0-2.316ZM22.944,18.912l2.108,3.875a.223.223,0,0,1-.089.3l-3.257,1.77a.23.23,0,0,1-.174.017.209.209,0,0,1-.129-.107l-2.062-3.789a6.382,6.382,0,0,0,3.6-2.064Zm-5.95-.312a4.045,4.045,0,0,1-2.423-1.954L10.045,8.321a4.082,4.082,0,0,1,1.631-5.512h0A4.02,4.02,0,0,1,13.6,2.316a4.113,4.113,0,0,1,1.167.17,4.034,4.034,0,0,1,2.419,1.95l4.527,8.331a4.026,4.026,0,0,1,.321,3.088c-.031.106-.067.208-.106.31,0,.005-.005.011-.008.017l-.033.088a4.036,4.036,0,0,1-4.254,2.465l-.05-.008-.021,0A4.163,4.163,0,0,1,16.994,18.6Zm0,0"/>
        <path id="Path_1258112" data-name="Path 1258112" d="M154.652,370.2c-2.633-1.486-6.014-1.4-8.039.2a3.845,3.845,0,0,0-1.375,4.2,1.114,1.114,0,0,0,.034.122,4.039,4.039,0,0,0,3.361,2.924,4.563,4.563,0,0,0,.629.043c2.2,0,4.513-1.547,6.165-4.172.011-.018.022-.036.032-.054a2.241,2.241,0,0,0-.758-3.24Zm-1.2,2.119c-1.574,2.484-3.4,3.191-4.5,3.039a1.716,1.716,0,0,1-1.464-1.3l-.009-.034a1.553,1.553,0,0,1,.572-1.8,5.255,5.255,0,0,1,5.436-.017l.014.01C153.488,372.24,153.471,372.275,153.448,372.319Zm0,0" transform="translate(-122.675 -312.141)"/>
        <path id="Path_1258113" data-name="Path 1258113" d="M241.779,336.409a2.245,2.245,0,0,0-1.931-2.709c-.021,0-.042-.007-.064-.01-3-.366-6.093,1.006-7.35,3.26a3.844,3.844,0,0,0,.331,4.4c.022.031.045.06.069.089a4.075,4.075,0,0,0,3.182,1.568,4.189,4.189,0,0,0,1.05-.136c2.326-.6,4.129-3.059,4.7-6.409C241.775,336.447,241.778,336.428,241.779,336.409Zm-2.3-.3c-.507,2.9-1.93,4.25-3,4.527a1.713,1.713,0,0,1-1.841-.636l-.028-.037a1.554,1.554,0,0,1-.159-1.883,5.261,5.261,0,0,1,5.013-2.094l.022,0C239.49,336.02,239.488,336.059,239.484,336.106Zm0,0" transform="translate(-196.086 -282.115)"/>
        <path id="Path_1258114" data-name="Path 1258114" d="M287.049,396.1a4.084,4.084,0,0,0,3.2,1.588,4.165,4.165,0,0,0,1.054-.138c2.326-.606,4.128-3.063,4.7-6.412,0-.019.006-.037.008-.057a2.237,2.237,0,0,0-1.931-2.706l-.058-.008c-3-.369-6.094,1-7.355,3.258a3.846,3.846,0,0,0,.342,4.422Q287.028,396.076,287.049,396.1Zm1.639-3.346a5.259,5.259,0,0,1,5.018-2.092l.015,0c0,.03,0,.068-.007.115-.5,2.9-1.927,4.252-3,4.53a1.713,1.713,0,0,1-1.837-.626c-.016-.022-.033-.043-.05-.063A1.552,1.552,0,0,1,288.688,392.756Zm0,0" transform="translate(-241.944 -328.35)"/>
      </g>
    </g>
    <rect id="Rectangle_411620" data-name="Rectangle 411620" width="104" height="104" transform="translate(788.051 2601.164)" fill="none"/>
  </g>
</svg>
