<svg xmlns="http://www.w3.org/2000/svg" width="104" height="104" viewBox="0 0 104 104">
  <g id="Group_1204266" data-name="Group 1204266" transform="translate(-788.05 -2601.164)">
    <g id="Group_1201005" data-name="Group 1201005" transform="translate(788.051 2610.842)">
      <rect id="Rectangle_410589" data-name="Rectangle 410589" width="103.576" height="34.525" rx="8" transform="translate(0 26.598)" fill="#ffc94a"/>
      <g id="Group_1204273" data-name="Group 1204273" transform="translate(-13.262 0.322)">
        <g id="Group_1204285" data-name="Group 1204285" transform="translate(28.505 1.243)">
          <g id="Group_1204282" data-name="Group 1204282" transform="translate(12.478)">
            <g id="Group_1204273-2" data-name="Group 1204273">
              <path id="Path_1258348" data-name="Path 1258348" d="M127.313,82.819H110.032V8.472A.972.972,0,0,1,111,7.5h15.336a.972.972,0,0,1,.972.972Z" transform="translate(-110.032 -7.5)" fill="#afe2f7"/>
              <path id="Path_1258349" data-name="Path 1258349" d="M116.56,82.819h-6.528V8.472A.972.972,0,0,1,111,7.5h5.556Z" transform="translate(-110.032 -7.5)" fill="#d1ecf9"/>
            </g>
            <g id="Group_1204281" data-name="Group 1204281" transform="translate(23.004 24.604)">
              <g id="Group_1204280" data-name="Group 1204280">
                <g id="Group_1204279" data-name="Group 1204279">
                  <g id="Group_1204278" data-name="Group 1204278">
                    <g id="Group_1204277" data-name="Group 1204277">
                      <g id="Group_1204276" data-name="Group 1204276">
                        <g id="Group_1204275" data-name="Group 1204275">
                          <g id="Group_1204274" data-name="Group 1204274">
                            <path id="Path_1258350" data-name="Path 1258350" d="M248.813,156.341a.256.256,0,0,1,.314-.323c.758.223,2.645.481,7.092-.025,8.61-.979,7.241,7.992,7.241,7.992S253.179,170.683,248.813,156.341Z" transform="translate(-248.802 -155.919)" fill="#c6e873"/>
                            <path id="Path_1258351" data-name="Path 1258351" d="M350.764,211.405a.256.256,0,0,0-.346-.288c-.73.3-2.589,1.018-7.055.724-7.131-.47-6.656,8.734-6.656,8.734S347.936,226.128,350.764,211.405Z" transform="translate(-322.129 -201.951)" fill="#c6e873"/>
                          </g>
                        </g>
                      </g>
                    </g>
                  </g>
                </g>
              </g>
            </g>
          </g>
          <path id="Path_1258352" data-name="Path 1258352" d="M269.011,340.852a25.771,25.771,0,0,0-33.238,0Z" transform="translate(-202.451 -280.524)" fill="#c6865c"/>
          <g id="Group_1204283" data-name="Group 1204283" transform="translate(3.768 61.955)">
            <path id="Path_1258353" data-name="Path 1258353" d="M114.371,401.664H66.43a4.318,4.318,0,0,1-4.162-3.167l-4.775-17.268h65.814L118.533,398.5A4.318,4.318,0,0,1,114.371,401.664Z" transform="translate(-57.493 -381.229)" fill="#eaaa89"/>
          </g>
          <path id="Path_1258354" data-name="Path 1258354" d="M344.271,381.229,339.5,398.5a4.318,4.318,0,0,1-4.162,3.167h10.819a4.318,4.318,0,0,0,4.162-3.167l4.775-17.268H344.271Z" transform="translate(-285.507 -319.274)" fill="#e4936b"/>
          <path id="Path_1258355" data-name="Path 1258355" d="M106.182,370H36.693a1.931,1.931,0,0,1-1.931-1.931v-1.706a1.931,1.931,0,0,1,1.931-1.931h69.489a1.931,1.931,0,0,1,1.931,1.931v1.706A1.931,1.931,0,0,1,106.182,370Z" transform="translate(-34.762 -305.263)" fill="#e4936b"/>
          <g id="Group_1204284" data-name="Group 1204284" transform="translate(60.587 59.17)">
            <path id="Path_1258356" data-name="Path 1258356" d="M411.075,364.433H400.242a1.931,1.931,0,0,1,1.931,1.931v1.706A1.931,1.931,0,0,1,400.242,370h10.833a1.931,1.931,0,0,0,1.931-1.931v-1.706A1.931,1.931,0,0,0,411.075,364.433Z" transform="translate(-400.242 -364.433)" fill="#e27d47"/>
          </g>
        </g>
        <path id="Path_1258357" data-name="Path 1258357" d="M99.925,59.17H94.018a26.455,26.455,0,0,0-14.281-4.886l.061-8.041c6.3,1.8,12.184-1.011,14.046-10.708A1.5,1.5,0,0,0,91.8,33.865c-.548.226-2.217.915-6.5.632a6.63,6.63,0,0,0-5.327,1.815c-.036.035-.069.072-.1.108l.019-2.438c.708-5.665-2.274-10.018-8.627-9.3-4.445.505-6.1.216-6.6.068a1.5,1.5,0,0,0-1.854,1.878c1.559,5.123,4.049,8.339,7.4,9.558a10.152,10.152,0,0,0,7.181-.282c0,.293-.137,18.024-.14,18.372a26.463,26.463,0,0,0-14.375,4.89H59.508V2.216A2.219,2.219,0,0,0,57.292,0H41.955A2.218,2.218,0,0,0,39.74,2.216V7.136a1.243,1.243,0,1,0,2.487,0V2.487h4.042V59.17H42.226V12.95a1.243,1.243,0,1,0-2.487,0V59.17h-9.3a3.178,3.178,0,0,0-3.174,3.174v1.706a3.178,3.178,0,0,0,3.174,3.174H32.1L35.85,80.8a5.577,5.577,0,0,0,5.36,4.079H89.151a5.577,5.577,0,0,0,5.36-4.079l3.753-13.572h1.661a3.178,3.178,0,0,0,3.174-3.174V62.345a3.178,3.178,0,0,0-3.174-3.174ZM79.82,43.389c.092-1.538.525-3.948,1.9-5.306a4.2,4.2,0,0,1,3.417-1.1,21.1,21.1,0,0,0,5.892-.28c-.922,3.472-2.474,5.772-4.623,6.847a8.721,8.721,0,0,1-6.59.093Zm-8.778-9.543c-2.255-.828-4.049-2.989-5.344-6.433a33.734,33.734,0,0,0,5.847-.256c4.191-.476,6.152,1.7,5.922,5.992a8.386,8.386,0,0,1-6.426.7Zm7.4,22.894A24.41,24.41,0,0,1,89.175,59.17H67.718A24.409,24.409,0,0,1,78.447,56.741ZM48.755,2.487h8.266V8.8h-1.91a1.243,1.243,0,0,0,0,2.487h1.91v8.334h-1.91a1.243,1.243,0,0,0,0,2.487h1.91v8.334h-1.91a1.243,1.243,0,0,0,0,2.487h1.91v8.334h-1.91a1.243,1.243,0,0,0,0,2.487h1.91v8.334h-1.91a1.243,1.243,0,0,0,0,2.487h1.91v4.6H48.755Zm51.858,61.564a.689.689,0,0,1-.688.688H79.347a1.243,1.243,0,1,0,0,2.487H95.684L92.115,80.134a3.083,3.083,0,0,1-2.964,2.255H41.21a3.083,3.083,0,0,1-2.964-2.255L34.677,67.225H73.533a1.243,1.243,0,1,0,0-2.487h-43.1a.689.689,0,0,1-.688-.688V62.344a.689.689,0,0,1,.688-.688H99.925a.689.689,0,0,1,.688.688Z" transform="translate(0 0)"/>
      </g>
    </g>
    <rect id="Rectangle_411620" data-name="Rectangle 411620" width="104" height="104" transform="translate(788.051 2601.164)" fill="none"/>
  </g>
</svg>
