<svg xmlns="http://www.w3.org/2000/svg" width="104" height="104" viewBox="0 0 104 104">
  <g id="Group_1203831" data-name="Group 1203831" transform="translate(-788.051 -2601.164)">
    <g id="Group_1201005" data-name="Group 1201005" transform="translate(788.051 2618.656)">
      <g id="Rectangle_410589" data-name="Rectangle 410589" transform="translate(0 17.509)" fill="#ffc94a" stroke="#dfab32" stroke-width="1">
        <rect width="103.576" height="34.525" rx="8" stroke="none"/>
        <rect x="0.5" y="0.5" width="102.576" height="33.525" rx="7.5" fill="none"/>
      </g>
      <g id="Group_1203861" data-name="Group 1203861" transform="translate(13 -6.491)">
        <g id="Group_1203861-2" data-name="Group 1203861" transform="translate(12.869 1.197)">
          <path id="Path_1257243" data-name="Path 1257243" d="M124.625,413.233v6.558a1.937,1.937,0,0,0,1.933,1.932h33.749a1.937,1.937,0,0,0,1.933-1.932v-6.558L143.475,406Zm0,0" transform="translate(-117.596 -342.37)" fill="#f5df87" fill-rule="evenodd"/>
          <path id="Path_1257244" data-name="Path 1257244" d="M172.432,96l-3.869,7.744,11.794,3.734,12.636-3.734L189.127,96l-8.965-4.313Zm0,0" transform="translate(-154.518 -78.245)" fill="#e6e6e6" fill-rule="evenodd"/>
          <path id="Path_1257245" data-name="Path 1257245" d="M217.457,31.491V36.4l3.793,2.286,4.236-2.286v-4.91L221.2,28.617Zm0,0" transform="translate(-195.606 -25.245)" fill="#e6e6e6" fill-rule="evenodd"/>
          <path id="Path_1257246" data-name="Path 1257246" d="M188.715,9.429v2.381a1.942,1.942,0,0,0,1.937,1.933h13.333a1.938,1.938,0,0,0,1.933-1.933V9.429A1.938,1.938,0,0,0,203.985,7.5H190.652A1.942,1.942,0,0,0,188.715,9.429Zm0,0" transform="translate(-171.453 -7.496)" fill="#8fde56" fill-rule="evenodd"/>
          <path id="Path_1257247" data-name="Path 1257247" d="M124.625,169.136v5.535l18.855,2.874,18.759-2.874v-5.535a1.937,1.937,0,0,0-1.932-1.933H126.558A1.937,1.937,0,0,0,124.625,169.136Zm0,0" transform="translate(-117.596 -141.704)" fill="#f5df87" fill-rule="evenodd"/>
          <path id="Path_1257248" data-name="Path 1257248" d="M103.944,83.966a.9.9,0,0,0,.109,0h38.392c4.883,0,4.87,1.366,7.3,5.634l5.331,9.369a3.3,3.3,0,1,0,5.735-3.259l-8.124-14.284c-2.508-4.06-4.408-4.06-5.979-4.06H104.053a.79.79,0,0,0-.109,0L101.07,80.4Zm0,0" transform="translate(-97.802 -66.215)" fill="#8fde56" fill-rule="evenodd"/>
          <path id="Path_1257249" data-name="Path 1257249" d="M119.07,77.376v6.59l.185,0h3.911l-.186,0v-6.59l.186,0h-3.911Zm0,0" transform="translate(-112.928 -66.215)" fill="#47a831" fill-rule="evenodd"/>
          <path id="Path_1257250" data-name="Path 1257250" d="M217.457,46.617H220v4.91h-2.542Zm0,0" transform="translate(-195.606 -40.371)" fill="#b3adad" fill-rule="evenodd"/>
          <path id="Path_1257251" data-name="Path 1257251" d="M188.715,11.813a1.941,1.941,0,0,0,1.937,1.933h4.874a1.941,1.941,0,0,1-1.937-1.933V9.432A1.941,1.941,0,0,1,195.526,7.5h-4.874a1.941,1.941,0,0,0-1.937,1.932Zm0,0" transform="translate(-171.453 -7.499)" fill="#47a831" fill-rule="evenodd"/>
          <path id="Path_1257252" data-name="Path 1257252" d="M172.432,118.7l-3.869,7.744h4.3l3.865-7.744Zm0,0" transform="translate(-154.518 -100.947)" fill="#b3adad" fill-rule="evenodd"/>
          <path id="Path_1257253" data-name="Path 1257253" d="M126.558,167.2a1.938,1.938,0,0,0-1.933,1.933v5.535H127.9v-5.535a1.937,1.937,0,0,1,1.932-1.933Zm0,0" transform="translate(-117.596 -141.704)" fill="#d9a13f" fill-rule="evenodd"/>
          <path id="Path_1257254" data-name="Path 1257254" d="M124.625,451.324v6.558a1.94,1.94,0,0,0,1.933,1.932h3.276c1.063,0-1.932-.869-1.932-1.932v-6.558Zm0,0" transform="translate(-117.596 -380.461)" fill="#d9a13f" fill-rule="evenodd"/>
          <path id="Path_1257255" data-name="Path 1257255" d="M80.6,63.759V72.53A1.3,1.3,0,0,0,81.9,73.825h3.6a1.3,1.3,0,0,0,1.3-1.294V63.759a1.3,1.3,0,0,0-1.3-1.294H81.9A1.3,1.3,0,0,0,80.6,63.759Zm0,0" transform="translate(-80.602 -53.688)" fill="#f5df87" fill-rule="evenodd"/>
          <path id="Path_1257256" data-name="Path 1257256" d="M80.6,63.759V72.53A1.3,1.3,0,0,0,81.9,73.825h3.141a1.3,1.3,0,0,1-1.295-1.294V63.759a1.3,1.3,0,0,1,1.295-1.294H81.9A1.3,1.3,0,0,0,80.6,63.759Zm0,0" transform="translate(-80.602 -53.688)" fill="#d9a13f" fill-rule="evenodd"/>
          <path id="Path_1257257" data-name="Path 1257257" d="M124.625,213.977h37.614v37.9H124.625Zm0,0" transform="translate(-117.596 -181.009)" fill="#e6e6e6" fill-rule="evenodd"/>
          <path id="Path_1257258" data-name="Path 1257258" d="M124.625,213.977v37.9H127.9v-37.9Zm0,0" transform="translate(-117.596 -181.009)" fill="#b3adad" fill-rule="evenodd"/>
          <path id="Path_1257259" data-name="Path 1257259" d="M162.805,288.066c.656,5.762,6.571,9.849,9.581,5.983l.014-.018a4.387,4.387,0,0,0,.348-.511c1.942-3.33-1.262-7.594-8.2-7.214C163.421,286.369,162.728,286.853,162.805,288.066Zm0,0" transform="translate(-149.675 -241.77)" fill="#8fde56" fill-rule="evenodd"/>
          <path id="Path_1257260" data-name="Path 1257260" d="M162.805,288.118c.656,5.762,6.571,9.849,9.581,5.983l.014-.018a4.623,4.623,0,0,0,.28-.4c-3.123,1.1-7.273-2.526-7.816-7.305a.08.08,0,0,1,0-.032l-.308.014C163.421,286.421,162.728,286.905,162.805,288.118Zm0,0" transform="translate(-149.675 -241.822)" fill="#47a831" fill-rule="evenodd"/>
          <path id="Path_1257261" data-name="Path 1257261" d="M265.475,288.066c-.656,5.762-6.571,9.849-9.581,5.983l-.014-.018a5.111,5.111,0,0,1-.348-.511c-1.942-3.33,1.262-7.594,8.2-7.214C264.86,286.369,265.553,286.853,265.475,288.066Zm0,0" transform="translate(-227.133 -241.77)" fill="#8fde56" fill-rule="evenodd"/>
          <path id="Path_1257262" data-name="Path 1257262" d="M268.777,288.118c-.656,5.762-6.571,9.849-9.581,5.983l-.014-.018a4.62,4.62,0,0,1-.28-.4c3.123,1.1,7.277-2.526,7.82-7.305v-.032l.308.014C268.162,286.421,268.854,286.905,268.777,288.118Zm0,0" transform="translate(-230.434 -241.822)" fill="#47a831" fill-rule="evenodd"/>
        </g>
        <path id="Path_1257263" data-name="Path 1257263" d="M8.117,94.179H1.2a1.2,1.2,0,1,1,0-2.394h6.92a1.2,1.2,0,1,1,0,2.394Zm0,0" transform="translate(0 -77.13)"/>
        <path id="Path_1257264" data-name="Path 1257264" d="M18.165,56.08a1.186,1.186,0,0,1-.513-.116L12.76,53.642a1.2,1.2,0,1,1,1.027-2.163L18.679,53.8a1.2,1.2,0,0,1-.514,2.279Zm0,0" transform="translate(-10.148 -43.163)"/>
        <path id="Path_1257265" data-name="Path 1257265" d="M14.493,122.411a1.2,1.2,0,0,1-.514-2.278l4.893-2.322a1.2,1.2,0,1,1,1.026,2.163L15.005,122.3A1.194,1.194,0,0,1,14.493,122.411Zm0,0" transform="translate(-11.172 -98.903)"/>
        <path id="Path_1257266" data-name="Path 1257266" d="M169.115,297.661a1.2,1.2,0,0,0,1.2-1.2V289.5l1.15-.691a4.78,4.78,0,0,0,3.615,1.659,5.458,5.458,0,0,0,1.48-.211c3.233-.909,5.9-4.42,6.351-8.349q0-.03.006-.06a2.771,2.771,0,0,0-.633-2.094,3.1,3.1,0,0,0-2.243-.938c-4.377-.239-7.984,1.3-9.413,4.016a5.031,5.031,0,0,0-.363,3.905l-1.147.69-1.15-.691a5.029,5.029,0,0,0-.361-3.9c-1.428-2.717-5.036-4.257-9.418-4.018a3.1,3.1,0,0,0-2.242.938,2.769,2.769,0,0,0-.633,2.094c0,.02,0,.04,0,.06.448,3.929,3.118,7.441,6.351,8.349a5.462,5.462,0,0,0,1.481.211,4.783,4.783,0,0,0,3.617-1.66l1.153.692v6.963A1.2,1.2,0,0,0,169.115,297.661Zm3.629-13.714c.774-1.471,3.063-2.963,7.162-2.739a1.08,1.08,0,0,1,.584.136.672.672,0,0,1,.036.326c-.381,3.228-2.643,5.729-4.617,6.284a2.439,2.439,0,0,1-2.328-.418l2.3-1.383a1.2,1.2,0,0,0-1.233-2.053l-2.222,1.337A2.682,2.682,0,0,1,172.744,283.947Zm-10.428,4.006c-1.974-.555-4.235-3.055-4.617-6.283a.672.672,0,0,1,.036-.326,1.079,1.079,0,0,1,.583-.137c4.105-.224,6.393,1.269,7.166,2.742a2.679,2.679,0,0,1,.316,1.487l-2.224-1.336a1.2,1.2,0,1,0-1.233,2.052l2.3,1.383A2.441,2.441,0,0,1,162.316,287.953Zm0,0" transform="translate(-130.507 -234.28)"/>
        <path id="Path_1257267" data-name="Path 1257267" d="M138.347,30.105l-8.124-14.284q-.01-.019-.022-.037c-2.639-4.274-4.815-4.628-7-4.628H105.379V8.64h1.455a3.133,3.133,0,0,0,3.13-3.13V3.13A3.133,3.133,0,0,0,106.834,0H93.5a3.135,3.135,0,0,0-3.134,3.13V5.51A3.135,3.135,0,0,0,93.5,8.64h1.455v2.517H81.685A2.5,2.5,0,0,0,79.2,8.776H75.6a2.494,2.494,0,0,0-2.492,2.492v8.771A2.494,2.494,0,0,0,75.6,22.531h3.6a2.5,2.5,0,0,0,2.49-2.381h8.594L87.606,25.5H83.264a3.133,3.133,0,0,0-3.13,3.13V78.618a3.133,3.133,0,0,0,3.13,3.13h33.749a3.133,3.133,0,0,0,3.13-3.13V53.693a1.2,1.2,0,0,0-2.394,0V70.862H82.528v-35.5H97.045a1.2,1.2,0,0,0,0-2.394H82.528V28.629a.736.736,0,0,1,.735-.735h33.749a.736.736,0,0,1,.735.735v4.338H103.634a1.2,1.2,0,1,0,0,2.394h14.113V48.167a1.2,1.2,0,1,0,2.394,0V28.629a3.134,3.134,0,0,0-3.13-3.13h-3.5l-2.67-5.349h8.1c3.518,0,3.8.526,5.384,3.448.254.469.541,1,.872,1.582l5.331,9.367a4.465,4.465,0,0,0,2.717,2.112,4.535,4.535,0,0,0,1.2.164,4.5,4.5,0,0,0,3.894-6.718Zm-20.6,43.151v5.361a.736.736,0,0,1-.735.735H83.264a.736.736,0,0,1-.735-.735V73.257ZM92.761,5.51V3.13a.747.747,0,0,1,.74-.735h13.333a.736.736,0,0,1,.735.735V5.51a.736.736,0,0,1-.735.735H93.5A.747.747,0,0,1,92.761,5.51Zm4.589,3.13h5.634v2.517H97.351ZM79.3,20.039a.1.1,0,0,1-.1.1H75.6a.1.1,0,0,1-.1-.1V11.267a.1.1,0,0,1,.1-.1h3.6a.1.1,0,0,1,.1.1Zm31.544,5.46H90.282l2.673-5.349h15.215Zm25.62,7.385a2.1,2.1,0,0,1-3.848.48L127.282,24c-.318-.559-.6-1.079-.848-1.537-1.811-3.345-2.734-4.7-7.489-4.7H81.691v-4.2H123.2c1.376,0,2.8,0,4.949,3.473l8.113,14.265A2.086,2.086,0,0,1,136.46,32.884Zm0,0" transform="translate(-61.433)"/>
      </g>
    </g>
    <rect id="Rectangle_411620" data-name="Rectangle 411620" width="104" height="104" transform="translate(788.051 2601.164)" fill="none"/>
  </g>
</svg>
