<svg xmlns="http://www.w3.org/2000/svg" width="104" height="104" viewBox="0 0 104 104">
  <g id="Group_1204267" data-name="Group 1204267" transform="translate(-788.05 -2601.164)">
    <g id="Group_1201005" data-name="Group 1201005" transform="translate(788.051 2610.842)">
      <rect id="Rectangle_410589" data-name="Rectangle 410589" width="103.576" height="34.525" rx="8" transform="translate(0 26.598)" fill="#ffc94a"/>
      <g id="Group_1204286" data-name="Group 1204286" transform="translate(-8.23 2.322)">
        <g id="Group_1204289" data-name="Group 1204289" transform="translate(24.411 1.18)">
          <ellipse id="Ellipse_12791" data-name="Ellipse 12791" cx="5.901" cy="3.771" rx="5.901" ry="3.771" transform="translate(7.765 39.464) rotate(-39.85)" fill="#8c8585"/>
          <ellipse id="Ellipse_12792" data-name="Ellipse 12792" cx="3.771" cy="5.901" rx="3.771" ry="5.901" transform="translate(49.163 37.683) rotate(-50.15)" fill="#9e9797"/>
          <path id="Path_1258358" data-name="Path 1258358" d="M368.473,224.3c-2.194-1.831-4.855-2.361-6.377-1.386a8.686,8.686,0,0,1,2.283,1.386c2.5,2.088,3.449,5.077,2.114,6.676a2.484,2.484,0,0,1-.57.5c1.88.763,3.718.633,4.663-.5C371.922,229.378,370.975,226.389,368.473,224.3Z" transform="translate(-309.97 -188.623)" fill="#8c8585"/>
          <path id="Path_1258359" data-name="Path 1258359" d="M224.873,252.707h9.793v8.254h-9.793Z" transform="translate(-194.333 -214.134)" fill="#ffcebf"/>
          <path id="Path_1258360" data-name="Path 1258360" d="M261.108,252.707H265.2v8.254h-4.093Z" transform="translate(-224.868 -214.134)" fill="#ffb09e"/>
          <path id="Path_1258361" data-name="Path 1258361" d="M158.066,10.242A5.766,5.766,0,0,0,153.157,7.5h-7.886a13.433,13.433,0,0,0-13.343,11.872c-.806,6.892-1.692,14.645-1.866,16.89a10.28,10.28,0,0,0,10.249,11.077h19.073a10.28,10.28,0,0,0,10.249-11.077c-.2-2.517-1.231-11.015-2.055-17.622A9.585,9.585,0,0,0,158.066,10.242Z" transform="translate(-114.411 -7.5)" fill="#9e9797"/>
          <path id="Path_1258362" data-name="Path 1258362" d="M184.488,106.191h-6.557a10.683,10.683,0,0,1-10.683-10.683V77.338h27.924v18.17A10.683,10.683,0,0,1,184.488,106.191Z" transform="translate(-145.773 -66.352)" fill="#ffdfcf"/>
          <path id="Path_1258363" data-name="Path 1258363" d="M286.985,77.34V95.509A10.682,10.682,0,0,1,276.3,106.192l-.1.019a10.68,10.68,0,0,0,6.69-9.91V77.34Z" transform="translate(-237.587 -66.353)" fill="#ffcebf"/>
          <path id="Path_1258364" data-name="Path 1258364" d="M152.88,305.177h32.444v27.061H152.88Z" transform="translate(-133.666 -258.35)" fill="#fef48b"/>
          <path id="Path_1258365" data-name="Path 1258365" d="M333.1,305.177h4.093v27.061H333.1Z" transform="translate(-285.536 -258.35)" fill="#fef056"/>
          <path id="Path_1258366" data-name="Path 1258366" d="M378.332,336.533h-11.26l-3.832-7.889-4.123-8.489V305.178a7.567,7.567,0,0,1,6.823,4.3l6.405,13.988Z" transform="translate(-307.46 -258.35)" fill="#ffcebf"/>
          <path id="Path_1258367" data-name="Path 1258367" d="M372.346,323.462l-6.405-13.988a7.567,7.567,0,0,0-6.823-4.3v1.2a7.559,7.559,0,0,1,2.73,3.092l12.392,27.058h4.093Z" transform="translate(-307.46 -258.35)" fill="#ffb09e"/>
          <path id="Path_1258368" data-name="Path 1258368" d="M212.786,289.295l2.768,3.938a.959.959,0,0,0,1.6-.044l2.431-3.894-4.9-2.965Z" transform="translate(-184.148 -242.467)" fill="#99e6fc"/>
          <path id="Path_1258369" data-name="Path 1258369" d="M262.8,289.295l-2.768,3.938a.959.959,0,0,1-1.6-.044L256,289.295l4.9-2.965Z" transform="translate(-220.565 -242.467)" fill="#62dbfb"/>
          <path id="Path_1258370" data-name="Path 1258370" d="M157.593,80.345s14.341-.3,20.412-9.922c0,0,2.066,7.034,7.511,7.034l1.215-9.232h-30.94Z" transform="translate(-136.119 -58.673)" fill="#9e9797"/>
          <path id="Path_1258371" data-name="Path 1258371" d="M271.588,36.262c-.2-2.517-1.231-11.015-2.055-17.622a9.585,9.585,0,0,0-9.512-8.4A5.765,5.765,0,0,0,255.112,7.5h-4.093a5.766,5.766,0,0,1,4.909,2.742,9.585,9.585,0,0,1,9.512,8.4c.824,6.608,1.86,15.106,2.055,17.622a10.28,10.28,0,0,1-10.249,11.077h4.093a10.28,10.28,0,0,0,10.249-11.077Z" transform="translate(-216.366 -7.5)" fill="#8c8585"/>
          <path id="Path_1258372" data-name="Path 1258372" d="M49.951,305.178v14.977l-4.135,8.514L42,336.533H30.736l5.974-13.047,6.418-14.011a7.566,7.566,0,0,1,6.823-4.3Z" transform="translate(-30.736 -258.35)" fill="#ffcebf"/>
          <g id="Group_1204286-2" data-name="Group 1204286" transform="translate(5.974 46.828)">
            <path id="Path_1258373" data-name="Path 1258373" d="M81.954,305.178v14.977l-4.135,8.514-9.106-5.184,6.418-14.011A7.566,7.566,0,0,1,81.954,305.178Z" transform="translate(-68.713 -305.178)" fill="#fef48b"/>
            <path id="Path_1258374" data-name="Path 1258374" d="M372.346,323.462l-9.106,5.182-4.123-8.489V305.178a7.567,7.567,0,0,1,6.823,4.3Z" transform="translate(-313.435 -305.178)" fill="#fef48b"/>
            <path id="Path_1258375" data-name="Path 1258375" d="M372.346,323.462l-9.106,5.182-4.123-8.489V305.178a7.567,7.567,0,0,1,6.823,4.3Z" transform="translate(-313.435 -305.178)" fill="#fef48b"/>
          </g>
          <path id="Path_1258376" data-name="Path 1258376" d="M361.847,309.475l7.252,15.835,3.246-1.847-6.405-13.988a7.567,7.567,0,0,0-6.823-4.3v1.2A7.554,7.554,0,0,1,361.847,309.475Z" transform="translate(-307.46 -258.351)" fill="#fef056"/>
          <g id="Group_1204288" data-name="Group 1204288" transform="translate(11.231 55.196)">
            <g id="Group_1204287" data-name="Group 1204287" transform="translate(3.512)">
              <path id="Path_1258377" data-name="Path 1258377" d="M131.351,367.6h-6.9v-3.174a6.471,6.471,0,0,1,2.034-4.71l1.415-1.333,1.415,1.333a6.472,6.472,0,0,1,2.034,4.71V367.6Z" transform="translate(-124.453 -358.378)" fill="#80d261"/>
              <path id="Path_1258378" data-name="Path 1258378" d="M175.2,367.6h-6.9v-3.174a6.471,6.471,0,0,1,2.034-4.71l1.415-1.333,1.415,1.333a6.472,6.472,0,0,1,2.034,4.71V367.6Z" transform="translate(-161.405 -358.378)" fill="#80d261"/>
              <path id="Path_1258379" data-name="Path 1258379" d="M219.05,367.6h-6.9v-3.174a6.471,6.471,0,0,1,2.034-4.71l1.415-1.333,1.415,1.333a6.472,6.472,0,0,1,2.034,4.71V367.6Z" transform="translate(-198.356 -358.378)" fill="#80d261"/>
              <path id="Path_1258380" data-name="Path 1258380" d="M262.9,367.6H256v-3.174a6.471,6.471,0,0,1,2.034-4.71l1.415-1.333,1.415,1.333a6.472,6.472,0,0,1,2.034,4.71V367.6Z" transform="translate(-235.307 -358.378)" fill="#80d261"/>
              <path id="Path_1258381" data-name="Path 1258381" d="M306.748,367.6h-6.9v-3.174a6.471,6.471,0,0,1,2.034-4.71l1.415-1.333,1.415,1.333a6.472,6.472,0,0,1,2.034,4.71Z" transform="translate(-272.258 -358.378)" fill="#80d261"/>
              <path id="Path_1258382" data-name="Path 1258382" d="M350.6,367.6h-6.9v-3.174a6.471,6.471,0,0,1,2.034-4.71l1.415-1.333,1.415,1.333a6.472,6.472,0,0,1,2.034,4.71V367.6Z" transform="translate(-309.21 -358.378)" fill="#80d261"/>
            </g>
            <path id="Path_1258383" data-name="Path 1258383" d="M136.829,359.712l-1.415-1.333L134,359.712a6.457,6.457,0,0,0-.631.689,6.471,6.471,0,0,1,1.4,4.021V367.6h4.093v-3.174A6.472,6.472,0,0,0,136.829,359.712Z" transform="translate(-128.453 -358.378)" fill="#68ca44"/>
            <path id="Path_1258384" data-name="Path 1258384" d="M180.678,359.712l-1.415-1.333-1.415,1.333a6.457,6.457,0,0,0-.631.689,6.471,6.471,0,0,1,1.4,4.021V367.6h4.093v-3.174A6.471,6.471,0,0,0,180.678,359.712Z" transform="translate(-165.404 -358.378)" fill="#68ca44"/>
            <path id="Path_1258385" data-name="Path 1258385" d="M224.527,359.712l-1.415-1.333-1.415,1.333a6.457,6.457,0,0,0-.631.689,6.471,6.471,0,0,1,1.4,4.021V367.6h4.093v-3.174A6.47,6.47,0,0,0,224.527,359.712Z" transform="translate(-202.355 -358.378)" fill="#68ca44"/>
            <path id="Path_1258386" data-name="Path 1258386" d="M268.377,359.712l-1.415-1.333-1.415,1.333a6.456,6.456,0,0,0-.631.689,6.471,6.471,0,0,1,1.4,4.021V367.6h4.093v-3.174A6.471,6.471,0,0,0,268.377,359.712Z" transform="translate(-239.307 -358.378)" fill="#68ca44"/>
            <path id="Path_1258387" data-name="Path 1258387" d="M312.226,359.712l-1.415-1.333-1.415,1.333a6.462,6.462,0,0,0-.631.689,6.471,6.471,0,0,1,1.4,4.021V367.6h4.094v-3.174A6.471,6.471,0,0,0,312.226,359.712Z" transform="translate(-276.258 -358.378)" fill="#68ca44"/>
            <path id="Path_1258388" data-name="Path 1258388" d="M356.075,359.712l-1.415-1.333-1.415,1.333a6.456,6.456,0,0,0-.631.689,6.471,6.471,0,0,1,1.4,4.021V367.6h4.093v-3.174A6.47,6.47,0,0,0,356.075,359.712Z" transform="translate(-313.209 -358.378)" fill="#68ca44"/>
            <path id="Path_1258389" data-name="Path 1258389" d="M150.486,430.744H102.128v-11.98a1.788,1.788,0,0,1,1.788-1.788H148.7a1.788,1.788,0,0,1,1.788,1.788Z" transform="translate(-102.128 -407.758)" fill="#b98080"/>
            <path id="Path_1258390" data-name="Path 1258390" d="M369.391,416.976H364.02a1.788,1.788,0,0,1,1.788,1.788v11.98h5.371v-11.98A1.788,1.788,0,0,0,369.391,416.976Z" transform="translate(-322.822 -407.758)" fill="#ae6c6c"/>
          </g>
        </g>
        <g id="Group_1204290" data-name="Group 1204290" transform="translate(23.23 0)">
          <path id="Path_1258391" data-name="Path 1258391" d="M96.357,78.871,83.964,51.813a8.874,8.874,0,0,0-7.9-4.985H67.291L65.924,44.7V42.2h3.46a11.392,11.392,0,0,0,5.608-1.464,9.621,9.621,0,0,0,2.333,2.819c2.307,1.978,6.309,3.245,8.608.737a4.441,4.441,0,0,0,.6-4.267,9.025,9.025,0,0,0-2.865-4.071,9.513,9.513,0,0,0-3.334-1.836,11.465,11.465,0,0,0,.474-4.265c-.113-1.454-.511-5-1.183-10.55a1.18,1.18,0,1,0-2.342.284c.668,5.513,1.062,9.028,1.173,10.448A9.168,9.168,0,0,1,70.274,39.8a11.85,11.85,0,0,0,4.715-9.46V19.964a1.18,1.18,0,0,0-1.18-1.18c-4.487,0-6.361-6.127-6.379-6.187a1.18,1.18,0,0,0-2.13-.3c-5.65,8.957-19.284,9.368-19.439,9.371a1.191,1.191,0,0,0-1.155,1.18v7.484a11.85,11.85,0,0,0,4.715,9.46,9.194,9.194,0,0,1-8.183-9.763c.14-1.8.784-7.629,1.862-16.844A12.254,12.254,0,0,1,55.271,2.36h7.886a4.615,4.615,0,0,1,3.9,2.181,1.18,1.18,0,0,0,1,.561,8.418,8.418,0,0,1,8.341,7.364l.2,1.618a1.18,1.18,0,1,0,2.342-.291l-.2-1.619A10.784,10.784,0,0,0,68.7,2.761,7,7,0,0,0,63.157,0H55.271A14.615,14.615,0,0,0,40.756,12.915c-1.1,9.378-1.726,15.076-1.871,16.936a11.461,11.461,0,0,0,.468,4.245,9.585,9.585,0,0,0-3.415,1.856,9.027,9.027,0,0,0-2.865,4.072,4.441,4.441,0,0,0,.6,4.266c2.159,2.454,6.132,1.34,8.609-.736A9.588,9.588,0,0,0,44.636,40.7a11.391,11.391,0,0,0,5.674,1.5h3.46v2.5L52.056,47.37a1.18,1.18,0,0,0,.028,1.315l2.768,3.938a2.223,2.223,0,0,0,3.815-.5V56.9l-.045-.045-1.415-1.334a1.179,1.179,0,0,0-1.618,0l-1.415,1.334a7.62,7.62,0,0,0-1.224,1.491,7.617,7.617,0,0,0-1.225-1.491l-1.415-1.334a1.179,1.179,0,0,0-1.618,0l-1.415,1.334a7.621,7.621,0,0,0-1.224,1.491,7.621,7.621,0,0,0-1.225-1.491l-.022-.02V49.188h2.731a1.18,1.18,0,0,0,0-2.36H43.625a8.873,8.873,0,0,0-7.9,4.985L23.337,78.872a1.18,1.18,0,1,0,2.145.982l5.438-11.876,3.541,2.015v9.369a1.18,1.18,0,0,0,2.36,0V67.383a.609.609,0,0,1,.608-.608H82.211a.609.609,0,0,1,.608.608v11.98A1.18,1.18,0,0,0,84,80.543h.026a1.179,1.179,0,0,0,1.154-1.417V69.992l3.583-2.038,5.45,11.9a1.18,1.18,0,0,0,2.145-.983ZM74.889,56.831a8.414,8.414,0,0,0-1.246,1.512,7.621,7.621,0,0,0-1.225-1.491L71,55.518a1.179,1.179,0,0,0-1.618,0L67.97,56.851a7.612,7.612,0,0,0-1.225,1.491,7.617,7.617,0,0,0-1.225-1.491l-1.415-1.334a1.179,1.179,0,0,0-1.618,0l-1.415,1.334-.045.044V52.125a2.225,2.225,0,0,0,3.815.5l2.415-3.436h7.631ZM64.372,46.647l.853,1.33L63.1,50.995l-1.622-2.6ZM79.4,36.307a7.059,7.059,0,0,1,2.759,1.456,6.747,6.747,0,0,1,2.128,2.973c1.067,3.764-3.623,2.743-5.448,1.006a7.153,7.153,0,0,1-1.9-2.391A12.019,12.019,0,0,0,79.4,36.307ZM47.065,30.336V23.963a36.435,36.435,0,0,0,7.082-1.33A23.737,23.737,0,0,0,66,15.342c1.039,2.112,3.112,5.141,6.624,5.708v9.286a9.514,9.514,0,0,1-9.5,9.5H56.568A9.514,9.514,0,0,1,47.065,30.336ZM40.771,41.742c-1.524,1.149-3.613,2.321-5.286,1.035a2.241,2.241,0,0,1-.163-2.041,6.75,6.75,0,0,1,2.128-2.973,7,7,0,0,1,2.835-1.475,11.865,11.865,0,0,0,2.407,3.01A7.094,7.094,0,0,1,40.771,41.742Zm15.82,9.252L54.47,47.977l.853-1.33,2.89,1.75Zm-.461-6.617V42.2h7.434v2.179l-3.717,2.251Zm-21.663,22.9-2.56-1.457L37.871,52.8a6.621,6.621,0,0,1,4.574-3.5v5.905c-.338-.115-1.811,1.421-2.068,1.643a7.68,7.68,0,0,0-2.4,5.569v1.995H37.43A2.969,2.969,0,0,0,34.467,67.281Zm5.866-4.861A5.865,5.865,0,0,1,42.6,58a5.853,5.853,0,0,1,2.269,4.423v1.995H40.333Zm6.9,0A5.865,5.865,0,0,1,49.5,58a5.852,5.852,0,0,1,2.269,4.423v1.995H47.231Zm6.9,0A5.865,5.865,0,0,1,56.4,58a5.853,5.853,0,0,1,2.269,4.423v1.995H54.129Zm6.9,0A5.865,5.865,0,0,1,63.3,58a5.853,5.853,0,0,1,2.269,4.423v1.995H61.027Zm6.9,0A5.865,5.865,0,0,1,70.194,58a5.853,5.853,0,0,1,2.269,4.423v1.995H67.925Zm6.9,1.995V62.42A5.856,5.856,0,0,1,77.092,58a5.852,5.852,0,0,1,2.269,4.423v1.995ZM85.174,67.28a2.969,2.969,0,0,0-2.963-2.866h-.49V62.42a7.68,7.68,0,0,0-2.4-5.569c-.772-.6-1.139-1.385-2.068-1.643V49.3a6.421,6.421,0,0,1,4.574,3.5l5.951,13Z" transform="translate(-23.23 0)"/>
          <path id="Path_1258392" data-name="Path 1258392" d="M249.681,158.7a1.18,1.18,0,0,0,1.18-1.18v-3.483a1.18,1.18,0,1,0-2.36,0v3.483A1.18,1.18,0,0,0,249.681,158.7Z" transform="translate(-213.064 -128.815)"/>
          <path id="Path_1258393" data-name="Path 1258393" d="M230.738,206.933a6.842,6.842,0,0,0,3.418.853,8.318,8.318,0,0,0,3.458-.778,1.18,1.18,0,1,0-.974-2.149,5.191,5.191,0,0,1-4.659.069,1.18,1.18,0,0,0-1.243,2.006Z" transform="translate(-197.628 -172.544)"/>
          <path id="Path_1258394" data-name="Path 1258394" d="M221.49,446.849H208.55a1.18,1.18,0,1,0,0,2.36H221.49a1.18,1.18,0,0,0,0-2.36Z" transform="translate(-178.403 -376.555)"/>
          <path id="Path_1258395" data-name="Path 1258395" d="M36.683,156.963h.561v.561a1.18,1.18,0,0,0,2.36,0v-.561h.561a1.18,1.18,0,0,0,0-2.36H39.6v-.561a1.18,1.18,0,1,0-2.36,0v.561h-.561a1.18,1.18,0,1,0,0,2.36Z" transform="translate(-33.572 -128.815)"/>
          <circle id="Ellipse_12793" data-name="Ellipse 12793" cx="1.18" cy="1.18" r="1.18" transform="translate(9.011 19.315)"/>
        </g>
      </g>
    </g>
    <rect id="Rectangle_411620" data-name="Rectangle 411620" width="104" height="104" transform="translate(788.051 2601.164)" fill="none"/>
  </g>
</svg>
