<svg xmlns="http://www.w3.org/2000/svg" width="88" height="88" viewBox="0 0 88 88">
  <g id="Group_1204255" data-name="Group 1204255" transform="translate(-220.051 -1445)">
    <circle id="Ellipse_12693" data-name="Ellipse 12693" cx="44" cy="44" r="44" transform="translate(220.051 1445)" fill="#5a8441"/>
    <g id="Group_1204254" data-name="Group 1204254" transform="translate(231.051 1455.905)">
      <g id="Group_1204251" data-name="Group 1204251" transform="translate(0.976 1.072)">
        <g id="Group_1204244" data-name="Group 1204244" transform="translate(10.793)">
          <g id="Group_1204241" data-name="Group 1204241" transform="translate(0 31.964)">
            <path id="Path_1258249" data-name="Path 1258249" d="M120.327,252.968a21.522,21.522,0,0,1,13,19.753V286.53H90.343V272.721a21.522,21.522,0,0,1,13-19.753Z" transform="translate(-90.343 -252.968)" fill="#fff"/>
          </g>
          <path id="Path_1258250" data-name="Path 1258250" d="M106.6,252.968a21.5,21.5,0,0,0-13,19.753V286.53H90.343V272.721a21.522,21.522,0,0,1,13-19.753Z" transform="translate(-90.343 -221.004)" fill="#e3e9ee"/>
          <g id="Group_1204242" data-name="Group 1204242" transform="translate(12.441 31.135)">
            <path id="Path_1258251" data-name="Path 1258251" d="M185.843,246.6v19.41a1.954,1.954,0,0,0,3.908,0V246.6Z" transform="translate(-185.843 -246.598)" fill="#ff6a47"/>
            <path id="Path_1258252" data-name="Path 1258252" d="M294.843,246.6v19.41a1.954,1.954,0,0,0,3.908,0V246.6Z" transform="translate(-280.644 -246.598)" fill="#ff6a47"/>
          </g>
          <g id="Group_1204243" data-name="Group 1204243" transform="translate(0.549)">
            <path id="Path_1258253" data-name="Path 1258253" d="M125.336,10.6a3.908,3.908,0,0,0-3.8-3H109.47a3.908,3.908,0,0,0-3.8,3l-1.89,7.94L94.556,21.2a3.329,3.329,0,0,0,3.329,3.329h35.234a3.329,3.329,0,0,0,3.329-3.329l-9.221-2.664Z" transform="translate(-94.556 -7.598)" fill="#e6cc9f"/>
          </g>
          <path id="Path_1258254" data-name="Path 1258254" d="M175.343,137.6l.032,9.77a10.419,10.419,0,0,0,20.779,0l.032-9.77" transform="translate(-164.27 -120.663)" fill="#ffceb7"/>
          <path id="Path_1258255" data-name="Path 1258255" d="M187.706,56.6H166.429l-1.086,4.559h23.449Z" transform="translate(-155.573 -50.215)" fill="#ff6a47"/>
          <path id="Path_1258256" data-name="Path 1258256" d="M105.665,10.6l-1.89,7.94-9.222,2.664a3.329,3.329,0,0,0,3.33,3.328l6.1-2.4a5.069,5.069,0,0,0,3.1-3.633l2.386-10.9a3.908,3.908,0,0,0-3.8,3Z" transform="translate(-94.005 -7.599)" fill="#dfba7f"/>
          <path id="Path_1258257" data-name="Path 1258257" d="M169.638,56.6l-1,4.559h-3.3l1.085-4.559Z" transform="translate(-155.573 -50.215)" fill="#fd3501"/>
          <path id="Path_1258258" data-name="Path 1258258" d="M178.632,147.368l-.032-9.77h-3.257l.032,9.77a10.414,10.414,0,0,0,12.018,9.511A10.423,10.423,0,0,1,178.632,147.368Z" transform="translate(-164.27 -120.663)" fill="#ffaa81"/>
        </g>
        <g id="Group_1204246" data-name="Group 1204246" transform="translate(10.344 39.75)">
          <g id="Group_1204245" data-name="Group 1204245" transform="translate(0 1.09)">
            <path id="Path_1258259" data-name="Path 1258259" d="M90.26,331.378c-5.148-3.645-2.853-10.281-2.853-10.281s4.291,1.5,5.748,4.415c0,0,5.47,7.331,3.379,9.005C95.015,335.734,90.26,331.378,90.26,331.378Z" transform="translate(-86.897 -321.097)" fill="#8ae897"/>
          </g>
          <path id="Path_1258260" data-name="Path 1258260" d="M93.517,331.378c-3.634-2.573-3.559-6.635-3.2-8.8a14.876,14.876,0,0,0-2.909-1.478s-2.295,6.636,2.853,10.281c0,0,4.754,4.356,6.274,3.139a1.193,1.193,0,0,0,.389-.581A23.67,23.67,0,0,1,93.517,331.378Z" transform="translate(-86.897 -320.007)" fill="#54e072"/>
          <path id="Path_1258261" data-name="Path 1258261" d="M134.108,322.963c1.631,4.762,7.653,7.012,7.653,7.012s3.378-5.47,1.748-10.231-7.653-7.012-7.653-7.012S132.477,318.2,134.108,322.963Z" transform="translate(-127.571 -312.732)" fill="#8ae897"/>
          <path id="Path_1258262" data-name="Path 1258262" d="M137.364,322.963c-1.142-3.336.173-7.018,1.064-8.925a16.5,16.5,0,0,0-2.573-1.306s-3.378,5.47-1.748,10.232,7.653,7.012,7.653,7.012a14.083,14.083,0,0,0,.684-1.306A11.591,11.591,0,0,1,137.364,322.963Z" transform="translate(-127.571 -312.732)" fill="#54e072"/>
        </g>
        <g id="Group_1204247" data-name="Group 1204247" transform="translate(35.997 38.924)">
          <path id="Path_1258263" data-name="Path 1258263" d="M390.617,321.5l-5.2-5.831,4.653-7.441a3.908,3.908,0,0,1,6.229-.53l3.474,3.892a3.908,3.908,0,0,1-1.232,6.129Z" transform="translate(-372.177 -306.395)" fill="#8ae897"/>
          <path id="Path_1258264" data-name="Path 1258264" d="M388.669,315.673l4.653-7.441a3.875,3.875,0,0,1,1.686-1.483,3.911,3.911,0,0,0-4.943,1.483l-4.653,7.441,5.205,5.831,2.283-1.09Z" transform="translate(-372.177 -306.397)" fill="#54e072"/>
          <path id="Path_1258265" data-name="Path 1258265" d="M395.541,329.662l-3.47-3.887,9.208-8.219a2.605,2.605,0,0,1,3.47,3.887Z" transform="translate(-377.969 -315.526)" fill="#8ae897"/>
          <path id="Path_1258266" data-name="Path 1258266" d="M300.175,365.626c3.065-2.232,5.533-4.726,5.762-6.756.328-2.913-4.876-8.743-7.807-8.747-4.389-.006-12.075,10.013-14.053,14.7a5.286,5.286,0,0,0-.259.807Z" transform="translate(-283.818 -344.427)" fill="#ffceb7"/>
          <path id="Path_1258267" data-name="Path 1258267" d="M293.978,387.859a10.407,10.407,0,0,0-2.354-6.6,40.74,40.74,0,0,0-7.547,10.64,5.284,5.284,0,0,0-.259.807h8.959A10.355,10.355,0,0,0,293.978,387.859Z" transform="translate(-283.818 -371.508)" fill="#ffaa81"/>
        </g>
        <g id="Group_1204249" data-name="Group 1204249" transform="translate(22.906 48.11)">
          <path id="Path_1258268" data-name="Path 1258268" d="M193.949,381l3.229,3.126L200.407,381l3.229,3.126,2.962-2.867a7.166,7.166,0,0,0-6.587-4.343h-5.665a7.166,7.166,0,0,0-6.587,4.343l2.961,2.867Z" transform="translate(-187.181 -376.911)" fill="#8ae897"/>
          <path id="Path_1258269" data-name="Path 1258269" d="M202.74,408.521l-2.962,2.867-3.229-3.126-3.229,3.126-3.229-3.126-3.229,3.126-2.961-2.867a7.167,7.167,0,0,0,6.587,9.987h5.665a7.167,7.167,0,0,0,6.587-9.987Z" transform="translate(-183.323 -404.178)" fill="#ff6a47"/>
          <g id="Group_1204248" data-name="Group 1204248" transform="translate(0)">
            <path id="Path_1258270" data-name="Path 1258270" d="M191.016,381.253a6.789,6.789,0,0,1,6.587-4.343h-3.257a7.166,7.166,0,0,0-6.587,4.343l2.962,2.867A19.564,19.564,0,0,1,191.016,381.253Z" transform="translate(-187.181 -376.91)" fill="#54e072"/>
            <path id="Path_1258271" data-name="Path 1258271" d="M188.7,411.339l-1.836,1.778L183.9,410.25a7.365,7.365,0,0,0-.578,2.867h0a7.164,7.164,0,0,0,7.164,7.119h3.257C190.119,420.237,187.311,415.4,188.7,411.339Z" transform="translate(-183.323 -405.907)" fill="#fd3501"/>
          </g>
        </g>
        <g id="Group_1204250" data-name="Group 1204250" transform="translate(0 43.485)">
          <path id="Path_1258272" data-name="Path 1258272" d="M11.775,346.673l2.482,1.288,1.047-2.407a17.3,17.3,0,0,1-1.664-2.467,3.284,3.284,0,0,0-6.083,2.255c.157.775.37,1.668.658,2.626l2.445,1.269Z" transform="translate(-7.491 -341.406)" fill="#8ae897"/>
          <path id="Path_1258273" data-name="Path 1258273" d="M37.814,380.291a5.562,5.562,0,0,0-6.02-3.638c-4.454.573-8.668.476-11.661-3.412l-1.047,2.407L16.6,374.361l-1.115,2.564-2.445-1.269c1.243,4.139,3.882,9.509,9.425,11.93,3.81,1.664,8.329.933,11.763-.139A5.552,5.552,0,0,0,37.814,380.291Z" transform="translate(-12.321 -369.094)" fill="#fde31d"/>
          <path id="Path_1258274" data-name="Path 1258274" d="M10.162,345.348a3.282,3.282,0,0,1,1.915-3.662,3.28,3.28,0,0,0-4.521,3.662c.157.775.37,1.668.658,2.626l2.445,1.269L11,348.47C10.7,347.443,10.292,345.989,10.162,345.348Z" transform="translate(-7.491 -341.413)" fill="#54e072"/>
          <path id="Path_1258275" data-name="Path 1258275" d="M25.076,403.707c-5.312-2.321-7.956-7.348-9.261-11.406l-.324.744-2.445-1.269c1.243,4.139,3.882,9.509,9.425,11.93a13.484,13.484,0,0,0,6.437.929,12,12,0,0,1-3.832-.929Z" transform="translate(-12.321 -385.215)" fill="#e9ca1c"/>
        </g>
        <path id="Path_1258276" data-name="Path 1258276" d="M87.974,474.532H29v-2.145a3.257,3.257,0,0,1,3.257-3.257H84.717a3.257,3.257,0,0,1,3.257,3.257v2.145Z" transform="translate(-26.201 -409.006)" fill="#e6cc9f"/>
        <path id="Path_1258277" data-name="Path 1258277" d="M32.26,474.532H29v-2.145a3.257,3.257,0,0,1,3.257-3.257Z" transform="translate(-26.201 -409.006)" fill="#dfba7f"/>
      </g>
      <g id="Group_1204252" data-name="Group 1204252" transform="translate(16.462 56.068)">
        <path id="Path_1258278" data-name="Path 1258278" d="M126.368,429.763h1.954v1.954h-1.954Z" transform="translate(-126.368 -429.763)" fill="#fff"/>
        <path id="Path_1258279" data-name="Path 1258279" d="M156.368,429.763h1.954v1.954h-1.954Z" transform="translate(-152.46 -429.763)" fill="#fff"/>
      </g>
      <g id="Group_1204253" data-name="Group 1204253" transform="translate(0 0.095)">
        <path id="Path_1258280" data-name="Path 1258280" d="M207.343,176H209.3v5.588h-1.954Z" transform="translate(-180.332 -153.087)"/>
        <path id="Path_1258281" data-name="Path 1258281" d="M288.343,176H290.3v5.588h-1.954Z" transform="translate(-250.78 -153.087)"/>
        <path id="Path_1258282" data-name="Path 1258282" d="M65.5,44.793a3.59,3.59,0,0,0-3.909-4.379,4.9,4.9,0,0,0-7.561.9l-.765,1.224a22.441,22.441,0,0,0-3.07-4.524L48.724,39.3a20.459,20.459,0,0,1,3.314,5.2l-.166.266c-3-.406-6.132,2.562-8.578,5.123v-15a20.54,20.54,0,0,1,4.129,3.055l1.349-1.414a22.451,22.451,0,0,0-5.477-3.851V32.41a11.351,11.351,0,0,0,1.333-4.56c.01-.035.027-8.828.032-8.866H50.88a4.4,4.4,0,0,0,4.307-5.04l-9.38-2.71L44.048,3.848A4.87,4.87,0,0,0,39.3.1H31.2V2.049h8.1A2.922,2.922,0,0,1,42.147,4.3l.518,2.177h-18.8L24.38,4.3a2.922,2.922,0,0,1,2.852-2.252h2.01V.1h-2.01a4.87,4.87,0,0,0-4.753,3.753l-1.758,7.386-9.38,2.71v.735a4.326,4.326,0,0,0,4.307,4.305h6.221l.029,8.8,0,.069a11.35,11.35,0,0,0,1.333,4.56v.267a22.566,22.566,0,0,0-9.505,9,16.173,16.173,0,0,0-2.5-1.014c-.9,2.191-1.477,6.149.155,9.21a11.781,11.781,0,0,1-3.4-4.114,4.3,4.3,0,0,0-4.3-2.142A3,3,0,0,1,6.02,40.909l-.653-1.842C2.262,40.23,1.6,42.318,1.752,44.4A4.287,4.287,0,0,0,.084,48.687C.673,51.6,2.16,56.66,5.739,60.423A4.241,4.241,0,0,0,2.8,64.453V66.6H4.755V64.453a2.282,2.282,0,0,1,2.28-2.28H59.492a2.282,2.282,0,0,1,2.28,2.28V66.6h1.954V64.453a4.239,4.239,0,0,0-4.234-4.234H56.134c2.124-1.911,4-3.935,3.943-6.26L63.752,52.2a4.9,4.9,0,0,0,1.75-7.411Zm-2.269-1.908a1.737,1.737,0,0,1,.129,2.067l-5.2,4.641a15.428,15.428,0,0,0-2.169-2.43l5.2-4.645A1.733,1.733,0,0,1,63.233,42.886Zm-7.544-.535a2.949,2.949,0,0,1,3.9-1.015l-5.138,4.586c-.231-.159-.471-.31-.716-.448Zm-12.789,14a6.164,6.164,0,0,1-1.363,3.872H27.23a6.3,6.3,0,0,0,.544-2.808l2.875-2.784,3.229,3.126,3.229-3.126,3.23,3.127,2.482-2.4a6.236,6.236,0,0,1,.081,1ZM19,51.3c-1.515-3.193.169-7.608,1.032-9.223,1.919.844,6.257,3.623,6.614,7.419a8.177,8.177,0,0,0-2.371,2.329c-1.7-.928-3.371-.788-5.275-.525Zm6.185-16.265a11.239,11.239,0,0,0,1.954,1.576v8.805a12.08,12.08,0,0,0-1.954-2.259ZM41.34,49.653a8.176,8.176,0,0,0-1.954-.993V36.611a11.239,11.239,0,0,0,1.954-1.576Zm-3.908-1.415c-.491-.055-1.91-.025-2.424-.032V44.818H33.054v3.387a17.061,17.061,0,0,0-3.959.235V37.608a11.472,11.472,0,0,0,8.337,0ZM26.671,51.972a6.147,6.147,0,0,1,4.375-1.812h5.665a6.208,6.208,0,0,1,5.4,3.159l-1.771,1.715-3.229-3.126-3.229,3.126-3.23-3.127-3.228,3.126-.367-.355a6.755,6.755,0,0,0-1.207-1.686,6.193,6.193,0,0,1,.824-1.02ZM43.131,8.433l.62,2.605H22.776l.62-2.605ZM13.984,16.342a2.343,2.343,0,0,1-.583-.959l8.276-2.391H44.849l8.276,2.391A2.356,2.356,0,0,1,50.88,17.03H15.647A2.336,2.336,0,0,1,13.984,16.342ZM42.7,18.985l-.029,8.755a9.442,9.442,0,0,1-18.825,0l-.029-8.755Zm-23.949,19.3a20.5,20.5,0,0,1,4.477-3.394v6.751A16.474,16.474,0,0,0,19.2,39.625a16.634,16.634,0,0,0-2.078,4.443,11.23,11.23,0,0,0-1.7-1.4,20.5,20.5,0,0,1,3.341-4.386Zm-6.262,4.966A9.72,9.72,0,0,1,16.56,46.5a10.434,10.434,0,0,0,.383,4.9,13.671,13.671,0,0,1-1.855-.123C11.86,48.863,12.133,45.059,12.493,43.248Zm-.27,9.281c2.167.877,4.745,1.048,8.356.556a4.577,4.577,0,0,1,4.416,7.135H8.381a17.839,17.839,0,0,1-4.938-7.094l1.181.613,1.115-2.564,2.482,1.288.859-1.975a9.9,9.9,0,0,0,3.143,2.043ZM6.269,46.709a18.475,18.475,0,0,0,1.383,2.159l-.389.895L4.781,48.475,3.666,51.039l-1.144-.593C2.3,49.651,2.125,48.922,2,48.3a2.309,2.309,0,0,1,4.271-1.59Zm51.852,7.621c-.161,1.425-1.931,3.492-4.88,5.716l-4.618-4.367L47.281,57.1l3.3,3.12H43.874a8.17,8.17,0,0,0-.1-7.926,32.218,32.218,0,0,1,3.088-3.168l3.929,3.547,1.31-1.45-3.687-3.329a5.571,5.571,0,0,1,2.871-1.223c2.291-.027,7.124,5.388,6.839,7.66Zm6.4-5.956a2.9,2.9,0,0,1-1.611,2.066l-3.324,1.587c-.11-.259-.232-.513-.364-.761l5.138-4.586a2.91,2.91,0,0,1,.161,1.694Z" transform="translate(0 -0.095)"/>
      </g>
    </g>
  </g>
</svg>
