<svg xmlns="http://www.w3.org/2000/svg" width="190" height="217" viewBox="0 0 190 217">
  <g id="Group_1204316" data-name="Group 1204316" transform="translate(-180.371 -536)">
    <rect id="Rectangle_411612" data-name="Rectangle 411612" width="190" height="217" rx="10" transform="translate(180.371 536)" fill="#d9e8f9"/>
    <g id="Group_1204305" data-name="Group 1204305" transform="translate(205.371 574.589)">
      <g id="Group_1204303" data-name="Group 1204303" transform="translate(2.044 2.46)">
        <path id="Path_1258416" data-name="Path 1258416" d="M128.868,132.557H105.976a13.61,13.61,0,0,1-13.61-13.61v-36.5h50.112v36.5A13.61,13.61,0,0,1,128.868,132.557Z" transform="translate(-69.236 -62.135)" fill="#ffb09e"/>
        <path id="Path_1258417" data-name="Path 1258417" d="M213.9,82.445v36.5a13.61,13.61,0,0,1-13.61,13.61h7.087a13.61,13.61,0,0,0,13.61-13.61v-36.5Z" transform="translate(-147.746 -62.135)" fill="#ffa78f"/>
        <path id="Path_1258418" data-name="Path 1258418" d="M152.054,266.308H169.63v14.813H152.054Z" transform="translate(-112.656 -195.886)" fill="#ffa78f"/>
        <path id="Path_1258419" data-name="Path 1258419" d="M190.538,266.308h7.087v14.813h-7.087Z" transform="translate(-140.651 -195.886)" fill="#f89580"/>
        <path id="Path_1258420" data-name="Path 1258420" d="M135.707,370.65l-29.913-7.182L77.483,370.65V320.657h58.224Z" transform="translate(-58.409 -235.422)" fill="#99e6fc"/>
        <path id="Path_1258421" data-name="Path 1258421" d="M272.2,320.656V370.65l-7.086-1.7V320.656Z" transform="translate(-194.898 -235.421)" fill="#62dbfb"/>
        <path id="Path_1258422" data-name="Path 1258422" d="M77.483,417.191h58.224v23.683H77.483Z" transform="translate(-58.409 -305.646)" fill="#6c7fd8"/>
        <g id="Group_1204301" data-name="Group 1204301" transform="translate(30.37 85.235)">
          <path id="Path_1258423" data-name="Path 1258423" d="M265.11,417.186H272.2v23.685H265.11Z" transform="translate(-225.269 -390.877)" fill="#4f66d0"/>
          <path id="Path_1258424" data-name="Path 1258424" d="M127.958,320.657H118.93v31.114a4.514,4.514,0,0,0,9.028,0Z" transform="translate(-118.93 -320.657)" fill="#4f66d0"/>
          <path id="Path_1258425" data-name="Path 1258425" d="M225.568,320.657H216.54v31.114a4.514,4.514,0,0,0,9.028,0V320.657Z" transform="translate(-189.936 -320.657)" fill="#4f66d0"/>
        </g>
        <path id="Path_1258426" data-name="Path 1258426" d="M7.5,370.65H26.574V320.657A19.074,19.074,0,0,0,7.5,339.731Z" transform="translate(-7.5 -235.422)" fill="#99e6fc"/>
        <path id="Path_1258427" data-name="Path 1258427" d="M291.111,346.967l11,23.683h22.149l-17.348-39.164a16.944,16.944,0,0,0-15.8-10.829Z" transform="translate(-213.813 -235.422)" fill="#99e6fc"/>
        <path id="Path_1258428" data-name="Path 1258428" d="M306.914,331.488a16.944,16.944,0,0,0-15.8-10.83v1.556a16.937,16.937,0,0,1,8.716,9.274l17.348,39.164h7.087Z" transform="translate(-213.813 -235.423)" fill="#62dbfb"/>
        <path id="Path_1258429" data-name="Path 1258429" d="M66.2,173.41H63.488a7.1,7.1,0,1,1,0-14.19H66.2Z" transform="translate(-43.067 -117.985)" fill="#ffb09e"/>
        <path id="Path_1258430" data-name="Path 1258430" d="M133.841,171.142s-4.467-4.827-16.418-4.827S101,171.142,101,171.142l-8.638-11.921V179.77a12.275,12.275,0,0,0,12.275,12.275H130.2a12.275,12.275,0,0,0,12.275-12.275V159.221Z" transform="translate(-69.236 -117.985)" fill="#b98080"/>
        <path id="Path_1258431" data-name="Path 1258431" d="M224.552,159.216v20.55a12.273,12.273,0,0,1-12.276,12.273H205.19a12.275,12.275,0,0,0,12.276-12.273V169Z" transform="translate(-151.31 -117.982)" fill="#ae6c6c"/>
        <path id="Path_1258432" data-name="Path 1258432" d="M76.23,49.164,87.417,33.279a20.323,20.323,0,0,0,21.043,0,14.357,14.357,0,0,0,17.882,0v7.942l9.193-8.78A14.225,14.225,0,0,0,125.71,7.929H82.519a6.289,6.289,0,0,0-6.289,6.289,6.046,6.046,0,0,0-6.045,6.045V31.487a27.793,27.793,0,0,0,4.148,14.607Z" transform="translate(-53.099 -7.928)" fill="#b98080"/>
        <path id="Path_1258433" data-name="Path 1258433" d="M269.221,22.15a14.229,14.229,0,0,1-4.4,10.289l-9.193,8.779V34.451l2.107-2.011A14.227,14.227,0,0,0,247.91,7.926H255A14.223,14.223,0,0,1,269.221,22.15Z" transform="translate(-182.386 -7.926)" fill="#ae6c6c"/>
        <path id="Path_1258434" data-name="Path 1258434" d="M372.978,349.37l5.356-40.709-4.355-7.023-1.222-5.425a3.943,3.943,0,0,1,7.147-3.023l3.384,5.179L404.25,291.6a3.322,3.322,0,0,1,4.218,4.062l-2.04,7.241a8.122,8.122,0,0,1-4.594,5.252l-7.664,3.351-1.192,37.864h-20Z" transform="translate(-273.135 -214.142)" fill="#ffb09e"/>
        <g id="Group_1204302" data-name="Group 1204302" transform="translate(112.756 77.312)">
          <path id="Path_1258435" data-name="Path 1258435" d="M442.891,292.5a3.4,3.4,0,0,0-3.409-.74l-3.368,1.088a3.359,3.359,0,0,1,.241.346,3.322,3.322,0,0,1,.344,2.6l-2.04,7.241a8.122,8.122,0,0,1-4.594,5.252l-5.547,2.425a3.657,3.657,0,0,0-2.19,3.235L421.208,349.5h7.087l1.192-37.864,7.664-3.351a8.122,8.122,0,0,0,4.594-5.252l2.04-7.241A3.326,3.326,0,0,0,442.891,292.5Z" transform="translate(-421.208 -291.588)" fill="#ffa78f"/>
        </g>
        <path id="Path_1258436" data-name="Path 1258436" d="M335.363,82.445H279.31a3.081,3.081,0,0,0-3.081,3.081V97.593l4.711,43.093a7.5,7.5,0,0,0,7.454,6.683h37.885a7.5,7.5,0,0,0,7.454-6.683l4.711-43.093V85.526A3.082,3.082,0,0,0,335.363,82.445Z" transform="translate(-202.987 -62.135)" fill="#fcd18a"/>
        <path id="Path_1258437" data-name="Path 1258437" d="M444.9,82.445H435.9a3.081,3.081,0,0,1,3.081,3.081V97.593l-4.711,43.093a7.5,7.5,0,0,1-7.454,6.683h9.009a7.5,7.5,0,0,0,7.454-6.683l4.711-43.093V85.526A3.082,3.082,0,0,0,444.9,82.445Z" transform="translate(-312.528 -62.135)" fill="#fbc56d"/>
        <path id="Path_1258438" data-name="Path 1258438" d="M391.753,465.743H371.148a2.859,2.859,0,0,1-2.859-2.859v-8.647a2.859,2.859,0,0,1,2.859-2.859h20.605a2.859,2.859,0,0,1,2.859,2.859v8.647A2.859,2.859,0,0,1,391.753,465.743Z" transform="translate(-269.956 -330.515)" fill="#c8effe"/>
        <path id="Path_1258439" data-name="Path 1258439" d="M435.465,451.378h-7.087a2.859,2.859,0,0,1,2.859,2.859v8.647a2.859,2.859,0,0,1-2.859,2.859h7.087a2.859,2.859,0,0,0,2.859-2.859v-8.647A2.859,2.859,0,0,0,435.465,451.378Z" transform="translate(-313.668 -330.515)" fill="#99e6fc"/>
        <path id="Path_1258440" data-name="Path 1258440" d="M293.945,38.778h26.564V37.084a7.151,7.151,0,0,0-7.151-7.151v-.985a6.531,6.531,0,0,0-12.248-3.155Z" transform="translate(-215.874 -18.468)" fill="#80d261"/>
        <path id="Path_1258441" data-name="Path 1258441" d="M391.409,38.778h26.564V37.084a7.151,7.151,0,0,0-7.151-7.151v-.985a6.531,6.531,0,0,0-12.248-3.155Z" transform="translate(-286.774 -18.468)" fill="#80d261"/>
        <path id="Path_1258442" data-name="Path 1258442" d="M338.291,29.934v-.985a6.526,6.526,0,0,0-10.072-5.483,6.523,6.523,0,0,1,2.985,5.483v.985a7.151,7.151,0,0,1,7.151,7.151v1.694h7.087V37.084a7.151,7.151,0,0,0-7.151-7.151Z" transform="translate(-240.807 -18.468)" fill="#68ca44"/>
        <path id="Path_1258443" data-name="Path 1258443" d="M435.755,29.934v-.985a6.526,6.526,0,0,0-10.072-5.483,6.523,6.523,0,0,1,2.985,5.483v.985a7.151,7.151,0,0,1,7.151,7.151v1.694h7.087V37.084a7.151,7.151,0,0,0-7.151-7.151Z" transform="translate(-311.707 -18.468)" fill="#68ca44"/>
      </g>
      <g id="Group_1204304" data-name="Group 1204304" transform="translate(0 0.412)">
        <path id="Path_1258444" data-name="Path 1258444" d="M158.784,212.348a12.2,12.2,0,0,0,6.095,1.519,14.859,14.859,0,0,0,6.176-1.39,2.044,2.044,0,0,0-1.688-3.724c-4.826,2.189-8.255.223-8.429.119a2.044,2.044,0,0,0-2.153,3.475Z" transform="translate(-114.809 -151.836)"/>
        <path id="Path_1258445" data-name="Path 1258445" d="M167.894,465.62H154.776a2.044,2.044,0,1,0,0,4.088h13.118a2.044,2.044,0,0,0,0-4.088Z" transform="translate(-111.105 -338.827)"/>
        <path id="Path_1258446" data-name="Path 1258446" d="M132.533,77.973c-1.234.2-1.8,1.526-1.774,2.816a5.447,5.447,0,0,1-5.422,4.862h-7.954l2.483-45.689h15.357l-3.289,30.083a2.044,2.044,0,0,0,4.064.444l3.537-32.349c0-.038,0-.051.012-.222V25.851a5.13,5.13,0,0,0-4.265-5.047,9.211,9.211,0,0,0-7.186-8.7,8.575,8.575,0,0,0-16.042-3.3l-4.4,7.978a9.228,9.228,0,0,0-6.12-4.675,8.572,8.572,0,0,0-14.19-5.6A16.547,16.547,0,0,0,74.654.416H31.463a8.347,8.347,0,0,0-8.128,6.5,8.1,8.1,0,0,0-6.251,7.88V26.016A29.828,29.828,0,0,0,21.536,41.7a9.152,9.152,0,0,0-8.21,9.092,9.268,9.268,0,0,0,9.8,9.139v4.314A14.335,14.335,0,0,0,37.449,78.563H39.4v7.088H21.118A21.142,21.142,0,0,0,0,106.769v30.919a2.044,2.044,0,1,0,4.088,0V106.769A17.055,17.055,0,0,1,19.074,89.861v47.827a2.045,2.045,0,0,0,4.089,0v-21.64H30.37v2.761a6.558,6.558,0,0,0,13.116,0v-2.761H56.974v2.761a6.558,6.558,0,0,0,13.116,0v-2.761H77.3v21.64a2.044,2.044,0,1,0,4.089,0V123.256l7.1,15.293a2.044,2.044,0,1,0,3.708-1.723L81.386,113.553V89.882a15.006,15.006,0,0,1,11.851,9.381c.012.03.024.061.038.091l8.938,20.176-.253,1.923a4.907,4.907,0,0,0-3.627,4.729v8.647a4.909,4.909,0,0,0,4.9,4.9h20.605a4.909,4.909,0,0,0,4.9-4.9v-8.647a4.908,4.908,0,0,0-4.3-4.862l.633-20.141,6.472-2.829a10.122,10.122,0,0,0,5.752-6.575l2.038-7.237a5.723,5.723,0,0,0-.553-4.2,5.332,5.332,0,0,0-6.256-2.361Zm-19.245,7.677H100.56L98.076,39.962h17.695Zm-33.945,0H61.062V78.563h1.949A14.341,14.341,0,0,0,76.6,68.748l1.365,12.486a9.523,9.523,0,0,0,1.655,4.422c-.093,0-.186-.005-.279-.005ZM50.23,42.5a2.044,2.044,0,0,0-2.044,2.044v4.254c-7.243.338-11.678,2.424-13.958,3.913l-6.542-9.029L36.969,30.5a22.229,22.229,0,0,0,20.286-.277,17.788,17.788,0,0,0,4.968,2.232,15.659,15.659,0,0,0,11.02-1.02v6.487s0,0,0,0v5.111l-7.01,9.675c-2.28-1.489-6.715-3.575-13.958-3.913V44.54A2.044,2.044,0,0,0,50.23,42.5Zm31.8,38.293L77.566,39.962H93.982l2.483,45.689H87.451A5.446,5.446,0,0,1,82.03,80.789Zm53.428-44.915H77.331V25.851a1.038,1.038,0,0,1,1.037-1.037H134.42a1.038,1.038,0,0,1,1.037,1.037Zm-19.824-25.1a4.486,4.486,0,0,1,8.414,2.168v.985a2.044,2.044,0,0,0,2.044,2.044,5.113,5.113,0,0,1,5.095,4.757H110.141ZM93,8.454a4.492,4.492,0,0,1,4.486,4.486v.985a2.044,2.044,0,0,0,2.044,2.044,5.113,5.113,0,0,1,5.095,4.757H83.577l5.492-9.953A4.488,4.488,0,0,1,93,8.454ZM21.172,14.8a4,4,0,0,1,4-4A2.044,2.044,0,0,0,27.22,8.75,4.25,4.25,0,0,1,31.463,4.5H74.654A12.249,12.249,0,0,1,84.829,10l-5.921,10.73a5.365,5.365,0,0,0-5.666,6.019,12.235,12.235,0,0,1-14.509-.488,2.043,2.043,0,0,0-2.352-.217,18.162,18.162,0,0,1-18.862.086,2.044,2.044,0,0,0-2.83.507l-9.4,13.355a26.31,26.31,0,0,1-4.114-13.971Zm1.293,41.046a5.057,5.057,0,0,1-5.051-5.051A5.229,5.229,0,0,1,23.13,45.74v10.1Zm4.754,8.4V50l4.938,6.814a2.027,2.027,0,0,0,3.139.207c6.08-5.843,24.829-5.169,29.867,0a2.044,2.044,0,0,0,3.141-.205L73.242,50V64.244a10.242,10.242,0,0,1-10.231,10.23H37.449a10.242,10.242,0,0,1-10.23-10.23ZM56.974,78.563V85.65H43.485V78.563ZM36.928,121.279a2.473,2.473,0,0,1-2.47-2.47V97.294a2.044,2.044,0,1,0-4.088,0V111.96H23.162V89.739H39.4v29.07a2.473,2.473,0,0,1-2.47,2.47Zm6.558-9.319V89.739H56.974v22.22ZM66,118.809a2.47,2.47,0,1,1-4.94,0V89.739H66v29.07Zm4.088-6.849V89.739H77.3v22.22ZM97.033,97.741a18.93,18.93,0,0,0-5.962-8h9.673c-.268.673,4.09,7.09,4.378,7.7l-1.884,14.313Zm27.624,37.088a.816.816,0,0,1-.815.815H103.236a.816.816,0,0,1-.815-.815v-8.647a.816.816,0,0,1,.815-.815h20.605a.816.816,0,0,1,.815.815Zm10.752-51.4-2.039,7.242a6.054,6.054,0,0,1-3.446,3.933l-7.664,3.35a2.044,2.044,0,0,0-1.224,1.809l-.676,21.52H106.107l3.163-24.035a2.043,2.043,0,0,0-.289-1.344l-3.822-6.161h20.178a9.527,9.527,0,0,0,9.382-7.815C135.026,82.275,135.5,82.069,135.408,83.426Z" transform="translate(0 -0.412)"/>
        <circle id="Ellipse_12794" data-name="Ellipse 12794" cx="2.044" cy="2.044" r="2.044" transform="translate(84.013 43.649)"/>
        <circle id="Ellipse_12795" data-name="Ellipse 12795" cx="2.044" cy="2.044" r="2.044" transform="matrix(0.987, -0.16, 0.16, 0.987, 86.836, 77.041)"/>
        <path id="Path_1258447" data-name="Path 1258447" d="M450.444,281.756a2.042,2.042,0,0,0-.436,3.99,1.948,1.948,0,0,0,.594.09,2.044,2.044,0,1,0,0-4.088A1.523,1.523,0,0,0,450.444,281.756Z" transform="translate(-326.303 -205.07)"/>
        <path id="Path_1258448" data-name="Path 1258448" d="M460.316,164.581a2.042,2.042,0,0,0,.417-3.8,2.006,2.006,0,0,0-.921-.221,2.044,2.044,0,1,0,0,4.088A1.923,1.923,0,0,0,460.316,164.581Z" transform="translate(-333.003 -116.91)"/>
      </g>
    </g>
  </g>
</svg>
