<svg xmlns="http://www.w3.org/2000/svg" width="104" height="104" viewBox="0 0 104 104">
  <g id="Group_1204167" data-name="Group 1204167" transform="translate(-788.051 -2601.164)">
    <g id="Group_1201005" data-name="Group 1201005" transform="translate(788.051 2610.842)">
      <rect id="Rectangle_410589" data-name="Rectangle 410589" width="103.576" height="34.525" rx="8" transform="translate(0 26.598)" fill="#ffc94a"/>
      <g id="Group_1204170" data-name="Group 1204170" transform="translate(13 3.322)">
        <path id="Path_1258128" data-name="Path 1258128" d="M383.951,207.653h-16.92a2.312,2.312,0,0,1-2.312-2.312V188.421a2.312,2.312,0,0,1,2.312-2.312h16.92a2.312,2.312,0,0,1,2.312,2.312v16.92A2.312,2.312,0,0,1,383.951,207.653Z" transform="translate(-308.505 -157.424)" fill="#01c0fa"/>
        <path id="Path_1258129" data-name="Path 1258129" d="M205.341,386.263H188.421a2.312,2.312,0,0,1-2.312-2.312v-16.92a2.312,2.312,0,0,1,2.312-2.312h16.92a2.312,2.312,0,0,1,2.312,2.312v16.92A2.312,2.312,0,0,1,205.341,386.263Z" transform="translate(-157.424 -308.505)" fill="#ffc344"/>
        <path id="Path_1258130" data-name="Path 1258130" d="M205.341,29.044H188.421a2.312,2.312,0,0,1-2.312-2.312V9.812A2.312,2.312,0,0,1,188.421,7.5h16.92a2.312,2.312,0,0,1,2.312,2.312v16.92A2.312,2.312,0,0,1,205.341,29.044Z" transform="translate(-157.424 -6.344)" fill="#80d261"/>
        <path id="Path_1258131" data-name="Path 1258131" d="M26.732,207.653H9.812A2.312,2.312,0,0,1,7.5,205.341V188.421a2.312,2.312,0,0,1,2.312-2.312h16.92a2.312,2.312,0,0,1,2.312,2.312v16.92A2.312,2.312,0,0,1,26.732,207.653Z" transform="translate(-6.344 -157.424)" fill="#fd6930"/>
        <path id="Path_1258132" data-name="Path 1258132" d="M383.951,186.109H380.1v13.7a4.763,4.763,0,0,1-4.763,4.763H364.719v.771a2.312,2.312,0,0,0,2.312,2.312h16.92a2.312,2.312,0,0,0,2.312-2.312v-16.92A2.312,2.312,0,0,0,383.951,186.109Z" transform="translate(-308.505 -157.424)" fill="#08a9f1"/>
        <path id="Path_1258133" data-name="Path 1258133" d="M205.341,364.719h-3.853v13.7a4.763,4.763,0,0,1-4.764,4.763H186.109v.771a2.312,2.312,0,0,0,2.312,2.312h16.92a2.312,2.312,0,0,0,2.312-2.312v-16.92A2.312,2.312,0,0,0,205.341,364.719Z" transform="translate(-157.424 -308.505)" fill="#feb237"/>
        <path id="Path_1258134" data-name="Path 1258134" d="M205.341,7.5h-3.853V21.2a4.763,4.763,0,0,1-4.764,4.764H186.109v.771a2.312,2.312,0,0,0,2.312,2.312h16.92a2.312,2.312,0,0,0,2.312-2.312V9.812A2.312,2.312,0,0,0,205.341,7.5Z" transform="translate(-157.424 -6.344)" fill="#68ca44"/>
        <path id="Path_1258135" data-name="Path 1258135" d="M26.732,186.109H22.879v13.7a4.763,4.763,0,0,1-4.764,4.763H7.5v.771a2.312,2.312,0,0,0,2.312,2.312h16.92a2.312,2.312,0,0,0,2.312-2.312v-16.92A2.312,2.312,0,0,0,26.732,186.109Z" transform="translate(-6.344 -157.424)" fill="#fd5426"/>
        <g id="Group_1204170-2" data-name="Group 1204170" transform="translate(7.713 7.713)">
          <path id="Path_1258136" data-name="Path 1258136" d="M345.218,63.338l-.211,3.274-.26,4.043a.386.386,0,0,1-.556.321l-3.135-1.551-3.437-1.7a.386.386,0,0,1-.023-.68l1.6-.926A28.822,28.822,0,0,0,325.892,55.15V50.044a33.6,33.6,0,0,1,17.46,13.679l1.29-.744A.385.385,0,0,1,345.218,63.338Z" transform="translate(-283.376 -50.044)" fill="#0055a3"/>
          <path id="Path_1258137" data-name="Path 1258137" d="M333.572,345.218l-3.274-.211-4.043-.26a.386.386,0,0,1-.321-.556l1.551-3.135,1.7-3.437a.386.386,0,0,1,.68-.023l.926,1.6a28.822,28.822,0,0,0,10.969-13.307h5.106a33.606,33.606,0,0,1-13.679,17.46l.744,1.29A.385.385,0,0,1,333.572,345.218Z" transform="translate(-283.378 -283.376)" fill="#0055a3"/>
          <path id="Path_1258138" data-name="Path 1258138" d="M60.713,333.572l.211-3.274.26-4.043a.386.386,0,0,1,.556-.321l3.135,1.551,3.437,1.7a.386.386,0,0,1,.023.68l-1.6.926a28.822,28.822,0,0,0,13.307,10.969v5.106a33.606,33.606,0,0,1-17.46-13.679l-1.29.744A.385.385,0,0,1,60.713,333.572Z" transform="translate(-59.068 -283.378)" fill="#0055a3"/>
          <path id="Path_1258139" data-name="Path 1258139" d="M63.338,60.713l3.274.211,4.043.26a.386.386,0,0,1,.321.556l-1.551,3.135-1.7,3.437a.386.386,0,0,1-.68.023l-.926-1.6A28.822,28.822,0,0,0,55.15,80.039H50.044A33.606,33.606,0,0,1,63.723,62.58l-.744-1.29A.385.385,0,0,1,63.338,60.713Z" transform="translate(-50.044 -59.068)" fill="#0055a3"/>
        </g>
        <path id="Path_1258140" data-name="Path 1258140" d="M202.28,192.154v-3.683l-2.289-1.144a10.053,10.053,0,0,0-.724-1.747l.809-2.428-2.6-2.6-2.428.809a10.051,10.051,0,0,0-1.747-.724l-1.144-2.289H188.47l-1.144,2.289a10.068,10.068,0,0,0-1.747.724l-2.428-.809-2.6,2.6.809,2.428a10.068,10.068,0,0,0-.724,1.747l-2.289,1.144v3.683l2.289,1.144a10.063,10.063,0,0,0,.724,1.747l-.809,2.428,2.6,2.6,2.428-.809a10.065,10.065,0,0,0,1.747.724l1.144,2.289h3.683l1.144-2.289a10.058,10.058,0,0,0,1.747-.724l2.428.809,2.6-2.6-.809-2.428a10.07,10.07,0,0,0,.724-1.747ZM190.311,195.1a4.788,4.788,0,1,1,4.788-4.788A4.788,4.788,0,0,1,190.311,195.1Z" transform="translate(-150.854 -150.856)" fill="#b2caec"/>
        <path id="Path_1258141" data-name="Path 1258141" d="M418.678,220.988a3.55,3.55,0,1,0-7.1,0,1.156,1.156,0,1,0,2.312,0,1.238,1.238,0,1,1,2.476,0,1.226,1.226,0,0,1-.246.741l-4.31,5.747a1.156,1.156,0,0,0,.925,1.85h4.788a1.156,1.156,0,1,0,0-2.312h-2.476l2.923-3.9A3.52,3.52,0,0,0,418.678,220.988Z" transform="translate(-348.142 -183.925)"/>
        <path id="Path_1258142" data-name="Path 1258142" d="M75.446,27.529H70.294l.416-6.447A1.541,1.541,0,0,0,68.4,19.646l-.35.2A34.865,34.865,0,0,0,51.385,6.9V3.468A3.472,3.472,0,0,0,47.917,0H31a3.472,3.472,0,0,0-3.468,3.468V8.62L21.082,8.2a1.541,1.541,0,0,0-1.435,2.308l.2.35A34.864,34.864,0,0,0,6.9,27.529H3.468A3.472,3.472,0,0,0,0,31v16.92a3.472,3.472,0,0,0,3.468,3.468H8.62L8.2,57.832a1.541,1.541,0,0,0,2.308,1.435l.35-.2a35.077,35.077,0,0,0,9.982,9.646,1.156,1.156,0,1,0,1.243-1.949A32.723,32.723,0,0,1,12.2,56.9a1.156,1.156,0,0,0-1.551-.377l-.042.025.3-4.727,4.247,2.1-.357.206a1.156,1.156,0,0,0-.39,1.632,29.794,29.794,0,0,0,13.12,11.106v2.682q-.395-.157-.784-.323a1.156,1.156,0,1,0-.909,2.126c.556.238,1.123.463,1.693.672v3.427A3.472,3.472,0,0,0,31,78.914h16.92a3.472,3.472,0,0,0,3.468-3.468V70.293l6.447.416q.051,0,.1,0A1.541,1.541,0,0,0,59.268,68.4l-.2-.35A34.864,34.864,0,0,0,72.019,51.385h3.428a3.472,3.472,0,0,0,3.468-3.468V31a3.472,3.472,0,0,0-3.468-3.468Zm-8.73-5.513a1.156,1.156,0,0,0,1.551.377l.042-.025L68,27.1,63.758,25l.357-.206a1.156,1.156,0,0,0,.39-1.632,29.794,29.794,0,0,0-13.12-11.106V9.37A32.552,32.552,0,0,1,66.716,22.016ZM22.016,12.2a1.156,1.156,0,0,0,.377-1.551l-.025-.042,4.727.3L25,15.156,24.79,14.8a1.156,1.156,0,0,0-1.632-.39,29.794,29.794,0,0,0-11.106,13.12H9.37A32.552,32.552,0,0,1,22.016,12.2ZM2.312,47.917V31a1.157,1.157,0,0,1,1.156-1.156h16.92A1.157,1.157,0,0,1,21.544,31v16.92a1.157,1.157,0,0,1-1.156,1.156H3.468A1.157,1.157,0,0,1,2.312,47.917ZM49.073,75.446A1.157,1.157,0,0,1,47.917,76.6H31a1.157,1.157,0,0,1-1.156-1.156V58.526A1.157,1.157,0,0,1,31,57.37h16.92a1.157,1.157,0,0,1,1.156,1.156v16.92Zm7.825-8.73a1.156,1.156,0,0,0-.377,1.551l.025.042L51.818,68l2.1-4.247.206.357a1.156,1.156,0,0,0,1.632.39,29.794,29.794,0,0,0,11.106-13.12h2.681A32.552,32.552,0,0,1,56.9,66.716Zm19.7-18.8a1.157,1.157,0,0,1-1.156,1.156H58.526a1.157,1.157,0,0,1-1.156-1.156v-6a1.156,1.156,0,0,0-2.312,0v6a3.472,3.472,0,0,0,3.468,3.468h5.8A27.459,27.459,0,0,1,55.5,61.879l-.3-.525a1.542,1.542,0,0,0-2.717.09l-1.1,2.22V58.526a3.472,3.472,0,0,0-3.468-3.468H31a3.472,3.472,0,0,0-3.468,3.468v5.8A27.459,27.459,0,0,1,17.035,55.5l.525-.3a1.542,1.542,0,0,0-.09-2.717l-2.22-1.1h5.138a3.472,3.472,0,0,0,3.468-3.468V31a3.472,3.472,0,0,0-3.468-3.468h-5.8a27.459,27.459,0,0,1,8.818-10.494l.3.525a1.542,1.542,0,0,0,2.717-.09l1.1-2.22v5.138A3.472,3.472,0,0,0,31,23.856h1.6a1.156,1.156,0,1,0,0-2.312H31a1.157,1.157,0,0,1-1.156-1.156V3.468A1.157,1.157,0,0,1,31,2.312h16.92a1.157,1.157,0,0,1,1.156,1.156v16.92a1.157,1.157,0,0,1-1.156,1.156H37.989a1.156,1.156,0,0,0,0,2.312h9.928a3.472,3.472,0,0,0,3.468-3.468v-5.8a27.459,27.459,0,0,1,10.494,8.818l-.525.3a1.542,1.542,0,0,0,.09,2.717l2.22,1.1H58.526A3.472,3.472,0,0,0,55.058,31v5.531a1.156,1.156,0,0,0,2.312,0V31a1.157,1.157,0,0,1,1.156-1.156h16.92A1.157,1.157,0,0,1,76.6,31Z"/>
        <path id="Path_1258143" data-name="Path 1258143" d="M236.519,396.047a3.554,3.554,0,0,0-3.55,3.55,1.156,1.156,0,0,0,2.312,0,1.238,1.238,0,1,1,1.238,1.238,1.156,1.156,0,0,0,0,2.312,1.238,1.238,0,1,1-1.238,1.238,1.156,1.156,0,0,0-2.312,0,3.55,3.55,0,1,0,6.169-2.394,3.548,3.548,0,0,0-2.619-5.944Z" transform="translate(-197.062 -335.005)"/>
        <path id="Path_1258144" data-name="Path 1258144" d="M234.125,48.4a1.156,1.156,0,0,0,0,2.312h4.788a1.156,1.156,0,0,0,0-2.312h-1.238V39.984a1.156,1.156,0,1,0-2.312,0,1.239,1.239,0,0,1-1.238,1.238,1.156,1.156,0,0,0,0,2.312,3.536,3.536,0,0,0,1.238-.223V48.4Z" transform="translate(-197.062 -32.843)"/>
        <path id="Path_1258145" data-name="Path 1258145" d="M60.3,217.438a1.156,1.156,0,0,0-1.156,1.156v3.632H56.671v-3.632a1.156,1.156,0,0,0-2.312,0v4.788a1.156,1.156,0,0,0,1.156,1.156h3.632v3.632a1.156,1.156,0,0,0,2.312,0v-9.575A1.156,1.156,0,0,0,60.3,217.438Z" transform="translate(-45.981 -183.925)"/>
        <path id="Path_1258146" data-name="Path 1258146" d="M196.455,181.094l-1.861-.93q-.185-.517-.421-1.016l.658-1.974a1.156,1.156,0,0,0-.279-1.183l-2.6-2.6a1.157,1.157,0,0,0-1.183-.279l-1.974.658c-.332-.157-.671-.3-1.016-.421l-.93-1.861a1.156,1.156,0,0,0-1.034-.639h-3.683a1.156,1.156,0,0,0-1.034.639l-.93,1.861q-.517.185-1.016.421l-1.974-.658a1.156,1.156,0,0,0-1.183.279l-2.6,2.6a1.156,1.156,0,0,0-.279,1.183l.658,1.974c-.157.332-.3.671-.421,1.016l-1.861.93a1.156,1.156,0,0,0-.639,1.034v3.683a1.156,1.156,0,0,0,.639,1.034l1.861.93q.185.517.421,1.016l-.658,1.974a1.156,1.156,0,0,0,.279,1.183l2.6,2.6a1.157,1.157,0,0,0,1.183.279l1.974-.658c.332.157.671.3,1.016.421l.93,1.861a1.156,1.156,0,0,0,1.034.639h3.683a1.156,1.156,0,0,0,1.034-.639l.93-1.861q.517-.185,1.016-.421l1.974.658a1.158,1.158,0,0,0,1.183-.279l2.6-2.6a1.156,1.156,0,0,0,.279-1.183l-.658-1.974c.157-.332.3-.671.421-1.016l1.861-.93a1.156,1.156,0,0,0,.639-1.034v-3.683A1.156,1.156,0,0,0,196.455,181.094Zm-1.673,4-1.65.825a1.156,1.156,0,0,0-.588.694,8.935,8.935,0,0,1-.641,1.547,1.155,1.155,0,0,0-.075.906l.584,1.751-1.594,1.594-1.751-.584a1.157,1.157,0,0,0-.906.075,8.934,8.934,0,0,1-1.547.641,1.156,1.156,0,0,0-.694.588l-.825,1.65h-2.254l-.825-1.65a1.156,1.156,0,0,0-.694-.588,8.934,8.934,0,0,1-1.547-.641,1.156,1.156,0,0,0-.906-.075l-1.751.584-1.594-1.594.584-1.751a1.156,1.156,0,0,0-.075-.906,8.935,8.935,0,0,1-.641-1.547,1.156,1.156,0,0,0-.588-.694l-1.65-.825v-2.254l1.65-.825a1.156,1.156,0,0,0,.588-.694,8.935,8.935,0,0,1,.641-1.547,1.155,1.155,0,0,0,.075-.906l-.584-1.751,1.594-1.594,1.751.584a1.157,1.157,0,0,0,.906-.075,8.935,8.935,0,0,1,1.547-.641,1.156,1.156,0,0,0,.694-.588l.825-1.65H185.1l.825,1.65a1.156,1.156,0,0,0,.694.588,8.936,8.936,0,0,1,1.547.641,1.156,1.156,0,0,0,.906.075l1.751-.584,1.594,1.594-.584,1.751a1.156,1.156,0,0,0,.075.906,8.935,8.935,0,0,1,.641,1.547,1.156,1.156,0,0,0,.588.694l1.65.825Z" transform="translate(-144.512 -144.512)"/>
        <path id="Path_1258147" data-name="Path 1258147" d="M223.382,217.438a5.944,5.944,0,1,0,5.944,5.943A5.95,5.95,0,0,0,223.382,217.438Zm0,9.575a3.632,3.632,0,1,1,3.632-3.632A3.636,3.636,0,0,1,223.382,227.013Z" transform="translate(-183.925 -183.925)"/>
      </g>
    </g>
    <rect id="Rectangle_411620" data-name="Rectangle 411620" width="104" height="104" transform="translate(788.051 2601.164)" fill="none"/>
  </g>
</svg>
