<svg xmlns="http://www.w3.org/2000/svg" width="104" height="104" viewBox="0 0 104 104">
  <g id="Group_1204166" data-name="Group 1204166" transform="translate(-788.051 -2601.164)">
    <g id="Group_1201005" data-name="Group 1201005" transform="translate(788.051 2610.842)">
      <rect id="Rectangle_410589" data-name="Rectangle 410589" width="103.576" height="34.525" rx="8" transform="translate(0 26.598)" fill="#ffc94a"/>
      <g id="Group_1204169" data-name="Group 1204169" transform="translate(16.999 15.244)">
        <path id="Path_1258115" data-name="Path 1258115" d="M310.635,300.843l-.059-.009c-2.205-1.5-6.992-2.028-8.85-.171-1.934,1.933-1.178,6.931.33,9.13l.005.077,12.714,4.1Zm0,0" transform="translate(-259.382 -258.439)" fill="#c3ea21"/>
        <path id="Path_1258116" data-name="Path 1258116" d="M368.419,15.16c4.654,4.654,6.726,10.359,3.667,15.286-.228-.352-2.928-4.488-5.6-5.6a10.377,10.377,0,0,0-4.371-.477,2.726,2.726,0,0,1-2.9-2.9,10.357,10.357,0,0,0-.477-4.37c-1.109-2.676-5.244-5.377-5.6-5.6C358.061,8.435,363.766,10.507,368.419,15.16Zm0,0" transform="translate(-304.742 -8.673)" fill="#895d3c"/>
        <path id="Path_1258117" data-name="Path 1258117" d="M318.769,301.22c5.854,7.717,2.005,19.242,1.84,19.463-.223.166-11.49,3.758-19.267-2.031-5.258-3.912-11.473-13.564-5.452-14.076,2.266-.195,6.271.908,12.714,4.1-3.378-6.808-4.454-10.905-4.141-13.129C305.258,289.858,315.128,296.419,318.769,301.22Zm0,0" transform="translate(-253.209 -253.146)" fill="#faecd8"/>
        <path id="Path_1258118" data-name="Path 1258118" d="M327.564,39.54a12.089,12.089,0,0,1-1.729,2.156c-7.936,7.935-23.255,3.875-23.255,3.875s-4.061-15.32,3.875-23.255a12.1,12.1,0,0,1,2.156-1.729c.352.227,4.488,2.929,5.6,5.6a10.357,10.357,0,0,1,.477,4.37,2.726,2.726,0,0,0,2.9,2.9,10.377,10.377,0,0,1,4.371.477C324.636,35.051,327.336,39.187,327.564,39.54Zm0,0" transform="translate(-260.22 -17.765)" fill="#ffda2d"/>
        <path id="Path_1258119" data-name="Path 1258119" d="M32.041,23.8a6.869,6.869,0,0,1,7.815,8.695A6.72,6.72,0,0,1,35.306,37.1C20.6,41.336,7.933,23.329,10.244,14.9a6.751,6.751,0,0,1,4.724-4.67,6.866,6.866,0,0,1,8.714,6.606v.017A6.812,6.812,0,0,0,31.7,23.865q.166-.026.335-.065Zm0,0" transform="translate(-8.604 -8.619)" fill="#fed2a4"/>
        <path id="Path_1258120" data-name="Path 1258120" d="M34.854,305.91c-6.423,6.423-15.966,7.29-21.319,1.939s-4.484-14.9,1.939-21.319,15.966-7.289,21.317-1.938S41.275,299.488,34.854,305.91Zm0,0" transform="translate(-8.652 -242.567)" fill="#faecd8"/>
        <path id="Path_1258121" data-name="Path 1258121" d="M84.052,341.54s.84,6.913-2.907,10.659-10.658,2.907-10.658,2.907-.839-6.912,2.907-10.659S84.052,341.54,84.052,341.54Zm0,0" transform="translate(-60.758 -294.669)" fill="#ff712f"/>
        <path id="Path_1258122" data-name="Path 1258122" d="M17.864,271.145a19.5,19.5,0,0,0-11.905,5.779C-.986,283.87-1.857,294.3,4.02,300.181a13.722,13.722,0,0,0,9.854,3.9,19.237,19.237,0,0,0,13.4-5.836,19.5,19.5,0,0,0,5.779-11.905,13.926,13.926,0,0,0-3.842-11.35A13.925,13.925,0,0,0,17.864,271.145Zm12.463,14.944A16.755,16.755,0,0,1,25.339,296.3a16.518,16.518,0,0,1-11.46,5.046,11.011,11.011,0,0,1-7.92-3.107c-4.808-4.809-3.939-13.5,1.939-19.381a16.756,16.756,0,0,1,10.215-4.988q.636-.058,1.256-.058a10.971,10.971,0,0,1,7.908,3.108A11.236,11.236,0,0,1,30.327,286.088Zm0,0" transform="translate(-0.106 -233.93)"/>
        <path id="Path_1258123" data-name="Path 1258123" d="M75.573,331.538c-.309-.038-7.622-.872-11.793,3.3s-3.335,11.483-3.3,11.793a1.37,1.37,0,0,0,1.2,1.2,16.5,16.5,0,0,0,1.857.093c2.512,0,7-.457,9.936-3.39h0c4.17-4.17,3.335-11.483,3.3-11.793A1.37,1.37,0,0,0,75.573,331.538Zm-4.041,11.05c-2.388,2.387-6.436,2.621-8.4,2.58-.045-1.957.185-6,2.582-8.394s6.433-2.622,8.394-2.58C74.153,336.155,73.918,340.2,71.532,342.587Zm0,0" transform="translate(-52.114 -286.027)"/>
        <path id="Path_1258124" data-name="Path 1258124" d="M22.283,30.479a17.316,17.316,0,0,0,4.8-.678,8.049,8.049,0,0,0,5.493-5.561A8.24,8.24,0,0,0,23.24,13.823l-.048.008c-.121.021-.24.044-.356.07a5.442,5.442,0,0,1-4.5-1.234,5.538,5.538,0,0,1-1.885-4.388c0-.014,0-.028,0-.042V8.22A8.169,8.169,0,0,0,13.242,1.7,8.285,8.285,0,0,0,6.015.288a8.154,8.154,0,0,0-5.7,5.633c-1.349,4.917,1.688,12.451,7.22,17.915C11.941,28.183,17.125,30.479,22.283,30.479ZM2.962,6.646A5.369,5.369,0,0,1,6.713,2.938a5.892,5.892,0,0,1,1.5-.2,5.474,5.474,0,0,1,5.494,5.475,8.269,8.269,0,0,0,2.831,6.522A8.175,8.175,0,0,0,23.328,16.6c.122-.02.245-.043.368-.071a5.5,5.5,0,0,1,6.237,6.984,5.362,5.362,0,0,1-3.609,3.656c-5.664,1.631-11.808-.294-16.858-5.281C4.672,17.153,1.877,10.6,2.962,6.646Zm0,0" transform="translate(0 0)"/>
        <path id="Path_1258125" data-name="Path 1258125" d="M293.6,29.2a39.322,39.322,0,0,0,9,1.084h.172c6.6,0,11.929-1.837,15.407-5.315a13.566,13.566,0,0,0,1.893-2.352l0,0,.027-.043,0,0c.012-.02.022-.04.035-.059l0-.006a10.9,10.9,0,0,0,1.177-8.764,18.109,18.109,0,0,0-4.136-7.153l2.933-2.933a1.37,1.37,0,1,0-1.938-1.938L315.24,4.644A18.123,18.123,0,0,0,308.087.509a10.9,10.9,0,0,0-8.764,1.177l-.008,0-.06.035-.048.031a13.545,13.545,0,0,0-2.353,1.893c-3.509,3.509-5.347,8.9-5.315,15.579a39.323,39.323,0,0,0,1.084,9A1.37,1.37,0,0,0,293.6,29.2ZM314.3,7.525c1.951,1.951,5.891,6.662,4.377,11.618a13.858,13.858,0,0,0-4.822-4.164,11.382,11.382,0,0,0-4.981-.578,1.355,1.355,0,0,1-1.45-1.45,11.377,11.377,0,0,0-.579-4.982,13.855,13.855,0,0,0-4.163-4.821C307.636,1.635,312.346,5.574,314.3,7.525Zm-15.5-1.938a11.426,11.426,0,0,1,1.189-1.038c1.514,1.082,3.684,2.914,4.328,4.468a8.929,8.929,0,0,1,.376,3.759,4.1,4.1,0,0,0,4.361,4.36,8.932,8.932,0,0,1,3.758.376c1.555.644,3.386,2.814,4.469,4.328a11.38,11.38,0,0,1-1.038,1.189c-6.294,6.294-18,4.363-21.142,3.7C294.431,23.585,292.5,11.881,298.793,5.587Zm0,0" transform="translate(-251.589 -0.068)"/>
        <path id="Path_1258126" data-name="Path 1258126" d="M313.448,303.582A1.371,1.371,0,0,0,312,304.871a27.794,27.794,0,0,1-1.051,6.107,27.154,27.154,0,0,1-6.171.949c-3.122.116-7.6-.311-11.207-2.995-3.95-2.939-7.918-8.9-7.322-10.995.046-.159.151-.53,1.168-.617,1.551-.132,4.89.446,11.988,3.965a1.371,1.371,0,0,0,1.837-1.837c-3.9-7.85-4.185-11.094-4.012-12.33.119-.847.448-.934.625-.98.791-.206,2.611.21,5.348,2a25.021,25.021,0,0,1,5.885,5.291,13.006,13.006,0,0,1,1.008,1.549,1.37,1.37,0,0,0,2.4-1.327,15.675,15.675,0,0,0-1.222-1.879,27.945,27.945,0,0,0-6.571-5.93c-2.157-1.408-5.215-2.958-7.537-2.354a3.38,3.38,0,0,0-2.069,1.53c-2.815-1.121-7.027-1.308-9.1.763s-1.835,6.393-.654,9.3a3.361,3.361,0,0,0-1.728,2.1c-1.112,3.9,4.185,10.867,8.321,13.943a19.924,19.924,0,0,0,11.946,3.554c.49,0,.961-.014,1.408-.036,3.637-.186,7-1.08,7.548-1.486a1.373,1.373,0,0,0,.284-.284,23.759,23.759,0,0,0,1.615-7.848A1.371,1.371,0,0,0,313.448,303.582Zm-25.515-15.865c1.144-1.143,4.55-.942,6.521,0,0,2.241.891,5.372,2.7,9.486-3.867-1.7-6.854-2.568-9.048-2.637C287.062,292.512,286.76,288.891,287.933,287.718Zm0,0" transform="translate(-244.62 -244.524)"/>
        <path id="Path_1258127" data-name="Path 1258127" d="M492.787,392.37a1.37,1.37,0,1,1-1.37-1.37A1.37,1.37,0,0,1,492.787,392.37Zm0,0" transform="translate(-422.895 -337.421)"/>
      </g>
    </g>
    <rect id="Rectangle_411620" data-name="Rectangle 411620" width="104" height="104" transform="translate(788.051 2601.164)" fill="none"/>
  </g>
</svg>
