<svg xmlns="http://www.w3.org/2000/svg" width="104" height="104" viewBox="0 0 104 104">
  <g id="Group_1203833" data-name="Group 1203833" transform="translate(-788.051 -2601.164)">
    <g id="Group_1201005" data-name="Group 1201005" transform="translate(788.051 2618.656)">
      <g id="Rectangle_410589" data-name="Rectangle 410589" transform="translate(0 17.509)" fill="#ffc94a" stroke="#dfab32" stroke-width="1">
        <rect width="103.576" height="34.525" rx="8" stroke="none"/>
        <rect x="0.5" y="0.5" width="102.576" height="33.525" rx="7.5" fill="none"/>
      </g>
      <g id="Group_1203862" data-name="Group 1203862" transform="translate(15 -1.491)">
        <path id="Path_1257278" data-name="Path 1257278" d="M47.8,44v6.379a2.9,2.9,0,1,1-5.8,0V44Z" transform="translate(6.713 6.233)" fill="#c99e85"/>
        <path id="Path_1257279" data-name="Path 1257279" d="M22.8,44v6.379a2.9,2.9,0,1,1-5.8,0V44Z" transform="translate(2.717 6.233)" fill="#c99e85"/>
        <path id="Path_1257280" data-name="Path 1257280" d="M72.91,44V54.438a5.8,5.8,0,0,1-5.8,5.8H6.8a5.8,5.8,0,0,1-5.8-5.8V44H19.557v6.379a2.9,2.9,0,1,0,5.8,0V44h23.2v6.379a2.9,2.9,0,0,0,5.8,0V44Z" transform="translate(0.16 6.233)" fill="#956143"/>
        <path id="Path_1257281" data-name="Path 1257281" d="M13.758,31.639l5.8,15.078H1V27Z" transform="translate(0.16 3.516)" fill="#c99e85"/>
        <path id="Path_1257282" data-name="Path 1257282" d="M42.356,33.16l3.479,12.758h-23.2L18,32l11.6,3.479Z" transform="translate(2.877 4.315)" fill="#c99e85"/>
        <path id="Path_1257283" data-name="Path 1257283" d="M49.115,33.119l3.479,13.918h-5.8L43.315,34.279,30.557,36.6l-11.6-3.479L23.6,47.037H17.8L12,31.959l3.479-4.639L30.557,30.8,51.434,25l1.137,6.82Z" transform="translate(1.918 3.197)" fill="#b28364"/>
        <path id="Path_1257284" data-name="Path 1257284" d="M47.456,31.18,53.279,29l12.758,6.959V46.4H47.479L44,32.479Z" transform="translate(7.033 3.836)" fill="#c99e85"/>
        <path id="Path_1257285" data-name="Path 1257285" d="M64.758,28.639v8.119L52,29.8,54.32,24Z" transform="translate(8.311 3.037)" fill="#b28364"/>
        <path id="Path_1257286" data-name="Path 1257286" d="M64.438,18V29.6L54,24.959Z" transform="translate(8.631 2.078)" fill="#c99e85"/>
        <path id="Path_1257287" data-name="Path 1257287" d="M43.111,10.431,45.639,6H60.717l5.8,6.959L50.279,22.238,41,14.119Z" transform="translate(6.553 0.16)" fill="#c99e85"/>
        <path id="Path_1257288" data-name="Path 1257288" d="M41.877,6l-4.639,5.8L23.32,12.959,21,6Z" transform="translate(3.356 0.16)" fill="#c99e85"/>
        <path id="Path_1257289" data-name="Path 1257289" d="M72.91,12.959v6.959L62.471,26.877l-2.32,5.8-5.822,2.18-1.137-6.82-10.438-11.6-17.4,2.32-8.119,11.6L13.758,35,1,30.356v-5.8l11.6,2.32,8.119-11.6-1.16-4.639L24.2,6l2.32,6.959L40.434,11.8,45.074,6,49.5,10.431l-2.111,3.688,9.279,8.119Z" transform="translate(0.16 0.16)" fill="#956143"/>
        <path id="Path_1257290" data-name="Path 1257290" d="M40.516,15,50.955,26.6,30.078,32.4,15,28.918l8.119-11.6Z" transform="translate(2.397 1.598)" fill="#c99e85"/>
        <path id="Path_1257291" data-name="Path 1257291" d="M19.557,10.639l1.16,4.639L12.6,26.877,1,24.557V11.8L9.119,6H18.4Z" transform="translate(0.16 0.16)" fill="#c99e85"/>
        <g id="Group_1203862-2" data-name="Group 1203862" transform="translate(10.438 9.639)">
          <circle id="Ellipse_12716" data-name="Ellipse 12716" cx="2" cy="2" r="2" transform="translate(-0.324 -0.324)" fill="#b28364"/>
          <circle id="Ellipse_12717" data-name="Ellipse 12717" cx="1.5" cy="1.5" r="1.5" transform="translate(47.676 26.676)" fill="#b28364"/>
          <ellipse id="Ellipse_12718" data-name="Ellipse 12718" cx="2" cy="1.5" rx="2" ry="1.5" transform="translate(13.676 16.676)" fill="#b28364"/>
          <ellipse id="Ellipse_12719" data-name="Ellipse 12719" cx="1.5" cy="1" rx="1.5" ry="1" transform="translate(0.676 34.676)" fill="#b28364"/>
          <circle id="Ellipse_12720" data-name="Ellipse 12720" cx="1" cy="1" r="1" transform="translate(45.676 5.676)" fill="#b28364"/>
        </g>
        <circle id="Ellipse_12721" data-name="Ellipse 12721" cx="1.5" cy="1.5" r="1.5" transform="translate(36.115 57.316)" fill="#252525"/>
        <circle id="Ellipse_12722" data-name="Ellipse 12722" cx="1" cy="1" r="1" transform="translate(9.115 57.316)" fill="#252525"/>
        <circle id="Ellipse_12723" data-name="Ellipse 12723" cx="1" cy="1" r="1" transform="translate(63.115 57.316)" fill="#252525"/>
        <path id="Path_1257292" data-name="Path 1257292" d="M73.96,12.375l-5.8-6.959A1.16,1.16,0,0,0,67.27,5H52.192a1.16,1.16,0,0,0-1.008.58L49.409,8.694,46.053,5.34a1.16,1.16,0,0,0-.82-.34H24.356a1.16,1.16,0,0,0-.82.34L20.346,8.531l-.663-2.651A1.16,1.16,0,0,0,18.557,5H9.279a1.149,1.149,0,0,0-.674.217l-8.119,5.8A1.16,1.16,0,0,0,0,11.959V60.672a6.966,6.966,0,0,0,6.959,6.959H67.27a6.966,6.966,0,0,0,6.959-6.959V13.119a1.16,1.16,0,0,0-.269-.743Zm-18.542,36.7-3.01-12.037,7.813-2.925L71.91,40.484v8.59Zm-9.065-11.9a1.16,1.16,0,0,0-1.327-.835L32.541,38.6,21.21,35.2a1.16,1.16,0,0,0-1.434,1.478l4.6,13.551-.019,6.379a1.74,1.74,0,1,1-3.479,0V50.233c0-.143-5.646-14.9-5.646-14.9l2.641-3.521s14.334,3.339,14.421,3.339a.839.839,0,0,0,.493-.042l8.351-2.32a1.16,1.16,0,1,0-.621-2.236L32.449,32.8,19.333,29.773,26.176,20l16.286-2.172,8.778,9.752-5.158,1.428a1.16,1.16,0,1,0,.622,2.236l5.717-1.589.768,4.609-2.564.96a1.16,1.16,0,0,0-.717,1.367l3.445,13.641v6.379a1.74,1.74,0,0,1-3.479,0V50.233C49.873,50.13,46.353,37.17,46.353,37.17Zm-20,11.9-3.669-11,9.458,2.837a1.122,1.122,0,0,0,.54.029L44.4,38.806l2.8,10.268ZM2.32,32.171l10.705,3.894,5,13.009H2.32Zm60.941-3.585L71.91,32.43v5.411L61.77,32.311Zm1.766-1.754,6.882-4.588v7.647ZM42.82,7.32,40,10.844,27.488,11.888,25.965,7.32Zm-33.17,0h8l1.972,7.887-2.016,2.881a1.16,1.16,0,1,0,1.9,1.33l2.32-3.315A1.16,1.16,0,0,0,22,15.158l-1-4,2.849-2.849,1.726,5.179a1.16,1.16,0,0,0,1.1.793.913.913,0,0,0,.1,0l13.918-1.16a1.16,1.16,0,0,0,.812-.43L45.331,7.9l2.886,2.886L46.546,13.7a1.16,1.16,0,0,0,.242,1.45l9.279,8.119a1.16,1.16,0,0,0,1.34.133l11.6-6.627a1.16,1.16,0,0,0-1.151-2.013l-10.88,6.217-7.944-6.95L52.866,7.32H66.727l5.182,6.219v5.915l-9.922,6.611a2.2,2.2,0,0,0-.434.535l-2.129,5.324L55.4,33.431,54.5,28a2.027,2.027,0,0,0-.282-.58l-10.438-11.6a1.16,1.16,0,0,0-1.015-.373l-17.4,2.32a1.16,1.16,0,0,0-.8.485l-8.119,11.6L13.5,33.777,2.32,29.7V26.132S12.683,28.2,12.758,28.2a1.16,1.16,0,0,0,.95-.5l2.436-3.479a1.16,1.16,0,1,0-1.9-1.329l-2,2.859L2.32,23.766V12.556ZM67.27,65.311H6.959A4.639,4.639,0,0,1,2.32,60.672V51.393H18.557v5.219a4.059,4.059,0,1,0,8.119,0V51.393H47.553v5.219a4.059,4.059,0,1,0,8.119,0V51.393H71.91v9.279A4.639,4.639,0,0,1,67.27,65.311Z" transform="translate(0 0)" fill="#252525"/>
      </g>
    </g>
    <rect id="Rectangle_411620" data-name="Rectangle 411620" width="104" height="104" transform="translate(788.051 2601.164)" fill="none"/>
  </g>
</svg>
