<svg xmlns="http://www.w3.org/2000/svg" width="104" height="104" viewBox="0 0 104 104">
  <g id="Group_1204163" data-name="Group 1204163" transform="translate(-788.051 -2601.164)">
    <g id="Group_1201005" data-name="Group 1201005" transform="translate(788.051 2610.842)">
      <rect id="Rectangle_410589" data-name="Rectangle 410589" width="103.576" height="34.525" rx="8" transform="translate(0 26.598)" fill="#ffc94a"/>
      <g id="mountain-range_6312364" transform="translate(10.78 4.322)">
        <path id="Path_1243992" data-name="Path 1243992" d="M174.483,115.87l6.76-6.76-2.91-2.91-2.824,1.122-4.712,4.712-.737,2.44,2.039,2.039Z" transform="translate(-144.476 -90.335)" fill="#f6e869"/>
        <path id="Path_1243993" data-name="Path 1243993" d="M170.745,95.618l-1.859-1.859-6.76,6.76-.988,2.039,1.333,1.333Z" transform="translate(-136.887 -79.752)" fill="#efdf2c"/>
        <path id="Path_1243994" data-name="Path 1243994" d="M347.107,188.166l2.526-2.523V173.565a4.548,4.548,0,0,0-4.548-4.548,4.316,4.316,0,0,1-3.487-1.776l-5.552-7.635a4.311,4.311,0,0,0-6.493-.551,4.259,4.259,0,0,0-.8,1.059l-5.611,10.522-.666,4.479Z" transform="translate(-274.125 -134.254)" fill="#6dc647"/>
        <path id="Path_1243995" data-name="Path 1243995" d="M301.018,246.885l-2.4,3.947,28.472,17.008L329.336,265v-6.448a7.7,7.7,0,0,0-1.1-.615l-8.568-3.893a.86.86,0,0,1-.393-.359l-2.563-4.483a7.771,7.771,0,0,0-6.735-3.911h-5.419a.868.868,0,0,1-.7-.356l-1.011-1.39-1.516,2.842A4.213,4.213,0,0,1,301.018,246.885Z" transform="translate(-253.827 -207.159)" fill="#4fb02a"/>
        <path id="Path_1243996" data-name="Path 1243996" d="M125.561,226.956l-8.569-3.893a4.3,4.3,0,0,1-.715-.416,26.4,26.4,0,0,0-2.039-2.761l-1.769-3.094a4.308,4.308,0,0,0-3.742-2.173h-5.419a4.312,4.312,0,0,1-3.487-1.776L94.3,205.249a4.313,4.313,0,0,0-7.32.466l-7.127,13.364a4.312,4.312,0,0,1-3.8,2.282h-3.2C59.83,225.919,57.957,243.689,70.5,248.4h53.274a4.311,4.311,0,0,0,4.311-4.31V230.88a4.31,4.31,0,0,0-2.526-3.925Z" transform="translate(-52.579 -173.043)" fill="#8bd270"/>
        <path id="Path_1243997" data-name="Path 1243997" d="M26.655,323.443H20.817a4.292,4.292,0,0,0-1.7.349l-5.042,2.161a4.308,4.308,0,0,0-2.5,2.994l-3.746,16.26a4.309,4.309,0,0,0,4.2,5.278H24.306A26.3,26.3,0,0,1,26.655,323.443Z" transform="translate(-6.383 -275.125)" fill="#6dc647"/>
        <circle id="Ellipse_12341" data-name="Ellipse 12341" cx="3.372" cy="3.372" r="3.372" transform="translate(36.172 42.699)" fill="#fa5c6f"/>
        <path id="Path_1243998" data-name="Path 1243998" d="M217.866,408.432h-5.91a3.858,3.858,0,0,1-3.12-1.588l-5.913-8.129a3.863,3.863,0,0,0-.4-.468c-4.915-.573-11.132,12.471-9,15.852h29.823l-2.125-3.721A3.863,3.863,0,0,0,217.866,408.432Z" transform="translate(-164.064 -338.737)" fill="#c0e8f9"/>
        <path id="Path_1243999" data-name="Path 1243999" d="M171.88,393.124a3.861,3.861,0,0,1,.946-1.158,3.857,3.857,0,0,0-4.442-.714l-.472.235a3.864,3.864,0,0,0-1.678,1.636l-7.323,13.729a3.808,3.808,0,0,1-.73.965h5.646a3.808,3.808,0,0,0,.73-.965Z" transform="translate(-134.371 -332.458)" fill="#a6dff4"/>
        <path id="Path_1244000" data-name="Path 1244000" d="M157.769,155.547l2.384-2.384-2.91-2.91-1.469-.21-1.68,1.68a3.266,3.266,0,0,0,.155,4.612A3.368,3.368,0,0,0,157.769,155.547Z" transform="translate(-130.146 -127.628)" fill="#5f7080"/>
        <path id="Path_1244001" data-name="Path 1244001" d="M148.1,143.179l2.309-2.309-1.859-1.859-2.384,2.384a3.366,3.366,0,0,0,1.248,5.556,3.36,3.36,0,0,1,.685-3.772Z" transform="translate(-123.313 -118.244)" fill="#546370"/>
        <path id="Path_1244002" data-name="Path 1244002" d="M228.108,18.282a10.113,10.113,0,0,0-9.357-10.616c-11.763,2.854-11.305,16.638-.674,20.2A10.112,10.112,0,0,0,228.108,18.282Z" transform="translate(-178.462 -6.521)" fill="#78cbed"/>
        <path id="Path_1244003" data-name="Path 1244003" d="M202.063,21.945c-1.948-5.64.089-11.621,4.594-14.436a10.113,10.113,0,1,0-.674,20.2A13.139,13.139,0,0,1,202.063,21.945Z" transform="translate(-166.369 -6.363)" fill="#34b6e2"/>
        <path id="Path_1244004" data-name="Path 1244004" d="M75.509,43.125a1.12,1.12,0,0,0,1.12-1.12V39.311a5.665,5.665,0,0,0-5.668-5.668,3.2,3.2,0,0,1-2.581-1.314l-5.552-7.635a5.431,5.431,0,0,0-9.185.64L47.071,37.657,42.6,31.506a5.4,5.4,0,0,0-1.932-1.648V22.411a11.236,11.236,0,1,0-11.579-7.074l-7.022,7.022a4.492,4.492,0,0,0,6.353,6.353l7.022-7.022a11.322,11.322,0,0,0,2.986.719v6.866a5.439,5.439,0,0,0-5.011,2.871L26.286,45.509A3.185,3.185,0,0,1,23.471,47.2H14.434a5.383,5.383,0,0,0-2.139.44L7.253,49.8A5.445,5.445,0,0,0,4.1,53.571L2.938,58.614a1.12,1.12,0,1,0,2.184.5l1.161-5.042a3.2,3.2,0,0,1,1.852-2.216L13.179,49.7a3.157,3.157,0,0,1,1.255-.258h9.038a5.423,5.423,0,0,0,4.792-2.875L35.39,33.2a3.185,3.185,0,0,1,3.033-1.677v10.2a4.492,4.492,0,1,0,2.241,0V32.672c.16.194-.28-.391,5.615,7.705l.058.082A5.449,5.449,0,0,0,50.731,42.7h5.419A3.2,3.2,0,0,1,58.918,44.3l2.564,4.485a5.4,5.4,0,0,0,2.468,2.25l8.568,3.893a3.2,3.2,0,0,1,1.87,2.9V71.051A3.194,3.194,0,0,1,71.2,74.24H59.93l-1.8-3.157A5,5,0,0,0,53.8,68.574h-5.91a2.743,2.743,0,0,1-2.214-1.127l-5.913-8.129a4.963,4.963,0,0,0-6.252-1.526l-.474.236a4.953,4.953,0,0,0-2.165,2.111L23.55,73.87a2.679,2.679,0,0,1-.238.37H5.645a3.189,3.189,0,0,1-3.109-3.906l1.407-6.108a1.12,1.12,0,1,0-2.184-.5L.353,69.831a5.429,5.429,0,0,0,5.292,6.65H71.2a5.437,5.437,0,0,0,5.432-5.43V47.25a1.12,1.12,0,1,0-2.241,0v6.195a5.4,5.4,0,0,0-.943-.552L64.877,49a3.171,3.171,0,0,1-1.45-1.322l-2.563-4.484a5.44,5.44,0,0,0-4.715-2.738H50.731a3.2,3.2,0,0,1-2.162-.845L55.62,26.386a3.19,3.19,0,0,1,5.4-.375l5.552,7.636a5.452,5.452,0,0,0,4.393,2.236,3.426,3.426,0,0,1,3.428,3.428V42a1.12,1.12,0,0,0,1.12,1.121ZM30.008,23.95l-3.184-3.184,3.345-3.345a11.247,11.247,0,0,0,3.184,3.184Zm-3.176,3.176a2.251,2.251,0,0,1-3.184-3.184l1.592-1.592,3.184,3.184Zm4.6-12.018h0a9,9,0,1,1,9.238,5.046V11.23a1.12,1.12,0,1,0-2.241,0v8.922a8.988,8.988,0,0,1-7-5.043ZM41.8,46.071a2.251,2.251,0,1,1-2.251-2.251A2.254,2.254,0,0,1,41.8,46.071ZM32.852,61.193a2.725,2.725,0,0,1,1.19-1.16l.473-.236a2.729,2.729,0,0,1,3.439.839l5.913,8.129a4.991,4.991,0,0,0,4.026,2.05H53.8a2.749,2.749,0,0,1,2.379,1.38l1.168,2.045H25.892Z" transform="translate(0 0)"/>
      </g>
    </g>
    <rect id="Rectangle_411620" data-name="Rectangle 411620" width="104" height="104" transform="translate(788.051 2601.164)" fill="none"/>
  </g>
</svg>
