<svg xmlns="http://www.w3.org/2000/svg" width="190" height="169" viewBox="0 0 190 169">
  <g id="Group_1203871" data-name="Group 1203871" transform="translate(-180.051 -4279)">
    <rect id="Rectangle_411405" data-name="Rectangle 411405" width="190" height="169" rx="10" transform="translate(180.051 4279)" fill="#a1c6f1"/>
    <g id="Artwork" transform="translate(192.552 4285.5)">
      <path id="Path_1257312" data-name="Path 1257312" d="M147.349,249.728c-.616-4.506-6.812-5.793-7.3-12.09-.472-6.114-.233-7.774-.21-7.913a1.733,1.733,0,0,0-1.6-2.086l-77.111-4.392a1.745,1.745,0,0,0-.869.177l-15.949,7.909a1.74,1.74,0,0,0-.949,1.774c.009.073.868,7.395-3.912,11.822-5.834,5.4-4.219,13.1,2.661,13.1,7.8,0,16.15-9.866,35.658-1.943l.092.035c8.98,3.063,11.145-1.847,17.637-1.714,6.635.141,5.22,2.259,12.516,2.259,7.567,0,9.33-4.608,19.586-2.3,9.677,2.179,15.455,2.872,18.279.277A5.3,5.3,0,0,0,147.349,249.728Z" transform="translate(-9.785 -109.42)" fill="#996052"/>
      <path id="Path_1257313" data-name="Path 1257313" d="M147.342,254.885C87,251.741,63.584,239.039,54.509,229.357L44.3,234.419a1.739,1.739,0,0,0-.949,1.774c.009.073.868,7.395-3.912,11.822-7.086,6.561-3.211,16.313,7.689,12.068,8.628-3.362,16.776-6.536,30.63-.912l.092.035c8.98,3.063,11.145-1.847,17.637-1.714,6.635.141,5.22,2.259,12.516,2.259,7.567,0,9.33-4.607,19.586-2.3,9.677,2.179,15.455,2.872,18.279.277a4.681,4.681,0,0,0,1.471-2.841Z" transform="translate(-9.774 -112.506)" fill="#8f5a4e"/>
      <path id="Path_1257314" data-name="Path 1257314" d="M48.659,49.683c-10.441,0-15.841,17.355-15.841,28.27a1.733,1.733,0,0,0,.316,1L47.1,98.758a1.733,1.733,0,0,0,1.408.734h.008a1.733,1.733,0,0,0,1.406-.72L64.172,78.966a1.736,1.736,0,0,0,.326-1.013c0-10.945-5.414-28.27-15.84-28.27Z" transform="translate(-8.239 -21.8)" fill="#f5c265"/>
      <rect id="Rectangle_411633" data-name="Rectangle 411633" width="12.421" height="20.467" rx="3.5" transform="translate(34.21 82.067)" fill="#298a6b"/>
      <path id="Path_1257315" data-name="Path 1257315" d="M64.688,177.844v-3.912c-7.746-2.377-9.024-10.888-9.191-14.82H54a1.733,1.733,0,0,0-1.733,1.733v17A1.733,1.733,0,0,0,54,179.578h8.955A1.733,1.733,0,0,0,64.688,177.844Z" transform="translate(-18.057 -77.044)" fill="#248062"/>
      <path id="Path_1257316" data-name="Path 1257316" d="M37.457,67.427a42.605,42.605,0,0,0-4.639,19.484,1.733,1.733,0,0,0,.316,1L47.1,107.716a1.733,1.733,0,0,0,1.408.734h.008a1.733,1.733,0,0,0,1.406-.72l8.124-11.29C40.7,89.469,37.519,76.079,37.457,67.427Z" transform="translate(-8.239 -30.758)" fill="#e8b860"/>
      <path id="Path_1257317" data-name="Path 1257317" d="M86.33,103.644a1.733,1.733,0,0,0-1.591-1.188c-7.456-.234-13.325,1.928-17.426,6.432-7.94,8.719-6.255,22.96-6.18,23.562a1.733,1.733,0,0,0,1.72,1.517c4.431-.06,4.628.145,5.282-.2.383-.2,9.4-5.023,10.325-13.642a22.954,22.954,0,0,1,7.3-14.579,1.733,1.733,0,0,0,.57-1.9Z" transform="translate(-22.432 -48.433)" fill="#35a17d"/>
      <path id="Path_1257318" data-name="Path 1257318" d="M35.6,108.887c-4.1-4.5-9.977-6.669-17.426-6.432a1.733,1.733,0,0,0-1.022,3.091,22.728,22.728,0,0,1,7.3,14.579c.923,8.619,9.942,13.442,10.326,13.642.655.343.869.139,5.282.2a1.733,1.733,0,0,0,1.72-1.517C41.86,131.847,43.544,117.606,35.6,108.887Z" transform="translate(0 -48.432)" fill="#2c9472"/>
      <g id="Group_1203870" data-name="Group 1203870" transform="translate(35.065 38.569)">
        <path id="Path_1257319" data-name="Path 1257319" d="M60.154,74.73H55.727a1.733,1.733,0,0,1,0-3.466h4.427a1.733,1.733,0,1,1,0,3.466Z" transform="translate(-53.994 -71.264)" fill="#e8b14d"/>
        <path id="Path_1257320" data-name="Path 1257320" d="M70.006,89.523H65.277a1.733,1.733,0,0,1,0-3.466h4.729a1.733,1.733,0,1,1,0,3.466Z" transform="translate(-58.815 -78.732)" fill="#e8b14d"/>
        <path id="Path_1257321" data-name="Path 1257321" d="M59.654,104.519H55.933a1.733,1.733,0,1,1,0-3.466h3.723a1.733,1.733,0,0,1,0,3.466Z" transform="translate(-54.098 -86.302)" fill="#e8b14d"/>
      </g>
      <path id="Path_1257322" data-name="Path 1257322" d="M219.759,49.683c-10.441,0-15.841,17.355-15.841,28.27a1.733,1.733,0,0,0,.317,1L218.2,98.758a1.733,1.733,0,0,0,1.408.734h.008a1.733,1.733,0,0,0,1.407-.721l14.251-19.806a1.733,1.733,0,0,0,.326-1.013c0-10.945-5.414-28.27-15.84-28.27Z" transform="translate(-94.616 -21.8)" fill="#f5c265"/>
      <path id="Path_1257323" data-name="Path 1257323" d="M208.557,67.427a42.624,42.624,0,0,0-4.639,19.484,1.733,1.733,0,0,0,.317,1L218.2,107.716a1.733,1.733,0,0,0,2.822.014l8.123-11.29C211.8,89.469,208.62,76.079,208.557,67.427Z" transform="translate(-94.616 -30.758)" fill="#e8b860"/>
      <rect id="Rectangle_411634" data-name="Rectangle 411634" width="12.421" height="20.467" rx="3.5" transform="translate(118.933 82.067)" fill="#298a6b"/>
      <path id="Path_1257324" data-name="Path 1257324" d="M235.788,177.844v-3.912c-7.745-2.377-9.024-10.888-9.191-14.82h-1.5a1.733,1.733,0,0,0-1.733,1.733v17a1.733,1.733,0,0,0,1.733,1.733h8.955a1.733,1.733,0,0,0,1.733-1.734Z" transform="translate(-104.434 -77.044)" fill="#248062"/>
      <path id="Path_1257325" data-name="Path 1257325" d="M257.43,103.644a1.733,1.733,0,0,0-1.591-1.188c-7.456-.236-13.326,1.928-17.426,6.432-7.939,8.719-6.255,22.96-6.18,23.562a1.733,1.733,0,0,0,1.72,1.517c4.431-.06,4.628.145,5.282-.2.383-.2,9.4-5.023,10.326-13.642a22.951,22.951,0,0,1,7.3-14.579A1.733,1.733,0,0,0,257.43,103.644Z" transform="translate(-108.809 -48.433)" fill="#35a17d"/>
      <path id="Path_1257326" data-name="Path 1257326" d="M206.7,108.887c-4.1-4.5-9.977-6.669-17.426-6.432a1.733,1.733,0,0,0-1.021,3.091,22.728,22.728,0,0,1,7.3,14.579c.923,8.619,9.942,13.442,10.325,13.642.655.343.869.139,5.282.2a1.733,1.733,0,0,0,1.72-1.517C212.96,131.847,214.645,117.606,206.7,108.887Z" transform="translate(-86.378 -48.432)" fill="#2c9472"/>
      <path id="Path_1257327" data-name="Path 1257327" d="M231.257,74.73h-4.424a1.733,1.733,0,0,1,0-3.466h4.427a1.733,1.733,0,0,1,0,3.466Z" transform="translate(-105.309 -32.695)" fill="#e8b14d"/>
      <path id="Path_1257328" data-name="Path 1257328" d="M241.106,89.523h-4.729a1.733,1.733,0,1,1,0-3.466h4.729a1.733,1.733,0,1,1,0,3.466Z" transform="translate(-110.127 -40.163)" fill="#e8b14d"/>
      <path id="Path_1257329" data-name="Path 1257329" d="M230.754,104.519h-3.721a1.733,1.733,0,1,1,0-3.466h3.722a1.733,1.733,0,1,1,0,3.466Z" transform="translate(-105.41 -47.734)" fill="#e8b14d"/>
      <path id="Path_1257330" data-name="Path 1257330" d="M134.208,6.5c-10.415,0-15.841,17.3-15.841,28.27a1.733,1.733,0,0,0,.389,1.094l14.31,17.578a1.733,1.733,0,0,0,1.344.639h.012a1.733,1.733,0,0,0,1.347-.658l13.907-17.578a1.736,1.736,0,0,0,.374-1.076C150.05,23.85,144.647,6.5,134.208,6.5Z" transform="translate(-51.427 0)" fill="#f5c265"/>
      <rect id="Rectangle_411635" data-name="Rectangle 411635" width="12.42" height="41.849" rx="3.5" transform="translate(76.571 60.685)" fill="#298a6b"/>
      <path id="Path_1257331" data-name="Path 1257331" d="M139.55,157.776H148.5a1.733,1.733,0,0,0,1.733-1.733v-6.211c-7.778-6.146-9.152-25.31-9.369-33.906H139.55a1.733,1.733,0,0,0-1.733,1.733v38.383a1.733,1.733,0,0,0,1.733,1.734Z" transform="translate(-61.246 -55.242)" fill="#248062"/>
      <path id="Path_1257332" data-name="Path 1257332" d="M135.769,64.089l6.562-8.294a40.691,40.691,0,0,1-20.166-28.167,43.552,43.552,0,0,0-3.8,17.808c0,1.126.023.428,14.7,18.671a1.733,1.733,0,0,0,2.7-.019Z" transform="translate(-51.427 -10.666)" fill="#e8b860"/>
      <path id="Path_1257333" data-name="Path 1257333" d="M171.88,60.462a1.733,1.733,0,0,0-1.59-1.188c-7.453-.237-13.326,1.931-17.427,6.432-7.939,8.719-6.255,22.96-6.179,23.562a1.733,1.733,0,0,0,1.719,1.518c4.424-.06,4.628.145,5.281-.2.384-.2,9.4-5.023,10.326-13.643a22.954,22.954,0,0,1,7.3-14.579A1.733,1.733,0,0,0,171.88,60.462Z" transform="translate(-65.621 -26.633)" fill="#35a17d"/>
      <path id="Path_1257334" data-name="Path 1257334" d="M121.155,65.7c-4.1-4.506-9.973-6.669-17.427-6.432A1.733,1.733,0,0,0,102.7,62.36a22.951,22.951,0,0,1,7.3,14.583c.923,8.62,9.942,13.441,10.326,13.643.654.343.875.139,5.281.2a1.733,1.733,0,0,0,1.719-1.518C127.41,88.664,129.095,74.423,121.155,65.7Z" transform="translate(-43.189 -26.632)" fill="#2c9472"/>
      <path id="Path_1257335" data-name="Path 1257335" d="M145.7,31.547h-4.427a1.733,1.733,0,1,1,0-3.466H145.7a1.733,1.733,0,0,1,0,3.466Z" transform="translate(-62.117 -10.895)" fill="#e8b14d"/>
      <path id="Path_1257336" data-name="Path 1257336" d="M155.556,46.34h-4.729a1.733,1.733,0,0,1,0-3.466h4.729a1.733,1.733,0,1,1,0,3.466Z" transform="translate(-66.939 -18.363)" fill="#e8b14d"/>
      <path id="Path_1257337" data-name="Path 1257337" d="M145.2,61.336h-3.723a1.733,1.733,0,1,1,0-3.466H145.2a1.733,1.733,0,1,1,0,3.466Z" transform="translate(-62.22 -25.933)" fill="#e8b14d"/>
      <path id="Path_1257338" data-name="Path 1257338" d="M150.01,200.349c-1.415-2.582-5.113-6.912-13.968-6.912-2.8,0,13.06,0-91.6.007-1.158-.042-9.872-.2-13.127,4.27-.945,1.3-1.815,3.546-.582,6.92,1.912,4.938-3.241,9.492,4.323,14.03,7.655,4.592,23.056-9.533,38.787-2.343,13.263,6.061,29.242,8.456,42.573,2.723,19.386-8.335,27.912,1.641,33.4-6.967A11.829,11.829,0,0,0,150.01,200.349Z" transform="translate(-6.88 -94.37)" fill="#bd7766"/>
      <path id="Path_1257339" data-name="Path 1257339" d="M73.846,216.355c13.263,6.061,29.242,8.456,42.573,2.723,18.649-8.018,26.814.828,32.613-5.916-71.944-2.629-97.265-12.826-106.7-19.663-3.1.152-8.579.907-11.011,4.247-.945,1.3-1.815,3.546-.582,6.92,1.912,4.938-3.241,9.492,4.323,14.03C42.714,223.29,58.116,209.165,73.846,216.355Z" transform="translate(-6.88 -94.404)" fill="#a7695a"/>
      <path id="Path_1257340" data-name="Path 1257340" d="M55.727,74.728h4.427a1.733,1.733,0,1,0,0-3.466H55.727a1.733,1.733,0,1,0,0,3.466Z" transform="translate(-18.929 -32.694)"/>
      <path id="Path_1257341" data-name="Path 1257341" d="M63.544,87.788a1.733,1.733,0,0,0,1.733,1.733h4.729a1.733,1.733,0,1,0,0-3.466H65.277a1.733,1.733,0,0,0-1.733,1.733Z" transform="translate(-23.75 -40.162)"/>
      <path id="Path_1257342" data-name="Path 1257342" d="M59.654,101.049H55.933a1.733,1.733,0,0,0,0,3.466h3.723a1.733,1.733,0,0,0,0-3.466Z" transform="translate(-19.033 -47.732)"/>
      <path id="Path_1257343" data-name="Path 1257343" d="M148.623,55.21a1.733,1.733,0,0,0-1.591-1.188,29.517,29.517,0,0,0-6.085.406c-.426-10.472-5.778-26.545-15.8-26.545-10.083,0-15.395,16.2-15.8,26.605a29.221,29.221,0,0,0-6.437-.466,1.733,1.733,0,0,0-1.021,3.091,22.728,22.728,0,0,1,7.3,14.579c.8,7.477,7.688,12.092,9.752,13.32V99.067c-10.01,0-22.158,0-29.941,0V63.41c2.4-1.491,8.638-6.009,9.4-13.1a22.951,22.951,0,0,1,7.3-14.579,1.733,1.733,0,0,0-1.021-3.091,29.55,29.55,0,0,0-6.085.407C98.158,22.571,92.806,6.5,82.783,6.5c-10.086,0-15.4,16.209-15.8,26.6a29.264,29.264,0,0,0-6.437-.466,1.733,1.733,0,0,0-1.025,3.088,22.949,22.949,0,0,1,7.3,14.582c.8,7.477,7.688,12.092,9.755,13.318V99.072H46.632V84.792c2.4-1.491,8.637-6.01,9.4-13.1a22.953,22.953,0,0,1,7.3-14.579,1.733,1.733,0,0,0-1.021-3.091,29.52,29.52,0,0,0-6.085.407c-.427-10.486-5.781-26.546-15.8-26.546-10.083,0-15.4,16.2-15.8,26.605a29.215,29.215,0,0,0-6.437-.466,1.733,1.733,0,0,0-1.022,3.091,22.728,22.728,0,0,1,7.3,14.579c.8,7.477,7.688,12.092,9.755,13.32V99.184c-7.439.681-12.874,4.184-10.354,11.079a9.257,9.257,0,0,1,.254,5.051c-.4,2.822-.86,6.023,4.07,8.98a8.306,8.306,0,0,0,5.471.858c0,2.369-.479,7.111-3.984,10.356-7.064,6.541-3.248,16.332,7.689,12.067,8.628-3.361,16.776-6.536,30.63-.912,8.237,3.268,11.465-1.808,17.727-1.68,6.635.141,5.22,2.258,12.516,2.258,7.567,0,9.33-4.605,19.586-2.3,9.677,2.179,15.455,2.872,18.279.277a5.3,5.3,0,0,0,1.468-4.912c-.277-2.022-1.7-3.417-3.211-4.9-1.878-1.841-3.821-3.743-4.087-7.192a65.353,65.353,0,0,1-.274-7.045c1.8.075,3.679.2,5.7.329,7.395.492,11.181-8.693,7.435-15.522-1.292-2.357-4.49-6.17-11.777-6.815V84.792c2.4-1.491,8.638-6.01,9.4-13.1a22.951,22.951,0,0,1,7.3-14.579,1.733,1.733,0,0,0,.568-1.9ZM125.145,31.348c6.105,0,12.1,11.74,12.362,23.96-6.326,2.173-10.41,6.937-12.54,13.307-2.107-6.3-6.114-10.979-12.186-13.187.228-12.263,6.239-24.08,12.364-24.08ZM122.4,85.531h5.488V99.064H122.4ZM112.629,71.32a26.794,26.794,0,0,0-5.5-13.669c12.315,1.482,16.652,12.259,16.058,24.412h-2.413c-1.52-.9-7.507-4.813-8.142-10.741Zm-32.59-7.173h5.488V99.062H80.039Zm14.9-14.211c-.635,5.93-6.627,9.843-8.142,10.745H84.388c-.606-12.1,3.728-22.93,16.061-24.412a26.784,26.784,0,0,0-5.5,13.671ZM82.783,9.966c6.1,0,12.1,11.74,12.362,23.96-6.327,2.174-10.411,6.938-12.54,13.307-2.053-6.14-5.98-10.931-12.187-13.188C70.649,21.783,76.658,9.966,82.783,9.966ZM70.267,49.94a26.784,26.784,0,0,0-5.5-13.67C77.066,37.75,81.417,48.5,80.822,60.682H78.409C76.889,59.78,70.9,55.868,70.267,49.94Zm-27.1,35.591V99.064H37.678V85.531ZM52.582,71.32c-.635,5.93-6.626,9.843-8.142,10.745H42.025c-.608-12.106,3.73-22.93,16.061-24.412a26.794,26.794,0,0,0-5.5,13.669ZM40.422,31.348c6.105,0,12.1,11.74,12.362,23.961-6.338,2.179-10.415,6.95-12.54,13.307-2.107-6.3-6.114-10.979-12.186-13.187C28.286,43.165,34.3,31.348,40.422,31.348ZM27.906,71.322a26.789,26.789,0,0,0-5.5-13.671,16.541,16.541,0,0,1,10.632,5.123c4.444,4.87,5.751,12.655,5.427,19.289H36.048c-1.52-.9-7.507-4.814-8.142-10.742Zm104.023,66.56c1.12,1.1,2.087,2.045,2.2,2.891.187,1.371-.237,1.761-.377,1.889-2.023,1.855-10.906-.144-15.174-1.105-11.171-2.513-13.943,2.216-20.347,2.216-6.424,0-5.008-2.1-12.442-2.257-7.791-.175-8.8,4.538-16.546,1.914-15.1-6.117-24.272-2.541-33.145.913-7.548,2.939-8.094-2.575-4.076-6.294,4.861-4.5,5.18-10.968,5.082-13.617,1.417-.383,2.925-.863,4.533-1.378,7.273-2.327,16.324-5.221,25.329-1.1,13.263,6.061,29.242,8.455,42.573,2.723a40.422,40.422,0,0,1,16.984-3.576,69.916,69.916,0,0,0,.285,7.384C127.178,133.227,129.923,135.918,131.928,137.882Zm8.166-30.239c2.4,4.367.424,10.7-4.169,10.4-9.933-.654-17.11-1.127-27.752,3.448-5.249,2.256-19.628,6.51-39.762-2.693-9.32-4.258-18.327-2.083-27.828.957-4.63,1.481-8.629,2.76-10.618,1.567-2.956-1.773-2.789-2.946-2.422-5.517a12.515,12.515,0,0,0-.442-6.761c-.842-2.306-.1-3.322.139-3.655,1.672-2.3,6.9-2.825,9.452-2.854h92.471C134.4,102.531,138.285,104.345,140.094,107.643Zm-2.787-36.321c-.635,5.93-6.626,9.843-8.142,10.745h-2.416c-.606-12.082,3.714-22.926,16.062-24.412a26.788,26.788,0,0,0-5.505,13.667Z" transform="translate(-0.002)"/>
      <path id="Path_1257344" data-name="Path 1257344" d="M226.833,74.728h4.427a1.733,1.733,0,0,0,0-3.466h-4.427a1.733,1.733,0,0,0,0,3.466Z" transform="translate(-105.309 -32.694)"/>
      <path id="Path_1257345" data-name="Path 1257345" d="M234.644,87.788a1.733,1.733,0,0,0,1.733,1.733h4.729a1.733,1.733,0,1,0,0-3.466h-4.729a1.733,1.733,0,0,0-1.733,1.733Z" transform="translate(-110.127 -40.162)"/>
      <path id="Path_1257346" data-name="Path 1257346" d="M230.754,101.049h-3.721a1.733,1.733,0,1,0,0,3.466h3.722a1.733,1.733,0,1,0,0-3.466Z" transform="translate(-105.41 -47.732)"/>
      <path id="Path_1257347" data-name="Path 1257347" d="M141.277,31.547H145.7a1.733,1.733,0,0,0,0-3.466h-4.427a1.733,1.733,0,0,0,0,3.466Z" transform="translate(-62.117 -10.895)"/>
      <path id="Path_1257348" data-name="Path 1257348" d="M149.094,44.606a1.733,1.733,0,0,0,1.733,1.733h4.729a1.733,1.733,0,1,0,0-3.466h-4.729A1.733,1.733,0,0,0,149.094,44.606Z" transform="translate(-66.939 -18.362)"/>
      <path id="Path_1257349" data-name="Path 1257349" d="M145.2,57.868h-3.723a1.733,1.733,0,1,0,0,3.466H145.2a1.733,1.733,0,1,0,0-3.466Z" transform="translate(-62.22 -25.932)"/>
    </g>
  </g>
</svg>
