<svg xmlns="http://www.w3.org/2000/svg" xmlns:xlink="http://www.w3.org/1999/xlink" width="400" height="209" viewBox="0 0 400 209">
  <defs>
    <clipPath id="clip-path">
      <rect id="Rectangle_411638" data-name="Rectangle 411638" width="400" height="209" rx="10" transform="translate(1020.051 3876)" fill="#12263f"/>
    </clipPath>
  </defs>
  <g id="Group_1204326" data-name="Group 1204326" transform="translate(-1020.051 -3876)">
    <path id="Path_1257558" data-name="Path 1257558" d="M10,0H390a10,10,0,0,1,10,10V199a10,10,0,0,1-10,10H10A10,10,0,0,1,0,199V10A10,10,0,0,1,10,0Z" transform="translate(1020.051 3876)" fill="#b8c5d1"/>
    <g id="Mask_Group_1099556" data-name="Mask Group 1099556" clip-path="url(#clip-path)">
      <g id="Compaction_profile_sensing" data-name="Compaction profile sensing" transform="translate(675.398 3564)">
        <path id="Path_1257437" data-name="Path 1257437" d="M364.126,435.694a58.887,58.887,0,0,1,5.457-24.163c6.5-13.768,16.5-25.668,27.6-35.873,9.234-8.492,16.965-15.79,28.321-21.144,9.753-4.6,17.327-7.773,28.037-9.382,21.4-3.216,40.918-6.714,62.734-5.076,14.92,1.12,29.5,3.086,44.512,2.165,24.423-1.5,48.255-6.137,72.62-6.1,6.014.01,11.853-.668,17.846-1.022,11.6-.686,23.4,2.228,34.713,4.166,18.567,3.182,35.71,9.282,49.547,22.695,10.743,10.413,21.417,22.4,28.193,35.831,2.682,5.319,7.644,13.186,6.156,19.39-.406,1.691-1.654,2.816-2.321,4.387-.844,1.989-1.028,4.24-1.861,6.263a32.218,32.218,0,0,1-9.57,12.282A209.243,209.243,0,0,1,722.266,463c-22.481,12.113-47.184,17.258-71.827,22.751-28,6.241-54.342,13.359-83.312,12.384-14.4-.484-28.785-2.077-43.207-2.007-13.14.064-26.214,1.84-39.347,2.11-20.425.421-39.921-3.449-60.011-6.3-15.241-2.161-28.769-6.91-43.139-12.112-5.4-1.955-7.932-2.486-10.9-8.019a52.583,52.583,0,0,1-5.467-18.924A125.3,125.3,0,0,1,364.126,435.694Z" transform="translate(-24.651 0)" fill="#b8c5d1"/>
        <g id="Group_1203944" data-name="Group 1203944" transform="translate(400.567 346.794)">
          <g id="Group_1203943" data-name="Group 1203943" transform="translate(0)">
            <path id="Path_1257438" data-name="Path 1257438" d="M766.352,488.251a2.215,2.215,0,0,1-1.722-.907c-1.282-1.919.827-4.633,2.49-5.409a8.74,8.74,0,0,1,9.048,1.019.915.915,0,0,0-.333-.122c-2.378-.75,1.072-6.2,2.1-6.947a8.756,8.756,0,0,1,6.3-.938c2.562.705,3.439,3.106,5.356,4.528-.591-.439,1.781-3.906,2.262-4.273a8.88,8.88,0,0,1,4.549-1.1,5.979,5.979,0,0,1,3.326,1.179,7.023,7.023,0,0,1,2.564,5.375c1.8-2.048,4.533-3.12,7.207-1.671a5.974,5.974,0,0,1,2.535,2.646c.4.8.182,2.179.731,2.857.6.747,1.208.506,2.159.79,1.01.3,2.959,1.616,1.771,2.873-.614.65-3.118.264-3.89.264H777.463c-3.008,0-6.017-.085-9.025-.084A19.586,19.586,0,0,1,766.352,488.251Z" transform="translate(-764.235 -464.65)" fill="#ebe0d7"/>
            <path id="Path_1257439" data-name="Path 1257439" d="M2152.063,433.33c-1.589-.292-2.732-1.166-2.417-3.454.4-2.871,3.212-4.851,5.948-5.778,5.383-1.823,10.825.113,14.906,3.377-2.672-2.136,1.209-7.676,2.965-9.031a21.712,21.712,0,0,1,8.791-3.76c5.33-1.116,13.312-1.092,16.42,4.334,1,1.745.185,5.157,1.8,6.239,1.38-2.8,6.108-2.908,8.785-2.425,3.789.685,4.354,2.56,5.32,5.819-.681-2.3,4.932-1.382,5.816-.554,3.34,3.134-.511,5.243-3.323,5.343-4.661.166-9.358.056-14.021.056h-47.566A19.944,19.944,0,0,1,2152.063,433.33Z" transform="translate(-1937.978 -413.812)" fill="#ebe0d7"/>
            <path id="Path_1257440" data-name="Path 1257440" d="M1264.492,446.871c-1.589-.292-2.732-1.166-2.417-3.454.4-2.871,3.212-4.851,5.948-5.778,5.383-1.823,10.824.113,14.906,3.377-2.672-2.136,1.209-7.676,2.965-9.031a21.713,21.713,0,0,1,8.791-3.76c5.33-1.116,13.312-1.092,16.42,4.335,1,1.745.185,5.157,1.8,6.239,1.38-2.8,6.108-2.908,8.785-2.425,3.789.684,4.354,2.56,5.32,5.819-.68-2.3,4.932-1.382,5.816-.553,3.34,3.134-.511,5.243-3.323,5.343-4.661.166-9.358.056-14.021.056h-47.566A19.919,19.919,0,0,1,1264.492,446.871Z" transform="translate(-1185.984 -425.285)" fill="#ebe0d7"/>
            <path id="Path_1257441" data-name="Path 1257441" d="M1881.633,412.483a9.713,9.713,0,0,0-6.766,4.351c-3.023,5.228.987,9.9,6.157,11.347,4.609,1.292,9.654,1.092,12.141-3.249a8.4,8.4,0,0,0-5.178-12.311A15.032,15.032,0,0,0,1881.633,412.483Z" transform="translate(-1704.332 -412.209)" fill="#f1d6b3"/>
          </g>
        </g>
        <g id="Group_1203991" data-name="Group 1203991" transform="translate(335 378.043)">
          <g id="Group_1203945" data-name="Group 1203945" transform="translate(115.221 0)">
            <path id="Path_1257442" data-name="Path 1257442" d="M1324.465,624.648c19.087,3.932,41.113,8.53,55.631,22.553,12.565,12.136,20.908,65.585.691,74.926-23.3,10.767-48.368-22.551-72.225-21.331-42.988,2.2-85.176-13.137-126.95-20.861-25.188-4.658-49.212-13.3-72.174-24.264-6.914-3.3-15.546-7.876-20.137-14.005,8.027-5.137,18.542-6.757,27.8-8.1,9.687-1.406,17.893-2.507,27.556-4.552,31.036-6.57,63.33-8.186,95-9.2C1267.946,618.905,1296.625,618.913,1324.465,624.648Z" transform="translate(-1089.302 -618.975)" fill="#ebe0d7"/>
            <path id="Path_1257443" data-name="Path 1257443" d="M2600.133,768.265c2.02-2.5,4.136-5.231,6.594-7.076a79.327,79.327,0,0,1,26.812-12.745c3.858-.976,7.23-3.183,11.272-2.965-2.612-2.57-7.609-6.4-11.347-6.68-3.6-.273-8.3,1.587-11.689,2.648a99.533,99.533,0,0,0-17.653,7.232c-5.707,3.094-20.42,11.638-17.21,20.2.963,2.57,3.652,2.932,6.021,3.169,2.771.277,4.133-.112,5.9-2.2C2599.262,769.339,2599.7,768.807,2600.133,768.265Z" transform="translate(-2357.765 -720.137)" fill="#ddcbbc"/>
            <path id="Path_1257444" data-name="Path 1257444" d="M2723.829,851.664c2.02-2.5,4.136-5.231,6.6-7.078,8.433-6.328,20.061-12.009,30.821-11.612-.6-2.526-1.573-6.755-3.475-8.833-3.831-4.184-7.4-2.013-12.215-.705a82.524,82.524,0,0,0-12.129,4.168c-7.023,3.117-26.352,15.251-22.82,24.672.964,2.57,3.652,2.931,6.022,3.169,2.771.277,4.133-.112,5.9-2.2C2722.957,852.738,2723.391,852.206,2723.829,851.664Z" transform="translate(-2462.587 -790.393)" fill="#ddcbbc"/>
            <path id="Path_1257445" data-name="Path 1257445" d="M2808.089,981.769a40.7,40.7,0,0,1,6.595-7.076c8.92-6.7,27.419-6.653,20.479-22.011-6.342,1.277-11.375,2.319-17.475,5.027-7.023,3.117-26.352,15.251-22.82,24.672.963,2.57,3.652,2.932,6.021,3.169,2.771.277,4.133-.112,5.9-2.2C2807.218,982.844,2807.651,982.312,2808.089,981.769Z" transform="translate(-2533.976 -901.372)" fill="#ddcbbc"/>
            <path id="Path_1257446" data-name="Path 1257446" d="M2430.7,716.078a15.841,15.841,0,0,0,3.162-2.561c1.4-1.555,2.192-3.332,3.772-4.825a93.914,93.914,0,0,1,10.063-7.729,148.466,148.466,0,0,1,24.842-14.619c1.564-.713,3.212-1.182,4.745-1.927.491-.238,4.493-1.23,4.686-.809-.474-1.038-3.045-1.952-4.088-2.389-4.771-2-8.923-1.185-13.66.428-6.745,2.3-13.8,4.9-19.691,9.065-7.29,5.15-15.938,11.161-20.911,18.842-1.093,1.688-4.058,6.234-2.323,8.1,1.189,1.279,5.145.967,6.524.157C2428.724,717.281,2429.727,716.708,2430.7,716.078Z" transform="translate(-2217.379 -670.376)" fill="#ddcbbc"/>
            <path id="Path_1257447" data-name="Path 1257447" d="M2243.162,684.238a15.84,15.84,0,0,0,3.163-2.561c1.4-1.555,2.192-3.332,3.772-4.825a93.936,93.936,0,0,1,10.063-7.729A148.5,148.5,0,0,1,2285,654.5c2.409-1.1,7.516-2.12,9.016-4.254-1.321-2.014-5.615-2.007-7.7-2.172-3.49-.276-6.34.606-9.638,1.729-6.745,2.3-13.8,4.9-19.692,9.065-7.289,5.15-15.938,11.161-20.911,18.842-1.093,1.688-4.058,6.234-2.323,8.1,1.189,1.279,5.144.967,6.524.157C2241.187,685.441,2242.19,684.868,2243.162,684.238Z" transform="translate(-2058.489 -643.254)" fill="#ddcbbc"/>
            <path id="Path_1257448" data-name="Path 1257448" d="M2096.332,655.168c3.051-6.942,10.581-12.144,16.616-16.284a94.653,94.653,0,0,1,21.355-10.955c3.5-1.289,6.757-3.173,10.229-4.319,1.588-.524,3.981-.663,5.307-1.69-2.026-1.134-5.145-.939-7.559-1.367-10.662-1.893-22.11,4.107-31.513,8.707a46.989,46.989,0,0,0-17.474,13.77C2087.395,650.431,2090.876,654.57,2096.332,655.168Z" transform="translate(-1937.33 -619.672)" fill="#ddcbbc"/>
            <path id="Path_1257449" data-name="Path 1257449" d="M1886.632,656.034c2.07-7.295,8.816-13.48,14.226-18.409a93.407,93.407,0,0,1,11.668-9.06c2.064-1.353,4.184-2.61,6.333-3.822,1.653-.932,3.071-2.136,4.807-3.052,1.229-.649,2.485-1.23,3.71-1.853a54.4,54.4,0,0,1,6.044-2.291c0-.011,0-.285,0-.3-1.416-.089-2.822-.466-4.251-.466-2.881,0-5.7.189-8.538.337-9,.468-16.08,6.443-23.256,11.274a46.99,46.99,0,0,0-15.421,16.036C1877.131,652.567,1881.146,656.19,1886.632,656.034Z" transform="translate(-1759.048 -616.779)" fill="#ddcbbc"/>
            <path id="Path_1257450" data-name="Path 1257450" d="M1654.97,663.382c2.07-7.295,8.816-13.48,14.226-18.409a94.646,94.646,0,0,1,19.651-13.78c3.292-1.757,6.258-4.069,9.54-5.681,1.689-.829,3.359-1.243,4.844-2.366-4.441-1.6-16.757,1.21-21.3,2.808-5.8,2.039-11.165,6.383-16.217,9.784a46.994,46.994,0,0,0-15.421,16.036C1645.468,659.915,1649.483,663.537,1654.97,663.382Z" transform="translate(-1562.772 -621.768)" fill="#ddcbbc"/>
            <path id="Path_1257451" data-name="Path 1257451" d="M1425.513,681.031c2.07-7.295,8.816-13.48,14.226-18.409a94.635,94.635,0,0,1,19.651-13.78c3.292-1.757,6.258-4.069,9.54-5.68,1.689-.829,3.359-1.243,4.844-2.366-4.441-1.6-16.757,1.21-21.3,2.808-5.8,2.04-11.165,6.383-16.217,9.784a46.987,46.987,0,0,0-15.421,16.036C1416.011,677.564,1420.026,681.186,1425.513,681.031Z" transform="translate(-1368.365 -636.721)" fill="#ddcbbc"/>
            <path id="Path_1257452" data-name="Path 1257452" d="M1320.057,675.542a28.833,28.833,0,0,0-5.9.685c-5.7,1.191-11.678,5.536-15.68,9.652-2.085,2.144-6.627,6.17-7.382,9.12-.7,2.753,2.863,3.275,4.836,2.973,3.036-.464,5.936-3.276,7.865-5.468,4.306-4.892,10.26-7.341,15.029-11.6,1.246-1.113,5.9-5.17,1.511-5.354C1320.247,675.546,1320.153,675.543,1320.057,675.542Z" transform="translate(-1260.197 -666.564)" fill="#ddcbbc"/>
          </g>
          <g id="Group_1203946" data-name="Group 1203946" transform="translate(0 13.247)">
            <path id="Path_1257453" data-name="Path 1257453" d="M352.147,707.925q.545-.467,1.139-.9c4.573-3.314,11.412-3,16.906-3.2,6.034-.222,12.07-.036,18.105-.137,82.374-1.382,164.276,4.942,245.165,20.807,4.034.791,8.068,1.59,12.09,2.437l.2.042c8.467,1.754,16.92,3.616,25.309,5.714,27.237,6.682,54.339,15.088,71.911,29.593,4.743,3.915,7.059,8.3,5.337,8.566-33.608,5.1-111.734,12.738-146.076,15.974-34.685,3.269-71.859,7.018-104.478,15.136-22.182,5.521-45.139,10.891-69.158,12.746-16.958,1.31-46.38,5.788-61.091-1.518-5.169-2.567-8.3-5.85-14.006-7.129-4.852-1.088-9.447-2.284-12.687-6.366-7.87-9.915-6.131-27.43-4.1-38.95,1.69-9.571,3.234-19.352,5.5-28.791C344.221,723.645,345.346,713.755,352.147,707.925Z" transform="translate(-335 -703.501)" fill="#f6bf6d"/>
            <path id="Path_1257454" data-name="Path 1257454" d="M707.865,949.612q4.321.205,8.676.43c4.85.253,11.038,1.218,15.35.385-9.421-8.415-20.662-9.743-32.48-10.829-25.141-2.311-50.572-3.105-75.809-3.227-15.974-.077-32.313-.659-48.695-1.222-7.671-.263-15.016.134-22.572.123-5.927-.009-11.568.172-17.514.073-17.211-.288-34.426,1.069-51.535,1.765-19,.774-38.043,1.406-56.982,2.485-13.584.774-26.955.946-40.429,2.32-10.1,1.029-20.813,2.263-30.741,4.193-4.542.883-11.29.679-15.116,3.59-1.615,1.229-2.259,4.223-2.742,6.106a76,76,0,0,0-1.428,8.588,15.884,15.884,0,0,0,0,4.528c.443,2.954,2.364,1.257,4.2.323,2.642-1.343,4.838-3.426,7.543-4.661,11.491-5.248,25.754-5.187,38.1-6.451,21.449-2.2,42.884-3.615,64.706-4.662,22.256-1.068,43.98-2.931,66.221-2.92,15.006.007,29.9-2.825,44.952-3.55,40.363-1.945,80.689-.754,121.348,1.416C691.3,948.861,699.546,949.217,707.865,949.612Z" transform="translate(-335.581 -899.688)" fill="#e5ab5e"/>
            <path id="Path_1257455" data-name="Path 1257455" d="M375.2,806.782a3.582,3.582,0,0,0-.112.6,1.941,1.941,0,0,0,.389.319c.572-.457,2.324-.393,3.123-.616a29.412,29.412,0,0,1,2.906-.836c5.262-.894,10.654-1.543,15.987-1.994,21.411-1.81,42.448-3.205,63.788-4.264,20.059-.995,41.346-.966,61.421.031,14.719.731,29.676-.012,44.415-.012,29.179,0,58.126,2.785,87.267,3.033,9.775.083,19.552,1.516,29.572,1.516,4.292,0,12.906,1.393,21.073.564-18.369-4.856-39.535-9.475-57.654-9.873-13.972-.307-27.068-1.79-41-3.277-8.51-.908-17.448-1.591-26.091-1.907-8.754-.32-17.672-.182-26.495-.165-19.07.035-38.132-.574-57.2-.861-17.9-.269-35.579.861-53.507.861-12.278,0-24.275,2.327-36.476,1a84.391,84.391,0,0,0-17.408.421c-2.072.2-4.137.491-6.216.611-.833.048-1.567.239-2.365.324-.67.072-1.206-.241-1.556.552a27.745,27.745,0,0,0-.9,3.512c-.317,1.136-.645,2.274-.955,3.414-.5,1.843-.8,3.74-1.466,5.522C375.552,805.766,375.339,806.277,375.2,806.782Z" transform="translate(-368.969 -775.937)" fill="#e5ab5e"/>
          </g>
          <g id="Group_1203990" data-name="Group 1203990" transform="translate(0.205 59.77)">
            <g id="Group_1203968" data-name="Group 1203968" transform="translate(120.309)">
              <g id="Group_1203947" data-name="Group 1203947" transform="translate(0 0.029)">
                <path id="Path_1257456" data-name="Path 1257456" d="M1212.077,1068.243a482.006,482.006,0,0,0-88.128-51.517c11.738-1.71,23.243-3.038,35.069-4.2,17.8-2.026,35.261-3.377,53.06-3.715,50.136-1.293,100.389-.546,150.291,4.851q18.853,2.039,37.6,4.959c8.675,1.358,14.914,2.527,19.178,10.975,6.25,12.382,2.879,29.724.841,42.588-2.569,16.215-8.409,34.792-17.833,48.4-13.41,19.372-34.289,34.556-55.334,45.167-11.322,5.708-16.689,7.774-34.855,12.7-.787.214-.428-.282-1.188,0q-1.126-2.26-2.316-4.513C1284.615,1130.717,1252.712,1097.96,1212.077,1068.243Z" transform="translate(-1123.949 -1008.258)" fill="#697a44"/>
                <path id="Path_1257457" data-name="Path 1257457" d="M1762.117,1008.272c20.581,13.014,40.286,27.8,60.513,43.435,6.045,4.39,10.411,9.793,15.448,14.859,19.142,19.924,39.963,35.8,55.075,60.11,1.679,2.7,3.694,4.728,5.373,7.092a2.192,2.192,0,0,1,.432,1.29,130.43,130.43,0,0,1-17.139,14.593c-.746-2.249-1.388-4.7-3.107-6.427a128.138,128.138,0,0,1-14.44-15.872c-15.448-19.924-32.239-35.458-50.709-51.668-13.433-12.157-27.537-20.937-41.306-32.419a450.033,450.033,0,0,0-47.776-34.534Q1743.293,1008.284,1762.117,1008.272Z" transform="translate(-1632.748 -1008.27)" fill="#77835e"/>
                <path id="Path_1257458" data-name="Path 1257458" d="M2717.318,1047.76c11.389,8.357,21.322,17.657,28.977,28.611.148,7.5-1.037,15.3-2.144,22.181-16.933-20.657-36.67-38.74-58-54.784Q2701.769,1045.462,2717.318,1047.76Z" transform="translate(-2447.518 -1038.344)" fill="#77835e"/>
                <path id="Path_1257459" data-name="Path 1257459" d="M2225.91,1012.911c17.429,12.584,32.33,23.916,48.85,37.207a155.8,155.8,0,0,1,34.926,37.822c1.679,2.7,3.694,4.728,5.373,7.091.329.4.642.794.948,1.191a109.85,109.85,0,0,1-9.874,22.425c-5.462-6.13-9.816-12.477-15.253-18.551-14.776-16.885-29.216-31.744-45.336-46.94-2.015-1.688-4.7-2.7-6.381-4.39a548.928,548.928,0,0,0-51.59-37.588Q2206.757,1011.7,2225.91,1012.911Z" transform="translate(-2025.102 -1010.733)" fill="#77835e"/>
                <path id="Path_1257460" data-name="Path 1257460" d="M1429.9,1015.11c14.863-.726,47.235,27.925,57.709,36.6,40.623,33.661,63.2,60.944,101.139,97.631,3.2,3.065,7.74,6.429,9.89,10.391,2.66,4.9,4.053,2.739-.009,5.908-5.247,4.094-18.373,10.054-24.693,11.606.267-.066-9.092-18.288-9.946-19.251-6.448-7.267-12.671-14.732-18.907-22.182-12.5-14.934-25.032-29.9-39.2-43.3-26.437-25-56.106-49.581-88.325-66.684-3.99-2.118-17.914-9.588-5.184-10.6,5.3-.42,10.792,0,16.116,0C1428.965,1015.177,1429.432,1015.133,1429.9,1015.11Z" transform="translate(-1363.872 -1014.017)" fill="#77835e"/>
              </g>
              <g id="Group_1203967" data-name="Group 1203967" transform="translate(38.046)">
                <g id="Group_1203948" data-name="Group 1203948" transform="translate(92.827 65.954)">
                  <path id="Path_1257461" data-name="Path 1257461" d="M2059.641,1539.737a.338.338,0,0,1-.325-.425c1.477-5.465.434-11.278-.762-16.764a.337.337,0,0,1,.658-.143c1.213,5.567,2.271,11.471.755,17.083A.337.337,0,0,1,2059.641,1539.737Z" transform="translate(-2046.657 -1509.569)" fill="#4d592b"/>
                  <path id="Path_1257462" data-name="Path 1257462" d="M2058.883,1454.1a.337.337,0,0,1-.333-.386c.057-.383.106-.771.155-1.158a19.509,19.509,0,0,1,.656-3.473,13.6,13.6,0,0,1,.846-2.048,5.406,5.406,0,0,1,.442-.653,3.583,3.583,0,0,0,.575-.933.335.335,0,0,1,.064-.167c2.675-3.643,7.575-4.848,11.029-5.438a.337.337,0,0,1,.393.31,11.273,11.273,0,0,1-2.314,7.283,10.514,10.514,0,0,1-2.6,2.586,16.055,16.055,0,0,1-3.328,1.557c-1.107.417-2.15.928-3.159,1.422-.735.36-1.5.732-2.287,1.073A.338.338,0,0,1,2058.883,1454.1Zm2.995-8.484a3.65,3.65,0,0,1-.688,1.167,5.243,5.243,0,0,0-.383.558,12.934,12.934,0,0,0-.8,1.946,18.9,18.9,0,0,0-.63,3.353c-.024.191-.048.381-.073.571.582-.265,1.152-.544,1.707-.815,1.024-.5,2.081-1.019,3.218-1.448a15.531,15.531,0,0,0,3.191-1.487,9.846,9.846,0,0,0,2.435-2.423,10.752,10.752,0,0,0,2.2-6.466C2068.766,1441.165,2064.325,1442.349,2061.878,1445.619Z" transform="translate(-2046.658 -1439.841)" fill="#4d592b"/>
                  <path id="Path_1257463" data-name="Path 1257463" d="M1993.208,1500.061a.336.336,0,0,1-.165-.044,2.907,2.907,0,0,0-1.359-.372,13.033,13.033,0,0,1-2.115-.272c-.435-.081-.883-.164-1.343-.218l-.2-.023a16.111,16.111,0,0,1-4.034-.823,5.543,5.543,0,0,1-3.248-2.965.337.337,0,0,1,.431-.438,4.867,4.867,0,0,0,3.109-.308c.425-.132.864-.269,1.3-.364a6.711,6.711,0,0,1,5.264,1.084,6.319,6.319,0,0,1,2.7,4.362.337.337,0,0,1-.334.381Zm-11.524-4.348a5.248,5.248,0,0,0,2.551,1.968,15.606,15.606,0,0,0,3.867.781l.2.023c.482.056.943.142,1.388.225a12.352,12.352,0,0,0,2.007.261,3.58,3.58,0,0,1,1.059.186,5.691,5.691,0,0,0-2.3-3.288,6.035,6.035,0,0,0-4.734-.978c-.407.089-.833.221-1.243.349A6.979,6.979,0,0,1,1981.684,1495.713Z" transform="translate(-1980.719 -1485.799)" fill="#4d592b"/>
                </g>
                <g id="Group_1203949" data-name="Group 1203949" transform="translate(162.227 26.949)">
                  <path id="Path_1257464" data-name="Path 1257464" d="M2513.971,1284.388a.333.333,0,0,1-.088-.012.337.337,0,0,1-.238-.413c1.477-5.464.433-11.278-.762-16.763a.337.337,0,0,1,.659-.143c1.213,5.567,2.27,11.472.754,17.083A.338.338,0,0,1,2513.971,1284.388Z" transform="translate(-2500.987 -1254.219)" fill="#4d592b"/>
                  <path id="Path_1257465" data-name="Path 1257465" d="M2513.214,1198.753a.337.337,0,0,1-.333-.386c.056-.384.106-.771.155-1.159a19.462,19.462,0,0,1,.656-3.472,13.568,13.568,0,0,1,.846-2.048,5.381,5.381,0,0,1,.442-.653,3.592,3.592,0,0,0,.575-.934.331.331,0,0,1,.064-.167c2.675-3.643,7.575-4.848,11.029-5.438a.337.337,0,0,1,.393.31,11.273,11.273,0,0,1-2.314,7.283,10.5,10.5,0,0,1-2.6,2.586,16.039,16.039,0,0,1-3.328,1.557c-1.106.417-2.149.928-3.158,1.422-.736.36-1.5.733-2.288,1.073A.336.336,0,0,1,2513.214,1198.753Zm2.994-8.484a3.653,3.653,0,0,1-.688,1.167,5.3,5.3,0,0,0-.383.558,12.948,12.948,0,0,0-.8,1.947,18.91,18.91,0,0,0-.63,3.352c-.024.191-.048.381-.073.571.583-.265,1.153-.544,1.708-.816,1.023-.5,2.081-1.019,3.217-1.447a15.543,15.543,0,0,0,3.191-1.486,9.836,9.836,0,0,0,2.434-2.423,10.747,10.747,0,0,0,2.2-6.466C2523.1,1185.815,2518.656,1187,2516.208,1190.269Z" transform="translate(-2500.989 -1184.49)" fill="#4d592b"/>
                  <path id="Path_1257466" data-name="Path 1257466" d="M2447.536,1244.71a.335.335,0,0,1-.165-.043,2.909,2.909,0,0,0-1.359-.373,13.019,13.019,0,0,1-2.115-.272c-.434-.081-.883-.164-1.343-.218l-.2-.023a16.108,16.108,0,0,1-4.034-.823,5.542,5.542,0,0,1-3.249-2.965.337.337,0,0,1,.431-.438,4.869,4.869,0,0,0,3.109-.308c.425-.132.864-.269,1.3-.364a6.714,6.714,0,0,1,5.265,1.084,6.32,6.32,0,0,1,2.695,4.362.336.336,0,0,1-.334.381Zm-11.524-4.347a5.251,5.251,0,0,0,2.552,1.968,15.592,15.592,0,0,0,3.866.781l.2.024c.483.056.943.142,1.388.224a12.292,12.292,0,0,0,2.007.261,3.575,3.575,0,0,1,1.059.186,5.691,5.691,0,0,0-2.3-3.289,6.035,6.035,0,0,0-4.734-.977c-.408.089-.833.221-1.244.349A6.97,6.97,0,0,1,2436.012,1240.363Zm3.97-1.151h0Z" transform="translate(-2435.047 -1230.448)" fill="#4d592b"/>
                </g>
                <g id="Group_1203950" data-name="Group 1203950" transform="translate(189.919 53.709)">
                  <path id="Path_1257467" data-name="Path 1257467" d="M2695.257,1459.577a.345.345,0,0,1-.088-.011.337.337,0,0,1-.237-.413c1.477-5.466.434-11.279-.762-16.764a.337.337,0,1,1,.658-.143c1.213,5.566,2.271,11.471.754,17.083A.337.337,0,0,1,2695.257,1459.577Z" transform="translate(-2682.274 -1429.408)" fill="#4d592b"/>
                  <path id="Path_1257468" data-name="Path 1257468" d="M2694.5,1373.941a.337.337,0,0,1-.333-.386c.057-.384.106-.771.155-1.159a19.5,19.5,0,0,1,.656-3.472,13.616,13.616,0,0,1,.846-2.048,5.3,5.3,0,0,1,.442-.653,3.6,3.6,0,0,0,.575-.934.334.334,0,0,1,.064-.167c2.675-3.643,7.575-4.849,11.028-5.438a.337.337,0,0,1,.393.309,11.266,11.266,0,0,1-2.313,7.282,10.513,10.513,0,0,1-2.6,2.587,16.065,16.065,0,0,1-3.328,1.557c-1.106.417-2.15.928-3.158,1.422-.736.36-1.5.733-2.288,1.073A.336.336,0,0,1,2694.5,1373.941Zm2.995-8.484a3.653,3.653,0,0,1-.688,1.167,5.192,5.192,0,0,0-.383.557,12.986,12.986,0,0,0-.8,1.947,18.926,18.926,0,0,0-.629,3.352c-.024.191-.048.381-.073.571.583-.265,1.152-.544,1.708-.816,1.023-.5,2.081-1.019,3.218-1.447a15.546,15.546,0,0,0,3.191-1.486,9.84,9.84,0,0,0,2.434-2.423,10.744,10.744,0,0,0,2.2-6.466C2704.383,1361,2699.942,1362.187,2697.5,1365.457Z" transform="translate(-2682.275 -1359.679)" fill="#4d592b"/>
                  <path id="Path_1257469" data-name="Path 1257469" d="M2628.822,1419.9a.338.338,0,0,1-.165-.043,2.908,2.908,0,0,0-1.359-.373,13,13,0,0,1-2.115-.272c-.434-.081-.883-.164-1.343-.218l-.2-.023a16.1,16.1,0,0,1-4.034-.823,5.543,5.543,0,0,1-3.248-2.965.336.336,0,0,1,.431-.438,4.868,4.868,0,0,0,3.109-.308c.425-.132.864-.269,1.3-.364a6.713,6.713,0,0,1,5.264,1.084,6.317,6.317,0,0,1,2.695,4.362.336.336,0,0,1-.334.381Zm-11.524-4.347a5.253,5.253,0,0,0,2.552,1.968,15.6,15.6,0,0,0,3.867.781l.2.024c.482.056.942.142,1.387.224a12.3,12.3,0,0,0,2.008.261,3.579,3.579,0,0,1,1.059.186,5.691,5.691,0,0,0-2.3-3.288,6.037,6.037,0,0,0-4.734-.978c-.408.089-.833.221-1.244.349A6.974,6.974,0,0,1,2617.3,1415.552Zm3.971-1.151h0Z" transform="translate(-2616.333 -1405.637)" fill="#4d592b"/>
                </g>
                <g id="Group_1203951" data-name="Group 1203951" transform="translate(21.007 11.578)">
                  <path id="Path_1257470" data-name="Path 1257470" d="M1569.189,1157.422a.337.337,0,0,1-.325-.249c-1.119-4.141-.34-8.49.553-12.591a.337.337,0,0,1,.659.143c-.876,4.019-1.641,8.277-.561,12.271a.337.337,0,0,1-.326.425Z" transform="translate(-1559.486 -1135.083)" fill="#4d592b"/>
                  <path id="Path_1257471" data-name="Path 1257471" d="M1520.8,1094.518a.336.336,0,0,1-.133-.027c-.583-.251-1.142-.525-1.684-.79-.739-.362-1.5-.737-2.313-1.042a11.855,11.855,0,0,1-2.463-1.153,7.811,7.811,0,0,1-1.936-1.922,8.369,8.369,0,0,1-1.717-5.408.338.338,0,0,1,.393-.309c2.552.436,6.174,1.328,8.158,4.03a.337.337,0,0,1,.064.167,2.884,2.884,0,0,0,.405.641,4.041,4.041,0,0,1,.332.493,10.06,10.06,0,0,1,.627,1.518,14.408,14.408,0,0,1,.485,2.567c.036.284.072.568.113.849a.337.337,0,0,1-.333.386Zm-9.586-9.92a7.846,7.846,0,0,0,1.6,4.59,7.14,7.14,0,0,0,1.766,1.758,11.345,11.345,0,0,0,2.326,1.083c.839.316,1.618.7,2.372,1.067.36.176.729.357,1.1.531l-.033-.259a13.8,13.8,0,0,0-.459-2.447,9.387,9.387,0,0,0-.585-1.416,3.746,3.746,0,0,0-.274-.4,2.849,2.849,0,0,1-.516-.872C1516.766,1085.9,1513.6,1085.034,1511.218,1084.6Z" transform="translate(-1510.544 -1083.863)" fill="#4d592b"/>
                  <path id="Path_1257472" data-name="Path 1257472" d="M1574.577,1128.276a.337.337,0,0,1-.334-.381,4.731,4.731,0,0,1,2.017-3.266,5.017,5.017,0,0,1,3.937-.811c.324.071.649.172.963.269a3.516,3.516,0,0,0,2.226.228.337.337,0,0,1,.431.438,4.16,4.16,0,0,1-2.437,2.229,11.886,11.886,0,0,1-2.985.61l-.147.017c-.335.039-.663.1-.981.159a9.62,9.62,0,0,1-1.568.2,2.044,2.044,0,0,0-.956.262A.337.337,0,0,1,1574.577,1128.276Zm4.583-3.9a4.386,4.386,0,0,0-2.514.8,4.106,4.106,0,0,0-1.611,2.21,2.72,2.72,0,0,1,.648-.094,8.981,8.981,0,0,0,1.46-.19c.329-.061.668-.124,1.026-.166l.148-.017a11.4,11.4,0,0,0,2.818-.568,3.87,3.87,0,0,0,1.727-1.259,5.712,5.712,0,0,1-1.9-.366c-.314-.1-.611-.19-.906-.254A4.182,4.182,0,0,0,1579.16,1124.381Z" transform="translate(-1564.51 -1117.621)" fill="#4d592b"/>
                </g>
                <g id="Group_1203952" data-name="Group 1203952" transform="translate(83.176 10.832)">
                  <path id="Path_1257473" data-name="Path 1257473" d="M1976.177,1152.543a.337.337,0,0,1-.325-.249c-1.119-4.142-.34-8.491.553-12.591a.337.337,0,0,1,.659.144c-.876,4.018-1.641,8.276-.561,12.271a.337.337,0,0,1-.237.413A.327.327,0,0,1,1976.177,1152.543Z" transform="translate(-1966.474 -1130.203)" fill="#4d592b"/>
                  <path id="Path_1257474" data-name="Path 1257474" d="M1927.794,1089.639a.338.338,0,0,1-.133-.027c-.583-.251-1.143-.525-1.684-.79-.739-.362-1.5-.736-2.313-1.041a11.85,11.85,0,0,1-2.463-1.153,7.8,7.8,0,0,1-1.936-1.922,8.368,8.368,0,0,1-1.717-5.408.337.337,0,0,1,.393-.309c2.552.436,6.174,1.328,8.158,4.03a.334.334,0,0,1,.064.167,2.909,2.909,0,0,0,.406.642,3.986,3.986,0,0,1,.333.492,10.125,10.125,0,0,1,.627,1.518,14.382,14.382,0,0,1,.485,2.564c.036.285.072.57.114.852a.337.337,0,0,1-.333.386Zm-9.586-9.92a7.843,7.843,0,0,0,1.6,4.59,7.139,7.139,0,0,0,1.766,1.758,11.337,11.337,0,0,0,2.326,1.082c.839.316,1.618.7,2.371,1.067.361.176.729.357,1.105.531-.011-.087-.022-.175-.033-.262a13.869,13.869,0,0,0-.458-2.444,9.434,9.434,0,0,0-.585-1.416,3.892,3.892,0,0,0-.273-.4,2.854,2.854,0,0,1-.517-.872C1923.756,1081.024,1920.591,1080.155,1918.208,1079.719Z" transform="translate(-1917.534 -1078.984)" fill="#4d592b"/>
                  <path id="Path_1257475" data-name="Path 1257475" d="M1981.566,1123.4a.337.337,0,0,1-.334-.381,4.73,4.73,0,0,1,2.017-3.266,5.018,5.018,0,0,1,3.937-.81c.324.071.649.172.963.269a3.516,3.516,0,0,0,2.227.228.337.337,0,0,1,.431.439,4.159,4.159,0,0,1-2.437,2.229,11.9,11.9,0,0,1-2.985.61l-.148.017c-.334.039-.663.1-.98.159a9.638,9.638,0,0,1-1.569.2,2.046,2.046,0,0,0-.956.262A.335.335,0,0,1,1981.566,1123.4Zm4.583-3.9a4.385,4.385,0,0,0-2.513.8,4.108,4.108,0,0,0-1.611,2.21,2.71,2.71,0,0,1,.647-.094,8.991,8.991,0,0,0,1.461-.19c.328-.061.668-.124,1.025-.166l.148-.017a11.407,11.407,0,0,0,2.818-.568,3.867,3.867,0,0,0,1.727-1.259,5.731,5.731,0,0,1-1.9-.366c-.314-.1-.61-.19-.906-.254A4.207,4.207,0,0,0,1986.149,1119.5Z" transform="translate(-1971.5 -1112.742)" fill="#4d592b"/>
                </g>
                <g id="Group_1203953" data-name="Group 1203953" transform="translate(113.752 92.633)">
                  <path id="Path_1257476" data-name="Path 1257476" d="M2217.313,1740.507a.321.321,0,0,1-.088-.012.336.336,0,0,1-.237-.413c1.871-6.922.551-14.277-.962-21.218a.337.337,0,0,1,.658-.143c1.53,7.021,2.864,14.468.954,21.537A.337.337,0,0,1,2217.313,1740.507Z" transform="translate(-2201 -1702.575)" fill="#4d592b"/>
                  <path id="Path_1257477" data-name="Path 1257477" d="M2216.355,1632.334a.336.336,0,0,1-.333-.386c.072-.485.134-.975.2-1.465a24.516,24.516,0,0,1,.825-4.371,17.16,17.16,0,0,1,1.063-2.574,6.718,6.718,0,0,1,.55-.812,4.349,4.349,0,0,0,.744-1.224.329.329,0,0,1,.064-.167c3.359-4.576,9.527-6.092,13.874-6.835a.337.337,0,0,1,.393.309,14.146,14.146,0,0,1-2.906,9.141,13.178,13.178,0,0,1-3.268,3.246,20.212,20.212,0,0,1-4.186,1.957c-1.4.528-2.722,1.175-4,1.8-.927.454-1.888.924-2.884,1.353A.343.343,0,0,1,2216.355,1632.334Zm3.7-10.665a4.656,4.656,0,0,1-.857,1.458,6.42,6.42,0,0,0-.491.717,16.463,16.463,0,0,0-1.021,2.472,23.945,23.945,0,0,0-.8,4.251q-.056.44-.114.878c.788-.354,1.557-.73,2.3-1.1,1.291-.632,2.625-1.286,4.057-1.826a19.7,19.7,0,0,0,4.049-1.887,12.515,12.515,0,0,0,3.1-3.082,13.623,13.623,0,0,0,2.8-8.325C2228.894,1615.971,2223.187,1617.467,2220.055,1621.669Z" transform="translate(-2201.001 -1614.496)" fill="#4d592b"/>
                  <path id="Path_1257478" data-name="Path 1257478" d="M2133.394,1690.387a.335.335,0,0,1-.165-.044,3.765,3.765,0,0,0-1.759-.482,16.383,16.383,0,0,1-2.658-.342c-.55-.1-1.118-.208-1.7-.276l-.255-.03a20.284,20.284,0,0,1-5.073-1.034,6.913,6.913,0,0,1-4.053-3.7.337.337,0,0,1,.431-.439c1.248.464,2.578.05,3.985-.388.535-.166,1.088-.339,1.635-.458a8.39,8.39,0,0,1,6.58,1.355,7.9,7.9,0,0,1,3.368,5.45.337.337,0,0,1-.334.381Zm-14.73-5.516a6.618,6.618,0,0,0,3.363,2.682,19.77,19.77,0,0,0,4.905.992l.256.03c.606.071,1.186.179,1.747.283a15.622,15.622,0,0,0,2.55.331,4.44,4.44,0,0,1,1.464.284,7.266,7.266,0,0,0-2.975-4.365,7.717,7.717,0,0,0-6.05-1.249l-.071-.329.071.329c-.519.113-1.057.281-1.578.443A8.27,8.27,0,0,1,2118.664,1684.87Z" transform="translate(-2117.706 -1672.548)" fill="#4d592b"/>
                </g>
                <g id="Group_1203954" data-name="Group 1203954" transform="translate(212.247 75.783)">
                  <path id="Path_1257479" data-name="Path 1257479" d="M2862.111,1630.2a.338.338,0,0,1-.326-.425c1.871-6.923.551-14.277-.962-21.218a.337.337,0,0,1,.658-.144c1.53,7.021,2.864,14.468.954,21.537A.338.338,0,0,1,2862.111,1630.2Z" transform="translate(-2845.798 -1592.266)" fill="#4d592b"/>
                  <path id="Path_1257480" data-name="Path 1257480" d="M2861.153,1522.025a.334.334,0,0,1-.205-.07.337.337,0,0,1-.128-.316c.072-.485.134-.974.2-1.465a24.557,24.557,0,0,1,.825-4.371,17.164,17.164,0,0,1,1.063-2.574,6.735,6.735,0,0,1,.551-.812,4.345,4.345,0,0,0,.744-1.224.335.335,0,0,1,.064-.167c3.36-4.576,9.527-6.092,13.874-6.835a.337.337,0,0,1,.393.31,14.149,14.149,0,0,1-2.906,9.141,13.181,13.181,0,0,1-3.268,3.246,20.221,20.221,0,0,1-4.186,1.957c-1.4.529-2.723,1.175-4,1.8-.927.454-1.886.924-2.882,1.352A.337.337,0,0,1,2861.153,1522.025Zm3.7-10.665a4.652,4.652,0,0,1-.857,1.458,6.507,6.507,0,0,0-.492.717,16.494,16.494,0,0,0-1.021,2.472,23.985,23.985,0,0,0-.8,4.251q-.055.44-.113.878c.787-.354,1.555-.73,2.3-1.1,1.292-.632,2.626-1.286,4.059-1.826a19.724,19.724,0,0,0,4.049-1.887,12.516,12.516,0,0,0,3.1-3.082,13.624,13.624,0,0,0,2.8-8.325C2873.692,1505.662,2867.985,1507.157,2864.853,1511.36Z" transform="translate(-2845.799 -1504.186)" fill="#4d592b"/>
                  <path id="Path_1257481" data-name="Path 1257481" d="M2778.191,1580.078a.338.338,0,0,1-.166-.043,3.76,3.76,0,0,0-1.758-.482,16.387,16.387,0,0,1-2.658-.342c-.55-.1-1.118-.208-1.7-.276l-.254-.029a20.278,20.278,0,0,1-5.074-1.034,6.912,6.912,0,0,1-4.053-3.695.337.337,0,0,1,.431-.438c1.247.463,2.577.05,3.985-.388.535-.166,1.088-.338,1.635-.458a8.387,8.387,0,0,1,6.579,1.355,7.9,7.9,0,0,1,3.368,5.45.337.337,0,0,1-.334.381Zm-14.73-5.516a6.619,6.619,0,0,0,3.363,2.682,19.787,19.787,0,0,0,4.907.992l.254.03c.606.071,1.186.178,1.747.283a15.638,15.638,0,0,0,2.55.331,4.432,4.432,0,0,1,1.463.284,7.265,7.265,0,0,0-2.976-4.365,7.712,7.712,0,0,0-6.049-1.249c-.519.113-1.058.281-1.579.443A8.26,8.26,0,0,1,2763.461,1574.561Z" transform="translate(-2762.504 -1562.239)" fill="#4d592b"/>
                </g>
                <g id="Group_1203955" data-name="Group 1203955" transform="translate(178.127 101.609)">
                  <path id="Path_1257482" data-name="Path 1257482" d="M2638.743,1799.267a.337.337,0,0,1-.325-.425c1.871-6.923.551-14.278-.962-21.218a.337.337,0,0,1,.658-.143c1.53,7.021,2.865,14.467.954,21.537A.337.337,0,0,1,2638.743,1799.267Z" transform="translate(-2622.431 -1761.336)" fill="#4d592b"/>
                  <path id="Path_1257483" data-name="Path 1257483" d="M2637.786,1691.095a.337.337,0,0,1-.333-.386c.072-.486.134-.976.2-1.468a24.531,24.531,0,0,1,.825-4.368,17.071,17.071,0,0,1,1.063-2.574,6.812,6.812,0,0,1,.55-.813,4.329,4.329,0,0,0,.744-1.223.331.331,0,0,1,.064-.167c3.359-4.576,9.527-6.092,13.874-6.835a.337.337,0,0,1,.393.309,14.151,14.151,0,0,1-2.906,9.141,13.188,13.188,0,0,1-3.268,3.245,20.2,20.2,0,0,1-4.186,1.957c-1.4.528-2.721,1.175-4,1.8-.928.454-1.888.924-2.884,1.353A.334.334,0,0,1,2637.786,1691.095Zm3.7-10.665a4.639,4.639,0,0,1-.857,1.458,6.476,6.476,0,0,0-.491.717,16.433,16.433,0,0,0-1.021,2.472,24.015,24.015,0,0,0-.8,4.249c-.037.294-.074.588-.114.88.788-.355,1.556-.731,2.3-1.1,1.291-.632,2.625-1.285,4.057-1.825a19.7,19.7,0,0,0,4.049-1.887,12.51,12.51,0,0,0,3.1-3.082,13.622,13.622,0,0,0,2.8-8.325C2650.325,1674.732,2644.618,1676.228,2641.486,1680.43Z" transform="translate(-2622.432 -1673.256)" fill="#4d592b"/>
                  <path id="Path_1257484" data-name="Path 1257484" d="M2554.824,1749.147a.339.339,0,0,1-.166-.043,3.756,3.756,0,0,0-1.758-.482,16.38,16.38,0,0,1-2.658-.342c-.55-.1-1.118-.208-1.7-.276l-.255-.03a20.268,20.268,0,0,1-5.073-1.034,6.915,6.915,0,0,1-4.053-3.7.337.337,0,0,1,.431-.438c1.249.464,2.578.05,3.985-.388.534-.167,1.087-.338,1.635-.458a8.389,8.389,0,0,1,6.58,1.355,7.9,7.9,0,0,1,3.367,5.45.337.337,0,0,1-.334.382Zm-14.729-5.516a6.621,6.621,0,0,0,3.364,2.682,19.78,19.78,0,0,0,4.905.992l.256.03c.606.071,1.186.179,1.747.283a15.622,15.622,0,0,0,2.55.331,4.427,4.427,0,0,1,1.463.284,7.26,7.26,0,0,0-2.975-4.365,7.712,7.712,0,0,0-6.05-1.249c-.519.113-1.057.281-1.578.443A8.256,8.256,0,0,1,2540.095,1743.631Z" transform="translate(-2539.137 -1731.309)" fill="#4d592b"/>
                </g>
                <g id="Group_1203956" data-name="Group 1203956" transform="translate(134.913 130.208)">
                  <path id="Path_1257485" data-name="Path 1257485" d="M2341.39,1968.247a.329.329,0,0,1-.088-.012.337.337,0,0,1-.238-.413c1.6-5.9.469-12.182-.823-18.106a.337.337,0,0,1,.659-.143c1.308,6.006,2.448,12.375.814,18.425A.337.337,0,0,1,2341.39,1968.247Z" transform="translate(-2327.403 -1935.74)" fill="#4d592b"/>
                  <path id="Path_1257486" data-name="Path 1257486" d="M2340.573,1875.821a.337.337,0,0,1-.333-.386c.061-.414.114-.832.167-1.25a21.043,21.043,0,0,1,.707-3.744,14.665,14.665,0,0,1,.912-2.206,5.775,5.775,0,0,1,.474-.7,3.753,3.753,0,0,0,.626-1.021.329.329,0,0,1,.064-.167c2.88-3.924,8.163-5.223,11.886-5.859a.337.337,0,0,1,.392.31,12.137,12.137,0,0,1-2.492,7.843,11.32,11.32,0,0,1-2.8,2.785,17.306,17.306,0,0,1-3.587,1.678c-1.2.451-2.322,1-3.411,1.536-.794.389-1.614.791-2.467,1.158A.338.338,0,0,1,2340.573,1875.821Zm3.206-9.141a4.061,4.061,0,0,1-.739,1.254,5.577,5.577,0,0,0-.416.606,14,14,0,0,0-.87,2.1,20.472,20.472,0,0,0-.681,3.624c-.028.221-.056.442-.085.663.645-.292,1.274-.6,1.887-.9,1.1-.54,2.245-1.1,3.47-1.561a16.808,16.808,0,0,0,3.45-1.607,10.649,10.649,0,0,0,2.635-2.622,11.615,11.615,0,0,0,2.382-7.026C2351.255,1861.851,2346.432,1863.129,2343.779,1866.68Z" transform="translate(-2327.404 -1860.481)" fill="#4d592b"/>
                  <path id="Path_1257487" data-name="Path 1257487" d="M2269.687,1925.423a.341.341,0,0,1-.166-.043,3.158,3.158,0,0,0-1.479-.406,14.029,14.029,0,0,1-2.278-.293c-.469-.087-.955-.177-1.452-.235l-.219-.026a17.363,17.363,0,0,1-4.346-.886,5.956,5.956,0,0,1-3.49-3.185.337.337,0,0,1,.431-.438,5.276,5.276,0,0,0,3.373-.333c.458-.142.931-.29,1.4-.392a7.216,7.216,0,0,1,5.66,1.166,6.8,6.8,0,0,1,2.9,4.69.337.337,0,0,1-.334.381Zm-12.491-4.7a5.664,5.664,0,0,0,2.8,2.183,16.852,16.852,0,0,0,4.178.845l.219.026c.52.06,1.016.153,1.5.242a13.3,13.3,0,0,0,2.17.282,3.854,3.854,0,0,1,1.181.215,6.164,6.164,0,0,0-2.5-3.612,6.544,6.544,0,0,0-5.13-1.059c-.441.1-.9.239-1.344.377A7.353,7.353,0,0,1,2257.2,1920.724Z" transform="translate(-2256.233 -1910.083)" fill="#4d592b"/>
                </g>
                <g id="Group_1203957" data-name="Group 1203957" transform="translate(154.471 74.759)">
                  <path id="Path_1257488" data-name="Path 1257488" d="M2469.427,1605.251a.337.337,0,0,1-.326-.425c1.6-5.9.469-12.182-.822-18.106a.337.337,0,0,1,.659-.144c1.308,6.005,2.449,12.375.814,18.425A.336.336,0,0,1,2469.427,1605.251Z" transform="translate(-2455.439 -1572.744)" fill="#4d592b"/>
                  <path id="Path_1257489" data-name="Path 1257489" d="M2468.609,1512.825a.337.337,0,0,1-.333-.386c.061-.414.114-.832.167-1.25a21.017,21.017,0,0,1,.707-3.744,14.636,14.636,0,0,1,.912-2.207,5.794,5.794,0,0,1,.474-.7,3.759,3.759,0,0,0,.626-1.021.333.333,0,0,1,.064-.167c2.881-3.924,8.163-5.223,11.886-5.859a.337.337,0,0,1,.393.31,12.137,12.137,0,0,1-2.492,7.843,11.308,11.308,0,0,1-2.8,2.785,17.307,17.307,0,0,1-3.587,1.678c-1.2.451-2.323,1-3.412,1.536-.794.388-1.614.79-2.467,1.157A.337.337,0,0,1,2468.609,1512.825Zm3.206-9.141a4.069,4.069,0,0,1-.738,1.254,5.419,5.419,0,0,0-.416.606,13.955,13.955,0,0,0-.87,2.1,20.443,20.443,0,0,0-.681,3.624q-.042.332-.084.663c.644-.292,1.273-.6,1.886-.9,1.1-.54,2.246-1.1,3.471-1.562a16.813,16.813,0,0,0,3.45-1.607,10.635,10.635,0,0,0,2.634-2.622,11.611,11.611,0,0,0,2.383-7.026C2479.292,1498.854,2474.469,1500.132,2471.816,1503.684Z" transform="translate(-2455.441 -1497.485)" fill="#4d592b"/>
                  <path id="Path_1257490" data-name="Path 1257490" d="M2397.723,1562.426a.335.335,0,0,1-.165-.043,3.17,3.17,0,0,0-1.479-.406,14.033,14.033,0,0,1-2.279-.293c-.469-.087-.954-.177-1.451-.235l-.217-.025a17.371,17.371,0,0,1-4.347-.886,5.955,5.955,0,0,1-3.491-3.185.337.337,0,0,1,.431-.438,5.274,5.274,0,0,0,3.373-.333c.458-.142.931-.29,1.4-.392a7.217,7.217,0,0,1,5.66,1.166,6.793,6.793,0,0,1,2.9,4.69.337.337,0,0,1-.334.381Zm-12.49-4.7a5.666,5.666,0,0,0,2.8,2.182,16.855,16.855,0,0,0,4.179.845l.218.026c.519.06,1.016.153,1.5.242a13.313,13.313,0,0,0,2.171.282,3.836,3.836,0,0,1,1.18.215,6.162,6.162,0,0,0-2.5-3.612,6.542,6.542,0,0,0-5.131-1.059c-.441.1-.9.239-1.344.377A7.351,7.351,0,0,1,2385.232,1557.727Z" transform="translate(-2384.27 -1547.086)" fill="#4d592b"/>
                </g>
                <g id="Group_1203958" data-name="Group 1203958" transform="translate(69.286 42.873)">
                  <path id="Path_1257491" data-name="Path 1257491" d="M1899.388,1380.886a.337.337,0,0,1-.326-.425c1.36-5.032.4-10.388-.7-15.442a.337.337,0,0,1,.659-.143c1.119,5.135,2.094,10.582.695,15.761A.337.337,0,0,1,1899.388,1380.886Z" transform="translate(-1887.392 -1353.021)" fill="#4d592b"/>
                  <path id="Path_1257492" data-name="Path 1257492" d="M1898.689,1301.941a.337.337,0,0,1-.333-.386c.052-.354.1-.711.143-1.069a17.944,17.944,0,0,1,.606-3.2,12.48,12.48,0,0,1,.782-1.892,4.949,4.949,0,0,1,.409-.605,3.338,3.338,0,0,0,.525-.847.338.338,0,0,1,.064-.167c2.472-3.366,7-4.479,10.184-5.024a.337.337,0,0,1,.393.31,10.417,10.417,0,0,1-2.138,6.731,9.715,9.715,0,0,1-2.408,2.391,14.839,14.839,0,0,1-3.073,1.438c-1.02.384-1.982.855-2.911,1.311-.678.332-1.379.675-2.108.989A.341.341,0,0,1,1898.689,1301.941Zm2.785-7.836a3.419,3.419,0,0,1-.638,1.08,4.767,4.767,0,0,0-.35.51,11.825,11.825,0,0,0-.74,1.79,17.45,17.45,0,0,0-.579,3.084c-.021.161-.041.321-.062.481.521-.238,1.031-.488,1.528-.731.944-.462,1.921-.941,2.97-1.336a14.309,14.309,0,0,0,2.936-1.368,9.053,9.053,0,0,0,2.238-2.227,9.9,9.9,0,0,0,2.026-5.914C1907.783,1290.019,1903.718,1291.11,1901.474,1294.1Z" transform="translate(-1887.393 -1288.74)" fill="#4d592b"/>
                  <path id="Path_1257493" data-name="Path 1257493" d="M1838.143,1344.307a.337.337,0,0,1-.165-.043,2.654,2.654,0,0,0-1.24-.34,12,12,0,0,1-1.954-.251c-.4-.074-.813-.151-1.236-.2l-.184-.021a14.876,14.876,0,0,1-3.726-.76,5.136,5.136,0,0,1-3.01-2.748.337.337,0,0,1,.431-.438,4.473,4.473,0,0,0,2.849-.285c.392-.122.8-.248,1.2-.336a6.212,6.212,0,0,1,4.873,1,5.85,5.85,0,0,1,2.5,4.04.337.337,0,0,1-.334.381Zm-10.572-4a4.843,4.843,0,0,0,2.31,1.758,14.374,14.374,0,0,0,3.559.719l.185.021c.445.052.87.131,1.281.208a11.367,11.367,0,0,0,1.847.24,3.332,3.332,0,0,1,.938.157,5.225,5.225,0,0,0-2.1-2.97,5.536,5.536,0,0,0-4.343-.9c-.375.082-.766.2-1.144.321A6.577,6.577,0,0,1,1827.572,1340.305Z" transform="translate(-1826.604 -1331.107)" fill="#4d592b"/>
                </g>
                <g id="Group_1203959" data-name="Group 1203959" transform="translate(209.688 12.845)">
                  <path id="Path_1257494" data-name="Path 1257494" d="M2818.535,1184.3a.336.336,0,0,1-.326-.425c1.36-5.032.4-10.387-.7-15.442a.337.337,0,0,1,.659-.143c1.119,5.135,2.094,10.582.695,15.761A.337.337,0,0,1,2818.535,1184.3Z" transform="translate(-2806.538 -1156.439)" fill="#4d592b"/>
                  <path id="Path_1257495" data-name="Path 1257495" d="M2817.836,1105.358a.337.337,0,0,1-.333-.386c.052-.354.1-.711.143-1.069a17.937,17.937,0,0,1,.606-3.2,12.559,12.559,0,0,1,.782-1.892,4.92,4.92,0,0,1,.409-.606,3.341,3.341,0,0,0,.526-.847.333.333,0,0,1,.064-.167c2.471-3.366,7-4.479,10.183-5.024a.336.336,0,0,1,.393.309,10.414,10.414,0,0,1-2.138,6.731,9.707,9.707,0,0,1-2.408,2.391,14.809,14.809,0,0,1-3.073,1.438c-1.019.384-1.98.855-2.909,1.31-.678.332-1.38.676-2.11.99A.34.34,0,0,1,2817.836,1105.358Zm2.785-7.836a3.43,3.43,0,0,1-.638,1.08,4.929,4.929,0,0,0-.351.511,11.886,11.886,0,0,0-.739,1.791,17.477,17.477,0,0,0-.58,3.084c-.02.161-.04.321-.062.481.522-.238,1.033-.488,1.53-.732.944-.462,1.92-.94,2.969-1.335a14.327,14.327,0,0,0,2.936-1.368,9.054,9.054,0,0,0,2.238-2.227,9.893,9.893,0,0,0,2.026-5.914C2826.93,1093.437,2822.865,1094.528,2820.622,1097.522Z" transform="translate(-2806.539 -1092.158)" fill="#4d592b"/>
                  <path id="Path_1257496" data-name="Path 1257496" d="M2757.291,1147.725a.34.34,0,0,1-.166-.043,2.655,2.655,0,0,0-1.24-.34,12.04,12.04,0,0,1-1.954-.251c-.4-.074-.813-.151-1.236-.2l-.185-.022a14.873,14.873,0,0,1-3.726-.76,5.135,5.135,0,0,1-3.01-2.749.337.337,0,0,1,.431-.438,4.471,4.471,0,0,0,2.849-.285c.392-.122.8-.248,1.2-.336a6.214,6.214,0,0,1,4.874,1,5.851,5.851,0,0,1,2.5,4.04.337.337,0,0,1-.333.381Zm-10.572-4a4.842,4.842,0,0,0,2.31,1.758,14.342,14.342,0,0,0,3.558.719l.186.022c.445.052.87.131,1.281.207a11.323,11.323,0,0,0,1.847.24,3.327,3.327,0,0,1,.938.158,5.225,5.225,0,0,0-2.1-2.97,5.538,5.538,0,0,0-4.344-.9c-.375.082-.766.2-1.144.321A6.578,6.578,0,0,1,2746.719,1143.723Zm3.608-1.093h0Z" transform="translate(-2745.75 -1134.525)" fill="#4d592b"/>
                </g>
                <g id="Group_1203960" data-name="Group 1203960" transform="translate(139.2 6.472)">
                  <path id="Path_1257497" data-name="Path 1257497" d="M2357.083,1142.581a.328.328,0,0,1-.088-.012.337.337,0,0,1-.237-.413c1.36-5.032.4-10.387-.7-15.442a.337.337,0,0,1,.659-.143c1.119,5.135,2.094,10.582.695,15.761A.337.337,0,0,1,2357.083,1142.581Z" transform="translate(-2345.087 -1114.717)" fill="#4d592b"/>
                  <path id="Path_1257498" data-name="Path 1257498" d="M2356.385,1063.636a.337.337,0,0,1-.333-.386c.052-.354.1-.711.143-1.07a17.957,17.957,0,0,1,.6-3.2,12.544,12.544,0,0,1,.782-1.892,4.91,4.91,0,0,1,.409-.606,3.323,3.323,0,0,0,.525-.847.333.333,0,0,1,.064-.167c2.472-3.366,7-4.479,10.184-5.024a.337.337,0,0,1,.393.31,10.421,10.421,0,0,1-2.138,6.731,9.7,9.7,0,0,1-2.409,2.391,14.769,14.769,0,0,1-3.073,1.438c-1.019.384-1.981.855-2.911,1.31-.678.332-1.379.676-2.108.989A.337.337,0,0,1,2356.385,1063.636Zm2.785-7.836a3.409,3.409,0,0,1-.638,1.08,4.754,4.754,0,0,0-.35.51,11.865,11.865,0,0,0-.74,1.79,17.4,17.4,0,0,0-.579,3.084c-.021.161-.041.321-.062.481.522-.238,1.032-.488,1.529-.731.945-.462,1.921-.94,2.97-1.336a14.3,14.3,0,0,0,2.936-1.368,9.03,9.03,0,0,0,2.238-2.227,9.891,9.891,0,0,0,2.026-5.914C2365.479,1051.715,2361.414,1052.806,2359.17,1055.8Z" transform="translate(-2345.089 -1050.436)" fill="#4d592b"/>
                  <path id="Path_1257499" data-name="Path 1257499" d="M2295.839,1106a.337.337,0,0,1-.165-.043,2.655,2.655,0,0,0-1.24-.34,12,12,0,0,1-1.955-.251c-.4-.074-.813-.151-1.236-.2l-.186-.022a14.873,14.873,0,0,1-3.725-.76,5.134,5.134,0,0,1-3.01-2.749.337.337,0,0,1,.431-.438,4.475,4.475,0,0,0,2.85-.285c.392-.122.8-.248,1.2-.336a6.213,6.213,0,0,1,4.874,1,5.849,5.849,0,0,1,2.5,4.04.337.337,0,0,1-.334.381Zm-10.572-4a4.843,4.843,0,0,0,2.31,1.758,14.359,14.359,0,0,0,3.558.719l.187.022c.445.052.87.131,1.28.208a11.359,11.359,0,0,0,1.847.24,3.322,3.322,0,0,1,.938.157,5.222,5.222,0,0,0-2.1-2.97,5.537,5.537,0,0,0-4.344-.9c-.375.082-.766.2-1.144.321A6.576,6.576,0,0,1,2285.267,1102Z" transform="translate(-2284.299 -1092.803)" fill="#4d592b"/>
                </g>
                <g id="Group_1203961" data-name="Group 1203961" transform="translate(133.72 49.796)">
                  <path id="Path_1257500" data-name="Path 1257500" d="M2321.208,1426.206a.328.328,0,0,1-.088-.012.337.337,0,0,1-.238-.413c1.36-5.032.4-10.388-.7-15.442a.337.337,0,0,1,.659-.144c1.119,5.135,2.094,10.582.7,15.761A.337.337,0,0,1,2321.208,1426.206Z" transform="translate(-2309.211 -1398.342)" fill="#4d592b"/>
                  <path id="Path_1257501" data-name="Path 1257501" d="M2320.51,1347.261a.336.336,0,0,1-.333-.386c.052-.354.1-.711.143-1.07a17.937,17.937,0,0,1,.605-3.2,12.618,12.618,0,0,1,.782-1.892,4.921,4.921,0,0,1,.41-.606,3.356,3.356,0,0,0,.525-.848.333.333,0,0,1,.063-.167c2.472-3.366,7-4.479,10.184-5.024a.337.337,0,0,1,.393.309,10.416,10.416,0,0,1-2.138,6.731,9.72,9.72,0,0,1-2.408,2.391,14.812,14.812,0,0,1-3.074,1.438c-1.019.384-1.98.855-2.909,1.31-.678.332-1.38.676-2.11.989A.337.337,0,0,1,2320.51,1347.261Zm2.785-7.836a3.414,3.414,0,0,1-.637,1.08,4.8,4.8,0,0,0-.351.511,11.92,11.92,0,0,0-.74,1.791,17.43,17.43,0,0,0-.579,3.084q-.03.241-.061.481c.522-.238,1.032-.488,1.53-.732.944-.462,1.92-.94,2.969-1.335a14.332,14.332,0,0,0,2.937-1.368,9.041,9.041,0,0,0,2.237-2.227,9.894,9.894,0,0,0,2.027-5.914C2329.6,1335.339,2325.538,1336.431,2323.295,1339.425Z" transform="translate(-2309.213 -1334.061)" fill="#4d592b"/>
                  <path id="Path_1257502" data-name="Path 1257502" d="M2259.964,1389.628a.339.339,0,0,1-.165-.043,2.656,2.656,0,0,0-1.241-.34,12,12,0,0,1-1.954-.251c-.4-.074-.813-.151-1.236-.2l-.185-.021a14.88,14.88,0,0,1-3.726-.76,5.136,5.136,0,0,1-3.01-2.749.337.337,0,0,1,.431-.438,4.473,4.473,0,0,0,2.849-.285c.392-.122.8-.248,1.2-.336a6.214,6.214,0,0,1,4.873,1,5.851,5.851,0,0,1,2.5,4.04.336.336,0,0,1-.334.381Zm-10.572-4a4.845,4.845,0,0,0,2.31,1.758,14.363,14.363,0,0,0,3.559.719l.185.022c.445.052.87.131,1.281.207a11.314,11.314,0,0,0,1.846.24,3.33,3.33,0,0,1,.938.157,5.222,5.222,0,0,0-2.1-2.97,5.538,5.538,0,0,0-4.343-.9c-.375.082-.766.2-1.144.321A6.588,6.588,0,0,1,2249.391,1385.626Zm3.609-1.093h0Z" transform="translate(-2248.424 -1376.428)" fill="#4d592b"/>
                </g>
                <g id="Group_1203962" data-name="Group 1203962" transform="translate(42.505 25.523)">
                  <path id="Path_1257503" data-name="Path 1257503" d="M1730.2,1275.056a.342.342,0,0,1-.088-.012.337.337,0,0,1-.237-.413c1.477-5.465.434-11.278-.762-16.764a.337.337,0,0,1,.658-.144c1.213,5.567,2.27,11.472.754,17.083A.337.337,0,0,1,1730.2,1275.056Z" transform="translate(-1717.22 -1244.887)" fill="#4d592b"/>
                  <path id="Path_1257504" data-name="Path 1257504" d="M1729.446,1189.42a.337.337,0,0,1-.333-.386c.057-.384.105-.771.155-1.159a19.5,19.5,0,0,1,.656-3.472,13.613,13.613,0,0,1,.846-2.048,5.333,5.333,0,0,1,.442-.653,3.58,3.58,0,0,0,.575-.934.331.331,0,0,1,.064-.167c2.675-3.643,7.575-4.849,11.028-5.438a.337.337,0,0,1,.393.309,11.271,11.271,0,0,1-2.314,7.283,10.5,10.5,0,0,1-2.6,2.586,16.051,16.051,0,0,1-3.328,1.557c-1.107.417-2.15.928-3.159,1.422-.735.36-1.5.732-2.286,1.072A.339.339,0,0,1,1729.446,1189.42Zm2.995-8.484a3.657,3.657,0,0,1-.688,1.167,5.186,5.186,0,0,0-.383.558,12.925,12.925,0,0,0-.8,1.946,18.937,18.937,0,0,0-.629,3.352q-.036.286-.073.571c.583-.265,1.151-.544,1.706-.815,1.024-.5,2.082-1.019,3.218-1.448a15.538,15.538,0,0,0,3.191-1.486,9.834,9.834,0,0,0,2.435-2.423,10.747,10.747,0,0,0,2.2-6.466C1739.328,1176.482,1734.888,1177.665,1732.441,1180.936Z" transform="translate(-1717.22 -1175.158)" fill="#4d592b"/>
                  <path id="Path_1257505" data-name="Path 1257505" d="M1663.769,1235.378a.337.337,0,0,1-.165-.043,2.909,2.909,0,0,0-1.359-.373,12.983,12.983,0,0,1-2.115-.272c-.434-.081-.883-.164-1.343-.218l-.2-.023a16.085,16.085,0,0,1-4.033-.823,5.542,5.542,0,0,1-3.249-2.965.337.337,0,0,1,.431-.438,4.87,4.87,0,0,0,3.109-.308c.425-.132.864-.269,1.3-.364a6.713,6.713,0,0,1,5.264,1.084,6.319,6.319,0,0,1,2.7,4.362.337.337,0,0,1-.334.381Zm-11.524-4.348A5.251,5.251,0,0,0,1654.8,1233a15.6,15.6,0,0,0,3.866.781l.2.024c.482.056.943.142,1.387.224a12.317,12.317,0,0,0,2.008.261,3.589,3.589,0,0,1,1.059.186,5.69,5.69,0,0,0-2.3-3.288,6.036,6.036,0,0,0-4.734-.978c-.407.089-.832.221-1.244.349A6.956,6.956,0,0,1,1652.245,1231.031Zm3.97-1.151h0Z" transform="translate(-1651.28 -1221.116)" fill="#4d592b"/>
                </g>
                <g id="Group_1203963" data-name="Group 1203963" transform="translate(105.702 28.997)">
                  <path id="Path_1257506" data-name="Path 1257506" d="M2143.926,1297.8a.333.333,0,0,1-.088-.012.337.337,0,0,1-.238-.413c1.477-5.465.434-11.278-.762-16.764a.337.337,0,0,1,.658-.143c1.213,5.567,2.271,11.472.754,17.083A.338.338,0,0,1,2143.926,1297.8Z" transform="translate(-2130.942 -1267.631)" fill="#4d592b"/>
                  <path id="Path_1257507" data-name="Path 1257507" d="M2143.168,1212.165a.337.337,0,0,1-.333-.386c.057-.384.105-.771.155-1.159a19.5,19.5,0,0,1,.656-3.472,13.66,13.66,0,0,1,.846-2.048,5.42,5.42,0,0,1,.442-.653,3.591,3.591,0,0,0,.575-.934.329.329,0,0,1,.064-.167c2.675-3.643,7.575-4.849,11.028-5.438a.336.336,0,0,1,.265.068.34.34,0,0,1,.128.242,11.271,11.271,0,0,1-2.314,7.282,10.5,10.5,0,0,1-2.6,2.586,16.02,16.02,0,0,1-3.328,1.557c-1.106.417-2.149.928-3.158,1.422-.736.36-1.5.733-2.287,1.073A.338.338,0,0,1,2143.168,1212.165Zm2.995-8.484a3.668,3.668,0,0,1-.688,1.167,5.248,5.248,0,0,0-.383.558,12.926,12.926,0,0,0-.8,1.946,18.974,18.974,0,0,0-.629,3.352c-.024.191-.048.381-.073.571.583-.265,1.153-.544,1.708-.816,1.023-.5,2.081-1.019,3.217-1.447a15.514,15.514,0,0,0,3.191-1.486,9.834,9.834,0,0,0,2.435-2.423,10.746,10.746,0,0,0,2.2-6.466C2153.051,1199.226,2148.61,1200.41,2146.163,1203.681Z" transform="translate(-2130.943 -1197.902)" fill="#4d592b"/>
                  <path id="Path_1257508" data-name="Path 1257508" d="M2077.491,1258.122a.337.337,0,0,1-.165-.043,2.915,2.915,0,0,0-1.359-.373,12.972,12.972,0,0,1-2.115-.272c-.435-.081-.883-.164-1.344-.218l-.2-.024a16.108,16.108,0,0,1-4.033-.823,5.544,5.544,0,0,1-3.249-2.965.337.337,0,0,1,.431-.438,4.868,4.868,0,0,0,3.109-.308c.425-.132.864-.269,1.3-.364a6.713,6.713,0,0,1,5.264,1.084,6.319,6.319,0,0,1,2.695,4.362.337.337,0,0,1-.334.381Zm-11.524-4.348a5.249,5.249,0,0,0,2.552,1.968,15.588,15.588,0,0,0,3.866.781l.2.024c.482.056.943.142,1.388.224a12.3,12.3,0,0,0,2.007.261,3.579,3.579,0,0,1,1.059.186,5.689,5.689,0,0,0-2.3-3.288,6.035,6.035,0,0,0-4.734-.978c-.407.089-.833.221-1.243.349A6.954,6.954,0,0,1,2065.967,1253.774Zm3.97-1.151h0Z" transform="translate(-2065.002 -1243.86)" fill="#4d592b"/>
                </g>
                <g id="Group_1203964" data-name="Group 1203964" transform="translate(0 6.555)">
                  <path id="Path_1257509" data-name="Path 1257509" d="M1413.614,1102.489a.337.337,0,0,1-.325-.425c.747-2.764.216-5.719-.393-8.51a.337.337,0,0,1,.658-.143c.626,2.871,1.171,5.919.385,8.829A.337.337,0,0,1,1413.614,1102.489Z" transform="translate(-1406.798 -1086.706)" fill="#4d592b"/>
                  <path id="Path_1257510" data-name="Path 1257510" d="M1413.226,1058.62a.337.337,0,0,1-.333-.386c.029-.2.054-.393.079-.59a10.068,10.068,0,0,1,.343-1.808,7.116,7.116,0,0,1,.443-1.074,2.9,2.9,0,0,1,.241-.358,2.279,2.279,0,0,0,.265-.407.3.3,0,0,1,.062-.156c1.406-1.914,3.957-2.544,5.755-2.851a.337.337,0,0,1,.393.309,5.935,5.935,0,0,1-1.216,3.839,5.543,5.543,0,0,1-1.376,1.365,8.324,8.324,0,0,1-1.738.815c-.559.211-1.067.459-1.6.722-.378.185-.77.377-1.178.553A.339.339,0,0,1,1413.226,1058.62Zm1.685-4.438a2.161,2.161,0,0,1-.372.624,2.805,2.805,0,0,0-.182.262,6.488,6.488,0,0,0-.4.972,9.592,9.592,0,0,0-.316,1.686c.2-.1.4-.194.6-.291.528-.258,1.073-.525,1.663-.748a7.84,7.84,0,0,0,1.6-.744,4.877,4.877,0,0,0,1.205-1.2,5.42,5.42,0,0,0,1.1-3.018C1418.185,1052.029,1416.088,1052.634,1414.911,1054.182Z" transform="translate(-1406.799 -1050.984)" fill="#4d592b"/>
                  <path id="Path_1257511" data-name="Path 1257511" d="M1379.582,1082.163a.337.337,0,0,1-.165-.044,1.324,1.324,0,0,0-.619-.17,6.778,6.778,0,0,1-1.11-.142c-.22-.041-.447-.083-.677-.11l-.1-.012a8.382,8.382,0,0,1-2.107-.432,3,3,0,0,1-1.758-1.612.337.337,0,0,1,.431-.438,2.386,2.386,0,0,0,1.487-.161c.221-.069.449-.14.68-.19a3.6,3.6,0,0,1,2.826.581,3.4,3.4,0,0,1,1.449,2.347.337.337,0,0,1-.334.382Zm-5.565-2.219a2.719,2.719,0,0,0,1.028.682,7.871,7.871,0,0,0,1.941.39l.1.012c.253.029.491.074.722.117a6.179,6.179,0,0,0,1,.131,1.974,1.974,0,0,1,.3.029,2.776,2.776,0,0,0-1.029-1.32,2.928,2.928,0,0,0-2.3-.475c-.2.044-.406.108-.623.175A4.891,4.891,0,0,1,1374.017,1079.944Z" transform="translate(-1373.02 -1074.528)" fill="#4d592b"/>
                </g>
                <g id="Group_1203965" data-name="Group 1203965" transform="translate(118.338)">
                  <path id="Path_1257512" data-name="Path 1257512" d="M2188.32,1059.574a.342.342,0,0,1-.089-.012.337.337,0,0,1-.238-.413c.747-2.764.216-5.719-.392-8.51a.337.337,0,0,1,.658-.143c.626,2.872,1.17,5.919.385,8.829A.337.337,0,0,1,2188.32,1059.574Z" transform="translate(-2181.503 -1043.79)" fill="#4d592b"/>
                  <path id="Path_1257513" data-name="Path 1257513" d="M2187.932,1015.7a.337.337,0,0,1-.333-.386c.029-.2.054-.394.079-.592a10.106,10.106,0,0,1,.342-1.807,7.138,7.138,0,0,1,.444-1.074,2.86,2.86,0,0,1,.24-.358,2.215,2.215,0,0,0,.265-.407.3.3,0,0,1,.063-.156c1.405-1.914,3.957-2.544,5.754-2.851a.337.337,0,0,1,.393.309,5.935,5.935,0,0,1-1.216,3.839,5.539,5.539,0,0,1-1.376,1.365,8.337,8.337,0,0,1-1.738.815c-.56.211-1.068.459-1.6.723-.379.185-.77.377-1.178.552A.339.339,0,0,1,2187.932,1015.7Zm1.685-4.438a2.177,2.177,0,0,1-.372.623,2.813,2.813,0,0,0-.182.262,6.47,6.47,0,0,0-.4.973,9.564,9.564,0,0,0-.315,1.686c.2-.1.4-.194.6-.291.528-.258,1.074-.526,1.663-.748a7.846,7.846,0,0,0,1.6-.744,4.879,4.879,0,0,0,1.205-1.2,5.42,5.42,0,0,0,1.1-3.019C2192.891,1009.114,2190.793,1009.719,2189.617,1011.267Z" transform="translate(-2181.505 -1008.07)" fill="#4d592b"/>
                  <path id="Path_1257514" data-name="Path 1257514" d="M2154.286,1039.249a.336.336,0,0,1-.166-.043,1.328,1.328,0,0,0-.619-.17,6.787,6.787,0,0,1-1.11-.142c-.219-.041-.447-.083-.677-.11l-.1-.012a8.355,8.355,0,0,1-2.107-.432,3,3,0,0,1-1.758-1.612.337.337,0,0,1,.431-.438,2.384,2.384,0,0,0,1.487-.161c.221-.069.449-.14.68-.19a3.605,3.605,0,0,1,2.826.581,3.4,3.4,0,0,1,1.449,2.348.337.337,0,0,1-.333.381Zm-5.566-2.219a2.71,2.71,0,0,0,1.028.683,7.877,7.877,0,0,0,1.94.39l.1.012c.253.029.491.074.722.116a6.184,6.184,0,0,0,1,.131,1.972,1.972,0,0,1,.3.029,2.782,2.782,0,0,0-1.03-1.32,2.926,2.926,0,0,0-2.3-.475c-.2.044-.407.108-.623.175A4.86,4.86,0,0,1,2148.72,1037.03Z" transform="translate(-2147.722 -1031.614)" fill="#4d592b"/>
                </g>
                <g id="Group_1203966" data-name="Group 1203966" transform="translate(230.65 31.713)">
                  <path id="Path_1257515" data-name="Path 1257515" d="M2975.108,1331.088a.337.337,0,0,1-.325-.249c-1.75-6.477-.529-13.3.872-19.729a.337.337,0,0,1,.658.143c-1.384,6.35-2.591,13.079-.88,19.41a.338.338,0,0,1-.326.425Z" transform="translate(-2960.027 -1296.308)" fill="#4d592b"/>
                  <path id="Path_1257516" data-name="Path 1257516" d="M2898.939,1232.066a.339.339,0,0,1-.133-.027c-.912-.393-1.791-.823-2.64-1.239-1.169-.572-2.377-1.164-3.659-1.647a18.529,18.529,0,0,1-3.838-1.795,12.1,12.1,0,0,1-3-2.978,12.984,12.984,0,0,1-2.665-8.387.337.337,0,0,1,.393-.31c3.984.681,9.637,2.071,12.719,6.268a.336.336,0,0,1,.064.167,4,4,0,0,0,.675,1.106,6.112,6.112,0,0,1,.506.748,15.615,15.615,0,0,1,.975,2.361,22.459,22.459,0,0,1,.757,4.006c.056.449.113.9.179,1.341a.337.337,0,0,1-.333.386Zm-15.28-15.653a12.455,12.455,0,0,0,2.555,7.571,11.438,11.438,0,0,0,2.829,2.814,18,18,0,0,0,3.7,1.724c1.313.495,2.536,1.094,3.718,1.673.669.327,1.356.664,2.06.982-.033-.251-.065-.5-.1-.754a21.939,21.939,0,0,0-.73-3.886,15.016,15.016,0,0,0-.933-2.259,5.888,5.888,0,0,0-.448-.652,4.306,4.306,0,0,1-.788-1.34C2892.673,1218.462,2887.48,1217.094,2883.66,1216.414Z" transform="translate(-2882.982 -1215.679)" fill="#4d592b"/>
                  <path id="Path_1257517" data-name="Path 1257517" d="M2983.586,1285.207a.336.336,0,0,1-.333-.381,7.254,7.254,0,0,1,3.094-5.008,7.7,7.7,0,0,1,6.046-1.245c.5.109,1.01.267,1.5.42a5.665,5.665,0,0,0,3.63.355.337.337,0,0,1,.431.438,6.358,6.358,0,0,1-3.727,3.4,18.578,18.578,0,0,1-4.651.948l-.232.027c-.534.062-1.054.159-1.556.252a15.043,15.043,0,0,1-2.438.314,3.414,3.414,0,0,0-1.6.438A.338.338,0,0,1,2983.586,1285.207Zm7.215-6.132a7.1,7.1,0,0,0-4.068,1.294,6.624,6.624,0,0,0-2.7,3.927,4.1,4.1,0,0,1,1.3-.243,14.271,14.271,0,0,0,2.329-.3c.514-.1,1.046-.194,1.6-.259l.233-.027a18.069,18.069,0,0,0,4.484-.906,6.062,6.062,0,0,0,3.034-2.392,7.726,7.726,0,0,1-3.323-.531c-.476-.149-.969-.3-1.443-.405A6.793,6.793,0,0,0,2990.8,1279.075Z" transform="translate(-2967.933 -1268.821)" fill="#4d592b"/>
                </g>
              </g>
            </g>
            <g id="Group_1203989" data-name="Group 1203989" transform="translate(0 8.497)">
              <g id="Group_1203969" data-name="Group 1203969">
                <path id="Path_1257518" data-name="Path 1257518" d="M340.069,1095.1c8.711-9.79,25.725-10.573,37.372-14.337,20.9-6.754,41.453-10.806,63.7-14.521,5.424-.941,10.752-1.784,16.033-2.55a484.138,484.138,0,0,1,88.443,51.517c40.779,29.717,72.8,62.474,96.725,105.7q1.191,2.255,2.324,4.514c-17.841,6.592-36.376,7.212-55.625,5.991-11.978-.759-24.065.016-36.157-.167-29.471-.445-58.766.433-87.814-5.278-13.663-2.686-27.469-4.185-40.779-9.118-17.538-6.5-34.925-14.628-49.214-26.928C359.8,1176.774,350.6,1158.3,343.886,1139.5,339.97,1128.541,331.436,1104.8,340.069,1095.1Z" transform="translate(-336.34 -1063.693)" fill="#77835e"/>
                <path id="Path_1257519" data-name="Path 1257519" d="M824.98,1089.852c8.528-1.834,17.177-3.435,26.082-4.956,29.572,16.13,57.275,35.478,85.3,57.058,12.47,9.793,24.6,17.56,35.724,28.029,23.254,21.95,43.138,44.239,59.315,72.267,1.429,2.291,2.92,4.457,4.444,6.582a174.852,174.852,0,0,1-32.805.546q-2.047-.129-4.1-.2c-5.778-8.468-12.481-16.257-18.767-25.162a38.471,38.471,0,0,0-3.707-3.715c-26.625-35.121-54.6-62.474-89.984-88.477-18.2-13.508-33.7-27.016-53.249-37.484Q829.11,1092.068,824.98,1089.852Z" transform="translate(-750.339 -1081.657)" fill="#697a44"/>
                <path id="Path_1257520" data-name="Path 1257520" d="M505.207,1159.166c3.226-1.043,6.443-2.014,9.66-2.937,1.619.926,3.231,1.9,4.832,2.937,26.961,17.56,48.531,36.471,72.8,56.4,1.348,1.013,3.033,1.351,4.044,2.364,20.558,21.95,39.094,42.888,57.967,66.526a295.8,295.8,0,0,1,18.364,25.1c-13.353-.124-26.668-.12-39.94-.724-6.935-16.23-17.492-31.068-29.314-44.641-4.381-5.4-10.111-9.118-14.829-14.184-31.4-33.1-63.433-59.84-101.646-86.391C493.415,1161.991,499.874,1160.89,505.207,1159.166Z" transform="translate(-464.107 -1142.095)" fill="#697a44"/>
                <path id="Path_1257521" data-name="Path 1257521" d="M338.089,1289.326c11.736,7.625,22.677,15.386,32.278,25.831.674.338,1.348.338,2.022.675,16.514,15.872,30.669,32.082,46.846,48.291,15.948,15.98,28.558,33.339,40.828,52.073-12.018-2.165-24.086-3.849-35.772-8.179q-3.56-1.319-7.1-2.735c-17.516-27.676-34.362-52.989-59.29-74.253-6.094-5.029-12.274-9.713-18.537-14.167C336.674,1307.3,334.817,1296.36,338.089,1289.326Z" transform="translate(-336.344 -1254.86)" fill="#697a44"/>
              </g>
              <g id="Group_1203988" data-name="Group 1203988" transform="translate(18.311 4.43)">
                <g id="Group_1203970" data-name="Group 1203970" transform="translate(217.968 125.305)">
                  <path id="Path_1257522" data-name="Path 1257522" d="M1969.143,1933.885h-.024c-.217-.016-.325-.024-1.369-2.322a19.921,19.921,0,0,1-1.06-2.678,17.108,17.108,0,0,1,.525-6.053l.143-.691a16.6,16.6,0,0,1,1.605-4.258,11.578,11.578,0,0,1,1.035-1.555,6.4,6.4,0,0,0,1.444-2.733c0-.093.011-.187.02-.281a.348.348,0,0,1,.354-.305.337.337,0,0,1,.318.343,3.074,3.074,0,0,1-.021.309,12.6,12.6,0,0,0,1.2,5.056,16.488,16.488,0,0,1,1.222,4.3c.31,3.284-1.148,4.964-2.559,6.59a10.6,10.6,0,0,0-2.5,4.033A.356.356,0,0,1,1969.143,1933.885Zm.226-.58h0Zm-1.351-11.03-.144.694a16.6,16.6,0,0,0-.518,5.821,32.314,32.314,0,0,0,1.708,3.971,12.146,12.146,0,0,1,2.406-3.6c1.438-1.657,2.68-3.089,2.4-6.085a16.019,16.019,0,0,0-1.181-4.117,19.052,19.052,0,0,1-1.144-3.7,14.756,14.756,0,0,1-1,1.472,11.124,11.124,0,0,0-.977,1.461A15.961,15.961,0,0,0,1968.018,1922.275Z" transform="translate(-1953.842 -1913.009)" fill="#4d592b"/>
                  <path id="Path_1257523" data-name="Path 1257523" d="M1898.244,1988.8a.337.337,0,0,1-.323-.24c-.207-.69-2.553-.444-3.68-.326a9.2,9.2,0,0,1-1.2.084l-.066,0a7.407,7.407,0,0,1-5.138-2.844,12.906,12.906,0,0,1-1.54-2.5,10.071,10.071,0,0,0-1.662-2.581,1.687,1.687,0,0,0-.57-.341,1.46,1.46,0,0,1-.885-.761.357.357,0,0,1,.053-.371,14.361,14.361,0,0,1,4.814-.85,13.518,13.518,0,0,1,5.482,3.193c2.149,2.071,4.152,4.173,5.033,7.109a.338.338,0,0,1-.323.434Zm-14.188-9.506a2.342,2.342,0,0,0,.278.132,2.336,2.336,0,0,1,.776.479,10.707,10.707,0,0,1,1.79,2.754,12.41,12.41,0,0,0,1.451,2.371,6.762,6.762,0,0,0,4.672,2.612h0l.061,0a9.333,9.333,0,0,0,1.086-.081,10.678,10.678,0,0,1,3.387-.013,18.1,18.1,0,0,0-4.492-5.809,12.832,12.832,0,0,0-5.2-3.031A18.287,18.287,0,0,0,1884.057,1979.292Z" transform="translate(-1883.156 -1968.101)" fill="#4d592b"/>
                </g>
                <g id="Group_1203971" data-name="Group 1203971" transform="translate(176.345 77.902)">
                  <path id="Path_1257524" data-name="Path 1257524" d="M1678.529,1619.59a.33.33,0,0,1-.051,0c-.211-.034-.3-.048-1-2.021a15.651,15.651,0,0,1-.682-2.267,14.006,14.006,0,0,1,.844-4.906l.163-.55a13.6,13.6,0,0,1,1.6-3.365,9.667,9.667,0,0,1,.954-1.2,5.184,5.184,0,0,0,1.346-2.092c.011-.075.022-.151.036-.227a.337.337,0,0,1,.667.094q-.013.129-.039.253a10.242,10.242,0,0,0,.63,4.164,13.512,13.512,0,0,1,.7,3.592c.027,2.716-1.282,3.992-2.549,5.225a8.591,8.591,0,0,0-2.3,3.084A.353.353,0,0,1,1678.529,1619.59Zm.253-.554h0Zm2.9-14.309c-.25.344-.539.672-.824.994a9.02,9.02,0,0,0-.887,1.112,12.959,12.959,0,0,0-1.528,3.2l-.164.553a13.493,13.493,0,0,0-.817,4.676,24.991,24.991,0,0,0,1.061,3.2,10.2,10.2,0,0,1,2.153-2.656c1.271-1.238,2.37-2.307,2.345-4.736a13.016,13.016,0,0,0-.675-3.411A16.491,16.491,0,0,1,1681.686,1604.727Zm-3.563,5.21h0Z" transform="translate(-1666.681 -1602.68)" fill="#4d592b"/>
                  <path id="Path_1257525" data-name="Path 1257525" d="M1622.358,1659.077a.337.337,0,0,1-.329-.267c-.111-.525-2.069-.485-2.906-.468a7.5,7.5,0,0,1-.988-.014l-.033,0-.02,0a6.1,6.1,0,0,1-4.022-2.689,10.548,10.548,0,0,1-1.087-2.152,8.18,8.18,0,0,0-1.164-2.2,1.314,1.314,0,0,0-.422-.3,1.261,1.261,0,0,1-.7-.713.353.353,0,0,1,.083-.363,11.4,11.4,0,0,1,4.036-.374,11.093,11.093,0,0,1,4.261,2.989c1.61,1.837,3.1,3.689,3.618,6.151a.337.337,0,0,1-.26.4A.332.332,0,0,1,1622.358,1659.077Zm-2.493-1.419a6.952,6.952,0,0,1,1.9.2,14.98,14.98,0,0,0-3.2-4.892,10.406,10.406,0,0,0-3.993-2.8,14.664,14.664,0,0,0-2.937.19l.067.036a1.956,1.956,0,0,1,.616.457,8.765,8.765,0,0,1,1.277,2.378,10.1,10.1,0,0,0,1.011,2.014,5.458,5.458,0,0,0,3.577,2.418l.019,0a7.226,7.226,0,0,0,.909.012C1619.349,1657.663,1619.6,1657.658,1619.865,1657.658Z" transform="translate(-1610.669 -1642.326)" fill="#4d592b"/>
                </g>
                <g id="Group_1203972" data-name="Group 1203972" transform="translate(127.478 36.365)">
                  <path id="Path_1257526" data-name="Path 1257526" d="M1358.613,1347.668a.31.31,0,0,1-.051,0c-.212-.034-.3-.048-1-2.021a15.627,15.627,0,0,1-.682-2.267,14,14,0,0,1,.843-4.9l.164-.553a13.584,13.584,0,0,1,1.6-3.365,9.657,9.657,0,0,1,.954-1.2,5.187,5.187,0,0,0,1.346-2.091c.01-.076.022-.151.036-.227a.334.334,0,0,1,.379-.274.337.337,0,0,1,.288.368q-.013.129-.039.254a10.231,10.231,0,0,0,.63,4.163,13.513,13.513,0,0,1,.7,3.592c.027,2.716-1.282,3.992-2.549,5.225a8.587,8.587,0,0,0-2.3,3.084A.353.353,0,0,1,1358.613,1347.668Zm.253-.553h0Zm-.336-9-.165.556a13.5,13.5,0,0,0-.816,4.672,25.021,25.021,0,0,0,1.061,3.2,10.2,10.2,0,0,1,2.152-2.655c1.271-1.238,2.37-2.308,2.345-4.736a13.017,13.017,0,0,0-.675-3.411,16.493,16.493,0,0,1-.663-2.93c-.25.344-.539.672-.825.995a8.976,8.976,0,0,0-.887,1.112A12.954,12.954,0,0,0,1358.531,1338.11Z" transform="translate(-1346.766 -1330.758)" fill="#4d592b"/>
                  <path id="Path_1257527" data-name="Path 1257527" d="M1302.443,1387.154a.337.337,0,0,1-.329-.267c-.11-.525-2.07-.485-2.906-.468a7.442,7.442,0,0,1-.987-.015l-.054-.008a6.1,6.1,0,0,1-4.022-2.689,10.573,10.573,0,0,1-1.087-2.152,8.192,8.192,0,0,0-1.164-2.2,1.319,1.319,0,0,0-.422-.3,1.26,1.26,0,0,1-.7-.714.353.353,0,0,1,.083-.363,11.409,11.409,0,0,1,4.036-.374,11.1,11.1,0,0,1,4.261,2.989c1.611,1.837,3.1,3.689,3.618,6.151h0a.337.337,0,0,1-.26.4A.342.342,0,0,1,1302.443,1387.154Zm-2.492-1.419a6.951,6.951,0,0,1,1.9.2,14.976,14.976,0,0,0-3.2-4.891,10.405,10.405,0,0,0-3.993-2.8,14.685,14.685,0,0,0-2.937.19l.068.036a1.95,1.95,0,0,1,.616.457,8.772,8.772,0,0,1,1.277,2.378,10.1,10.1,0,0,0,1.01,2.014,5.46,5.46,0,0,0,3.577,2.418l.049.007a7.8,7.8,0,0,0,.879.008C1299.435,1385.74,1299.691,1385.734,1299.951,1385.734Z" transform="translate(-1290.755 -1370.404)" fill="#4d592b"/>
                </g>
                <g id="Group_1203973" data-name="Group 1203973" transform="translate(77.177)">
                  <path id="Path_1257528" data-name="Path 1257528" d="M1023.993,1108.324a.321.321,0,0,1-.051,0c-.212-.033-.291-.046-.945-1.879a14.455,14.455,0,0,1-.63-2.1,12.911,12.911,0,0,1,.778-4.526l.151-.508h0a12.543,12.543,0,0,1,1.48-3.107,8.908,8.908,0,0,1,.881-1.11,4.767,4.767,0,0,0,1.233-1.914q.014-.1.033-.209a.337.337,0,0,1,.667.094c-.009.08-.02.158-.036.235a9.417,9.417,0,0,0,.58,3.825,12.463,12.463,0,0,1,.648,3.315c.025,2.514-1.186,3.693-2.356,4.833a7.88,7.88,0,0,0-2.109,2.831A.352.352,0,0,1,1023.993,1108.324Zm.256-.551h0Zm-.306-8.273-.152.511a12.411,12.411,0,0,0-.751,4.3,22.93,22.93,0,0,0,.955,2.884,9.529,9.529,0,0,1,1.96-2.4c1.167-1.137,2.175-2.118,2.153-4.343a11.794,11.794,0,0,0-.621-3.134,15.617,15.617,0,0,1-.605-2.636c-.221.3-.472.582-.72.862a8.32,8.32,0,0,0-.815,1.021A11.913,11.913,0,0,0,1023.942,1099.5Z" transform="translate(-1013.053 -1092.694)" fill="#4d592b"/>
                  <path id="Path_1257529" data-name="Path 1257529" d="M972.25,1144.707a.337.337,0,0,1-.329-.267c-.1-.462-1.953-.425-2.651-.41a6.886,6.886,0,0,1-.914-.013l-.05-.007a5.65,5.65,0,0,1-3.723-2.488,9.763,9.763,0,0,1-1-1.988,7.51,7.51,0,0,0-1.068-2.015,1.186,1.186,0,0,0-.381-.272,1.183,1.183,0,0,1-.654-.672.351.351,0,0,1,.083-.363,10.557,10.557,0,0,1,3.746-.351,10.255,10.255,0,0,1,3.936,2.76,12.674,12.674,0,0,1,3.339,5.677h0a.337.337,0,0,1-.26.4A.322.322,0,0,1,972.25,1144.707Zm-2.3-1.36a6.646,6.646,0,0,1,1.71.168,13.894,13.894,0,0,0-2.929-4.449,9.559,9.559,0,0,0-3.668-2.575,13.544,13.544,0,0,0-2.61.165,1.8,1.8,0,0,1,.564.421,8.092,8.092,0,0,1,1.181,2.2,9.3,9.3,0,0,0,.928,1.85,5,5,0,0,0,3.278,2.217l.033.005a7.072,7.072,0,0,0,.817.009C969.478,1143.351,969.714,1143.346,969.953,1143.346Z" transform="translate(-961.456 -1129.224)" fill="#4d592b"/>
                </g>
                <g id="Group_1203974" data-name="Group 1203974" transform="translate(40.779 22.288)">
                  <path id="Path_1257530" data-name="Path 1257530" d="M785.711,1254.233a.319.319,0,0,1-.051,0c-.212-.034-.291-.047-.945-1.88a14.363,14.363,0,0,1-.63-2.1,12.916,12.916,0,0,1,.778-4.526l.151-.508h0a12.538,12.538,0,0,1,1.479-3.106,8.911,8.911,0,0,1,.881-1.11,4.762,4.762,0,0,0,1.234-1.915c.01-.069.02-.139.033-.209a.337.337,0,0,1,.667.094c-.009.08-.02.158-.036.235a9.413,9.413,0,0,0,.58,3.824,12.468,12.468,0,0,1,.648,3.315c.025,2.514-1.186,3.693-2.357,4.833a7.884,7.884,0,0,0-2.109,2.831A.352.352,0,0,1,785.711,1254.233Zm.256-.551h0Zm-.306-8.273-.152.511a12.4,12.4,0,0,0-.751,4.3,22.9,22.9,0,0,0,.955,2.884,9.533,9.533,0,0,1,1.961-2.4c1.167-1.136,2.175-2.118,2.153-4.343a11.794,11.794,0,0,0-.621-3.134,15.614,15.614,0,0,1-.605-2.636c-.222.3-.473.582-.72.863a8.3,8.3,0,0,0-.815,1.021A11.916,11.916,0,0,0,785.66,1245.409Z" transform="translate(-774.771 -1238.603)" fill="#4d592b"/>
                  <path id="Path_1257531" data-name="Path 1257531" d="M733.968,1290.617a.337.337,0,0,1-.329-.267c-.1-.462-1.952-.425-2.651-.411a6.817,6.817,0,0,1-.914-.014l-.05-.007a5.648,5.648,0,0,1-3.723-2.487,9.752,9.752,0,0,1-1-1.988,7.511,7.511,0,0,0-1.068-2.015,1.191,1.191,0,0,0-.381-.272,1.183,1.183,0,0,1-.654-.672.351.351,0,0,1,.083-.363,10.561,10.561,0,0,1,3.746-.351,10.255,10.255,0,0,1,3.937,2.761,12.674,12.674,0,0,1,3.339,5.677h0a.336.336,0,0,1-.26.4A.325.325,0,0,1,733.968,1290.617Zm-2.3-1.36a6.64,6.64,0,0,1,1.71.169,13.892,13.892,0,0,0-2.929-4.449,9.562,9.562,0,0,0-3.668-2.575,13.556,13.556,0,0,0-2.61.165,1.8,1.8,0,0,1,.564.421,8.093,8.093,0,0,1,1.181,2.2,9.282,9.282,0,0,0,.928,1.85,5,5,0,0,0,3.278,2.217l.033.005a6.954,6.954,0,0,0,.817.009C731.2,1289.261,731.432,1289.256,731.671,1289.256Z" transform="translate(-723.174 -1275.133)" fill="#4d592b"/>
                </g>
                <g id="Group_1203975" data-name="Group 1203975" transform="translate(20.362 11.736)">
                  <path id="Path_1257532" data-name="Path 1257532" d="M646,1183.7a.318.318,0,0,1-.051,0c-.211-.034-.282-.045-.878-1.718a12.959,12.959,0,0,1-.57-1.9,11.687,11.687,0,0,1,.7-4.1l.136-.459a11.364,11.364,0,0,1,1.339-2.812,8.024,8.024,0,0,1,.8-1.006,4.282,4.282,0,0,0,1.106-1.712c.009-.062.019-.125.03-.188a.337.337,0,0,1,.667.094q-.011.106-.032.209a8.462,8.462,0,0,0,.522,3.442,11.286,11.286,0,0,1,.586,3,5.452,5.452,0,0,1-2.137,4.386,7.091,7.091,0,0,0-1.9,2.544A.351.351,0,0,1,646,1183.7Zm.258-.548h0Zm-.272-7.441-.137.462a11.186,11.186,0,0,0-.676,3.866,20.721,20.721,0,0,0,.834,2.526,8.794,8.794,0,0,1,1.742-2.112,4.779,4.779,0,0,0,1.933-3.9,10.627,10.627,0,0,0-.559-2.82,14.588,14.588,0,0,1-.538-2.3c-.192.252-.4.49-.6.717a7.453,7.453,0,0,0-.732.917A10.724,10.724,0,0,0,645.986,1175.71Z" transform="translate(-636.092 -1169.524)" fill="#4d592b"/>
                  <path id="Path_1257533" data-name="Path 1257533" d="M599.292,1216.553a.337.337,0,0,1-.329-.267h0c-.083-.39-1.8-.356-2.36-.344a6.253,6.253,0,0,1-.831-.013l-.045-.007a5.129,5.129,0,0,1-3.382-2.259,8.808,8.808,0,0,1-.911-1.8,6.767,6.767,0,0,0-.958-1.81,1.051,1.051,0,0,0-.334-.238,1.1,1.1,0,0,1-.606-.624.351.351,0,0,1,.083-.362,9.637,9.637,0,0,1,3.416-.323,9.29,9.29,0,0,1,3.566,2.5,11.469,11.469,0,0,1,3.021,5.14h0a.337.337,0,0,1-.26.4A.351.351,0,0,1,599.292,1216.553Zm-2.075-1.294a6.307,6.307,0,0,1,1.493.137,12.664,12.664,0,0,0-2.616-3.947,8.593,8.593,0,0,0-3.3-2.315,11.818,11.818,0,0,0-2.243.136,1.518,1.518,0,0,1,.432.341,7.319,7.319,0,0,1,1.072,1.992,8.352,8.352,0,0,0,.834,1.663,4.483,4.483,0,0,0,2.937,1.988h0l.031,0a6.361,6.361,0,0,0,.728.007C596.789,1215.263,597,1215.259,597.218,1215.259Z" transform="translate(-589.516 -1202.511)" fill="#4d592b"/>
                </g>
                <g id="Group_1203976" data-name="Group 1203976" transform="translate(0 53.175)">
                  <path id="Path_1257534" data-name="Path 1257534" d="M512.7,1454.981a.316.316,0,0,1-.051,0c-.211-.034-.282-.045-.878-1.718a12.934,12.934,0,0,1-.57-1.9,11.686,11.686,0,0,1,.7-4.1l.136-.459a11.345,11.345,0,0,1,1.339-2.812,8.047,8.047,0,0,1,.8-1.007,4.283,4.283,0,0,0,1.106-1.712c.009-.062.019-.125.03-.188a.337.337,0,0,1,.667.094c-.007.071-.018.141-.032.209a8.464,8.464,0,0,0,.522,3.442,11.276,11.276,0,0,1,.586,3,5.452,5.452,0,0,1-2.137,4.386,7.091,7.091,0,0,0-1.9,2.544A.35.35,0,0,1,512.7,1454.981Zm.258-.548h0Zm2.326-11.72c-.192.252-.4.49-.6.717a7.441,7.441,0,0,0-.732.917,10.733,10.733,0,0,0-1.264,2.645l-.137.462a11.185,11.185,0,0,0-.676,3.866,20.715,20.715,0,0,0,.834,2.526,8.786,8.786,0,0,1,1.742-2.112,4.778,4.778,0,0,0,1.933-3.9,10.63,10.63,0,0,0-.559-2.82A14.585,14.585,0,0,1,515.283,1442.713Zm-2.922,4.185h0Z" transform="translate(-502.791 -1440.806)" fill="#4d592b"/>
                  <path id="Path_1257535" data-name="Path 1257535" d="M465.991,1487.834a.337.337,0,0,1-.329-.267c-.082-.391-1.8-.355-2.36-.345a6.265,6.265,0,0,1-.83-.012l-.045-.007a5.128,5.128,0,0,1-3.382-2.259,8.818,8.818,0,0,1-.911-1.8,6.768,6.768,0,0,0-.958-1.81,1.049,1.049,0,0,0-.335-.238,1.1,1.1,0,0,1-.606-.624.351.351,0,0,1,.083-.362,9.641,9.641,0,0,1,3.416-.324,9.16,9.16,0,0,1,3.566,2.5,11.467,11.467,0,0,1,3.021,5.14h0a.337.337,0,0,1-.26.4A.333.333,0,0,1,465.991,1487.834Zm-2.075-1.294a6.294,6.294,0,0,1,1.493.137,12.657,12.657,0,0,0-2.616-3.947,8.6,8.6,0,0,0-3.3-2.315,11.863,11.863,0,0,0-2.243.136,1.524,1.524,0,0,1,.432.341,7.327,7.327,0,0,1,1.072,1.993,8.362,8.362,0,0,0,.834,1.663,4.484,4.484,0,0,0,2.937,1.988h0l.041.006a6.492,6.492,0,0,0,.72.006C463.488,1486.545,463.7,1486.54,463.916,1486.54Z" transform="translate(-456.215 -1473.792)" fill="#4d592b"/>
                </g>
                <g id="Group_1203977" data-name="Group 1203977" transform="translate(197.824 101.29)">
                  <path id="Path_1257536" data-name="Path 1257536" d="M1837.512,1773.719a.332.332,0,0,1-.057,0c-.21-.038-.305-.055-1.01-2.164a17.386,17.386,0,0,1-.678-2.428,14.923,14.923,0,0,1,1-5.209l.186-.584a14.488,14.488,0,0,1,1.779-3.552,10.094,10.094,0,0,1,1.041-1.259,5.544,5.544,0,0,0,1.487-2.214c.013-.08.027-.161.043-.241a.337.337,0,0,1,.664.107,2.686,2.686,0,0,1-.047.268,10.948,10.948,0,0,0,.584,4.468,14.4,14.4,0,0,1,.673,3.842c-.029,2.89-1.45,4.22-2.825,5.506a9.183,9.183,0,0,0-2.521,3.25A.354.354,0,0,1,1837.512,1773.719Zm.256-.551h0Zm3.441-15.284a14.127,14.127,0,0,1-.935,1.09,9.605,9.605,0,0,0-.973,1.171,13.828,13.828,0,0,0-1.7,3.386l-.187.587a14.422,14.422,0,0,0-.972,4.98,28.1,28.1,0,0,0,1.084,3.489,10.789,10.789,0,0,1,2.372-2.824c1.387-1.3,2.585-2.419,2.611-5.021a13.912,13.912,0,0,0-.649-3.66A17.294,17.294,0,0,1,1841.209,1757.885Zm-3.931,5.546h0Z" transform="translate(-1822.857 -1755.793)" fill="#4d592b"/>
                  <path id="Path_1257537" data-name="Path 1257537" d="M1765.773,1804.37a.337.337,0,0,1-.331-.274c-.141-.74-2.577-.74-3.755-.739a9.544,9.544,0,0,1-1.235-.042l-.067-.011h0a7.643,7.643,0,0,1-4.965-3.469,13.3,13.3,0,0,1-1.312-2.732,10.422,10.422,0,0,0-1.433-2.833,1.758,1.758,0,0,0-.552-.414,1.5,1.5,0,0,1-.822-.871.358.358,0,0,1,.091-.364,14.8,14.8,0,0,1,5.023-.353,13.961,13.961,0,0,1,5.284,3.866c1.984,2.356,3.814,4.728,4.405,7.835v0a.337.337,0,0,1-.268.394A.348.348,0,0,1,1765.773,1804.37Zm-3.972-1.687a10.478,10.478,0,0,1,3.383.357,18.665,18.665,0,0,0-4-6.474,13.263,13.263,0,0,0-5.019-3.675,19.476,19.476,0,0,0-4,.194,2.28,2.28,0,0,0,.29.18,2.4,2.4,0,0,1,.743.573,11.04,11.04,0,0,1,1.542,3.018,12.828,12.828,0,0,0,1.238,2.593,7,7,0,0,0,4.526,3.189l.063.011a9.725,9.725,0,0,0,1.125.033Z" transform="translate(-1751.284 -1786.617)" fill="#4d592b"/>
                </g>
                <g id="Group_1203978" data-name="Group 1203978" transform="translate(151.653 55.965)">
                  <path id="Path_1257538" data-name="Path 1257538" d="M1534.264,1476.25h-.02c-.214-.013-.3-.019-1.194-1.915a15.619,15.619,0,0,1-.9-2.191,13.989,13.989,0,0,1,.366-4.962l.109-.565a13.577,13.577,0,0,1,1.27-3.505,9.663,9.663,0,0,1,.834-1.288,5.187,5.187,0,0,0,1.138-2.212q0-.114.013-.229a.337.337,0,0,1,.673.029q0,.13-.015.256a10.243,10.243,0,0,0,1.029,4.083,13.5,13.5,0,0,1,1.046,3.507c.289,2.7-.891,4.1-2.033,5.447A8.59,8.59,0,0,0,1534.6,1476,.352.352,0,0,1,1534.264,1476.25Zm.23-.577h0Zm1.509-14.523c-.216.367-.472.721-.724,1.07a9.018,9.018,0,0,0-.776,1.193,12.958,12.958,0,0,0-1.212,3.331l-.11.568a13.487,13.487,0,0,0-.361,4.73,25.02,25.02,0,0,0,1.364,3.081,10.223,10.223,0,0,1,1.886-2.852c1.146-1.355,2.136-2.526,1.878-4.941a13.007,13.007,0,0,0-1-3.329A16.5,16.5,0,0,1,1536,1461.149Zm-3.043,5.531h0Z" transform="translate(-1519.369 -1459.073)" fill="#4d592b"/>
                  <path id="Path_1257539" data-name="Path 1257539" d="M1463.742,1513.453a.337.337,0,0,1-.321-.236h0c-.208-.656-2.466-.389-3.551-.261a8.845,8.845,0,0,1-1.157.1l-.064,0a7.175,7.175,0,0,1-5.013-2.691,12.466,12.466,0,0,1-1.521-2.4,9.743,9.743,0,0,0-1.638-2.473,1.627,1.627,0,0,0-.552-.321,1.422,1.422,0,0,1-.871-.731.356.356,0,0,1,.048-.371c.309-.37,4.141-1.024,4.657-.885a13.087,13.087,0,0,1,5.346,3.024c2.105,1.977,4.068,3.986,4.958,6.818h0a.337.337,0,0,1-.321.438Zm-5.059-1.078.061,0a9.348,9.348,0,0,0,1.046-.092,10.467,10.467,0,0,1,3.258-.06,17.549,17.549,0,0,0-4.4-5.539,12.394,12.394,0,0,0-5.062-2.865,17.815,17.815,0,0,0-3.646.6,2.608,2.608,0,0,0,.245.111,2.267,2.267,0,0,1,.76.456,10.356,10.356,0,0,1,1.767,2.645,12,12,0,0,0,1.431,2.273A6.531,6.531,0,0,0,1458.683,1512.375Z" transform="translate(-1449.022 -1496.42)" fill="#4d592b"/>
                </g>
                <g id="Group_1203979" data-name="Group 1203979" transform="translate(149.216 135.773)">
                  <path id="Path_1257540" data-name="Path 1257540" d="M1519.053,2002.417h-.023c-.217-.016-.325-.024-1.37-2.322a20.034,20.034,0,0,1-1.06-2.679,17.1,17.1,0,0,1,.526-6.054l.143-.689a16.577,16.577,0,0,1,1.6-4.258,11.575,11.575,0,0,1,1.035-1.555,6.4,6.4,0,0,0,1.444-2.733c0-.093.012-.187.02-.28a.342.342,0,0,1,.354-.305.337.337,0,0,1,.318.343,2.951,2.951,0,0,1-.021.308,12.6,12.6,0,0,0,1.2,5.057,16.514,16.514,0,0,1,1.222,4.3c.31,3.283-1.149,4.965-2.559,6.59a10.594,10.594,0,0,0-2.5,4.033A.356.356,0,0,1,1519.053,2002.417Zm.227-.58h0Zm2.174-18.048a14.742,14.742,0,0,1-1,1.472,11.077,11.077,0,0,0-.977,1.461,15.973,15.973,0,0,0-1.544,4.084l-.143.692a16.6,16.6,0,0,0-.518,5.823,32.341,32.341,0,0,0,1.709,3.971,12.151,12.151,0,0,1,2.406-3.6c1.438-1.657,2.68-3.089,2.4-6.085a16.016,16.016,0,0,0-1.18-4.116A19.042,19.042,0,0,1,1521.455,1983.79Zm-3.856,6.951h0Z" transform="translate(-1503.753 -1981.541)" fill="#4d592b"/>
                  <path id="Path_1257541" data-name="Path 1257541" d="M1448.156,2057.332a.337.337,0,0,1-.323-.24c-.207-.691-2.552-.444-3.679-.326a9.3,9.3,0,0,1-1.2.084l-.066,0a7.407,7.407,0,0,1-5.138-2.844,12.9,12.9,0,0,1-1.54-2.5,10.073,10.073,0,0,0-1.662-2.581,1.7,1.7,0,0,0-.57-.341,1.46,1.46,0,0,1-.885-.762.357.357,0,0,1,.053-.371,14.376,14.376,0,0,1,4.813-.85,13.521,13.521,0,0,1,5.482,3.193c2.149,2.07,4.151,4.172,5.033,7.109a.337.337,0,0,1-.226.419A.325.325,0,0,1,1448.156,2057.332Zm-14.188-9.506a2.287,2.287,0,0,0,.278.133,2.331,2.331,0,0,1,.776.479,10.692,10.692,0,0,1,1.791,2.754,12.394,12.394,0,0,0,1.451,2.371,6.764,6.764,0,0,0,4.672,2.612l.061,0a9.152,9.152,0,0,0,1.086-.081,10.684,10.684,0,0,1,3.387-.014,18.1,18.1,0,0,0-4.492-5.808,12.828,12.828,0,0,0-5.2-3.031A18.287,18.287,0,0,0,1433.969,2047.826Z" transform="translate(-1433.068 -2036.635)" fill="#4d592b"/>
                </g>
                <g id="Group_1203980" data-name="Group 1203980" transform="translate(107.593 88.37)">
                  <path id="Path_1257542" data-name="Path 1257542" d="M1228.44,1688.124a.323.323,0,0,1-.051,0c-.212-.034-.3-.048-1-2.021a15.642,15.642,0,0,1-.682-2.267,14,14,0,0,1,.843-4.9l.164-.553a13.581,13.581,0,0,1,1.6-3.365,9.667,9.667,0,0,1,.954-1.2,5.182,5.182,0,0,0,1.346-2.091c.011-.076.022-.151.036-.227a.332.332,0,0,1,.379-.274.337.337,0,0,1,.288.368,2.526,2.526,0,0,1-.039.254,10.236,10.236,0,0,0,.63,4.163,13.5,13.5,0,0,1,.7,3.592c.028,2.717-1.282,3.992-2.549,5.225a8.583,8.583,0,0,0-2.3,3.084A.353.353,0,0,1,1228.44,1688.124Zm.253-.554h0Zm-.336-9-.165.556a13.494,13.494,0,0,0-.816,4.672,25.013,25.013,0,0,0,1.061,3.2,10.2,10.2,0,0,1,2.152-2.656c1.271-1.238,2.37-2.308,2.345-4.736a13.012,13.012,0,0,0-.675-3.411,16.509,16.509,0,0,1-.663-2.93c-.25.344-.539.672-.824.995a8.962,8.962,0,0,0-.887,1.112A12.962,12.962,0,0,0,1228.358,1678.566Z" transform="translate(-1216.593 -1671.214)" fill="#4d592b"/>
                  <path id="Path_1257543" data-name="Path 1257543" d="M1172.27,1727.61a.337.337,0,0,1-.329-.267h0c-.112-.524-2.068-.485-2.906-.468a7.428,7.428,0,0,1-.987-.014l-.039-.006-.015,0a6.1,6.1,0,0,1-4.022-2.689,10.564,10.564,0,0,1-1.087-2.152,8.187,8.187,0,0,0-1.164-2.2,1.317,1.317,0,0,0-.422-.3,1.261,1.261,0,0,1-.7-.714.352.352,0,0,1,.084-.363,11.4,11.4,0,0,1,4.036-.374,11.1,11.1,0,0,1,4.261,2.989c1.611,1.837,3.1,3.689,3.618,6.151h0a.337.337,0,0,1-.26.4A.342.342,0,0,1,1172.27,1727.61Zm-2.493-1.42a6.958,6.958,0,0,1,1.9.2,14.985,14.985,0,0,0-3.2-4.891,10.4,10.4,0,0,0-3.993-2.8,14.638,14.638,0,0,0-2.937.189l.067.036a1.951,1.951,0,0,1,.616.456,8.765,8.765,0,0,1,1.277,2.378,10.118,10.118,0,0,0,1.011,2.014,5.46,5.46,0,0,0,3.577,2.418l.013,0,.036.005a7.8,7.8,0,0,0,.879.008C1169.262,1726.2,1169.518,1726.191,1169.777,1726.191Z" transform="translate(-1160.582 -1710.86)" fill="#4d592b"/>
                </g>
                <g id="Group_1203981" data-name="Group 1203981" transform="translate(61.759 43.456)">
                  <path id="Path_1257544" data-name="Path 1257544" d="M928.382,1394.094a.327.327,0,0,1-.051,0c-.211-.034-.3-.048-1-2.021a15.629,15.629,0,0,1-.681-2.267,13.987,13.987,0,0,1,.843-4.9l.163-.551a13.592,13.592,0,0,1,1.6-3.365,9.625,9.625,0,0,1,.954-1.2,5.187,5.187,0,0,0,1.345-2.091c.011-.076.022-.151.036-.227a.337.337,0,0,1,.667.094c-.009.086-.022.17-.039.254a10.239,10.239,0,0,0,.63,4.164,13.525,13.525,0,0,1,.7,3.592c.027,2.717-1.283,3.992-2.549,5.225a8.583,8.583,0,0,0-2.3,3.084A.354.354,0,0,1,928.382,1394.094Zm.253-.554h0Zm2.9-14.309c-.25.344-.539.671-.824.994a9.013,9.013,0,0,0-.887,1.112,12.954,12.954,0,0,0-1.528,3.2l-.164.554a13.489,13.489,0,0,0-.816,4.674,25,25,0,0,0,1.061,3.2,10.209,10.209,0,0,1,2.152-2.656c1.272-1.238,2.37-2.307,2.346-4.736a13.022,13.022,0,0,0-.675-3.41A16.514,16.514,0,0,1,931.539,1379.231Zm-3.562,5.21h0Z" transform="translate(-916.535 -1377.184)" fill="#4d592b"/>
                  <path id="Path_1257545" data-name="Path 1257545" d="M872.211,1433.58a.337.337,0,0,1-.329-.267c-.111-.525-2.069-.485-2.906-.469a7.4,7.4,0,0,1-.988-.014l-.053-.008h0a6.1,6.1,0,0,1-4.023-2.689,10.568,10.568,0,0,1-1.087-2.151,8.183,8.183,0,0,0-1.164-2.2,1.316,1.316,0,0,0-.422-.3,1.261,1.261,0,0,1-.7-.713.353.353,0,0,1,.084-.364,11.4,11.4,0,0,1,4.036-.374,11.1,11.1,0,0,1,4.262,2.989c1.61,1.836,3.1,3.689,3.618,6.151a.337.337,0,0,1-.26.4A.341.341,0,0,1,872.211,1433.58Zm-2.493-1.419a6.953,6.953,0,0,1,1.9.2,14.972,14.972,0,0,0-3.2-4.892,10.4,10.4,0,0,0-3.994-2.8,14.653,14.653,0,0,0-2.936.189l.067.036a1.951,1.951,0,0,1,.616.457,8.763,8.763,0,0,1,1.277,2.378,10.083,10.083,0,0,0,1.01,2.014,5.46,5.46,0,0,0,3.577,2.418l.05.007a7.873,7.873,0,0,0,.878.008C869.2,1432.166,869.458,1432.161,869.718,1432.161Z" transform="translate(-860.522 -1416.829)" fill="#4d592b"/>
                </g>
                <g id="Group_1203982" data-name="Group 1203982" transform="translate(129.073 111.758)">
                  <path id="Path_1257546" data-name="Path 1257546" d="M1387.425,1842.253a.331.331,0,0,1-.057-.005c-.21-.038-.305-.055-1.01-2.164a17.436,17.436,0,0,1-.678-2.428,14.922,14.922,0,0,1,1-5.21l.185-.583a14.483,14.483,0,0,1,1.78-3.552,10.067,10.067,0,0,1,1.042-1.259,5.55,5.55,0,0,0,1.486-2.214c.013-.081.027-.161.043-.242a.337.337,0,0,1,.664.107q-.017.137-.047.269a10.946,10.946,0,0,0,.584,4.468,14.407,14.407,0,0,1,.672,3.842c-.029,2.89-1.45,4.22-2.825,5.506a9.184,9.184,0,0,0-2.521,3.25A.354.354,0,0,1,1387.425,1842.253Zm.256-.551h0Zm3.441-15.284a14.027,14.027,0,0,1-.935,1.09,9.6,9.6,0,0,0-.973,1.171,13.848,13.848,0,0,0-1.7,3.386l-.187.586a14.426,14.426,0,0,0-.972,4.98,28.048,28.048,0,0,0,1.084,3.489,10.787,10.787,0,0,1,2.372-2.824c1.387-1.3,2.585-2.419,2.611-5.021a13.911,13.911,0,0,0-.649-3.66A17.248,17.248,0,0,1,1391.122,1826.418Zm-3.931,5.546h0Z" transform="translate(-1372.77 -1824.326)" fill="#4d592b"/>
                  <path id="Path_1257547" data-name="Path 1257547" d="M1315.686,1872.9a.337.337,0,0,1-.33-.274c-.141-.74-2.595-.739-3.755-.739a9.563,9.563,0,0,1-1.234-.042l-.068-.011a7.642,7.642,0,0,1-4.965-3.468,13.316,13.316,0,0,1-1.312-2.733,10.431,10.431,0,0,0-1.433-2.833,1.758,1.758,0,0,0-.552-.414,1.5,1.5,0,0,1-.822-.871.358.358,0,0,1,.092-.364,14.784,14.784,0,0,1,5.023-.353,13.955,13.955,0,0,1,5.284,3.866c1.984,2.356,3.814,4.729,4.405,7.837h0a.337.337,0,0,1-.268.394A.35.35,0,0,1,1315.686,1872.9Zm-3.971-1.687a10.482,10.482,0,0,1,3.382.358,18.669,18.669,0,0,0-4-6.474,13.265,13.265,0,0,0-5.019-3.675,19.515,19.515,0,0,0-4,.195,2.253,2.253,0,0,0,.29.18,2.4,2.4,0,0,1,.743.572,11.023,11.023,0,0,1,1.542,3.018,12.833,12.833,0,0,0,1.238,2.594,7,7,0,0,0,4.526,3.189l.064.011a9.766,9.766,0,0,0,1.124.033Zm-9.864-9.916h0Z" transform="translate(-1301.197 -1855.15)" fill="#4d592b"/>
                </g>
                <g id="Group_1203983" data-name="Group 1203983" transform="translate(82.901 63.057)">
                  <path id="Path_1257548" data-name="Path 1257548" d="M1084.175,1522.676h-.02c-.214-.013-.3-.018-1.193-1.915a15.721,15.721,0,0,1-.9-2.19,14,14,0,0,1,.366-4.962l.109-.565a13.571,13.571,0,0,1,1.27-3.5,9.617,9.617,0,0,1,.834-1.288,5.187,5.187,0,0,0,1.138-2.212c0-.076.008-.153.014-.229a.33.33,0,0,1,.35-.309.337.337,0,0,1,.322.339c0,.086-.006.172-.015.256a10.24,10.24,0,0,0,1.029,4.084,13.5,13.5,0,0,1,1.045,3.507c.29,2.7-.891,4.1-2.033,5.448a8.591,8.591,0,0,0-1.988,3.292A.352.352,0,0,1,1084.175,1522.676Zm.23-.577h0Zm1.509-14.524c-.216.367-.472.721-.724,1.069a9.031,9.031,0,0,0-.776,1.193,12.948,12.948,0,0,0-1.212,3.331l-.11.569a13.493,13.493,0,0,0-.362,4.73,25.005,25.005,0,0,0,1.365,3.081,10.211,10.211,0,0,1,1.886-2.852c1.146-1.356,2.136-2.526,1.878-4.941a13.012,13.012,0,0,0-1-3.329A16.485,16.485,0,0,1,1085.914,1507.575Zm-3.043,5.531h0Z" transform="translate(-1069.28 -1505.499)" fill="#4d592b"/>
                  <path id="Path_1257549" data-name="Path 1257549" d="M1013.653,1559.854a.337.337,0,0,1-.321-.236h0c-.208-.656-2.466-.389-3.551-.261a8.8,8.8,0,0,1-1.157.1l-.064,0a7.177,7.177,0,0,1-5.013-2.691,12.472,12.472,0,0,1-1.521-2.4,9.742,9.742,0,0,0-1.638-2.473,1.626,1.626,0,0,0-.552-.321,1.422,1.422,0,0,1-.871-.731.355.355,0,0,1,.048-.371,13.88,13.88,0,0,1,4.657-.885,13.091,13.091,0,0,1,5.346,3.024c2.1,1.977,4.067,3.985,4.958,6.817v0a.337.337,0,0,1-.22.422A.34.34,0,0,1,1013.653,1559.854Zm-13.806-9.027c.068.036.148.07.245.11a2.266,2.266,0,0,1,.76.456,10.355,10.355,0,0,1,1.767,2.644,12,12,0,0,0,1.431,2.274,6.531,6.531,0,0,0,4.543,2.464h0l.059,0a9.106,9.106,0,0,0,1.048-.092,10.459,10.459,0,0,1,3.258-.06,17.539,17.539,0,0,0-4.405-5.539,12.4,12.4,0,0,0-5.061-2.865A17.829,17.829,0,0,0,999.847,1550.828Z" transform="translate(-998.932 -1542.821)" fill="#4d592b"/>
                </g>
                <g id="Group_1203984" data-name="Group 1203984" transform="translate(42.935 102.788)">
                  <path id="Path_1257550" data-name="Path 1257550" d="M802.19,1782.173a.323.323,0,0,1-.077-.009c-.208-.051-.294-.071-.838-2.1a15.642,15.642,0,0,1-.5-2.315,14,14,0,0,1,1.232-4.821l.207-.536a13.563,13.563,0,0,1,1.866-3.226,9.672,9.672,0,0,1,1.047-1.121,5.178,5.178,0,0,0,1.508-1.976c.016-.074.034-.149.054-.223a.337.337,0,0,1,.657.147q-.024.128-.059.25a10.233,10.233,0,0,0,.3,4.2,13.51,13.51,0,0,1,.413,3.637c-.19,2.71-1.6,3.876-2.958,5a8.585,8.585,0,0,0-2.534,2.89A.354.354,0,0,1,802.19,1782.173Zm.27-.533h0Zm.385-9-.208.539a13.476,13.476,0,0,0-1.187,4.594,24.971,24.971,0,0,0,.8,3.274,10.2,10.2,0,0,1,2.358-2.474c1.366-1.132,2.547-2.11,2.716-4.532a13.022,13.022,0,0,0-.4-3.454,16.487,16.487,0,0,1-.427-2.974c-.277.323-.591.626-.9.925a9.028,9.028,0,0,0-.973,1.037A12.944,12.944,0,0,0,802.844,1772.638Z" transform="translate(-791.078 -1765.599)" fill="#4d592b"/>
                  <path id="Path_1257551" data-name="Path 1257551" d="M748.256,1815.96a.337.337,0,0,1-.334-.294h0c-.07-.532-2.025-.649-2.859-.7a7.478,7.478,0,0,1-.983-.094l-.054-.012a6.106,6.106,0,0,1-3.794-3,10.544,10.544,0,0,1-.912-2.232,8.184,8.184,0,0,0-.985-2.281,1.316,1.316,0,0,0-.4-.335,1.261,1.261,0,0,1-.637-.767.353.353,0,0,1,.113-.356,11.4,11.4,0,0,1,4.053-.049,11.105,11.105,0,0,1,4.009,3.321c1.459,1.959,2.794,3.925,3.115,6.42v0a.337.337,0,0,1-.291.377Zm-10.02-9.56.064.041a1.947,1.947,0,0,1,.578.5,8.76,8.76,0,0,1,1.083,2.472,10.081,10.081,0,0,0,.846,2.089,5.461,5.461,0,0,0,3.373,2.7h0l.048.011a7.8,7.8,0,0,0,.875.078,9.462,9.462,0,0,1,2.633.4,14.978,14.978,0,0,0-2.8-5.132,10.413,10.413,0,0,0-3.757-3.115A14.651,14.651,0,0,0,738.236,1806.4Z" transform="translate(-737.29 -1799.558)" fill="#4d592b"/>
                </g>
                <g id="Group_1203985" data-name="Group 1203985" transform="translate(62.602 128.096)">
                  <path id="Path_1257552" data-name="Path 1257552" d="M947.992,1948.819a.322.322,0,0,1-.083-.011c-.206-.054-.3-.079-.834-2.237a17.387,17.387,0,0,1-.482-2.475,14.933,14.933,0,0,1,1.416-5.11l.233-.569h0a14.457,14.457,0,0,1,2.058-3.4,10.05,10.05,0,0,1,1.138-1.171,5.54,5.54,0,0,0,1.659-2.088q.029-.119.062-.237a.337.337,0,0,1,.654.16c-.018.09-.042.177-.068.263a10.946,10.946,0,0,0,.225,4.5,14.42,14.42,0,0,1,.363,3.884c-.26,2.879-1.783,4.09-3.256,5.262a9.179,9.179,0,0,0-2.773,3.038A.355.355,0,0,1,947.992,1948.819Zm.273-.53h0Zm.6-9.619-.233.571a14.407,14.407,0,0,0-1.366,4.884,27.98,27.98,0,0,0,.8,3.564,10.783,10.783,0,0,1,2.59-2.625c1.487-1.182,2.771-2.2,3-4.795a13.913,13.913,0,0,0-.354-3.7,17.28,17.28,0,0,1-.392-3.24,13.943,13.943,0,0,1-1.019,1.012,9.665,9.665,0,0,0-1.064,1.089A13.835,13.835,0,0,0,948.865,1938.67Z" transform="translate(-934.287 -1931.279)" fill="#4d592b"/>
                  <path id="Path_1257553" data-name="Path 1257553" d="M879.593,1972.452a.337.337,0,0,1-.335-.3h0c-.082-.749-2.515-.944-3.684-1.038a9.426,9.426,0,0,1-1.228-.141l-.066-.017a7.647,7.647,0,0,1-4.673-3.855,13.324,13.324,0,0,1-1.089-2.829,10.417,10.417,0,0,0-1.2-2.939,1.76,1.76,0,0,0-.517-.457,1.5,1.5,0,0,1-.75-.934.358.358,0,0,1,.121-.356,14.8,14.8,0,0,1,5.035.051,13.97,13.97,0,0,1,4.958,4.277c1.79,2.508,3.425,5.02,3.765,8.166a.336.336,0,0,1-.3.371Zm-5.146-2.149.062.015a9.657,9.657,0,0,0,1.12.124,10.9,10.9,0,0,1,3.457.637,18.681,18.681,0,0,0-3.47-6.774,13.274,13.274,0,0,0-4.709-4.065,19.519,19.519,0,0,0-4.007-.128,2.266,2.266,0,0,0,.275.2,2.4,2.4,0,0,1,.695.63,11.041,11.041,0,0,1,1.3,3.132,12.866,12.866,0,0,0,1.027,2.685A7,7,0,0,0,874.447,1970.3Z" transform="translate(-866.04 -1955.098)" fill="#4d592b"/>
                </g>
                <g id="Group_1203986" data-name="Group 1203986" transform="translate(20.341 75.692)">
                  <path id="Path_1257554" data-name="Path 1257554" d="M671.766,1605.185a.284.284,0,0,1-.045,0c-.212-.03-.3-.042-1.037-2a15.679,15.679,0,0,1-.719-2.256,13.993,13.993,0,0,1,.761-4.917l.154-.554h0a13.585,13.585,0,0,1,1.546-3.391,9.646,9.646,0,0,1,.934-1.217,5.189,5.189,0,0,0,1.311-2.113c.009-.076.02-.151.032-.228a.337.337,0,0,1,.668.083q-.011.129-.035.254a10.239,10.239,0,0,0,.7,4.153,13.518,13.518,0,0,1,.762,3.579c.072,2.716-1.216,4.013-2.462,5.267a8.585,8.585,0,0,0-2.244,3.122A.353.353,0,0,1,671.766,1605.185Zm.25-.558h0Zm-.486-9-.155.557a13.48,13.48,0,0,0-.738,4.687,25,25,0,0,0,1.114,3.181,10.2,10.2,0,0,1,2.108-2.691c1.251-1.259,2.331-2.347,2.267-4.775a13.02,13.02,0,0,0-.732-3.4,16.511,16.511,0,0,1-.712-2.919c-.244.348-.528.681-.807,1.008a9.007,9.007,0,0,0-.869,1.127A12.957,12.957,0,0,0,671.53,1595.63Z" transform="translate(-657.636 -1588.218)" fill="#4d592b"/>
                  <path id="Path_1257555" data-name="Path 1257555" d="M603.349,1636.7a.337.337,0,0,1-.328-.262c-.153-.671-2.426-.587-3.519-.546a8.874,8.874,0,0,1-1.161,0l-.063-.008a7.178,7.178,0,0,1-4.782-3.084,12.494,12.494,0,0,1-1.324-2.517,9.743,9.743,0,0,0-1.435-2.6,1.634,1.634,0,0,0-.525-.364,1.423,1.423,0,0,1-.81-.8.356.356,0,0,1,.078-.366c.337-.344,4.212-.689,4.713-.509a13.1,13.1,0,0,1,5.087,3.443c1.94,2.14,3.737,4.3,4.4,7.194h0a.337.337,0,0,1-.253.4A.345.345,0,0,1,603.349,1636.7Zm-2.646-1.511a6.847,6.847,0,0,1,2.026.232,17.552,17.552,0,0,0-3.949-5.875,12.4,12.4,0,0,0-4.816-3.262,17.753,17.753,0,0,0-3.683.309,2.6,2.6,0,0,0,.235.13,2.264,2.264,0,0,1,.721.515,10.355,10.355,0,0,1,1.551,2.778,12.009,12.009,0,0,0,1.245,2.381,6.533,6.533,0,0,0,4.332,2.821h0l.058.008a9.07,9.07,0,0,0,1.051-.008C599.863,1635.207,600.283,1635.192,600.7,1635.192Z" transform="translate(-589.38 -1619.893)" fill="#4d592b"/>
                </g>
                <g id="Group_1203987" data-name="Group 1203987" transform="translate(101.381 19.553)">
                  <path id="Path_1257556" data-name="Path 1257556" d="M1195.616,1236.019h-.02c-.211-.013-.291-.018-1.091-1.721a13.847,13.847,0,0,1-.8-1.955,12.453,12.453,0,0,1,.325-4.419l.1-.5a12.1,12.1,0,0,1,1.131-3.121,8.579,8.579,0,0,1,.743-1.149,4.583,4.583,0,0,0,1-1.944c0-.068.007-.135.012-.2a.337.337,0,0,1,.673.03q0,.113-.013.224a9.05,9.05,0,0,0,.911,3.613,12.018,12.018,0,0,1,.93,3.123,5.8,5.8,0,0,1-1.813,4.864,7.6,7.6,0,0,0-1.757,2.908A.35.35,0,0,1,1195.616,1236.019Zm.234-.573h0Zm1.292-12.768c-.184.3-.394.595-.594.871a8,8,0,0,0-.686,1.053,11.49,11.49,0,0,0-1.073,2.948l-.1.5a11.941,11.941,0,0,0-.321,4.188,21.862,21.862,0,0,0,1.17,2.649,9.259,9.259,0,0,1,1.649-2.465c1.012-1.2,1.886-2.23,1.658-4.357a11.358,11.358,0,0,0-.886-2.945A15.223,15.223,0,0,1,1197.142,1222.677Zm-2.683,4.809h0Z" transform="translate(-1182.356 -1220.696)" fill="#4d592b"/>
                  <path id="Path_1257557" data-name="Path 1257557" d="M1133.013,1269.051a.337.337,0,0,1-.321-.236c-.174-.553-2.233-.31-3.112-.207a7.942,7.942,0,0,1-1.034.085l-.056,0h0a6.4,6.4,0,0,1-4.476-2.4,11.136,11.136,0,0,1-1.356-2.141,8.6,8.6,0,0,0-1.446-2.186,1.411,1.411,0,0,0-.479-.277,1.312,1.312,0,0,1-.793-.668.353.353,0,0,1,.048-.37,12.539,12.539,0,0,1,4.173-.8,11.655,11.655,0,0,1,4.762,2.693c1.872,1.759,3.619,3.546,4.411,6.069h0a.337.337,0,0,1-.321.438Zm-4.489-1.032.054,0a8.238,8.238,0,0,0,.922-.081,9.744,9.744,0,0,1,2.832-.068,15.706,15.706,0,0,0-3.872-4.836,10.964,10.964,0,0,0-4.477-2.534,15.435,15.435,0,0,0-3.119.51l.124.053a2.042,2.042,0,0,1,.687.412,9.23,9.23,0,0,1,1.576,2.357,10.631,10.631,0,0,0,1.266,2.011A5.759,5.759,0,0,0,1128.524,1268.018Z" transform="translate(-1119.908 -1253.855)" fill="#4d592b"/>
                </g>
              </g>
            </g>
          </g>
        </g>
      </g>
    </g>
  </g>
</svg>
