<svg xmlns="http://www.w3.org/2000/svg" width="104.026" height="103" viewBox="0 0 104.026 103">
  <g id="Group_1204016" data-name="Group 1204016" transform="translate(-307.051 -4826.169)">
    <g id="Group_1201021" data-name="Group 1201021" transform="translate(307.051 4848.093)">
      <rect id="Rectangle_410589" data-name="Rectangle 410589" width="103.788" height="34.596" rx="8" transform="translate(0 12.116)" fill="#ffc94a"/>
      <g id="Group_1204013" data-name="Group 1204013" transform="translate(27.082 0)">
        <g id="Group_1204014" data-name="Group 1204014" transform="translate(1.166 0.994)">
          <path id="Path_1257668" data-name="Path 1257668" d="M136.905,127.032v41.258a2.4,2.4,0,0,1-2.384,2.424h-31a2.4,2.4,0,0,1-2.384-2.424v-20.7a41.2,41.2,0,0,0,10.928-1.57,22.96,22.96,0,0,0,12.07-8.6,66.033,66.033,0,0,1,5.007-6.467,14.248,14.248,0,0,1,4.778-3.368A8.673,8.673,0,0,1,136.21,127Z" transform="translate(-95.181 -113.094)" fill="#f57c00"/>
          <path id="Path_1257669" data-name="Path 1257669" d="M133.925,131.952v40.711a2.4,2.4,0,0,1-2.384,2.424H103.525a2.4,2.4,0,0,1-2.384-2.424v-20.7a41.2,41.2,0,0,0,10.928-1.57,22.96,22.96,0,0,0,12.07-8.6,66.034,66.034,0,0,1,5.007-6.467A14.245,14.245,0,0,1,133.925,131.952Z" transform="translate(-95.18 -117.468)" fill="#ff9801"/>
          <path id="Path_1257670" data-name="Path 1257670" d="M385.722,264.218v12.835h-.7a15.432,15.432,0,0,0-2.285.288V264.665a10.951,10.951,0,0,1,2.285-.447Z" transform="translate(-343.998 -234.335)" fill="#d84315"/>
          <path id="Path_1257671" data-name="Path 1257671" d="M133.926,268.058v12.676a18.217,18.217,0,0,0-4.778,1.619,50.6,50.6,0,0,0-5.007,3.119,29.847,29.847,0,0,1-12.07,4.153,84.453,84.453,0,0,1-10.928.755v-6.954a53.6,53.6,0,0,0,10.928-1.2,23.737,23.737,0,0,0,12.07-6.616,54.982,54.982,0,0,1,5.007-4.967A14.832,14.832,0,0,1,133.926,268.058Z" transform="translate(-95.181 -237.728)" fill="#ff5722"/>
          <path id="Path_1257672" data-name="Path 1257672" d="M367.627,451.269v3.537a2.4,2.4,0,0,1-2.384,2.424h-2.98a2.4,2.4,0,0,0,2.384-2.424v-3.249a15.466,15.466,0,0,1,2.285-.288Z" transform="translate(-325.902 -399.61)" fill="#d84315"/>
          <path id="Path_1257673" data-name="Path 1257673" d="M296.335,453.744v3.249a2.4,2.4,0,0,1-2.384,2.424h-9c.556-.288,1.093-.606,1.6-.934a50.625,50.625,0,0,1,5.007-3.119A18.214,18.214,0,0,1,296.335,453.744Z" transform="translate(-257.591 -401.797)" fill="#ff5722"/>
          <path id="Path_1257674" data-name="Path 1257674" d="M414.228,105.038a3.7,3.7,0,0,1-1.8,3.159c-1.252.735-2.762.387-4.143.407a3.316,3.316,0,0,0,1.162-.407,3.7,3.7,0,0,0,1.8-3.159,3.609,3.609,0,0,0-2.99-3.586c.8-.04,1.609-.05,2.394-.05a3.606,3.606,0,0,1,3.576,3.636Z" transform="translate(-366.542 -90.474)" fill="#4e342e"/>
          <g id="Group_1204013-2" data-name="Group 1204013" transform="translate(0 10.977)">
            <path id="Path_1257675" data-name="Path 1257675" d="M94.647,105.415a3.7,3.7,0,0,1-1.8,3.159,3.318,3.318,0,0,1-1.162.407h-.169c-.189.01-.368.02-.546.04l-.209.03h-.04a12.351,12.351,0,0,0-6.815,3.914,66.034,66.034,0,0,0-5.007,6.467,22.96,22.96,0,0,1-12.07,8.6,41.211,41.211,0,0,1-10.928,1.57c-.795.03-1.589.04-2.384.04a2.908,2.908,0,0,1-.507-.04h-.02a3.644,3.644,0,0,1,.159-7.212c.119-.01.248-.02.368-.02,7.173,0,14.147-1.639,18.945-7.341,1.6-1.9,2.722-4.123,4.282-6.06a19.473,19.473,0,0,1,5.772-5,20.984,20.984,0,0,1,9.14-2.146A3.609,3.609,0,0,1,94.647,105.415Z" transform="translate(-49.942 -101.829)" fill="#795548"/>
            <path id="Path_1257676" data-name="Path 1257676" d="M401.462,163.269a6.5,6.5,0,0,1-.884.07l.209-.03c.179-.02.358-.03.546-.04Z" transform="translate(-359.757 -156.116)" fill="#795548"/>
          </g>
          <path id="Path_1257677" data-name="Path 1257677" d="M212.076,11.51l8.113,7.948,4.056-11.921Z" transform="translate(-193.201 -7.536)" fill="#00bcd4"/>
        </g>
        <g id="Group_1204015" data-name="Group 1204015" transform="translate(0 0)">
          <path id="Path_1257678" data-name="Path 1257678" d="M70.434,101.436a36,36,0,0,0-2.09,2.976,30.78,30.78,0,0,1-2.177,3.061c-3.958,4.705-9.907,6.993-18.187,6.993a4.628,4.628,0,0,0,0,9.256c.447,0,.913,0,1.391-.01v15.421a3.4,3.4,0,0,0,3.378,3.416H83.744a3.4,3.4,0,0,0,3.378-3.416V103.088h.013a6.185,6.185,0,0,0,3.658-.579A4.68,4.68,0,0,0,93.083,98.5a4.6,4.6,0,0,0-4.569-4.628c-3.622,0-8.259.263-12.011,2.312A20.329,20.329,0,0,0,70.434,101.436Zm-8.855,20.638a23.879,23.879,0,0,0,12.581-8.965c.433-.58.856-1.169,1.278-1.758a40.309,40.309,0,0,1,3.651-4.606,11.57,11.57,0,0,1,6.047-3.588v9.7a14.59,14.59,0,0,0-7.386,3.214,36.648,36.648,0,0,0-3.844,3.724c-.415.445-.83.89-1.255,1.327a22.729,22.729,0,0,1-11.583,6.333,49.567,49.567,0,0,1-9.709,1.15v-4.957A41.568,41.568,0,0,0,61.579,122.074ZM51.358,130.6a51.654,51.654,0,0,0,10.158-1.2,24.654,24.654,0,0,0,12.56-6.885c.434-.447.858-.9,1.282-1.355a34.6,34.6,0,0,1,3.629-3.527,12.743,12.743,0,0,1,6.148-2.766v10.819a19.269,19.269,0,0,0-7.211,1.987,34.679,34.679,0,0,0-3.849,2.343c-.414.279-.829.557-1.252.831a28.718,28.718,0,0,1-11.675,4,78.379,78.379,0,0,1-9.791.728V130.6Zm0,8.534v-1.569a80.5,80.5,0,0,0,10.077-.749,30.638,30.638,0,0,0,12.468-4.3c.433-.281.857-.566,1.281-.851a32.573,32.573,0,0,1,3.629-2.215,17.3,17.3,0,0,1,6.322-1.771v6.948a19.2,19.2,0,0,0-7.209,1.99,33.729,33.729,0,0,0-3.831,2.33c-.42.283-.841.566-1.271.844-.446.288-.886.544-1.315.775H52.75A1.412,1.412,0,0,1,51.358,139.132Zm32.386,1.43h-8.5a31.4,31.4,0,0,1,3.566-2.171,17.235,17.235,0,0,1,6.32-1.774v2.516A1.412,1.412,0,0,1,83.744,140.562ZM77.456,97.926c3.357-1.834,7.673-2.069,11.058-2.069A2.615,2.615,0,0,1,91.1,98.5a2.684,2.684,0,0,1-1.315,2.3,4.588,4.588,0,0,1-2.541.305c-.343-.018-.685-.036-1.021-.036-.038,0-.077,0-.113,0l-.16,0c-3.532.113-6.456,2.4-8.287,4.291a42.274,42.274,0,0,0-3.837,4.829c-.415.579-.83,1.158-1.256,1.729A21.962,21.962,0,0,1,61,120.172a45.408,45.408,0,0,1-13.024,1.562,2.642,2.642,0,0,1,0-5.282c8.9,0,15.348-2.519,19.707-7.7a32.855,32.855,0,0,0,2.321-3.255,34.236,34.236,0,0,1,1.972-2.815A18.405,18.405,0,0,1,77.456,97.926Z" transform="translate(-43.238 -82.942)"/>
          <path id="Path_1257679" data-name="Path 1257679" d="M42.923,23.595h.008c7.909-.064,13.962-2,17.995-5.74a31.174,31.174,0,0,0,4.266-5.3c.411-.6.836-1.2,1.268-1.793l2.926,2.866a1,1,0,0,0,.7.284.975.975,0,0,0,.23-.027.991.991,0,0,0,.71-.646L75.077,1.314A.993.993,0,0,0,73.829.049L61.659,4.023a.994.994,0,0,0-.387,1.654l3.754,3.677c-.507.688-1,1.385-1.47,2.069A29.2,29.2,0,0,1,59.572,16.4c-3.656,3.4-9.26,5.148-16.657,5.208a.993.993,0,1,0,.008,1.987ZM72.557,2.555,69.649,11.1,63.832,5.4Z" transform="translate(-41.926 0)"/>
        </g>
      </g>
    </g>
    <rect id="Rectangle_411641" data-name="Rectangle 411641" width="103" height="103" transform="translate(308.077 4826.169)" fill="none"/>
  </g>
</svg>
