<svg xmlns="http://www.w3.org/2000/svg" width="104" height="103" viewBox="0 0 104 103">
  <g id="Group_1204018" data-name="Group 1204018" transform="translate(-307.051 -4825.766)">
    <g id="Group_1201021" data-name="Group 1201021" transform="translate(307.051 4848.093)">
      <rect id="Rectangle_410589" data-name="Rectangle 410589" width="103.788" height="34.596" rx="8" transform="translate(0 12.672)" fill="#ffc94a"/>
      <g id="Group_1204019" data-name="Group 1204019" transform="translate(20 -2.327)">
        <g id="Group_1204019-2" data-name="Group 1204019">
          <path id="Path_1257683" data-name="Path 1257683" d="M27.3,24H21.23l-7.46,6.78a4.646,4.646,0,0,1-6.31-6.82l8.67-8.16A17.689,17.689,0,0,1,28.23,11H41L56,0h8V16l-10.31,8.25A17.121,17.121,0,0,1,43,28H26.23A7.944,7.944,0,0,1,27.3,24Z" fill="#f4baa6"/>
          <circle id="Ellipse_12733" data-name="Ellipse 12733" cx="2.5" cy="2.5" r="2.5" transform="translate(52 53.999)" fill="#896148"/>
          <path id="Path_1257684" data-name="Path 1257684" d="M64,50V64H0V50H1a7.428,7.428,0,0,0,4.06-1.17,6.326,6.326,0,0,0,2.54-3.08A5.758,5.758,0,0,1,13,42a5.758,5.758,0,0,0,5.4-3.75A6.57,6.57,0,0,1,24.54,34H39.46a6.57,6.57,0,0,1,6.14,4.25A5.758,5.758,0,0,0,51,42a5.758,5.758,0,0,1,5.4,3.75A6.927,6.927,0,0,0,63,50Zm-7,6.5A2.5,2.5,0,1,0,54.5,59,2.5,2.5,0,0,0,57,56.5Zm-16.44.16a6.434,6.434,0,0,0,1.44-4.3,5.6,5.6,0,0,0-1.89-4.27,6.955,6.955,0,0,0-3.87-1.67,2.021,2.021,0,0,1-1.77-1.56,6.95,6.95,0,0,0-2.16-3.62,5.544,5.544,0,0,0-3.7-1.38,6.332,6.332,0,0,0-4.75,2.2A6.567,6.567,0,0,0,22.24,48a12.859,12.859,0,0,0,4.55,7.43A13.572,13.572,0,0,0,35.65,59,6.47,6.47,0,0,0,40.56,56.659ZM17,53.5A2.5,2.5,0,1,0,14.5,56,2.5,2.5,0,0,0,17,53.5Z" fill="#9b7868"/>
          <circle id="Ellipse_12734" data-name="Ellipse 12734" cx="2.5" cy="2.5" r="2.5" transform="translate(12 50.999)" fill="#896148"/>
          <path id="Path_1257685" data-name="Path 1257685" d="M42,52.359A6.386,6.386,0,0,1,35.65,59a13.572,13.572,0,0,1-8.86-3.57A12.859,12.859,0,0,1,22.24,48a6.567,6.567,0,0,1,1.62-5.94,6.332,6.332,0,0,1,4.75-2.2,5.544,5.544,0,0,1,3.7,1.38,6.95,6.95,0,0,1,2.16,3.62,2.021,2.021,0,0,0,1.77,1.56,6.955,6.955,0,0,1,3.87,1.67A5.6,5.6,0,0,1,42,52.359Z" fill="#f7a539"/>
        </g>
        <g id="Group_1204020" data-name="Group 1204020">
          <path id="Path_1257686" data-name="Path 1257686" d="M10.28,32.978a5.209,5.209,0,0,0,4.162-1.458L21.617,25h4.125a9.023,9.023,0,0,0-.512,2.981,1.008,1.008,0,0,0,1,1.019H43a18.191,18.191,0,0,0,11.315-3.969l9.31-7.45a1,1,0,0,0-1.25-1.562l-9.309,7.449A16.184,16.184,0,0,1,43,27H27.3a6.941,6.941,0,0,1,.862-2.5l0,0A6.972,6.972,0,0,1,34.23,21h5.34a1,1,0,0,0,0-2H34.23a8.793,8.793,0,0,0-7.464,4H20.843L13.2,29.944a3.849,3.849,0,0,1-2.317,1.038,3.613,3.613,0,0,1-3-1.261A3.677,3.677,0,0,1,7,27.34a3.6,3.6,0,0,1,1.146-2.652l8.669-8.159A16.626,16.626,0,0,1,28.23,12h13.1l13.9-10.194A1,1,0,0,0,54.045.193L40.673,10H28.231a18.618,18.618,0,0,0-12.786,5.072L6.775,23.23A5.579,5.579,0,0,0,5,27.339a5.68,5.68,0,0,0,1.359,3.68,5.583,5.583,0,0,0,3.921,1.959Z" fill="#252525"/>
          <path id="Path_1257687" data-name="Path 1257687" d="M63,49a5.942,5.942,0,0,1-5.662-3.6A6.759,6.759,0,0,0,51,41a4.756,4.756,0,0,1-4.465-3.1A7.6,7.6,0,0,0,39.46,33H24.54a7.6,7.6,0,0,0-7.077,4.9A4.757,4.757,0,0,1,13,41a6.763,6.763,0,0,0-6.336,4.4,5.3,5.3,0,0,1-2.151,2.6A6.4,6.4,0,0,1,1,49a1,1,0,1,0,0,2,8.387,8.387,0,0,0,4.6-1.327A7.282,7.282,0,0,0,8.537,46.1,4.757,4.757,0,0,1,13,43a6.762,6.762,0,0,0,6.336-4.4,5.588,5.588,0,0,1,5.2-3.6H39.46a5.585,5.585,0,0,1,5.2,3.6A6.759,6.759,0,0,0,51,43a4.756,4.756,0,0,1,4.465,3.1A7.947,7.947,0,0,0,63,51a1,1,0,0,0,0-2Z" fill="#252525"/>
          <path id="Path_1257688" data-name="Path 1257688" d="M14.5,50A3.5,3.5,0,0,0,11,53.5a1,1,0,0,0,2,0A1.5,1.5,0,1,1,14.5,55a1,1,0,1,0,0,2,3.5,3.5,0,0,0,0-7Z" fill="#252525"/>
          <path id="Path_1257689" data-name="Path 1257689" d="M54.5,53a3.5,3.5,0,0,0,0,7,1,1,0,0,0,0-2A1.5,1.5,0,1,1,56,56.5a1,1,0,0,0,2,0A3.5,3.5,0,0,0,54.5,53Z" fill="#252525"/>
          <path id="Path_1257690" data-name="Path 1257690" d="M40.766,47.335a7.939,7.939,0,0,0-4.424-1.91,1.024,1.024,0,0,1-.9-.8,7.913,7.913,0,0,0-2.47-4.135A6.564,6.564,0,0,0,28.61,38.86a7.332,7.332,0,0,0-5.5,2.539,7.519,7.519,0,0,0-1.852,6.793v0c.617,3.1,2.024,5.41,4.86,7.978A14.523,14.523,0,0,0,35.7,60H35.7a7.451,7.451,0,0,0,5.606-2.679A7.369,7.369,0,0,0,43,52.36a6.642,6.642,0,0,0-2.233-5.024ZM39.808,56a5.433,5.433,0,0,1-4.158,2,12.653,12.653,0,0,1-8.189-3.311c-2.519-2.281-3.707-4.211-4.24-6.884a5.562,5.562,0,0,1,1.392-5.086,5.339,5.339,0,0,1,4-1.859,4.562,4.562,0,0,1,3.039,1.132,5.923,5.923,0,0,1,1.847,3.1,3.039,3.039,0,0,0,2.642,2.326,5.944,5.944,0,0,1,3.314,1.429A4.584,4.584,0,0,1,41,52.361,5.516,5.516,0,0,1,39.81,56Z" fill="#252525"/>
          <path id="Path_1257691" data-name="Path 1257691" d="M35.932,49.4a5,5,0,0,1-4.379-3.855,1,1,0,1,0-1.947.459,7.652,7.652,0,0,0,2.2,3.674A6.832,6.832,0,0,0,35.83,51.4a1,1,0,0,0,.1-1.994Z" fill="#252525"/>
          <circle id="Ellipse_12735" data-name="Ellipse 12735" cx="1.5" cy="1.5" r="1.5" transform="translate(47 47.999)" fill="#252525"/>
          <circle id="Ellipse_12736" data-name="Ellipse 12736" cx="1.5" cy="1.5" r="1.5" transform="translate(5 57.999)" fill="#252525"/>
        </g>
      </g>
    </g>
    <rect id="Rectangle_411641" data-name="Rectangle 411641" width="103" height="103" transform="translate(308.051 4825.766)" fill="none"/>
  </g>
</svg>
