<svg xmlns="http://www.w3.org/2000/svg" width="104" height="103" viewBox="0 0 104 103">
  <g id="Group_1204017" data-name="Group 1204017" transform="translate(-307.051 -4825.766)">
    <g id="Group_1201021" data-name="Group 1201021" transform="translate(307.051 4848.093)">
      <rect id="Rectangle_410589" data-name="Rectangle 410589" width="103.788" height="34.596" rx="8" transform="translate(0 12.672)" fill="#ffc94a"/>
      <g id="Layer_x0020_1" transform="translate(16 -236.328)">
        <path id="Path_1257680" data-name="Path 1257680" d="M25.16,276.21H2.465v7.82H70.083v-7.82H62.815a1.233,1.233,0,0,1,0-2.465h7.268V264.48h-9.1a1.233,1.233,0,0,1,0-2.465h9.1V252.75H65.748a1.233,1.233,0,0,1,0-2.465h4.335v-7.82H60.01L50.873,276.89a1.226,1.226,0,0,1-1.19.935H38.845a1.248,1.248,0,0,1-1.148-.765l-7.013-16.235h-10.2a1.248,1.248,0,0,1-1.148-.765l-6.715-17.6H2.465v7.82H6.758a1.233,1.233,0,1,1,0,2.465H2.465v9.265h9.18a1.233,1.233,0,1,1,0,2.465H2.465v9.265h22.7A1.233,1.233,0,0,1,25.16,276.21ZM0,285.263v-44.03A1.233,1.233,0,0,1,1.233,240h12.24a1.206,1.206,0,0,1,1.148.765l6.715,17.6H31.493a1.191,1.191,0,0,1,1.105.765l7.055,16.235h9.1l9.1-34.468a1.224,1.224,0,0,1,1.19-.893h12.24a1.233,1.233,0,0,1,1.233,1.233v49.683a1.233,1.233,0,0,1-1.233,1.233H1.233A1.233,1.233,0,0,1,0,290.915Zm2.465,4.42H70.083V286.5H2.465Z" fill-rule="evenodd"/>
        <path id="Path_1257681" data-name="Path 1257681" d="M80.7,329.28a1.233,1.233,0,0,1,0,2.465H58v7.82h67.618v-7.82H118.35a1.233,1.233,0,0,1,0-2.465h7.268v-9.265h-9.1a1.233,1.233,0,0,1,0-2.465h9.1v-9.265h-4.335a1.233,1.233,0,0,1,0-2.465h4.335V298H115.545l-9.138,34.425a1.226,1.226,0,0,1-1.19.935H94.38a1.248,1.248,0,0,1-1.148-.765L86.22,316.36H76.02a1.248,1.248,0,0,1-1.148-.765L68.158,298H58v7.82h4.293a1.233,1.233,0,1,1,0,2.465H58v9.265h9.18a1.233,1.233,0,1,1,0,2.465H58v9.265Z" transform="translate(-55.535 -55.535)" fill="#ffa721" fill-rule="evenodd"/>
        <path id="Path_1257682" data-name="Path 1257682" d="M125.618,1334H58v3.188h67.618Z" transform="translate(-55.535 -1047.505)" fill="#4d4d4d" fill-rule="evenodd"/>
      </g>
    </g>
    <rect id="Rectangle_411641" data-name="Rectangle 411641" width="103" height="103" transform="translate(308.051 4825.766)" fill="none"/>
  </g>
</svg>
