<svg xmlns="http://www.w3.org/2000/svg" width="103" height="103" viewBox="0 0 103 103">
  <g id="Group_1204041" data-name="Group 1204041" transform="translate(-253.972 -11116.921)">
    <g id="Group_1203593" data-name="Group 1203593" transform="translate(255.972 11138.415)">
      <rect id="Rectangle_410589" data-name="Rectangle 410589" width="99.185" height="33.062" rx="8" transform="translate(0 12.94)" fill="#3e5b2c"/>
      <g id="Group_1204053" data-name="Group 1204053" transform="translate(-44.346 -5.494)">
        <path id="Path_1257761" data-name="Path 1257761" d="M317,52.5h8.232V64.847H317Z" transform="translate(-214.408 -45.297)" fill="#ffbcca"/>
        <path id="Path_1257762" data-name="Path 1257762" d="M136,52.5h28.947V64.847H136Z" transform="translate(-58.24 -45.297)" fill="#ffe3de"/>
        <path id="Path_1257763" data-name="Path 1257763" d="M350.116,112.5H346v53.779h4.116a8.232,8.232,0,0,0,8.232-8.232V120.732A8.232,8.232,0,0,0,350.116,112.5Z" transform="translate(-239.429 -97.066)" fill="#ffe3de"/>
        <path id="Path_1257764" data-name="Path 1257764" d="M113.042,112.5H84.232A8.232,8.232,0,0,0,76,120.732v37.316a8.232,8.232,0,0,0,8.232,8.232h28.81a8.232,8.232,0,0,0,8.232-8.232l-4.116-16.669,4.116-16.669v-3.979A8.232,8.232,0,0,0,113.042,112.5Z" transform="translate(-6.471 -97.066)" fill="#fff9f0"/>
        <path id="Path_1257765" data-name="Path 1257765" d="M316,7.5l2.058,8.917h6.174v-4.8A4.116,4.116,0,0,0,320.116,7.5Z" transform="translate(-213.545 -6.471)" fill="#ff9a42"/>
        <path id="Path_1257766" data-name="Path 1257766" d="M136,11.616v4.8h28.81v-4.8A4.116,4.116,0,0,0,160.695,7.5H140.116A4.116,4.116,0,0,0,136,11.616Z" transform="translate(-58.24 -6.471)" fill="#ffba48"/>
        <path id="Path_1257767" data-name="Path 1257767" d="M350.116,52.5H346v4.116h4.116a2.058,2.058,0,1,0,0-4.116Z" transform="translate(-239.429 -45.297)" fill="#ffe3de"/>
        <path id="Path_1257768" data-name="Path 1257768" d="M153.926,54.558a2.058,2.058,0,0,0-2.058-2.058h-28.81a2.058,2.058,0,0,0,0,4.116h28.81A2.058,2.058,0,0,0,153.926,54.558Z" transform="translate(-45.297 -45.297)" fill="#fff9f0"/>
        <path id="Path_1257769" data-name="Path 1257769" d="M350.116,202.136,346,238.953h4.116a4.12,4.12,0,0,0,4.116-4.116V201.5A11.736,11.736,0,0,0,350.116,202.136Z" transform="translate(-239.429 -173.856)" fill="#7f221c"/>
        <path id="Path_1257770" data-name="Path 1257770" d="M136.868,203.558c-5.145,0-5.145-2.058-10.289-2.058s-5.145,2.058-10.289,2.058S111.144,201.5,106,201.5v33.338a4.12,4.12,0,0,0,4.116,4.116h28.81a4.12,4.12,0,0,0,4.116-4.116v-32.7C141.31,202.74,140.111,203.558,136.868,203.558Z" transform="translate(-32.355 -173.856)" fill="#a41910"/>
        <path id="Path_1257771" data-name="Path 1257771" d="M140.686,194a12.877,12.877,0,0,0-5.527,1.1,12.348,12.348,0,0,1-9.525,0,14.4,14.4,0,0,0-11.054,0,12.348,12.348,0,0,1-9.525,0,12.876,12.876,0,0,0-5.527-1.1,1.029,1.029,0,0,0-1.029,1.029v33.338a5.15,5.15,0,0,0,5.145,5.145,1.029,1.029,0,0,0,0-2.058,3.09,3.09,0,0,1-3.087-3.087V196.09a10.809,10.809,0,0,1,3.734.923,14.4,14.4,0,0,0,11.054,0,12.348,12.348,0,0,1,9.525,0,14.405,14.405,0,0,0,11.054,0,10.813,10.813,0,0,1,3.734-.923v32.276a3.09,3.09,0,0,1-3.087,3.087H107.76a1.029,1.029,0,0,0,0,2.058h28.81a5.15,5.15,0,0,0,5.145-5.145V195.029A1.029,1.029,0,0,0,140.686,194Z" transform="translate(-25.884 -167.385)"/>
        <path id="Path_1257772" data-name="Path 1257772" d="M111.715,14.464V12.17a3.086,3.086,0,0,0,0-5.82V5.145A5.15,5.15,0,0,0,106.571,0H81.876a5.15,5.15,0,0,0-5.145,5.145V6.351a3.087,3.087,0,0,0,0,5.82v2.293a9.273,9.273,0,0,0-8.232,9.2V60.982a9.271,9.271,0,0,0,9.26,9.26h32.926a9.271,9.271,0,0,0,9.26-9.26V23.666A9.273,9.273,0,0,0,111.715,14.464ZM81.876,2.058h24.695a3.09,3.09,0,0,1,3.087,3.087V6.174H78.789V5.145A3.09,3.09,0,0,1,81.876,2.058ZM77.76,8.232h32.926a1.029,1.029,0,0,1,0,2.058H81.876a1.029,1.029,0,1,0,0,2.058h27.781v2.058H78.789V11.318a1.029,1.029,0,0,0-1.029-1.029,1.029,1.029,0,0,1,0-2.058Zm40.129,52.75a7.211,7.211,0,0,1-7.2,7.2H77.76a7.211,7.211,0,0,1-7.2-7.2V23.666a7.211,7.211,0,0,1,7.2-7.2h32.926a7.211,7.211,0,0,1,7.2,7.2Z" transform="translate(0 0)"/>
      </g>
    </g>
    <rect id="Rectangle_411643" data-name="Rectangle 411643" width="103" height="103" transform="translate(253.972 11116.921)" fill="none"/>
  </g>
</svg>
