<svg xmlns="http://www.w3.org/2000/svg" width="85" height="85" viewBox="0 0 85 85">
  <g id="Group_1204059" data-name="Group 1204059" transform="translate(-180.051 -11557)">
    <circle id="Ellipse_12685" data-name="Ellipse 12685" cx="42.5" cy="42.5" r="42.5" transform="translate(180.051 11557)" fill="#5a8441"/>
    <g id="Group_1204058" data-name="Group 1204058" transform="translate(144.481 11572)">
      <path id="Path_1257773" data-name="Path 1257773" d="M103.648,14.241a1.74,1.74,0,0,1,1.063-1.6,1.082,1.082,0,0,0,.677-.991V8.587A1.087,1.087,0,0,0,104.3,7.5H65.156a1.087,1.087,0,0,0-1.087,1.087v3.06a1.083,1.083,0,0,0,.677.991,1.74,1.74,0,0,1,0,3.206,1.082,1.082,0,0,0-.677.991v40.9A3.262,3.262,0,0,0,67.331,61h34.795a3.262,3.262,0,0,0,3.262-3.262v-40.9a1.083,1.083,0,0,0-.677-.991,1.74,1.74,0,0,1-1.063-1.6Z" transform="translate(-6.692 -6.693)" fill="#fef1da"/>
      <path id="Path_1257774" data-name="Path 1257774" d="M388.661,12.639a1.083,1.083,0,0,0,.677-.991V8.587A1.087,1.087,0,0,0,388.25,7.5h-3.806a1.087,1.087,0,0,1,1.087,1.087v3.06a1.083,1.083,0,0,1-.677.991,1.74,1.74,0,0,0,0,3.206,1.082,1.082,0,0,1,.677.991v40.9A3.262,3.262,0,0,1,382.27,61h3.806a3.262,3.262,0,0,0,3.262-3.262v-40.9a1.083,1.083,0,0,0-.677-.991,1.741,1.741,0,0,1,0-3.206Z" transform="translate(-290.642 -6.693)" fill="#fee8c7"/>
      <path id="Path_1257775" data-name="Path 1257775" d="M104.476,125.578H137.1v32.741h-32.62Z" transform="translate(-42.749 -112.061)" fill="#dff6fd"/>
      <path id="Path_1257776" data-name="Path 1257776" d="M377.22,125.578h3.262v32.741H377.22Z" transform="translate(-286.135 -112.061)" fill="#c8effe"/>
      <circle id="Ellipse_12755" data-name="Ellipse 12755" cx="11.961" cy="11.961" r="11.961" transform="translate(66.076 17.927)" fill="#99e6fc"/>
      <path id="Path_1257777" data-name="Path 1257777" d="M104.476,429.748H137.1v3.479h-32.62Z" transform="translate(-42.749 -383.49)" fill="#97d729"/>
      <path id="Path_1257778" data-name="Path 1257778" d="M377.22,429.748h3.262v3.479H377.22Z" transform="translate(-286.135 -383.49)" fill="#8bc727"/>
      <g id="Group_1204054" data-name="Group 1204054" transform="translate(74.702 32.062)">
        <path id="Path_1257779" data-name="Path 1257779" d="M228.358,307.652a11.966,11.966,0,0,0,3.334-.471l-.524-.524a4.025,4.025,0,0,1-1.179-2.846v-5.944h-3.262v5.944a4.025,4.025,0,0,1-1.179,2.846l-.524.524a11.968,11.968,0,0,0,3.334.471Z" transform="translate(-225.024 -297.866)" fill="#8bc727"/>
        <path id="Path_1257780" data-name="Path 1257780" d="M240.848,297.866h3.262v4.567h-3.262Z" transform="translate(-239.145 -297.866)" fill="#81b823"/>
      </g>
      <g id="Group_1204056" data-name="Group 1204056" transform="translate(70.425 26.091)">
        <g id="Group_1204055" data-name="Group 1204055">
          <path id="Path_1257781" data-name="Path 1257781" d="M260.887,248.765c-1.545,1.546-4.272,1.47-5.534,1.337a.867.867,0,0,1-.77-.77c-.133-1.262-.209-3.989,1.337-5.534s4.273-1.47,5.534-1.337a.867.867,0,0,1,.77.77C262.357,244.493,262.433,247.22,260.887,248.765Z" transform="translate(-247.066 -242.396)" fill="#97d729"/>
          <path id="Path_1257782" data-name="Path 1257782" d="M258.016,255.275a11.469,11.469,0,0,0-1.085-6.6,4,4,0,0,0-1.011.726c-1.546,1.546-1.47,4.273-1.337,5.534a.867.867,0,0,0,.77.77,10.767,10.767,0,0,0,2.6-.03C257.98,255.542,258,255.41,258.016,255.275Z" transform="translate(-247.066 -247.996)" fill="#8bc727"/>
          <path id="Path_1257783" data-name="Path 1257783" d="M186.69,248.765c1.546,1.546,4.273,1.47,5.534,1.337a.867.867,0,0,0,.77-.77c.133-1.262.209-3.989-1.337-5.534s-4.272-1.47-5.534-1.337a.867.867,0,0,0-.77.77C185.22,244.493,185.145,247.22,186.69,248.765Z" transform="translate(-185.289 -242.396)" fill="#a2e62e"/>
        </g>
      </g>
      <g id="Group_1204057" data-name="Group 1204057" transform="translate(56.57 0)">
        <path id="Path_1257784" data-name="Path 1257784" d="M98.334,6.689A1.891,1.891,0,0,0,99.5,4.955V1.894A1.9,1.9,0,0,0,97.609,0H58.464A1.9,1.9,0,0,0,56.57,1.894v3.06A1.892,1.892,0,0,0,57.74,6.69a.933.933,0,0,1,0,1.718,1.892,1.892,0,0,0-1.169,1.735V38.266a.807.807,0,0,0,1.615,0V10.143a.28.28,0,0,1,.184-.248,2.547,2.547,0,0,0,0-4.692.281.281,0,0,1-.185-.248V1.894a.28.28,0,0,1,.28-.28H97.609a.28.28,0,0,1,.28.28v3.06A.28.28,0,0,1,97.7,5.2a2.547,2.547,0,0,0,0,4.692.281.281,0,0,1,.185.248v5.9a.807.807,0,1,0,1.615,0v-5.9a1.892,1.892,0,0,0-1.17-1.735.933.933,0,0,1,0-1.718Z" transform="translate(-56.57 0)"/>
        <path id="Path_1257785" data-name="Path 1257785" d="M98.7,176.54a.807.807,0,0,0-.807.807V208.58a2.457,2.457,0,0,1-2.454,2.454h-34.8a2.457,2.457,0,0,1-2.454-2.454v-9.009a.807.807,0,0,0-1.615,0v9.009a4.073,4.073,0,0,0,4.069,4.069h34.8A4.073,4.073,0,0,0,99.5,208.58V177.347A.807.807,0,0,0,98.7,176.54Z" transform="translate(-56.57 -157.537)"/>
        <path id="Path_1257786" data-name="Path 1257786" d="M103.843,64.245h31.315a.807.807,0,0,0,0-1.615H103.843a.807.807,0,0,0,0,1.615Z" transform="translate(-98.034 -55.889)"/>
        <path id="Path_1257787" data-name="Path 1257787" d="M97.787,127.148a.807.807,0,0,0-.807.807v27.152a.807.807,0,0,0,.807.807h32.619a.807.807,0,0,0,.807-.807v-36.22a.807.807,0,0,0-.807-.807H97.787a.807.807,0,0,0-.807.807v5.3a.807.807,0,1,0,1.615,0v-4.493h31v31.126h-31V127.955A.807.807,0,0,0,97.787,127.148ZM129.6,152.435V154.3h-31v-1.865Z" transform="translate(-92.63 -105.37)"/>
        <path id="Path_1257788" data-name="Path 1257788" d="M162.918,171.813a12.768,12.768,0,1,0-12.768,12.768,12.782,12.782,0,0,0,12.768-12.768Zm-14.552,11.01a4.8,4.8,0,0,0,.96-2.892v-3.384l.233-.022a1.654,1.654,0,0,0,.588-.178,1.68,1.68,0,0,0,.594.178l.233.022v3.383a4.8,4.8,0,0,0,.96,2.892,11.173,11.173,0,0,1-3.567,0Zm3.574-7.844,2.506-2.506a.807.807,0,1,0-1.142-1.142l-2.189,2.189a9.932,9.932,0,0,0-.141-1.54,3.953,3.953,0,0,1,.988-1.99c1.322-1.322,3.852-1.213,4.877-1.106a.06.06,0,0,1,.053.053c.109,1.026.219,3.554-1.1,4.878A5.48,5.48,0,0,1,151.941,174.979Zm-2.582-2.85,0,.012a8.62,8.62,0,0,1,.14,1.7L147,171.331a.807.807,0,0,0-1.142,1.142l2.506,2.506a5.477,5.477,0,0,1-3.848-1.164h0c-1.322-1.323-1.213-3.853-1.1-4.879a.06.06,0,0,1,.052-.052c1.027-.108,3.556-.218,4.879,1.1A4.09,4.09,0,0,1,149.359,172.129ZM139,171.813a11.153,11.153,0,1,1,14.711,10.572l-.177-.177a3.2,3.2,0,0,1-.943-2.276v-3.349a6.494,6.494,0,0,0,4.342-1.626c1.75-1.75,1.734-4.629,1.568-6.188a1.683,1.683,0,0,0-1.488-1.49c-1.562-.164-4.442-.178-6.19,1.569a4.675,4.675,0,0,0-.67.853,4.692,4.692,0,0,0-.672-.854c-1.749-1.749-4.629-1.733-6.19-1.569a1.682,1.682,0,0,0-1.488,1.488c-.165,1.561-.18,4.441,1.569,6.19h0a6.493,6.493,0,0,0,4.343,1.626v3.348a3.2,3.2,0,0,1-.942,2.276l-.177.177A11.173,11.173,0,0,1,139,171.813Z" transform="translate(-128.683 -141.925)"/>
      </g>
    </g>
  </g>
</svg>
