<svg xmlns="http://www.w3.org/2000/svg" width="103" height="103" viewBox="0 0 103 103">
  <g id="Group_1204040" data-name="Group 1204040" transform="translate(-253.972 -11116.921)">
    <g id="Group_1203593" data-name="Group 1203593" transform="translate(256.094 11138.794)">
      <rect id="Rectangle_410589" data-name="Rectangle 410589" width="99.185" height="33.062" rx="8" transform="translate(-0.122 13.127)" fill="#3e5b2c"/>
      <g id="Group_1204052" data-name="Group 1204052" transform="translate(12.878 -7.873)">
        <path id="Path_1257734" data-name="Path 1257734" d="M68.25,80.365H45.4s.4-1.05.772-2.321,2.518-4.305,3.412-4.346,1.445-2.385,3.128-5.1,5.309-1.189,6.963-.638,1.81,3.957,3.429,5.443S68.25,80.365,68.25,80.365Z" transform="translate(-19.057 -28.137)" fill="#e1ebf4"/>
        <path id="Path_1257735" data-name="Path 1257735" d="M112.568,119.7H94s.25-.029.226-1.369,2.687-4.23,4.752-6.673a13.473,13.473,0,0,1,4.305-3.435c1.433.36,2.861,3.191,5.5,5.095S112.568,119.7,112.568,119.7Z" transform="translate(-39.457 -45.426)" fill="#e1ebf4"/>
        <path id="Path_1257736" data-name="Path 1257736" d="M20.568,119.617H2a7.1,7.1,0,0,1,1.34-3.65c1.329-1.909,3.447-2.611,4.276-5.373s2.774-2.6,4.741-2.541.342,1.561,4.044,4.619A11.73,11.73,0,0,1,20.568,119.617Z" transform="translate(-0.84 -45.346)" fill="#e1ebf4"/>
        <path id="Path_1257737" data-name="Path 1257737" d="M108.626,115.558a2.152,2.152,0,0,1,1.941,2.049,1.16,1.16,0,1,0,2.321,0,4.383,4.383,0,0,0-2.929-4.091,4.409,4.409,0,0,0-2.9-3.6,4.676,4.676,0,0,0-9.227,0,4.409,4.409,0,0,0-2.9,3.6A4.383,4.383,0,0,0,92,117.606a1.16,1.16,0,1,0,2.321,0,2.152,2.152,0,0,1,1.941-2.049,1.16,1.16,0,0,0,.98-1.3,1.874,1.874,0,0,1-.02-.25,2.152,2.152,0,0,1,1.941-2.049,1.16,1.16,0,0,0,.98-1.3,1.863,1.863,0,0,1-.02-.25,2.335,2.335,0,0,1,4.642,0,1.866,1.866,0,0,1-.02.25,1.16,1.16,0,0,0,.98,1.3,2.152,2.152,0,0,1,1.941,2.049,1.873,1.873,0,0,1-.02.25,1.16,1.16,0,0,0,.98,1.3Z" transform="translate(-38.617 -44.496)"/>
        <path id="Path_1257738" data-name="Path 1257738" d="M1.16,118.766a1.16,1.16,0,0,0,1.16-1.16,2.152,2.152,0,0,1,1.941-2.049,1.16,1.16,0,0,0,.98-1.3,1.873,1.873,0,0,1-.02-.25,2.152,2.152,0,0,1,1.941-2.049,1.16,1.16,0,0,0,.98-1.3,1.865,1.865,0,0,1-.02-.25,2.213,2.213,0,0,1,2.321-2.08,2.213,2.213,0,0,1,2.321,2.08,1.865,1.865,0,0,1-.02.25,1.16,1.16,0,0,0,.98,1.3A2.152,2.152,0,0,1,15.666,114a1.872,1.872,0,0,1-.02.25,1.16,1.16,0,0,0,.98,1.3,2.152,2.152,0,0,1,1.941,2.049,1.16,1.16,0,1,0,2.321,0,4.383,4.383,0,0,0-2.929-4.091,4.409,4.409,0,0,0-2.9-3.6A4.566,4.566,0,0,0,10.444,106a4.566,4.566,0,0,0-4.613,3.912,4.409,4.409,0,0,0-2.9,3.6A4.383,4.383,0,0,0,0,117.606a1.16,1.16,0,0,0,1.16,1.16Z" transform="translate(0 -44.495)"/>
        <path id="Path_1257739" data-name="Path 1257739" d="M98.349,11.924,92.976,1.81A2.326,2.326,0,0,0,89.86.841l-1.688.876a14.511,14.511,0,0,0-13.554-.075,14.257,14.257,0,0,0-7.5,10.021,2.228,2.228,0,0,1-1.184,1.567l-7.305,3.783a1.178,1.178,0,0,0-.574.685,1.153,1.153,0,0,0,.081.888l6.446,12.139a1.162,1.162,0,0,0,1.555.487l7.311-3.783a2.289,2.289,0,0,1,1.973-.081,14.639,14.639,0,0,0,13.346-.789,14.279,14.279,0,0,0,6.9-10.636l1.706-.882a2.288,2.288,0,0,0,1.143-1.358,2.263,2.263,0,0,0-.162-1.758ZM66.088,28.617,60.732,18.533l2.095-1.079,5.35,10.085ZM95.106,13.6l-.093-.186a1.161,1.161,0,1,0-2.077,1.039l.447.894a11.975,11.975,0,0,1-5.8,9.214,12.324,12.324,0,0,1-11.228.661,4.589,4.589,0,0,0-3.98.139L70.242,26.47,64.887,16.386,67,15.289A4.52,4.52,0,0,0,69.4,12.1a11.922,11.922,0,0,1,6.29-8.4,12.2,12.2,0,0,1,11.7.238l.325.65a1.161,1.161,0,0,0,2.077-1.039L89.767,3.5l1.16-.6L96.3,12.98Z" transform="translate(-24.345 0)"/>
        <path id="Path_1257740" data-name="Path 1257740" d="M70.155,40.165l-2.089,1.079L62.71,31.159,64.8,30.08Z" transform="translate(-26.323 -12.627)" fill="#e1ebf4"/>
        <path id="Path_1257741" data-name="Path 1257741" d="M95.911,4.582l-1.16.6.023.046A1.161,1.161,0,1,1,92.7,6.271l-.325-.65a12.2,12.2,0,0,0-11.7-.238,11.922,11.922,0,0,0-6.29,8.4,4.52,4.52,0,0,1-2.4,3.191l-2.112,1.1,5.356,10.085,2.135-1.108a4.589,4.589,0,0,1,3.98-.139,12.324,12.324,0,0,0,11.228-.661,11.975,11.975,0,0,0,5.8-9.214l-.447-.894A1.161,1.161,0,0,1,100,15.1l.093.186,1.2-.621ZM95.29,19.813a9.551,9.551,0,0,1-3.9,4.427,9.985,9.985,0,0,1-5.071,1.393,10.115,10.115,0,0,1-4.044-.853,6.781,6.781,0,0,0-2.6-.574,1.153,1.153,0,0,1-1-.615,1.172,1.172,0,0,1,.052-1.178,10.83,10.83,0,0,0,1.5-5.222c.046-.7.07-1.358.087-1.967l.017-.569c.087-2.913.157-5.216,1.88-7.294a1.116,1.116,0,0,1,.464-.337,9.916,9.916,0,0,1,6.725-.2,3.43,3.43,0,0,1,2.031,1.851l3.8,8.367a3.41,3.41,0,0,1,.052,2.768Z" transform="translate(-29.328 -1.681)" fill="#81d9e3"/>
        <path id="Path_1257742" data-name="Path 1257742" d="M67.975,94H33.16A1.164,1.164,0,0,0,32,95.16a18.568,18.568,0,0,0,37.136,0A1.164,1.164,0,0,0,67.975,94ZM50.568,111.407A16.268,16.268,0,0,1,34.362,96.321H66.774A16.268,16.268,0,0,1,50.568,111.407Z" transform="translate(-13.432 -39.457)"/>
        <path id="Path_1257743" data-name="Path 1257743" d="M68.482,98A16.248,16.248,0,0,1,36.07,98Z" transform="translate(-15.141 -41.136)" fill="#81d9e3"/>
        <g id="Group_1204052-2" data-name="Group 1204052" transform="translate(30.172 4.653)">
          <circle id="Ellipse_12745" data-name="Ellipse 12745" cx="1.16" cy="1.16" r="1.16" transform="translate(1.16 45.25)"/>
          <circle id="Ellipse_12746" data-name="Ellipse 12746" cx="1.16" cy="1.16" r="1.16" transform="translate(5.802 45.25)"/>
          <circle id="Ellipse_12747" data-name="Ellipse 12747" cx="1.16" cy="1.16" r="1.16" transform="translate(10.444 45.25)"/>
          <circle id="Ellipse_12748" data-name="Ellipse 12748" cx="1.16" cy="1.16" r="1.16" transform="translate(8.123 42.35)"/>
          <circle id="Ellipse_12749" data-name="Ellipse 12749" cx="1.16" cy="1.16" r="1.16" transform="translate(1.741 29.006)"/>
          <circle id="Ellipse_12750" data-name="Ellipse 12750" cx="1.16" cy="1.16" r="1.16" transform="translate(0 24.365)"/>
          <circle id="Ellipse_12751" data-name="Ellipse 12751" cx="1.16" cy="1.16" r="1.16" transform="translate(2.901 20.303)"/>
          <circle id="Ellipse_12752" data-name="Ellipse 12752" cx="1.16" cy="1.16" r="1.16" transform="translate(4.642 24.945)"/>
          <circle id="Ellipse_12753" data-name="Ellipse 12753" cx="1.16" cy="1.16" r="1.16" transform="translate(3.481 42.35)"/>
          <circle id="Ellipse_12754" data-name="Ellipse 12754" cx="1.16" cy="1.16" r="1.16" transform="translate(5.802 39.449)"/>
          <path id="Path_1257744" data-name="Path 1257744" d="M101.513,18.731l-3.8-8.367a3.43,3.43,0,0,0-2.031-1.851,9.916,9.916,0,0,0-6.725.2,1.116,1.116,0,0,0-.464.337c-1.723,2.077-1.793,4.381-1.88,7.294l-.017.569c-.017.609-.041,1.271-.087,1.967a10.83,10.83,0,0,1-1.5,5.222,1.172,1.172,0,0,0-.052,1.178,1.153,1.153,0,0,0,1,.615,6.781,6.781,0,0,1,2.6.574,10.115,10.115,0,0,0,4.044.853,9.985,9.985,0,0,0,5.071-1.393,9.551,9.551,0,0,0,3.9-4.427,3.41,3.41,0,0,0-.052-2.768Zm-2.077,1.845a7.25,7.25,0,0,1-2.953,3.354,7.776,7.776,0,0,1-7,.412,8.963,8.963,0,0,0-1.7-.557,14.689,14.689,0,0,0,1.039-4.764c.052-.749.075-1.456.093-2.042l.017-.569c.075-2.524.128-4.236,1.166-5.652a7.6,7.6,0,0,1,4.857-.041,1.122,1.122,0,0,1,.644.609l3.8,8.361a1.083,1.083,0,0,1,.035.888Z" transform="translate(-65.776 -8.02)"/>
        </g>
        <path id="Path_1257745" data-name="Path 1257745" d="M101.581,22.255a7.25,7.25,0,0,1-2.953,3.354,7.776,7.776,0,0,1-7,.412,8.963,8.963,0,0,0-1.7-.557A14.689,14.689,0,0,0,90.969,20.7c.052-.749.075-1.456.093-2.042l.017-.569c.075-2.524.128-4.236,1.166-5.652A7.6,7.6,0,0,1,97.1,12.4a1.122,1.122,0,0,1,.644.609l3.8,8.361a1.083,1.083,0,0,1,.035.888Z" transform="translate(-37.749 -5.045)" fill="#e1ebf4"/>
        <path id="Path_1257746" data-name="Path 1257746" d="M43.1,76.945a6.334,6.334,0,0,0-3.327,2.568H43.04a4.074,4.074,0,0,1,1.444-.523,1.161,1.161,0,0,0,.969-1.291,4.019,4.019,0,0,1,3.383-4.511A1.161,1.161,0,0,0,49.8,71.9a4.006,4.006,0,0,1-.036-.507,4.062,4.062,0,1,1,8.123,0,4.008,4.008,0,0,1-.036.507,1.161,1.161,0,0,0,.969,1.291A4.019,4.019,0,0,1,62.208,77.7a1.161,1.161,0,0,0,.969,1.291,4.074,4.074,0,0,1,1.444.523h3.266a6.334,6.334,0,0,0-3.327-2.568,6.341,6.341,0,0,0-4.352-5.8,6.383,6.383,0,0,0-12.756,0,6.341,6.341,0,0,0-4.352,5.8Z" transform="translate(-16.695 -27.288)"/>
        <path id="Path_1257747" data-name="Path 1257747" d="M112.568,120.444h-1.16a2.154,2.154,0,0,0-1.944-2.048,1.165,1.165,0,0,1-.981-1.306,1.733,1.733,0,0,0,.023-.25,2.159,2.159,0,0,0-1.944-2.048,1.163,1.163,0,0,1-.981-1.3,1.811,1.811,0,0,0,.023-.249,2.335,2.335,0,0,0-4.642,0,1.8,1.8,0,0,0,.017.249,1.154,1.154,0,0,1-.981,1.3,2.158,2.158,0,0,0-1.938,2.048,1.74,1.74,0,0,0,.017.25A1.157,1.157,0,0,1,97.1,118.4a2.154,2.154,0,0,0-1.938,2.048H94a1.164,1.164,0,0,0,1.16-1.16,2.154,2.154,0,0,1,1.938-2.048,1.157,1.157,0,0,0,.981-1.306,1.741,1.741,0,0,1-.017-.249A2.158,2.158,0,0,1,100,113.632a1.154,1.154,0,0,0,.981-1.3,1.8,1.8,0,0,1-.017-.249,2.335,2.335,0,0,1,4.642,0,1.811,1.811,0,0,1-.023.249,1.163,1.163,0,0,0,.981,1.3,2.159,2.159,0,0,1,1.944,2.048,1.731,1.731,0,0,1-.023.249,1.165,1.165,0,0,0,.981,1.306,2.154,2.154,0,0,1,1.944,2.048A1.16,1.16,0,0,0,112.568,120.444Z" transform="translate(-39.457 -46.174)" fill="#fff" opacity="0.5"/>
        <path id="Path_1257748" data-name="Path 1257748" d="M20.568,120.442h-1.16a2.154,2.154,0,0,0-1.944-2.048,1.157,1.157,0,0,1-.975-1.306c.006-.081.017-.162.017-.249a2.159,2.159,0,0,0-1.944-2.048,1.154,1.154,0,0,1-.975-1.3c.006-.081.017-.168.017-.249a2.212,2.212,0,0,0-2.321-2.083,2.212,2.212,0,0,0-2.321,2.083,1.8,1.8,0,0,0,.017.249,1.154,1.154,0,0,1-.981,1.3,2.158,2.158,0,0,0-1.938,2.048,1.741,1.741,0,0,0,.017.249,1.157,1.157,0,0,1-.981,1.306,2.154,2.154,0,0,0-1.938,2.048H2a1.164,1.164,0,0,0,1.16-1.16A2.154,2.154,0,0,1,5.1,117.234a1.157,1.157,0,0,0,.981-1.306,1.74,1.74,0,0,1-.017-.249A2.158,2.158,0,0,1,8,113.63a1.154,1.154,0,0,0,.981-1.3,1.8,1.8,0,0,1-.017-.25A2.212,2.212,0,0,1,11.284,110a2.212,2.212,0,0,1,2.321,2.083c0,.081-.012.168-.017.25a1.154,1.154,0,0,0,.975,1.3,2.159,2.159,0,0,1,1.944,2.048c0,.087-.012.168-.017.25a1.157,1.157,0,0,0,.975,1.306,2.154,2.154,0,0,1,1.944,2.048A1.16,1.16,0,0,0,20.568,120.442Z" transform="translate(-0.84 -46.171)" fill="#fff" opacity="0.5"/>
        <path id="Path_1257749" data-name="Path 1257749" d="M64.8,30.08l.482.911L63.192,32.07l-.482-.911Z" transform="translate(-26.323 -12.627)" fill="#fff" opacity="0.5"/>
        <path id="Path_1257750" data-name="Path 1257750" d="M101.285,14.661l-.482.25L95.912,5.743l-1.16.6.023.046A1.161,1.161,0,1,1,92.7,7.431l-.325-.65a12.2,12.2,0,0,0-11.7-.238,11.922,11.922,0,0,0-6.29,8.4,4.52,4.52,0,0,1-2.4,3.191l-1.63.847-.482-.911,2.112-1.1a4.52,4.52,0,0,0,2.4-3.191,11.922,11.922,0,0,1,6.29-8.4,12.2,12.2,0,0,1,11.7.238l.325.65a1.161,1.161,0,0,0,2.077-1.039l-.023-.046,1.16-.6Z" transform="translate(-29.329 -1.681)" fill="#e8fbfc" opacity="0.4"/>
        <path id="Path_1257751" data-name="Path 1257751" d="M73.68,46.8,71.592,47.88l-.482-.911L73.2,45.89Z" transform="translate(-29.849 -19.263)" fill="#9fa5aa" opacity="0.5"/>
        <path id="Path_1257752" data-name="Path 1257752" d="M101.892,26.27a11.975,11.975,0,0,1-5.8,9.214,12.324,12.324,0,0,1-11.228.661,4.589,4.589,0,0,0-3.98.139l-2.135,1.108-.482-.911,2.617-1.358a4.589,4.589,0,0,1,3.98-.139A12.324,12.324,0,0,0,96.1,34.323a11.946,11.946,0,0,0,5.675-8.3Z" transform="translate(-32.854 -10.922)" fill="#0f423c" opacity="0.3"/>
        <path id="Path_1257753" data-name="Path 1257753" d="M68.483,98c-.029.389-.07.778-.128,1.16H36.2c-.058-.383-.1-.772-.128-1.16Z" transform="translate(-15.141 -41.136)" fill="#e8fbfc" opacity="0.4"/>
        <path id="Path_1257754" data-name="Path 1257754" d="M68.483,98A16.248,16.248,0,0,1,36.07,98H36.2a16.245,16.245,0,0,0,32.157,0Z" transform="translate(-15.141 -41.136)" fill="#0f423c" opacity="0.3"/>
        <path id="Path_1257755" data-name="Path 1257755" d="M101.581,28.942A7.251,7.251,0,0,1,98.628,32.3a7.776,7.776,0,0,1-7,.412,8.963,8.963,0,0,0-1.7-.557c.145-.342.273-.7.389-1.068a9.047,9.047,0,0,1,1.311.464,7.776,7.776,0,0,0,7-.412A7.2,7.2,0,0,0,101.5,27.95l.046.1A1.083,1.083,0,0,1,101.581,28.942Z" transform="translate(-37.749 -11.732)" fill="#9fa5aa" opacity="0.5"/>
        <path id="Path_1257756" data-name="Path 1257756" d="M65.124,73.072a4.254,4.254,0,0,1-.035.5.63.63,0,0,0-.006.1,4.058,4.058,0,0,0-8.042,0,.631.631,0,0,0-.006-.1,4.26,4.26,0,0,1-.035-.5,4.062,4.062,0,0,1,8.123,0Z" transform="translate(-23.926 -28.968)" fill="#fff" opacity="0.5"/>
        <path id="Path_1257757" data-name="Path 1257757" d="M52.918,79.632a4.024,4.024,0,0,0-3.377,3.441.53.53,0,0,0-.006-.093,4.262,4.262,0,0,1-.035-.5,4.034,4.034,0,0,1,3.418-4,1.153,1.153,0,0,0,.946-.882,1.712,1.712,0,0,0-.012.244,4.26,4.26,0,0,0,.035.5,1.16,1.16,0,0,1-.969,1.294Z" transform="translate(-20.778 -32.569)" fill="#fff" opacity="0.5"/>
        <path id="Path_1257758" data-name="Path 1257758" d="M47.814,88.339a1.093,1.093,0,0,1-.116.656H45.4a4.115,4.115,0,0,1,1.445-.528,1.162,1.162,0,0,0,.946-.876,1.712,1.712,0,0,0-.012.244A4.262,4.262,0,0,0,47.814,88.339Z" transform="translate(-19.057 -36.767)" fill="#fff" opacity="0.5"/>
        <path id="Path_1257759" data-name="Path 1257759" d="M80.847,88.994h-2.3a1.093,1.093,0,0,1-.116-.656,4.254,4.254,0,0,0,.035-.5,1.718,1.718,0,0,0-.012-.244,1.162,1.162,0,0,0,.946.876A4.115,4.115,0,0,1,80.847,88.994Z" transform="translate(-32.919 -36.767)" fill="#fff" opacity="0.5"/>
        <path id="Path_1257760" data-name="Path 1257760" d="M75.32,82.476a4.252,4.252,0,0,1-.035.5.53.53,0,0,0-.006.093A4.024,4.024,0,0,0,71.9,79.632a1.16,1.16,0,0,1-.969-1.294,4.254,4.254,0,0,0,.035-.5,1.718,1.718,0,0,0-.012-.244,1.153,1.153,0,0,0,.946.882A4.034,4.034,0,0,1,75.32,82.476Z" transform="translate(-29.771 -32.569)" fill="#fff" opacity="0.5"/>
      </g>
    </g>
    <rect id="Rectangle_411643" data-name="Rectangle 411643" width="103" height="103" transform="translate(253.972 11116.921)" fill="none"/>
  </g>
</svg>
