<svg xmlns="http://www.w3.org/2000/svg" width="103" height="103" viewBox="0 0 103 103">
  <g id="Group_1204039" data-name="Group 1204039" transform="translate(-253.972 -11116.921)">
    <g id="Group_1203593" data-name="Group 1203593" transform="translate(256.094 11138.794)">
      <rect id="Rectangle_410589" data-name="Rectangle 410589" width="99.185" height="33.062" rx="8" transform="translate(-0.122 13.127)" fill="#3e5b2c"/>
      <g id="Group_1204042" data-name="Group 1204042" transform="translate(-41.861 -2.873)">
        <g id="Group_1204050" data-name="Group 1204050" transform="translate(68.686 0.946)">
          <g id="Group_1204042-2" data-name="Group 1204042" transform="translate(0.662 9.709)">
            <path id="Path_1257708" data-name="Path 1257708" d="M85.5,97.866V95.773a11.979,11.979,0,0,1,2.5-7.32L91.048,84.5H123.58l3.052,3.953a11.979,11.979,0,0,1,2.5,7.32v2.093l-.844.5H85.66Z" transform="translate(-84.87 -84.5)" fill="#f9f8f9"/>
            <path id="Path_1257709" data-name="Path 1257709" d="M85.014,88.453,88.066,84.5H86.048L83,88.453a11.979,11.979,0,0,0-2.5,7.32v2.093l2.018.63V95.773A11.979,11.979,0,0,1,85.014,88.453Z" transform="translate(-80.5 -84.5)" fill="#e8e8e8"/>
          </g>
          <g id="Group_1204043" data-name="Group 1204043" transform="translate(0.662 23.075)">
            <path id="Path_1257710" data-name="Path 1257710" d="M127.381,190.5v2.365l-.252.928.252.963v3.309l-.252,1.654.252,1.5v14.091l-.26.195.007,6.491.252.249v1.545a6.281,6.281,0,0,1-1.683,4.288,7.9,7.9,0,0,1-5.232,1.688l-30.661-.05a6.3,6.3,0,0,1-6.3-6.3V190.878l1.639-.378Z" transform="translate(-83.122 -190.5)" fill="#ffe07d"/>
            <path id="Path_1257711" data-name="Path 1257711" d="M90.083,228.076a7.566,7.566,0,0,1-7.566-7.566V190.5H80.5v2.049l.252.912-.252.98v3.626l.252,1.7-.252,1.447v9.426l.266.363-.014,6.331-.252.241v6.21a6.3,6.3,0,0,0,6.3,6.3h6.746l.292-.252,6.456-.007.187.259h17.968a6.287,6.287,0,0,0,4.621-2.017Z" transform="translate(-80.5 -190.5)" fill="#ffd064"/>
          </g>
          <g id="Group_1204044" data-name="Group 1204044" transform="translate(0.662 30.641)">
            <path id="Path_1257712" data-name="Path 1257712" d="M82.5,253.4l1.765.252h42.242V250.5H84.265l-1.765.252Z" transform="translate(-82.248 -250.5)" fill="#ffd064"/>
            <path id="Path_1257713" data-name="Path 1257713" d="M80.5,250.5h2.018v3.152H80.5Z" transform="translate(-80.5 -250.5)" fill="#ffc250"/>
          </g>
          <g id="Group_1204046" data-name="Group 1204046" transform="translate(0.662 37.828)">
            <circle id="Ellipse_12737" data-name="Ellipse 12737" cx="2.522" cy="2.522" r="2.522" transform="translate(5.8 14.501)" fill="#ffd064"/>
            <circle id="Ellipse_12738" data-name="Ellipse 12738" cx="1.891" cy="1.891" r="1.891" transform="translate(14.879 6.809)" fill="#ffd064"/>
            <path id="Path_1257714" data-name="Path 1257714" d="M192.961,479.686c0-.739.163-1.311-.217-1.891a3.431,3.431,0,0,0-5.732,0c-.386.58-.229,1.152-.229,1.891Z" transform="translate(-173.354 -454.972)" fill="#ffd064"/>
            <path id="Path_1257715" data-name="Path 1257715" d="M184.609,488.5a3.638,3.638,0,0,0-.608,2.017h6.935a3.673,3.673,0,0,0-.6-2.017Z" transform="translate(-170.95 -465.679)" fill="#ffc250"/>
            <path id="Path_1257716" data-name="Path 1257716" d="M407.468,387.25a3.468,3.468,0,1,0,0,6.935Z" transform="translate(-363.209 -377.194)" fill="#ffd064"/>
            <path id="Path_1257717" data-name="Path 1257717" d="M81.5,358.681a2.929,2.929,0,0,0,1.892-.4,3.467,3.467,0,0,0,0-5.64,2.929,2.929,0,0,0-1.892-.4Z" transform="translate(-81.374 -346.607)" fill="#ffd064"/>
            <path id="Path_1257718" data-name="Path 1257718" d="M82.518,350.9a3.451,3.451,0,0,0-2.018-.648v6.935a3.451,3.451,0,0,0,2.018-.648Z" transform="translate(-80.5 -344.859)" fill="#ffc250"/>
            <g id="Group_1204045" data-name="Group 1204045" transform="translate(6.809)">
              <circle id="Ellipse_12739" data-name="Ellipse 12739" cx="2.522" cy="2.522" r="2.522" transform="translate(25.345 14.123)" fill="#ffd064"/>
              <circle id="Ellipse_12740" data-name="Ellipse 12740" cx="2.207" cy="2.207" r="2.207" transform="translate(21.121 6.242)" fill="#ffd064"/>
              <circle id="Ellipse_12741" data-name="Ellipse 12741" cx="1.576" cy="1.576" r="1.576" transform="translate(29.506 1.261)" fill="#ffd064"/>
              <circle id="Ellipse_12742" data-name="Ellipse 12742" cx="1.576" cy="1.576" r="1.576" transform="translate(16.518 13.492)" fill="#ffd064"/>
              <circle id="Ellipse_12743" data-name="Ellipse 12743" cx="1.576" cy="1.576" r="1.576" transform="translate(0 2.9)" fill="#ffd064"/>
              <circle id="Ellipse_12744" data-name="Ellipse 12744" cx="1.576" cy="1.576" r="1.576" transform="translate(13.366)" fill="#ffd064"/>
            </g>
          </g>
          <g id="Group_1204047" data-name="Group 1204047" transform="translate(6.21)">
            <path id="Path_1257719" data-name="Path 1257719" d="M158.666,13.553l-32.73.087.019-4.169a1.788,1.788,0,0,1,1.765-1.891l.052-.079h29.254a1.891,1.891,0,0,1,1.891,1.891v2.4Z" transform="translate(-125.755 -7.5)" fill="#f9f8f9"/>
            <path id="Path_1257720" data-name="Path 1257720" d="M126.518,10.022V7.5h-.126A1.891,1.891,0,0,0,124.5,9.391v4.918h33.163V11.787h-29.38A1.765,1.765,0,0,1,126.518,10.022Z" transform="translate(-124.5 -7.5)" fill="#e8e8e8"/>
          </g>
          <g id="Group_1204048" data-name="Group 1204048" transform="translate(0 9.205)">
            <path id="Path_1257721" data-name="Path 1257721" d="M88.791,81l.515-.5,31.423.117.594.388,4.908,3.51.64.873-2.221.472c-3.318,0-3.318,1.765-6.636,1.765s-3.318-1.765-6.635-1.765-3.318,1.765-6.635,1.765-3.318-1.765-6.636-1.765-3.318,1.765-6.635,1.765-3.318-1.765-6.636-1.765a6.061,6.061,0,0,0-1.86.368l-.06-1.021Z" transform="translate(-81.95 -80.5)" fill="#e8e8e8"/>
            <path id="Path_1257722" data-name="Path 1257722" d="M120.5,86.078l-.965-.69a6.773,6.773,0,0,0-1.582-.168c-3.318,0-3.318,1.765-6.636,1.765S108,85.22,104.682,85.22s-3.318,1.765-6.635,1.765-3.318-1.765-6.636-1.765-3.318,1.765-6.635,1.765a6.391,6.391,0,0,1-3.522-.99.757.757,0,0,1-.09-1.286l3.958-2.831L83.012,81.5l-1.548.378-4.908,3.51-.967.692a.79.79,0,0,0,.687,1.4,5.966,5.966,0,0,1,1.329-.226c.168-.011.346-.017.535-.017,3.318,0,3.318,1.765,6.636,1.765s3.318-1.765,6.635-1.765S94.728,89,98.046,89s3.318-1.765,6.635-1.765S108,89,111.317,89s3.318-1.765,6.636-1.765a6.456,6.456,0,0,1,1.856.241A.791.791,0,0,0,120.5,86.078Z" transform="translate(-75.253 -81.374)" fill="#dcdbdd"/>
          </g>
          <g id="Group_1204049" data-name="Group 1204049" transform="translate(4.507 6.305)">
            <path id="Path_1257723" data-name="Path 1257723" d="M148.2,60.715l-32.5-.063A1.505,1.505,0,0,1,114,59.2c0-.141.038-1.291.635-1.556a1.7,1.7,0,0,1,.689-.146h33.163a1.7,1.7,0,0,1,1.7,1.7c0,.021,0,.042,0,.063C150.153,60.176,149.117,60.715,148.2,60.715Z" transform="translate(-113.622 -57.5)" fill="#ff7d91"/>
            <path id="Path_1257724" data-name="Path 1257724" d="M113.711,60.278a1.7,1.7,0,0,1-1.7-1.619,1.7,1.7,0,0,0,.689,3.258h33.163a1.7,1.7,0,0,0,1.7-1.639Z" transform="translate(-111 -58.513)" fill="#e15f78"/>
          </g>
        </g>
        <g id="Group_1204051" data-name="Group 1204051" transform="translate(67.739)">
          <path id="Path_1257725" data-name="Path 1257725" d="M114.483,14.086l-4.556-3.259A2.643,2.643,0,0,0,109,6.482V2.837A2.841,2.841,0,0,0,106.167,0H76.787A2.84,2.84,0,0,0,73.95,2.837V6.482a2.643,2.643,0,0,0-.921,4.346l-4.557,3.259a1.738,1.738,0,0,0,.818,3.14,12.954,12.954,0,0,0-.887,4.7V57.31a7.259,7.259,0,0,0,7.25,7.25H95.386a.946.946,0,1,0,0-1.891H90.2a4.413,4.413,0,0,0-8.66,0H75.652a5.365,5.365,0,0,1-5.359-5.359V51.95a4.413,4.413,0,0,0,0-8.635v-7.63h42.368v12.3a4.413,4.413,0,0,0,0,8.635v.695a5.365,5.365,0,0,1-5.359,5.359H99.8a.946.946,0,1,0,0,1.891h7.5a7.259,7.259,0,0,0,7.25-7.25V21.928a12.951,12.951,0,0,0-.888-4.7,1.738,1.738,0,0,0,.818-3.14ZM85.866,61a2.524,2.524,0,0,1,2.371,1.671H83.5A2.524,2.524,0,0,1,85.866,61ZM76.787,1.891h29.38a.947.947,0,0,1,.946.946V6.3h-2.869V4.476a.946.946,0,1,0-1.891,0V6.3H99.516V4.476a.946.946,0,1,0-1.891,0V6.3H94.787V4.476a.946.946,0,1,0-1.891,0V6.3H90.059V4.476a.946.946,0,1,0-1.891,0V6.3H85.33V4.476a.946.946,0,1,0-1.891,0V6.3H80.6V4.476a.946.946,0,1,0-1.891,0V6.3H75.842V2.837A.947.947,0,0,1,76.787,1.891ZM75.2,11.6H98.728a.946.946,0,1,0,0-1.891H74.9a.757.757,0,0,1,0-1.513h33.163a.757.757,0,0,1,0,1.513h-4.918a.946.946,0,1,0,0,1.891h4.615l5,3.574a8.249,8.249,0,0,0-1.368-.106,7.045,7.045,0,0,0-3.762.993,5.735,5.735,0,0,1-5.747,0,7.619,7.619,0,0,0-7.524,0,5.735,5.735,0,0,1-5.747,0,7.045,7.045,0,0,0-3.762-.993,6.807,6.807,0,0,0-3.32.763.946.946,0,1,0,.849,1.69,4.917,4.917,0,0,1,2.47-.561,5.225,5.225,0,0,1,2.874.772,7.619,7.619,0,0,0,7.524,0,5.734,5.734,0,0,1,5.747,0,7.619,7.619,0,0,0,7.524,0,5.5,5.5,0,0,1,2.966-.771,11.059,11.059,0,0,1,1.183,4.967v1.147H70.293V21.928a11.061,11.061,0,0,1,1.183-4.967,5.511,5.511,0,0,1,2.97.771,7.271,7.271,0,0,0,3.279.98.946.946,0,0,0,.053-1.89,5.189,5.189,0,0,1-2.444-.76,7.045,7.045,0,0,0-3.762-.993,8.249,8.249,0,0,0-1.369.107ZM70.293,24.967h42.368v1.46a6.432,6.432,0,0,0-2.249.656,4.616,4.616,0,0,1-2.337.525,4.864,4.864,0,0,1-2.37-.562A7.328,7.328,0,0,0,99.388,27a5.44,5.44,0,0,1-4.748-.034,7.327,7.327,0,0,0-6.317-.045,5.44,5.44,0,0,1-4.747-.034,7.326,7.326,0,0,0-6.316-.045,4.848,4.848,0,0,1-2.377.528,4.687,4.687,0,0,1-2.334-.559,6.435,6.435,0,0,0-2.255-.691V24.967ZM71.9,47.632a2.524,2.524,0,0,1-1.608,2.348v-4.7A2.524,2.524,0,0,1,71.9,47.632ZM70.293,33.793V32.532h30.472a.946.946,0,1,0,0-1.891H70.293V28.028a4.841,4.841,0,0,1,1.444.492,6.494,6.494,0,0,0,3.131.741,6.707,6.707,0,0,0,3.163-.693,5.44,5.44,0,0,1,4.747.034,7.327,7.327,0,0,0,6.317.045,4.812,4.812,0,0,1,2.378-.528,4.864,4.864,0,0,1,2.37.562,7.327,7.327,0,0,0,6.317.045,4.846,4.846,0,0,1,2.32-.529h.058a4.864,4.864,0,0,1,2.37.562,6.676,6.676,0,0,0,3.154.738h.07a6.449,6.449,0,0,0,3.068-.7,4.8,4.8,0,0,1,1.461-.474v2.314h-7.483a.946.946,0,0,0,0,1.891h7.483v1.261Zm40.76,18.5a2.524,2.524,0,0,1,1.608-2.348v4.7A2.524,2.524,0,0,1,111.053,52.3Z" transform="translate(-67.739)"/>
          <path id="Path_1257726" data-name="Path 1257726" d="M122.468,421.935A3.468,3.468,0,1,0,119,418.468,3.471,3.471,0,0,0,122.468,421.935Zm0-5.044a1.576,1.576,0,1,1-1.576,1.576A1.578,1.578,0,0,1,122.468,416.891Z" transform="translate(-112.536 -362.671)"/>
          <path id="Path_1257727" data-name="Path 1257727" d="M193.837,354a2.837,2.837,0,1,0,2.837,2.837A2.84,2.84,0,0,0,193.837,354Zm0,3.783a.946.946,0,1,1,.946-.946A.947.947,0,0,1,193.837,357.783Z" transform="translate(-175.457 -309.363)"/>
          <path id="Path_1257728" data-name="Path 1257728" d="M328,415.468A3.468,3.468,0,1,0,331.468,412,3.472,3.472,0,0,0,328,415.468Zm5.044,0a1.576,1.576,0,1,1-1.576-1.576A1.578,1.578,0,0,1,333.044,415.468Z" transform="translate(-295.183 -360.049)"/>
          <path id="Path_1257729" data-name="Path 1257729" d="M300.8,352.652a3.152,3.152,0,1,0-3.152,3.152A3.156,3.156,0,0,0,300.8,352.652Zm-4.413,0a1.261,1.261,0,1,1,1.261,1.261A1.262,1.262,0,0,1,296.391,352.652Z" transform="translate(-265.907 -305.43)"/>
          <path id="Path_1257730" data-name="Path 1257730" d="M366.044,312.522a2.522,2.522,0,1,0-2.522,2.522A2.525,2.525,0,0,0,366.044,312.522Zm-3.152,0a.63.63,0,1,1,.63.63A.631.631,0,0,1,362.891,312.522Z" transform="translate(-324.021 -270.911)"/>
          <path id="Path_1257731" data-name="Path 1257731" d="M260.522,412.044A2.522,2.522,0,1,0,258,409.522,2.525,2.525,0,0,0,260.522,412.044Zm0-3.152a.63.63,0,1,1-.63.63A.631.631,0,0,1,260.522,408.891Z" transform="translate(-234.009 -355.68)"/>
          <path id="Path_1257732" data-name="Path 1257732" d="M129.522,328.044A2.522,2.522,0,1,0,127,325.522,2.525,2.525,0,0,0,129.522,328.044Zm0-3.152a.63.63,0,1,1-.63.63A.631.631,0,0,1,129.522,324.891Z" transform="translate(-119.527 -282.272)"/>
          <path id="Path_1257733" data-name="Path 1257733" d="M235.522,305.044A2.522,2.522,0,1,0,233,302.522,2.525,2.525,0,0,0,235.522,305.044Zm0-3.152a.63.63,0,1,1-.63.63A.631.631,0,0,1,235.522,301.891Z" transform="translate(-212.161 -262.172)"/>
        </g>
      </g>
    </g>
    <rect id="Rectangle_411643" data-name="Rectangle 411643" width="103" height="103" transform="translate(253.972 11116.921)" fill="none"/>
  </g>
</svg>
