<svg xmlns="http://www.w3.org/2000/svg" width="109" height="109" viewBox="0 0 109 109">
  <g id="Group_1204064" data-name="Group 1204064" transform="translate(-254.599 -3226.075)">
    <g id="Group_1203710" data-name="Group 1203710" transform="translate(255.999 3249.448)">
      <rect id="Rectangle_410589" data-name="Rectangle 410589" width="106.662" height="35.554" rx="8" transform="translate(0 13.446)" fill="#ffc94a"/>
      <g id="Group_1204061" data-name="Group 1204061" transform="translate(14.962 0)">
        <g id="Group_1204062" data-name="Group 1204062" transform="translate(2.921 5.228)">
          <path id="Path_1257792" data-name="Path 1257792" d="M203.409,82.565h15.1a14.023,14.023,0,0,1,0,28.047l-6.293,2.439-8.81-2.439Z" transform="translate(-175.843 -82.565)" fill="#89760d"/>
          <path id="Path_1257793" data-name="Path 1257793" d="M136.6,106.255c-5.476,5.476-13.191,5.413-18.668-.064s-6.261-13.886-.784-19.363c.22-.22.323-.562.553-.764.166-.145.464-.446.464-.446a14.025,14.025,0,0,1,20.168,19.1S137.169,105.691,136.6,106.255Z" transform="translate(-99.339 -82.566)" fill="#ffd15b"/>
          <path id="Path_1257794" data-name="Path 1257794" d="M135.306,122.023a14.023,14.023,0,1,1-20.168-19.1,14.025,14.025,0,0,0,20.168,19.1Z" transform="translate(-96.307 -99.876)" fill="#fec165"/>
          <path id="Path_1257795" data-name="Path 1257795" d="M165.188,146.38a5.995,5.995,0,1,1,8.478,0A6,6,0,0,1,165.188,146.38Z" transform="translate(-141.861 -128.118)" fill="#fec165"/>
          <path id="Path_1257796" data-name="Path 1257796" d="M113.048,269.692h27.708l2.908,14.023-2.577,14.023H113.048Z" transform="translate(-99.025 -241.646)" fill="#89760d"/>
          <path id="Path_1257797" data-name="Path 1257797" d="M46.244,293.383c-5.476,5.476-13.191,5.413-18.668-.064s-6.261-13.887-.784-19.363c.22-.22.323-.562.553-.764.166-.145.464-.446.464-.446a14.025,14.025,0,0,1,20.168,19.1S46.808,292.819,46.244,293.383Z" transform="translate(-22.521 -241.648)" fill="#ffd15b"/>
          <path id="Path_1257798" data-name="Path 1257798" d="M44.944,309.151a14.023,14.023,0,1,1-20.168-19.1,14.025,14.025,0,0,0,20.168,19.1Z" transform="translate(-19.488 -258.958)" fill="#fec165"/>
          <path id="Path_1257799" data-name="Path 1257799" d="M300.176,269.692h15.1a14.023,14.023,0,0,1,0,28.047h-15.1Z" transform="translate(-258.107 -241.646)" fill="#89760d"/>
          <path id="Path_1257800" data-name="Path 1257800" d="M233.372,293.383c-5.476,5.476-13.191,5.413-18.668-.064s-6.261-13.887-.785-19.363c.22-.22.323-.562.553-.764.166-.145.464-.446.464-.446a14.025,14.025,0,0,1,20.168,19.1S233.936,292.819,233.372,293.383Z" transform="translate(-181.603 -241.648)" fill="#ffd15b"/>
          <g id="Group_1204061-2" data-name="Group 1204061" transform="translate(8.031 31.098)">
            <path id="Path_1257801" data-name="Path 1257801" d="M232.072,309.151a14.023,14.023,0,1,1-20.168-19.1,14.025,14.025,0,0,0,20.168,19.1Z" transform="translate(-186.601 -290.056)" fill="#fec165"/>
            <path id="Path_1257802" data-name="Path 1257802" d="M74.826,333.509a5.995,5.995,0,1,1,8.478,0A6,6,0,0,1,74.826,333.509Z" transform="translate(-73.073 -318.298)" fill="#fec165"/>
            <path id="Path_1257803" data-name="Path 1257803" d="M261.954,333.509a5.995,5.995,0,1,1,8.478,0A6,6,0,0,1,261.954,333.509Z" transform="translate(-232.155 -318.298)" fill="#fec165"/>
          </g>
        </g>
        <g id="Group_1204063" data-name="Group 1204063" transform="translate(0)">
          <path id="Path_1257804" data-name="Path 1257804" d="M171.849,130.483a7.21,7.21,0,0,0,.123-1.32,7.124,7.124,0,0,0-10.492-6.27l.118-.7a1.124,1.124,0,0,0-2.217-.373l-.614,3.652a7.079,7.079,0,0,0-1.027,3.69,7.237,7.237,0,0,0,2.2,5.15l-.463.106a1.124,1.124,0,0,0,.249,2.22,1.137,1.137,0,0,0,.251-.028l2.8-.638a7.145,7.145,0,0,0,7.32-1.992l.063.423a1.124,1.124,0,0,0,1.11.959,1.141,1.141,0,0,0,.166-.012,1.124,1.124,0,0,0,.947-1.277Zm-6.993,3.548a4.979,4.979,0,0,1-4.868-4.868,4.868,4.868,0,1,1,9.736,0A5.042,5.042,0,0,1,164.856,134.031Z" transform="translate(-134.098 -109.911)"/>
          <path id="Path_1257805" data-name="Path 1257805" d="M259.212,319.805a4.8,4.8,0,0,1,1.98,1.2,4.868,4.868,0,0,1-3.444,8.312,5.04,5.04,0,0,1-3.444-1.424,4.877,4.877,0,0,1-1.153-5.054,4.978,4.978,0,0,1,1.8-2.377,1.124,1.124,0,1,0-1.293-1.839,7.9,7.9,0,0,0-1.058.914l-.106-.463a1.124,1.124,0,0,0-2.192.5l.639,2.8a7.216,7.216,0,0,0,1.991,7.313l-.423.063a1.124,1.124,0,0,0,.164,2.236,1.145,1.145,0,0,0,.166-.012l3.59-.533a7.215,7.215,0,0,0,1.32.123,7.115,7.115,0,0,0,6.267-10.492l.7.118a1.124,1.124,0,1,0,.373-2.217l-3.657-.615a7.086,7.086,0,0,0-1.549-.7,1.124,1.124,0,0,0-.671,2.146Z" transform="translate(-212.762 -277.152)"/>
          <path id="Path_1257806" data-name="Path 1257806" d="M60.7,332.985a1.124,1.124,0,0,0,1.55-.354l1.529-2.433a7.118,7.118,0,0,0,3.35-8.695l2.036-.41a1.124,1.124,0,1,0-.444-2.2l-2.752.554a7.1,7.1,0,0,0-3.788-2.427,1.124,1.124,0,0,0-.553,2.179,4.863,4.863,0,0,1,2.864,2.031,5.149,5.149,0,0,1,.81,2.691,4.877,4.877,0,0,1-2.76,4.389l-.011,0a4.842,4.842,0,0,1-2.1.477,4.869,4.869,0,0,1-2.982-8.719,1.124,1.124,0,0,0-1.379-1.776,7.093,7.093,0,0,0-2.46,3.577l-.412-.578a1.124,1.124,0,1,0-1.831,1.3l2.151,3.021a7.182,7.182,0,0,0,7.08,5.414l-.253.4A1.124,1.124,0,0,0,60.7,332.985Z" transform="translate(-43.492 -276.62)"/>
          <path id="Path_1257807" data-name="Path 1257807" d="M76.631,100.492a1.124,1.124,0,0,0-1.5-.538l-.889.419a14.99,14.99,0,0,0,.858-3.385,1.124,1.124,0,1,0-2.229-.3A12.927,12.927,0,0,1,60.09,107.878H52.929a15.151,15.151,0,0,0,0-25.8h7.16A12.9,12.9,0,0,1,72.61,91.872a1.124,1.124,0,1,0,2.183-.539A15.1,15.1,0,0,0,71.5,85l1.411-2.1a1.124,1.124,0,1,0-1.867-1.252l-.523.78-.743-2.837a1.124,1.124,0,1,0-2.175.57l.515,1.964a15.136,15.136,0,0,0-8.029-2.294h-6.3A15.218,15.218,0,0,0,60.33,71.42l2.764-2.233a1.124,1.124,0,0,0-1.413-1.749l-.711.575c.025-.357.039-.717.039-1.08A15.164,15.164,0,0,0,45.861,51.785H43.787v-2.98a1.124,1.124,0,0,0-2.248,0v1.6l-.371-.331a1.124,1.124,0,0,0-1.587.09,1.215,1.215,0,0,0,.134,1.626c-.267.009-9.091.009-9.091.009a15.118,15.118,0,0,0-14.931,13.64l-.87-1.149a1.124,1.124,0,1,0-1.793,1.357l2.775,3.667a15.133,15.133,0,0,0,7.011,10.523H16.94A15.1,15.1,0,0,0,6.13,84.38l.135-1.335a1.124,1.124,0,1,0-2.237-.227L3.71,85.966,2.425,84.791A1.124,1.124,0,1,0,.907,86.449L3.22,88.566a15.127,15.127,0,0,0,.009,12.847l-1.744-.59a1.124,1.124,0,1,0-.721,2.129l4.34,1.47a15.126,15.126,0,0,0,11.835,5.705H60.094A15.183,15.183,0,0,0,72.466,103.7l3.628-1.71a1.124,1.124,0,0,0,.537-1.5ZM54.107,104.1a12.893,12.893,0,1,1,0-18.242A12.914,12.914,0,0,1,54.107,104.1ZM45.263,62.556a1.124,1.124,0,1,0-2.153.648,12.9,12.9,0,1,1-3.23-5.393,13.09,13.09,0,0,1,.981,1.1,1.124,1.124,0,0,0,1.759-1.4,15.409,15.409,0,0,0-1.15-1.287A15.143,15.143,0,0,0,38.7,54.033h7.16a12.9,12.9,0,1,1,0,25.8H38.7a15.156,15.156,0,0,0,6.562-17.275ZM37.044,82.08a15.156,15.156,0,0,0-6.081,7.174,15.239,15.239,0,0,0-6.091-7.174Zm-33,12.9a12.9,12.9,0,1,1,12.9,12.9,12.914,12.914,0,0,1-12.9-12.9ZM30.963,100.7a15.158,15.158,0,0,0,6.081,7.174H24.872a15.239,15.239,0,0,0,6.091-7.174Z" transform="translate(0 -47.681)"/>
        </g>
      </g>
    </g>
    <rect id="Rectangle_411644" data-name="Rectangle 411644" width="109" height="109" transform="translate(254.599 3226.075)" fill="none"/>
  </g>
</svg>
