<svg xmlns="http://www.w3.org/2000/svg" width="109" height="109" viewBox="0 0 109 109">
  <g id="Group_1204065" data-name="Group 1204065" transform="translate(-254.599 -3226.075)">
    <g id="Group_1203710" data-name="Group 1203710" transform="translate(255.999 3249.448)">
      <rect id="Rectangle_410589" data-name="Rectangle 410589" width="106.662" height="35.554" rx="8" transform="translate(0 13.446)" fill="#ffc94a"/>
      <g id="Fill_Outline" data-name="Fill Outline" transform="translate(18.961 -8.215)">
        <g id="Stroke_copy" data-name="Stroke copy" transform="translate(1.639 3.181)">
          <g id="Group_1204072" data-name="Group 1204072">
            <g id="Group_1204068" data-name="Group 1204068" transform="translate(28.763 18.891)">
              <path id="Path_1257808" data-name="Path 1257808" d="M41.084,19h2.361a7.084,7.084,0,0,1-7.084,7.084H34A7.084,7.084,0,0,1,41.084,19Z" transform="translate(-24.554 -19)" fill="#f9e109"/>
              <path id="Path_1257809" data-name="Path 1257809" d="M41.084,28h2.361a7.084,7.084,0,0,1-7.084,7.084H34A7.084,7.084,0,0,1,41.084,28Z" transform="translate(-24.554 -17.374)" fill="#f9e109"/>
              <path id="Path_1257810" data-name="Path 1257810" d="M41.084,37h2.361a7.084,7.084,0,0,1-7.084,7.084H34A7.084,7.084,0,0,1,41.084,37Z" transform="translate(-24.554 -15.747)" fill="#f9e109"/>
              <path id="Path_1257811" data-name="Path 1257811" d="M0,0H2.361A4.723,4.723,0,0,1,7.084,4.723H4.723A4.723,4.723,0,0,1,0,0Z" transform="translate(9.446 7.084) rotate(180)" fill="#f9e109"/>
              <path id="Path_1257812" data-name="Path 1257812" d="M0,0H2.361A7.084,7.084,0,0,1,9.446,7.084H7.084A7.084,7.084,0,0,1,0,0Z" transform="translate(9.446 17.711) rotate(180)" fill="#f9e109"/>
              <path id="Path_1257813" data-name="Path 1257813" d="M0,0H2.361A7.084,7.084,0,0,1,9.446,7.084H7.084A7.084,7.084,0,0,1,0,0Z" transform="translate(9.446 28.337) rotate(180)" fill="#f9e109"/>
            </g>
            <g id="Group_1204069" data-name="Group 1204069" transform="translate(53.558 33.06)">
              <path id="Path_1257814" data-name="Path 1257814" d="M57.723,31h2.361a4.723,4.723,0,0,1-4.723,4.723H53A4.723,4.723,0,0,1,57.723,31Z" transform="translate(-45.916 -31)" fill="#f9e109"/>
              <path id="Path_1257815" data-name="Path 1257815" d="M60.084,38h2.361a7.084,7.084,0,0,1-7.084,7.084H53A7.084,7.084,0,0,1,60.084,38Z" transform="translate(-45.916 -29.735)" fill="#f9e109"/>
              <path id="Path_1257816" data-name="Path 1257816" d="M0,0H2.361A4.723,4.723,0,0,1,7.084,4.723H4.723A4.723,4.723,0,0,1,0,0Z" transform="translate(7.084 4.723) rotate(180)" fill="#f9e109"/>
              <path id="Path_1257817" data-name="Path 1257817" d="M0,0H2.361A4.723,4.723,0,0,1,7.084,4.723H4.723A4.723,4.723,0,0,1,0,0Z" transform="translate(7.084 15.349) rotate(180)" fill="#f9e109"/>
            </g>
            <g id="Group_1204070" data-name="Group 1204070" transform="translate(0 26.981)">
              <path id="Path_1257818" data-name="Path 1257818" d="M4.723,0H7.084A4.723,4.723,0,0,1,2.361,4.723H0A4.723,4.723,0,0,1,4.723,0Z" transform="translate(0 6.362) rotate(-63.948)" fill="#f9e109"/>
              <path id="Path_1257819" data-name="Path 1257819" d="M21.084,35h2.361a7.084,7.084,0,0,1-7.084,7.084H14A7.084,7.084,0,0,1,21.084,35Z" transform="translate(0.594 -24.198)" fill="#f9e109"/>
              <path id="Path_1257820" data-name="Path 1257820" d="M0,0H2.361A4.723,4.723,0,0,1,7.084,4.723H4.723A4.723,4.723,0,0,1,0,0Z" transform="translate(14.594 17.887) rotate(180)" fill="#f9e109"/>
              <path id="Path_1257821" data-name="Path 1257821" d="M18.723,28h2.361a4.723,4.723,0,0,1-4.723,4.723H14A4.723,4.723,0,0,1,18.723,28Z" transform="translate(0.594 -25.463)" fill="#f9e109"/>
            </g>
            <circle id="Ellipse_12756" data-name="Ellipse 12756" cx="3.542" cy="3.542" r="3.542" transform="translate(9.871)" fill="#f8664f"/>
            <path id="Path_1257822" data-name="Path 1257822" d="M71.481,63.349H3V51.542l8.265-2.361L23.072,48l14.169,2.361L49.048,48l12.988,3.542,9.446-2.361Z" transform="translate(-1.394 5.132)" fill="#e59730"/>
            <path id="Path_1257823" data-name="Path 1257823" d="M71.481,62.446H3V55.361L10.084,53l11.807,1.181H39.6l7.084,1.181,5.9-1.181h7.084L71.481,53Z" transform="translate(-1.394 6.036)" fill="#b27525"/>
            <g id="Group_1204071" data-name="Group 1204071" transform="translate(1.608 18.891)">
              <path id="Path_1257824" data-name="Path 1257824" d="M36.361,23.723H34.412A7.05,7.05,0,0,0,34,26.084h2.361A7.084,7.084,0,0,0,43.446,19h-.412A7.084,7.084,0,0,1,36.361,23.723Z" transform="translate(2.601 -19)" fill="#fcbc04"/>
              <path id="Path_1257825" data-name="Path 1257825" d="M36.361,32.723H34.412A7.05,7.05,0,0,0,34,35.084h2.361A7.084,7.084,0,0,0,43.446,28h-.412A7.084,7.084,0,0,1,36.361,32.723Z" transform="translate(2.601 -17.374)" fill="#fcbc04"/>
              <path id="Path_1257826" data-name="Path 1257826" d="M36.361,41.723H34.412A7.05,7.05,0,0,0,34,44.084h2.361A7.084,7.084,0,0,0,43.446,37h-.412A7.084,7.084,0,0,1,36.361,41.723Z" transform="translate(2.601 -15.747)" fill="#fcbc04"/>
              <path id="Path_1257827" data-name="Path 1257827" d="M32.723,23.361A4.7,4.7,0,0,1,28.655,21H28a4.723,4.723,0,0,0,4.723,4.723h2.361a4.67,4.67,0,0,0-.655-2.361Z" transform="translate(1.517 -18.639)" fill="#fcbc04"/>
              <path id="Path_1257828" data-name="Path 1257828" d="M33.084,32.723h1.949a7.05,7.05,0,0,1,.412,2.361H33.084A7.084,7.084,0,0,1,26,28h.412a7.084,7.084,0,0,0,6.672,4.723Z" transform="translate(1.155 -17.374)" fill="#fcbc04"/>
              <path id="Path_1257829" data-name="Path 1257829" d="M33.084,41.723h1.949a7.05,7.05,0,0,1,.412,2.361H33.084A7.084,7.084,0,0,1,26,37h.412a7.084,7.084,0,0,0,6.672,4.723Z" transform="translate(1.155 -15.747)" fill="#fcbc04"/>
              <path id="Path_1257830" data-name="Path 1257830" d="M55.361,42.723H53.412A7.05,7.05,0,0,0,53,45.084h2.361A7.084,7.084,0,0,0,62.446,38h-.412a7.084,7.084,0,0,1-6.672,4.723Z" transform="translate(6.034 -15.566)" fill="#fcbc04"/>
              <path id="Path_1257831" data-name="Path 1257831" d="M51.723,42.361A4.7,4.7,0,0,1,47.655,40H47a4.723,4.723,0,0,0,4.723,4.723h2.361a4.67,4.67,0,0,0-.655-2.361Z" transform="translate(4.95 -15.205)" fill="#fcbc04"/>
              <path id="Path_1257832" data-name="Path 1257832" d="M16.361,39.723H14.412A7.05,7.05,0,0,0,14,42.084h2.361A7.084,7.084,0,0,0,23.446,35h-.412a7.084,7.084,0,0,1-6.672,4.723Z" transform="translate(-1.013 -16.109)" fill="#fcbc04"/>
              <path id="Path_1257833" data-name="Path 1257833" d="M12.723,39.361A4.7,4.7,0,0,1,8.655,37H8a4.723,4.723,0,0,0,4.723,4.723h2.361a4.67,4.67,0,0,0-.655-2.361Z" transform="translate(-2.098 -15.747)" fill="#fcbc04"/>
              <path id="Path_1257834" data-name="Path 1257834" d="M51.723,33.361A4.7,4.7,0,0,1,47.655,31H47a4.723,4.723,0,0,0,4.723,4.723h2.361a4.67,4.67,0,0,0-.655-2.361Z" transform="translate(4.95 -16.831)" fill="#fcbc04"/>
              <path id="Path_1257835" data-name="Path 1257835" d="M55.361,33.361A4.7,4.7,0,0,0,59.429,31h.655a4.723,4.723,0,0,1-4.723,4.723H53a4.67,4.67,0,0,1,.655-2.361Z" transform="translate(6.034 -16.831)" fill="#fcbc04"/>
              <path id="Path_1257836" data-name="Path 1257836" d="M16.361,30.361A4.7,4.7,0,0,0,20.429,28h.655a4.723,4.723,0,0,1-4.723,4.723H14a4.67,4.67,0,0,1,.655-2.361Z" transform="translate(-1.013 -17.374)" fill="#fcbc04"/>
              <path id="Path_1257837" data-name="Path 1257837" d="M4.563,25.88c-.017-.007-.03-.02-.045-.027L3.48,27.978a4.723,4.723,0,0,0,2.169,6.313l1.038-2.125c.043-.087.061-.178.1-.267A4.708,4.708,0,0,1,4.563,25.88Z" transform="translate(-3.001 -17.762)" fill="#fcbc04"/>
            </g>
          </g>
        </g>
        <g id="Stroke_Cut_copy_2" data-name="Stroke Cut copy 2" transform="translate(2.044 2)">
          <g id="Group_1204073" data-name="Group 1204073">
            <path id="Path_1257838" data-name="Path 1257838" d="M31.037,53.453,23.45,52.188a1.2,1.2,0,0,0-.312-.011l-5.785.584V46.268h1.181A8.276,8.276,0,0,0,26.8,38V35.642a1.181,1.181,0,1,0-2.361,0v1.181H23.256a8.235,8.235,0,0,0-6.084,2.691q-.138-1.942-.4-3.872h1.762a5.911,5.911,0,0,0,5.9-5.9V27.377a1.181,1.181,0,0,0-2.361,0v1.181H20.895a5.9,5.9,0,0,0-4.89,2.6c-.118-.537-.206-1.078-.331-1.611l-1.6-6.807a5.647,5.647,0,0,0-11.111.671,1.2,1.2,0,0,0,0,.184L3.15,27.7l-.54,1.1a5.911,5.911,0,0,0,2.716,7.9,1.181,1.181,0,0,0,1.58-.542L7.942,34.03a5.9,5.9,0,0,0-2.5-7.751l-.118-2.692a3.285,3.285,0,0,1,6.453-.3l1.6,6.809a61.043,61.043,0,0,1,1.5,10.2,5.85,5.85,0,0,0-3.424-1.111H10.268V38a1.181,1.181,0,0,0-2.361,0v2.361a5.911,5.911,0,0,0,5.9,5.9h1.181V53l-3.635.354h-.022a1.192,1.192,0,0,0-.205.039L2.863,55.753a1.181,1.181,0,0,0,.321,2.322,1.223,1.223,0,0,0,.325-.045l6.114-1.747L7.969,61.242,6.789,64.784a1.182,1.182,0,1,0,2.243.746l.692-2.076,2.256,1.5a1.181,1.181,0,1,0,1.311-1.965l-2.8-1.858,1.835-5.5,9.511-.952-.886,5.313-2.221,3.331a1.181,1.181,0,0,0,1.181,1.819l6.486-1.08L28.33,66A1.181,1.181,0,1,0,30,64.326L28.24,62.567,30.222,58.6a1.181,1.181,0,0,0-2.113-1.056l-2.1,4.188-3.8.633.85-1.274a1.181,1.181,0,0,0,.182-.462l.987-5.92,6.423,1.072a1.181,1.181,0,0,0,.387-2.33ZM23.256,39.184h1.063a5.913,5.913,0,0,1-5.785,4.723H17.471a5.913,5.913,0,0,1,5.785-4.723Zm-2.361-8.265h.979a3.549,3.549,0,0,1-3.34,2.361h-.979a3.549,3.549,0,0,1,3.34-2.361ZM5.81,33l-.43.878a3.542,3.542,0,0,1-.654-4.037l.1-.209a1.149,1.149,0,0,0,.508-.443A3.459,3.459,0,0,1,5.807,33Zm8,10.905a3.549,3.549,0,0,1-3.34-2.361h.979a3.549,3.549,0,0,1,3.34,2.361Z" transform="translate(-1.982 0.96)"/>
            <path id="Path_1257839" data-name="Path 1257839" d="M62.388,47.9a1.181,1.181,0,1,0,.789,2.226,8.276,8.276,0,0,0,5.509-7.786V39.976a1.181,1.181,0,1,0-2.361,0v1.181H65.144a8.234,8.234,0,0,0-5.9,2.494V39.976h1.181a5.911,5.911,0,0,0,5.9-5.9V31.711a1.181,1.181,0,0,0-2.361,0v1.181H62.783A5.842,5.842,0,0,0,59.241,34.1v-8.78a6.115,6.115,0,0,0-3.435-5.5,4.287,4.287,0,0,0-3.737,0,4.67,4.67,0,0,0-2.53,3.118l-.894,3.785a1.181,1.181,0,0,0,2.3.541l.891-3.778a2.293,2.293,0,0,1,1.241-1.527,1.953,1.953,0,0,1,1.719,0,3.748,3.748,0,0,1,2.083,3.365V34.1a5.842,5.842,0,0,0-3.542-1.211H52.156V31.711a1.181,1.181,0,1,0-2.361,0v2.361a5.911,5.911,0,0,0,5.9,5.9h1.181v4.754a5.842,5.842,0,0,0-3.542-1.211H52.156V42.337a1.181,1.181,0,0,0-2.361,0V44.7a5.911,5.911,0,0,0,5.9,5.9h1.181v5.539L45.383,53a1.168,1.168,0,0,0-.542-.018l-8.034,1.606V49.421h1.181a8.276,8.276,0,0,0,8.265-8.265V38.795a1.181,1.181,0,1,0-2.361,0v1.181H42.711a8.234,8.234,0,0,0-5.9,2.494V38.795h1.181a8.276,8.276,0,0,0,8.265-8.265V28.169a1.181,1.181,0,1,0-2.361,0v1.181H42.711a8.234,8.234,0,0,0-5.9,2.494V28.169h1.181A8.276,8.276,0,0,0,46.253,19.9V17.542a1.181,1.181,0,1,0-2.361,0v1.181H42.711a8.234,8.234,0,0,0-5.9,2.494V15.181a1.181,1.181,0,0,0-2.361,0V22.3A5.842,5.842,0,0,0,30.9,21.084H29.723V19.9a1.181,1.181,0,0,0-2.361,0v2.361a5.911,5.911,0,0,0,5.9,5.9h1.181v3.673a8.233,8.233,0,0,0-5.9-2.492H27.361V28.169a1.181,1.181,0,1,0-2.361,0V30.53a8.276,8.276,0,0,0,5.509,7.786A1.181,1.181,0,1,0,31.3,36.09a5.915,5.915,0,0,1-3.818-4.379h1.063a5.911,5.911,0,0,1,5.9,5.9v4.854a8.233,8.233,0,0,0-5.9-2.492H27.361V38.795a1.181,1.181,0,1,0-2.361,0v2.361a8.276,8.276,0,0,0,8.265,8.265h1.181v5.644l-1.2.236L31.1,54.947a1.181,1.181,0,1,0-.387,2.328l1.771.3,1.653,3.306L30.2,63.826a1.181,1.181,0,1,0,1.417,1.889l4.723-3.542c.034-.026.052-.065.084-.094a1.15,1.15,0,0,0,.161-.179,1.125,1.125,0,0,0,.21-.625,1.153,1.153,0,0,0-.011-.221,1.106,1.106,0,0,0-.063-.228,1.148,1.148,0,0,0-.033-.125l-1.671-3.34,8.921-1.784a1.122,1.122,0,0,0,.126.354L46.739,60.4l-4.265.85h-.007c-.013,0-.024.012-.037.015a1.151,1.151,0,0,0-.411.185.024.024,0,0,0-.022.009L37.275,65a1.181,1.181,0,0,0-.418,1.3l1.109,3.542a1.181,1.181,0,0,0,2.254-.708l-.86-2.745L42.283,64.2l2.908,5.819A1.181,1.181,0,0,0,47.3,68.962l-2.847-5.7,4.392-.878c.011,0,.018-.008.027-.011a1.152,1.152,0,0,0,.354-.135c.009-.006.014-.015.025-.022a1.2,1.2,0,0,0,.19-.174,1.181,1.181,0,0,0,.143-.144,1.266,1.266,0,0,0,.087-.2,1.108,1.108,0,0,0,.089-.213,1.062,1.062,0,0,0,.011-.195,1.166,1.166,0,0,0,0-.264.308.308,0,0,0,0-.033A1.2,1.2,0,0,0,49.7,60.8a1.075,1.075,0,0,0-.066-.184l-2.876-4.795,9.416,2.57-1.452,2.178a1.181,1.181,0,0,0,.327,1.638l1.674,1.116L52.9,64.855a1.181,1.181,0,0,0-.19,2.1l5.632,3.542a1.181,1.181,0,0,0,1.252-2l-3.66-2.306,3.542-1.417h3.306a1.181,1.181,0,0,0,0-2.361H59.595L57.333,60.9l1.453-2.181,9-2.25a1.181,1.181,0,1,0-.571-2.291l-7.976,2V49.421a5.911,5.911,0,0,1,5.9-5.9h1.063A5.915,5.915,0,0,1,62.388,47.9Zm-19.678-5.56h1.063a5.913,5.913,0,0,1-5.785,4.723H36.925a5.913,5.913,0,0,1,5.785-4.723Zm0-10.626h1.063a5.913,5.913,0,0,1-5.785,4.723H36.925a5.913,5.913,0,0,1,5.786-4.723Zm0-10.626h1.063a5.913,5.913,0,0,1-5.785,4.723H36.925a5.913,5.913,0,0,1,5.786-4.723ZM33.265,47.06a5.913,5.913,0,0,1-5.785-4.723h1.063a5.913,5.913,0,0,1,5.785,4.723Zm0-21.253a3.549,3.549,0,0,1-3.34-2.361H30.9a3.549,3.549,0,0,1,3.34,2.361Zm29.518,9.446h.979a3.549,3.549,0,0,1-3.34,2.361h-.979a3.549,3.549,0,0,1,3.34-2.361ZM55.7,37.614a3.549,3.549,0,0,1-3.34-2.361h.979a3.549,3.549,0,0,1,3.34,2.361Zm0,10.626a3.549,3.549,0,0,1-3.34-2.361h.979a3.549,3.549,0,0,1,3.34,2.361Z" transform="translate(2.178 0.169)"/>
            <path id="Path_1257840" data-name="Path 1257840" d="M13.723,11.446A4.723,4.723,0,1,0,9,6.723,4.723,4.723,0,0,0,13.723,11.446Zm0-7.084a2.361,2.361,0,1,1-2.361,2.361A2.361,2.361,0,0,1,13.723,4.361Z" transform="translate(-0.714 -2)"/>
            <path id="Path_1257841" data-name="Path 1257841" d="M11,13.181v3.542a1.181,1.181,0,1,0,2.361,0V13.181a1.181,1.181,0,1,0-2.361,0Z" transform="translate(-0.352 -0.193)"/>
            <path id="Path_1257842" data-name="Path 1257842" d="M15.743,12.084a1.181,1.181,0,0,0-.659,1.535l2.361,5.9a1.181,1.181,0,0,0,1.1.743,1.164,1.164,0,0,0,.438-.084,1.181,1.181,0,0,0,.659-1.535l-2.361-5.9a1.181,1.181,0,0,0-1.535-.659Z" transform="translate(0.37 -0.193)"/>
            <path id="Path_1257843" data-name="Path 1257843" d="M19.124,6.652a1.181,1.181,0,0,0,.529,1.59L29.1,12.966a1.181,1.181,0,1,0,1.056-2.113L20.709,6.129A1.181,1.181,0,0,0,19.124,6.652Z" transform="translate(1.093 -1.277)"/>
            <path id="Path_1257844" data-name="Path 1257844" d="M20.181,4.361h7.084a1.181,1.181,0,0,0,0-2.361H20.181a1.181,1.181,0,0,0,0,2.361Z" transform="translate(1.093 -2)"/>
            <path id="Path_1257845" data-name="Path 1257845" d="M24.25,17.919a1.181,1.181,0,1,0,1.67-1.67l-5.9-5.9a1.181,1.181,0,1,0-1.67,1.67Z" transform="translate(0.913 -0.554)"/>
            <path id="Path_1257846" data-name="Path 1257846" d="M8.705,8.525A1.181,1.181,0,0,0,7.068,8.2L3.525,10.56a1.181,1.181,0,1,0,1.311,1.965l3.542-2.361a1.181,1.181,0,0,0,.327-1.638Z" transform="translate(-1.798 -0.916)"/>
            <path id="Path_1257847" data-name="Path 1257847" d="M4.181,5.361H7.723A1.181,1.181,0,0,0,7.723,3H4.181a1.181,1.181,0,0,0,0,2.361Z" transform="translate(-1.798 -1.819)"/>
            <path id="Path_1257848" data-name="Path 1257848" d="M7.707,12.346,5.346,14.707a1.181,1.181,0,1,0,1.67,1.67l2.361-2.362a1.181,1.181,0,1,0-1.67-1.67Z" transform="translate(-1.437 -0.193)"/>
          </g>
        </g>
      </g>
    </g>
    <rect id="Rectangle_411644" data-name="Rectangle 411644" width="109" height="109" transform="translate(254.599 3226.075)" fill="none"/>
  </g>
</svg>
