<svg xmlns="http://www.w3.org/2000/svg" width="103" height="103" viewBox="0 0 103 103">
  <g id="Group_1204090" data-name="Group 1204090" transform="translate(-253.972 -11116.922)">
    <g id="Group_1203593" data-name="Group 1203593" transform="translate(256.094 11138.794)">
      <rect id="Rectangle_410589" data-name="Rectangle 410589" width="99.185" height="33.062" rx="8" transform="translate(-0.122 13.128)" fill="#ffc94a"/>
      <g id="Group_1204133" data-name="Group 1204133" transform="translate(-37.233 -9.872)">
        <g id="Group_1204135" data-name="Group 1204135" transform="translate(56.674 1.563)">
          <g id="Group_1204133-2" data-name="Group 1204133">
            <path id="Path_1257994" data-name="Path 1257994" d="M119.762,54.729A27.507,27.507,0,1,1,70.475,42.87l0,0L92.617,10l14.188,21.061" transform="translate(-65.111 -10)" fill="#a3e0fb"/>
          </g>
          <g id="Group_1204134" data-name="Group 1204134" transform="translate(34.85 12.947)">
            <path id="Path_1257995" data-name="Path 1257995" d="M288.068,114.846a12.254,12.254,0,0,1,2.4-7.3v0l9.908-14.709,9.909,14.709v0a12.31,12.31,0,1,1-22.219,7.3Z" transform="translate(-288.068 -92.831)" fill="#4696e6"/>
          </g>
        </g>
        <g id="Group_1204136" data-name="Group 1204136" transform="translate(55.111 0)">
          <path id="Path_1257996" data-name="Path 1257996" d="M112.889,272.929a18.325,18.325,0,0,1-9.3-28.365,1.6,1.6,0,0,0,.142-.231,1.563,1.563,0,0,0-2.673-1.6,21.45,21.45,0,0,0,.1,25.535,21.624,21.624,0,0,0,10.808,7.649,1.563,1.563,0,0,0,.928-2.985Z" transform="translate(-90.36 -204.234)"/>
          <path id="Path_1257997" data-name="Path 1257997" d="M117.706,36.526a13.763,13.763,0,0,0-2.682-8.2L105.13,13.637a1.563,1.563,0,0,0-2.593,0l-4.169,6.189L85.476.69a1.563,1.563,0,0,0-2.593,0L60.754,33.54a29.07,29.07,0,1,0,52.495,17.215A29.342,29.342,0,0,0,113,46.931,13.843,13.843,0,0,0,117.706,36.526ZM103.833,17.308l8.6,12.763q.026.04.054.078a10.747,10.747,0,1,1-17.3,0c.018-.025.035-.05.052-.075L99.661,23.5l.024-.036Zm6.289,33.447A25.943,25.943,0,1,1,63.3,35.361c.019-.025.037-.052.055-.08L84.18,4.361l12.3,18.263-3.841,5.7a13.871,13.871,0,0,0,17.415,20.6q.064.914.065,1.833Z" transform="translate(-55.111 0)"/>
          <path id="Path_1257998" data-name="Path 1257998" d="M314.687,207.649a5.313,5.313,0,0,1,.458-2.172,1.563,1.563,0,0,0-2.857-1.27,8.488,8.488,0,0,0,3.042,10.5,1.563,1.563,0,0,0,1.738-2.6A5.352,5.352,0,0,1,314.687,207.649Z" transform="translate(-271.476 -171.504)"/>
          <path id="Path_1257999" data-name="Path 1257999" d="M220.137,448.171a1.563,1.563,0,1,0-1.749,2.13A1.575,1.575,0,0,0,220.137,448.171Z" transform="translate(-191.809 -377.311)"/>
          <path id="Path_1258000" data-name="Path 1258000" d="M357.849,270.023a1.563,1.563,0,1,0,0-2.6A1.57,1.57,0,0,0,357.849,270.023Z" transform="translate(-309.95 -225.4)"/>
        </g>
      </g>
    </g>
    <rect id="Rectangle_411643" data-name="Rectangle 411643" width="103" height="103" transform="translate(253.972 11116.922)" fill="none"/>
  </g>
</svg>
