<svg xmlns="http://www.w3.org/2000/svg" width="81" height="81" viewBox="0 0 81 81">
  <g id="Group_1204151" data-name="Group 1204151" transform="translate(-624.523 -6443)">
    <circle id="Ellipse_12700" data-name="Ellipse 12700" cx="40.5" cy="40.5" r="40.5" transform="translate(624.523 6443)" fill="#f9f9f6"/>
    <g id="Group_1204150" data-name="Group 1204150" transform="translate(636.442 6458.595)">
      <g id="Group_1204137" data-name="Group 1204137" transform="translate(40.865 7.305)">
        <path id="Path_1258001" data-name="Path 1258001" d="M40.371,108.749l1.1.754a1.416,1.416,0,0,0,1.6,0l.3-.2a1.416,1.416,0,0,1,1.6,0l.3.2a1.416,1.416,0,0,0,1.6,0l.3-.2a1.416,1.416,0,0,1,1.6,0l.3.2a1.416,1.416,0,0,0,1.6,0l1.1-.753V99.077a4.784,4.784,0,0,0-4.784-4.784,6.613,6.613,0,0,0-6.613,6.613Z" transform="translate(-40.371 -94.293)" fill="#e7a561"/>
      </g>
      <g id="Group_1204138" data-name="Group 1204138" transform="translate(40.865 7.325)">
        <path id="Path_1258002" data-name="Path 1258002" d="M46.459,94.48A6.588,6.588,0,0,0,44.8,98.856v6.51a2.53,2.53,0,0,0,1.1,2.087,1.416,1.416,0,0,0,1.6,0l.3-.2a1.416,1.416,0,0,1,1.6,0l.3.2a1.416,1.416,0,0,0,1.6,0l.3-.2a1.431,1.431,0,0,1,.167-.1v1.765l-1.1.753a1.416,1.416,0,0,1-1.6,0l-.3-.2a1.416,1.416,0,0,0-1.6,0l-.3.2a1.416,1.416,0,0,1-1.6,0l-.3-.2a1.416,1.416,0,0,0-1.6,0l-.3.2a1.416,1.416,0,0,1-1.6,0l-1.1-.754v-7.843A6.614,6.614,0,0,1,46.459,94.48Z" transform="translate(-40.371 -94.48)" fill="#e49542"/>
      </g>
      <g id="Group_1204139" data-name="Group 1204139" transform="translate(18.149 18.816)">
        <path id="Path_1258003" data-name="Path 1258003" d="M41.8,198.3a23.044,23.044,0,0,0,11.057,2.826H63.087l1.1.754a1.416,1.416,0,0,0,1.6,0l.3-.2a1.416,1.416,0,0,1,1.6,0l.3.2a1.416,1.416,0,0,0,1.6,0l.3-.2a1.416,1.416,0,0,1,1.6,0l.3.2a1.416,1.416,0,0,0,1.6,0l1.1-.753v3.5a16.257,16.257,0,0,1-15.2,16.222.257.257,0,0,0-.236.2,3.1,3.1,0,0,1-6.118-.408.259.259,0,0,0-.2-.23,16.263,16.263,0,0,1-12.361-15.786V199.15A.967.967,0,0,1,41.8,198.3Z" transform="translate(-40.371 -198.177)" fill="#e7a561"/>
      </g>
      <g id="Group_1204140" data-name="Group 1204140" transform="translate(18.149 18.816)">
        <path id="Path_1258004" data-name="Path 1258004" d="M180.786,198.3a23.038,23.038,0,0,0,3.007,1.374v2.738a16.262,16.262,0,0,0,10.2,15.089,5.888,5.888,0,0,1,2.819,2.324,3.111,3.111,0,0,0,1.263,1.146.253.253,0,0,0-.033.082,3.1,3.1,0,0,1-6.118-.408.259.259,0,0,0-.2-.23,16.263,16.263,0,0,1-12.361-15.786V199.15A.967.967,0,0,1,180.786,198.3Z" transform="translate(-179.36 -198.177)" fill="#e49542"/>
      </g>
      <g id="Group_1204141" data-name="Group 1204141" transform="translate(52.262 13.298)">
        <path id="Path_1258005" data-name="Path 1258005" d="M10.883,152.024H7.5v-3.643h.6a3.045,3.045,0,0,1,3.045,3.045v.338a.26.26,0,0,1-.26.26Z" transform="translate(-7.5 -148.381)" fill="#ffe07d"/>
      </g>
      <g id="Group_1204142" data-name="Group 1204142" transform="translate(24.473 25.018)">
        <path id="Path_1258006" data-name="Path 1258006" d="M133.937,266.677h1.3a6.264,6.264,0,1,0,0-12.528H124.3a1.448,1.448,0,0,0-1.448,1.448,11.08,11.08,0,0,0,11.08,11.08Z" transform="translate(-122.857 -254.149)" fill="#ecb780"/>
      </g>
      <g id="Group_1204143" data-name="Group 1204143" transform="translate(52.262 16.941)">
        <path id="Path_1258007" data-name="Path 1258007" d="M12.613,186.806a1.626,1.626,0,0,1-1.626-1.626v-3.927l2.777,2.777A1.626,1.626,0,0,1,12.613,186.806Z" transform="translate(-10.986 -181.253)" fill="#e28086"/>
      </g>
      <g id="Group_1204144" data-name="Group 1204144" transform="translate(40.983 0.832)">
        <path id="Path_1258008" data-name="Path 1258008" d="M27.573,44.472A4.779,4.779,0,0,0,23.6,42.352a6.6,6.6,0,0,0-2.369.437l-.757-.2A4.544,4.544,0,0,1,17.26,37.02l.2-.746a.533.533,0,0,1,.653-.377l5.3,1.419a2.911,2.911,0,0,1,1.436.89,2.076,2.076,0,0,0,2.239.612,2.925,2.925,0,1,1,.489,5.655Z" transform="translate(-17.104 -35.878)" fill="#e28086"/>
      </g>
      <g id="Group_1204145" data-name="Group 1204145" transform="translate(27.893 43.499)">
        <path id="Path_1258009" data-name="Path 1258009" d="M183.2,420.929a3.1,3.1,0,0,0,2.93.461l-.6,2.222a2.728,2.728,0,0,0,2.635,3.434h-8.987a3.1,3.1,0,0,0,2.994-2.3Z" transform="translate(-179.181 -420.929)" fill="#ffe07d"/>
      </g>
      <g id="Group_1204146" data-name="Group 1204146" transform="translate(36.869 43.499)">
        <path id="Path_1258010" data-name="Path 1258010" d="M91.137,420.929a3.1,3.1,0,0,1-2.93.461l.9,3.359a1.825,1.825,0,0,1-1.763,2.3h7.93a3.256,3.256,0,0,1-3.145-2.413Z" transform="translate(-87.344 -420.929)" fill="#ecd833"/>
      </g>
      <g id="Group_1204147" data-name="Group 1204147" transform="translate(36.286 40.45)">
        <path id="Path_1258011" data-name="Path 1258011" d="M134.675,394.647a.259.259,0,0,1,.239-.2,16.18,16.18,0,0,0,4.749-1.035,3.1,3.1,0,0,1-5.529,2.437A3.083,3.083,0,0,0,134.675,394.647Z" transform="translate(-134.134 -393.41)" fill="#e7a52e"/>
      </g>
      <g id="Group_1204148" data-name="Group 1204148" transform="translate(13.215 39.397)">
        <path id="Path_1258012" data-name="Path 1258012" d="M323.261,386.333v-.327a2.1,2.1,0,1,1,4.206,0v1.837a4.067,4.067,0,1,1-8.134,0v-.314a.252.252,0,0,1,.252-.252h2.732A.944.944,0,0,0,323.261,386.333Z" transform="translate(-319.333 -383.903)" fill="#ffe07d"/>
      </g>
      <g id="Group_1204149" data-name="Group 1204149" transform="translate(0.831 39.397)">
        <path id="Path_1258013" data-name="Path 1258013" d="M435.021,386.333v-.327a2.1,2.1,0,1,1,4.206,0v1.837a4.067,4.067,0,1,1-8.134,0v-.314a.252.252,0,0,1,.252-.252h2.732A.944.944,0,0,0,435.021,386.333Z" transform="translate(-431.093 -383.903)" fill="#ffe07d"/>
      </g>
      <path id="Path_1258014" data-name="Path 1258014" d="M38.326,46.145H36.95L38.308,47.5a2.458,2.458,0,0,1-2.533,4.063v2.07a17.134,17.134,0,0,1-10.39,15.722,3.915,3.915,0,0,1-1.107,2.79l.861,3.214a2.428,2.428,0,0,0,2.342,1.8h2.258a.831.831,0,0,1,0,1.662H10.575a.831.831,0,0,1,0-1.662,2.271,2.271,0,0,0,2.191-1.681l.893-3.333a3.916,3.916,0,0,1-1.043-2.012A17.091,17.091,0,0,1,0,53.636V48.162a1.8,1.8,0,0,1,2.656-1.583A22.276,22.276,0,0,0,13.314,49.3h9.4V47.969a.831.831,0,0,1,1.662,0V49.7l.738.506a.589.589,0,0,0,.662,0l.3-.2a2.261,2.261,0,0,1,2.542,0l.3.2a.589.589,0,0,0,.662,0l.3-.2a2.261,2.261,0,0,1,2.543,0l.3.2a.588.588,0,0,0,.662,0l.737-.506V40.462a3.957,3.957,0,0,0-3.953-3.953,5.789,5.789,0,0,0-5.782,5.782v1.8a.831.831,0,0,1-1.662,0v-1.8a7.439,7.439,0,0,1,3.03-5.991,5.385,5.385,0,0,1-2.728-6.169l.2-.746a1.364,1.364,0,0,1,1.671-.965l1.562.418a.831.831,0,0,1-.43,1.606L24.747,30.1l-.123.459a3.717,3.717,0,0,0,2.626,4.547l.507.136a7.413,7.413,0,0,1,2.4-.4,5.608,5.608,0,0,1,4.422,2.158,2.095,2.095,0,1,0-.665-4.076,2.906,2.906,0,0,1-3.134-.848,2.084,2.084,0,0,0-1.028-.636.831.831,0,1,1,.43-1.606,3.74,3.74,0,0,1,1.845,1.143,1.25,1.25,0,0,0,1.345.376,3.734,3.734,0,0,1,2.342-.034,3.759,3.759,0,0,1-.269,7.248,5.59,5.59,0,0,1,.327,1.889v.386a3.881,3.881,0,0,1,3.643,3.869v.338a1.092,1.092,0,0,1-1.091,1.091ZM22.015,77.158h2.176a4.065,4.065,0,0,1-.658-1.367l-.72-2.688a3.906,3.906,0,0,1-1.269.24l.572,2.133a2.638,2.638,0,0,1-.1,1.681Zm-1.286-5.593a2.273,2.273,0,0,0,2.92-1.575,16.963,16.963,0,0,1-3.442.666,3.874,3.874,0,0,1-.206.5,2.232,2.232,0,0,0,.651.382C20.679,71.545,20.7,71.554,20.729,71.565Zm-1.175,5.593a.993.993,0,0,0,.956-1.251l-.8-2.973a3.957,3.957,0,0,1-.748-.482,3.978,3.978,0,0,1-.743.481L17.73,74.77a1.9,1.9,0,0,0,1.824,2.388Zm-3,0a3.53,3.53,0,0,1-.426-2.818l.267-1a3.889,3.889,0,0,1-1.268-.243l-.752,2.806a3.91,3.91,0,0,1-.587,1.251ZM34.113,51.7a2.263,2.263,0,0,1-2.34-.124l-.3-.2a.589.589,0,0,0-.662,0l-.3.2a2.261,2.261,0,0,1-2.543,0l-.3-.2a.589.589,0,0,0-.662,0l-.3.2a2.262,2.262,0,0,1-2.542,0l-.887-.608H13.314A23.943,23.943,0,0,1,1.858,48.037a.119.119,0,0,0-.126,0,.136.136,0,0,0-.07.121v5.474A15.386,15.386,0,0,0,13.391,68.615a1.088,1.088,0,0,1,.829.975,2.267,2.267,0,0,0,4.477.3,1.092,1.092,0,0,1,1-.86,15.449,15.449,0,0,0,14.42-15.393Zm1.662-2.456a.8.8,0,0,0,.8.8.8.8,0,0,0,.562-1.358L35.775,47.32Zm0-6.726v1.968h1.968A2.218,2.218,0,0,0,35.775,42.514Z" transform="translate(17.318 -28.373)"/>
      <path id="Path_1258015" data-name="Path 1258015" d="M128.573,260.839h-1.3a11.832,11.832,0,0,1-6.9-2.2.831.831,0,1,1,.963-1.355,10.179,10.179,0,0,0,5.933,1.891h1.3a5.433,5.433,0,0,0,0-10.866h-4.89a3.754,3.754,0,0,0,3.676,4.464.831.831,0,1,1,0,1.662A5.409,5.409,0,0,1,122,248.311h-1.319a6.72,6.72,0,0,0,6.675,7.437h1.213a.831.831,0,1,1,0,1.662H127.36a8.382,8.382,0,0,1-8.345-9.1h-1.378a.618.618,0,0,0-.617.617,10.188,10.188,0,0,0,1.812,5.82.831.831,0,0,1-1.367.945,11.844,11.844,0,0,1-2.107-6.766,2.282,2.282,0,0,1,2.279-2.279h10.936a7.1,7.1,0,0,1,0,14.19Z" transform="translate(-91.716 -222.462)"/>
      <path id="Path_1258016" data-name="Path 1258016" d="M300.258,381.176v-.314a1.084,1.084,0,0,1,1.083-1.083h2.732a.113.113,0,0,0,.113-.113v-.327a2.934,2.934,0,0,1,5.749-.831h.571a.831.831,0,0,1,0,1.662h-.452v1.006a4.905,4.905,0,0,1-2.915,4.479l.56.97h1.369a.831.831,0,0,1,0,1.662H307.22a.831.831,0,0,1-.72-.416l-1.043-1.806a4.939,4.939,0,0,1-.6,0l-.323.559h.409a.831.831,0,0,1,0,1.662h-1.849a.831.831,0,0,1-.72-1.247l.8-1.385A4.906,4.906,0,0,1,300.258,381.176Zm4.283,3.177.042.008a3.255,3.255,0,0,0,1.146,0l.042-.008a3.242,3.242,0,0,0,2.621-3.177v-1.837a1.272,1.272,0,0,0-2.544,0v.327a1.777,1.777,0,0,1-1.775,1.775h-2.142A3.243,3.243,0,0,0,304.541,384.353Z" transform="translate(-287.874 -337.839)"/>
      <path id="Path_1258017" data-name="Path 1258017" d="M412.019,381.176v-.314a1.084,1.084,0,0,1,1.083-1.083h2.732a.113.113,0,0,0,.113-.113v-.327a2.934,2.934,0,0,1,5.749-.831h.572a.831.831,0,1,1,0,1.662h-.452v1.006a4.905,4.905,0,0,1-2.915,4.479l.56.97h1.369a.831.831,0,1,1,0,1.662H418.98a.831.831,0,0,1-.72-.416l-1.043-1.806a4.937,4.937,0,0,1-.6,0l-.323.559h.409a.831.831,0,0,1,0,1.662h-1.849a.831.831,0,0,1-.72-1.247l.8-1.385A4.906,4.906,0,0,1,412.019,381.176Zm4.283,3.177.042.008a3.253,3.253,0,0,0,1.145,0l.044-.008a3.241,3.241,0,0,0,2.62-3.177v-1.837a1.272,1.272,0,0,0-2.544,0v.327a1.777,1.777,0,0,1-1.775,1.775h-2.142A3.243,3.243,0,0,0,416.3,384.353Z" transform="translate(-412.019 -337.839)"/>
    </g>
  </g>
</svg>
